%TF.GenerationSoftware,KiCad,Pcbnew,(5.1.10)-1*%
%TF.CreationDate,2022-04-28T16:12:41+02:00*%
%TF.ProjectId,BSPD-CV_3_0_03RC_B,42535044-2d43-4565-9f33-5f305f303352,rev?*%
%TF.SameCoordinates,Original*%
%TF.FileFunction,Soldermask,Top*%
%TF.FilePolarity,Negative*%
%FSLAX46Y46*%
G04 Gerber Fmt 4.6, Leading zero omitted, Abs format (unit mm)*
G04 Created by KiCad (PCBNEW (5.1.10)-1) date 2022-04-28 16:12:41*
%MOMM*%
%LPD*%
G01*
G04 APERTURE LIST*
%ADD10C,2.000000*%
%ADD11R,1.500000X2.000000*%
%ADD12R,3.800000X2.000000*%
%ADD13O,1.500000X1.500000*%
%ADD14R,1.500000X1.500000*%
%ADD15O,1.600000X1.600000*%
%ADD16R,1.600000X1.600000*%
%ADD17C,1.700000*%
%ADD18O,2.200000X1.700000*%
%ADD19C,4.700000*%
%ADD20R,0.500000X0.500000*%
%ADD21C,1.524000*%
%ADD22R,1.300000X1.600000*%
%ADD23R,2.000000X1.600000*%
%ADD24R,1.300000X3.300000*%
%ADD25R,3.300000X1.300000*%
%ADD26R,0.900000X0.800000*%
%ADD27C,1.500000*%
G04 APERTURE END LIST*
D10*
%TO.C,K101*%
X214498000Y-99324000D03*
X210998000Y-106924000D03*
X217998000Y-106924000D03*
X194498000Y-106924000D03*
X194498000Y-99324000D03*
%TD*%
D11*
%TO.C,U1*%
X168896000Y-105004000D03*
X173496000Y-105004000D03*
X171196000Y-105004000D03*
D12*
X171196000Y-98704000D03*
%TD*%
%TO.C,R58*%
G36*
G01*
X177024000Y-117762000D02*
X177024000Y-117442000D01*
G75*
G02*
X177184000Y-117282000I160000J0D01*
G01*
X177579000Y-117282000D01*
G75*
G02*
X177739000Y-117442000I0J-160000D01*
G01*
X177739000Y-117762000D01*
G75*
G02*
X177579000Y-117922000I-160000J0D01*
G01*
X177184000Y-117922000D01*
G75*
G02*
X177024000Y-117762000I0J160000D01*
G01*
G37*
G36*
G01*
X175829000Y-117762000D02*
X175829000Y-117442000D01*
G75*
G02*
X175989000Y-117282000I160000J0D01*
G01*
X176384000Y-117282000D01*
G75*
G02*
X176544000Y-117442000I0J-160000D01*
G01*
X176544000Y-117762000D01*
G75*
G02*
X176384000Y-117922000I-160000J0D01*
G01*
X175989000Y-117922000D01*
G75*
G02*
X175829000Y-117762000I0J160000D01*
G01*
G37*
%TD*%
%TO.C,R48*%
G36*
G01*
X177024000Y-116492000D02*
X177024000Y-116172000D01*
G75*
G02*
X177184000Y-116012000I160000J0D01*
G01*
X177579000Y-116012000D01*
G75*
G02*
X177739000Y-116172000I0J-160000D01*
G01*
X177739000Y-116492000D01*
G75*
G02*
X177579000Y-116652000I-160000J0D01*
G01*
X177184000Y-116652000D01*
G75*
G02*
X177024000Y-116492000I0J160000D01*
G01*
G37*
G36*
G01*
X175829000Y-116492000D02*
X175829000Y-116172000D01*
G75*
G02*
X175989000Y-116012000I160000J0D01*
G01*
X176384000Y-116012000D01*
G75*
G02*
X176544000Y-116172000I0J-160000D01*
G01*
X176544000Y-116492000D01*
G75*
G02*
X176384000Y-116652000I-160000J0D01*
G01*
X175989000Y-116652000D01*
G75*
G02*
X175829000Y-116492000I0J160000D01*
G01*
G37*
%TD*%
D13*
%TO.C,D56*%
X179578000Y-121920000D03*
D14*
X177038000Y-121920000D03*
%TD*%
D13*
%TO.C,D55*%
X177038000Y-119380000D03*
D14*
X179578000Y-119380000D03*
%TD*%
D13*
%TO.C,D47*%
X176784000Y-112268000D03*
D14*
X179324000Y-112268000D03*
%TD*%
D13*
%TO.C,D46*%
X179324000Y-114554000D03*
D14*
X176784000Y-114554000D03*
%TD*%
D13*
%TO.C,D22*%
X176530000Y-127254000D03*
D14*
X176530000Y-129794000D03*
%TD*%
D13*
%TO.C,D21*%
X178816000Y-129794000D03*
D14*
X178816000Y-127254000D03*
%TD*%
%TO.C,C95*%
G36*
G01*
X218623000Y-142510500D02*
X218623000Y-142985500D01*
G75*
G02*
X218385500Y-143223000I-237500J0D01*
G01*
X217785500Y-143223000D01*
G75*
G02*
X217548000Y-142985500I0J237500D01*
G01*
X217548000Y-142510500D01*
G75*
G02*
X217785500Y-142273000I237500J0D01*
G01*
X218385500Y-142273000D01*
G75*
G02*
X218623000Y-142510500I0J-237500D01*
G01*
G37*
G36*
G01*
X220348000Y-142510500D02*
X220348000Y-142985500D01*
G75*
G02*
X220110500Y-143223000I-237500J0D01*
G01*
X219510500Y-143223000D01*
G75*
G02*
X219273000Y-142985500I0J237500D01*
G01*
X219273000Y-142510500D01*
G75*
G02*
X219510500Y-142273000I237500J0D01*
G01*
X220110500Y-142273000D01*
G75*
G02*
X220348000Y-142510500I0J-237500D01*
G01*
G37*
%TD*%
%TO.C,C85*%
G36*
G01*
X218623000Y-124222500D02*
X218623000Y-124697500D01*
G75*
G02*
X218385500Y-124935000I-237500J0D01*
G01*
X217785500Y-124935000D01*
G75*
G02*
X217548000Y-124697500I0J237500D01*
G01*
X217548000Y-124222500D01*
G75*
G02*
X217785500Y-123985000I237500J0D01*
G01*
X218385500Y-123985000D01*
G75*
G02*
X218623000Y-124222500I0J-237500D01*
G01*
G37*
G36*
G01*
X220348000Y-124222500D02*
X220348000Y-124697500D01*
G75*
G02*
X220110500Y-124935000I-237500J0D01*
G01*
X219510500Y-124935000D01*
G75*
G02*
X219273000Y-124697500I0J237500D01*
G01*
X219273000Y-124222500D01*
G75*
G02*
X219510500Y-123985000I237500J0D01*
G01*
X220110500Y-123985000D01*
G75*
G02*
X220348000Y-124222500I0J-237500D01*
G01*
G37*
%TD*%
D13*
%TO.C,D54*%
X167386000Y-132080000D03*
D14*
X169926000Y-132080000D03*
%TD*%
D13*
%TO.C,D53*%
X169926000Y-129794000D03*
D14*
X167386000Y-129794000D03*
%TD*%
D13*
%TO.C,D52*%
X169926000Y-122682000D03*
D14*
X167386000Y-122682000D03*
%TD*%
D13*
%TO.C,D51*%
X167386000Y-124968000D03*
D14*
X169926000Y-124968000D03*
%TD*%
D13*
%TO.C,D44*%
X176974500Y-145669000D03*
D14*
X179514500Y-145669000D03*
%TD*%
D13*
%TO.C,D43*%
X179578000Y-143383000D03*
D14*
X177038000Y-143383000D03*
%TD*%
D13*
%TO.C,D42*%
X179641500Y-136398000D03*
D14*
X177101500Y-136398000D03*
%TD*%
D13*
%TO.C,D41*%
X177038000Y-138684000D03*
D14*
X179578000Y-138684000D03*
%TD*%
%TO.C,R33*%
G36*
G01*
X176116000Y-106412000D02*
X176436000Y-106412000D01*
G75*
G02*
X176596000Y-106572000I0J-160000D01*
G01*
X176596000Y-106967000D01*
G75*
G02*
X176436000Y-107127000I-160000J0D01*
G01*
X176116000Y-107127000D01*
G75*
G02*
X175956000Y-106967000I0J160000D01*
G01*
X175956000Y-106572000D01*
G75*
G02*
X176116000Y-106412000I160000J0D01*
G01*
G37*
G36*
G01*
X176116000Y-105217000D02*
X176436000Y-105217000D01*
G75*
G02*
X176596000Y-105377000I0J-160000D01*
G01*
X176596000Y-105772000D01*
G75*
G02*
X176436000Y-105932000I-160000J0D01*
G01*
X176116000Y-105932000D01*
G75*
G02*
X175956000Y-105772000I0J160000D01*
G01*
X175956000Y-105377000D01*
G75*
G02*
X176116000Y-105217000I160000J0D01*
G01*
G37*
%TD*%
%TO.C,R31*%
G36*
G01*
X177640000Y-106412000D02*
X177960000Y-106412000D01*
G75*
G02*
X178120000Y-106572000I0J-160000D01*
G01*
X178120000Y-106967000D01*
G75*
G02*
X177960000Y-107127000I-160000J0D01*
G01*
X177640000Y-107127000D01*
G75*
G02*
X177480000Y-106967000I0J160000D01*
G01*
X177480000Y-106572000D01*
G75*
G02*
X177640000Y-106412000I160000J0D01*
G01*
G37*
G36*
G01*
X177640000Y-105217000D02*
X177960000Y-105217000D01*
G75*
G02*
X178120000Y-105377000I0J-160000D01*
G01*
X178120000Y-105772000D01*
G75*
G02*
X177960000Y-105932000I-160000J0D01*
G01*
X177640000Y-105932000D01*
G75*
G02*
X177480000Y-105772000I0J160000D01*
G01*
X177480000Y-105377000D01*
G75*
G02*
X177640000Y-105217000I160000J0D01*
G01*
G37*
%TD*%
%TO.C,C32*%
G36*
G01*
X181593500Y-105693500D02*
X181118500Y-105693500D01*
G75*
G02*
X180881000Y-105456000I0J237500D01*
G01*
X180881000Y-104856000D01*
G75*
G02*
X181118500Y-104618500I237500J0D01*
G01*
X181593500Y-104618500D01*
G75*
G02*
X181831000Y-104856000I0J-237500D01*
G01*
X181831000Y-105456000D01*
G75*
G02*
X181593500Y-105693500I-237500J0D01*
G01*
G37*
G36*
G01*
X181593500Y-107418500D02*
X181118500Y-107418500D01*
G75*
G02*
X180881000Y-107181000I0J237500D01*
G01*
X180881000Y-106581000D01*
G75*
G02*
X181118500Y-106343500I237500J0D01*
G01*
X181593500Y-106343500D01*
G75*
G02*
X181831000Y-106581000I0J-237500D01*
G01*
X181831000Y-107181000D01*
G75*
G02*
X181593500Y-107418500I-237500J0D01*
G01*
G37*
%TD*%
%TO.C,C84*%
G36*
G01*
X230116000Y-130598000D02*
X230116000Y-129498000D01*
G75*
G02*
X230366000Y-129248000I250000J0D01*
G01*
X232466000Y-129248000D01*
G75*
G02*
X232716000Y-129498000I0J-250000D01*
G01*
X232716000Y-130598000D01*
G75*
G02*
X232466000Y-130848000I-250000J0D01*
G01*
X230366000Y-130848000D01*
G75*
G02*
X230116000Y-130598000I0J250000D01*
G01*
G37*
G36*
G01*
X226516000Y-130598000D02*
X226516000Y-129498000D01*
G75*
G02*
X226766000Y-129248000I250000J0D01*
G01*
X228866000Y-129248000D01*
G75*
G02*
X229116000Y-129498000I0J-250000D01*
G01*
X229116000Y-130598000D01*
G75*
G02*
X228866000Y-130848000I-250000J0D01*
G01*
X226766000Y-130848000D01*
G75*
G02*
X226516000Y-130598000I0J250000D01*
G01*
G37*
%TD*%
D15*
%TO.C,U91*%
X220980000Y-145542000D03*
X213360000Y-153162000D03*
X220980000Y-148082000D03*
X213360000Y-150622000D03*
X220980000Y-150622000D03*
X213360000Y-148082000D03*
X220980000Y-153162000D03*
D16*
X213360000Y-145542000D03*
%TD*%
D15*
%TO.C,U81*%
X220980000Y-127254000D03*
X213360000Y-134874000D03*
X220980000Y-129794000D03*
X213360000Y-132334000D03*
X220980000Y-132334000D03*
X213360000Y-129794000D03*
X220980000Y-134874000D03*
D16*
X213360000Y-127254000D03*
%TD*%
%TO.C,F11*%
G36*
G01*
X168669000Y-110099000D02*
X168669000Y-108849000D01*
G75*
G02*
X168919000Y-108599000I250000J0D01*
G01*
X169844000Y-108599000D01*
G75*
G02*
X170094000Y-108849000I0J-250000D01*
G01*
X170094000Y-110099000D01*
G75*
G02*
X169844000Y-110349000I-250000J0D01*
G01*
X168919000Y-110349000D01*
G75*
G02*
X168669000Y-110099000I0J250000D01*
G01*
G37*
G36*
G01*
X165694000Y-110099000D02*
X165694000Y-108849000D01*
G75*
G02*
X165944000Y-108599000I250000J0D01*
G01*
X166869000Y-108599000D01*
G75*
G02*
X167119000Y-108849000I0J-250000D01*
G01*
X167119000Y-110099000D01*
G75*
G02*
X166869000Y-110349000I-250000J0D01*
G01*
X165944000Y-110349000D01*
G75*
G02*
X165694000Y-110099000I0J250000D01*
G01*
G37*
%TD*%
D17*
%TO.C,J3*%
X152820000Y-140000000D03*
X152820000Y-145000000D03*
D18*
X160000000Y-140000000D03*
X160000000Y-142500000D03*
G36*
G01*
X161100000Y-144400000D02*
X161100000Y-145600000D01*
G75*
G02*
X160850000Y-145850000I-250000J0D01*
G01*
X159150000Y-145850000D01*
G75*
G02*
X158900000Y-145600000I0J250000D01*
G01*
X158900000Y-144400000D01*
G75*
G02*
X159150000Y-144150000I250000J0D01*
G01*
X160850000Y-144150000D01*
G75*
G02*
X161100000Y-144400000I0J-250000D01*
G01*
G37*
%TD*%
D17*
%TO.C,J2*%
X152820000Y-120476000D03*
X152820000Y-125476000D03*
D18*
X160000000Y-120476000D03*
X160000000Y-122976000D03*
G36*
G01*
X161100000Y-124876000D02*
X161100000Y-126076000D01*
G75*
G02*
X160850000Y-126326000I-250000J0D01*
G01*
X159150000Y-126326000D01*
G75*
G02*
X158900000Y-126076000I0J250000D01*
G01*
X158900000Y-124876000D01*
G75*
G02*
X159150000Y-124626000I250000J0D01*
G01*
X160850000Y-124626000D01*
G75*
G02*
X161100000Y-124876000I0J-250000D01*
G01*
G37*
%TD*%
D17*
%TO.C,J4*%
X231995400Y-107402000D03*
X231995400Y-104902000D03*
D18*
X224815400Y-107402000D03*
G36*
G01*
X223715400Y-105502000D02*
X223715400Y-104302000D01*
G75*
G02*
X223965400Y-104052000I250000J0D01*
G01*
X225665400Y-104052000D01*
G75*
G02*
X225915400Y-104302000I0J-250000D01*
G01*
X225915400Y-105502000D01*
G75*
G02*
X225665400Y-105752000I-250000J0D01*
G01*
X223965400Y-105752000D01*
G75*
G02*
X223715400Y-105502000I0J250000D01*
G01*
G37*
%TD*%
D17*
%TO.C,J1*%
X152820000Y-109500000D03*
X152820000Y-112000000D03*
D18*
X160000000Y-109500000D03*
G36*
G01*
X161100000Y-111400000D02*
X161100000Y-112600000D01*
G75*
G02*
X160850000Y-112850000I-250000J0D01*
G01*
X159150000Y-112850000D01*
G75*
G02*
X158900000Y-112600000I0J250000D01*
G01*
X158900000Y-111400000D01*
G75*
G02*
X159150000Y-111150000I250000J0D01*
G01*
X160850000Y-111150000D01*
G75*
G02*
X161100000Y-111400000I0J-250000D01*
G01*
G37*
%TD*%
D19*
%TO.C,H4*%
X233000000Y-158000000D03*
%TD*%
%TO.C,H3*%
X153000000Y-158000000D03*
%TD*%
%TO.C,H2*%
X233000000Y-98000000D03*
%TD*%
%TO.C,H1*%
X153000000Y-98000000D03*
%TD*%
D20*
%TO.C,D102*%
X189992000Y-99398000D03*
X189992000Y-97198000D03*
%TD*%
%TO.C,U8*%
G36*
G01*
X188952000Y-135278000D02*
X188952000Y-134978000D01*
G75*
G02*
X189102000Y-134828000I150000J0D01*
G01*
X190752000Y-134828000D01*
G75*
G02*
X190902000Y-134978000I0J-150000D01*
G01*
X190902000Y-135278000D01*
G75*
G02*
X190752000Y-135428000I-150000J0D01*
G01*
X189102000Y-135428000D01*
G75*
G02*
X188952000Y-135278000I0J150000D01*
G01*
G37*
G36*
G01*
X188952000Y-136548000D02*
X188952000Y-136248000D01*
G75*
G02*
X189102000Y-136098000I150000J0D01*
G01*
X190752000Y-136098000D01*
G75*
G02*
X190902000Y-136248000I0J-150000D01*
G01*
X190902000Y-136548000D01*
G75*
G02*
X190752000Y-136698000I-150000J0D01*
G01*
X189102000Y-136698000D01*
G75*
G02*
X188952000Y-136548000I0J150000D01*
G01*
G37*
G36*
G01*
X188952000Y-137818000D02*
X188952000Y-137518000D01*
G75*
G02*
X189102000Y-137368000I150000J0D01*
G01*
X190752000Y-137368000D01*
G75*
G02*
X190902000Y-137518000I0J-150000D01*
G01*
X190902000Y-137818000D01*
G75*
G02*
X190752000Y-137968000I-150000J0D01*
G01*
X189102000Y-137968000D01*
G75*
G02*
X188952000Y-137818000I0J150000D01*
G01*
G37*
G36*
G01*
X188952000Y-139088000D02*
X188952000Y-138788000D01*
G75*
G02*
X189102000Y-138638000I150000J0D01*
G01*
X190752000Y-138638000D01*
G75*
G02*
X190902000Y-138788000I0J-150000D01*
G01*
X190902000Y-139088000D01*
G75*
G02*
X190752000Y-139238000I-150000J0D01*
G01*
X189102000Y-139238000D01*
G75*
G02*
X188952000Y-139088000I0J150000D01*
G01*
G37*
G36*
G01*
X188952000Y-140358000D02*
X188952000Y-140058000D01*
G75*
G02*
X189102000Y-139908000I150000J0D01*
G01*
X190752000Y-139908000D01*
G75*
G02*
X190902000Y-140058000I0J-150000D01*
G01*
X190902000Y-140358000D01*
G75*
G02*
X190752000Y-140508000I-150000J0D01*
G01*
X189102000Y-140508000D01*
G75*
G02*
X188952000Y-140358000I0J150000D01*
G01*
G37*
G36*
G01*
X188952000Y-141628000D02*
X188952000Y-141328000D01*
G75*
G02*
X189102000Y-141178000I150000J0D01*
G01*
X190752000Y-141178000D01*
G75*
G02*
X190902000Y-141328000I0J-150000D01*
G01*
X190902000Y-141628000D01*
G75*
G02*
X190752000Y-141778000I-150000J0D01*
G01*
X189102000Y-141778000D01*
G75*
G02*
X188952000Y-141628000I0J150000D01*
G01*
G37*
G36*
G01*
X188952000Y-142898000D02*
X188952000Y-142598000D01*
G75*
G02*
X189102000Y-142448000I150000J0D01*
G01*
X190752000Y-142448000D01*
G75*
G02*
X190902000Y-142598000I0J-150000D01*
G01*
X190902000Y-142898000D01*
G75*
G02*
X190752000Y-143048000I-150000J0D01*
G01*
X189102000Y-143048000D01*
G75*
G02*
X188952000Y-142898000I0J150000D01*
G01*
G37*
G36*
G01*
X184002000Y-142898000D02*
X184002000Y-142598000D01*
G75*
G02*
X184152000Y-142448000I150000J0D01*
G01*
X185802000Y-142448000D01*
G75*
G02*
X185952000Y-142598000I0J-150000D01*
G01*
X185952000Y-142898000D01*
G75*
G02*
X185802000Y-143048000I-150000J0D01*
G01*
X184152000Y-143048000D01*
G75*
G02*
X184002000Y-142898000I0J150000D01*
G01*
G37*
G36*
G01*
X184002000Y-141628000D02*
X184002000Y-141328000D01*
G75*
G02*
X184152000Y-141178000I150000J0D01*
G01*
X185802000Y-141178000D01*
G75*
G02*
X185952000Y-141328000I0J-150000D01*
G01*
X185952000Y-141628000D01*
G75*
G02*
X185802000Y-141778000I-150000J0D01*
G01*
X184152000Y-141778000D01*
G75*
G02*
X184002000Y-141628000I0J150000D01*
G01*
G37*
G36*
G01*
X184002000Y-140358000D02*
X184002000Y-140058000D01*
G75*
G02*
X184152000Y-139908000I150000J0D01*
G01*
X185802000Y-139908000D01*
G75*
G02*
X185952000Y-140058000I0J-150000D01*
G01*
X185952000Y-140358000D01*
G75*
G02*
X185802000Y-140508000I-150000J0D01*
G01*
X184152000Y-140508000D01*
G75*
G02*
X184002000Y-140358000I0J150000D01*
G01*
G37*
G36*
G01*
X184002000Y-139088000D02*
X184002000Y-138788000D01*
G75*
G02*
X184152000Y-138638000I150000J0D01*
G01*
X185802000Y-138638000D01*
G75*
G02*
X185952000Y-138788000I0J-150000D01*
G01*
X185952000Y-139088000D01*
G75*
G02*
X185802000Y-139238000I-150000J0D01*
G01*
X184152000Y-139238000D01*
G75*
G02*
X184002000Y-139088000I0J150000D01*
G01*
G37*
G36*
G01*
X184002000Y-137818000D02*
X184002000Y-137518000D01*
G75*
G02*
X184152000Y-137368000I150000J0D01*
G01*
X185802000Y-137368000D01*
G75*
G02*
X185952000Y-137518000I0J-150000D01*
G01*
X185952000Y-137818000D01*
G75*
G02*
X185802000Y-137968000I-150000J0D01*
G01*
X184152000Y-137968000D01*
G75*
G02*
X184002000Y-137818000I0J150000D01*
G01*
G37*
G36*
G01*
X184002000Y-136548000D02*
X184002000Y-136248000D01*
G75*
G02*
X184152000Y-136098000I150000J0D01*
G01*
X185802000Y-136098000D01*
G75*
G02*
X185952000Y-136248000I0J-150000D01*
G01*
X185952000Y-136548000D01*
G75*
G02*
X185802000Y-136698000I-150000J0D01*
G01*
X184152000Y-136698000D01*
G75*
G02*
X184002000Y-136548000I0J150000D01*
G01*
G37*
G36*
G01*
X184002000Y-135278000D02*
X184002000Y-134978000D01*
G75*
G02*
X184152000Y-134828000I150000J0D01*
G01*
X185802000Y-134828000D01*
G75*
G02*
X185952000Y-134978000I0J-150000D01*
G01*
X185952000Y-135278000D01*
G75*
G02*
X185802000Y-135428000I-150000J0D01*
G01*
X184152000Y-135428000D01*
G75*
G02*
X184002000Y-135278000I0J150000D01*
G01*
G37*
%TD*%
%TO.C,U5*%
G36*
G01*
X198096000Y-135278000D02*
X198096000Y-134978000D01*
G75*
G02*
X198246000Y-134828000I150000J0D01*
G01*
X199896000Y-134828000D01*
G75*
G02*
X200046000Y-134978000I0J-150000D01*
G01*
X200046000Y-135278000D01*
G75*
G02*
X199896000Y-135428000I-150000J0D01*
G01*
X198246000Y-135428000D01*
G75*
G02*
X198096000Y-135278000I0J150000D01*
G01*
G37*
G36*
G01*
X198096000Y-136548000D02*
X198096000Y-136248000D01*
G75*
G02*
X198246000Y-136098000I150000J0D01*
G01*
X199896000Y-136098000D01*
G75*
G02*
X200046000Y-136248000I0J-150000D01*
G01*
X200046000Y-136548000D01*
G75*
G02*
X199896000Y-136698000I-150000J0D01*
G01*
X198246000Y-136698000D01*
G75*
G02*
X198096000Y-136548000I0J150000D01*
G01*
G37*
G36*
G01*
X198096000Y-137818000D02*
X198096000Y-137518000D01*
G75*
G02*
X198246000Y-137368000I150000J0D01*
G01*
X199896000Y-137368000D01*
G75*
G02*
X200046000Y-137518000I0J-150000D01*
G01*
X200046000Y-137818000D01*
G75*
G02*
X199896000Y-137968000I-150000J0D01*
G01*
X198246000Y-137968000D01*
G75*
G02*
X198096000Y-137818000I0J150000D01*
G01*
G37*
G36*
G01*
X198096000Y-139088000D02*
X198096000Y-138788000D01*
G75*
G02*
X198246000Y-138638000I150000J0D01*
G01*
X199896000Y-138638000D01*
G75*
G02*
X200046000Y-138788000I0J-150000D01*
G01*
X200046000Y-139088000D01*
G75*
G02*
X199896000Y-139238000I-150000J0D01*
G01*
X198246000Y-139238000D01*
G75*
G02*
X198096000Y-139088000I0J150000D01*
G01*
G37*
G36*
G01*
X198096000Y-140358000D02*
X198096000Y-140058000D01*
G75*
G02*
X198246000Y-139908000I150000J0D01*
G01*
X199896000Y-139908000D01*
G75*
G02*
X200046000Y-140058000I0J-150000D01*
G01*
X200046000Y-140358000D01*
G75*
G02*
X199896000Y-140508000I-150000J0D01*
G01*
X198246000Y-140508000D01*
G75*
G02*
X198096000Y-140358000I0J150000D01*
G01*
G37*
G36*
G01*
X198096000Y-141628000D02*
X198096000Y-141328000D01*
G75*
G02*
X198246000Y-141178000I150000J0D01*
G01*
X199896000Y-141178000D01*
G75*
G02*
X200046000Y-141328000I0J-150000D01*
G01*
X200046000Y-141628000D01*
G75*
G02*
X199896000Y-141778000I-150000J0D01*
G01*
X198246000Y-141778000D01*
G75*
G02*
X198096000Y-141628000I0J150000D01*
G01*
G37*
G36*
G01*
X198096000Y-142898000D02*
X198096000Y-142598000D01*
G75*
G02*
X198246000Y-142448000I150000J0D01*
G01*
X199896000Y-142448000D01*
G75*
G02*
X200046000Y-142598000I0J-150000D01*
G01*
X200046000Y-142898000D01*
G75*
G02*
X199896000Y-143048000I-150000J0D01*
G01*
X198246000Y-143048000D01*
G75*
G02*
X198096000Y-142898000I0J150000D01*
G01*
G37*
G36*
G01*
X193146000Y-142898000D02*
X193146000Y-142598000D01*
G75*
G02*
X193296000Y-142448000I150000J0D01*
G01*
X194946000Y-142448000D01*
G75*
G02*
X195096000Y-142598000I0J-150000D01*
G01*
X195096000Y-142898000D01*
G75*
G02*
X194946000Y-143048000I-150000J0D01*
G01*
X193296000Y-143048000D01*
G75*
G02*
X193146000Y-142898000I0J150000D01*
G01*
G37*
G36*
G01*
X193146000Y-141628000D02*
X193146000Y-141328000D01*
G75*
G02*
X193296000Y-141178000I150000J0D01*
G01*
X194946000Y-141178000D01*
G75*
G02*
X195096000Y-141328000I0J-150000D01*
G01*
X195096000Y-141628000D01*
G75*
G02*
X194946000Y-141778000I-150000J0D01*
G01*
X193296000Y-141778000D01*
G75*
G02*
X193146000Y-141628000I0J150000D01*
G01*
G37*
G36*
G01*
X193146000Y-140358000D02*
X193146000Y-140058000D01*
G75*
G02*
X193296000Y-139908000I150000J0D01*
G01*
X194946000Y-139908000D01*
G75*
G02*
X195096000Y-140058000I0J-150000D01*
G01*
X195096000Y-140358000D01*
G75*
G02*
X194946000Y-140508000I-150000J0D01*
G01*
X193296000Y-140508000D01*
G75*
G02*
X193146000Y-140358000I0J150000D01*
G01*
G37*
G36*
G01*
X193146000Y-139088000D02*
X193146000Y-138788000D01*
G75*
G02*
X193296000Y-138638000I150000J0D01*
G01*
X194946000Y-138638000D01*
G75*
G02*
X195096000Y-138788000I0J-150000D01*
G01*
X195096000Y-139088000D01*
G75*
G02*
X194946000Y-139238000I-150000J0D01*
G01*
X193296000Y-139238000D01*
G75*
G02*
X193146000Y-139088000I0J150000D01*
G01*
G37*
G36*
G01*
X193146000Y-137818000D02*
X193146000Y-137518000D01*
G75*
G02*
X193296000Y-137368000I150000J0D01*
G01*
X194946000Y-137368000D01*
G75*
G02*
X195096000Y-137518000I0J-150000D01*
G01*
X195096000Y-137818000D01*
G75*
G02*
X194946000Y-137968000I-150000J0D01*
G01*
X193296000Y-137968000D01*
G75*
G02*
X193146000Y-137818000I0J150000D01*
G01*
G37*
G36*
G01*
X193146000Y-136548000D02*
X193146000Y-136248000D01*
G75*
G02*
X193296000Y-136098000I150000J0D01*
G01*
X194946000Y-136098000D01*
G75*
G02*
X195096000Y-136248000I0J-150000D01*
G01*
X195096000Y-136548000D01*
G75*
G02*
X194946000Y-136698000I-150000J0D01*
G01*
X193296000Y-136698000D01*
G75*
G02*
X193146000Y-136548000I0J150000D01*
G01*
G37*
G36*
G01*
X193146000Y-135278000D02*
X193146000Y-134978000D01*
G75*
G02*
X193296000Y-134828000I150000J0D01*
G01*
X194946000Y-134828000D01*
G75*
G02*
X195096000Y-134978000I0J-150000D01*
G01*
X195096000Y-135278000D01*
G75*
G02*
X194946000Y-135428000I-150000J0D01*
G01*
X193296000Y-135428000D01*
G75*
G02*
X193146000Y-135278000I0J150000D01*
G01*
G37*
%TD*%
%TO.C,U4*%
G36*
G01*
X198096000Y-112672000D02*
X198096000Y-112372000D01*
G75*
G02*
X198246000Y-112222000I150000J0D01*
G01*
X199896000Y-112222000D01*
G75*
G02*
X200046000Y-112372000I0J-150000D01*
G01*
X200046000Y-112672000D01*
G75*
G02*
X199896000Y-112822000I-150000J0D01*
G01*
X198246000Y-112822000D01*
G75*
G02*
X198096000Y-112672000I0J150000D01*
G01*
G37*
G36*
G01*
X198096000Y-113942000D02*
X198096000Y-113642000D01*
G75*
G02*
X198246000Y-113492000I150000J0D01*
G01*
X199896000Y-113492000D01*
G75*
G02*
X200046000Y-113642000I0J-150000D01*
G01*
X200046000Y-113942000D01*
G75*
G02*
X199896000Y-114092000I-150000J0D01*
G01*
X198246000Y-114092000D01*
G75*
G02*
X198096000Y-113942000I0J150000D01*
G01*
G37*
G36*
G01*
X198096000Y-115212000D02*
X198096000Y-114912000D01*
G75*
G02*
X198246000Y-114762000I150000J0D01*
G01*
X199896000Y-114762000D01*
G75*
G02*
X200046000Y-114912000I0J-150000D01*
G01*
X200046000Y-115212000D01*
G75*
G02*
X199896000Y-115362000I-150000J0D01*
G01*
X198246000Y-115362000D01*
G75*
G02*
X198096000Y-115212000I0J150000D01*
G01*
G37*
G36*
G01*
X198096000Y-116482000D02*
X198096000Y-116182000D01*
G75*
G02*
X198246000Y-116032000I150000J0D01*
G01*
X199896000Y-116032000D01*
G75*
G02*
X200046000Y-116182000I0J-150000D01*
G01*
X200046000Y-116482000D01*
G75*
G02*
X199896000Y-116632000I-150000J0D01*
G01*
X198246000Y-116632000D01*
G75*
G02*
X198096000Y-116482000I0J150000D01*
G01*
G37*
G36*
G01*
X198096000Y-117752000D02*
X198096000Y-117452000D01*
G75*
G02*
X198246000Y-117302000I150000J0D01*
G01*
X199896000Y-117302000D01*
G75*
G02*
X200046000Y-117452000I0J-150000D01*
G01*
X200046000Y-117752000D01*
G75*
G02*
X199896000Y-117902000I-150000J0D01*
G01*
X198246000Y-117902000D01*
G75*
G02*
X198096000Y-117752000I0J150000D01*
G01*
G37*
G36*
G01*
X198096000Y-119022000D02*
X198096000Y-118722000D01*
G75*
G02*
X198246000Y-118572000I150000J0D01*
G01*
X199896000Y-118572000D01*
G75*
G02*
X200046000Y-118722000I0J-150000D01*
G01*
X200046000Y-119022000D01*
G75*
G02*
X199896000Y-119172000I-150000J0D01*
G01*
X198246000Y-119172000D01*
G75*
G02*
X198096000Y-119022000I0J150000D01*
G01*
G37*
G36*
G01*
X198096000Y-120292000D02*
X198096000Y-119992000D01*
G75*
G02*
X198246000Y-119842000I150000J0D01*
G01*
X199896000Y-119842000D01*
G75*
G02*
X200046000Y-119992000I0J-150000D01*
G01*
X200046000Y-120292000D01*
G75*
G02*
X199896000Y-120442000I-150000J0D01*
G01*
X198246000Y-120442000D01*
G75*
G02*
X198096000Y-120292000I0J150000D01*
G01*
G37*
G36*
G01*
X193146000Y-120292000D02*
X193146000Y-119992000D01*
G75*
G02*
X193296000Y-119842000I150000J0D01*
G01*
X194946000Y-119842000D01*
G75*
G02*
X195096000Y-119992000I0J-150000D01*
G01*
X195096000Y-120292000D01*
G75*
G02*
X194946000Y-120442000I-150000J0D01*
G01*
X193296000Y-120442000D01*
G75*
G02*
X193146000Y-120292000I0J150000D01*
G01*
G37*
G36*
G01*
X193146000Y-119022000D02*
X193146000Y-118722000D01*
G75*
G02*
X193296000Y-118572000I150000J0D01*
G01*
X194946000Y-118572000D01*
G75*
G02*
X195096000Y-118722000I0J-150000D01*
G01*
X195096000Y-119022000D01*
G75*
G02*
X194946000Y-119172000I-150000J0D01*
G01*
X193296000Y-119172000D01*
G75*
G02*
X193146000Y-119022000I0J150000D01*
G01*
G37*
G36*
G01*
X193146000Y-117752000D02*
X193146000Y-117452000D01*
G75*
G02*
X193296000Y-117302000I150000J0D01*
G01*
X194946000Y-117302000D01*
G75*
G02*
X195096000Y-117452000I0J-150000D01*
G01*
X195096000Y-117752000D01*
G75*
G02*
X194946000Y-117902000I-150000J0D01*
G01*
X193296000Y-117902000D01*
G75*
G02*
X193146000Y-117752000I0J150000D01*
G01*
G37*
G36*
G01*
X193146000Y-116482000D02*
X193146000Y-116182000D01*
G75*
G02*
X193296000Y-116032000I150000J0D01*
G01*
X194946000Y-116032000D01*
G75*
G02*
X195096000Y-116182000I0J-150000D01*
G01*
X195096000Y-116482000D01*
G75*
G02*
X194946000Y-116632000I-150000J0D01*
G01*
X193296000Y-116632000D01*
G75*
G02*
X193146000Y-116482000I0J150000D01*
G01*
G37*
G36*
G01*
X193146000Y-115212000D02*
X193146000Y-114912000D01*
G75*
G02*
X193296000Y-114762000I150000J0D01*
G01*
X194946000Y-114762000D01*
G75*
G02*
X195096000Y-114912000I0J-150000D01*
G01*
X195096000Y-115212000D01*
G75*
G02*
X194946000Y-115362000I-150000J0D01*
G01*
X193296000Y-115362000D01*
G75*
G02*
X193146000Y-115212000I0J150000D01*
G01*
G37*
G36*
G01*
X193146000Y-113942000D02*
X193146000Y-113642000D01*
G75*
G02*
X193296000Y-113492000I150000J0D01*
G01*
X194946000Y-113492000D01*
G75*
G02*
X195096000Y-113642000I0J-150000D01*
G01*
X195096000Y-113942000D01*
G75*
G02*
X194946000Y-114092000I-150000J0D01*
G01*
X193296000Y-114092000D01*
G75*
G02*
X193146000Y-113942000I0J150000D01*
G01*
G37*
G36*
G01*
X193146000Y-112672000D02*
X193146000Y-112372000D01*
G75*
G02*
X193296000Y-112222000I150000J0D01*
G01*
X194946000Y-112222000D01*
G75*
G02*
X195096000Y-112372000I0J-150000D01*
G01*
X195096000Y-112672000D01*
G75*
G02*
X194946000Y-112822000I-150000J0D01*
G01*
X193296000Y-112822000D01*
G75*
G02*
X193146000Y-112672000I0J150000D01*
G01*
G37*
%TD*%
%TO.C,U3*%
G36*
G01*
X188952000Y-112672000D02*
X188952000Y-112372000D01*
G75*
G02*
X189102000Y-112222000I150000J0D01*
G01*
X190752000Y-112222000D01*
G75*
G02*
X190902000Y-112372000I0J-150000D01*
G01*
X190902000Y-112672000D01*
G75*
G02*
X190752000Y-112822000I-150000J0D01*
G01*
X189102000Y-112822000D01*
G75*
G02*
X188952000Y-112672000I0J150000D01*
G01*
G37*
G36*
G01*
X188952000Y-113942000D02*
X188952000Y-113642000D01*
G75*
G02*
X189102000Y-113492000I150000J0D01*
G01*
X190752000Y-113492000D01*
G75*
G02*
X190902000Y-113642000I0J-150000D01*
G01*
X190902000Y-113942000D01*
G75*
G02*
X190752000Y-114092000I-150000J0D01*
G01*
X189102000Y-114092000D01*
G75*
G02*
X188952000Y-113942000I0J150000D01*
G01*
G37*
G36*
G01*
X188952000Y-115212000D02*
X188952000Y-114912000D01*
G75*
G02*
X189102000Y-114762000I150000J0D01*
G01*
X190752000Y-114762000D01*
G75*
G02*
X190902000Y-114912000I0J-150000D01*
G01*
X190902000Y-115212000D01*
G75*
G02*
X190752000Y-115362000I-150000J0D01*
G01*
X189102000Y-115362000D01*
G75*
G02*
X188952000Y-115212000I0J150000D01*
G01*
G37*
G36*
G01*
X188952000Y-116482000D02*
X188952000Y-116182000D01*
G75*
G02*
X189102000Y-116032000I150000J0D01*
G01*
X190752000Y-116032000D01*
G75*
G02*
X190902000Y-116182000I0J-150000D01*
G01*
X190902000Y-116482000D01*
G75*
G02*
X190752000Y-116632000I-150000J0D01*
G01*
X189102000Y-116632000D01*
G75*
G02*
X188952000Y-116482000I0J150000D01*
G01*
G37*
G36*
G01*
X188952000Y-117752000D02*
X188952000Y-117452000D01*
G75*
G02*
X189102000Y-117302000I150000J0D01*
G01*
X190752000Y-117302000D01*
G75*
G02*
X190902000Y-117452000I0J-150000D01*
G01*
X190902000Y-117752000D01*
G75*
G02*
X190752000Y-117902000I-150000J0D01*
G01*
X189102000Y-117902000D01*
G75*
G02*
X188952000Y-117752000I0J150000D01*
G01*
G37*
G36*
G01*
X188952000Y-119022000D02*
X188952000Y-118722000D01*
G75*
G02*
X189102000Y-118572000I150000J0D01*
G01*
X190752000Y-118572000D01*
G75*
G02*
X190902000Y-118722000I0J-150000D01*
G01*
X190902000Y-119022000D01*
G75*
G02*
X190752000Y-119172000I-150000J0D01*
G01*
X189102000Y-119172000D01*
G75*
G02*
X188952000Y-119022000I0J150000D01*
G01*
G37*
G36*
G01*
X188952000Y-120292000D02*
X188952000Y-119992000D01*
G75*
G02*
X189102000Y-119842000I150000J0D01*
G01*
X190752000Y-119842000D01*
G75*
G02*
X190902000Y-119992000I0J-150000D01*
G01*
X190902000Y-120292000D01*
G75*
G02*
X190752000Y-120442000I-150000J0D01*
G01*
X189102000Y-120442000D01*
G75*
G02*
X188952000Y-120292000I0J150000D01*
G01*
G37*
G36*
G01*
X184002000Y-120292000D02*
X184002000Y-119992000D01*
G75*
G02*
X184152000Y-119842000I150000J0D01*
G01*
X185802000Y-119842000D01*
G75*
G02*
X185952000Y-119992000I0J-150000D01*
G01*
X185952000Y-120292000D01*
G75*
G02*
X185802000Y-120442000I-150000J0D01*
G01*
X184152000Y-120442000D01*
G75*
G02*
X184002000Y-120292000I0J150000D01*
G01*
G37*
G36*
G01*
X184002000Y-119022000D02*
X184002000Y-118722000D01*
G75*
G02*
X184152000Y-118572000I150000J0D01*
G01*
X185802000Y-118572000D01*
G75*
G02*
X185952000Y-118722000I0J-150000D01*
G01*
X185952000Y-119022000D01*
G75*
G02*
X185802000Y-119172000I-150000J0D01*
G01*
X184152000Y-119172000D01*
G75*
G02*
X184002000Y-119022000I0J150000D01*
G01*
G37*
G36*
G01*
X184002000Y-117752000D02*
X184002000Y-117452000D01*
G75*
G02*
X184152000Y-117302000I150000J0D01*
G01*
X185802000Y-117302000D01*
G75*
G02*
X185952000Y-117452000I0J-150000D01*
G01*
X185952000Y-117752000D01*
G75*
G02*
X185802000Y-117902000I-150000J0D01*
G01*
X184152000Y-117902000D01*
G75*
G02*
X184002000Y-117752000I0J150000D01*
G01*
G37*
G36*
G01*
X184002000Y-116482000D02*
X184002000Y-116182000D01*
G75*
G02*
X184152000Y-116032000I150000J0D01*
G01*
X185802000Y-116032000D01*
G75*
G02*
X185952000Y-116182000I0J-150000D01*
G01*
X185952000Y-116482000D01*
G75*
G02*
X185802000Y-116632000I-150000J0D01*
G01*
X184152000Y-116632000D01*
G75*
G02*
X184002000Y-116482000I0J150000D01*
G01*
G37*
G36*
G01*
X184002000Y-115212000D02*
X184002000Y-114912000D01*
G75*
G02*
X184152000Y-114762000I150000J0D01*
G01*
X185802000Y-114762000D01*
G75*
G02*
X185952000Y-114912000I0J-150000D01*
G01*
X185952000Y-115212000D01*
G75*
G02*
X185802000Y-115362000I-150000J0D01*
G01*
X184152000Y-115362000D01*
G75*
G02*
X184002000Y-115212000I0J150000D01*
G01*
G37*
G36*
G01*
X184002000Y-113942000D02*
X184002000Y-113642000D01*
G75*
G02*
X184152000Y-113492000I150000J0D01*
G01*
X185802000Y-113492000D01*
G75*
G02*
X185952000Y-113642000I0J-150000D01*
G01*
X185952000Y-113942000D01*
G75*
G02*
X185802000Y-114092000I-150000J0D01*
G01*
X184152000Y-114092000D01*
G75*
G02*
X184002000Y-113942000I0J150000D01*
G01*
G37*
G36*
G01*
X184002000Y-112672000D02*
X184002000Y-112372000D01*
G75*
G02*
X184152000Y-112222000I150000J0D01*
G01*
X185802000Y-112222000D01*
G75*
G02*
X185952000Y-112372000I0J-150000D01*
G01*
X185952000Y-112672000D01*
G75*
G02*
X185802000Y-112822000I-150000J0D01*
G01*
X184152000Y-112822000D01*
G75*
G02*
X184002000Y-112672000I0J150000D01*
G01*
G37*
%TD*%
%TO.C,U2*%
G36*
G01*
X169902000Y-112672000D02*
X169902000Y-112372000D01*
G75*
G02*
X170052000Y-112222000I150000J0D01*
G01*
X171702000Y-112222000D01*
G75*
G02*
X171852000Y-112372000I0J-150000D01*
G01*
X171852000Y-112672000D01*
G75*
G02*
X171702000Y-112822000I-150000J0D01*
G01*
X170052000Y-112822000D01*
G75*
G02*
X169902000Y-112672000I0J150000D01*
G01*
G37*
G36*
G01*
X169902000Y-113942000D02*
X169902000Y-113642000D01*
G75*
G02*
X170052000Y-113492000I150000J0D01*
G01*
X171702000Y-113492000D01*
G75*
G02*
X171852000Y-113642000I0J-150000D01*
G01*
X171852000Y-113942000D01*
G75*
G02*
X171702000Y-114092000I-150000J0D01*
G01*
X170052000Y-114092000D01*
G75*
G02*
X169902000Y-113942000I0J150000D01*
G01*
G37*
G36*
G01*
X169902000Y-115212000D02*
X169902000Y-114912000D01*
G75*
G02*
X170052000Y-114762000I150000J0D01*
G01*
X171702000Y-114762000D01*
G75*
G02*
X171852000Y-114912000I0J-150000D01*
G01*
X171852000Y-115212000D01*
G75*
G02*
X171702000Y-115362000I-150000J0D01*
G01*
X170052000Y-115362000D01*
G75*
G02*
X169902000Y-115212000I0J150000D01*
G01*
G37*
G36*
G01*
X169902000Y-116482000D02*
X169902000Y-116182000D01*
G75*
G02*
X170052000Y-116032000I150000J0D01*
G01*
X171702000Y-116032000D01*
G75*
G02*
X171852000Y-116182000I0J-150000D01*
G01*
X171852000Y-116482000D01*
G75*
G02*
X171702000Y-116632000I-150000J0D01*
G01*
X170052000Y-116632000D01*
G75*
G02*
X169902000Y-116482000I0J150000D01*
G01*
G37*
G36*
G01*
X169902000Y-117752000D02*
X169902000Y-117452000D01*
G75*
G02*
X170052000Y-117302000I150000J0D01*
G01*
X171702000Y-117302000D01*
G75*
G02*
X171852000Y-117452000I0J-150000D01*
G01*
X171852000Y-117752000D01*
G75*
G02*
X171702000Y-117902000I-150000J0D01*
G01*
X170052000Y-117902000D01*
G75*
G02*
X169902000Y-117752000I0J150000D01*
G01*
G37*
G36*
G01*
X169902000Y-119022000D02*
X169902000Y-118722000D01*
G75*
G02*
X170052000Y-118572000I150000J0D01*
G01*
X171702000Y-118572000D01*
G75*
G02*
X171852000Y-118722000I0J-150000D01*
G01*
X171852000Y-119022000D01*
G75*
G02*
X171702000Y-119172000I-150000J0D01*
G01*
X170052000Y-119172000D01*
G75*
G02*
X169902000Y-119022000I0J150000D01*
G01*
G37*
G36*
G01*
X169902000Y-120292000D02*
X169902000Y-119992000D01*
G75*
G02*
X170052000Y-119842000I150000J0D01*
G01*
X171702000Y-119842000D01*
G75*
G02*
X171852000Y-119992000I0J-150000D01*
G01*
X171852000Y-120292000D01*
G75*
G02*
X171702000Y-120442000I-150000J0D01*
G01*
X170052000Y-120442000D01*
G75*
G02*
X169902000Y-120292000I0J150000D01*
G01*
G37*
G36*
G01*
X164952000Y-120292000D02*
X164952000Y-119992000D01*
G75*
G02*
X165102000Y-119842000I150000J0D01*
G01*
X166752000Y-119842000D01*
G75*
G02*
X166902000Y-119992000I0J-150000D01*
G01*
X166902000Y-120292000D01*
G75*
G02*
X166752000Y-120442000I-150000J0D01*
G01*
X165102000Y-120442000D01*
G75*
G02*
X164952000Y-120292000I0J150000D01*
G01*
G37*
G36*
G01*
X164952000Y-119022000D02*
X164952000Y-118722000D01*
G75*
G02*
X165102000Y-118572000I150000J0D01*
G01*
X166752000Y-118572000D01*
G75*
G02*
X166902000Y-118722000I0J-150000D01*
G01*
X166902000Y-119022000D01*
G75*
G02*
X166752000Y-119172000I-150000J0D01*
G01*
X165102000Y-119172000D01*
G75*
G02*
X164952000Y-119022000I0J150000D01*
G01*
G37*
G36*
G01*
X164952000Y-117752000D02*
X164952000Y-117452000D01*
G75*
G02*
X165102000Y-117302000I150000J0D01*
G01*
X166752000Y-117302000D01*
G75*
G02*
X166902000Y-117452000I0J-150000D01*
G01*
X166902000Y-117752000D01*
G75*
G02*
X166752000Y-117902000I-150000J0D01*
G01*
X165102000Y-117902000D01*
G75*
G02*
X164952000Y-117752000I0J150000D01*
G01*
G37*
G36*
G01*
X164952000Y-116482000D02*
X164952000Y-116182000D01*
G75*
G02*
X165102000Y-116032000I150000J0D01*
G01*
X166752000Y-116032000D01*
G75*
G02*
X166902000Y-116182000I0J-150000D01*
G01*
X166902000Y-116482000D01*
G75*
G02*
X166752000Y-116632000I-150000J0D01*
G01*
X165102000Y-116632000D01*
G75*
G02*
X164952000Y-116482000I0J150000D01*
G01*
G37*
G36*
G01*
X164952000Y-115212000D02*
X164952000Y-114912000D01*
G75*
G02*
X165102000Y-114762000I150000J0D01*
G01*
X166752000Y-114762000D01*
G75*
G02*
X166902000Y-114912000I0J-150000D01*
G01*
X166902000Y-115212000D01*
G75*
G02*
X166752000Y-115362000I-150000J0D01*
G01*
X165102000Y-115362000D01*
G75*
G02*
X164952000Y-115212000I0J150000D01*
G01*
G37*
G36*
G01*
X164952000Y-113942000D02*
X164952000Y-113642000D01*
G75*
G02*
X165102000Y-113492000I150000J0D01*
G01*
X166752000Y-113492000D01*
G75*
G02*
X166902000Y-113642000I0J-150000D01*
G01*
X166902000Y-113942000D01*
G75*
G02*
X166752000Y-114092000I-150000J0D01*
G01*
X165102000Y-114092000D01*
G75*
G02*
X164952000Y-113942000I0J150000D01*
G01*
G37*
G36*
G01*
X164952000Y-112672000D02*
X164952000Y-112372000D01*
G75*
G02*
X165102000Y-112222000I150000J0D01*
G01*
X166752000Y-112222000D01*
G75*
G02*
X166902000Y-112372000I0J-150000D01*
G01*
X166902000Y-112672000D01*
G75*
G02*
X166752000Y-112822000I-150000J0D01*
G01*
X165102000Y-112822000D01*
G75*
G02*
X164952000Y-112672000I0J150000D01*
G01*
G37*
%TD*%
D21*
%TO.C,S3*%
X204724000Y-157988000D03*
%TD*%
%TO.C,S2*%
X200660000Y-157988000D03*
%TD*%
%TO.C,S1*%
X196596000Y-157988000D03*
%TD*%
D22*
%TO.C,VApp1*%
X192004000Y-157914000D03*
D23*
X190754000Y-155014000D03*
D22*
X189504000Y-157914000D03*
%TD*%
%TO.C,VBrk1*%
X185400000Y-157914000D03*
D23*
X184150000Y-155014000D03*
D22*
X182900000Y-157914000D03*
%TD*%
D24*
%TO.C,V0.5*%
X157988000Y-157751000D03*
X160528000Y-150351000D03*
X163068000Y-157751000D03*
%TD*%
%TO.C,V4.5*%
X166116000Y-157751000D03*
X168656000Y-150351000D03*
X171196000Y-157751000D03*
%TD*%
%TO.C,VC1*%
X174244000Y-157751000D03*
X176784000Y-150351000D03*
X179324000Y-157751000D03*
%TD*%
D25*
%TO.C,VT2*%
X225916000Y-119380000D03*
X233316000Y-121920000D03*
X225916000Y-124460000D03*
%TD*%
%TO.C,VT1*%
X225916000Y-111252000D03*
X233316000Y-113792000D03*
X225916000Y-116332000D03*
%TD*%
%TO.C,R54*%
G36*
G01*
X169940000Y-126586000D02*
X169940000Y-126906000D01*
G75*
G02*
X169780000Y-127066000I-160000J0D01*
G01*
X169385000Y-127066000D01*
G75*
G02*
X169225000Y-126906000I0J160000D01*
G01*
X169225000Y-126586000D01*
G75*
G02*
X169385000Y-126426000I160000J0D01*
G01*
X169780000Y-126426000D01*
G75*
G02*
X169940000Y-126586000I0J-160000D01*
G01*
G37*
G36*
G01*
X171135000Y-126586000D02*
X171135000Y-126906000D01*
G75*
G02*
X170975000Y-127066000I-160000J0D01*
G01*
X170580000Y-127066000D01*
G75*
G02*
X170420000Y-126906000I0J160000D01*
G01*
X170420000Y-126586000D01*
G75*
G02*
X170580000Y-126426000I160000J0D01*
G01*
X170975000Y-126426000D01*
G75*
G02*
X171135000Y-126586000I0J-160000D01*
G01*
G37*
%TD*%
%TO.C,R55*%
G36*
G01*
X190232000Y-123604000D02*
X190232000Y-123284000D01*
G75*
G02*
X190392000Y-123124000I160000J0D01*
G01*
X190787000Y-123124000D01*
G75*
G02*
X190947000Y-123284000I0J-160000D01*
G01*
X190947000Y-123604000D01*
G75*
G02*
X190787000Y-123764000I-160000J0D01*
G01*
X190392000Y-123764000D01*
G75*
G02*
X190232000Y-123604000I0J160000D01*
G01*
G37*
G36*
G01*
X189037000Y-123604000D02*
X189037000Y-123284000D01*
G75*
G02*
X189197000Y-123124000I160000J0D01*
G01*
X189592000Y-123124000D01*
G75*
G02*
X189752000Y-123284000I0J-160000D01*
G01*
X189752000Y-123604000D01*
G75*
G02*
X189592000Y-123764000I-160000J0D01*
G01*
X189197000Y-123764000D01*
G75*
G02*
X189037000Y-123604000I0J160000D01*
G01*
G37*
%TD*%
%TO.C,R94*%
G36*
G01*
X207532000Y-143096000D02*
X207532000Y-143416000D01*
G75*
G02*
X207372000Y-143576000I-160000J0D01*
G01*
X206977000Y-143576000D01*
G75*
G02*
X206817000Y-143416000I0J160000D01*
G01*
X206817000Y-143096000D01*
G75*
G02*
X206977000Y-142936000I160000J0D01*
G01*
X207372000Y-142936000D01*
G75*
G02*
X207532000Y-143096000I0J-160000D01*
G01*
G37*
G36*
G01*
X208727000Y-143096000D02*
X208727000Y-143416000D01*
G75*
G02*
X208567000Y-143576000I-160000J0D01*
G01*
X208172000Y-143576000D01*
G75*
G02*
X208012000Y-143416000I0J160000D01*
G01*
X208012000Y-143096000D01*
G75*
G02*
X208172000Y-142936000I160000J0D01*
G01*
X208567000Y-142936000D01*
G75*
G02*
X208727000Y-143096000I0J-160000D01*
G01*
G37*
%TD*%
%TO.C,R53*%
G36*
G01*
X169940000Y-127856000D02*
X169940000Y-128176000D01*
G75*
G02*
X169780000Y-128336000I-160000J0D01*
G01*
X169385000Y-128336000D01*
G75*
G02*
X169225000Y-128176000I0J160000D01*
G01*
X169225000Y-127856000D01*
G75*
G02*
X169385000Y-127696000I160000J0D01*
G01*
X169780000Y-127696000D01*
G75*
G02*
X169940000Y-127856000I0J-160000D01*
G01*
G37*
G36*
G01*
X171135000Y-127856000D02*
X171135000Y-128176000D01*
G75*
G02*
X170975000Y-128336000I-160000J0D01*
G01*
X170580000Y-128336000D01*
G75*
G02*
X170420000Y-128176000I0J160000D01*
G01*
X170420000Y-127856000D01*
G75*
G02*
X170580000Y-127696000I160000J0D01*
G01*
X170975000Y-127696000D01*
G75*
G02*
X171135000Y-127856000I0J-160000D01*
G01*
G37*
%TD*%
%TO.C,R92*%
G36*
G01*
X207532000Y-150462000D02*
X207532000Y-150782000D01*
G75*
G02*
X207372000Y-150942000I-160000J0D01*
G01*
X206977000Y-150942000D01*
G75*
G02*
X206817000Y-150782000I0J160000D01*
G01*
X206817000Y-150462000D01*
G75*
G02*
X206977000Y-150302000I160000J0D01*
G01*
X207372000Y-150302000D01*
G75*
G02*
X207532000Y-150462000I0J-160000D01*
G01*
G37*
G36*
G01*
X208727000Y-150462000D02*
X208727000Y-150782000D01*
G75*
G02*
X208567000Y-150942000I-160000J0D01*
G01*
X208172000Y-150942000D01*
G75*
G02*
X208012000Y-150782000I0J160000D01*
G01*
X208012000Y-150462000D01*
G75*
G02*
X208172000Y-150302000I160000J0D01*
G01*
X208567000Y-150302000D01*
G75*
G02*
X208727000Y-150462000I0J-160000D01*
G01*
G37*
%TD*%
%TO.C,R91*%
G36*
G01*
X208012000Y-149512000D02*
X208012000Y-149192000D01*
G75*
G02*
X208172000Y-149032000I160000J0D01*
G01*
X208567000Y-149032000D01*
G75*
G02*
X208727000Y-149192000I0J-160000D01*
G01*
X208727000Y-149512000D01*
G75*
G02*
X208567000Y-149672000I-160000J0D01*
G01*
X208172000Y-149672000D01*
G75*
G02*
X208012000Y-149512000I0J160000D01*
G01*
G37*
G36*
G01*
X206817000Y-149512000D02*
X206817000Y-149192000D01*
G75*
G02*
X206977000Y-149032000I160000J0D01*
G01*
X207372000Y-149032000D01*
G75*
G02*
X207532000Y-149192000I0J-160000D01*
G01*
X207532000Y-149512000D01*
G75*
G02*
X207372000Y-149672000I-160000J0D01*
G01*
X206977000Y-149672000D01*
G75*
G02*
X206817000Y-149512000I0J160000D01*
G01*
G37*
%TD*%
%TO.C,R51*%
G36*
G01*
X162908000Y-140791500D02*
X163228000Y-140791500D01*
G75*
G02*
X163388000Y-140951500I0J-160000D01*
G01*
X163388000Y-141346500D01*
G75*
G02*
X163228000Y-141506500I-160000J0D01*
G01*
X162908000Y-141506500D01*
G75*
G02*
X162748000Y-141346500I0J160000D01*
G01*
X162748000Y-140951500D01*
G75*
G02*
X162908000Y-140791500I160000J0D01*
G01*
G37*
G36*
G01*
X162908000Y-139596500D02*
X163228000Y-139596500D01*
G75*
G02*
X163388000Y-139756500I0J-160000D01*
G01*
X163388000Y-140151500D01*
G75*
G02*
X163228000Y-140311500I-160000J0D01*
G01*
X162908000Y-140311500D01*
G75*
G02*
X162748000Y-140151500I0J160000D01*
G01*
X162748000Y-139756500D01*
G75*
G02*
X162908000Y-139596500I160000J0D01*
G01*
G37*
%TD*%
%TO.C,R103*%
G36*
G01*
X187358000Y-105005500D02*
X187038000Y-105005500D01*
G75*
G02*
X186878000Y-104845500I0J160000D01*
G01*
X186878000Y-104450500D01*
G75*
G02*
X187038000Y-104290500I160000J0D01*
G01*
X187358000Y-104290500D01*
G75*
G02*
X187518000Y-104450500I0J-160000D01*
G01*
X187518000Y-104845500D01*
G75*
G02*
X187358000Y-105005500I-160000J0D01*
G01*
G37*
G36*
G01*
X187358000Y-106200500D02*
X187038000Y-106200500D01*
G75*
G02*
X186878000Y-106040500I0J160000D01*
G01*
X186878000Y-105645500D01*
G75*
G02*
X187038000Y-105485500I160000J0D01*
G01*
X187358000Y-105485500D01*
G75*
G02*
X187518000Y-105645500I0J-160000D01*
G01*
X187518000Y-106040500D01*
G75*
G02*
X187358000Y-106200500I-160000J0D01*
G01*
G37*
%TD*%
%TO.C,R102*%
G36*
G01*
X185834000Y-105005500D02*
X185514000Y-105005500D01*
G75*
G02*
X185354000Y-104845500I0J160000D01*
G01*
X185354000Y-104450500D01*
G75*
G02*
X185514000Y-104290500I160000J0D01*
G01*
X185834000Y-104290500D01*
G75*
G02*
X185994000Y-104450500I0J-160000D01*
G01*
X185994000Y-104845500D01*
G75*
G02*
X185834000Y-105005500I-160000J0D01*
G01*
G37*
G36*
G01*
X185834000Y-106200500D02*
X185514000Y-106200500D01*
G75*
G02*
X185354000Y-106040500I0J160000D01*
G01*
X185354000Y-105645500D01*
G75*
G02*
X185514000Y-105485500I160000J0D01*
G01*
X185834000Y-105485500D01*
G75*
G02*
X185994000Y-105645500I0J-160000D01*
G01*
X185994000Y-106040500D01*
G75*
G02*
X185834000Y-106200500I-160000J0D01*
G01*
G37*
%TD*%
%TO.C,R84*%
G36*
G01*
X207696500Y-124554000D02*
X207696500Y-124874000D01*
G75*
G02*
X207536500Y-125034000I-160000J0D01*
G01*
X207141500Y-125034000D01*
G75*
G02*
X206981500Y-124874000I0J160000D01*
G01*
X206981500Y-124554000D01*
G75*
G02*
X207141500Y-124394000I160000J0D01*
G01*
X207536500Y-124394000D01*
G75*
G02*
X207696500Y-124554000I0J-160000D01*
G01*
G37*
G36*
G01*
X208891500Y-124554000D02*
X208891500Y-124874000D01*
G75*
G02*
X208731500Y-125034000I-160000J0D01*
G01*
X208336500Y-125034000D01*
G75*
G02*
X208176500Y-124874000I0J160000D01*
G01*
X208176500Y-124554000D01*
G75*
G02*
X208336500Y-124394000I160000J0D01*
G01*
X208731500Y-124394000D01*
G75*
G02*
X208891500Y-124554000I0J-160000D01*
G01*
G37*
%TD*%
%TO.C,R44*%
G36*
G01*
X179681500Y-141572000D02*
X179681500Y-141892000D01*
G75*
G02*
X179521500Y-142052000I-160000J0D01*
G01*
X179126500Y-142052000D01*
G75*
G02*
X178966500Y-141892000I0J160000D01*
G01*
X178966500Y-141572000D01*
G75*
G02*
X179126500Y-141412000I160000J0D01*
G01*
X179521500Y-141412000D01*
G75*
G02*
X179681500Y-141572000I0J-160000D01*
G01*
G37*
G36*
G01*
X180876500Y-141572000D02*
X180876500Y-141892000D01*
G75*
G02*
X180716500Y-142052000I-160000J0D01*
G01*
X180321500Y-142052000D01*
G75*
G02*
X180161500Y-141892000I0J160000D01*
G01*
X180161500Y-141572000D01*
G75*
G02*
X180321500Y-141412000I160000J0D01*
G01*
X180716500Y-141412000D01*
G75*
G02*
X180876500Y-141572000I0J-160000D01*
G01*
G37*
%TD*%
%TO.C,R82*%
G36*
G01*
X207786000Y-131920000D02*
X207786000Y-132240000D01*
G75*
G02*
X207626000Y-132400000I-160000J0D01*
G01*
X207231000Y-132400000D01*
G75*
G02*
X207071000Y-132240000I0J160000D01*
G01*
X207071000Y-131920000D01*
G75*
G02*
X207231000Y-131760000I160000J0D01*
G01*
X207626000Y-131760000D01*
G75*
G02*
X207786000Y-131920000I0J-160000D01*
G01*
G37*
G36*
G01*
X208981000Y-131920000D02*
X208981000Y-132240000D01*
G75*
G02*
X208821000Y-132400000I-160000J0D01*
G01*
X208426000Y-132400000D01*
G75*
G02*
X208266000Y-132240000I0J160000D01*
G01*
X208266000Y-131920000D01*
G75*
G02*
X208426000Y-131760000I160000J0D01*
G01*
X208821000Y-131760000D01*
G75*
G02*
X208981000Y-131920000I0J-160000D01*
G01*
G37*
%TD*%
%TO.C,R81*%
G36*
G01*
X208266000Y-130970000D02*
X208266000Y-130650000D01*
G75*
G02*
X208426000Y-130490000I160000J0D01*
G01*
X208821000Y-130490000D01*
G75*
G02*
X208981000Y-130650000I0J-160000D01*
G01*
X208981000Y-130970000D01*
G75*
G02*
X208821000Y-131130000I-160000J0D01*
G01*
X208426000Y-131130000D01*
G75*
G02*
X208266000Y-130970000I0J160000D01*
G01*
G37*
G36*
G01*
X207071000Y-130970000D02*
X207071000Y-130650000D01*
G75*
G02*
X207231000Y-130490000I160000J0D01*
G01*
X207626000Y-130490000D01*
G75*
G02*
X207786000Y-130650000I0J-160000D01*
G01*
X207786000Y-130970000D01*
G75*
G02*
X207626000Y-131130000I-160000J0D01*
G01*
X207231000Y-131130000D01*
G75*
G02*
X207071000Y-130970000I0J160000D01*
G01*
G37*
%TD*%
%TO.C,R45*%
G36*
G01*
X190232000Y-122080000D02*
X190232000Y-121760000D01*
G75*
G02*
X190392000Y-121600000I160000J0D01*
G01*
X190787000Y-121600000D01*
G75*
G02*
X190947000Y-121760000I0J-160000D01*
G01*
X190947000Y-122080000D01*
G75*
G02*
X190787000Y-122240000I-160000J0D01*
G01*
X190392000Y-122240000D01*
G75*
G02*
X190232000Y-122080000I0J160000D01*
G01*
G37*
G36*
G01*
X189037000Y-122080000D02*
X189037000Y-121760000D01*
G75*
G02*
X189197000Y-121600000I160000J0D01*
G01*
X189592000Y-121600000D01*
G75*
G02*
X189752000Y-121760000I0J-160000D01*
G01*
X189752000Y-122080000D01*
G75*
G02*
X189592000Y-122240000I-160000J0D01*
G01*
X189197000Y-122240000D01*
G75*
G02*
X189037000Y-122080000I0J160000D01*
G01*
G37*
%TD*%
%TO.C,R101*%
G36*
G01*
X185768000Y-98702500D02*
X186088000Y-98702500D01*
G75*
G02*
X186248000Y-98862500I0J-160000D01*
G01*
X186248000Y-99257500D01*
G75*
G02*
X186088000Y-99417500I-160000J0D01*
G01*
X185768000Y-99417500D01*
G75*
G02*
X185608000Y-99257500I0J160000D01*
G01*
X185608000Y-98862500D01*
G75*
G02*
X185768000Y-98702500I160000J0D01*
G01*
G37*
G36*
G01*
X185768000Y-97507500D02*
X186088000Y-97507500D01*
G75*
G02*
X186248000Y-97667500I0J-160000D01*
G01*
X186248000Y-98062500D01*
G75*
G02*
X186088000Y-98222500I-160000J0D01*
G01*
X185768000Y-98222500D01*
G75*
G02*
X185608000Y-98062500I0J160000D01*
G01*
X185608000Y-97667500D01*
G75*
G02*
X185768000Y-97507500I160000J0D01*
G01*
G37*
%TD*%
%TO.C,R43*%
G36*
G01*
X179681500Y-140302000D02*
X179681500Y-140622000D01*
G75*
G02*
X179521500Y-140782000I-160000J0D01*
G01*
X179126500Y-140782000D01*
G75*
G02*
X178966500Y-140622000I0J160000D01*
G01*
X178966500Y-140302000D01*
G75*
G02*
X179126500Y-140142000I160000J0D01*
G01*
X179521500Y-140142000D01*
G75*
G02*
X179681500Y-140302000I0J-160000D01*
G01*
G37*
G36*
G01*
X180876500Y-140302000D02*
X180876500Y-140622000D01*
G75*
G02*
X180716500Y-140782000I-160000J0D01*
G01*
X180321500Y-140782000D01*
G75*
G02*
X180161500Y-140622000I0J160000D01*
G01*
X180161500Y-140302000D01*
G75*
G02*
X180321500Y-140142000I160000J0D01*
G01*
X180716500Y-140142000D01*
G75*
G02*
X180876500Y-140302000I0J-160000D01*
G01*
G37*
%TD*%
%TO.C,R32*%
G36*
G01*
X179164000Y-106412000D02*
X179484000Y-106412000D01*
G75*
G02*
X179644000Y-106572000I0J-160000D01*
G01*
X179644000Y-106967000D01*
G75*
G02*
X179484000Y-107127000I-160000J0D01*
G01*
X179164000Y-107127000D01*
G75*
G02*
X179004000Y-106967000I0J160000D01*
G01*
X179004000Y-106572000D01*
G75*
G02*
X179164000Y-106412000I160000J0D01*
G01*
G37*
G36*
G01*
X179164000Y-105217000D02*
X179484000Y-105217000D01*
G75*
G02*
X179644000Y-105377000I0J-160000D01*
G01*
X179644000Y-105772000D01*
G75*
G02*
X179484000Y-105932000I-160000J0D01*
G01*
X179164000Y-105932000D01*
G75*
G02*
X179004000Y-105772000I0J160000D01*
G01*
X179004000Y-105377000D01*
G75*
G02*
X179164000Y-105217000I160000J0D01*
G01*
G37*
%TD*%
%TO.C,R42*%
G36*
G01*
X178994500Y-116172000D02*
X178994500Y-116492000D01*
G75*
G02*
X178834500Y-116652000I-160000J0D01*
G01*
X178439500Y-116652000D01*
G75*
G02*
X178279500Y-116492000I0J160000D01*
G01*
X178279500Y-116172000D01*
G75*
G02*
X178439500Y-116012000I160000J0D01*
G01*
X178834500Y-116012000D01*
G75*
G02*
X178994500Y-116172000I0J-160000D01*
G01*
G37*
G36*
G01*
X180189500Y-116172000D02*
X180189500Y-116492000D01*
G75*
G02*
X180029500Y-116652000I-160000J0D01*
G01*
X179634500Y-116652000D01*
G75*
G02*
X179474500Y-116492000I0J160000D01*
G01*
X179474500Y-116172000D01*
G75*
G02*
X179634500Y-116012000I160000J0D01*
G01*
X180029500Y-116012000D01*
G75*
G02*
X180189500Y-116172000I0J-160000D01*
G01*
G37*
%TD*%
%TO.C,R41*%
G36*
G01*
X162908000Y-120890000D02*
X163228000Y-120890000D01*
G75*
G02*
X163388000Y-121050000I0J-160000D01*
G01*
X163388000Y-121445000D01*
G75*
G02*
X163228000Y-121605000I-160000J0D01*
G01*
X162908000Y-121605000D01*
G75*
G02*
X162748000Y-121445000I0J160000D01*
G01*
X162748000Y-121050000D01*
G75*
G02*
X162908000Y-120890000I160000J0D01*
G01*
G37*
G36*
G01*
X162908000Y-119695000D02*
X163228000Y-119695000D01*
G75*
G02*
X163388000Y-119855000I0J-160000D01*
G01*
X163388000Y-120250000D01*
G75*
G02*
X163228000Y-120410000I-160000J0D01*
G01*
X162908000Y-120410000D01*
G75*
G02*
X162748000Y-120250000I0J160000D01*
G01*
X162748000Y-119855000D01*
G75*
G02*
X162908000Y-119695000I160000J0D01*
G01*
G37*
%TD*%
%TO.C,R72*%
G36*
G01*
X189390000Y-145847500D02*
X189070000Y-145847500D01*
G75*
G02*
X188910000Y-145687500I0J160000D01*
G01*
X188910000Y-145292500D01*
G75*
G02*
X189070000Y-145132500I160000J0D01*
G01*
X189390000Y-145132500D01*
G75*
G02*
X189550000Y-145292500I0J-160000D01*
G01*
X189550000Y-145687500D01*
G75*
G02*
X189390000Y-145847500I-160000J0D01*
G01*
G37*
G36*
G01*
X189390000Y-147042500D02*
X189070000Y-147042500D01*
G75*
G02*
X188910000Y-146882500I0J160000D01*
G01*
X188910000Y-146487500D01*
G75*
G02*
X189070000Y-146327500I160000J0D01*
G01*
X189390000Y-146327500D01*
G75*
G02*
X189550000Y-146487500I0J-160000D01*
G01*
X189550000Y-146882500D01*
G75*
G02*
X189390000Y-147042500I-160000J0D01*
G01*
G37*
%TD*%
%TO.C,R71*%
G36*
G01*
X185570500Y-122207000D02*
X185570500Y-121887000D01*
G75*
G02*
X185730500Y-121727000I160000J0D01*
G01*
X186125500Y-121727000D01*
G75*
G02*
X186285500Y-121887000I0J-160000D01*
G01*
X186285500Y-122207000D01*
G75*
G02*
X186125500Y-122367000I-160000J0D01*
G01*
X185730500Y-122367000D01*
G75*
G02*
X185570500Y-122207000I0J160000D01*
G01*
G37*
G36*
G01*
X184375500Y-122207000D02*
X184375500Y-121887000D01*
G75*
G02*
X184535500Y-121727000I160000J0D01*
G01*
X184930500Y-121727000D01*
G75*
G02*
X185090500Y-121887000I0J-160000D01*
G01*
X185090500Y-122207000D01*
G75*
G02*
X184930500Y-122367000I-160000J0D01*
G01*
X184535500Y-122367000D01*
G75*
G02*
X184375500Y-122207000I0J160000D01*
G01*
G37*
%TD*%
%TO.C,R76*%
G36*
G01*
X214644000Y-113632000D02*
X214644000Y-113952000D01*
G75*
G02*
X214484000Y-114112000I-160000J0D01*
G01*
X214089000Y-114112000D01*
G75*
G02*
X213929000Y-113952000I0J160000D01*
G01*
X213929000Y-113632000D01*
G75*
G02*
X214089000Y-113472000I160000J0D01*
G01*
X214484000Y-113472000D01*
G75*
G02*
X214644000Y-113632000I0J-160000D01*
G01*
G37*
G36*
G01*
X215839000Y-113632000D02*
X215839000Y-113952000D01*
G75*
G02*
X215679000Y-114112000I-160000J0D01*
G01*
X215284000Y-114112000D01*
G75*
G02*
X215124000Y-113952000I0J160000D01*
G01*
X215124000Y-113632000D01*
G75*
G02*
X215284000Y-113472000I160000J0D01*
G01*
X215679000Y-113472000D01*
G75*
G02*
X215839000Y-113632000I0J-160000D01*
G01*
G37*
%TD*%
%TO.C,R74*%
G36*
G01*
X192184000Y-145847500D02*
X191864000Y-145847500D01*
G75*
G02*
X191704000Y-145687500I0J160000D01*
G01*
X191704000Y-145292500D01*
G75*
G02*
X191864000Y-145132500I160000J0D01*
G01*
X192184000Y-145132500D01*
G75*
G02*
X192344000Y-145292500I0J-160000D01*
G01*
X192344000Y-145687500D01*
G75*
G02*
X192184000Y-145847500I-160000J0D01*
G01*
G37*
G36*
G01*
X192184000Y-147042500D02*
X191864000Y-147042500D01*
G75*
G02*
X191704000Y-146882500I0J160000D01*
G01*
X191704000Y-146487500D01*
G75*
G02*
X191864000Y-146327500I160000J0D01*
G01*
X192184000Y-146327500D01*
G75*
G02*
X192344000Y-146487500I0J-160000D01*
G01*
X192344000Y-146882500D01*
G75*
G02*
X192184000Y-147042500I-160000J0D01*
G01*
G37*
%TD*%
%TO.C,R75*%
G36*
G01*
X193708000Y-145847500D02*
X193388000Y-145847500D01*
G75*
G02*
X193228000Y-145687500I0J160000D01*
G01*
X193228000Y-145292500D01*
G75*
G02*
X193388000Y-145132500I160000J0D01*
G01*
X193708000Y-145132500D01*
G75*
G02*
X193868000Y-145292500I0J-160000D01*
G01*
X193868000Y-145687500D01*
G75*
G02*
X193708000Y-145847500I-160000J0D01*
G01*
G37*
G36*
G01*
X193708000Y-147042500D02*
X193388000Y-147042500D01*
G75*
G02*
X193228000Y-146882500I0J160000D01*
G01*
X193228000Y-146487500D01*
G75*
G02*
X193388000Y-146327500I160000J0D01*
G01*
X193708000Y-146327500D01*
G75*
G02*
X193868000Y-146487500I0J-160000D01*
G01*
X193868000Y-146882500D01*
G75*
G02*
X193708000Y-147042500I-160000J0D01*
G01*
G37*
%TD*%
%TO.C,R78*%
G36*
G01*
X214644000Y-112108000D02*
X214644000Y-112428000D01*
G75*
G02*
X214484000Y-112588000I-160000J0D01*
G01*
X214089000Y-112588000D01*
G75*
G02*
X213929000Y-112428000I0J160000D01*
G01*
X213929000Y-112108000D01*
G75*
G02*
X214089000Y-111948000I160000J0D01*
G01*
X214484000Y-111948000D01*
G75*
G02*
X214644000Y-112108000I0J-160000D01*
G01*
G37*
G36*
G01*
X215839000Y-112108000D02*
X215839000Y-112428000D01*
G75*
G02*
X215679000Y-112588000I-160000J0D01*
G01*
X215284000Y-112588000D01*
G75*
G02*
X215124000Y-112428000I0J160000D01*
G01*
X215124000Y-112108000D01*
G75*
G02*
X215284000Y-111948000I160000J0D01*
G01*
X215679000Y-111948000D01*
G75*
G02*
X215839000Y-112108000I0J-160000D01*
G01*
G37*
%TD*%
%TO.C,R73*%
G36*
G01*
X190787000Y-145847500D02*
X190467000Y-145847500D01*
G75*
G02*
X190307000Y-145687500I0J160000D01*
G01*
X190307000Y-145292500D01*
G75*
G02*
X190467000Y-145132500I160000J0D01*
G01*
X190787000Y-145132500D01*
G75*
G02*
X190947000Y-145292500I0J-160000D01*
G01*
X190947000Y-145687500D01*
G75*
G02*
X190787000Y-145847500I-160000J0D01*
G01*
G37*
G36*
G01*
X190787000Y-147042500D02*
X190467000Y-147042500D01*
G75*
G02*
X190307000Y-146882500I0J160000D01*
G01*
X190307000Y-146487500D01*
G75*
G02*
X190467000Y-146327500I160000J0D01*
G01*
X190787000Y-146327500D01*
G75*
G02*
X190947000Y-146487500I0J-160000D01*
G01*
X190947000Y-146882500D01*
G75*
G02*
X190787000Y-147042500I-160000J0D01*
G01*
G37*
%TD*%
%TO.C,R27*%
G36*
G01*
X185260000Y-127404500D02*
X185580000Y-127404500D01*
G75*
G02*
X185740000Y-127564500I0J-160000D01*
G01*
X185740000Y-127959500D01*
G75*
G02*
X185580000Y-128119500I-160000J0D01*
G01*
X185260000Y-128119500D01*
G75*
G02*
X185100000Y-127959500I0J160000D01*
G01*
X185100000Y-127564500D01*
G75*
G02*
X185260000Y-127404500I160000J0D01*
G01*
G37*
G36*
G01*
X185260000Y-126209500D02*
X185580000Y-126209500D01*
G75*
G02*
X185740000Y-126369500I0J-160000D01*
G01*
X185740000Y-126764500D01*
G75*
G02*
X185580000Y-126924500I-160000J0D01*
G01*
X185260000Y-126924500D01*
G75*
G02*
X185100000Y-126764500I0J160000D01*
G01*
X185100000Y-126369500D01*
G75*
G02*
X185260000Y-126209500I160000J0D01*
G01*
G37*
%TD*%
%TO.C,R25*%
G36*
G01*
X183736000Y-127404500D02*
X184056000Y-127404500D01*
G75*
G02*
X184216000Y-127564500I0J-160000D01*
G01*
X184216000Y-127959500D01*
G75*
G02*
X184056000Y-128119500I-160000J0D01*
G01*
X183736000Y-128119500D01*
G75*
G02*
X183576000Y-127959500I0J160000D01*
G01*
X183576000Y-127564500D01*
G75*
G02*
X183736000Y-127404500I160000J0D01*
G01*
G37*
G36*
G01*
X183736000Y-126209500D02*
X184056000Y-126209500D01*
G75*
G02*
X184216000Y-126369500I0J-160000D01*
G01*
X184216000Y-126764500D01*
G75*
G02*
X184056000Y-126924500I-160000J0D01*
G01*
X183736000Y-126924500D01*
G75*
G02*
X183576000Y-126764500I0J160000D01*
G01*
X183576000Y-126369500D01*
G75*
G02*
X183736000Y-126209500I160000J0D01*
G01*
G37*
%TD*%
%TO.C,R24*%
G36*
G01*
X182532000Y-126924500D02*
X182212000Y-126924500D01*
G75*
G02*
X182052000Y-126764500I0J160000D01*
G01*
X182052000Y-126369500D01*
G75*
G02*
X182212000Y-126209500I160000J0D01*
G01*
X182532000Y-126209500D01*
G75*
G02*
X182692000Y-126369500I0J-160000D01*
G01*
X182692000Y-126764500D01*
G75*
G02*
X182532000Y-126924500I-160000J0D01*
G01*
G37*
G36*
G01*
X182532000Y-128119500D02*
X182212000Y-128119500D01*
G75*
G02*
X182052000Y-127959500I0J160000D01*
G01*
X182052000Y-127564500D01*
G75*
G02*
X182212000Y-127404500I160000J0D01*
G01*
X182532000Y-127404500D01*
G75*
G02*
X182692000Y-127564500I0J-160000D01*
G01*
X182692000Y-127959500D01*
G75*
G02*
X182532000Y-128119500I-160000J0D01*
G01*
G37*
%TD*%
%TO.C,R8*%
G36*
G01*
X199376000Y-122588000D02*
X199376000Y-122268000D01*
G75*
G02*
X199536000Y-122108000I160000J0D01*
G01*
X199931000Y-122108000D01*
G75*
G02*
X200091000Y-122268000I0J-160000D01*
G01*
X200091000Y-122588000D01*
G75*
G02*
X199931000Y-122748000I-160000J0D01*
G01*
X199536000Y-122748000D01*
G75*
G02*
X199376000Y-122588000I0J160000D01*
G01*
G37*
G36*
G01*
X198181000Y-122588000D02*
X198181000Y-122268000D01*
G75*
G02*
X198341000Y-122108000I160000J0D01*
G01*
X198736000Y-122108000D01*
G75*
G02*
X198896000Y-122268000I0J-160000D01*
G01*
X198896000Y-122588000D01*
G75*
G02*
X198736000Y-122748000I-160000J0D01*
G01*
X198341000Y-122748000D01*
G75*
G02*
X198181000Y-122588000I0J160000D01*
G01*
G37*
%TD*%
%TO.C,R22*%
G36*
G01*
X182532000Y-129897500D02*
X182212000Y-129897500D01*
G75*
G02*
X182052000Y-129737500I0J160000D01*
G01*
X182052000Y-129342500D01*
G75*
G02*
X182212000Y-129182500I160000J0D01*
G01*
X182532000Y-129182500D01*
G75*
G02*
X182692000Y-129342500I0J-160000D01*
G01*
X182692000Y-129737500D01*
G75*
G02*
X182532000Y-129897500I-160000J0D01*
G01*
G37*
G36*
G01*
X182532000Y-131092500D02*
X182212000Y-131092500D01*
G75*
G02*
X182052000Y-130932500I0J160000D01*
G01*
X182052000Y-130537500D01*
G75*
G02*
X182212000Y-130377500I160000J0D01*
G01*
X182532000Y-130377500D01*
G75*
G02*
X182692000Y-130537500I0J-160000D01*
G01*
X182692000Y-130932500D01*
G75*
G02*
X182532000Y-131092500I-160000J0D01*
G01*
G37*
%TD*%
%TO.C,R21*%
G36*
G01*
X180688000Y-127404500D02*
X181008000Y-127404500D01*
G75*
G02*
X181168000Y-127564500I0J-160000D01*
G01*
X181168000Y-127959500D01*
G75*
G02*
X181008000Y-128119500I-160000J0D01*
G01*
X180688000Y-128119500D01*
G75*
G02*
X180528000Y-127959500I0J160000D01*
G01*
X180528000Y-127564500D01*
G75*
G02*
X180688000Y-127404500I160000J0D01*
G01*
G37*
G36*
G01*
X180688000Y-126209500D02*
X181008000Y-126209500D01*
G75*
G02*
X181168000Y-126369500I0J-160000D01*
G01*
X181168000Y-126764500D01*
G75*
G02*
X181008000Y-126924500I-160000J0D01*
G01*
X180688000Y-126924500D01*
G75*
G02*
X180528000Y-126764500I0J160000D01*
G01*
X180528000Y-126369500D01*
G75*
G02*
X180688000Y-126209500I160000J0D01*
G01*
G37*
%TD*%
%TO.C,R26*%
G36*
G01*
X184056000Y-129897500D02*
X183736000Y-129897500D01*
G75*
G02*
X183576000Y-129737500I0J160000D01*
G01*
X183576000Y-129342500D01*
G75*
G02*
X183736000Y-129182500I160000J0D01*
G01*
X184056000Y-129182500D01*
G75*
G02*
X184216000Y-129342500I0J-160000D01*
G01*
X184216000Y-129737500D01*
G75*
G02*
X184056000Y-129897500I-160000J0D01*
G01*
G37*
G36*
G01*
X184056000Y-131092500D02*
X183736000Y-131092500D01*
G75*
G02*
X183576000Y-130932500I0J160000D01*
G01*
X183576000Y-130537500D01*
G75*
G02*
X183736000Y-130377500I160000J0D01*
G01*
X184056000Y-130377500D01*
G75*
G02*
X184216000Y-130537500I0J-160000D01*
G01*
X184216000Y-130932500D01*
G75*
G02*
X184056000Y-131092500I-160000J0D01*
G01*
G37*
%TD*%
%TO.C,R12*%
G36*
G01*
X176379500Y-98646000D02*
X176379500Y-98966000D01*
G75*
G02*
X176219500Y-99126000I-160000J0D01*
G01*
X175824500Y-99126000D01*
G75*
G02*
X175664500Y-98966000I0J160000D01*
G01*
X175664500Y-98646000D01*
G75*
G02*
X175824500Y-98486000I160000J0D01*
G01*
X176219500Y-98486000D01*
G75*
G02*
X176379500Y-98646000I0J-160000D01*
G01*
G37*
G36*
G01*
X177574500Y-98646000D02*
X177574500Y-98966000D01*
G75*
G02*
X177414500Y-99126000I-160000J0D01*
G01*
X177019500Y-99126000D01*
G75*
G02*
X176859500Y-98966000I0J160000D01*
G01*
X176859500Y-98646000D01*
G75*
G02*
X177019500Y-98486000I160000J0D01*
G01*
X177414500Y-98486000D01*
G75*
G02*
X177574500Y-98646000I0J-160000D01*
G01*
G37*
%TD*%
%TO.C,R77*%
G36*
G01*
X195232000Y-145847500D02*
X194912000Y-145847500D01*
G75*
G02*
X194752000Y-145687500I0J160000D01*
G01*
X194752000Y-145292500D01*
G75*
G02*
X194912000Y-145132500I160000J0D01*
G01*
X195232000Y-145132500D01*
G75*
G02*
X195392000Y-145292500I0J-160000D01*
G01*
X195392000Y-145687500D01*
G75*
G02*
X195232000Y-145847500I-160000J0D01*
G01*
G37*
G36*
G01*
X195232000Y-147042500D02*
X194912000Y-147042500D01*
G75*
G02*
X194752000Y-146882500I0J160000D01*
G01*
X194752000Y-146487500D01*
G75*
G02*
X194912000Y-146327500I160000J0D01*
G01*
X195232000Y-146327500D01*
G75*
G02*
X195392000Y-146487500I0J-160000D01*
G01*
X195392000Y-146882500D01*
G75*
G02*
X195232000Y-147042500I-160000J0D01*
G01*
G37*
%TD*%
%TO.C,R11*%
G36*
G01*
X177154000Y-100720999D02*
X177154000Y-101971001D01*
G75*
G02*
X176904001Y-102221000I-249999J0D01*
G01*
X176103999Y-102221000D01*
G75*
G02*
X175854000Y-101971001I0J249999D01*
G01*
X175854000Y-100720999D01*
G75*
G02*
X176103999Y-100471000I249999J0D01*
G01*
X176904001Y-100471000D01*
G75*
G02*
X177154000Y-100720999I0J-249999D01*
G01*
G37*
G36*
G01*
X180254000Y-100720999D02*
X180254000Y-101971001D01*
G75*
G02*
X180004001Y-102221000I-249999J0D01*
G01*
X179203999Y-102221000D01*
G75*
G02*
X178954000Y-101971001I0J249999D01*
G01*
X178954000Y-100720999D01*
G75*
G02*
X179203999Y-100471000I249999J0D01*
G01*
X180004001Y-100471000D01*
G75*
G02*
X180254000Y-100720999I0J-249999D01*
G01*
G37*
%TD*%
%TO.C,R23*%
G36*
G01*
X180688000Y-130377500D02*
X181008000Y-130377500D01*
G75*
G02*
X181168000Y-130537500I0J-160000D01*
G01*
X181168000Y-130932500D01*
G75*
G02*
X181008000Y-131092500I-160000J0D01*
G01*
X180688000Y-131092500D01*
G75*
G02*
X180528000Y-130932500I0J160000D01*
G01*
X180528000Y-130537500D01*
G75*
G02*
X180688000Y-130377500I160000J0D01*
G01*
G37*
G36*
G01*
X180688000Y-129182500D02*
X181008000Y-129182500D01*
G75*
G02*
X181168000Y-129342500I0J-160000D01*
G01*
X181168000Y-129737500D01*
G75*
G02*
X181008000Y-129897500I-160000J0D01*
G01*
X180688000Y-129897500D01*
G75*
G02*
X180528000Y-129737500I0J160000D01*
G01*
X180528000Y-129342500D01*
G75*
G02*
X180688000Y-129182500I160000J0D01*
G01*
G37*
%TD*%
D26*
%TO.C,Q101*%
X190738000Y-105664000D03*
X188738000Y-106614000D03*
X188738000Y-104714000D03*
%TD*%
D27*
%TO.C,FID3*%
X229000000Y-152000000D03*
%TD*%
%TO.C,FID2*%
X154000000Y-152000000D03*
%TD*%
%TO.C,FID1*%
X154000000Y-102000000D03*
%TD*%
D20*
%TO.C,D92*%
X206164000Y-154686000D03*
X208364000Y-154686000D03*
%TD*%
%TO.C,D91*%
X208364000Y-147320000D03*
X206164000Y-147320000D03*
%TD*%
%TO.C,D82*%
X206672000Y-136144000D03*
X208872000Y-136144000D03*
%TD*%
%TO.C,D81*%
X208618000Y-128778000D03*
X206418000Y-128778000D03*
%TD*%
%TO.C,D101*%
G36*
G01*
X186165500Y-101645000D02*
X185690500Y-101645000D01*
G75*
G02*
X185453000Y-101407500I0J237500D01*
G01*
X185453000Y-100832500D01*
G75*
G02*
X185690500Y-100595000I237500J0D01*
G01*
X186165500Y-100595000D01*
G75*
G02*
X186403000Y-100832500I0J-237500D01*
G01*
X186403000Y-101407500D01*
G75*
G02*
X186165500Y-101645000I-237500J0D01*
G01*
G37*
G36*
G01*
X186165500Y-103395000D02*
X185690500Y-103395000D01*
G75*
G02*
X185453000Y-103157500I0J237500D01*
G01*
X185453000Y-102582500D01*
G75*
G02*
X185690500Y-102345000I237500J0D01*
G01*
X186165500Y-102345000D01*
G75*
G02*
X186403000Y-102582500I0J-237500D01*
G01*
X186403000Y-103157500D01*
G75*
G02*
X186165500Y-103395000I-237500J0D01*
G01*
G37*
%TD*%
%TO.C,D11*%
G36*
G01*
X176829000Y-96790500D02*
X176829000Y-97265500D01*
G75*
G02*
X176591500Y-97503000I-237500J0D01*
G01*
X176016500Y-97503000D01*
G75*
G02*
X175779000Y-97265500I0J237500D01*
G01*
X175779000Y-96790500D01*
G75*
G02*
X176016500Y-96553000I237500J0D01*
G01*
X176591500Y-96553000D01*
G75*
G02*
X176829000Y-96790500I0J-237500D01*
G01*
G37*
G36*
G01*
X178579000Y-96790500D02*
X178579000Y-97265500D01*
G75*
G02*
X178341500Y-97503000I-237500J0D01*
G01*
X177766500Y-97503000D01*
G75*
G02*
X177529000Y-97265500I0J237500D01*
G01*
X177529000Y-96790500D01*
G75*
G02*
X177766500Y-96553000I237500J0D01*
G01*
X178341500Y-96553000D01*
G75*
G02*
X178579000Y-96790500I0J-237500D01*
G01*
G37*
%TD*%
%TO.C,C94*%
G36*
G01*
X230920000Y-144764000D02*
X230920000Y-142764000D01*
G75*
G02*
X231170000Y-142514000I250000J0D01*
G01*
X234670000Y-142514000D01*
G75*
G02*
X234920000Y-142764000I0J-250000D01*
G01*
X234920000Y-144764000D01*
G75*
G02*
X234670000Y-145014000I-250000J0D01*
G01*
X231170000Y-145014000D01*
G75*
G02*
X230920000Y-144764000I0J250000D01*
G01*
G37*
G36*
G01*
X224820000Y-144764000D02*
X224820000Y-142764000D01*
G75*
G02*
X225070000Y-142514000I250000J0D01*
G01*
X228570000Y-142514000D01*
G75*
G02*
X228820000Y-142764000I0J-250000D01*
G01*
X228820000Y-144764000D01*
G75*
G02*
X228570000Y-145014000I-250000J0D01*
G01*
X225070000Y-145014000D01*
G75*
G02*
X224820000Y-144764000I0J250000D01*
G01*
G37*
%TD*%
%TO.C,C92*%
G36*
G01*
X225314500Y-152725000D02*
X225789500Y-152725000D01*
G75*
G02*
X226027000Y-152962500I0J-237500D01*
G01*
X226027000Y-153562500D01*
G75*
G02*
X225789500Y-153800000I-237500J0D01*
G01*
X225314500Y-153800000D01*
G75*
G02*
X225077000Y-153562500I0J237500D01*
G01*
X225077000Y-152962500D01*
G75*
G02*
X225314500Y-152725000I237500J0D01*
G01*
G37*
G36*
G01*
X225314500Y-151000000D02*
X225789500Y-151000000D01*
G75*
G02*
X226027000Y-151237500I0J-237500D01*
G01*
X226027000Y-151837500D01*
G75*
G02*
X225789500Y-152075000I-237500J0D01*
G01*
X225314500Y-152075000D01*
G75*
G02*
X225077000Y-151837500I0J237500D01*
G01*
X225077000Y-151237500D01*
G75*
G02*
X225314500Y-151000000I237500J0D01*
G01*
G37*
%TD*%
%TO.C,C93*%
G36*
G01*
X206939000Y-152162500D02*
X206939000Y-152637500D01*
G75*
G02*
X206701500Y-152875000I-237500J0D01*
G01*
X206101500Y-152875000D01*
G75*
G02*
X205864000Y-152637500I0J237500D01*
G01*
X205864000Y-152162500D01*
G75*
G02*
X206101500Y-151925000I237500J0D01*
G01*
X206701500Y-151925000D01*
G75*
G02*
X206939000Y-152162500I0J-237500D01*
G01*
G37*
G36*
G01*
X208664000Y-152162500D02*
X208664000Y-152637500D01*
G75*
G02*
X208426500Y-152875000I-237500J0D01*
G01*
X207826500Y-152875000D01*
G75*
G02*
X207589000Y-152637500I0J237500D01*
G01*
X207589000Y-152162500D01*
G75*
G02*
X207826500Y-151925000I237500J0D01*
G01*
X208426500Y-151925000D01*
G75*
G02*
X208664000Y-152162500I0J-237500D01*
G01*
G37*
%TD*%
%TO.C,C91*%
G36*
G01*
X207589000Y-145271500D02*
X207589000Y-144796500D01*
G75*
G02*
X207826500Y-144559000I237500J0D01*
G01*
X208426500Y-144559000D01*
G75*
G02*
X208664000Y-144796500I0J-237500D01*
G01*
X208664000Y-145271500D01*
G75*
G02*
X208426500Y-145509000I-237500J0D01*
G01*
X207826500Y-145509000D01*
G75*
G02*
X207589000Y-145271500I0J237500D01*
G01*
G37*
G36*
G01*
X205864000Y-145271500D02*
X205864000Y-144796500D01*
G75*
G02*
X206101500Y-144559000I237500J0D01*
G01*
X206701500Y-144559000D01*
G75*
G02*
X206939000Y-144796500I0J-237500D01*
G01*
X206939000Y-145271500D01*
G75*
G02*
X206701500Y-145509000I-237500J0D01*
G01*
X206101500Y-145509000D01*
G75*
G02*
X205864000Y-145271500I0J237500D01*
G01*
G37*
%TD*%
%TO.C,C82*%
G36*
G01*
X225314500Y-134691000D02*
X225789500Y-134691000D01*
G75*
G02*
X226027000Y-134928500I0J-237500D01*
G01*
X226027000Y-135528500D01*
G75*
G02*
X225789500Y-135766000I-237500J0D01*
G01*
X225314500Y-135766000D01*
G75*
G02*
X225077000Y-135528500I0J237500D01*
G01*
X225077000Y-134928500D01*
G75*
G02*
X225314500Y-134691000I237500J0D01*
G01*
G37*
G36*
G01*
X225314500Y-132966000D02*
X225789500Y-132966000D01*
G75*
G02*
X226027000Y-133203500I0J-237500D01*
G01*
X226027000Y-133803500D01*
G75*
G02*
X225789500Y-134041000I-237500J0D01*
G01*
X225314500Y-134041000D01*
G75*
G02*
X225077000Y-133803500I0J237500D01*
G01*
X225077000Y-133203500D01*
G75*
G02*
X225314500Y-132966000I237500J0D01*
G01*
G37*
%TD*%
%TO.C,C83*%
G36*
G01*
X207447000Y-133620500D02*
X207447000Y-134095500D01*
G75*
G02*
X207209500Y-134333000I-237500J0D01*
G01*
X206609500Y-134333000D01*
G75*
G02*
X206372000Y-134095500I0J237500D01*
G01*
X206372000Y-133620500D01*
G75*
G02*
X206609500Y-133383000I237500J0D01*
G01*
X207209500Y-133383000D01*
G75*
G02*
X207447000Y-133620500I0J-237500D01*
G01*
G37*
G36*
G01*
X209172000Y-133620500D02*
X209172000Y-134095500D01*
G75*
G02*
X208934500Y-134333000I-237500J0D01*
G01*
X208334500Y-134333000D01*
G75*
G02*
X208097000Y-134095500I0J237500D01*
G01*
X208097000Y-133620500D01*
G75*
G02*
X208334500Y-133383000I237500J0D01*
G01*
X208934500Y-133383000D01*
G75*
G02*
X209172000Y-133620500I0J-237500D01*
G01*
G37*
%TD*%
%TO.C,C81*%
G36*
G01*
X207843000Y-126729500D02*
X207843000Y-126254500D01*
G75*
G02*
X208080500Y-126017000I237500J0D01*
G01*
X208680500Y-126017000D01*
G75*
G02*
X208918000Y-126254500I0J-237500D01*
G01*
X208918000Y-126729500D01*
G75*
G02*
X208680500Y-126967000I-237500J0D01*
G01*
X208080500Y-126967000D01*
G75*
G02*
X207843000Y-126729500I0J237500D01*
G01*
G37*
G36*
G01*
X206118000Y-126729500D02*
X206118000Y-126254500D01*
G75*
G02*
X206355500Y-126017000I237500J0D01*
G01*
X206955500Y-126017000D01*
G75*
G02*
X207193000Y-126254500I0J-237500D01*
G01*
X207193000Y-126729500D01*
G75*
G02*
X206955500Y-126967000I-237500J0D01*
G01*
X206355500Y-126967000D01*
G75*
G02*
X206118000Y-126729500I0J237500D01*
G01*
G37*
%TD*%
%TO.C,C31*%
G36*
G01*
X177717500Y-103869500D02*
X177717500Y-103394500D01*
G75*
G02*
X177955000Y-103157000I237500J0D01*
G01*
X178555000Y-103157000D01*
G75*
G02*
X178792500Y-103394500I0J-237500D01*
G01*
X178792500Y-103869500D01*
G75*
G02*
X178555000Y-104107000I-237500J0D01*
G01*
X177955000Y-104107000D01*
G75*
G02*
X177717500Y-103869500I0J237500D01*
G01*
G37*
G36*
G01*
X175992500Y-103869500D02*
X175992500Y-103394500D01*
G75*
G02*
X176230000Y-103157000I237500J0D01*
G01*
X176830000Y-103157000D01*
G75*
G02*
X177067500Y-103394500I0J-237500D01*
G01*
X177067500Y-103869500D01*
G75*
G02*
X176830000Y-104107000I-237500J0D01*
G01*
X176230000Y-104107000D01*
G75*
G02*
X175992500Y-103869500I0J237500D01*
G01*
G37*
%TD*%
%TO.C,C12*%
G36*
G01*
X161044000Y-97494000D02*
X161044000Y-98594000D01*
G75*
G02*
X160794000Y-98844000I-250000J0D01*
G01*
X158694000Y-98844000D01*
G75*
G02*
X158444000Y-98594000I0J250000D01*
G01*
X158444000Y-97494000D01*
G75*
G02*
X158694000Y-97244000I250000J0D01*
G01*
X160794000Y-97244000D01*
G75*
G02*
X161044000Y-97494000I0J-250000D01*
G01*
G37*
G36*
G01*
X164644000Y-97494000D02*
X164644000Y-98594000D01*
G75*
G02*
X164394000Y-98844000I-250000J0D01*
G01*
X162294000Y-98844000D01*
G75*
G02*
X162044000Y-98594000I0J250000D01*
G01*
X162044000Y-97494000D01*
G75*
G02*
X162294000Y-97244000I250000J0D01*
G01*
X164394000Y-97244000D01*
G75*
G02*
X164644000Y-97494000I0J-250000D01*
G01*
G37*
%TD*%
%TO.C,C11*%
G36*
G01*
X161044000Y-103082000D02*
X161044000Y-104182000D01*
G75*
G02*
X160794000Y-104432000I-250000J0D01*
G01*
X158694000Y-104432000D01*
G75*
G02*
X158444000Y-104182000I0J250000D01*
G01*
X158444000Y-103082000D01*
G75*
G02*
X158694000Y-102832000I250000J0D01*
G01*
X160794000Y-102832000D01*
G75*
G02*
X161044000Y-103082000I0J-250000D01*
G01*
G37*
G36*
G01*
X164644000Y-103082000D02*
X164644000Y-104182000D01*
G75*
G02*
X164394000Y-104432000I-250000J0D01*
G01*
X162294000Y-104432000D01*
G75*
G02*
X162044000Y-104182000I0J250000D01*
G01*
X162044000Y-103082000D01*
G75*
G02*
X162294000Y-102832000I250000J0D01*
G01*
X164394000Y-102832000D01*
G75*
G02*
X164644000Y-103082000I0J-250000D01*
G01*
G37*
%TD*%
%TO.C,C02*%
G36*
G01*
X159695000Y-116602500D02*
X159695000Y-117077500D01*
G75*
G02*
X159457500Y-117315000I-237500J0D01*
G01*
X158857500Y-117315000D01*
G75*
G02*
X158620000Y-117077500I0J237500D01*
G01*
X158620000Y-116602500D01*
G75*
G02*
X158857500Y-116365000I237500J0D01*
G01*
X159457500Y-116365000D01*
G75*
G02*
X159695000Y-116602500I0J-237500D01*
G01*
G37*
G36*
G01*
X161420000Y-116602500D02*
X161420000Y-117077500D01*
G75*
G02*
X161182500Y-117315000I-237500J0D01*
G01*
X160582500Y-117315000D01*
G75*
G02*
X160345000Y-117077500I0J237500D01*
G01*
X160345000Y-116602500D01*
G75*
G02*
X160582500Y-116365000I237500J0D01*
G01*
X161182500Y-116365000D01*
G75*
G02*
X161420000Y-116602500I0J-237500D01*
G01*
G37*
%TD*%
%TO.C,C03*%
G36*
G01*
X189354000Y-110981500D02*
X189354000Y-110506500D01*
G75*
G02*
X189591500Y-110269000I237500J0D01*
G01*
X190191500Y-110269000D01*
G75*
G02*
X190429000Y-110506500I0J-237500D01*
G01*
X190429000Y-110981500D01*
G75*
G02*
X190191500Y-111219000I-237500J0D01*
G01*
X189591500Y-111219000D01*
G75*
G02*
X189354000Y-110981500I0J237500D01*
G01*
G37*
G36*
G01*
X191079000Y-110981500D02*
X191079000Y-110506500D01*
G75*
G02*
X191316500Y-110269000I237500J0D01*
G01*
X191916500Y-110269000D01*
G75*
G02*
X192154000Y-110506500I0J-237500D01*
G01*
X192154000Y-110981500D01*
G75*
G02*
X191916500Y-111219000I-237500J0D01*
G01*
X191316500Y-111219000D01*
G75*
G02*
X191079000Y-110981500I0J237500D01*
G01*
G37*
%TD*%
%TO.C,C04*%
G36*
G01*
X198752000Y-110981500D02*
X198752000Y-110506500D01*
G75*
G02*
X198989500Y-110269000I237500J0D01*
G01*
X199589500Y-110269000D01*
G75*
G02*
X199827000Y-110506500I0J-237500D01*
G01*
X199827000Y-110981500D01*
G75*
G02*
X199589500Y-111219000I-237500J0D01*
G01*
X198989500Y-111219000D01*
G75*
G02*
X198752000Y-110981500I0J237500D01*
G01*
G37*
G36*
G01*
X200477000Y-110981500D02*
X200477000Y-110506500D01*
G75*
G02*
X200714500Y-110269000I237500J0D01*
G01*
X201314500Y-110269000D01*
G75*
G02*
X201552000Y-110506500I0J-237500D01*
G01*
X201552000Y-110981500D01*
G75*
G02*
X201314500Y-111219000I-237500J0D01*
G01*
X200714500Y-111219000D01*
G75*
G02*
X200477000Y-110981500I0J237500D01*
G01*
G37*
%TD*%
%TO.C,C05*%
G36*
G01*
X200223000Y-133333500D02*
X200223000Y-132858500D01*
G75*
G02*
X200460500Y-132621000I237500J0D01*
G01*
X201060500Y-132621000D01*
G75*
G02*
X201298000Y-132858500I0J-237500D01*
G01*
X201298000Y-133333500D01*
G75*
G02*
X201060500Y-133571000I-237500J0D01*
G01*
X200460500Y-133571000D01*
G75*
G02*
X200223000Y-133333500I0J237500D01*
G01*
G37*
G36*
G01*
X198498000Y-133333500D02*
X198498000Y-132858500D01*
G75*
G02*
X198735500Y-132621000I237500J0D01*
G01*
X199335500Y-132621000D01*
G75*
G02*
X199573000Y-132858500I0J-237500D01*
G01*
X199573000Y-133333500D01*
G75*
G02*
X199335500Y-133571000I-237500J0D01*
G01*
X198735500Y-133571000D01*
G75*
G02*
X198498000Y-133333500I0J237500D01*
G01*
G37*
%TD*%
%TO.C,C06*%
G36*
G01*
X161420000Y-135906500D02*
X161420000Y-136381500D01*
G75*
G02*
X161182500Y-136619000I-237500J0D01*
G01*
X160582500Y-136619000D01*
G75*
G02*
X160345000Y-136381500I0J237500D01*
G01*
X160345000Y-135906500D01*
G75*
G02*
X160582500Y-135669000I237500J0D01*
G01*
X161182500Y-135669000D01*
G75*
G02*
X161420000Y-135906500I0J-237500D01*
G01*
G37*
G36*
G01*
X159695000Y-135906500D02*
X159695000Y-136381500D01*
G75*
G02*
X159457500Y-136619000I-237500J0D01*
G01*
X158857500Y-136619000D01*
G75*
G02*
X158620000Y-136381500I0J237500D01*
G01*
X158620000Y-135906500D01*
G75*
G02*
X158857500Y-135669000I237500J0D01*
G01*
X159457500Y-135669000D01*
G75*
G02*
X159695000Y-135906500I0J-237500D01*
G01*
G37*
%TD*%
%TO.C,C07*%
G36*
G01*
X207795500Y-110981500D02*
X207795500Y-110506500D01*
G75*
G02*
X208033000Y-110269000I237500J0D01*
G01*
X208633000Y-110269000D01*
G75*
G02*
X208870500Y-110506500I0J-237500D01*
G01*
X208870500Y-110981500D01*
G75*
G02*
X208633000Y-111219000I-237500J0D01*
G01*
X208033000Y-111219000D01*
G75*
G02*
X207795500Y-110981500I0J237500D01*
G01*
G37*
G36*
G01*
X209520500Y-110981500D02*
X209520500Y-110506500D01*
G75*
G02*
X209758000Y-110269000I237500J0D01*
G01*
X210358000Y-110269000D01*
G75*
G02*
X210595500Y-110506500I0J-237500D01*
G01*
X210595500Y-110981500D01*
G75*
G02*
X210358000Y-111219000I-237500J0D01*
G01*
X209758000Y-111219000D01*
G75*
G02*
X209520500Y-110981500I0J237500D01*
G01*
G37*
%TD*%
%TO.C,C08*%
G36*
G01*
X191333000Y-133333500D02*
X191333000Y-132858500D01*
G75*
G02*
X191570500Y-132621000I237500J0D01*
G01*
X192170500Y-132621000D01*
G75*
G02*
X192408000Y-132858500I0J-237500D01*
G01*
X192408000Y-133333500D01*
G75*
G02*
X192170500Y-133571000I-237500J0D01*
G01*
X191570500Y-133571000D01*
G75*
G02*
X191333000Y-133333500I0J237500D01*
G01*
G37*
G36*
G01*
X189608000Y-133333500D02*
X189608000Y-132858500D01*
G75*
G02*
X189845500Y-132621000I237500J0D01*
G01*
X190445500Y-132621000D01*
G75*
G02*
X190683000Y-132858500I0J-237500D01*
G01*
X190683000Y-133333500D01*
G75*
G02*
X190445500Y-133571000I-237500J0D01*
G01*
X189845500Y-133571000D01*
G75*
G02*
X189608000Y-133333500I0J237500D01*
G01*
G37*
%TD*%
%TO.C,R28*%
G36*
G01*
X185260000Y-130377500D02*
X185580000Y-130377500D01*
G75*
G02*
X185740000Y-130537500I0J-160000D01*
G01*
X185740000Y-130932500D01*
G75*
G02*
X185580000Y-131092500I-160000J0D01*
G01*
X185260000Y-131092500D01*
G75*
G02*
X185100000Y-130932500I0J160000D01*
G01*
X185100000Y-130537500D01*
G75*
G02*
X185260000Y-130377500I160000J0D01*
G01*
G37*
G36*
G01*
X185260000Y-129182500D02*
X185580000Y-129182500D01*
G75*
G02*
X185740000Y-129342500I0J-160000D01*
G01*
X185740000Y-129737500D01*
G75*
G02*
X185580000Y-129897500I-160000J0D01*
G01*
X185260000Y-129897500D01*
G75*
G02*
X185100000Y-129737500I0J160000D01*
G01*
X185100000Y-129342500D01*
G75*
G02*
X185260000Y-129182500I160000J0D01*
G01*
G37*
%TD*%
%TO.C,R46*%
G36*
G01*
X175867700Y-141892000D02*
X175867700Y-141572000D01*
G75*
G02*
X176027700Y-141412000I160000J0D01*
G01*
X176422700Y-141412000D01*
G75*
G02*
X176582700Y-141572000I0J-160000D01*
G01*
X176582700Y-141892000D01*
G75*
G02*
X176422700Y-142052000I-160000J0D01*
G01*
X176027700Y-142052000D01*
G75*
G02*
X175867700Y-141892000I0J160000D01*
G01*
G37*
G36*
G01*
X177062700Y-141892000D02*
X177062700Y-141572000D01*
G75*
G02*
X177222700Y-141412000I160000J0D01*
G01*
X177617700Y-141412000D01*
G75*
G02*
X177777700Y-141572000I0J-160000D01*
G01*
X177777700Y-141892000D01*
G75*
G02*
X177617700Y-142052000I-160000J0D01*
G01*
X177222700Y-142052000D01*
G75*
G02*
X177062700Y-141892000I0J160000D01*
G01*
G37*
%TD*%
%TO.C,R47*%
G36*
G01*
X177062700Y-140622000D02*
X177062700Y-140302000D01*
G75*
G02*
X177222700Y-140142000I160000J0D01*
G01*
X177617700Y-140142000D01*
G75*
G02*
X177777700Y-140302000I0J-160000D01*
G01*
X177777700Y-140622000D01*
G75*
G02*
X177617700Y-140782000I-160000J0D01*
G01*
X177222700Y-140782000D01*
G75*
G02*
X177062700Y-140622000I0J160000D01*
G01*
G37*
G36*
G01*
X175867700Y-140622000D02*
X175867700Y-140302000D01*
G75*
G02*
X176027700Y-140142000I160000J0D01*
G01*
X176422700Y-140142000D01*
G75*
G02*
X176582700Y-140302000I0J-160000D01*
G01*
X176582700Y-140622000D01*
G75*
G02*
X176422700Y-140782000I-160000J0D01*
G01*
X176027700Y-140782000D01*
G75*
G02*
X175867700Y-140622000I0J160000D01*
G01*
G37*
%TD*%
%TO.C,R52*%
G36*
G01*
X180189500Y-117442000D02*
X180189500Y-117762000D01*
G75*
G02*
X180029500Y-117922000I-160000J0D01*
G01*
X179634500Y-117922000D01*
G75*
G02*
X179474500Y-117762000I0J160000D01*
G01*
X179474500Y-117442000D01*
G75*
G02*
X179634500Y-117282000I160000J0D01*
G01*
X180029500Y-117282000D01*
G75*
G02*
X180189500Y-117442000I0J-160000D01*
G01*
G37*
G36*
G01*
X178994500Y-117442000D02*
X178994500Y-117762000D01*
G75*
G02*
X178834500Y-117922000I-160000J0D01*
G01*
X178439500Y-117922000D01*
G75*
G02*
X178279500Y-117762000I0J160000D01*
G01*
X178279500Y-117442000D01*
G75*
G02*
X178439500Y-117282000I160000J0D01*
G01*
X178834500Y-117282000D01*
G75*
G02*
X178994500Y-117442000I0J-160000D01*
G01*
G37*
%TD*%
%TO.C,R56*%
G36*
G01*
X166595500Y-128176000D02*
X166595500Y-127856000D01*
G75*
G02*
X166755500Y-127696000I160000J0D01*
G01*
X167150500Y-127696000D01*
G75*
G02*
X167310500Y-127856000I0J-160000D01*
G01*
X167310500Y-128176000D01*
G75*
G02*
X167150500Y-128336000I-160000J0D01*
G01*
X166755500Y-128336000D01*
G75*
G02*
X166595500Y-128176000I0J160000D01*
G01*
G37*
G36*
G01*
X167790500Y-128176000D02*
X167790500Y-127856000D01*
G75*
G02*
X167950500Y-127696000I160000J0D01*
G01*
X168345500Y-127696000D01*
G75*
G02*
X168505500Y-127856000I0J-160000D01*
G01*
X168505500Y-128176000D01*
G75*
G02*
X168345500Y-128336000I-160000J0D01*
G01*
X167950500Y-128336000D01*
G75*
G02*
X167790500Y-128176000I0J160000D01*
G01*
G37*
%TD*%
%TO.C,R57*%
G36*
G01*
X167790500Y-126906000D02*
X167790500Y-126586000D01*
G75*
G02*
X167950500Y-126426000I160000J0D01*
G01*
X168345500Y-126426000D01*
G75*
G02*
X168505500Y-126586000I0J-160000D01*
G01*
X168505500Y-126906000D01*
G75*
G02*
X168345500Y-127066000I-160000J0D01*
G01*
X167950500Y-127066000D01*
G75*
G02*
X167790500Y-126906000I0J160000D01*
G01*
G37*
G36*
G01*
X166595500Y-126906000D02*
X166595500Y-126586000D01*
G75*
G02*
X166755500Y-126426000I160000J0D01*
G01*
X167150500Y-126426000D01*
G75*
G02*
X167310500Y-126586000I0J-160000D01*
G01*
X167310500Y-126906000D01*
G75*
G02*
X167150500Y-127066000I-160000J0D01*
G01*
X166755500Y-127066000D01*
G75*
G02*
X166595500Y-126906000I0J160000D01*
G01*
G37*
%TD*%
%TO.C,R79*%
G36*
G01*
X207696500Y-121760000D02*
X207696500Y-122080000D01*
G75*
G02*
X207536500Y-122240000I-160000J0D01*
G01*
X207141500Y-122240000D01*
G75*
G02*
X206981500Y-122080000I0J160000D01*
G01*
X206981500Y-121760000D01*
G75*
G02*
X207141500Y-121600000I160000J0D01*
G01*
X207536500Y-121600000D01*
G75*
G02*
X207696500Y-121760000I0J-160000D01*
G01*
G37*
G36*
G01*
X208891500Y-121760000D02*
X208891500Y-122080000D01*
G75*
G02*
X208731500Y-122240000I-160000J0D01*
G01*
X208336500Y-122240000D01*
G75*
G02*
X208176500Y-122080000I0J160000D01*
G01*
X208176500Y-121760000D01*
G75*
G02*
X208336500Y-121600000I160000J0D01*
G01*
X208731500Y-121600000D01*
G75*
G02*
X208891500Y-121760000I0J-160000D01*
G01*
G37*
%TD*%
%TO.C,R710*%
G36*
G01*
X215839000Y-116680000D02*
X215839000Y-117000000D01*
G75*
G02*
X215679000Y-117160000I-160000J0D01*
G01*
X215284000Y-117160000D01*
G75*
G02*
X215124000Y-117000000I0J160000D01*
G01*
X215124000Y-116680000D01*
G75*
G02*
X215284000Y-116520000I160000J0D01*
G01*
X215679000Y-116520000D01*
G75*
G02*
X215839000Y-116680000I0J-160000D01*
G01*
G37*
G36*
G01*
X214644000Y-116680000D02*
X214644000Y-117000000D01*
G75*
G02*
X214484000Y-117160000I-160000J0D01*
G01*
X214089000Y-117160000D01*
G75*
G02*
X213929000Y-117000000I0J160000D01*
G01*
X213929000Y-116680000D01*
G75*
G02*
X214089000Y-116520000I160000J0D01*
G01*
X214484000Y-116520000D01*
G75*
G02*
X214644000Y-116680000I0J-160000D01*
G01*
G37*
%TD*%
%TO.C,R711*%
G36*
G01*
X215124000Y-115476000D02*
X215124000Y-115156000D01*
G75*
G02*
X215284000Y-114996000I160000J0D01*
G01*
X215679000Y-114996000D01*
G75*
G02*
X215839000Y-115156000I0J-160000D01*
G01*
X215839000Y-115476000D01*
G75*
G02*
X215679000Y-115636000I-160000J0D01*
G01*
X215284000Y-115636000D01*
G75*
G02*
X215124000Y-115476000I0J160000D01*
G01*
G37*
G36*
G01*
X213929000Y-115476000D02*
X213929000Y-115156000D01*
G75*
G02*
X214089000Y-114996000I160000J0D01*
G01*
X214484000Y-114996000D01*
G75*
G02*
X214644000Y-115156000I0J-160000D01*
G01*
X214644000Y-115476000D01*
G75*
G02*
X214484000Y-115636000I-160000J0D01*
G01*
X214089000Y-115636000D01*
G75*
G02*
X213929000Y-115476000I0J160000D01*
G01*
G37*
%TD*%
%TO.C,R712*%
G36*
G01*
X218797500Y-115156000D02*
X218797500Y-115476000D01*
G75*
G02*
X218637500Y-115636000I-160000J0D01*
G01*
X218242500Y-115636000D01*
G75*
G02*
X218082500Y-115476000I0J160000D01*
G01*
X218082500Y-115156000D01*
G75*
G02*
X218242500Y-114996000I160000J0D01*
G01*
X218637500Y-114996000D01*
G75*
G02*
X218797500Y-115156000I0J-160000D01*
G01*
G37*
G36*
G01*
X217602500Y-115156000D02*
X217602500Y-115476000D01*
G75*
G02*
X217442500Y-115636000I-160000J0D01*
G01*
X217047500Y-115636000D01*
G75*
G02*
X216887500Y-115476000I0J160000D01*
G01*
X216887500Y-115156000D01*
G75*
G02*
X217047500Y-114996000I160000J0D01*
G01*
X217442500Y-114996000D01*
G75*
G02*
X217602500Y-115156000I0J-160000D01*
G01*
G37*
%TD*%
%TO.C,U6*%
G36*
G01*
X164952000Y-135278000D02*
X164952000Y-134978000D01*
G75*
G02*
X165102000Y-134828000I150000J0D01*
G01*
X166752000Y-134828000D01*
G75*
G02*
X166902000Y-134978000I0J-150000D01*
G01*
X166902000Y-135278000D01*
G75*
G02*
X166752000Y-135428000I-150000J0D01*
G01*
X165102000Y-135428000D01*
G75*
G02*
X164952000Y-135278000I0J150000D01*
G01*
G37*
G36*
G01*
X164952000Y-136548000D02*
X164952000Y-136248000D01*
G75*
G02*
X165102000Y-136098000I150000J0D01*
G01*
X166752000Y-136098000D01*
G75*
G02*
X166902000Y-136248000I0J-150000D01*
G01*
X166902000Y-136548000D01*
G75*
G02*
X166752000Y-136698000I-150000J0D01*
G01*
X165102000Y-136698000D01*
G75*
G02*
X164952000Y-136548000I0J150000D01*
G01*
G37*
G36*
G01*
X164952000Y-137818000D02*
X164952000Y-137518000D01*
G75*
G02*
X165102000Y-137368000I150000J0D01*
G01*
X166752000Y-137368000D01*
G75*
G02*
X166902000Y-137518000I0J-150000D01*
G01*
X166902000Y-137818000D01*
G75*
G02*
X166752000Y-137968000I-150000J0D01*
G01*
X165102000Y-137968000D01*
G75*
G02*
X164952000Y-137818000I0J150000D01*
G01*
G37*
G36*
G01*
X164952000Y-139088000D02*
X164952000Y-138788000D01*
G75*
G02*
X165102000Y-138638000I150000J0D01*
G01*
X166752000Y-138638000D01*
G75*
G02*
X166902000Y-138788000I0J-150000D01*
G01*
X166902000Y-139088000D01*
G75*
G02*
X166752000Y-139238000I-150000J0D01*
G01*
X165102000Y-139238000D01*
G75*
G02*
X164952000Y-139088000I0J150000D01*
G01*
G37*
G36*
G01*
X164952000Y-140358000D02*
X164952000Y-140058000D01*
G75*
G02*
X165102000Y-139908000I150000J0D01*
G01*
X166752000Y-139908000D01*
G75*
G02*
X166902000Y-140058000I0J-150000D01*
G01*
X166902000Y-140358000D01*
G75*
G02*
X166752000Y-140508000I-150000J0D01*
G01*
X165102000Y-140508000D01*
G75*
G02*
X164952000Y-140358000I0J150000D01*
G01*
G37*
G36*
G01*
X164952000Y-141628000D02*
X164952000Y-141328000D01*
G75*
G02*
X165102000Y-141178000I150000J0D01*
G01*
X166752000Y-141178000D01*
G75*
G02*
X166902000Y-141328000I0J-150000D01*
G01*
X166902000Y-141628000D01*
G75*
G02*
X166752000Y-141778000I-150000J0D01*
G01*
X165102000Y-141778000D01*
G75*
G02*
X164952000Y-141628000I0J150000D01*
G01*
G37*
G36*
G01*
X164952000Y-142898000D02*
X164952000Y-142598000D01*
G75*
G02*
X165102000Y-142448000I150000J0D01*
G01*
X166752000Y-142448000D01*
G75*
G02*
X166902000Y-142598000I0J-150000D01*
G01*
X166902000Y-142898000D01*
G75*
G02*
X166752000Y-143048000I-150000J0D01*
G01*
X165102000Y-143048000D01*
G75*
G02*
X164952000Y-142898000I0J150000D01*
G01*
G37*
G36*
G01*
X169902000Y-142898000D02*
X169902000Y-142598000D01*
G75*
G02*
X170052000Y-142448000I150000J0D01*
G01*
X171702000Y-142448000D01*
G75*
G02*
X171852000Y-142598000I0J-150000D01*
G01*
X171852000Y-142898000D01*
G75*
G02*
X171702000Y-143048000I-150000J0D01*
G01*
X170052000Y-143048000D01*
G75*
G02*
X169902000Y-142898000I0J150000D01*
G01*
G37*
G36*
G01*
X169902000Y-141628000D02*
X169902000Y-141328000D01*
G75*
G02*
X170052000Y-141178000I150000J0D01*
G01*
X171702000Y-141178000D01*
G75*
G02*
X171852000Y-141328000I0J-150000D01*
G01*
X171852000Y-141628000D01*
G75*
G02*
X171702000Y-141778000I-150000J0D01*
G01*
X170052000Y-141778000D01*
G75*
G02*
X169902000Y-141628000I0J150000D01*
G01*
G37*
G36*
G01*
X169902000Y-140358000D02*
X169902000Y-140058000D01*
G75*
G02*
X170052000Y-139908000I150000J0D01*
G01*
X171702000Y-139908000D01*
G75*
G02*
X171852000Y-140058000I0J-150000D01*
G01*
X171852000Y-140358000D01*
G75*
G02*
X171702000Y-140508000I-150000J0D01*
G01*
X170052000Y-140508000D01*
G75*
G02*
X169902000Y-140358000I0J150000D01*
G01*
G37*
G36*
G01*
X169902000Y-139088000D02*
X169902000Y-138788000D01*
G75*
G02*
X170052000Y-138638000I150000J0D01*
G01*
X171702000Y-138638000D01*
G75*
G02*
X171852000Y-138788000I0J-150000D01*
G01*
X171852000Y-139088000D01*
G75*
G02*
X171702000Y-139238000I-150000J0D01*
G01*
X170052000Y-139238000D01*
G75*
G02*
X169902000Y-139088000I0J150000D01*
G01*
G37*
G36*
G01*
X169902000Y-137818000D02*
X169902000Y-137518000D01*
G75*
G02*
X170052000Y-137368000I150000J0D01*
G01*
X171702000Y-137368000D01*
G75*
G02*
X171852000Y-137518000I0J-150000D01*
G01*
X171852000Y-137818000D01*
G75*
G02*
X171702000Y-137968000I-150000J0D01*
G01*
X170052000Y-137968000D01*
G75*
G02*
X169902000Y-137818000I0J150000D01*
G01*
G37*
G36*
G01*
X169902000Y-136548000D02*
X169902000Y-136248000D01*
G75*
G02*
X170052000Y-136098000I150000J0D01*
G01*
X171702000Y-136098000D01*
G75*
G02*
X171852000Y-136248000I0J-150000D01*
G01*
X171852000Y-136548000D01*
G75*
G02*
X171702000Y-136698000I-150000J0D01*
G01*
X170052000Y-136698000D01*
G75*
G02*
X169902000Y-136548000I0J150000D01*
G01*
G37*
G36*
G01*
X169902000Y-135278000D02*
X169902000Y-134978000D01*
G75*
G02*
X170052000Y-134828000I150000J0D01*
G01*
X171702000Y-134828000D01*
G75*
G02*
X171852000Y-134978000I0J-150000D01*
G01*
X171852000Y-135278000D01*
G75*
G02*
X171702000Y-135428000I-150000J0D01*
G01*
X170052000Y-135428000D01*
G75*
G02*
X169902000Y-135278000I0J150000D01*
G01*
G37*
%TD*%
%TO.C,U7*%
G36*
G01*
X207240000Y-112672000D02*
X207240000Y-112372000D01*
G75*
G02*
X207390000Y-112222000I150000J0D01*
G01*
X209040000Y-112222000D01*
G75*
G02*
X209190000Y-112372000I0J-150000D01*
G01*
X209190000Y-112672000D01*
G75*
G02*
X209040000Y-112822000I-150000J0D01*
G01*
X207390000Y-112822000D01*
G75*
G02*
X207240000Y-112672000I0J150000D01*
G01*
G37*
G36*
G01*
X207240000Y-113942000D02*
X207240000Y-113642000D01*
G75*
G02*
X207390000Y-113492000I150000J0D01*
G01*
X209040000Y-113492000D01*
G75*
G02*
X209190000Y-113642000I0J-150000D01*
G01*
X209190000Y-113942000D01*
G75*
G02*
X209040000Y-114092000I-150000J0D01*
G01*
X207390000Y-114092000D01*
G75*
G02*
X207240000Y-113942000I0J150000D01*
G01*
G37*
G36*
G01*
X207240000Y-115212000D02*
X207240000Y-114912000D01*
G75*
G02*
X207390000Y-114762000I150000J0D01*
G01*
X209040000Y-114762000D01*
G75*
G02*
X209190000Y-114912000I0J-150000D01*
G01*
X209190000Y-115212000D01*
G75*
G02*
X209040000Y-115362000I-150000J0D01*
G01*
X207390000Y-115362000D01*
G75*
G02*
X207240000Y-115212000I0J150000D01*
G01*
G37*
G36*
G01*
X207240000Y-116482000D02*
X207240000Y-116182000D01*
G75*
G02*
X207390000Y-116032000I150000J0D01*
G01*
X209040000Y-116032000D01*
G75*
G02*
X209190000Y-116182000I0J-150000D01*
G01*
X209190000Y-116482000D01*
G75*
G02*
X209040000Y-116632000I-150000J0D01*
G01*
X207390000Y-116632000D01*
G75*
G02*
X207240000Y-116482000I0J150000D01*
G01*
G37*
G36*
G01*
X207240000Y-117752000D02*
X207240000Y-117452000D01*
G75*
G02*
X207390000Y-117302000I150000J0D01*
G01*
X209040000Y-117302000D01*
G75*
G02*
X209190000Y-117452000I0J-150000D01*
G01*
X209190000Y-117752000D01*
G75*
G02*
X209040000Y-117902000I-150000J0D01*
G01*
X207390000Y-117902000D01*
G75*
G02*
X207240000Y-117752000I0J150000D01*
G01*
G37*
G36*
G01*
X207240000Y-119022000D02*
X207240000Y-118722000D01*
G75*
G02*
X207390000Y-118572000I150000J0D01*
G01*
X209040000Y-118572000D01*
G75*
G02*
X209190000Y-118722000I0J-150000D01*
G01*
X209190000Y-119022000D01*
G75*
G02*
X209040000Y-119172000I-150000J0D01*
G01*
X207390000Y-119172000D01*
G75*
G02*
X207240000Y-119022000I0J150000D01*
G01*
G37*
G36*
G01*
X207240000Y-120292000D02*
X207240000Y-119992000D01*
G75*
G02*
X207390000Y-119842000I150000J0D01*
G01*
X209040000Y-119842000D01*
G75*
G02*
X209190000Y-119992000I0J-150000D01*
G01*
X209190000Y-120292000D01*
G75*
G02*
X209040000Y-120442000I-150000J0D01*
G01*
X207390000Y-120442000D01*
G75*
G02*
X207240000Y-120292000I0J150000D01*
G01*
G37*
G36*
G01*
X202290000Y-120292000D02*
X202290000Y-119992000D01*
G75*
G02*
X202440000Y-119842000I150000J0D01*
G01*
X204090000Y-119842000D01*
G75*
G02*
X204240000Y-119992000I0J-150000D01*
G01*
X204240000Y-120292000D01*
G75*
G02*
X204090000Y-120442000I-150000J0D01*
G01*
X202440000Y-120442000D01*
G75*
G02*
X202290000Y-120292000I0J150000D01*
G01*
G37*
G36*
G01*
X202290000Y-119022000D02*
X202290000Y-118722000D01*
G75*
G02*
X202440000Y-118572000I150000J0D01*
G01*
X204090000Y-118572000D01*
G75*
G02*
X204240000Y-118722000I0J-150000D01*
G01*
X204240000Y-119022000D01*
G75*
G02*
X204090000Y-119172000I-150000J0D01*
G01*
X202440000Y-119172000D01*
G75*
G02*
X202290000Y-119022000I0J150000D01*
G01*
G37*
G36*
G01*
X202290000Y-117752000D02*
X202290000Y-117452000D01*
G75*
G02*
X202440000Y-117302000I150000J0D01*
G01*
X204090000Y-117302000D01*
G75*
G02*
X204240000Y-117452000I0J-150000D01*
G01*
X204240000Y-117752000D01*
G75*
G02*
X204090000Y-117902000I-150000J0D01*
G01*
X202440000Y-117902000D01*
G75*
G02*
X202290000Y-117752000I0J150000D01*
G01*
G37*
G36*
G01*
X202290000Y-116482000D02*
X202290000Y-116182000D01*
G75*
G02*
X202440000Y-116032000I150000J0D01*
G01*
X204090000Y-116032000D01*
G75*
G02*
X204240000Y-116182000I0J-150000D01*
G01*
X204240000Y-116482000D01*
G75*
G02*
X204090000Y-116632000I-150000J0D01*
G01*
X202440000Y-116632000D01*
G75*
G02*
X202290000Y-116482000I0J150000D01*
G01*
G37*
G36*
G01*
X202290000Y-115212000D02*
X202290000Y-114912000D01*
G75*
G02*
X202440000Y-114762000I150000J0D01*
G01*
X204090000Y-114762000D01*
G75*
G02*
X204240000Y-114912000I0J-150000D01*
G01*
X204240000Y-115212000D01*
G75*
G02*
X204090000Y-115362000I-150000J0D01*
G01*
X202440000Y-115362000D01*
G75*
G02*
X202290000Y-115212000I0J150000D01*
G01*
G37*
G36*
G01*
X202290000Y-113942000D02*
X202290000Y-113642000D01*
G75*
G02*
X202440000Y-113492000I150000J0D01*
G01*
X204090000Y-113492000D01*
G75*
G02*
X204240000Y-113642000I0J-150000D01*
G01*
X204240000Y-113942000D01*
G75*
G02*
X204090000Y-114092000I-150000J0D01*
G01*
X202440000Y-114092000D01*
G75*
G02*
X202290000Y-113942000I0J150000D01*
G01*
G37*
G36*
G01*
X202290000Y-112672000D02*
X202290000Y-112372000D01*
G75*
G02*
X202440000Y-112222000I150000J0D01*
G01*
X204090000Y-112222000D01*
G75*
G02*
X204240000Y-112372000I0J-150000D01*
G01*
X204240000Y-112672000D01*
G75*
G02*
X204090000Y-112822000I-150000J0D01*
G01*
X202440000Y-112822000D01*
G75*
G02*
X202290000Y-112672000I0J150000D01*
G01*
G37*
%TD*%
M02*
