%TF.GenerationSoftware,KiCad,Pcbnew,(5.1.10)-1*%
%TF.CreationDate,2022-02-21T21:55:40+01:00*%
%TF.ProjectId,BSPD-CV_3_0_01B,42535044-2d43-4565-9f33-5f305f303142,rev?*%
%TF.SameCoordinates,Original*%
%TF.FileFunction,Legend,Top*%
%TF.FilePolarity,Positive*%
%FSLAX46Y46*%
G04 Gerber Fmt 4.6, Leading zero omitted, Abs format (unit mm)*
G04 Created by KiCad (PCBNEW (5.1.10)-1) date 2022-02-21 21:55:40*
%MOMM*%
%LPD*%
G01*
G04 APERTURE LIST*
%ADD10C,0.150000*%
%ADD11C,0.120000*%
%ADD12O,1.600000X1.600000*%
%ADD13R,1.600000X1.600000*%
%ADD14C,1.700000*%
%ADD15O,2.200000X1.700000*%
%ADD16C,4.700000*%
%ADD17R,0.500000X0.500000*%
%ADD18C,2.000000*%
%ADD19R,1.500000X2.000000*%
%ADD20R,3.800000X2.000000*%
%ADD21C,1.524000*%
%ADD22R,1.300000X1.600000*%
%ADD23R,2.000000X1.600000*%
%ADD24R,1.300000X3.300000*%
%ADD25R,3.300000X1.300000*%
%ADD26R,0.800000X0.900000*%
%ADD27C,1.500000*%
G04 APERTURE END LIST*
D10*
X170164761Y-96448571D02*
X170307619Y-96496190D01*
X170355238Y-96543809D01*
X170402857Y-96639047D01*
X170402857Y-96781904D01*
X170355238Y-96877142D01*
X170307619Y-96924761D01*
X170212380Y-96972380D01*
X169831428Y-96972380D01*
X169831428Y-95972380D01*
X170164761Y-95972380D01*
X170260000Y-96020000D01*
X170307619Y-96067619D01*
X170355238Y-96162857D01*
X170355238Y-96258095D01*
X170307619Y-96353333D01*
X170260000Y-96400952D01*
X170164761Y-96448571D01*
X169831428Y-96448571D01*
X170783809Y-96924761D02*
X170926666Y-96972380D01*
X171164761Y-96972380D01*
X171260000Y-96924761D01*
X171307619Y-96877142D01*
X171355238Y-96781904D01*
X171355238Y-96686666D01*
X171307619Y-96591428D01*
X171260000Y-96543809D01*
X171164761Y-96496190D01*
X170974285Y-96448571D01*
X170879047Y-96400952D01*
X170831428Y-96353333D01*
X170783809Y-96258095D01*
X170783809Y-96162857D01*
X170831428Y-96067619D01*
X170879047Y-96020000D01*
X170974285Y-95972380D01*
X171212380Y-95972380D01*
X171355238Y-96020000D01*
X171783809Y-96972380D02*
X171783809Y-95972380D01*
X172164761Y-95972380D01*
X172260000Y-96020000D01*
X172307619Y-96067619D01*
X172355238Y-96162857D01*
X172355238Y-96305714D01*
X172307619Y-96400952D01*
X172260000Y-96448571D01*
X172164761Y-96496190D01*
X171783809Y-96496190D01*
X172783809Y-96972380D02*
X172783809Y-95972380D01*
X173021904Y-95972380D01*
X173164761Y-96020000D01*
X173260000Y-96115238D01*
X173307619Y-96210476D01*
X173355238Y-96400952D01*
X173355238Y-96543809D01*
X173307619Y-96734285D01*
X173260000Y-96829523D01*
X173164761Y-96924761D01*
X173021904Y-96972380D01*
X172783809Y-96972380D01*
X174402857Y-95972380D02*
X174736190Y-96972380D01*
X175069523Y-95972380D01*
X175307619Y-95972380D02*
X175926666Y-95972380D01*
X175593333Y-96353333D01*
X175736190Y-96353333D01*
X175831428Y-96400952D01*
X175879047Y-96448571D01*
X175926666Y-96543809D01*
X175926666Y-96781904D01*
X175879047Y-96877142D01*
X175831428Y-96924761D01*
X175736190Y-96972380D01*
X175450476Y-96972380D01*
X175355238Y-96924761D01*
X175307619Y-96877142D01*
X176355238Y-96877142D02*
X176402857Y-96924761D01*
X176355238Y-96972380D01*
X176307619Y-96924761D01*
X176355238Y-96877142D01*
X176355238Y-96972380D01*
X177021904Y-95972380D02*
X177117142Y-95972380D01*
X177212380Y-96020000D01*
X177260000Y-96067619D01*
X177307619Y-96162857D01*
X177355238Y-96353333D01*
X177355238Y-96591428D01*
X177307619Y-96781904D01*
X177260000Y-96877142D01*
X177212380Y-96924761D01*
X177117142Y-96972380D01*
X177021904Y-96972380D01*
X176926666Y-96924761D01*
X176879047Y-96877142D01*
X176831428Y-96781904D01*
X176783809Y-96591428D01*
X176783809Y-96353333D01*
X176831428Y-96162857D01*
X176879047Y-96067619D01*
X176926666Y-96020000D01*
X177021904Y-95972380D01*
X177783809Y-96877142D02*
X177831428Y-96924761D01*
X177783809Y-96972380D01*
X177736190Y-96924761D01*
X177783809Y-96877142D01*
X177783809Y-96972380D01*
X178450476Y-95972380D02*
X178545714Y-95972380D01*
X178640952Y-96020000D01*
X178688571Y-96067619D01*
X178736190Y-96162857D01*
X178783809Y-96353333D01*
X178783809Y-96591428D01*
X178736190Y-96781904D01*
X178688571Y-96877142D01*
X178640952Y-96924761D01*
X178545714Y-96972380D01*
X178450476Y-96972380D01*
X178355238Y-96924761D01*
X178307619Y-96877142D01*
X178260000Y-96781904D01*
X178212380Y-96591428D01*
X178212380Y-96353333D01*
X178260000Y-96162857D01*
X178307619Y-96067619D01*
X178355238Y-96020000D01*
X178450476Y-95972380D01*
X179736190Y-96972380D02*
X179164761Y-96972380D01*
X179450476Y-96972380D02*
X179450476Y-95972380D01*
X179355238Y-96115238D01*
X179260000Y-96210476D01*
X179164761Y-96258095D01*
X180498095Y-96448571D02*
X180640952Y-96496190D01*
X180688571Y-96543809D01*
X180736190Y-96639047D01*
X180736190Y-96781904D01*
X180688571Y-96877142D01*
X180640952Y-96924761D01*
X180545714Y-96972380D01*
X180164761Y-96972380D01*
X180164761Y-95972380D01*
X180498095Y-95972380D01*
X180593333Y-96020000D01*
X180640952Y-96067619D01*
X180688571Y-96162857D01*
X180688571Y-96258095D01*
X180640952Y-96353333D01*
X180593333Y-96400952D01*
X180498095Y-96448571D01*
X180164761Y-96448571D01*
X211892095Y-97226380D02*
X211892095Y-96226380D01*
X212225428Y-96940666D01*
X212558761Y-96226380D01*
X212558761Y-97226380D01*
X212987333Y-96940666D02*
X213463523Y-96940666D01*
X212892095Y-97226380D02*
X213225428Y-96226380D01*
X213558761Y-97226380D01*
X214463523Y-97226380D02*
X214130190Y-96750190D01*
X213892095Y-97226380D02*
X213892095Y-96226380D01*
X214273047Y-96226380D01*
X214368285Y-96274000D01*
X214415904Y-96321619D01*
X214463523Y-96416857D01*
X214463523Y-96559714D01*
X214415904Y-96654952D01*
X214368285Y-96702571D01*
X214273047Y-96750190D01*
X213892095Y-96750190D01*
X214749238Y-96226380D02*
X215320666Y-96226380D01*
X215034952Y-97226380D02*
X215034952Y-96226380D01*
X216749238Y-96702571D02*
X216415904Y-96702571D01*
X216415904Y-97226380D02*
X216415904Y-96226380D01*
X216892095Y-96226380D01*
X217225428Y-97178761D02*
X217368285Y-97226380D01*
X217606380Y-97226380D01*
X217701619Y-97178761D01*
X217749238Y-97131142D01*
X217796857Y-97035904D01*
X217796857Y-96940666D01*
X217749238Y-96845428D01*
X217701619Y-96797809D01*
X217606380Y-96750190D01*
X217415904Y-96702571D01*
X217320666Y-96654952D01*
X217273047Y-96607333D01*
X217225428Y-96512095D01*
X217225428Y-96416857D01*
X217273047Y-96321619D01*
X217320666Y-96274000D01*
X217415904Y-96226380D01*
X217654000Y-96226380D01*
X217796857Y-96274000D01*
X218939714Y-96321619D02*
X218987333Y-96274000D01*
X219082571Y-96226380D01*
X219320666Y-96226380D01*
X219415904Y-96274000D01*
X219463523Y-96321619D01*
X219511142Y-96416857D01*
X219511142Y-96512095D01*
X219463523Y-96654952D01*
X218892095Y-97226380D01*
X219511142Y-97226380D01*
X219892095Y-96321619D02*
X219939714Y-96274000D01*
X220034952Y-96226380D01*
X220273047Y-96226380D01*
X220368285Y-96274000D01*
X220415904Y-96321619D01*
X220463523Y-96416857D01*
X220463523Y-96512095D01*
X220415904Y-96654952D01*
X219844476Y-97226380D01*
X220463523Y-97226380D01*
D11*
%TO.C,C84*%
X226231000Y-124631200D02*
X226231000Y-125131200D01*
X225981000Y-124881200D02*
X226481000Y-124881200D01*
X226721000Y-127636763D02*
X227785437Y-128701200D01*
X226721000Y-125245637D02*
X227785437Y-124181200D01*
X226721000Y-125245637D02*
X226721000Y-125381200D01*
X226721000Y-127636763D02*
X226721000Y-127501200D01*
X227785437Y-128701200D02*
X231241000Y-128701200D01*
X227785437Y-124181200D02*
X231241000Y-124181200D01*
X231241000Y-124181200D02*
X231241000Y-125381200D01*
X231241000Y-128701200D02*
X231241000Y-127501200D01*
%TO.C,U15*%
X215249000Y-136693600D02*
G75*
G02*
X213249000Y-136693600I-1000000J0D01*
G01*
X213249000Y-136693600D02*
X211599000Y-136693600D01*
X211599000Y-136693600D02*
X211599000Y-146973600D01*
X211599000Y-146973600D02*
X216899000Y-146973600D01*
X216899000Y-146973600D02*
X216899000Y-136693600D01*
X216899000Y-136693600D02*
X215249000Y-136693600D01*
X209109000Y-136633600D02*
X209109000Y-147033600D01*
X209109000Y-147033600D02*
X219389000Y-147033600D01*
X219389000Y-147033600D02*
X219389000Y-136633600D01*
X219389000Y-136633600D02*
X209109000Y-136633600D01*
%TO.C,U12*%
X218551000Y-123358600D02*
G75*
G02*
X216551000Y-123358600I-1000000J0D01*
G01*
X216551000Y-123358600D02*
X214901000Y-123358600D01*
X214901000Y-123358600D02*
X214901000Y-133638600D01*
X214901000Y-133638600D02*
X220201000Y-133638600D01*
X220201000Y-133638600D02*
X220201000Y-123358600D01*
X220201000Y-123358600D02*
X218551000Y-123358600D01*
X212411000Y-123298600D02*
X212411000Y-133698600D01*
X212411000Y-133698600D02*
X222691000Y-133698600D01*
X222691000Y-133698600D02*
X222691000Y-123298600D01*
X222691000Y-123298600D02*
X212411000Y-123298600D01*
%TO.C,F11*%
X163227936Y-112162000D02*
X164432064Y-112162000D01*
X163227936Y-110342000D02*
X164432064Y-110342000D01*
%TO.C,J3*%
X159558000Y-139964264D02*
X159258000Y-139540000D01*
X158958000Y-139964264D02*
X159558000Y-139964264D01*
X159258000Y-139540000D02*
X158958000Y-139964264D01*
X157898000Y-133280000D02*
X157448000Y-133280000D01*
X157898000Y-133580000D02*
X157898000Y-133280000D01*
X157448000Y-133580000D02*
X157898000Y-133580000D01*
X157448000Y-133280000D02*
X157448000Y-133580000D01*
X157898000Y-135780000D02*
X157448000Y-135780000D01*
X157898000Y-136080000D02*
X157898000Y-135780000D01*
X157448000Y-136080000D02*
X157898000Y-136080000D01*
X157448000Y-135780000D02*
X157448000Y-136080000D01*
X157898000Y-138280000D02*
X157448000Y-138280000D01*
X157898000Y-138580000D02*
X157898000Y-138280000D01*
X157448000Y-138580000D02*
X157898000Y-138580000D01*
X157448000Y-138280000D02*
X157448000Y-138580000D01*
X148768000Y-140260000D02*
X157448000Y-140260000D01*
X148768000Y-131600000D02*
X148768000Y-140260000D01*
X157448000Y-131600000D02*
X148768000Y-131600000D01*
X157448000Y-140260000D02*
X157448000Y-131600000D01*
%TO.C,J2*%
X159558000Y-128026264D02*
X159258000Y-127602000D01*
X158958000Y-128026264D02*
X159558000Y-128026264D01*
X159258000Y-127602000D02*
X158958000Y-128026264D01*
X157898000Y-121342000D02*
X157448000Y-121342000D01*
X157898000Y-121642000D02*
X157898000Y-121342000D01*
X157448000Y-121642000D02*
X157898000Y-121642000D01*
X157448000Y-121342000D02*
X157448000Y-121642000D01*
X157898000Y-123842000D02*
X157448000Y-123842000D01*
X157898000Y-124142000D02*
X157898000Y-123842000D01*
X157448000Y-124142000D02*
X157898000Y-124142000D01*
X157448000Y-123842000D02*
X157448000Y-124142000D01*
X157898000Y-126342000D02*
X157448000Y-126342000D01*
X157898000Y-126642000D02*
X157898000Y-126342000D01*
X157448000Y-126642000D02*
X157898000Y-126642000D01*
X157448000Y-126342000D02*
X157448000Y-126642000D01*
X148768000Y-128322000D02*
X157448000Y-128322000D01*
X148768000Y-119662000D02*
X148768000Y-128322000D01*
X157448000Y-119662000D02*
X148768000Y-119662000D01*
X157448000Y-128322000D02*
X157448000Y-119662000D01*
%TO.C,J4*%
X224515400Y-103367736D02*
X224815400Y-103792000D01*
X225115400Y-103367736D02*
X224515400Y-103367736D01*
X224815400Y-103792000D02*
X225115400Y-103367736D01*
X226175400Y-107552000D02*
X226625400Y-107552000D01*
X226175400Y-107252000D02*
X226175400Y-107552000D01*
X226625400Y-107252000D02*
X226175400Y-107252000D01*
X226625400Y-107552000D02*
X226625400Y-107252000D01*
X226175400Y-105052000D02*
X226625400Y-105052000D01*
X226175400Y-104752000D02*
X226175400Y-105052000D01*
X226625400Y-104752000D02*
X226175400Y-104752000D01*
X226625400Y-105052000D02*
X226625400Y-104752000D01*
X235305400Y-103072000D02*
X226625400Y-103072000D01*
X235305400Y-109232000D02*
X235305400Y-103072000D01*
X226625400Y-109232000D02*
X235305400Y-109232000D01*
X226625400Y-103072000D02*
X226625400Y-109232000D01*
%TO.C,J1*%
X159050000Y-113802264D02*
X158750000Y-113378000D01*
X158450000Y-113802264D02*
X159050000Y-113802264D01*
X158750000Y-113378000D02*
X158450000Y-113802264D01*
X157390000Y-109618000D02*
X156940000Y-109618000D01*
X157390000Y-109918000D02*
X157390000Y-109618000D01*
X156940000Y-109918000D02*
X157390000Y-109918000D01*
X156940000Y-109618000D02*
X156940000Y-109918000D01*
X157390000Y-112118000D02*
X156940000Y-112118000D01*
X157390000Y-112418000D02*
X157390000Y-112118000D01*
X156940000Y-112418000D02*
X157390000Y-112418000D01*
X156940000Y-112118000D02*
X156940000Y-112418000D01*
X148260000Y-114098000D02*
X156940000Y-114098000D01*
X148260000Y-107938000D02*
X148260000Y-114098000D01*
X156940000Y-107938000D02*
X148260000Y-107938000D01*
X156940000Y-114098000D02*
X156940000Y-107938000D01*
%TO.C,D102*%
X217590000Y-114276000D02*
X219290000Y-114276000D01*
X219290000Y-114276000D02*
X219290000Y-111726000D01*
X217590000Y-114276000D02*
X217590000Y-111726000D01*
%TO.C,U8*%
X187452000Y-127137000D02*
X184002000Y-127137000D01*
X187452000Y-127137000D02*
X189402000Y-127137000D01*
X187452000Y-136007000D02*
X185502000Y-136007000D01*
X187452000Y-136007000D02*
X189402000Y-136007000D01*
%TO.C,U7*%
X205740000Y-111897000D02*
X202290000Y-111897000D01*
X205740000Y-111897000D02*
X207690000Y-111897000D01*
X205740000Y-120767000D02*
X203790000Y-120767000D01*
X205740000Y-120767000D02*
X207690000Y-120767000D01*
%TO.C,U6*%
X170688000Y-127137000D02*
X167238000Y-127137000D01*
X170688000Y-127137000D02*
X172638000Y-127137000D01*
X170688000Y-136007000D02*
X168738000Y-136007000D01*
X170688000Y-136007000D02*
X172638000Y-136007000D01*
%TO.C,U5*%
X196596000Y-127137000D02*
X193146000Y-127137000D01*
X196596000Y-127137000D02*
X198546000Y-127137000D01*
X196596000Y-136007000D02*
X194646000Y-136007000D01*
X196596000Y-136007000D02*
X198546000Y-136007000D01*
%TO.C,U4*%
X196596000Y-111897000D02*
X193146000Y-111897000D01*
X196596000Y-111897000D02*
X198546000Y-111897000D01*
X196596000Y-120767000D02*
X194646000Y-120767000D01*
X196596000Y-120767000D02*
X198546000Y-120767000D01*
%TO.C,U3*%
X187452000Y-111897000D02*
X184002000Y-111897000D01*
X187452000Y-111897000D02*
X189402000Y-111897000D01*
X187452000Y-120767000D02*
X185502000Y-120767000D01*
X187452000Y-120767000D02*
X189402000Y-120767000D01*
%TO.C,U2*%
X170688000Y-111897000D02*
X167238000Y-111897000D01*
X170688000Y-111897000D02*
X172638000Y-111897000D01*
X170688000Y-120767000D02*
X168738000Y-120767000D01*
X170688000Y-120767000D02*
X172638000Y-120767000D01*
%TO.C,U1*%
X167786000Y-105954000D02*
X167786000Y-99944000D01*
X174606000Y-103704000D02*
X174606000Y-99944000D01*
X167786000Y-99944000D02*
X169046000Y-99944000D01*
X174606000Y-99944000D02*
X173346000Y-99944000D01*
%TO.C,VApp1*%
X189504000Y-147412000D02*
X189504000Y-143672000D01*
X194544000Y-147412000D02*
X194544000Y-143672000D01*
X190784000Y-143672000D02*
X189504000Y-143672000D01*
X194544000Y-143672000D02*
X193264000Y-143672000D01*
X192384000Y-147412000D02*
X191664000Y-147412000D01*
X194544000Y-147412000D02*
X194164000Y-147412000D01*
X189884000Y-147412000D02*
X189504000Y-147412000D01*
%TO.C,VBrk1*%
X182900000Y-147412000D02*
X182900000Y-143672000D01*
X187940000Y-147412000D02*
X187940000Y-143672000D01*
X184180000Y-143672000D02*
X182900000Y-143672000D01*
X187940000Y-143672000D02*
X186660000Y-143672000D01*
X185780000Y-147412000D02*
X185060000Y-147412000D01*
X187940000Y-147412000D02*
X187560000Y-147412000D01*
X183280000Y-147412000D02*
X182900000Y-147412000D01*
%TO.C,R54*%
X177967621Y-132208000D02*
X177632379Y-132208000D01*
X177967621Y-132968000D02*
X177632379Y-132968000D01*
%TO.C,R55*%
X189824379Y-123570000D02*
X190159621Y-123570000D01*
X189824379Y-122810000D02*
X190159621Y-122810000D01*
%TO.C,R94*%
X201246121Y-139320000D02*
X200910879Y-139320000D01*
X201246121Y-140080000D02*
X200910879Y-140080000D01*
%TO.C,R53*%
X162989879Y-136016000D02*
X163325121Y-136016000D01*
X162989879Y-135256000D02*
X163325121Y-135256000D01*
%TO.C,R92*%
X210692000Y-135295621D02*
X210692000Y-134960379D01*
X209932000Y-135295621D02*
X209932000Y-134960379D01*
%TO.C,R91*%
X201089879Y-144652000D02*
X201425121Y-144652000D01*
X201089879Y-143892000D02*
X201425121Y-143892000D01*
%TO.C,R51*%
X161164000Y-134960379D02*
X161164000Y-135295621D01*
X161924000Y-134960379D02*
X161924000Y-135295621D01*
%TO.C,R103*%
X217166879Y-104520000D02*
X217502121Y-104520000D01*
X217166879Y-103760000D02*
X217502121Y-103760000D01*
%TO.C,R102*%
X217166879Y-102996000D02*
X217502121Y-102996000D01*
X217166879Y-102236000D02*
X217502121Y-102236000D01*
%TO.C,R84*%
X205818121Y-124080000D02*
X205482879Y-124080000D01*
X205818121Y-124840000D02*
X205482879Y-124840000D01*
%TO.C,R44*%
X181315379Y-114045000D02*
X181650621Y-114045000D01*
X181315379Y-113285000D02*
X181650621Y-113285000D01*
%TO.C,R82*%
X215520000Y-119212379D02*
X215520000Y-119547621D01*
X216280000Y-119212379D02*
X216280000Y-119547621D01*
%TO.C,R81*%
X205572379Y-128904000D02*
X205907621Y-128904000D01*
X205572379Y-128144000D02*
X205907621Y-128144000D01*
%TO.C,R45*%
X189824379Y-122300000D02*
X190159621Y-122300000D01*
X189824379Y-121540000D02*
X190159621Y-121540000D01*
%TO.C,R101*%
X225592621Y-112777000D02*
X225257379Y-112777000D01*
X225592621Y-113537000D02*
X225257379Y-113537000D01*
%TO.C,R43*%
X163318879Y-119760000D02*
X163654121Y-119760000D01*
X163318879Y-119000000D02*
X163654121Y-119000000D01*
%TO.C,R31*%
X182752000Y-108790121D02*
X182752000Y-108454879D01*
X181992000Y-108790121D02*
X181992000Y-108454879D01*
%TO.C,R42*%
X163318879Y-115188000D02*
X163654121Y-115188000D01*
X163318879Y-114428000D02*
X163654121Y-114428000D01*
%TO.C,R41*%
X162178000Y-126495121D02*
X162178000Y-126159879D01*
X161418000Y-126495121D02*
X161418000Y-126159879D01*
%TO.C,R72*%
X185214879Y-137286000D02*
X185550121Y-137286000D01*
X185214879Y-136526000D02*
X185550121Y-136526000D01*
%TO.C,R71*%
X185162879Y-122427000D02*
X185498121Y-122427000D01*
X185162879Y-121667000D02*
X185498121Y-121667000D01*
%TO.C,R76*%
X212003621Y-113412000D02*
X211668379Y-113412000D01*
X212003621Y-114172000D02*
X211668379Y-114172000D01*
%TO.C,R74*%
X195412379Y-138048000D02*
X195747621Y-138048000D01*
X195412379Y-137288000D02*
X195747621Y-137288000D01*
%TO.C,R75*%
X199057879Y-124332000D02*
X199393121Y-124332000D01*
X199057879Y-123572000D02*
X199393121Y-123572000D01*
%TO.C,R78*%
X212003621Y-111888000D02*
X211668379Y-111888000D01*
X212003621Y-112648000D02*
X211668379Y-112648000D01*
%TO.C,R73*%
X185214879Y-138683000D02*
X185550121Y-138683000D01*
X185214879Y-137923000D02*
X185550121Y-137923000D01*
%TO.C,R27*%
X185125379Y-123697000D02*
X185460621Y-123697000D01*
X185125379Y-122937000D02*
X185460621Y-122937000D01*
%TO.C,R25*%
X175388000Y-125218879D02*
X175388000Y-125554121D01*
X176148000Y-125218879D02*
X176148000Y-125554121D01*
%TO.C,R24*%
X175388000Y-122424879D02*
X175388000Y-122760121D01*
X176148000Y-122424879D02*
X176148000Y-122760121D01*
%TO.C,R8*%
X198968379Y-122808000D02*
X199303621Y-122808000D01*
X198968379Y-122048000D02*
X199303621Y-122048000D01*
%TO.C,R22*%
X176951621Y-113285000D02*
X176616379Y-113285000D01*
X176951621Y-114045000D02*
X176616379Y-114045000D01*
%TO.C,R21*%
X176951621Y-114428000D02*
X176616379Y-114428000D01*
X176951621Y-115188000D02*
X176616379Y-115188000D01*
%TO.C,R26*%
X178057121Y-130176000D02*
X177721879Y-130176000D01*
X178057121Y-130936000D02*
X177721879Y-130936000D01*
%TO.C,R12*%
X180507621Y-99696000D02*
X180172379Y-99696000D01*
X180507621Y-100456000D02*
X180172379Y-100456000D01*
%TO.C,R77*%
X185125379Y-126364000D02*
X185460621Y-126364000D01*
X185125379Y-125604000D02*
X185460621Y-125604000D01*
%TO.C,R11*%
X179176000Y-102904936D02*
X179176000Y-104359064D01*
X180996000Y-102904936D02*
X180996000Y-104359064D01*
%TO.C,R23*%
X176616379Y-116331000D02*
X176951621Y-116331000D01*
X176616379Y-115571000D02*
X176951621Y-115571000D01*
%TO.C,Q101*%
X215336000Y-107948000D02*
X215336000Y-106488000D01*
X218496000Y-107948000D02*
X218496000Y-105788000D01*
X218496000Y-107948000D02*
X217566000Y-107948000D01*
X215336000Y-107948000D02*
X216266000Y-107948000D01*
%TO.C,D92*%
X206922000Y-136628000D02*
X206922000Y-134078000D01*
X208622000Y-136628000D02*
X208622000Y-134078000D01*
X206922000Y-136628000D02*
X208622000Y-136628000D01*
%TO.C,D91*%
X199668000Y-141390000D02*
X202218000Y-141390000D01*
X199668000Y-143090000D02*
X202218000Y-143090000D01*
X199668000Y-141390000D02*
X199668000Y-143090000D01*
%TO.C,D82*%
X214210000Y-117880000D02*
X214210000Y-120430000D01*
X212510000Y-117880000D02*
X212510000Y-120430000D01*
X214210000Y-117880000D02*
X212510000Y-117880000D01*
%TO.C,D81*%
X204240000Y-125642000D02*
X206790000Y-125642000D01*
X204240000Y-127342000D02*
X206790000Y-127342000D01*
X204240000Y-125642000D02*
X204240000Y-127342000D01*
%TO.C,D101*%
X220717000Y-113892000D02*
X223177000Y-113892000D01*
X220717000Y-112422000D02*
X220717000Y-113892000D01*
X223177000Y-112422000D02*
X220717000Y-112422000D01*
%TO.C,D31*%
X178474000Y-110212000D02*
X178474000Y-107662000D01*
X180174000Y-110212000D02*
X180174000Y-107662000D01*
X178474000Y-110212000D02*
X180174000Y-110212000D01*
%TO.C,D11*%
X176557000Y-97654000D02*
X176557000Y-100114000D01*
X178027000Y-97654000D02*
X176557000Y-97654000D01*
X178027000Y-100114000D02*
X178027000Y-97654000D01*
%TO.C,C94*%
X220221800Y-140576200D02*
X220221800Y-141576200D01*
X219721800Y-141076200D02*
X220721800Y-141076200D01*
X220961800Y-146781763D02*
X222026237Y-147846200D01*
X220961800Y-140390637D02*
X222026237Y-139326200D01*
X220961800Y-140390637D02*
X220961800Y-142076200D01*
X220961800Y-146781763D02*
X220961800Y-145096200D01*
X222026237Y-147846200D02*
X229481800Y-147846200D01*
X222026237Y-139326200D02*
X229481800Y-139326200D01*
X229481800Y-139326200D02*
X229481800Y-142076200D01*
X229481800Y-147846200D02*
X229481800Y-145096200D01*
%TO.C,C92*%
X210699133Y-148769800D02*
X210991667Y-148769800D01*
X210699133Y-147749800D02*
X210991667Y-147749800D01*
%TO.C,C93*%
X205742000Y-135274267D02*
X205742000Y-134981733D01*
X204722000Y-135274267D02*
X204722000Y-134981733D01*
%TO.C,C91*%
X200868233Y-138178000D02*
X201160767Y-138178000D01*
X200868233Y-137158000D02*
X201160767Y-137158000D01*
%TO.C,C82*%
X218420733Y-135460200D02*
X218713267Y-135460200D01*
X218420733Y-134440200D02*
X218713267Y-134440200D01*
%TO.C,C83*%
X210310000Y-119233733D02*
X210310000Y-119526267D01*
X211330000Y-119233733D02*
X211330000Y-119526267D01*
%TO.C,C81*%
X205593733Y-122938000D02*
X205886267Y-122938000D01*
X205593733Y-121918000D02*
X205886267Y-121918000D01*
%TO.C,C31*%
X175766000Y-108565733D02*
X175766000Y-108858267D01*
X176786000Y-108565733D02*
X176786000Y-108858267D01*
%TO.C,C12*%
X165818000Y-107474000D02*
X165818000Y-106974000D01*
X166068000Y-107224000D02*
X165568000Y-107224000D01*
X165328000Y-104468437D02*
X164263563Y-103404000D01*
X165328000Y-106859563D02*
X164263563Y-107924000D01*
X165328000Y-106859563D02*
X165328000Y-106724000D01*
X165328000Y-104468437D02*
X165328000Y-104604000D01*
X164263563Y-103404000D02*
X160808000Y-103404000D01*
X164263563Y-107924000D02*
X160808000Y-107924000D01*
X160808000Y-107924000D02*
X160808000Y-106724000D01*
X160808000Y-103404000D02*
X160808000Y-104604000D01*
%TO.C,C11*%
X165818000Y-101886000D02*
X165818000Y-101386000D01*
X166068000Y-101636000D02*
X165568000Y-101636000D01*
X165328000Y-98880437D02*
X164263563Y-97816000D01*
X165328000Y-101271563D02*
X164263563Y-102336000D01*
X165328000Y-101271563D02*
X165328000Y-101136000D01*
X165328000Y-98880437D02*
X165328000Y-99016000D01*
X164263563Y-97816000D02*
X160808000Y-97816000D01*
X164263563Y-102336000D02*
X160808000Y-102336000D01*
X160808000Y-102336000D02*
X160808000Y-101136000D01*
X160808000Y-97816000D02*
X160808000Y-99016000D01*
%TO.C,C84*%
D10*
X224782142Y-124258342D02*
X224734523Y-124305961D01*
X224591666Y-124353580D01*
X224496428Y-124353580D01*
X224353571Y-124305961D01*
X224258333Y-124210723D01*
X224210714Y-124115485D01*
X224163095Y-123925009D01*
X224163095Y-123782152D01*
X224210714Y-123591676D01*
X224258333Y-123496438D01*
X224353571Y-123401200D01*
X224496428Y-123353580D01*
X224591666Y-123353580D01*
X224734523Y-123401200D01*
X224782142Y-123448819D01*
X225353571Y-123782152D02*
X225258333Y-123734533D01*
X225210714Y-123686914D01*
X225163095Y-123591676D01*
X225163095Y-123544057D01*
X225210714Y-123448819D01*
X225258333Y-123401200D01*
X225353571Y-123353580D01*
X225544047Y-123353580D01*
X225639285Y-123401200D01*
X225686904Y-123448819D01*
X225734523Y-123544057D01*
X225734523Y-123591676D01*
X225686904Y-123686914D01*
X225639285Y-123734533D01*
X225544047Y-123782152D01*
X225353571Y-123782152D01*
X225258333Y-123829771D01*
X225210714Y-123877390D01*
X225163095Y-123972628D01*
X225163095Y-124163104D01*
X225210714Y-124258342D01*
X225258333Y-124305961D01*
X225353571Y-124353580D01*
X225544047Y-124353580D01*
X225639285Y-124305961D01*
X225686904Y-124258342D01*
X225734523Y-124163104D01*
X225734523Y-123972628D01*
X225686904Y-123877390D01*
X225639285Y-123829771D01*
X225544047Y-123782152D01*
X226591666Y-123686914D02*
X226591666Y-124353580D01*
X226353571Y-123305961D02*
X226115476Y-124020247D01*
X226734523Y-124020247D01*
%TO.C,U15*%
X206254504Y-140904980D02*
X206254504Y-141714504D01*
X206302123Y-141809742D01*
X206349742Y-141857361D01*
X206444980Y-141904980D01*
X206635457Y-141904980D01*
X206730695Y-141857361D01*
X206778314Y-141809742D01*
X206825933Y-141714504D01*
X206825933Y-140904980D01*
X207825933Y-141904980D02*
X207254504Y-141904980D01*
X207540219Y-141904980D02*
X207540219Y-140904980D01*
X207444980Y-141047838D01*
X207349742Y-141143076D01*
X207254504Y-141190695D01*
X208730695Y-140904980D02*
X208254504Y-140904980D01*
X208206885Y-141381171D01*
X208254504Y-141333552D01*
X208349742Y-141285933D01*
X208587838Y-141285933D01*
X208683076Y-141333552D01*
X208730695Y-141381171D01*
X208778314Y-141476409D01*
X208778314Y-141714504D01*
X208730695Y-141809742D01*
X208683076Y-141857361D01*
X208587838Y-141904980D01*
X208349742Y-141904980D01*
X208254504Y-141857361D01*
X208206885Y-141809742D01*
%TO.C,U12*%
X210024904Y-127696980D02*
X210024904Y-128506504D01*
X210072523Y-128601742D01*
X210120142Y-128649361D01*
X210215380Y-128696980D01*
X210405857Y-128696980D01*
X210501095Y-128649361D01*
X210548714Y-128601742D01*
X210596333Y-128506504D01*
X210596333Y-127696980D01*
X211596333Y-128696980D02*
X211024904Y-128696980D01*
X211310619Y-128696980D02*
X211310619Y-127696980D01*
X211215380Y-127839838D01*
X211120142Y-127935076D01*
X211024904Y-127982695D01*
X211977285Y-127792219D02*
X212024904Y-127744600D01*
X212120142Y-127696980D01*
X212358238Y-127696980D01*
X212453476Y-127744600D01*
X212501095Y-127792219D01*
X212548714Y-127887457D01*
X212548714Y-127982695D01*
X212501095Y-128125552D01*
X211929666Y-128696980D01*
X212548714Y-128696980D01*
%TO.C,F11*%
X162258476Y-113212571D02*
X161925142Y-113212571D01*
X161925142Y-113736380D02*
X161925142Y-112736380D01*
X162401333Y-112736380D01*
X163306095Y-113736380D02*
X162734666Y-113736380D01*
X163020380Y-113736380D02*
X163020380Y-112736380D01*
X162925142Y-112879238D01*
X162829904Y-112974476D01*
X162734666Y-113022095D01*
X164258476Y-113736380D02*
X163687047Y-113736380D01*
X163972761Y-113736380D02*
X163972761Y-112736380D01*
X163877523Y-112879238D01*
X163782285Y-112974476D01*
X163687047Y-113022095D01*
%TO.C,J3*%
X158924666Y-140802380D02*
X158924666Y-141516666D01*
X158877047Y-141659523D01*
X158781809Y-141754761D01*
X158638952Y-141802380D01*
X158543714Y-141802380D01*
X159305619Y-140802380D02*
X159924666Y-140802380D01*
X159591333Y-141183333D01*
X159734190Y-141183333D01*
X159829428Y-141230952D01*
X159877047Y-141278571D01*
X159924666Y-141373809D01*
X159924666Y-141611904D01*
X159877047Y-141707142D01*
X159829428Y-141754761D01*
X159734190Y-141802380D01*
X159448476Y-141802380D01*
X159353238Y-141754761D01*
X159305619Y-141707142D01*
%TO.C,J2*%
X158924666Y-128864380D02*
X158924666Y-129578666D01*
X158877047Y-129721523D01*
X158781809Y-129816761D01*
X158638952Y-129864380D01*
X158543714Y-129864380D01*
X159353238Y-128959619D02*
X159400857Y-128912000D01*
X159496095Y-128864380D01*
X159734190Y-128864380D01*
X159829428Y-128912000D01*
X159877047Y-128959619D01*
X159924666Y-129054857D01*
X159924666Y-129150095D01*
X159877047Y-129292952D01*
X159305619Y-129864380D01*
X159924666Y-129864380D01*
%TO.C,J4*%
X224990066Y-101306380D02*
X224990066Y-102020666D01*
X224942447Y-102163523D01*
X224847209Y-102258761D01*
X224704352Y-102306380D01*
X224609114Y-102306380D01*
X225894828Y-101639714D02*
X225894828Y-102306380D01*
X225656733Y-101258761D02*
X225418638Y-101973047D01*
X226037685Y-101973047D01*
%TO.C,J1*%
X158416666Y-114640380D02*
X158416666Y-115354666D01*
X158369047Y-115497523D01*
X158273809Y-115592761D01*
X158130952Y-115640380D01*
X158035714Y-115640380D01*
X159416666Y-115640380D02*
X158845238Y-115640380D01*
X159130952Y-115640380D02*
X159130952Y-114640380D01*
X159035714Y-114783238D01*
X158940476Y-114878476D01*
X158845238Y-114926095D01*
%TO.C,H4*%
X228854095Y-150693380D02*
X228854095Y-149693380D01*
X228854095Y-150169571D02*
X229425523Y-150169571D01*
X229425523Y-150693380D02*
X229425523Y-149693380D01*
X230330285Y-150026714D02*
X230330285Y-150693380D01*
X230092190Y-149645761D02*
X229854095Y-150360047D01*
X230473142Y-150360047D01*
%TO.C,H3*%
X155575095Y-150693380D02*
X155575095Y-149693380D01*
X155575095Y-150169571D02*
X156146523Y-150169571D01*
X156146523Y-150693380D02*
X156146523Y-149693380D01*
X156527476Y-149693380D02*
X157146523Y-149693380D01*
X156813190Y-150074333D01*
X156956047Y-150074333D01*
X157051285Y-150121952D01*
X157098904Y-150169571D01*
X157146523Y-150264809D01*
X157146523Y-150502904D01*
X157098904Y-150598142D01*
X157051285Y-150645761D01*
X156956047Y-150693380D01*
X156670333Y-150693380D01*
X156575095Y-150645761D01*
X156527476Y-150598142D01*
%TO.C,H2*%
X228346095Y-96337380D02*
X228346095Y-95337380D01*
X228346095Y-95813571D02*
X228917523Y-95813571D01*
X228917523Y-96337380D02*
X228917523Y-95337380D01*
X229346095Y-95432619D02*
X229393714Y-95385000D01*
X229488952Y-95337380D01*
X229727047Y-95337380D01*
X229822285Y-95385000D01*
X229869904Y-95432619D01*
X229917523Y-95527857D01*
X229917523Y-95623095D01*
X229869904Y-95765952D01*
X229298476Y-96337380D01*
X229917523Y-96337380D01*
%TO.C,H1*%
X155575095Y-96337380D02*
X155575095Y-95337380D01*
X155575095Y-95813571D02*
X156146523Y-95813571D01*
X156146523Y-96337380D02*
X156146523Y-95337380D01*
X157146523Y-96337380D02*
X156575095Y-96337380D01*
X156860809Y-96337380D02*
X156860809Y-95337380D01*
X156765571Y-95480238D01*
X156670333Y-95575476D01*
X156575095Y-95623095D01*
%TO.C,D102*%
X216749523Y-110688380D02*
X216749523Y-109688380D01*
X216987619Y-109688380D01*
X217130476Y-109736000D01*
X217225714Y-109831238D01*
X217273333Y-109926476D01*
X217320952Y-110116952D01*
X217320952Y-110259809D01*
X217273333Y-110450285D01*
X217225714Y-110545523D01*
X217130476Y-110640761D01*
X216987619Y-110688380D01*
X216749523Y-110688380D01*
X218273333Y-110688380D02*
X217701904Y-110688380D01*
X217987619Y-110688380D02*
X217987619Y-109688380D01*
X217892380Y-109831238D01*
X217797142Y-109926476D01*
X217701904Y-109974095D01*
X218892380Y-109688380D02*
X218987619Y-109688380D01*
X219082857Y-109736000D01*
X219130476Y-109783619D01*
X219178095Y-109878857D01*
X219225714Y-110069333D01*
X219225714Y-110307428D01*
X219178095Y-110497904D01*
X219130476Y-110593142D01*
X219082857Y-110640761D01*
X218987619Y-110688380D01*
X218892380Y-110688380D01*
X218797142Y-110640761D01*
X218749523Y-110593142D01*
X218701904Y-110497904D01*
X218654285Y-110307428D01*
X218654285Y-110069333D01*
X218701904Y-109878857D01*
X218749523Y-109783619D01*
X218797142Y-109736000D01*
X218892380Y-109688380D01*
X219606666Y-109783619D02*
X219654285Y-109736000D01*
X219749523Y-109688380D01*
X219987619Y-109688380D01*
X220082857Y-109736000D01*
X220130476Y-109783619D01*
X220178095Y-109878857D01*
X220178095Y-109974095D01*
X220130476Y-110116952D01*
X219559047Y-110688380D01*
X220178095Y-110688380D01*
%TO.C,K101*%
X188809523Y-107894380D02*
X188809523Y-106894380D01*
X189380952Y-107894380D02*
X188952380Y-107322952D01*
X189380952Y-106894380D02*
X188809523Y-107465809D01*
X190333333Y-107894380D02*
X189761904Y-107894380D01*
X190047619Y-107894380D02*
X190047619Y-106894380D01*
X189952380Y-107037238D01*
X189857142Y-107132476D01*
X189761904Y-107180095D01*
X190952380Y-106894380D02*
X191047619Y-106894380D01*
X191142857Y-106942000D01*
X191190476Y-106989619D01*
X191238095Y-107084857D01*
X191285714Y-107275333D01*
X191285714Y-107513428D01*
X191238095Y-107703904D01*
X191190476Y-107799142D01*
X191142857Y-107846761D01*
X191047619Y-107894380D01*
X190952380Y-107894380D01*
X190857142Y-107846761D01*
X190809523Y-107799142D01*
X190761904Y-107703904D01*
X190714285Y-107513428D01*
X190714285Y-107275333D01*
X190761904Y-107084857D01*
X190809523Y-106989619D01*
X190857142Y-106942000D01*
X190952380Y-106894380D01*
X192238095Y-107894380D02*
X191666666Y-107894380D01*
X191952380Y-107894380D02*
X191952380Y-106894380D01*
X191857142Y-107037238D01*
X191761904Y-107132476D01*
X191666666Y-107180095D01*
%TO.C,U8*%
X186690095Y-125744380D02*
X186690095Y-126553904D01*
X186737714Y-126649142D01*
X186785333Y-126696761D01*
X186880571Y-126744380D01*
X187071047Y-126744380D01*
X187166285Y-126696761D01*
X187213904Y-126649142D01*
X187261523Y-126553904D01*
X187261523Y-125744380D01*
X187880571Y-126172952D02*
X187785333Y-126125333D01*
X187737714Y-126077714D01*
X187690095Y-125982476D01*
X187690095Y-125934857D01*
X187737714Y-125839619D01*
X187785333Y-125792000D01*
X187880571Y-125744380D01*
X188071047Y-125744380D01*
X188166285Y-125792000D01*
X188213904Y-125839619D01*
X188261523Y-125934857D01*
X188261523Y-125982476D01*
X188213904Y-126077714D01*
X188166285Y-126125333D01*
X188071047Y-126172952D01*
X187880571Y-126172952D01*
X187785333Y-126220571D01*
X187737714Y-126268190D01*
X187690095Y-126363428D01*
X187690095Y-126553904D01*
X187737714Y-126649142D01*
X187785333Y-126696761D01*
X187880571Y-126744380D01*
X188071047Y-126744380D01*
X188166285Y-126696761D01*
X188213904Y-126649142D01*
X188261523Y-126553904D01*
X188261523Y-126363428D01*
X188213904Y-126268190D01*
X188166285Y-126220571D01*
X188071047Y-126172952D01*
%TO.C,U7*%
X204978095Y-110504380D02*
X204978095Y-111313904D01*
X205025714Y-111409142D01*
X205073333Y-111456761D01*
X205168571Y-111504380D01*
X205359047Y-111504380D01*
X205454285Y-111456761D01*
X205501904Y-111409142D01*
X205549523Y-111313904D01*
X205549523Y-110504380D01*
X205930476Y-110504380D02*
X206597142Y-110504380D01*
X206168571Y-111504380D01*
%TO.C,U6*%
X169926095Y-125744380D02*
X169926095Y-126553904D01*
X169973714Y-126649142D01*
X170021333Y-126696761D01*
X170116571Y-126744380D01*
X170307047Y-126744380D01*
X170402285Y-126696761D01*
X170449904Y-126649142D01*
X170497523Y-126553904D01*
X170497523Y-125744380D01*
X171402285Y-125744380D02*
X171211809Y-125744380D01*
X171116571Y-125792000D01*
X171068952Y-125839619D01*
X170973714Y-125982476D01*
X170926095Y-126172952D01*
X170926095Y-126553904D01*
X170973714Y-126649142D01*
X171021333Y-126696761D01*
X171116571Y-126744380D01*
X171307047Y-126744380D01*
X171402285Y-126696761D01*
X171449904Y-126649142D01*
X171497523Y-126553904D01*
X171497523Y-126315809D01*
X171449904Y-126220571D01*
X171402285Y-126172952D01*
X171307047Y-126125333D01*
X171116571Y-126125333D01*
X171021333Y-126172952D01*
X170973714Y-126220571D01*
X170926095Y-126315809D01*
%TO.C,U5*%
X195834095Y-125744380D02*
X195834095Y-126553904D01*
X195881714Y-126649142D01*
X195929333Y-126696761D01*
X196024571Y-126744380D01*
X196215047Y-126744380D01*
X196310285Y-126696761D01*
X196357904Y-126649142D01*
X196405523Y-126553904D01*
X196405523Y-125744380D01*
X197357904Y-125744380D02*
X196881714Y-125744380D01*
X196834095Y-126220571D01*
X196881714Y-126172952D01*
X196976952Y-126125333D01*
X197215047Y-126125333D01*
X197310285Y-126172952D01*
X197357904Y-126220571D01*
X197405523Y-126315809D01*
X197405523Y-126553904D01*
X197357904Y-126649142D01*
X197310285Y-126696761D01*
X197215047Y-126744380D01*
X196976952Y-126744380D01*
X196881714Y-126696761D01*
X196834095Y-126649142D01*
%TO.C,U4*%
X195834095Y-110504380D02*
X195834095Y-111313904D01*
X195881714Y-111409142D01*
X195929333Y-111456761D01*
X196024571Y-111504380D01*
X196215047Y-111504380D01*
X196310285Y-111456761D01*
X196357904Y-111409142D01*
X196405523Y-111313904D01*
X196405523Y-110504380D01*
X197310285Y-110837714D02*
X197310285Y-111504380D01*
X197072190Y-110456761D02*
X196834095Y-111171047D01*
X197453142Y-111171047D01*
%TO.C,U3*%
X186690095Y-110504380D02*
X186690095Y-111313904D01*
X186737714Y-111409142D01*
X186785333Y-111456761D01*
X186880571Y-111504380D01*
X187071047Y-111504380D01*
X187166285Y-111456761D01*
X187213904Y-111409142D01*
X187261523Y-111313904D01*
X187261523Y-110504380D01*
X187642476Y-110504380D02*
X188261523Y-110504380D01*
X187928190Y-110885333D01*
X188071047Y-110885333D01*
X188166285Y-110932952D01*
X188213904Y-110980571D01*
X188261523Y-111075809D01*
X188261523Y-111313904D01*
X188213904Y-111409142D01*
X188166285Y-111456761D01*
X188071047Y-111504380D01*
X187785333Y-111504380D01*
X187690095Y-111456761D01*
X187642476Y-111409142D01*
%TO.C,U2*%
X169926095Y-110504380D02*
X169926095Y-111313904D01*
X169973714Y-111409142D01*
X170021333Y-111456761D01*
X170116571Y-111504380D01*
X170307047Y-111504380D01*
X170402285Y-111456761D01*
X170449904Y-111409142D01*
X170497523Y-111313904D01*
X170497523Y-110504380D01*
X170926095Y-110599619D02*
X170973714Y-110552000D01*
X171068952Y-110504380D01*
X171307047Y-110504380D01*
X171402285Y-110552000D01*
X171449904Y-110599619D01*
X171497523Y-110694857D01*
X171497523Y-110790095D01*
X171449904Y-110932952D01*
X170878476Y-111504380D01*
X171497523Y-111504380D01*
%TO.C,U1*%
X170434095Y-106640380D02*
X170434095Y-107449904D01*
X170481714Y-107545142D01*
X170529333Y-107592761D01*
X170624571Y-107640380D01*
X170815047Y-107640380D01*
X170910285Y-107592761D01*
X170957904Y-107545142D01*
X171005523Y-107449904D01*
X171005523Y-106640380D01*
X172005523Y-107640380D02*
X171434095Y-107640380D01*
X171719809Y-107640380D02*
X171719809Y-106640380D01*
X171624571Y-106783238D01*
X171529333Y-106878476D01*
X171434095Y-106926095D01*
%TO.C,S3*%
X204470095Y-150264761D02*
X204612952Y-150312380D01*
X204851047Y-150312380D01*
X204946285Y-150264761D01*
X204993904Y-150217142D01*
X205041523Y-150121904D01*
X205041523Y-150026666D01*
X204993904Y-149931428D01*
X204946285Y-149883809D01*
X204851047Y-149836190D01*
X204660571Y-149788571D01*
X204565333Y-149740952D01*
X204517714Y-149693333D01*
X204470095Y-149598095D01*
X204470095Y-149502857D01*
X204517714Y-149407619D01*
X204565333Y-149360000D01*
X204660571Y-149312380D01*
X204898666Y-149312380D01*
X205041523Y-149360000D01*
X205374857Y-149312380D02*
X205993904Y-149312380D01*
X205660571Y-149693333D01*
X205803428Y-149693333D01*
X205898666Y-149740952D01*
X205946285Y-149788571D01*
X205993904Y-149883809D01*
X205993904Y-150121904D01*
X205946285Y-150217142D01*
X205898666Y-150264761D01*
X205803428Y-150312380D01*
X205517714Y-150312380D01*
X205422476Y-150264761D01*
X205374857Y-150217142D01*
%TO.C,S2*%
X200406095Y-150264761D02*
X200548952Y-150312380D01*
X200787047Y-150312380D01*
X200882285Y-150264761D01*
X200929904Y-150217142D01*
X200977523Y-150121904D01*
X200977523Y-150026666D01*
X200929904Y-149931428D01*
X200882285Y-149883809D01*
X200787047Y-149836190D01*
X200596571Y-149788571D01*
X200501333Y-149740952D01*
X200453714Y-149693333D01*
X200406095Y-149598095D01*
X200406095Y-149502857D01*
X200453714Y-149407619D01*
X200501333Y-149360000D01*
X200596571Y-149312380D01*
X200834666Y-149312380D01*
X200977523Y-149360000D01*
X201358476Y-149407619D02*
X201406095Y-149360000D01*
X201501333Y-149312380D01*
X201739428Y-149312380D01*
X201834666Y-149360000D01*
X201882285Y-149407619D01*
X201929904Y-149502857D01*
X201929904Y-149598095D01*
X201882285Y-149740952D01*
X201310857Y-150312380D01*
X201929904Y-150312380D01*
%TO.C,S1*%
X196342095Y-150264761D02*
X196484952Y-150312380D01*
X196723047Y-150312380D01*
X196818285Y-150264761D01*
X196865904Y-150217142D01*
X196913523Y-150121904D01*
X196913523Y-150026666D01*
X196865904Y-149931428D01*
X196818285Y-149883809D01*
X196723047Y-149836190D01*
X196532571Y-149788571D01*
X196437333Y-149740952D01*
X196389714Y-149693333D01*
X196342095Y-149598095D01*
X196342095Y-149502857D01*
X196389714Y-149407619D01*
X196437333Y-149360000D01*
X196532571Y-149312380D01*
X196770666Y-149312380D01*
X196913523Y-149360000D01*
X197865904Y-150312380D02*
X197294476Y-150312380D01*
X197580190Y-150312380D02*
X197580190Y-149312380D01*
X197484952Y-149455238D01*
X197389714Y-149550476D01*
X197294476Y-149598095D01*
%TO.C,VApp1*%
X190008142Y-148931380D02*
X190341476Y-149931380D01*
X190674809Y-148931380D01*
X190960523Y-149645666D02*
X191436714Y-149645666D01*
X190865285Y-149931380D02*
X191198619Y-148931380D01*
X191531952Y-149931380D01*
X191865285Y-149264714D02*
X191865285Y-150264714D01*
X191865285Y-149312333D02*
X191960523Y-149264714D01*
X192151000Y-149264714D01*
X192246238Y-149312333D01*
X192293857Y-149359952D01*
X192341476Y-149455190D01*
X192341476Y-149740904D01*
X192293857Y-149836142D01*
X192246238Y-149883761D01*
X192151000Y-149931380D01*
X191960523Y-149931380D01*
X191865285Y-149883761D01*
X192770047Y-149264714D02*
X192770047Y-150264714D01*
X192770047Y-149312333D02*
X192865285Y-149264714D01*
X193055761Y-149264714D01*
X193151000Y-149312333D01*
X193198619Y-149359952D01*
X193246238Y-149455190D01*
X193246238Y-149740904D01*
X193198619Y-149836142D01*
X193151000Y-149883761D01*
X193055761Y-149931380D01*
X192865285Y-149931380D01*
X192770047Y-149883761D01*
X194198619Y-149931380D02*
X193627190Y-149931380D01*
X193912904Y-149931380D02*
X193912904Y-148931380D01*
X193817666Y-149074238D01*
X193722428Y-149169476D01*
X193627190Y-149217095D01*
%TO.C,VBrk1*%
X183269190Y-148931380D02*
X183602523Y-149931380D01*
X183935857Y-148931380D01*
X184602523Y-149407571D02*
X184745380Y-149455190D01*
X184793000Y-149502809D01*
X184840619Y-149598047D01*
X184840619Y-149740904D01*
X184793000Y-149836142D01*
X184745380Y-149883761D01*
X184650142Y-149931380D01*
X184269190Y-149931380D01*
X184269190Y-148931380D01*
X184602523Y-148931380D01*
X184697761Y-148979000D01*
X184745380Y-149026619D01*
X184793000Y-149121857D01*
X184793000Y-149217095D01*
X184745380Y-149312333D01*
X184697761Y-149359952D01*
X184602523Y-149407571D01*
X184269190Y-149407571D01*
X185269190Y-149931380D02*
X185269190Y-149264714D01*
X185269190Y-149455190D02*
X185316809Y-149359952D01*
X185364428Y-149312333D01*
X185459666Y-149264714D01*
X185554904Y-149264714D01*
X185888238Y-149931380D02*
X185888238Y-148931380D01*
X185983476Y-149550428D02*
X186269190Y-149931380D01*
X186269190Y-149264714D02*
X185888238Y-149645666D01*
X187221571Y-149931380D02*
X186650142Y-149931380D01*
X186935857Y-149931380D02*
X186935857Y-148931380D01*
X186840619Y-149074238D01*
X186745380Y-149169476D01*
X186650142Y-149217095D01*
%TO.C,V0.5*%
X162052190Y-149058380D02*
X162385523Y-150058380D01*
X162718857Y-149058380D01*
X163242666Y-149058380D02*
X163337904Y-149058380D01*
X163433142Y-149106000D01*
X163480761Y-149153619D01*
X163528380Y-149248857D01*
X163576000Y-149439333D01*
X163576000Y-149677428D01*
X163528380Y-149867904D01*
X163480761Y-149963142D01*
X163433142Y-150010761D01*
X163337904Y-150058380D01*
X163242666Y-150058380D01*
X163147428Y-150010761D01*
X163099809Y-149963142D01*
X163052190Y-149867904D01*
X163004571Y-149677428D01*
X163004571Y-149439333D01*
X163052190Y-149248857D01*
X163099809Y-149153619D01*
X163147428Y-149106000D01*
X163242666Y-149058380D01*
X164004571Y-149963142D02*
X164052190Y-150010761D01*
X164004571Y-150058380D01*
X163956952Y-150010761D01*
X164004571Y-149963142D01*
X164004571Y-150058380D01*
X164956952Y-149058380D02*
X164480761Y-149058380D01*
X164433142Y-149534571D01*
X164480761Y-149486952D01*
X164576000Y-149439333D01*
X164814095Y-149439333D01*
X164909333Y-149486952D01*
X164956952Y-149534571D01*
X165004571Y-149629809D01*
X165004571Y-149867904D01*
X164956952Y-149963142D01*
X164909333Y-150010761D01*
X164814095Y-150058380D01*
X164576000Y-150058380D01*
X164480761Y-150010761D01*
X164433142Y-149963142D01*
%TO.C,V4.5*%
X169672190Y-149058380D02*
X170005523Y-150058380D01*
X170338857Y-149058380D01*
X171100761Y-149391714D02*
X171100761Y-150058380D01*
X170862666Y-149010761D02*
X170624571Y-149725047D01*
X171243619Y-149725047D01*
X171624571Y-149963142D02*
X171672190Y-150010761D01*
X171624571Y-150058380D01*
X171576952Y-150010761D01*
X171624571Y-149963142D01*
X171624571Y-150058380D01*
X172576952Y-149058380D02*
X172100761Y-149058380D01*
X172053142Y-149534571D01*
X172100761Y-149486952D01*
X172196000Y-149439333D01*
X172434095Y-149439333D01*
X172529333Y-149486952D01*
X172576952Y-149534571D01*
X172624571Y-149629809D01*
X172624571Y-149867904D01*
X172576952Y-149963142D01*
X172529333Y-150010761D01*
X172434095Y-150058380D01*
X172196000Y-150058380D01*
X172100761Y-150010761D01*
X172053142Y-149963142D01*
%TO.C,VC1*%
X177506476Y-149058380D02*
X177839809Y-150058380D01*
X178173142Y-149058380D01*
X179077904Y-149963142D02*
X179030285Y-150010761D01*
X178887428Y-150058380D01*
X178792190Y-150058380D01*
X178649333Y-150010761D01*
X178554095Y-149915523D01*
X178506476Y-149820285D01*
X178458857Y-149629809D01*
X178458857Y-149486952D01*
X178506476Y-149296476D01*
X178554095Y-149201238D01*
X178649333Y-149106000D01*
X178792190Y-149058380D01*
X178887428Y-149058380D01*
X179030285Y-149106000D01*
X179077904Y-149153619D01*
X180030285Y-150058380D02*
X179458857Y-150058380D01*
X179744571Y-150058380D02*
X179744571Y-149058380D01*
X179649333Y-149201238D01*
X179554095Y-149296476D01*
X179458857Y-149344095D01*
%TO.C,VT2*%
X232751380Y-138045676D02*
X233751380Y-137712342D01*
X232751380Y-137379009D01*
X232751380Y-137188533D02*
X232751380Y-136617104D01*
X233751380Y-136902819D02*
X232751380Y-136902819D01*
X232846619Y-136331390D02*
X232799000Y-136283771D01*
X232751380Y-136188533D01*
X232751380Y-135950438D01*
X232799000Y-135855200D01*
X232846619Y-135807580D01*
X232941857Y-135759961D01*
X233037095Y-135759961D01*
X233179952Y-135807580D01*
X233751380Y-136379009D01*
X233751380Y-135759961D01*
%TO.C,VT1*%
X227290380Y-122348476D02*
X228290380Y-122015142D01*
X227290380Y-121681809D01*
X227290380Y-121491333D02*
X227290380Y-120919904D01*
X228290380Y-121205619D02*
X227290380Y-121205619D01*
X228290380Y-120062761D02*
X228290380Y-120634190D01*
X228290380Y-120348476D02*
X227290380Y-120348476D01*
X227433238Y-120443714D01*
X227528476Y-120538952D01*
X227576095Y-120634190D01*
%TO.C,R54*%
X179697142Y-133040380D02*
X179363809Y-132564190D01*
X179125714Y-133040380D02*
X179125714Y-132040380D01*
X179506666Y-132040380D01*
X179601904Y-132088000D01*
X179649523Y-132135619D01*
X179697142Y-132230857D01*
X179697142Y-132373714D01*
X179649523Y-132468952D01*
X179601904Y-132516571D01*
X179506666Y-132564190D01*
X179125714Y-132564190D01*
X180601904Y-132040380D02*
X180125714Y-132040380D01*
X180078095Y-132516571D01*
X180125714Y-132468952D01*
X180220952Y-132421333D01*
X180459047Y-132421333D01*
X180554285Y-132468952D01*
X180601904Y-132516571D01*
X180649523Y-132611809D01*
X180649523Y-132849904D01*
X180601904Y-132945142D01*
X180554285Y-132992761D01*
X180459047Y-133040380D01*
X180220952Y-133040380D01*
X180125714Y-132992761D01*
X180078095Y-132945142D01*
X181506666Y-132373714D02*
X181506666Y-133040380D01*
X181268571Y-131992761D02*
X181030476Y-132707047D01*
X181649523Y-132707047D01*
%TO.C,R55*%
X191889142Y-123642380D02*
X191555809Y-123166190D01*
X191317714Y-123642380D02*
X191317714Y-122642380D01*
X191698666Y-122642380D01*
X191793904Y-122690000D01*
X191841523Y-122737619D01*
X191889142Y-122832857D01*
X191889142Y-122975714D01*
X191841523Y-123070952D01*
X191793904Y-123118571D01*
X191698666Y-123166190D01*
X191317714Y-123166190D01*
X192793904Y-122642380D02*
X192317714Y-122642380D01*
X192270095Y-123118571D01*
X192317714Y-123070952D01*
X192412952Y-123023333D01*
X192651047Y-123023333D01*
X192746285Y-123070952D01*
X192793904Y-123118571D01*
X192841523Y-123213809D01*
X192841523Y-123451904D01*
X192793904Y-123547142D01*
X192746285Y-123594761D01*
X192651047Y-123642380D01*
X192412952Y-123642380D01*
X192317714Y-123594761D01*
X192270095Y-123547142D01*
X193746285Y-122642380D02*
X193270095Y-122642380D01*
X193222476Y-123118571D01*
X193270095Y-123070952D01*
X193365333Y-123023333D01*
X193603428Y-123023333D01*
X193698666Y-123070952D01*
X193746285Y-123118571D01*
X193793904Y-123213809D01*
X193793904Y-123451904D01*
X193746285Y-123547142D01*
X193698666Y-123594761D01*
X193603428Y-123642380D01*
X193365333Y-123642380D01*
X193270095Y-123594761D01*
X193222476Y-123547142D01*
%TO.C,R94*%
X197477142Y-140152380D02*
X197143809Y-139676190D01*
X196905714Y-140152380D02*
X196905714Y-139152380D01*
X197286666Y-139152380D01*
X197381904Y-139200000D01*
X197429523Y-139247619D01*
X197477142Y-139342857D01*
X197477142Y-139485714D01*
X197429523Y-139580952D01*
X197381904Y-139628571D01*
X197286666Y-139676190D01*
X196905714Y-139676190D01*
X197953333Y-140152380D02*
X198143809Y-140152380D01*
X198239047Y-140104761D01*
X198286666Y-140057142D01*
X198381904Y-139914285D01*
X198429523Y-139723809D01*
X198429523Y-139342857D01*
X198381904Y-139247619D01*
X198334285Y-139200000D01*
X198239047Y-139152380D01*
X198048571Y-139152380D01*
X197953333Y-139200000D01*
X197905714Y-139247619D01*
X197858095Y-139342857D01*
X197858095Y-139580952D01*
X197905714Y-139676190D01*
X197953333Y-139723809D01*
X198048571Y-139771428D01*
X198239047Y-139771428D01*
X198334285Y-139723809D01*
X198381904Y-139676190D01*
X198429523Y-139580952D01*
X199286666Y-139485714D02*
X199286666Y-140152380D01*
X199048571Y-139104761D02*
X198810476Y-139819047D01*
X199429523Y-139819047D01*
%TO.C,R53*%
X162171142Y-137358380D02*
X161837809Y-136882190D01*
X161599714Y-137358380D02*
X161599714Y-136358380D01*
X161980666Y-136358380D01*
X162075904Y-136406000D01*
X162123523Y-136453619D01*
X162171142Y-136548857D01*
X162171142Y-136691714D01*
X162123523Y-136786952D01*
X162075904Y-136834571D01*
X161980666Y-136882190D01*
X161599714Y-136882190D01*
X163075904Y-136358380D02*
X162599714Y-136358380D01*
X162552095Y-136834571D01*
X162599714Y-136786952D01*
X162694952Y-136739333D01*
X162933047Y-136739333D01*
X163028285Y-136786952D01*
X163075904Y-136834571D01*
X163123523Y-136929809D01*
X163123523Y-137167904D01*
X163075904Y-137263142D01*
X163028285Y-137310761D01*
X162933047Y-137358380D01*
X162694952Y-137358380D01*
X162599714Y-137310761D01*
X162552095Y-137263142D01*
X163456857Y-136358380D02*
X164075904Y-136358380D01*
X163742571Y-136739333D01*
X163885428Y-136739333D01*
X163980666Y-136786952D01*
X164028285Y-136834571D01*
X164075904Y-136929809D01*
X164075904Y-137167904D01*
X164028285Y-137263142D01*
X163980666Y-137310761D01*
X163885428Y-137358380D01*
X163599714Y-137358380D01*
X163504476Y-137310761D01*
X163456857Y-137263142D01*
%TO.C,R92*%
X210611980Y-132976857D02*
X210135790Y-133310190D01*
X210611980Y-133548285D02*
X209611980Y-133548285D01*
X209611980Y-133167333D01*
X209659600Y-133072095D01*
X209707219Y-133024476D01*
X209802457Y-132976857D01*
X209945314Y-132976857D01*
X210040552Y-133024476D01*
X210088171Y-133072095D01*
X210135790Y-133167333D01*
X210135790Y-133548285D01*
X210611980Y-132500666D02*
X210611980Y-132310190D01*
X210564361Y-132214952D01*
X210516742Y-132167333D01*
X210373885Y-132072095D01*
X210183409Y-132024476D01*
X209802457Y-132024476D01*
X209707219Y-132072095D01*
X209659600Y-132119714D01*
X209611980Y-132214952D01*
X209611980Y-132405428D01*
X209659600Y-132500666D01*
X209707219Y-132548285D01*
X209802457Y-132595904D01*
X210040552Y-132595904D01*
X210135790Y-132548285D01*
X210183409Y-132500666D01*
X210231028Y-132405428D01*
X210231028Y-132214952D01*
X210183409Y-132119714D01*
X210135790Y-132072095D01*
X210040552Y-132024476D01*
X209707219Y-131643523D02*
X209659600Y-131595904D01*
X209611980Y-131500666D01*
X209611980Y-131262571D01*
X209659600Y-131167333D01*
X209707219Y-131119714D01*
X209802457Y-131072095D01*
X209897695Y-131072095D01*
X210040552Y-131119714D01*
X210611980Y-131691142D01*
X210611980Y-131072095D01*
%TO.C,R91*%
X197985142Y-144724380D02*
X197651809Y-144248190D01*
X197413714Y-144724380D02*
X197413714Y-143724380D01*
X197794666Y-143724380D01*
X197889904Y-143772000D01*
X197937523Y-143819619D01*
X197985142Y-143914857D01*
X197985142Y-144057714D01*
X197937523Y-144152952D01*
X197889904Y-144200571D01*
X197794666Y-144248190D01*
X197413714Y-144248190D01*
X198461333Y-144724380D02*
X198651809Y-144724380D01*
X198747047Y-144676761D01*
X198794666Y-144629142D01*
X198889904Y-144486285D01*
X198937523Y-144295809D01*
X198937523Y-143914857D01*
X198889904Y-143819619D01*
X198842285Y-143772000D01*
X198747047Y-143724380D01*
X198556571Y-143724380D01*
X198461333Y-143772000D01*
X198413714Y-143819619D01*
X198366095Y-143914857D01*
X198366095Y-144152952D01*
X198413714Y-144248190D01*
X198461333Y-144295809D01*
X198556571Y-144343428D01*
X198747047Y-144343428D01*
X198842285Y-144295809D01*
X198889904Y-144248190D01*
X198937523Y-144152952D01*
X199889904Y-144724380D02*
X199318476Y-144724380D01*
X199604190Y-144724380D02*
X199604190Y-143724380D01*
X199508952Y-143867238D01*
X199413714Y-143962476D01*
X199318476Y-144010095D01*
%TO.C,R51*%
X161996380Y-133230857D02*
X161520190Y-133564190D01*
X161996380Y-133802285D02*
X160996380Y-133802285D01*
X160996380Y-133421333D01*
X161044000Y-133326095D01*
X161091619Y-133278476D01*
X161186857Y-133230857D01*
X161329714Y-133230857D01*
X161424952Y-133278476D01*
X161472571Y-133326095D01*
X161520190Y-133421333D01*
X161520190Y-133802285D01*
X160996380Y-132326095D02*
X160996380Y-132802285D01*
X161472571Y-132849904D01*
X161424952Y-132802285D01*
X161377333Y-132707047D01*
X161377333Y-132468952D01*
X161424952Y-132373714D01*
X161472571Y-132326095D01*
X161567809Y-132278476D01*
X161805904Y-132278476D01*
X161901142Y-132326095D01*
X161948761Y-132373714D01*
X161996380Y-132468952D01*
X161996380Y-132707047D01*
X161948761Y-132802285D01*
X161901142Y-132849904D01*
X161996380Y-131326095D02*
X161996380Y-131897523D01*
X161996380Y-131611809D02*
X160996380Y-131611809D01*
X161139238Y-131707047D01*
X161234476Y-131802285D01*
X161282095Y-131897523D01*
%TO.C,R103*%
X213256952Y-104592380D02*
X212923619Y-104116190D01*
X212685523Y-104592380D02*
X212685523Y-103592380D01*
X213066476Y-103592380D01*
X213161714Y-103640000D01*
X213209333Y-103687619D01*
X213256952Y-103782857D01*
X213256952Y-103925714D01*
X213209333Y-104020952D01*
X213161714Y-104068571D01*
X213066476Y-104116190D01*
X212685523Y-104116190D01*
X214209333Y-104592380D02*
X213637904Y-104592380D01*
X213923619Y-104592380D02*
X213923619Y-103592380D01*
X213828380Y-103735238D01*
X213733142Y-103830476D01*
X213637904Y-103878095D01*
X214828380Y-103592380D02*
X214923619Y-103592380D01*
X215018857Y-103640000D01*
X215066476Y-103687619D01*
X215114095Y-103782857D01*
X215161714Y-103973333D01*
X215161714Y-104211428D01*
X215114095Y-104401904D01*
X215066476Y-104497142D01*
X215018857Y-104544761D01*
X214923619Y-104592380D01*
X214828380Y-104592380D01*
X214733142Y-104544761D01*
X214685523Y-104497142D01*
X214637904Y-104401904D01*
X214590285Y-104211428D01*
X214590285Y-103973333D01*
X214637904Y-103782857D01*
X214685523Y-103687619D01*
X214733142Y-103640000D01*
X214828380Y-103592380D01*
X215495047Y-103592380D02*
X216114095Y-103592380D01*
X215780761Y-103973333D01*
X215923619Y-103973333D01*
X216018857Y-104020952D01*
X216066476Y-104068571D01*
X216114095Y-104163809D01*
X216114095Y-104401904D01*
X216066476Y-104497142D01*
X216018857Y-104544761D01*
X215923619Y-104592380D01*
X215637904Y-104592380D01*
X215542666Y-104544761D01*
X215495047Y-104497142D01*
%TO.C,R102*%
X213256952Y-103068380D02*
X212923619Y-102592190D01*
X212685523Y-103068380D02*
X212685523Y-102068380D01*
X213066476Y-102068380D01*
X213161714Y-102116000D01*
X213209333Y-102163619D01*
X213256952Y-102258857D01*
X213256952Y-102401714D01*
X213209333Y-102496952D01*
X213161714Y-102544571D01*
X213066476Y-102592190D01*
X212685523Y-102592190D01*
X214209333Y-103068380D02*
X213637904Y-103068380D01*
X213923619Y-103068380D02*
X213923619Y-102068380D01*
X213828380Y-102211238D01*
X213733142Y-102306476D01*
X213637904Y-102354095D01*
X214828380Y-102068380D02*
X214923619Y-102068380D01*
X215018857Y-102116000D01*
X215066476Y-102163619D01*
X215114095Y-102258857D01*
X215161714Y-102449333D01*
X215161714Y-102687428D01*
X215114095Y-102877904D01*
X215066476Y-102973142D01*
X215018857Y-103020761D01*
X214923619Y-103068380D01*
X214828380Y-103068380D01*
X214733142Y-103020761D01*
X214685523Y-102973142D01*
X214637904Y-102877904D01*
X214590285Y-102687428D01*
X214590285Y-102449333D01*
X214637904Y-102258857D01*
X214685523Y-102163619D01*
X214733142Y-102116000D01*
X214828380Y-102068380D01*
X215542666Y-102163619D02*
X215590285Y-102116000D01*
X215685523Y-102068380D01*
X215923619Y-102068380D01*
X216018857Y-102116000D01*
X216066476Y-102163619D01*
X216114095Y-102258857D01*
X216114095Y-102354095D01*
X216066476Y-102496952D01*
X215495047Y-103068380D01*
X216114095Y-103068380D01*
%TO.C,R84*%
X202049142Y-124912380D02*
X201715809Y-124436190D01*
X201477714Y-124912380D02*
X201477714Y-123912380D01*
X201858666Y-123912380D01*
X201953904Y-123960000D01*
X202001523Y-124007619D01*
X202049142Y-124102857D01*
X202049142Y-124245714D01*
X202001523Y-124340952D01*
X201953904Y-124388571D01*
X201858666Y-124436190D01*
X201477714Y-124436190D01*
X202620571Y-124340952D02*
X202525333Y-124293333D01*
X202477714Y-124245714D01*
X202430095Y-124150476D01*
X202430095Y-124102857D01*
X202477714Y-124007619D01*
X202525333Y-123960000D01*
X202620571Y-123912380D01*
X202811047Y-123912380D01*
X202906285Y-123960000D01*
X202953904Y-124007619D01*
X203001523Y-124102857D01*
X203001523Y-124150476D01*
X202953904Y-124245714D01*
X202906285Y-124293333D01*
X202811047Y-124340952D01*
X202620571Y-124340952D01*
X202525333Y-124388571D01*
X202477714Y-124436190D01*
X202430095Y-124531428D01*
X202430095Y-124721904D01*
X202477714Y-124817142D01*
X202525333Y-124864761D01*
X202620571Y-124912380D01*
X202811047Y-124912380D01*
X202906285Y-124864761D01*
X202953904Y-124817142D01*
X203001523Y-124721904D01*
X203001523Y-124531428D01*
X202953904Y-124436190D01*
X202906285Y-124388571D01*
X202811047Y-124340952D01*
X203858666Y-124245714D02*
X203858666Y-124912380D01*
X203620571Y-123864761D02*
X203382476Y-124579047D01*
X204001523Y-124579047D01*
%TO.C,R44*%
X181221142Y-112974380D02*
X180887809Y-112498190D01*
X180649714Y-112974380D02*
X180649714Y-111974380D01*
X181030666Y-111974380D01*
X181125904Y-112022000D01*
X181173523Y-112069619D01*
X181221142Y-112164857D01*
X181221142Y-112307714D01*
X181173523Y-112402952D01*
X181125904Y-112450571D01*
X181030666Y-112498190D01*
X180649714Y-112498190D01*
X182078285Y-112307714D02*
X182078285Y-112974380D01*
X181840190Y-111926761D02*
X181602095Y-112641047D01*
X182221142Y-112641047D01*
X183030666Y-112307714D02*
X183030666Y-112974380D01*
X182792571Y-111926761D02*
X182554476Y-112641047D01*
X183173523Y-112641047D01*
%TO.C,R82*%
X216352380Y-123070857D02*
X215876190Y-123404190D01*
X216352380Y-123642285D02*
X215352380Y-123642285D01*
X215352380Y-123261333D01*
X215400000Y-123166095D01*
X215447619Y-123118476D01*
X215542857Y-123070857D01*
X215685714Y-123070857D01*
X215780952Y-123118476D01*
X215828571Y-123166095D01*
X215876190Y-123261333D01*
X215876190Y-123642285D01*
X215780952Y-122499428D02*
X215733333Y-122594666D01*
X215685714Y-122642285D01*
X215590476Y-122689904D01*
X215542857Y-122689904D01*
X215447619Y-122642285D01*
X215400000Y-122594666D01*
X215352380Y-122499428D01*
X215352380Y-122308952D01*
X215400000Y-122213714D01*
X215447619Y-122166095D01*
X215542857Y-122118476D01*
X215590476Y-122118476D01*
X215685714Y-122166095D01*
X215733333Y-122213714D01*
X215780952Y-122308952D01*
X215780952Y-122499428D01*
X215828571Y-122594666D01*
X215876190Y-122642285D01*
X215971428Y-122689904D01*
X216161904Y-122689904D01*
X216257142Y-122642285D01*
X216304761Y-122594666D01*
X216352380Y-122499428D01*
X216352380Y-122308952D01*
X216304761Y-122213714D01*
X216257142Y-122166095D01*
X216161904Y-122118476D01*
X215971428Y-122118476D01*
X215876190Y-122166095D01*
X215828571Y-122213714D01*
X215780952Y-122308952D01*
X215447619Y-121737523D02*
X215400000Y-121689904D01*
X215352380Y-121594666D01*
X215352380Y-121356571D01*
X215400000Y-121261333D01*
X215447619Y-121213714D01*
X215542857Y-121166095D01*
X215638095Y-121166095D01*
X215780952Y-121213714D01*
X216352380Y-121785142D01*
X216352380Y-121166095D01*
%TO.C,R81*%
X202049142Y-128976380D02*
X201715809Y-128500190D01*
X201477714Y-128976380D02*
X201477714Y-127976380D01*
X201858666Y-127976380D01*
X201953904Y-128024000D01*
X202001523Y-128071619D01*
X202049142Y-128166857D01*
X202049142Y-128309714D01*
X202001523Y-128404952D01*
X201953904Y-128452571D01*
X201858666Y-128500190D01*
X201477714Y-128500190D01*
X202620571Y-128404952D02*
X202525333Y-128357333D01*
X202477714Y-128309714D01*
X202430095Y-128214476D01*
X202430095Y-128166857D01*
X202477714Y-128071619D01*
X202525333Y-128024000D01*
X202620571Y-127976380D01*
X202811047Y-127976380D01*
X202906285Y-128024000D01*
X202953904Y-128071619D01*
X203001523Y-128166857D01*
X203001523Y-128214476D01*
X202953904Y-128309714D01*
X202906285Y-128357333D01*
X202811047Y-128404952D01*
X202620571Y-128404952D01*
X202525333Y-128452571D01*
X202477714Y-128500190D01*
X202430095Y-128595428D01*
X202430095Y-128785904D01*
X202477714Y-128881142D01*
X202525333Y-128928761D01*
X202620571Y-128976380D01*
X202811047Y-128976380D01*
X202906285Y-128928761D01*
X202953904Y-128881142D01*
X203001523Y-128785904D01*
X203001523Y-128595428D01*
X202953904Y-128500190D01*
X202906285Y-128452571D01*
X202811047Y-128404952D01*
X203953904Y-128976380D02*
X203382476Y-128976380D01*
X203668190Y-128976380D02*
X203668190Y-127976380D01*
X203572952Y-128119238D01*
X203477714Y-128214476D01*
X203382476Y-128262095D01*
%TO.C,R45*%
X191889142Y-122372380D02*
X191555809Y-121896190D01*
X191317714Y-122372380D02*
X191317714Y-121372380D01*
X191698666Y-121372380D01*
X191793904Y-121420000D01*
X191841523Y-121467619D01*
X191889142Y-121562857D01*
X191889142Y-121705714D01*
X191841523Y-121800952D01*
X191793904Y-121848571D01*
X191698666Y-121896190D01*
X191317714Y-121896190D01*
X192746285Y-121705714D02*
X192746285Y-122372380D01*
X192508190Y-121324761D02*
X192270095Y-122039047D01*
X192889142Y-122039047D01*
X193746285Y-121372380D02*
X193270095Y-121372380D01*
X193222476Y-121848571D01*
X193270095Y-121800952D01*
X193365333Y-121753333D01*
X193603428Y-121753333D01*
X193698666Y-121800952D01*
X193746285Y-121848571D01*
X193793904Y-121943809D01*
X193793904Y-122181904D01*
X193746285Y-122277142D01*
X193698666Y-122324761D01*
X193603428Y-122372380D01*
X193365333Y-122372380D01*
X193270095Y-122324761D01*
X193222476Y-122277142D01*
%TO.C,R101*%
X224940952Y-112466380D02*
X224607619Y-111990190D01*
X224369523Y-112466380D02*
X224369523Y-111466380D01*
X224750476Y-111466380D01*
X224845714Y-111514000D01*
X224893333Y-111561619D01*
X224940952Y-111656857D01*
X224940952Y-111799714D01*
X224893333Y-111894952D01*
X224845714Y-111942571D01*
X224750476Y-111990190D01*
X224369523Y-111990190D01*
X225893333Y-112466380D02*
X225321904Y-112466380D01*
X225607619Y-112466380D02*
X225607619Y-111466380D01*
X225512380Y-111609238D01*
X225417142Y-111704476D01*
X225321904Y-111752095D01*
X226512380Y-111466380D02*
X226607619Y-111466380D01*
X226702857Y-111514000D01*
X226750476Y-111561619D01*
X226798095Y-111656857D01*
X226845714Y-111847333D01*
X226845714Y-112085428D01*
X226798095Y-112275904D01*
X226750476Y-112371142D01*
X226702857Y-112418761D01*
X226607619Y-112466380D01*
X226512380Y-112466380D01*
X226417142Y-112418761D01*
X226369523Y-112371142D01*
X226321904Y-112275904D01*
X226274285Y-112085428D01*
X226274285Y-111847333D01*
X226321904Y-111656857D01*
X226369523Y-111561619D01*
X226417142Y-111514000D01*
X226512380Y-111466380D01*
X227798095Y-112466380D02*
X227226666Y-112466380D01*
X227512380Y-112466380D02*
X227512380Y-111466380D01*
X227417142Y-111609238D01*
X227321904Y-111704476D01*
X227226666Y-111752095D01*
%TO.C,R43*%
X162933142Y-121356380D02*
X162599809Y-120880190D01*
X162361714Y-121356380D02*
X162361714Y-120356380D01*
X162742666Y-120356380D01*
X162837904Y-120404000D01*
X162885523Y-120451619D01*
X162933142Y-120546857D01*
X162933142Y-120689714D01*
X162885523Y-120784952D01*
X162837904Y-120832571D01*
X162742666Y-120880190D01*
X162361714Y-120880190D01*
X163790285Y-120689714D02*
X163790285Y-121356380D01*
X163552190Y-120308761D02*
X163314095Y-121023047D01*
X163933142Y-121023047D01*
X164218857Y-120356380D02*
X164837904Y-120356380D01*
X164504571Y-120737333D01*
X164647428Y-120737333D01*
X164742666Y-120784952D01*
X164790285Y-120832571D01*
X164837904Y-120927809D01*
X164837904Y-121165904D01*
X164790285Y-121261142D01*
X164742666Y-121308761D01*
X164647428Y-121356380D01*
X164361714Y-121356380D01*
X164266476Y-121308761D01*
X164218857Y-121261142D01*
%TO.C,R31*%
X181729142Y-111450380D02*
X181395809Y-110974190D01*
X181157714Y-111450380D02*
X181157714Y-110450380D01*
X181538666Y-110450380D01*
X181633904Y-110498000D01*
X181681523Y-110545619D01*
X181729142Y-110640857D01*
X181729142Y-110783714D01*
X181681523Y-110878952D01*
X181633904Y-110926571D01*
X181538666Y-110974190D01*
X181157714Y-110974190D01*
X182062476Y-110450380D02*
X182681523Y-110450380D01*
X182348190Y-110831333D01*
X182491047Y-110831333D01*
X182586285Y-110878952D01*
X182633904Y-110926571D01*
X182681523Y-111021809D01*
X182681523Y-111259904D01*
X182633904Y-111355142D01*
X182586285Y-111402761D01*
X182491047Y-111450380D01*
X182205333Y-111450380D01*
X182110095Y-111402761D01*
X182062476Y-111355142D01*
X183633904Y-111450380D02*
X183062476Y-111450380D01*
X183348190Y-111450380D02*
X183348190Y-110450380D01*
X183252952Y-110593238D01*
X183157714Y-110688476D01*
X183062476Y-110736095D01*
%TO.C,R42*%
X162679142Y-116784380D02*
X162345809Y-116308190D01*
X162107714Y-116784380D02*
X162107714Y-115784380D01*
X162488666Y-115784380D01*
X162583904Y-115832000D01*
X162631523Y-115879619D01*
X162679142Y-115974857D01*
X162679142Y-116117714D01*
X162631523Y-116212952D01*
X162583904Y-116260571D01*
X162488666Y-116308190D01*
X162107714Y-116308190D01*
X163536285Y-116117714D02*
X163536285Y-116784380D01*
X163298190Y-115736761D02*
X163060095Y-116451047D01*
X163679142Y-116451047D01*
X164012476Y-115879619D02*
X164060095Y-115832000D01*
X164155333Y-115784380D01*
X164393428Y-115784380D01*
X164488666Y-115832000D01*
X164536285Y-115879619D01*
X164583904Y-115974857D01*
X164583904Y-116070095D01*
X164536285Y-116212952D01*
X163964857Y-116784380D01*
X164583904Y-116784380D01*
%TO.C,R41*%
X161409142Y-128811880D02*
X161075809Y-128335690D01*
X160837714Y-128811880D02*
X160837714Y-127811880D01*
X161218666Y-127811880D01*
X161313904Y-127859500D01*
X161361523Y-127907119D01*
X161409142Y-128002357D01*
X161409142Y-128145214D01*
X161361523Y-128240452D01*
X161313904Y-128288071D01*
X161218666Y-128335690D01*
X160837714Y-128335690D01*
X162266285Y-128145214D02*
X162266285Y-128811880D01*
X162028190Y-127764261D02*
X161790095Y-128478547D01*
X162409142Y-128478547D01*
X163313904Y-128811880D02*
X162742476Y-128811880D01*
X163028190Y-128811880D02*
X163028190Y-127811880D01*
X162932952Y-127954738D01*
X162837714Y-128049976D01*
X162742476Y-128097595D01*
%TO.C,R72*%
X182110142Y-137358380D02*
X181776809Y-136882190D01*
X181538714Y-137358380D02*
X181538714Y-136358380D01*
X181919666Y-136358380D01*
X182014904Y-136406000D01*
X182062523Y-136453619D01*
X182110142Y-136548857D01*
X182110142Y-136691714D01*
X182062523Y-136786952D01*
X182014904Y-136834571D01*
X181919666Y-136882190D01*
X181538714Y-136882190D01*
X182443476Y-136358380D02*
X183110142Y-136358380D01*
X182681571Y-137358380D01*
X183443476Y-136453619D02*
X183491095Y-136406000D01*
X183586333Y-136358380D01*
X183824428Y-136358380D01*
X183919666Y-136406000D01*
X183967285Y-136453619D01*
X184014904Y-136548857D01*
X184014904Y-136644095D01*
X183967285Y-136786952D01*
X183395857Y-137358380D01*
X184014904Y-137358380D01*
%TO.C,R71*%
X181983142Y-122499380D02*
X181649809Y-122023190D01*
X181411714Y-122499380D02*
X181411714Y-121499380D01*
X181792666Y-121499380D01*
X181887904Y-121547000D01*
X181935523Y-121594619D01*
X181983142Y-121689857D01*
X181983142Y-121832714D01*
X181935523Y-121927952D01*
X181887904Y-121975571D01*
X181792666Y-122023190D01*
X181411714Y-122023190D01*
X182316476Y-121499380D02*
X182983142Y-121499380D01*
X182554571Y-122499380D01*
X183887904Y-122499380D02*
X183316476Y-122499380D01*
X183602190Y-122499380D02*
X183602190Y-121499380D01*
X183506952Y-121642238D01*
X183411714Y-121737476D01*
X183316476Y-121785095D01*
%TO.C,R76*%
X213987142Y-114244380D02*
X213653809Y-113768190D01*
X213415714Y-114244380D02*
X213415714Y-113244380D01*
X213796666Y-113244380D01*
X213891904Y-113292000D01*
X213939523Y-113339619D01*
X213987142Y-113434857D01*
X213987142Y-113577714D01*
X213939523Y-113672952D01*
X213891904Y-113720571D01*
X213796666Y-113768190D01*
X213415714Y-113768190D01*
X214320476Y-113244380D02*
X214987142Y-113244380D01*
X214558571Y-114244380D01*
X215796666Y-113244380D02*
X215606190Y-113244380D01*
X215510952Y-113292000D01*
X215463333Y-113339619D01*
X215368095Y-113482476D01*
X215320476Y-113672952D01*
X215320476Y-114053904D01*
X215368095Y-114149142D01*
X215415714Y-114196761D01*
X215510952Y-114244380D01*
X215701428Y-114244380D01*
X215796666Y-114196761D01*
X215844285Y-114149142D01*
X215891904Y-114053904D01*
X215891904Y-113815809D01*
X215844285Y-113720571D01*
X215796666Y-113672952D01*
X215701428Y-113625333D01*
X215510952Y-113625333D01*
X215415714Y-113672952D01*
X215368095Y-113720571D01*
X215320476Y-113815809D01*
%TO.C,R74*%
X192307642Y-138120380D02*
X191974309Y-137644190D01*
X191736214Y-138120380D02*
X191736214Y-137120380D01*
X192117166Y-137120380D01*
X192212404Y-137168000D01*
X192260023Y-137215619D01*
X192307642Y-137310857D01*
X192307642Y-137453714D01*
X192260023Y-137548952D01*
X192212404Y-137596571D01*
X192117166Y-137644190D01*
X191736214Y-137644190D01*
X192640976Y-137120380D02*
X193307642Y-137120380D01*
X192879071Y-138120380D01*
X194117166Y-137453714D02*
X194117166Y-138120380D01*
X193879071Y-137072761D02*
X193640976Y-137787047D01*
X194260023Y-137787047D01*
%TO.C,R75*%
X195624142Y-124404380D02*
X195290809Y-123928190D01*
X195052714Y-124404380D02*
X195052714Y-123404380D01*
X195433666Y-123404380D01*
X195528904Y-123452000D01*
X195576523Y-123499619D01*
X195624142Y-123594857D01*
X195624142Y-123737714D01*
X195576523Y-123832952D01*
X195528904Y-123880571D01*
X195433666Y-123928190D01*
X195052714Y-123928190D01*
X195957476Y-123404380D02*
X196624142Y-123404380D01*
X196195571Y-124404380D01*
X197481285Y-123404380D02*
X197005095Y-123404380D01*
X196957476Y-123880571D01*
X197005095Y-123832952D01*
X197100333Y-123785333D01*
X197338428Y-123785333D01*
X197433666Y-123832952D01*
X197481285Y-123880571D01*
X197528904Y-123975809D01*
X197528904Y-124213904D01*
X197481285Y-124309142D01*
X197433666Y-124356761D01*
X197338428Y-124404380D01*
X197100333Y-124404380D01*
X197005095Y-124356761D01*
X196957476Y-124309142D01*
%TO.C,R78*%
X213987142Y-112720380D02*
X213653809Y-112244190D01*
X213415714Y-112720380D02*
X213415714Y-111720380D01*
X213796666Y-111720380D01*
X213891904Y-111768000D01*
X213939523Y-111815619D01*
X213987142Y-111910857D01*
X213987142Y-112053714D01*
X213939523Y-112148952D01*
X213891904Y-112196571D01*
X213796666Y-112244190D01*
X213415714Y-112244190D01*
X214320476Y-111720380D02*
X214987142Y-111720380D01*
X214558571Y-112720380D01*
X215510952Y-112148952D02*
X215415714Y-112101333D01*
X215368095Y-112053714D01*
X215320476Y-111958476D01*
X215320476Y-111910857D01*
X215368095Y-111815619D01*
X215415714Y-111768000D01*
X215510952Y-111720380D01*
X215701428Y-111720380D01*
X215796666Y-111768000D01*
X215844285Y-111815619D01*
X215891904Y-111910857D01*
X215891904Y-111958476D01*
X215844285Y-112053714D01*
X215796666Y-112101333D01*
X215701428Y-112148952D01*
X215510952Y-112148952D01*
X215415714Y-112196571D01*
X215368095Y-112244190D01*
X215320476Y-112339428D01*
X215320476Y-112529904D01*
X215368095Y-112625142D01*
X215415714Y-112672761D01*
X215510952Y-112720380D01*
X215701428Y-112720380D01*
X215796666Y-112672761D01*
X215844285Y-112625142D01*
X215891904Y-112529904D01*
X215891904Y-112339428D01*
X215844285Y-112244190D01*
X215796666Y-112196571D01*
X215701428Y-112148952D01*
%TO.C,R73*%
X182110142Y-138755380D02*
X181776809Y-138279190D01*
X181538714Y-138755380D02*
X181538714Y-137755380D01*
X181919666Y-137755380D01*
X182014904Y-137803000D01*
X182062523Y-137850619D01*
X182110142Y-137945857D01*
X182110142Y-138088714D01*
X182062523Y-138183952D01*
X182014904Y-138231571D01*
X181919666Y-138279190D01*
X181538714Y-138279190D01*
X182443476Y-137755380D02*
X183110142Y-137755380D01*
X182681571Y-138755380D01*
X183395857Y-137755380D02*
X184014904Y-137755380D01*
X183681571Y-138136333D01*
X183824428Y-138136333D01*
X183919666Y-138183952D01*
X183967285Y-138231571D01*
X184014904Y-138326809D01*
X184014904Y-138564904D01*
X183967285Y-138660142D01*
X183919666Y-138707761D01*
X183824428Y-138755380D01*
X183538714Y-138755380D01*
X183443476Y-138707761D01*
X183395857Y-138660142D01*
%TO.C,R27*%
X182110142Y-123896380D02*
X181776809Y-123420190D01*
X181538714Y-123896380D02*
X181538714Y-122896380D01*
X181919666Y-122896380D01*
X182014904Y-122944000D01*
X182062523Y-122991619D01*
X182110142Y-123086857D01*
X182110142Y-123229714D01*
X182062523Y-123324952D01*
X182014904Y-123372571D01*
X181919666Y-123420190D01*
X181538714Y-123420190D01*
X182491095Y-122991619D02*
X182538714Y-122944000D01*
X182633952Y-122896380D01*
X182872047Y-122896380D01*
X182967285Y-122944000D01*
X183014904Y-122991619D01*
X183062523Y-123086857D01*
X183062523Y-123182095D01*
X183014904Y-123324952D01*
X182443476Y-123896380D01*
X183062523Y-123896380D01*
X183395857Y-122896380D02*
X184062523Y-122896380D01*
X183633952Y-123896380D01*
%TO.C,R25*%
X177390380Y-126029357D02*
X176914190Y-126362690D01*
X177390380Y-126600785D02*
X176390380Y-126600785D01*
X176390380Y-126219833D01*
X176438000Y-126124595D01*
X176485619Y-126076976D01*
X176580857Y-126029357D01*
X176723714Y-126029357D01*
X176818952Y-126076976D01*
X176866571Y-126124595D01*
X176914190Y-126219833D01*
X176914190Y-126600785D01*
X176485619Y-125648404D02*
X176438000Y-125600785D01*
X176390380Y-125505547D01*
X176390380Y-125267452D01*
X176438000Y-125172214D01*
X176485619Y-125124595D01*
X176580857Y-125076976D01*
X176676095Y-125076976D01*
X176818952Y-125124595D01*
X177390380Y-125696023D01*
X177390380Y-125076976D01*
X176390380Y-124172214D02*
X176390380Y-124648404D01*
X176866571Y-124696023D01*
X176818952Y-124648404D01*
X176771333Y-124553166D01*
X176771333Y-124315071D01*
X176818952Y-124219833D01*
X176866571Y-124172214D01*
X176961809Y-124124595D01*
X177199904Y-124124595D01*
X177295142Y-124172214D01*
X177342761Y-124219833D01*
X177390380Y-124315071D01*
X177390380Y-124553166D01*
X177342761Y-124648404D01*
X177295142Y-124696023D01*
%TO.C,R24*%
X177390380Y-123235357D02*
X176914190Y-123568690D01*
X177390380Y-123806785D02*
X176390380Y-123806785D01*
X176390380Y-123425833D01*
X176438000Y-123330595D01*
X176485619Y-123282976D01*
X176580857Y-123235357D01*
X176723714Y-123235357D01*
X176818952Y-123282976D01*
X176866571Y-123330595D01*
X176914190Y-123425833D01*
X176914190Y-123806785D01*
X176485619Y-122854404D02*
X176438000Y-122806785D01*
X176390380Y-122711547D01*
X176390380Y-122473452D01*
X176438000Y-122378214D01*
X176485619Y-122330595D01*
X176580857Y-122282976D01*
X176676095Y-122282976D01*
X176818952Y-122330595D01*
X177390380Y-122902023D01*
X177390380Y-122282976D01*
X176723714Y-121425833D02*
X177390380Y-121425833D01*
X176342761Y-121663928D02*
X177057047Y-121902023D01*
X177057047Y-121282976D01*
%TO.C,R8*%
X196518833Y-122880380D02*
X196185500Y-122404190D01*
X195947404Y-122880380D02*
X195947404Y-121880380D01*
X196328357Y-121880380D01*
X196423595Y-121928000D01*
X196471214Y-121975619D01*
X196518833Y-122070857D01*
X196518833Y-122213714D01*
X196471214Y-122308952D01*
X196423595Y-122356571D01*
X196328357Y-122404190D01*
X195947404Y-122404190D01*
X197090261Y-122308952D02*
X196995023Y-122261333D01*
X196947404Y-122213714D01*
X196899785Y-122118476D01*
X196899785Y-122070857D01*
X196947404Y-121975619D01*
X196995023Y-121928000D01*
X197090261Y-121880380D01*
X197280738Y-121880380D01*
X197375976Y-121928000D01*
X197423595Y-121975619D01*
X197471214Y-122070857D01*
X197471214Y-122118476D01*
X197423595Y-122213714D01*
X197375976Y-122261333D01*
X197280738Y-122308952D01*
X197090261Y-122308952D01*
X196995023Y-122356571D01*
X196947404Y-122404190D01*
X196899785Y-122499428D01*
X196899785Y-122689904D01*
X196947404Y-122785142D01*
X196995023Y-122832761D01*
X197090261Y-122880380D01*
X197280738Y-122880380D01*
X197375976Y-122832761D01*
X197423595Y-122785142D01*
X197471214Y-122689904D01*
X197471214Y-122499428D01*
X197423595Y-122404190D01*
X197375976Y-122356571D01*
X197280738Y-122308952D01*
%TO.C,R22*%
X178591642Y-114117380D02*
X178258309Y-113641190D01*
X178020214Y-114117380D02*
X178020214Y-113117380D01*
X178401166Y-113117380D01*
X178496404Y-113165000D01*
X178544023Y-113212619D01*
X178591642Y-113307857D01*
X178591642Y-113450714D01*
X178544023Y-113545952D01*
X178496404Y-113593571D01*
X178401166Y-113641190D01*
X178020214Y-113641190D01*
X178972595Y-113212619D02*
X179020214Y-113165000D01*
X179115452Y-113117380D01*
X179353547Y-113117380D01*
X179448785Y-113165000D01*
X179496404Y-113212619D01*
X179544023Y-113307857D01*
X179544023Y-113403095D01*
X179496404Y-113545952D01*
X178924976Y-114117380D01*
X179544023Y-114117380D01*
X179924976Y-113212619D02*
X179972595Y-113165000D01*
X180067833Y-113117380D01*
X180305928Y-113117380D01*
X180401166Y-113165000D01*
X180448785Y-113212619D01*
X180496404Y-113307857D01*
X180496404Y-113403095D01*
X180448785Y-113545952D01*
X179877357Y-114117380D01*
X180496404Y-114117380D01*
%TO.C,R21*%
X178591642Y-115514380D02*
X178258309Y-115038190D01*
X178020214Y-115514380D02*
X178020214Y-114514380D01*
X178401166Y-114514380D01*
X178496404Y-114562000D01*
X178544023Y-114609619D01*
X178591642Y-114704857D01*
X178591642Y-114847714D01*
X178544023Y-114942952D01*
X178496404Y-114990571D01*
X178401166Y-115038190D01*
X178020214Y-115038190D01*
X178972595Y-114609619D02*
X179020214Y-114562000D01*
X179115452Y-114514380D01*
X179353547Y-114514380D01*
X179448785Y-114562000D01*
X179496404Y-114609619D01*
X179544023Y-114704857D01*
X179544023Y-114800095D01*
X179496404Y-114942952D01*
X178924976Y-115514380D01*
X179544023Y-115514380D01*
X180496404Y-115514380D02*
X179924976Y-115514380D01*
X180210690Y-115514380D02*
X180210690Y-114514380D01*
X180115452Y-114657238D01*
X180020214Y-114752476D01*
X179924976Y-114800095D01*
%TO.C,R26*%
X179697142Y-131008380D02*
X179363809Y-130532190D01*
X179125714Y-131008380D02*
X179125714Y-130008380D01*
X179506666Y-130008380D01*
X179601904Y-130056000D01*
X179649523Y-130103619D01*
X179697142Y-130198857D01*
X179697142Y-130341714D01*
X179649523Y-130436952D01*
X179601904Y-130484571D01*
X179506666Y-130532190D01*
X179125714Y-130532190D01*
X180078095Y-130103619D02*
X180125714Y-130056000D01*
X180220952Y-130008380D01*
X180459047Y-130008380D01*
X180554285Y-130056000D01*
X180601904Y-130103619D01*
X180649523Y-130198857D01*
X180649523Y-130294095D01*
X180601904Y-130436952D01*
X180030476Y-131008380D01*
X180649523Y-131008380D01*
X181506666Y-130008380D02*
X181316190Y-130008380D01*
X181220952Y-130056000D01*
X181173333Y-130103619D01*
X181078095Y-130246476D01*
X181030476Y-130436952D01*
X181030476Y-130817904D01*
X181078095Y-130913142D01*
X181125714Y-130960761D01*
X181220952Y-131008380D01*
X181411428Y-131008380D01*
X181506666Y-130960761D01*
X181554285Y-130913142D01*
X181601904Y-130817904D01*
X181601904Y-130579809D01*
X181554285Y-130484571D01*
X181506666Y-130436952D01*
X181411428Y-130389333D01*
X181220952Y-130389333D01*
X181125714Y-130436952D01*
X181078095Y-130484571D01*
X181030476Y-130579809D01*
%TO.C,R12*%
X179951142Y-99258380D02*
X179617809Y-98782190D01*
X179379714Y-99258380D02*
X179379714Y-98258380D01*
X179760666Y-98258380D01*
X179855904Y-98306000D01*
X179903523Y-98353619D01*
X179951142Y-98448857D01*
X179951142Y-98591714D01*
X179903523Y-98686952D01*
X179855904Y-98734571D01*
X179760666Y-98782190D01*
X179379714Y-98782190D01*
X180903523Y-99258380D02*
X180332095Y-99258380D01*
X180617809Y-99258380D02*
X180617809Y-98258380D01*
X180522571Y-98401238D01*
X180427333Y-98496476D01*
X180332095Y-98544095D01*
X181284476Y-98353619D02*
X181332095Y-98306000D01*
X181427333Y-98258380D01*
X181665428Y-98258380D01*
X181760666Y-98306000D01*
X181808285Y-98353619D01*
X181855904Y-98448857D01*
X181855904Y-98544095D01*
X181808285Y-98686952D01*
X181236857Y-99258380D01*
X181855904Y-99258380D01*
%TO.C,R77*%
X181983142Y-126436380D02*
X181649809Y-125960190D01*
X181411714Y-126436380D02*
X181411714Y-125436380D01*
X181792666Y-125436380D01*
X181887904Y-125484000D01*
X181935523Y-125531619D01*
X181983142Y-125626857D01*
X181983142Y-125769714D01*
X181935523Y-125864952D01*
X181887904Y-125912571D01*
X181792666Y-125960190D01*
X181411714Y-125960190D01*
X182316476Y-125436380D02*
X182983142Y-125436380D01*
X182554571Y-126436380D01*
X183268857Y-125436380D02*
X183935523Y-125436380D01*
X183506952Y-126436380D01*
%TO.C,R11*%
X182824380Y-104274857D02*
X182348190Y-104608190D01*
X182824380Y-104846285D02*
X181824380Y-104846285D01*
X181824380Y-104465333D01*
X181872000Y-104370095D01*
X181919619Y-104322476D01*
X182014857Y-104274857D01*
X182157714Y-104274857D01*
X182252952Y-104322476D01*
X182300571Y-104370095D01*
X182348190Y-104465333D01*
X182348190Y-104846285D01*
X182824380Y-103322476D02*
X182824380Y-103893904D01*
X182824380Y-103608190D02*
X181824380Y-103608190D01*
X181967238Y-103703428D01*
X182062476Y-103798666D01*
X182110095Y-103893904D01*
X182824380Y-102370095D02*
X182824380Y-102941523D01*
X182824380Y-102655809D02*
X181824380Y-102655809D01*
X181967238Y-102751047D01*
X182062476Y-102846285D01*
X182110095Y-102941523D01*
%TO.C,R23*%
X178554142Y-116784380D02*
X178220809Y-116308190D01*
X177982714Y-116784380D02*
X177982714Y-115784380D01*
X178363666Y-115784380D01*
X178458904Y-115832000D01*
X178506523Y-115879619D01*
X178554142Y-115974857D01*
X178554142Y-116117714D01*
X178506523Y-116212952D01*
X178458904Y-116260571D01*
X178363666Y-116308190D01*
X177982714Y-116308190D01*
X178935095Y-115879619D02*
X178982714Y-115832000D01*
X179077952Y-115784380D01*
X179316047Y-115784380D01*
X179411285Y-115832000D01*
X179458904Y-115879619D01*
X179506523Y-115974857D01*
X179506523Y-116070095D01*
X179458904Y-116212952D01*
X178887476Y-116784380D01*
X179506523Y-116784380D01*
X179839857Y-115784380D02*
X180458904Y-115784380D01*
X180125571Y-116165333D01*
X180268428Y-116165333D01*
X180363666Y-116212952D01*
X180411285Y-116260571D01*
X180458904Y-116355809D01*
X180458904Y-116593904D01*
X180411285Y-116689142D01*
X180363666Y-116736761D01*
X180268428Y-116784380D01*
X179982714Y-116784380D01*
X179887476Y-116736761D01*
X179839857Y-116689142D01*
%TO.C,Q101*%
X214669619Y-108489619D02*
X214622000Y-108584857D01*
X214526761Y-108680095D01*
X214383904Y-108822952D01*
X214336285Y-108918190D01*
X214336285Y-109013428D01*
X214574380Y-108965809D02*
X214526761Y-109061047D01*
X214431523Y-109156285D01*
X214241047Y-109203904D01*
X213907714Y-109203904D01*
X213717238Y-109156285D01*
X213622000Y-109061047D01*
X213574380Y-108965809D01*
X213574380Y-108775333D01*
X213622000Y-108680095D01*
X213717238Y-108584857D01*
X213907714Y-108537238D01*
X214241047Y-108537238D01*
X214431523Y-108584857D01*
X214526761Y-108680095D01*
X214574380Y-108775333D01*
X214574380Y-108965809D01*
X214574380Y-107584857D02*
X214574380Y-108156285D01*
X214574380Y-107870571D02*
X213574380Y-107870571D01*
X213717238Y-107965809D01*
X213812476Y-108061047D01*
X213860095Y-108156285D01*
X213574380Y-106965809D02*
X213574380Y-106870571D01*
X213622000Y-106775333D01*
X213669619Y-106727714D01*
X213764857Y-106680095D01*
X213955333Y-106632476D01*
X214193428Y-106632476D01*
X214383904Y-106680095D01*
X214479142Y-106727714D01*
X214526761Y-106775333D01*
X214574380Y-106870571D01*
X214574380Y-106965809D01*
X214526761Y-107061047D01*
X214479142Y-107108666D01*
X214383904Y-107156285D01*
X214193428Y-107203904D01*
X213955333Y-107203904D01*
X213764857Y-107156285D01*
X213669619Y-107108666D01*
X213622000Y-107061047D01*
X213574380Y-106965809D01*
X214574380Y-105680095D02*
X214574380Y-106251523D01*
X214574380Y-105965809D02*
X213574380Y-105965809D01*
X213717238Y-106061047D01*
X213812476Y-106156285D01*
X213860095Y-106251523D01*
%TO.C,FID3*%
X231516571Y-141214071D02*
X231183238Y-141214071D01*
X231183238Y-141737880D02*
X231183238Y-140737880D01*
X231659428Y-140737880D01*
X232040380Y-141737880D02*
X232040380Y-140737880D01*
X232516571Y-141737880D02*
X232516571Y-140737880D01*
X232754666Y-140737880D01*
X232897523Y-140785500D01*
X232992761Y-140880738D01*
X233040380Y-140975976D01*
X233088000Y-141166452D01*
X233088000Y-141309309D01*
X233040380Y-141499785D01*
X232992761Y-141595023D01*
X232897523Y-141690261D01*
X232754666Y-141737880D01*
X232516571Y-141737880D01*
X233421333Y-140737880D02*
X234040380Y-140737880D01*
X233707047Y-141118833D01*
X233849904Y-141118833D01*
X233945142Y-141166452D01*
X233992761Y-141214071D01*
X234040380Y-141309309D01*
X234040380Y-141547404D01*
X233992761Y-141642642D01*
X233945142Y-141690261D01*
X233849904Y-141737880D01*
X233564190Y-141737880D01*
X233468952Y-141690261D01*
X233421333Y-141642642D01*
%TO.C,FID2*%
X151201571Y-143057571D02*
X150868238Y-143057571D01*
X150868238Y-143581380D02*
X150868238Y-142581380D01*
X151344428Y-142581380D01*
X151725380Y-143581380D02*
X151725380Y-142581380D01*
X152201571Y-143581380D02*
X152201571Y-142581380D01*
X152439666Y-142581380D01*
X152582523Y-142629000D01*
X152677761Y-142724238D01*
X152725380Y-142819476D01*
X152773000Y-143009952D01*
X152773000Y-143152809D01*
X152725380Y-143343285D01*
X152677761Y-143438523D01*
X152582523Y-143533761D01*
X152439666Y-143581380D01*
X152201571Y-143581380D01*
X153153952Y-142676619D02*
X153201571Y-142629000D01*
X153296809Y-142581380D01*
X153534904Y-142581380D01*
X153630142Y-142629000D01*
X153677761Y-142676619D01*
X153725380Y-142771857D01*
X153725380Y-142867095D01*
X153677761Y-143009952D01*
X153106333Y-143581380D01*
X153725380Y-143581380D01*
%TO.C,FID1*%
X151201571Y-103052571D02*
X150868238Y-103052571D01*
X150868238Y-103576380D02*
X150868238Y-102576380D01*
X151344428Y-102576380D01*
X151725380Y-103576380D02*
X151725380Y-102576380D01*
X152201571Y-103576380D02*
X152201571Y-102576380D01*
X152439666Y-102576380D01*
X152582523Y-102624000D01*
X152677761Y-102719238D01*
X152725380Y-102814476D01*
X152773000Y-103004952D01*
X152773000Y-103147809D01*
X152725380Y-103338285D01*
X152677761Y-103433523D01*
X152582523Y-103528761D01*
X152439666Y-103576380D01*
X152201571Y-103576380D01*
X153725380Y-103576380D02*
X153153952Y-103576380D01*
X153439666Y-103576380D02*
X153439666Y-102576380D01*
X153344428Y-102719238D01*
X153249190Y-102814476D01*
X153153952Y-102862095D01*
%TO.C,D92*%
X208224380Y-139390285D02*
X207224380Y-139390285D01*
X207224380Y-139152190D01*
X207272000Y-139009333D01*
X207367238Y-138914095D01*
X207462476Y-138866476D01*
X207652952Y-138818857D01*
X207795809Y-138818857D01*
X207986285Y-138866476D01*
X208081523Y-138914095D01*
X208176761Y-139009333D01*
X208224380Y-139152190D01*
X208224380Y-139390285D01*
X208224380Y-138342666D02*
X208224380Y-138152190D01*
X208176761Y-138056952D01*
X208129142Y-138009333D01*
X207986285Y-137914095D01*
X207795809Y-137866476D01*
X207414857Y-137866476D01*
X207319619Y-137914095D01*
X207272000Y-137961714D01*
X207224380Y-138056952D01*
X207224380Y-138247428D01*
X207272000Y-138342666D01*
X207319619Y-138390285D01*
X207414857Y-138437904D01*
X207652952Y-138437904D01*
X207748190Y-138390285D01*
X207795809Y-138342666D01*
X207843428Y-138247428D01*
X207843428Y-138056952D01*
X207795809Y-137961714D01*
X207748190Y-137914095D01*
X207652952Y-137866476D01*
X207319619Y-137485523D02*
X207272000Y-137437904D01*
X207224380Y-137342666D01*
X207224380Y-137104571D01*
X207272000Y-137009333D01*
X207319619Y-136961714D01*
X207414857Y-136914095D01*
X207510095Y-136914095D01*
X207652952Y-136961714D01*
X208224380Y-137533142D01*
X208224380Y-136914095D01*
%TO.C,D91*%
X196905714Y-142692380D02*
X196905714Y-141692380D01*
X197143809Y-141692380D01*
X197286666Y-141740000D01*
X197381904Y-141835238D01*
X197429523Y-141930476D01*
X197477142Y-142120952D01*
X197477142Y-142263809D01*
X197429523Y-142454285D01*
X197381904Y-142549523D01*
X197286666Y-142644761D01*
X197143809Y-142692380D01*
X196905714Y-142692380D01*
X197953333Y-142692380D02*
X198143809Y-142692380D01*
X198239047Y-142644761D01*
X198286666Y-142597142D01*
X198381904Y-142454285D01*
X198429523Y-142263809D01*
X198429523Y-141882857D01*
X198381904Y-141787619D01*
X198334285Y-141740000D01*
X198239047Y-141692380D01*
X198048571Y-141692380D01*
X197953333Y-141740000D01*
X197905714Y-141787619D01*
X197858095Y-141882857D01*
X197858095Y-142120952D01*
X197905714Y-142216190D01*
X197953333Y-142263809D01*
X198048571Y-142311428D01*
X198239047Y-142311428D01*
X198334285Y-142263809D01*
X198381904Y-142216190D01*
X198429523Y-142120952D01*
X199381904Y-142692380D02*
X198810476Y-142692380D01*
X199096190Y-142692380D02*
X199096190Y-141692380D01*
X199000952Y-141835238D01*
X198905714Y-141930476D01*
X198810476Y-141978095D01*
%TO.C,D82*%
X213812380Y-123642285D02*
X212812380Y-123642285D01*
X212812380Y-123404190D01*
X212860000Y-123261333D01*
X212955238Y-123166095D01*
X213050476Y-123118476D01*
X213240952Y-123070857D01*
X213383809Y-123070857D01*
X213574285Y-123118476D01*
X213669523Y-123166095D01*
X213764761Y-123261333D01*
X213812380Y-123404190D01*
X213812380Y-123642285D01*
X213240952Y-122499428D02*
X213193333Y-122594666D01*
X213145714Y-122642285D01*
X213050476Y-122689904D01*
X213002857Y-122689904D01*
X212907619Y-122642285D01*
X212860000Y-122594666D01*
X212812380Y-122499428D01*
X212812380Y-122308952D01*
X212860000Y-122213714D01*
X212907619Y-122166095D01*
X213002857Y-122118476D01*
X213050476Y-122118476D01*
X213145714Y-122166095D01*
X213193333Y-122213714D01*
X213240952Y-122308952D01*
X213240952Y-122499428D01*
X213288571Y-122594666D01*
X213336190Y-122642285D01*
X213431428Y-122689904D01*
X213621904Y-122689904D01*
X213717142Y-122642285D01*
X213764761Y-122594666D01*
X213812380Y-122499428D01*
X213812380Y-122308952D01*
X213764761Y-122213714D01*
X213717142Y-122166095D01*
X213621904Y-122118476D01*
X213431428Y-122118476D01*
X213336190Y-122166095D01*
X213288571Y-122213714D01*
X213240952Y-122308952D01*
X212907619Y-121737523D02*
X212860000Y-121689904D01*
X212812380Y-121594666D01*
X212812380Y-121356571D01*
X212860000Y-121261333D01*
X212907619Y-121213714D01*
X213002857Y-121166095D01*
X213098095Y-121166095D01*
X213240952Y-121213714D01*
X213812380Y-121785142D01*
X213812380Y-121166095D01*
%TO.C,D81*%
X201477714Y-126944380D02*
X201477714Y-125944380D01*
X201715809Y-125944380D01*
X201858666Y-125992000D01*
X201953904Y-126087238D01*
X202001523Y-126182476D01*
X202049142Y-126372952D01*
X202049142Y-126515809D01*
X202001523Y-126706285D01*
X201953904Y-126801523D01*
X201858666Y-126896761D01*
X201715809Y-126944380D01*
X201477714Y-126944380D01*
X202620571Y-126372952D02*
X202525333Y-126325333D01*
X202477714Y-126277714D01*
X202430095Y-126182476D01*
X202430095Y-126134857D01*
X202477714Y-126039619D01*
X202525333Y-125992000D01*
X202620571Y-125944380D01*
X202811047Y-125944380D01*
X202906285Y-125992000D01*
X202953904Y-126039619D01*
X203001523Y-126134857D01*
X203001523Y-126182476D01*
X202953904Y-126277714D01*
X202906285Y-126325333D01*
X202811047Y-126372952D01*
X202620571Y-126372952D01*
X202525333Y-126420571D01*
X202477714Y-126468190D01*
X202430095Y-126563428D01*
X202430095Y-126753904D01*
X202477714Y-126849142D01*
X202525333Y-126896761D01*
X202620571Y-126944380D01*
X202811047Y-126944380D01*
X202906285Y-126896761D01*
X202953904Y-126849142D01*
X203001523Y-126753904D01*
X203001523Y-126563428D01*
X202953904Y-126468190D01*
X202906285Y-126420571D01*
X202811047Y-126372952D01*
X203953904Y-126944380D02*
X203382476Y-126944380D01*
X203668190Y-126944380D02*
X203668190Y-125944380D01*
X203572952Y-126087238D01*
X203477714Y-126182476D01*
X203382476Y-126230095D01*
%TO.C,D101*%
X220559523Y-112085380D02*
X220559523Y-111085380D01*
X220797619Y-111085380D01*
X220940476Y-111133000D01*
X221035714Y-111228238D01*
X221083333Y-111323476D01*
X221130952Y-111513952D01*
X221130952Y-111656809D01*
X221083333Y-111847285D01*
X221035714Y-111942523D01*
X220940476Y-112037761D01*
X220797619Y-112085380D01*
X220559523Y-112085380D01*
X222083333Y-112085380D02*
X221511904Y-112085380D01*
X221797619Y-112085380D02*
X221797619Y-111085380D01*
X221702380Y-111228238D01*
X221607142Y-111323476D01*
X221511904Y-111371095D01*
X222702380Y-111085380D02*
X222797619Y-111085380D01*
X222892857Y-111133000D01*
X222940476Y-111180619D01*
X222988095Y-111275857D01*
X223035714Y-111466333D01*
X223035714Y-111704428D01*
X222988095Y-111894904D01*
X222940476Y-111990142D01*
X222892857Y-112037761D01*
X222797619Y-112085380D01*
X222702380Y-112085380D01*
X222607142Y-112037761D01*
X222559523Y-111990142D01*
X222511904Y-111894904D01*
X222464285Y-111704428D01*
X222464285Y-111466333D01*
X222511904Y-111275857D01*
X222559523Y-111180619D01*
X222607142Y-111133000D01*
X222702380Y-111085380D01*
X223988095Y-112085380D02*
X223416666Y-112085380D01*
X223702380Y-112085380D02*
X223702380Y-111085380D01*
X223607142Y-111228238D01*
X223511904Y-111323476D01*
X223416666Y-111371095D01*
%TO.C,D31*%
X178109714Y-111450380D02*
X178109714Y-110450380D01*
X178347809Y-110450380D01*
X178490666Y-110498000D01*
X178585904Y-110593238D01*
X178633523Y-110688476D01*
X178681142Y-110878952D01*
X178681142Y-111021809D01*
X178633523Y-111212285D01*
X178585904Y-111307523D01*
X178490666Y-111402761D01*
X178347809Y-111450380D01*
X178109714Y-111450380D01*
X179014476Y-110450380D02*
X179633523Y-110450380D01*
X179300190Y-110831333D01*
X179443047Y-110831333D01*
X179538285Y-110878952D01*
X179585904Y-110926571D01*
X179633523Y-111021809D01*
X179633523Y-111259904D01*
X179585904Y-111355142D01*
X179538285Y-111402761D01*
X179443047Y-111450380D01*
X179157333Y-111450380D01*
X179062095Y-111402761D01*
X179014476Y-111355142D01*
X180585904Y-111450380D02*
X180014476Y-111450380D01*
X180300190Y-111450380D02*
X180300190Y-110450380D01*
X180204952Y-110593238D01*
X180109714Y-110688476D01*
X180014476Y-110736095D01*
%TO.C,D11*%
X177744380Y-103576285D02*
X176744380Y-103576285D01*
X176744380Y-103338190D01*
X176792000Y-103195333D01*
X176887238Y-103100095D01*
X176982476Y-103052476D01*
X177172952Y-103004857D01*
X177315809Y-103004857D01*
X177506285Y-103052476D01*
X177601523Y-103100095D01*
X177696761Y-103195333D01*
X177744380Y-103338190D01*
X177744380Y-103576285D01*
X177744380Y-102052476D02*
X177744380Y-102623904D01*
X177744380Y-102338190D02*
X176744380Y-102338190D01*
X176887238Y-102433428D01*
X176982476Y-102528666D01*
X177030095Y-102623904D01*
X177744380Y-101100095D02*
X177744380Y-101671523D01*
X177744380Y-101385809D02*
X176744380Y-101385809D01*
X176887238Y-101481047D01*
X176982476Y-101576285D01*
X177030095Y-101671523D01*
%TO.C,C94*%
X224070942Y-149277342D02*
X224023323Y-149324961D01*
X223880466Y-149372580D01*
X223785228Y-149372580D01*
X223642371Y-149324961D01*
X223547133Y-149229723D01*
X223499514Y-149134485D01*
X223451895Y-148944009D01*
X223451895Y-148801152D01*
X223499514Y-148610676D01*
X223547133Y-148515438D01*
X223642371Y-148420200D01*
X223785228Y-148372580D01*
X223880466Y-148372580D01*
X224023323Y-148420200D01*
X224070942Y-148467819D01*
X224547133Y-149372580D02*
X224737609Y-149372580D01*
X224832847Y-149324961D01*
X224880466Y-149277342D01*
X224975704Y-149134485D01*
X225023323Y-148944009D01*
X225023323Y-148563057D01*
X224975704Y-148467819D01*
X224928085Y-148420200D01*
X224832847Y-148372580D01*
X224642371Y-148372580D01*
X224547133Y-148420200D01*
X224499514Y-148467819D01*
X224451895Y-148563057D01*
X224451895Y-148801152D01*
X224499514Y-148896390D01*
X224547133Y-148944009D01*
X224642371Y-148991628D01*
X224832847Y-148991628D01*
X224928085Y-148944009D01*
X224975704Y-148896390D01*
X225023323Y-148801152D01*
X225880466Y-148705914D02*
X225880466Y-149372580D01*
X225642371Y-148324961D02*
X225404276Y-149039247D01*
X226023323Y-149039247D01*
%TO.C,C92*%
X210202542Y-150140942D02*
X210154923Y-150188561D01*
X210012066Y-150236180D01*
X209916828Y-150236180D01*
X209773971Y-150188561D01*
X209678733Y-150093323D01*
X209631114Y-149998085D01*
X209583495Y-149807609D01*
X209583495Y-149664752D01*
X209631114Y-149474276D01*
X209678733Y-149379038D01*
X209773971Y-149283800D01*
X209916828Y-149236180D01*
X210012066Y-149236180D01*
X210154923Y-149283800D01*
X210202542Y-149331419D01*
X210678733Y-150236180D02*
X210869209Y-150236180D01*
X210964447Y-150188561D01*
X211012066Y-150140942D01*
X211107304Y-149998085D01*
X211154923Y-149807609D01*
X211154923Y-149426657D01*
X211107304Y-149331419D01*
X211059685Y-149283800D01*
X210964447Y-149236180D01*
X210773971Y-149236180D01*
X210678733Y-149283800D01*
X210631114Y-149331419D01*
X210583495Y-149426657D01*
X210583495Y-149664752D01*
X210631114Y-149759990D01*
X210678733Y-149807609D01*
X210773971Y-149855228D01*
X210964447Y-149855228D01*
X211059685Y-149807609D01*
X211107304Y-149759990D01*
X211154923Y-149664752D01*
X211535876Y-149331419D02*
X211583495Y-149283800D01*
X211678733Y-149236180D01*
X211916828Y-149236180D01*
X212012066Y-149283800D01*
X212059685Y-149331419D01*
X212107304Y-149426657D01*
X212107304Y-149521895D01*
X212059685Y-149664752D01*
X211488257Y-150236180D01*
X212107304Y-150236180D01*
%TO.C,C93*%
X205589142Y-138818857D02*
X205636761Y-138866476D01*
X205684380Y-139009333D01*
X205684380Y-139104571D01*
X205636761Y-139247428D01*
X205541523Y-139342666D01*
X205446285Y-139390285D01*
X205255809Y-139437904D01*
X205112952Y-139437904D01*
X204922476Y-139390285D01*
X204827238Y-139342666D01*
X204732000Y-139247428D01*
X204684380Y-139104571D01*
X204684380Y-139009333D01*
X204732000Y-138866476D01*
X204779619Y-138818857D01*
X205684380Y-138342666D02*
X205684380Y-138152190D01*
X205636761Y-138056952D01*
X205589142Y-138009333D01*
X205446285Y-137914095D01*
X205255809Y-137866476D01*
X204874857Y-137866476D01*
X204779619Y-137914095D01*
X204732000Y-137961714D01*
X204684380Y-138056952D01*
X204684380Y-138247428D01*
X204732000Y-138342666D01*
X204779619Y-138390285D01*
X204874857Y-138437904D01*
X205112952Y-138437904D01*
X205208190Y-138390285D01*
X205255809Y-138342666D01*
X205303428Y-138247428D01*
X205303428Y-138056952D01*
X205255809Y-137961714D01*
X205208190Y-137914095D01*
X205112952Y-137866476D01*
X204684380Y-137533142D02*
X204684380Y-136914095D01*
X205065333Y-137247428D01*
X205065333Y-137104571D01*
X205112952Y-137009333D01*
X205160571Y-136961714D01*
X205255809Y-136914095D01*
X205493904Y-136914095D01*
X205589142Y-136961714D01*
X205636761Y-137009333D01*
X205684380Y-137104571D01*
X205684380Y-137390285D01*
X205636761Y-137485523D01*
X205589142Y-137533142D01*
%TO.C,C91*%
X197477142Y-138025142D02*
X197429523Y-138072761D01*
X197286666Y-138120380D01*
X197191428Y-138120380D01*
X197048571Y-138072761D01*
X196953333Y-137977523D01*
X196905714Y-137882285D01*
X196858095Y-137691809D01*
X196858095Y-137548952D01*
X196905714Y-137358476D01*
X196953333Y-137263238D01*
X197048571Y-137168000D01*
X197191428Y-137120380D01*
X197286666Y-137120380D01*
X197429523Y-137168000D01*
X197477142Y-137215619D01*
X197953333Y-138120380D02*
X198143809Y-138120380D01*
X198239047Y-138072761D01*
X198286666Y-138025142D01*
X198381904Y-137882285D01*
X198429523Y-137691809D01*
X198429523Y-137310857D01*
X198381904Y-137215619D01*
X198334285Y-137168000D01*
X198239047Y-137120380D01*
X198048571Y-137120380D01*
X197953333Y-137168000D01*
X197905714Y-137215619D01*
X197858095Y-137310857D01*
X197858095Y-137548952D01*
X197905714Y-137644190D01*
X197953333Y-137691809D01*
X198048571Y-137739428D01*
X198239047Y-137739428D01*
X198334285Y-137691809D01*
X198381904Y-137644190D01*
X198429523Y-137548952D01*
X199381904Y-138120380D02*
X198810476Y-138120380D01*
X199096190Y-138120380D02*
X199096190Y-137120380D01*
X199000952Y-137263238D01*
X198905714Y-137358476D01*
X198810476Y-137406095D01*
%TO.C,C82*%
X214723742Y-135510542D02*
X214676123Y-135558161D01*
X214533266Y-135605780D01*
X214438028Y-135605780D01*
X214295171Y-135558161D01*
X214199933Y-135462923D01*
X214152314Y-135367685D01*
X214104695Y-135177209D01*
X214104695Y-135034352D01*
X214152314Y-134843876D01*
X214199933Y-134748638D01*
X214295171Y-134653400D01*
X214438028Y-134605780D01*
X214533266Y-134605780D01*
X214676123Y-134653400D01*
X214723742Y-134701019D01*
X215295171Y-135034352D02*
X215199933Y-134986733D01*
X215152314Y-134939114D01*
X215104695Y-134843876D01*
X215104695Y-134796257D01*
X215152314Y-134701019D01*
X215199933Y-134653400D01*
X215295171Y-134605780D01*
X215485647Y-134605780D01*
X215580885Y-134653400D01*
X215628504Y-134701019D01*
X215676123Y-134796257D01*
X215676123Y-134843876D01*
X215628504Y-134939114D01*
X215580885Y-134986733D01*
X215485647Y-135034352D01*
X215295171Y-135034352D01*
X215199933Y-135081971D01*
X215152314Y-135129590D01*
X215104695Y-135224828D01*
X215104695Y-135415304D01*
X215152314Y-135510542D01*
X215199933Y-135558161D01*
X215295171Y-135605780D01*
X215485647Y-135605780D01*
X215580885Y-135558161D01*
X215628504Y-135510542D01*
X215676123Y-135415304D01*
X215676123Y-135224828D01*
X215628504Y-135129590D01*
X215580885Y-135081971D01*
X215485647Y-135034352D01*
X216057076Y-134701019D02*
X216104695Y-134653400D01*
X216199933Y-134605780D01*
X216438028Y-134605780D01*
X216533266Y-134653400D01*
X216580885Y-134701019D01*
X216628504Y-134796257D01*
X216628504Y-134891495D01*
X216580885Y-135034352D01*
X216009457Y-135605780D01*
X216628504Y-135605780D01*
%TO.C,C83*%
X211177142Y-123070857D02*
X211224761Y-123118476D01*
X211272380Y-123261333D01*
X211272380Y-123356571D01*
X211224761Y-123499428D01*
X211129523Y-123594666D01*
X211034285Y-123642285D01*
X210843809Y-123689904D01*
X210700952Y-123689904D01*
X210510476Y-123642285D01*
X210415238Y-123594666D01*
X210320000Y-123499428D01*
X210272380Y-123356571D01*
X210272380Y-123261333D01*
X210320000Y-123118476D01*
X210367619Y-123070857D01*
X210700952Y-122499428D02*
X210653333Y-122594666D01*
X210605714Y-122642285D01*
X210510476Y-122689904D01*
X210462857Y-122689904D01*
X210367619Y-122642285D01*
X210320000Y-122594666D01*
X210272380Y-122499428D01*
X210272380Y-122308952D01*
X210320000Y-122213714D01*
X210367619Y-122166095D01*
X210462857Y-122118476D01*
X210510476Y-122118476D01*
X210605714Y-122166095D01*
X210653333Y-122213714D01*
X210700952Y-122308952D01*
X210700952Y-122499428D01*
X210748571Y-122594666D01*
X210796190Y-122642285D01*
X210891428Y-122689904D01*
X211081904Y-122689904D01*
X211177142Y-122642285D01*
X211224761Y-122594666D01*
X211272380Y-122499428D01*
X211272380Y-122308952D01*
X211224761Y-122213714D01*
X211177142Y-122166095D01*
X211081904Y-122118476D01*
X210891428Y-122118476D01*
X210796190Y-122166095D01*
X210748571Y-122213714D01*
X210700952Y-122308952D01*
X210272380Y-121785142D02*
X210272380Y-121166095D01*
X210653333Y-121499428D01*
X210653333Y-121356571D01*
X210700952Y-121261333D01*
X210748571Y-121213714D01*
X210843809Y-121166095D01*
X211081904Y-121166095D01*
X211177142Y-121213714D01*
X211224761Y-121261333D01*
X211272380Y-121356571D01*
X211272380Y-121642285D01*
X211224761Y-121737523D01*
X211177142Y-121785142D01*
%TO.C,C81*%
X202049142Y-122785142D02*
X202001523Y-122832761D01*
X201858666Y-122880380D01*
X201763428Y-122880380D01*
X201620571Y-122832761D01*
X201525333Y-122737523D01*
X201477714Y-122642285D01*
X201430095Y-122451809D01*
X201430095Y-122308952D01*
X201477714Y-122118476D01*
X201525333Y-122023238D01*
X201620571Y-121928000D01*
X201763428Y-121880380D01*
X201858666Y-121880380D01*
X202001523Y-121928000D01*
X202049142Y-121975619D01*
X202620571Y-122308952D02*
X202525333Y-122261333D01*
X202477714Y-122213714D01*
X202430095Y-122118476D01*
X202430095Y-122070857D01*
X202477714Y-121975619D01*
X202525333Y-121928000D01*
X202620571Y-121880380D01*
X202811047Y-121880380D01*
X202906285Y-121928000D01*
X202953904Y-121975619D01*
X203001523Y-122070857D01*
X203001523Y-122118476D01*
X202953904Y-122213714D01*
X202906285Y-122261333D01*
X202811047Y-122308952D01*
X202620571Y-122308952D01*
X202525333Y-122356571D01*
X202477714Y-122404190D01*
X202430095Y-122499428D01*
X202430095Y-122689904D01*
X202477714Y-122785142D01*
X202525333Y-122832761D01*
X202620571Y-122880380D01*
X202811047Y-122880380D01*
X202906285Y-122832761D01*
X202953904Y-122785142D01*
X203001523Y-122689904D01*
X203001523Y-122499428D01*
X202953904Y-122404190D01*
X202906285Y-122356571D01*
X202811047Y-122308952D01*
X203953904Y-122880380D02*
X203382476Y-122880380D01*
X203668190Y-122880380D02*
X203668190Y-121880380D01*
X203572952Y-122023238D01*
X203477714Y-122118476D01*
X203382476Y-122166095D01*
%TO.C,C31*%
X175633142Y-111355142D02*
X175585523Y-111402761D01*
X175442666Y-111450380D01*
X175347428Y-111450380D01*
X175204571Y-111402761D01*
X175109333Y-111307523D01*
X175061714Y-111212285D01*
X175014095Y-111021809D01*
X175014095Y-110878952D01*
X175061714Y-110688476D01*
X175109333Y-110593238D01*
X175204571Y-110498000D01*
X175347428Y-110450380D01*
X175442666Y-110450380D01*
X175585523Y-110498000D01*
X175633142Y-110545619D01*
X175966476Y-110450380D02*
X176585523Y-110450380D01*
X176252190Y-110831333D01*
X176395047Y-110831333D01*
X176490285Y-110878952D01*
X176537904Y-110926571D01*
X176585523Y-111021809D01*
X176585523Y-111259904D01*
X176537904Y-111355142D01*
X176490285Y-111402761D01*
X176395047Y-111450380D01*
X176109333Y-111450380D01*
X176014095Y-111402761D01*
X175966476Y-111355142D01*
X177537904Y-111450380D02*
X176966476Y-111450380D01*
X177252190Y-111450380D02*
X177252190Y-110450380D01*
X177156952Y-110593238D01*
X177061714Y-110688476D01*
X176966476Y-110736095D01*
%TO.C,C12*%
X158361142Y-104243142D02*
X158313523Y-104290761D01*
X158170666Y-104338380D01*
X158075428Y-104338380D01*
X157932571Y-104290761D01*
X157837333Y-104195523D01*
X157789714Y-104100285D01*
X157742095Y-103909809D01*
X157742095Y-103766952D01*
X157789714Y-103576476D01*
X157837333Y-103481238D01*
X157932571Y-103386000D01*
X158075428Y-103338380D01*
X158170666Y-103338380D01*
X158313523Y-103386000D01*
X158361142Y-103433619D01*
X159313523Y-104338380D02*
X158742095Y-104338380D01*
X159027809Y-104338380D02*
X159027809Y-103338380D01*
X158932571Y-103481238D01*
X158837333Y-103576476D01*
X158742095Y-103624095D01*
X159694476Y-103433619D02*
X159742095Y-103386000D01*
X159837333Y-103338380D01*
X160075428Y-103338380D01*
X160170666Y-103386000D01*
X160218285Y-103433619D01*
X160265904Y-103528857D01*
X160265904Y-103624095D01*
X160218285Y-103766952D01*
X159646857Y-104338380D01*
X160265904Y-104338380D01*
%TO.C,C11*%
X158615142Y-98655142D02*
X158567523Y-98702761D01*
X158424666Y-98750380D01*
X158329428Y-98750380D01*
X158186571Y-98702761D01*
X158091333Y-98607523D01*
X158043714Y-98512285D01*
X157996095Y-98321809D01*
X157996095Y-98178952D01*
X158043714Y-97988476D01*
X158091333Y-97893238D01*
X158186571Y-97798000D01*
X158329428Y-97750380D01*
X158424666Y-97750380D01*
X158567523Y-97798000D01*
X158615142Y-97845619D01*
X159567523Y-98750380D02*
X158996095Y-98750380D01*
X159281809Y-98750380D02*
X159281809Y-97750380D01*
X159186571Y-97893238D01*
X159091333Y-97988476D01*
X158996095Y-98036095D01*
X160519904Y-98750380D02*
X159948476Y-98750380D01*
X160234190Y-98750380D02*
X160234190Y-97750380D01*
X160138952Y-97893238D01*
X160043714Y-97988476D01*
X159948476Y-98036095D01*
%TD*%
%LPC*%
%TO.C,C84*%
G36*
G01*
X229481000Y-126991200D02*
X229481000Y-125891200D01*
G75*
G02*
X229731000Y-125641200I250000J0D01*
G01*
X231831000Y-125641200D01*
G75*
G02*
X232081000Y-125891200I0J-250000D01*
G01*
X232081000Y-126991200D01*
G75*
G02*
X231831000Y-127241200I-250000J0D01*
G01*
X229731000Y-127241200D01*
G75*
G02*
X229481000Y-126991200I0J250000D01*
G01*
G37*
G36*
G01*
X225881000Y-126991200D02*
X225881000Y-125891200D01*
G75*
G02*
X226131000Y-125641200I250000J0D01*
G01*
X228231000Y-125641200D01*
G75*
G02*
X228481000Y-125891200I0J-250000D01*
G01*
X228481000Y-126991200D01*
G75*
G02*
X228231000Y-127241200I-250000J0D01*
G01*
X226131000Y-127241200D01*
G75*
G02*
X225881000Y-126991200I0J250000D01*
G01*
G37*
%TD*%
D12*
%TO.C,U15*%
X218059000Y-138023600D03*
X210439000Y-145643600D03*
X218059000Y-140563600D03*
X210439000Y-143103600D03*
X218059000Y-143103600D03*
X210439000Y-140563600D03*
X218059000Y-145643600D03*
D13*
X210439000Y-138023600D03*
%TD*%
D12*
%TO.C,U12*%
X221361000Y-124688600D03*
X213741000Y-132308600D03*
X221361000Y-127228600D03*
X213741000Y-129768600D03*
X221361000Y-129768600D03*
X213741000Y-127228600D03*
X221361000Y-132308600D03*
D13*
X213741000Y-124688600D03*
%TD*%
%TO.C,F11*%
G36*
G01*
X164605000Y-111877000D02*
X164605000Y-110627000D01*
G75*
G02*
X164855000Y-110377000I250000J0D01*
G01*
X165780000Y-110377000D01*
G75*
G02*
X166030000Y-110627000I0J-250000D01*
G01*
X166030000Y-111877000D01*
G75*
G02*
X165780000Y-112127000I-250000J0D01*
G01*
X164855000Y-112127000D01*
G75*
G02*
X164605000Y-111877000I0J250000D01*
G01*
G37*
G36*
G01*
X161630000Y-111877000D02*
X161630000Y-110627000D01*
G75*
G02*
X161880000Y-110377000I250000J0D01*
G01*
X162805000Y-110377000D01*
G75*
G02*
X163055000Y-110627000I0J-250000D01*
G01*
X163055000Y-111877000D01*
G75*
G02*
X162805000Y-112127000I-250000J0D01*
G01*
X161880000Y-112127000D01*
G75*
G02*
X161630000Y-111877000I0J250000D01*
G01*
G37*
%TD*%
D14*
%TO.C,J3*%
X152078000Y-133430000D03*
X152078000Y-138430000D03*
D15*
X159258000Y-133430000D03*
X159258000Y-135930000D03*
G36*
G01*
X160358000Y-137830000D02*
X160358000Y-139030000D01*
G75*
G02*
X160108000Y-139280000I-250000J0D01*
G01*
X158408000Y-139280000D01*
G75*
G02*
X158158000Y-139030000I0J250000D01*
G01*
X158158000Y-137830000D01*
G75*
G02*
X158408000Y-137580000I250000J0D01*
G01*
X160108000Y-137580000D01*
G75*
G02*
X160358000Y-137830000I0J-250000D01*
G01*
G37*
%TD*%
D14*
%TO.C,J2*%
X152078000Y-121492000D03*
X152078000Y-126492000D03*
D15*
X159258000Y-121492000D03*
X159258000Y-123992000D03*
G36*
G01*
X160358000Y-125892000D02*
X160358000Y-127092000D01*
G75*
G02*
X160108000Y-127342000I-250000J0D01*
G01*
X158408000Y-127342000D01*
G75*
G02*
X158158000Y-127092000I0J250000D01*
G01*
X158158000Y-125892000D01*
G75*
G02*
X158408000Y-125642000I250000J0D01*
G01*
X160108000Y-125642000D01*
G75*
G02*
X160358000Y-125892000I0J-250000D01*
G01*
G37*
%TD*%
D14*
%TO.C,J4*%
X231995400Y-107402000D03*
X231995400Y-104902000D03*
D15*
X224815400Y-107402000D03*
G36*
G01*
X223715400Y-105502000D02*
X223715400Y-104302000D01*
G75*
G02*
X223965400Y-104052000I250000J0D01*
G01*
X225665400Y-104052000D01*
G75*
G02*
X225915400Y-104302000I0J-250000D01*
G01*
X225915400Y-105502000D01*
G75*
G02*
X225665400Y-105752000I-250000J0D01*
G01*
X223965400Y-105752000D01*
G75*
G02*
X223715400Y-105502000I0J250000D01*
G01*
G37*
%TD*%
D14*
%TO.C,J1*%
X151570000Y-109768000D03*
X151570000Y-112268000D03*
D15*
X158750000Y-109768000D03*
G36*
G01*
X159850000Y-111668000D02*
X159850000Y-112868000D01*
G75*
G02*
X159600000Y-113118000I-250000J0D01*
G01*
X157900000Y-113118000D01*
G75*
G02*
X157650000Y-112868000I0J250000D01*
G01*
X157650000Y-111668000D01*
G75*
G02*
X157900000Y-111418000I250000J0D01*
G01*
X159600000Y-111418000D01*
G75*
G02*
X159850000Y-111668000I0J-250000D01*
G01*
G37*
%TD*%
D16*
%TO.C,H4*%
X232588000Y-148000000D03*
%TD*%
%TO.C,H3*%
X153000000Y-148000000D03*
%TD*%
%TO.C,H2*%
X232588000Y-98000000D03*
%TD*%
%TO.C,H1*%
X153000000Y-98000000D03*
%TD*%
D17*
%TO.C,D102*%
X218440000Y-111676000D03*
X218440000Y-113876000D03*
%TD*%
D18*
%TO.C,K101*%
X206878000Y-107432000D03*
X203378000Y-99832000D03*
X210378000Y-99832000D03*
X186878000Y-99832000D03*
X186878000Y-107432000D03*
%TD*%
%TO.C,U8*%
G36*
G01*
X188952000Y-127912000D02*
X188952000Y-127612000D01*
G75*
G02*
X189102000Y-127462000I150000J0D01*
G01*
X190752000Y-127462000D01*
G75*
G02*
X190902000Y-127612000I0J-150000D01*
G01*
X190902000Y-127912000D01*
G75*
G02*
X190752000Y-128062000I-150000J0D01*
G01*
X189102000Y-128062000D01*
G75*
G02*
X188952000Y-127912000I0J150000D01*
G01*
G37*
G36*
G01*
X188952000Y-129182000D02*
X188952000Y-128882000D01*
G75*
G02*
X189102000Y-128732000I150000J0D01*
G01*
X190752000Y-128732000D01*
G75*
G02*
X190902000Y-128882000I0J-150000D01*
G01*
X190902000Y-129182000D01*
G75*
G02*
X190752000Y-129332000I-150000J0D01*
G01*
X189102000Y-129332000D01*
G75*
G02*
X188952000Y-129182000I0J150000D01*
G01*
G37*
G36*
G01*
X188952000Y-130452000D02*
X188952000Y-130152000D01*
G75*
G02*
X189102000Y-130002000I150000J0D01*
G01*
X190752000Y-130002000D01*
G75*
G02*
X190902000Y-130152000I0J-150000D01*
G01*
X190902000Y-130452000D01*
G75*
G02*
X190752000Y-130602000I-150000J0D01*
G01*
X189102000Y-130602000D01*
G75*
G02*
X188952000Y-130452000I0J150000D01*
G01*
G37*
G36*
G01*
X188952000Y-131722000D02*
X188952000Y-131422000D01*
G75*
G02*
X189102000Y-131272000I150000J0D01*
G01*
X190752000Y-131272000D01*
G75*
G02*
X190902000Y-131422000I0J-150000D01*
G01*
X190902000Y-131722000D01*
G75*
G02*
X190752000Y-131872000I-150000J0D01*
G01*
X189102000Y-131872000D01*
G75*
G02*
X188952000Y-131722000I0J150000D01*
G01*
G37*
G36*
G01*
X188952000Y-132992000D02*
X188952000Y-132692000D01*
G75*
G02*
X189102000Y-132542000I150000J0D01*
G01*
X190752000Y-132542000D01*
G75*
G02*
X190902000Y-132692000I0J-150000D01*
G01*
X190902000Y-132992000D01*
G75*
G02*
X190752000Y-133142000I-150000J0D01*
G01*
X189102000Y-133142000D01*
G75*
G02*
X188952000Y-132992000I0J150000D01*
G01*
G37*
G36*
G01*
X188952000Y-134262000D02*
X188952000Y-133962000D01*
G75*
G02*
X189102000Y-133812000I150000J0D01*
G01*
X190752000Y-133812000D01*
G75*
G02*
X190902000Y-133962000I0J-150000D01*
G01*
X190902000Y-134262000D01*
G75*
G02*
X190752000Y-134412000I-150000J0D01*
G01*
X189102000Y-134412000D01*
G75*
G02*
X188952000Y-134262000I0J150000D01*
G01*
G37*
G36*
G01*
X188952000Y-135532000D02*
X188952000Y-135232000D01*
G75*
G02*
X189102000Y-135082000I150000J0D01*
G01*
X190752000Y-135082000D01*
G75*
G02*
X190902000Y-135232000I0J-150000D01*
G01*
X190902000Y-135532000D01*
G75*
G02*
X190752000Y-135682000I-150000J0D01*
G01*
X189102000Y-135682000D01*
G75*
G02*
X188952000Y-135532000I0J150000D01*
G01*
G37*
G36*
G01*
X184002000Y-135532000D02*
X184002000Y-135232000D01*
G75*
G02*
X184152000Y-135082000I150000J0D01*
G01*
X185802000Y-135082000D01*
G75*
G02*
X185952000Y-135232000I0J-150000D01*
G01*
X185952000Y-135532000D01*
G75*
G02*
X185802000Y-135682000I-150000J0D01*
G01*
X184152000Y-135682000D01*
G75*
G02*
X184002000Y-135532000I0J150000D01*
G01*
G37*
G36*
G01*
X184002000Y-134262000D02*
X184002000Y-133962000D01*
G75*
G02*
X184152000Y-133812000I150000J0D01*
G01*
X185802000Y-133812000D01*
G75*
G02*
X185952000Y-133962000I0J-150000D01*
G01*
X185952000Y-134262000D01*
G75*
G02*
X185802000Y-134412000I-150000J0D01*
G01*
X184152000Y-134412000D01*
G75*
G02*
X184002000Y-134262000I0J150000D01*
G01*
G37*
G36*
G01*
X184002000Y-132992000D02*
X184002000Y-132692000D01*
G75*
G02*
X184152000Y-132542000I150000J0D01*
G01*
X185802000Y-132542000D01*
G75*
G02*
X185952000Y-132692000I0J-150000D01*
G01*
X185952000Y-132992000D01*
G75*
G02*
X185802000Y-133142000I-150000J0D01*
G01*
X184152000Y-133142000D01*
G75*
G02*
X184002000Y-132992000I0J150000D01*
G01*
G37*
G36*
G01*
X184002000Y-131722000D02*
X184002000Y-131422000D01*
G75*
G02*
X184152000Y-131272000I150000J0D01*
G01*
X185802000Y-131272000D01*
G75*
G02*
X185952000Y-131422000I0J-150000D01*
G01*
X185952000Y-131722000D01*
G75*
G02*
X185802000Y-131872000I-150000J0D01*
G01*
X184152000Y-131872000D01*
G75*
G02*
X184002000Y-131722000I0J150000D01*
G01*
G37*
G36*
G01*
X184002000Y-130452000D02*
X184002000Y-130152000D01*
G75*
G02*
X184152000Y-130002000I150000J0D01*
G01*
X185802000Y-130002000D01*
G75*
G02*
X185952000Y-130152000I0J-150000D01*
G01*
X185952000Y-130452000D01*
G75*
G02*
X185802000Y-130602000I-150000J0D01*
G01*
X184152000Y-130602000D01*
G75*
G02*
X184002000Y-130452000I0J150000D01*
G01*
G37*
G36*
G01*
X184002000Y-129182000D02*
X184002000Y-128882000D01*
G75*
G02*
X184152000Y-128732000I150000J0D01*
G01*
X185802000Y-128732000D01*
G75*
G02*
X185952000Y-128882000I0J-150000D01*
G01*
X185952000Y-129182000D01*
G75*
G02*
X185802000Y-129332000I-150000J0D01*
G01*
X184152000Y-129332000D01*
G75*
G02*
X184002000Y-129182000I0J150000D01*
G01*
G37*
G36*
G01*
X184002000Y-127912000D02*
X184002000Y-127612000D01*
G75*
G02*
X184152000Y-127462000I150000J0D01*
G01*
X185802000Y-127462000D01*
G75*
G02*
X185952000Y-127612000I0J-150000D01*
G01*
X185952000Y-127912000D01*
G75*
G02*
X185802000Y-128062000I-150000J0D01*
G01*
X184152000Y-128062000D01*
G75*
G02*
X184002000Y-127912000I0J150000D01*
G01*
G37*
%TD*%
%TO.C,U7*%
G36*
G01*
X207240000Y-112672000D02*
X207240000Y-112372000D01*
G75*
G02*
X207390000Y-112222000I150000J0D01*
G01*
X209040000Y-112222000D01*
G75*
G02*
X209190000Y-112372000I0J-150000D01*
G01*
X209190000Y-112672000D01*
G75*
G02*
X209040000Y-112822000I-150000J0D01*
G01*
X207390000Y-112822000D01*
G75*
G02*
X207240000Y-112672000I0J150000D01*
G01*
G37*
G36*
G01*
X207240000Y-113942000D02*
X207240000Y-113642000D01*
G75*
G02*
X207390000Y-113492000I150000J0D01*
G01*
X209040000Y-113492000D01*
G75*
G02*
X209190000Y-113642000I0J-150000D01*
G01*
X209190000Y-113942000D01*
G75*
G02*
X209040000Y-114092000I-150000J0D01*
G01*
X207390000Y-114092000D01*
G75*
G02*
X207240000Y-113942000I0J150000D01*
G01*
G37*
G36*
G01*
X207240000Y-115212000D02*
X207240000Y-114912000D01*
G75*
G02*
X207390000Y-114762000I150000J0D01*
G01*
X209040000Y-114762000D01*
G75*
G02*
X209190000Y-114912000I0J-150000D01*
G01*
X209190000Y-115212000D01*
G75*
G02*
X209040000Y-115362000I-150000J0D01*
G01*
X207390000Y-115362000D01*
G75*
G02*
X207240000Y-115212000I0J150000D01*
G01*
G37*
G36*
G01*
X207240000Y-116482000D02*
X207240000Y-116182000D01*
G75*
G02*
X207390000Y-116032000I150000J0D01*
G01*
X209040000Y-116032000D01*
G75*
G02*
X209190000Y-116182000I0J-150000D01*
G01*
X209190000Y-116482000D01*
G75*
G02*
X209040000Y-116632000I-150000J0D01*
G01*
X207390000Y-116632000D01*
G75*
G02*
X207240000Y-116482000I0J150000D01*
G01*
G37*
G36*
G01*
X207240000Y-117752000D02*
X207240000Y-117452000D01*
G75*
G02*
X207390000Y-117302000I150000J0D01*
G01*
X209040000Y-117302000D01*
G75*
G02*
X209190000Y-117452000I0J-150000D01*
G01*
X209190000Y-117752000D01*
G75*
G02*
X209040000Y-117902000I-150000J0D01*
G01*
X207390000Y-117902000D01*
G75*
G02*
X207240000Y-117752000I0J150000D01*
G01*
G37*
G36*
G01*
X207240000Y-119022000D02*
X207240000Y-118722000D01*
G75*
G02*
X207390000Y-118572000I150000J0D01*
G01*
X209040000Y-118572000D01*
G75*
G02*
X209190000Y-118722000I0J-150000D01*
G01*
X209190000Y-119022000D01*
G75*
G02*
X209040000Y-119172000I-150000J0D01*
G01*
X207390000Y-119172000D01*
G75*
G02*
X207240000Y-119022000I0J150000D01*
G01*
G37*
G36*
G01*
X207240000Y-120292000D02*
X207240000Y-119992000D01*
G75*
G02*
X207390000Y-119842000I150000J0D01*
G01*
X209040000Y-119842000D01*
G75*
G02*
X209190000Y-119992000I0J-150000D01*
G01*
X209190000Y-120292000D01*
G75*
G02*
X209040000Y-120442000I-150000J0D01*
G01*
X207390000Y-120442000D01*
G75*
G02*
X207240000Y-120292000I0J150000D01*
G01*
G37*
G36*
G01*
X202290000Y-120292000D02*
X202290000Y-119992000D01*
G75*
G02*
X202440000Y-119842000I150000J0D01*
G01*
X204090000Y-119842000D01*
G75*
G02*
X204240000Y-119992000I0J-150000D01*
G01*
X204240000Y-120292000D01*
G75*
G02*
X204090000Y-120442000I-150000J0D01*
G01*
X202440000Y-120442000D01*
G75*
G02*
X202290000Y-120292000I0J150000D01*
G01*
G37*
G36*
G01*
X202290000Y-119022000D02*
X202290000Y-118722000D01*
G75*
G02*
X202440000Y-118572000I150000J0D01*
G01*
X204090000Y-118572000D01*
G75*
G02*
X204240000Y-118722000I0J-150000D01*
G01*
X204240000Y-119022000D01*
G75*
G02*
X204090000Y-119172000I-150000J0D01*
G01*
X202440000Y-119172000D01*
G75*
G02*
X202290000Y-119022000I0J150000D01*
G01*
G37*
G36*
G01*
X202290000Y-117752000D02*
X202290000Y-117452000D01*
G75*
G02*
X202440000Y-117302000I150000J0D01*
G01*
X204090000Y-117302000D01*
G75*
G02*
X204240000Y-117452000I0J-150000D01*
G01*
X204240000Y-117752000D01*
G75*
G02*
X204090000Y-117902000I-150000J0D01*
G01*
X202440000Y-117902000D01*
G75*
G02*
X202290000Y-117752000I0J150000D01*
G01*
G37*
G36*
G01*
X202290000Y-116482000D02*
X202290000Y-116182000D01*
G75*
G02*
X202440000Y-116032000I150000J0D01*
G01*
X204090000Y-116032000D01*
G75*
G02*
X204240000Y-116182000I0J-150000D01*
G01*
X204240000Y-116482000D01*
G75*
G02*
X204090000Y-116632000I-150000J0D01*
G01*
X202440000Y-116632000D01*
G75*
G02*
X202290000Y-116482000I0J150000D01*
G01*
G37*
G36*
G01*
X202290000Y-115212000D02*
X202290000Y-114912000D01*
G75*
G02*
X202440000Y-114762000I150000J0D01*
G01*
X204090000Y-114762000D01*
G75*
G02*
X204240000Y-114912000I0J-150000D01*
G01*
X204240000Y-115212000D01*
G75*
G02*
X204090000Y-115362000I-150000J0D01*
G01*
X202440000Y-115362000D01*
G75*
G02*
X202290000Y-115212000I0J150000D01*
G01*
G37*
G36*
G01*
X202290000Y-113942000D02*
X202290000Y-113642000D01*
G75*
G02*
X202440000Y-113492000I150000J0D01*
G01*
X204090000Y-113492000D01*
G75*
G02*
X204240000Y-113642000I0J-150000D01*
G01*
X204240000Y-113942000D01*
G75*
G02*
X204090000Y-114092000I-150000J0D01*
G01*
X202440000Y-114092000D01*
G75*
G02*
X202290000Y-113942000I0J150000D01*
G01*
G37*
G36*
G01*
X202290000Y-112672000D02*
X202290000Y-112372000D01*
G75*
G02*
X202440000Y-112222000I150000J0D01*
G01*
X204090000Y-112222000D01*
G75*
G02*
X204240000Y-112372000I0J-150000D01*
G01*
X204240000Y-112672000D01*
G75*
G02*
X204090000Y-112822000I-150000J0D01*
G01*
X202440000Y-112822000D01*
G75*
G02*
X202290000Y-112672000I0J150000D01*
G01*
G37*
%TD*%
%TO.C,U6*%
G36*
G01*
X172188000Y-127912000D02*
X172188000Y-127612000D01*
G75*
G02*
X172338000Y-127462000I150000J0D01*
G01*
X173988000Y-127462000D01*
G75*
G02*
X174138000Y-127612000I0J-150000D01*
G01*
X174138000Y-127912000D01*
G75*
G02*
X173988000Y-128062000I-150000J0D01*
G01*
X172338000Y-128062000D01*
G75*
G02*
X172188000Y-127912000I0J150000D01*
G01*
G37*
G36*
G01*
X172188000Y-129182000D02*
X172188000Y-128882000D01*
G75*
G02*
X172338000Y-128732000I150000J0D01*
G01*
X173988000Y-128732000D01*
G75*
G02*
X174138000Y-128882000I0J-150000D01*
G01*
X174138000Y-129182000D01*
G75*
G02*
X173988000Y-129332000I-150000J0D01*
G01*
X172338000Y-129332000D01*
G75*
G02*
X172188000Y-129182000I0J150000D01*
G01*
G37*
G36*
G01*
X172188000Y-130452000D02*
X172188000Y-130152000D01*
G75*
G02*
X172338000Y-130002000I150000J0D01*
G01*
X173988000Y-130002000D01*
G75*
G02*
X174138000Y-130152000I0J-150000D01*
G01*
X174138000Y-130452000D01*
G75*
G02*
X173988000Y-130602000I-150000J0D01*
G01*
X172338000Y-130602000D01*
G75*
G02*
X172188000Y-130452000I0J150000D01*
G01*
G37*
G36*
G01*
X172188000Y-131722000D02*
X172188000Y-131422000D01*
G75*
G02*
X172338000Y-131272000I150000J0D01*
G01*
X173988000Y-131272000D01*
G75*
G02*
X174138000Y-131422000I0J-150000D01*
G01*
X174138000Y-131722000D01*
G75*
G02*
X173988000Y-131872000I-150000J0D01*
G01*
X172338000Y-131872000D01*
G75*
G02*
X172188000Y-131722000I0J150000D01*
G01*
G37*
G36*
G01*
X172188000Y-132992000D02*
X172188000Y-132692000D01*
G75*
G02*
X172338000Y-132542000I150000J0D01*
G01*
X173988000Y-132542000D01*
G75*
G02*
X174138000Y-132692000I0J-150000D01*
G01*
X174138000Y-132992000D01*
G75*
G02*
X173988000Y-133142000I-150000J0D01*
G01*
X172338000Y-133142000D01*
G75*
G02*
X172188000Y-132992000I0J150000D01*
G01*
G37*
G36*
G01*
X172188000Y-134262000D02*
X172188000Y-133962000D01*
G75*
G02*
X172338000Y-133812000I150000J0D01*
G01*
X173988000Y-133812000D01*
G75*
G02*
X174138000Y-133962000I0J-150000D01*
G01*
X174138000Y-134262000D01*
G75*
G02*
X173988000Y-134412000I-150000J0D01*
G01*
X172338000Y-134412000D01*
G75*
G02*
X172188000Y-134262000I0J150000D01*
G01*
G37*
G36*
G01*
X172188000Y-135532000D02*
X172188000Y-135232000D01*
G75*
G02*
X172338000Y-135082000I150000J0D01*
G01*
X173988000Y-135082000D01*
G75*
G02*
X174138000Y-135232000I0J-150000D01*
G01*
X174138000Y-135532000D01*
G75*
G02*
X173988000Y-135682000I-150000J0D01*
G01*
X172338000Y-135682000D01*
G75*
G02*
X172188000Y-135532000I0J150000D01*
G01*
G37*
G36*
G01*
X167238000Y-135532000D02*
X167238000Y-135232000D01*
G75*
G02*
X167388000Y-135082000I150000J0D01*
G01*
X169038000Y-135082000D01*
G75*
G02*
X169188000Y-135232000I0J-150000D01*
G01*
X169188000Y-135532000D01*
G75*
G02*
X169038000Y-135682000I-150000J0D01*
G01*
X167388000Y-135682000D01*
G75*
G02*
X167238000Y-135532000I0J150000D01*
G01*
G37*
G36*
G01*
X167238000Y-134262000D02*
X167238000Y-133962000D01*
G75*
G02*
X167388000Y-133812000I150000J0D01*
G01*
X169038000Y-133812000D01*
G75*
G02*
X169188000Y-133962000I0J-150000D01*
G01*
X169188000Y-134262000D01*
G75*
G02*
X169038000Y-134412000I-150000J0D01*
G01*
X167388000Y-134412000D01*
G75*
G02*
X167238000Y-134262000I0J150000D01*
G01*
G37*
G36*
G01*
X167238000Y-132992000D02*
X167238000Y-132692000D01*
G75*
G02*
X167388000Y-132542000I150000J0D01*
G01*
X169038000Y-132542000D01*
G75*
G02*
X169188000Y-132692000I0J-150000D01*
G01*
X169188000Y-132992000D01*
G75*
G02*
X169038000Y-133142000I-150000J0D01*
G01*
X167388000Y-133142000D01*
G75*
G02*
X167238000Y-132992000I0J150000D01*
G01*
G37*
G36*
G01*
X167238000Y-131722000D02*
X167238000Y-131422000D01*
G75*
G02*
X167388000Y-131272000I150000J0D01*
G01*
X169038000Y-131272000D01*
G75*
G02*
X169188000Y-131422000I0J-150000D01*
G01*
X169188000Y-131722000D01*
G75*
G02*
X169038000Y-131872000I-150000J0D01*
G01*
X167388000Y-131872000D01*
G75*
G02*
X167238000Y-131722000I0J150000D01*
G01*
G37*
G36*
G01*
X167238000Y-130452000D02*
X167238000Y-130152000D01*
G75*
G02*
X167388000Y-130002000I150000J0D01*
G01*
X169038000Y-130002000D01*
G75*
G02*
X169188000Y-130152000I0J-150000D01*
G01*
X169188000Y-130452000D01*
G75*
G02*
X169038000Y-130602000I-150000J0D01*
G01*
X167388000Y-130602000D01*
G75*
G02*
X167238000Y-130452000I0J150000D01*
G01*
G37*
G36*
G01*
X167238000Y-129182000D02*
X167238000Y-128882000D01*
G75*
G02*
X167388000Y-128732000I150000J0D01*
G01*
X169038000Y-128732000D01*
G75*
G02*
X169188000Y-128882000I0J-150000D01*
G01*
X169188000Y-129182000D01*
G75*
G02*
X169038000Y-129332000I-150000J0D01*
G01*
X167388000Y-129332000D01*
G75*
G02*
X167238000Y-129182000I0J150000D01*
G01*
G37*
G36*
G01*
X167238000Y-127912000D02*
X167238000Y-127612000D01*
G75*
G02*
X167388000Y-127462000I150000J0D01*
G01*
X169038000Y-127462000D01*
G75*
G02*
X169188000Y-127612000I0J-150000D01*
G01*
X169188000Y-127912000D01*
G75*
G02*
X169038000Y-128062000I-150000J0D01*
G01*
X167388000Y-128062000D01*
G75*
G02*
X167238000Y-127912000I0J150000D01*
G01*
G37*
%TD*%
%TO.C,U5*%
G36*
G01*
X198096000Y-127912000D02*
X198096000Y-127612000D01*
G75*
G02*
X198246000Y-127462000I150000J0D01*
G01*
X199896000Y-127462000D01*
G75*
G02*
X200046000Y-127612000I0J-150000D01*
G01*
X200046000Y-127912000D01*
G75*
G02*
X199896000Y-128062000I-150000J0D01*
G01*
X198246000Y-128062000D01*
G75*
G02*
X198096000Y-127912000I0J150000D01*
G01*
G37*
G36*
G01*
X198096000Y-129182000D02*
X198096000Y-128882000D01*
G75*
G02*
X198246000Y-128732000I150000J0D01*
G01*
X199896000Y-128732000D01*
G75*
G02*
X200046000Y-128882000I0J-150000D01*
G01*
X200046000Y-129182000D01*
G75*
G02*
X199896000Y-129332000I-150000J0D01*
G01*
X198246000Y-129332000D01*
G75*
G02*
X198096000Y-129182000I0J150000D01*
G01*
G37*
G36*
G01*
X198096000Y-130452000D02*
X198096000Y-130152000D01*
G75*
G02*
X198246000Y-130002000I150000J0D01*
G01*
X199896000Y-130002000D01*
G75*
G02*
X200046000Y-130152000I0J-150000D01*
G01*
X200046000Y-130452000D01*
G75*
G02*
X199896000Y-130602000I-150000J0D01*
G01*
X198246000Y-130602000D01*
G75*
G02*
X198096000Y-130452000I0J150000D01*
G01*
G37*
G36*
G01*
X198096000Y-131722000D02*
X198096000Y-131422000D01*
G75*
G02*
X198246000Y-131272000I150000J0D01*
G01*
X199896000Y-131272000D01*
G75*
G02*
X200046000Y-131422000I0J-150000D01*
G01*
X200046000Y-131722000D01*
G75*
G02*
X199896000Y-131872000I-150000J0D01*
G01*
X198246000Y-131872000D01*
G75*
G02*
X198096000Y-131722000I0J150000D01*
G01*
G37*
G36*
G01*
X198096000Y-132992000D02*
X198096000Y-132692000D01*
G75*
G02*
X198246000Y-132542000I150000J0D01*
G01*
X199896000Y-132542000D01*
G75*
G02*
X200046000Y-132692000I0J-150000D01*
G01*
X200046000Y-132992000D01*
G75*
G02*
X199896000Y-133142000I-150000J0D01*
G01*
X198246000Y-133142000D01*
G75*
G02*
X198096000Y-132992000I0J150000D01*
G01*
G37*
G36*
G01*
X198096000Y-134262000D02*
X198096000Y-133962000D01*
G75*
G02*
X198246000Y-133812000I150000J0D01*
G01*
X199896000Y-133812000D01*
G75*
G02*
X200046000Y-133962000I0J-150000D01*
G01*
X200046000Y-134262000D01*
G75*
G02*
X199896000Y-134412000I-150000J0D01*
G01*
X198246000Y-134412000D01*
G75*
G02*
X198096000Y-134262000I0J150000D01*
G01*
G37*
G36*
G01*
X198096000Y-135532000D02*
X198096000Y-135232000D01*
G75*
G02*
X198246000Y-135082000I150000J0D01*
G01*
X199896000Y-135082000D01*
G75*
G02*
X200046000Y-135232000I0J-150000D01*
G01*
X200046000Y-135532000D01*
G75*
G02*
X199896000Y-135682000I-150000J0D01*
G01*
X198246000Y-135682000D01*
G75*
G02*
X198096000Y-135532000I0J150000D01*
G01*
G37*
G36*
G01*
X193146000Y-135532000D02*
X193146000Y-135232000D01*
G75*
G02*
X193296000Y-135082000I150000J0D01*
G01*
X194946000Y-135082000D01*
G75*
G02*
X195096000Y-135232000I0J-150000D01*
G01*
X195096000Y-135532000D01*
G75*
G02*
X194946000Y-135682000I-150000J0D01*
G01*
X193296000Y-135682000D01*
G75*
G02*
X193146000Y-135532000I0J150000D01*
G01*
G37*
G36*
G01*
X193146000Y-134262000D02*
X193146000Y-133962000D01*
G75*
G02*
X193296000Y-133812000I150000J0D01*
G01*
X194946000Y-133812000D01*
G75*
G02*
X195096000Y-133962000I0J-150000D01*
G01*
X195096000Y-134262000D01*
G75*
G02*
X194946000Y-134412000I-150000J0D01*
G01*
X193296000Y-134412000D01*
G75*
G02*
X193146000Y-134262000I0J150000D01*
G01*
G37*
G36*
G01*
X193146000Y-132992000D02*
X193146000Y-132692000D01*
G75*
G02*
X193296000Y-132542000I150000J0D01*
G01*
X194946000Y-132542000D01*
G75*
G02*
X195096000Y-132692000I0J-150000D01*
G01*
X195096000Y-132992000D01*
G75*
G02*
X194946000Y-133142000I-150000J0D01*
G01*
X193296000Y-133142000D01*
G75*
G02*
X193146000Y-132992000I0J150000D01*
G01*
G37*
G36*
G01*
X193146000Y-131722000D02*
X193146000Y-131422000D01*
G75*
G02*
X193296000Y-131272000I150000J0D01*
G01*
X194946000Y-131272000D01*
G75*
G02*
X195096000Y-131422000I0J-150000D01*
G01*
X195096000Y-131722000D01*
G75*
G02*
X194946000Y-131872000I-150000J0D01*
G01*
X193296000Y-131872000D01*
G75*
G02*
X193146000Y-131722000I0J150000D01*
G01*
G37*
G36*
G01*
X193146000Y-130452000D02*
X193146000Y-130152000D01*
G75*
G02*
X193296000Y-130002000I150000J0D01*
G01*
X194946000Y-130002000D01*
G75*
G02*
X195096000Y-130152000I0J-150000D01*
G01*
X195096000Y-130452000D01*
G75*
G02*
X194946000Y-130602000I-150000J0D01*
G01*
X193296000Y-130602000D01*
G75*
G02*
X193146000Y-130452000I0J150000D01*
G01*
G37*
G36*
G01*
X193146000Y-129182000D02*
X193146000Y-128882000D01*
G75*
G02*
X193296000Y-128732000I150000J0D01*
G01*
X194946000Y-128732000D01*
G75*
G02*
X195096000Y-128882000I0J-150000D01*
G01*
X195096000Y-129182000D01*
G75*
G02*
X194946000Y-129332000I-150000J0D01*
G01*
X193296000Y-129332000D01*
G75*
G02*
X193146000Y-129182000I0J150000D01*
G01*
G37*
G36*
G01*
X193146000Y-127912000D02*
X193146000Y-127612000D01*
G75*
G02*
X193296000Y-127462000I150000J0D01*
G01*
X194946000Y-127462000D01*
G75*
G02*
X195096000Y-127612000I0J-150000D01*
G01*
X195096000Y-127912000D01*
G75*
G02*
X194946000Y-128062000I-150000J0D01*
G01*
X193296000Y-128062000D01*
G75*
G02*
X193146000Y-127912000I0J150000D01*
G01*
G37*
%TD*%
%TO.C,U4*%
G36*
G01*
X198096000Y-112672000D02*
X198096000Y-112372000D01*
G75*
G02*
X198246000Y-112222000I150000J0D01*
G01*
X199896000Y-112222000D01*
G75*
G02*
X200046000Y-112372000I0J-150000D01*
G01*
X200046000Y-112672000D01*
G75*
G02*
X199896000Y-112822000I-150000J0D01*
G01*
X198246000Y-112822000D01*
G75*
G02*
X198096000Y-112672000I0J150000D01*
G01*
G37*
G36*
G01*
X198096000Y-113942000D02*
X198096000Y-113642000D01*
G75*
G02*
X198246000Y-113492000I150000J0D01*
G01*
X199896000Y-113492000D01*
G75*
G02*
X200046000Y-113642000I0J-150000D01*
G01*
X200046000Y-113942000D01*
G75*
G02*
X199896000Y-114092000I-150000J0D01*
G01*
X198246000Y-114092000D01*
G75*
G02*
X198096000Y-113942000I0J150000D01*
G01*
G37*
G36*
G01*
X198096000Y-115212000D02*
X198096000Y-114912000D01*
G75*
G02*
X198246000Y-114762000I150000J0D01*
G01*
X199896000Y-114762000D01*
G75*
G02*
X200046000Y-114912000I0J-150000D01*
G01*
X200046000Y-115212000D01*
G75*
G02*
X199896000Y-115362000I-150000J0D01*
G01*
X198246000Y-115362000D01*
G75*
G02*
X198096000Y-115212000I0J150000D01*
G01*
G37*
G36*
G01*
X198096000Y-116482000D02*
X198096000Y-116182000D01*
G75*
G02*
X198246000Y-116032000I150000J0D01*
G01*
X199896000Y-116032000D01*
G75*
G02*
X200046000Y-116182000I0J-150000D01*
G01*
X200046000Y-116482000D01*
G75*
G02*
X199896000Y-116632000I-150000J0D01*
G01*
X198246000Y-116632000D01*
G75*
G02*
X198096000Y-116482000I0J150000D01*
G01*
G37*
G36*
G01*
X198096000Y-117752000D02*
X198096000Y-117452000D01*
G75*
G02*
X198246000Y-117302000I150000J0D01*
G01*
X199896000Y-117302000D01*
G75*
G02*
X200046000Y-117452000I0J-150000D01*
G01*
X200046000Y-117752000D01*
G75*
G02*
X199896000Y-117902000I-150000J0D01*
G01*
X198246000Y-117902000D01*
G75*
G02*
X198096000Y-117752000I0J150000D01*
G01*
G37*
G36*
G01*
X198096000Y-119022000D02*
X198096000Y-118722000D01*
G75*
G02*
X198246000Y-118572000I150000J0D01*
G01*
X199896000Y-118572000D01*
G75*
G02*
X200046000Y-118722000I0J-150000D01*
G01*
X200046000Y-119022000D01*
G75*
G02*
X199896000Y-119172000I-150000J0D01*
G01*
X198246000Y-119172000D01*
G75*
G02*
X198096000Y-119022000I0J150000D01*
G01*
G37*
G36*
G01*
X198096000Y-120292000D02*
X198096000Y-119992000D01*
G75*
G02*
X198246000Y-119842000I150000J0D01*
G01*
X199896000Y-119842000D01*
G75*
G02*
X200046000Y-119992000I0J-150000D01*
G01*
X200046000Y-120292000D01*
G75*
G02*
X199896000Y-120442000I-150000J0D01*
G01*
X198246000Y-120442000D01*
G75*
G02*
X198096000Y-120292000I0J150000D01*
G01*
G37*
G36*
G01*
X193146000Y-120292000D02*
X193146000Y-119992000D01*
G75*
G02*
X193296000Y-119842000I150000J0D01*
G01*
X194946000Y-119842000D01*
G75*
G02*
X195096000Y-119992000I0J-150000D01*
G01*
X195096000Y-120292000D01*
G75*
G02*
X194946000Y-120442000I-150000J0D01*
G01*
X193296000Y-120442000D01*
G75*
G02*
X193146000Y-120292000I0J150000D01*
G01*
G37*
G36*
G01*
X193146000Y-119022000D02*
X193146000Y-118722000D01*
G75*
G02*
X193296000Y-118572000I150000J0D01*
G01*
X194946000Y-118572000D01*
G75*
G02*
X195096000Y-118722000I0J-150000D01*
G01*
X195096000Y-119022000D01*
G75*
G02*
X194946000Y-119172000I-150000J0D01*
G01*
X193296000Y-119172000D01*
G75*
G02*
X193146000Y-119022000I0J150000D01*
G01*
G37*
G36*
G01*
X193146000Y-117752000D02*
X193146000Y-117452000D01*
G75*
G02*
X193296000Y-117302000I150000J0D01*
G01*
X194946000Y-117302000D01*
G75*
G02*
X195096000Y-117452000I0J-150000D01*
G01*
X195096000Y-117752000D01*
G75*
G02*
X194946000Y-117902000I-150000J0D01*
G01*
X193296000Y-117902000D01*
G75*
G02*
X193146000Y-117752000I0J150000D01*
G01*
G37*
G36*
G01*
X193146000Y-116482000D02*
X193146000Y-116182000D01*
G75*
G02*
X193296000Y-116032000I150000J0D01*
G01*
X194946000Y-116032000D01*
G75*
G02*
X195096000Y-116182000I0J-150000D01*
G01*
X195096000Y-116482000D01*
G75*
G02*
X194946000Y-116632000I-150000J0D01*
G01*
X193296000Y-116632000D01*
G75*
G02*
X193146000Y-116482000I0J150000D01*
G01*
G37*
G36*
G01*
X193146000Y-115212000D02*
X193146000Y-114912000D01*
G75*
G02*
X193296000Y-114762000I150000J0D01*
G01*
X194946000Y-114762000D01*
G75*
G02*
X195096000Y-114912000I0J-150000D01*
G01*
X195096000Y-115212000D01*
G75*
G02*
X194946000Y-115362000I-150000J0D01*
G01*
X193296000Y-115362000D01*
G75*
G02*
X193146000Y-115212000I0J150000D01*
G01*
G37*
G36*
G01*
X193146000Y-113942000D02*
X193146000Y-113642000D01*
G75*
G02*
X193296000Y-113492000I150000J0D01*
G01*
X194946000Y-113492000D01*
G75*
G02*
X195096000Y-113642000I0J-150000D01*
G01*
X195096000Y-113942000D01*
G75*
G02*
X194946000Y-114092000I-150000J0D01*
G01*
X193296000Y-114092000D01*
G75*
G02*
X193146000Y-113942000I0J150000D01*
G01*
G37*
G36*
G01*
X193146000Y-112672000D02*
X193146000Y-112372000D01*
G75*
G02*
X193296000Y-112222000I150000J0D01*
G01*
X194946000Y-112222000D01*
G75*
G02*
X195096000Y-112372000I0J-150000D01*
G01*
X195096000Y-112672000D01*
G75*
G02*
X194946000Y-112822000I-150000J0D01*
G01*
X193296000Y-112822000D01*
G75*
G02*
X193146000Y-112672000I0J150000D01*
G01*
G37*
%TD*%
%TO.C,U3*%
G36*
G01*
X188952000Y-112672000D02*
X188952000Y-112372000D01*
G75*
G02*
X189102000Y-112222000I150000J0D01*
G01*
X190752000Y-112222000D01*
G75*
G02*
X190902000Y-112372000I0J-150000D01*
G01*
X190902000Y-112672000D01*
G75*
G02*
X190752000Y-112822000I-150000J0D01*
G01*
X189102000Y-112822000D01*
G75*
G02*
X188952000Y-112672000I0J150000D01*
G01*
G37*
G36*
G01*
X188952000Y-113942000D02*
X188952000Y-113642000D01*
G75*
G02*
X189102000Y-113492000I150000J0D01*
G01*
X190752000Y-113492000D01*
G75*
G02*
X190902000Y-113642000I0J-150000D01*
G01*
X190902000Y-113942000D01*
G75*
G02*
X190752000Y-114092000I-150000J0D01*
G01*
X189102000Y-114092000D01*
G75*
G02*
X188952000Y-113942000I0J150000D01*
G01*
G37*
G36*
G01*
X188952000Y-115212000D02*
X188952000Y-114912000D01*
G75*
G02*
X189102000Y-114762000I150000J0D01*
G01*
X190752000Y-114762000D01*
G75*
G02*
X190902000Y-114912000I0J-150000D01*
G01*
X190902000Y-115212000D01*
G75*
G02*
X190752000Y-115362000I-150000J0D01*
G01*
X189102000Y-115362000D01*
G75*
G02*
X188952000Y-115212000I0J150000D01*
G01*
G37*
G36*
G01*
X188952000Y-116482000D02*
X188952000Y-116182000D01*
G75*
G02*
X189102000Y-116032000I150000J0D01*
G01*
X190752000Y-116032000D01*
G75*
G02*
X190902000Y-116182000I0J-150000D01*
G01*
X190902000Y-116482000D01*
G75*
G02*
X190752000Y-116632000I-150000J0D01*
G01*
X189102000Y-116632000D01*
G75*
G02*
X188952000Y-116482000I0J150000D01*
G01*
G37*
G36*
G01*
X188952000Y-117752000D02*
X188952000Y-117452000D01*
G75*
G02*
X189102000Y-117302000I150000J0D01*
G01*
X190752000Y-117302000D01*
G75*
G02*
X190902000Y-117452000I0J-150000D01*
G01*
X190902000Y-117752000D01*
G75*
G02*
X190752000Y-117902000I-150000J0D01*
G01*
X189102000Y-117902000D01*
G75*
G02*
X188952000Y-117752000I0J150000D01*
G01*
G37*
G36*
G01*
X188952000Y-119022000D02*
X188952000Y-118722000D01*
G75*
G02*
X189102000Y-118572000I150000J0D01*
G01*
X190752000Y-118572000D01*
G75*
G02*
X190902000Y-118722000I0J-150000D01*
G01*
X190902000Y-119022000D01*
G75*
G02*
X190752000Y-119172000I-150000J0D01*
G01*
X189102000Y-119172000D01*
G75*
G02*
X188952000Y-119022000I0J150000D01*
G01*
G37*
G36*
G01*
X188952000Y-120292000D02*
X188952000Y-119992000D01*
G75*
G02*
X189102000Y-119842000I150000J0D01*
G01*
X190752000Y-119842000D01*
G75*
G02*
X190902000Y-119992000I0J-150000D01*
G01*
X190902000Y-120292000D01*
G75*
G02*
X190752000Y-120442000I-150000J0D01*
G01*
X189102000Y-120442000D01*
G75*
G02*
X188952000Y-120292000I0J150000D01*
G01*
G37*
G36*
G01*
X184002000Y-120292000D02*
X184002000Y-119992000D01*
G75*
G02*
X184152000Y-119842000I150000J0D01*
G01*
X185802000Y-119842000D01*
G75*
G02*
X185952000Y-119992000I0J-150000D01*
G01*
X185952000Y-120292000D01*
G75*
G02*
X185802000Y-120442000I-150000J0D01*
G01*
X184152000Y-120442000D01*
G75*
G02*
X184002000Y-120292000I0J150000D01*
G01*
G37*
G36*
G01*
X184002000Y-119022000D02*
X184002000Y-118722000D01*
G75*
G02*
X184152000Y-118572000I150000J0D01*
G01*
X185802000Y-118572000D01*
G75*
G02*
X185952000Y-118722000I0J-150000D01*
G01*
X185952000Y-119022000D01*
G75*
G02*
X185802000Y-119172000I-150000J0D01*
G01*
X184152000Y-119172000D01*
G75*
G02*
X184002000Y-119022000I0J150000D01*
G01*
G37*
G36*
G01*
X184002000Y-117752000D02*
X184002000Y-117452000D01*
G75*
G02*
X184152000Y-117302000I150000J0D01*
G01*
X185802000Y-117302000D01*
G75*
G02*
X185952000Y-117452000I0J-150000D01*
G01*
X185952000Y-117752000D01*
G75*
G02*
X185802000Y-117902000I-150000J0D01*
G01*
X184152000Y-117902000D01*
G75*
G02*
X184002000Y-117752000I0J150000D01*
G01*
G37*
G36*
G01*
X184002000Y-116482000D02*
X184002000Y-116182000D01*
G75*
G02*
X184152000Y-116032000I150000J0D01*
G01*
X185802000Y-116032000D01*
G75*
G02*
X185952000Y-116182000I0J-150000D01*
G01*
X185952000Y-116482000D01*
G75*
G02*
X185802000Y-116632000I-150000J0D01*
G01*
X184152000Y-116632000D01*
G75*
G02*
X184002000Y-116482000I0J150000D01*
G01*
G37*
G36*
G01*
X184002000Y-115212000D02*
X184002000Y-114912000D01*
G75*
G02*
X184152000Y-114762000I150000J0D01*
G01*
X185802000Y-114762000D01*
G75*
G02*
X185952000Y-114912000I0J-150000D01*
G01*
X185952000Y-115212000D01*
G75*
G02*
X185802000Y-115362000I-150000J0D01*
G01*
X184152000Y-115362000D01*
G75*
G02*
X184002000Y-115212000I0J150000D01*
G01*
G37*
G36*
G01*
X184002000Y-113942000D02*
X184002000Y-113642000D01*
G75*
G02*
X184152000Y-113492000I150000J0D01*
G01*
X185802000Y-113492000D01*
G75*
G02*
X185952000Y-113642000I0J-150000D01*
G01*
X185952000Y-113942000D01*
G75*
G02*
X185802000Y-114092000I-150000J0D01*
G01*
X184152000Y-114092000D01*
G75*
G02*
X184002000Y-113942000I0J150000D01*
G01*
G37*
G36*
G01*
X184002000Y-112672000D02*
X184002000Y-112372000D01*
G75*
G02*
X184152000Y-112222000I150000J0D01*
G01*
X185802000Y-112222000D01*
G75*
G02*
X185952000Y-112372000I0J-150000D01*
G01*
X185952000Y-112672000D01*
G75*
G02*
X185802000Y-112822000I-150000J0D01*
G01*
X184152000Y-112822000D01*
G75*
G02*
X184002000Y-112672000I0J150000D01*
G01*
G37*
%TD*%
%TO.C,U2*%
G36*
G01*
X172188000Y-112672000D02*
X172188000Y-112372000D01*
G75*
G02*
X172338000Y-112222000I150000J0D01*
G01*
X173988000Y-112222000D01*
G75*
G02*
X174138000Y-112372000I0J-150000D01*
G01*
X174138000Y-112672000D01*
G75*
G02*
X173988000Y-112822000I-150000J0D01*
G01*
X172338000Y-112822000D01*
G75*
G02*
X172188000Y-112672000I0J150000D01*
G01*
G37*
G36*
G01*
X172188000Y-113942000D02*
X172188000Y-113642000D01*
G75*
G02*
X172338000Y-113492000I150000J0D01*
G01*
X173988000Y-113492000D01*
G75*
G02*
X174138000Y-113642000I0J-150000D01*
G01*
X174138000Y-113942000D01*
G75*
G02*
X173988000Y-114092000I-150000J0D01*
G01*
X172338000Y-114092000D01*
G75*
G02*
X172188000Y-113942000I0J150000D01*
G01*
G37*
G36*
G01*
X172188000Y-115212000D02*
X172188000Y-114912000D01*
G75*
G02*
X172338000Y-114762000I150000J0D01*
G01*
X173988000Y-114762000D01*
G75*
G02*
X174138000Y-114912000I0J-150000D01*
G01*
X174138000Y-115212000D01*
G75*
G02*
X173988000Y-115362000I-150000J0D01*
G01*
X172338000Y-115362000D01*
G75*
G02*
X172188000Y-115212000I0J150000D01*
G01*
G37*
G36*
G01*
X172188000Y-116482000D02*
X172188000Y-116182000D01*
G75*
G02*
X172338000Y-116032000I150000J0D01*
G01*
X173988000Y-116032000D01*
G75*
G02*
X174138000Y-116182000I0J-150000D01*
G01*
X174138000Y-116482000D01*
G75*
G02*
X173988000Y-116632000I-150000J0D01*
G01*
X172338000Y-116632000D01*
G75*
G02*
X172188000Y-116482000I0J150000D01*
G01*
G37*
G36*
G01*
X172188000Y-117752000D02*
X172188000Y-117452000D01*
G75*
G02*
X172338000Y-117302000I150000J0D01*
G01*
X173988000Y-117302000D01*
G75*
G02*
X174138000Y-117452000I0J-150000D01*
G01*
X174138000Y-117752000D01*
G75*
G02*
X173988000Y-117902000I-150000J0D01*
G01*
X172338000Y-117902000D01*
G75*
G02*
X172188000Y-117752000I0J150000D01*
G01*
G37*
G36*
G01*
X172188000Y-119022000D02*
X172188000Y-118722000D01*
G75*
G02*
X172338000Y-118572000I150000J0D01*
G01*
X173988000Y-118572000D01*
G75*
G02*
X174138000Y-118722000I0J-150000D01*
G01*
X174138000Y-119022000D01*
G75*
G02*
X173988000Y-119172000I-150000J0D01*
G01*
X172338000Y-119172000D01*
G75*
G02*
X172188000Y-119022000I0J150000D01*
G01*
G37*
G36*
G01*
X172188000Y-120292000D02*
X172188000Y-119992000D01*
G75*
G02*
X172338000Y-119842000I150000J0D01*
G01*
X173988000Y-119842000D01*
G75*
G02*
X174138000Y-119992000I0J-150000D01*
G01*
X174138000Y-120292000D01*
G75*
G02*
X173988000Y-120442000I-150000J0D01*
G01*
X172338000Y-120442000D01*
G75*
G02*
X172188000Y-120292000I0J150000D01*
G01*
G37*
G36*
G01*
X167238000Y-120292000D02*
X167238000Y-119992000D01*
G75*
G02*
X167388000Y-119842000I150000J0D01*
G01*
X169038000Y-119842000D01*
G75*
G02*
X169188000Y-119992000I0J-150000D01*
G01*
X169188000Y-120292000D01*
G75*
G02*
X169038000Y-120442000I-150000J0D01*
G01*
X167388000Y-120442000D01*
G75*
G02*
X167238000Y-120292000I0J150000D01*
G01*
G37*
G36*
G01*
X167238000Y-119022000D02*
X167238000Y-118722000D01*
G75*
G02*
X167388000Y-118572000I150000J0D01*
G01*
X169038000Y-118572000D01*
G75*
G02*
X169188000Y-118722000I0J-150000D01*
G01*
X169188000Y-119022000D01*
G75*
G02*
X169038000Y-119172000I-150000J0D01*
G01*
X167388000Y-119172000D01*
G75*
G02*
X167238000Y-119022000I0J150000D01*
G01*
G37*
G36*
G01*
X167238000Y-117752000D02*
X167238000Y-117452000D01*
G75*
G02*
X167388000Y-117302000I150000J0D01*
G01*
X169038000Y-117302000D01*
G75*
G02*
X169188000Y-117452000I0J-150000D01*
G01*
X169188000Y-117752000D01*
G75*
G02*
X169038000Y-117902000I-150000J0D01*
G01*
X167388000Y-117902000D01*
G75*
G02*
X167238000Y-117752000I0J150000D01*
G01*
G37*
G36*
G01*
X167238000Y-116482000D02*
X167238000Y-116182000D01*
G75*
G02*
X167388000Y-116032000I150000J0D01*
G01*
X169038000Y-116032000D01*
G75*
G02*
X169188000Y-116182000I0J-150000D01*
G01*
X169188000Y-116482000D01*
G75*
G02*
X169038000Y-116632000I-150000J0D01*
G01*
X167388000Y-116632000D01*
G75*
G02*
X167238000Y-116482000I0J150000D01*
G01*
G37*
G36*
G01*
X167238000Y-115212000D02*
X167238000Y-114912000D01*
G75*
G02*
X167388000Y-114762000I150000J0D01*
G01*
X169038000Y-114762000D01*
G75*
G02*
X169188000Y-114912000I0J-150000D01*
G01*
X169188000Y-115212000D01*
G75*
G02*
X169038000Y-115362000I-150000J0D01*
G01*
X167388000Y-115362000D01*
G75*
G02*
X167238000Y-115212000I0J150000D01*
G01*
G37*
G36*
G01*
X167238000Y-113942000D02*
X167238000Y-113642000D01*
G75*
G02*
X167388000Y-113492000I150000J0D01*
G01*
X169038000Y-113492000D01*
G75*
G02*
X169188000Y-113642000I0J-150000D01*
G01*
X169188000Y-113942000D01*
G75*
G02*
X169038000Y-114092000I-150000J0D01*
G01*
X167388000Y-114092000D01*
G75*
G02*
X167238000Y-113942000I0J150000D01*
G01*
G37*
G36*
G01*
X167238000Y-112672000D02*
X167238000Y-112372000D01*
G75*
G02*
X167388000Y-112222000I150000J0D01*
G01*
X169038000Y-112222000D01*
G75*
G02*
X169188000Y-112372000I0J-150000D01*
G01*
X169188000Y-112672000D01*
G75*
G02*
X169038000Y-112822000I-150000J0D01*
G01*
X167388000Y-112822000D01*
G75*
G02*
X167238000Y-112672000I0J150000D01*
G01*
G37*
%TD*%
D19*
%TO.C,U1*%
X168896000Y-105004000D03*
X173496000Y-105004000D03*
X171196000Y-105004000D03*
D20*
X171196000Y-98704000D03*
%TD*%
D21*
%TO.C,S3*%
X205232000Y-147320000D03*
%TD*%
%TO.C,S2*%
X201168000Y-147320000D03*
%TD*%
%TO.C,S1*%
X197104000Y-147320000D03*
%TD*%
D22*
%TO.C,VApp1*%
X193274000Y-146992000D03*
D23*
X192024000Y-144092000D03*
D22*
X190774000Y-146992000D03*
%TD*%
%TO.C,VBrk1*%
X186670000Y-146992000D03*
D23*
X185420000Y-144092000D03*
D22*
X184170000Y-146992000D03*
%TD*%
D24*
%TO.C,V0.5*%
X160909000Y-148099000D03*
X163449000Y-140699000D03*
X165989000Y-148099000D03*
%TD*%
%TO.C,V4.5*%
X168529000Y-148099000D03*
X171069000Y-140699000D03*
X173609000Y-148099000D03*
%TD*%
%TO.C,VC1*%
X176149000Y-148099000D03*
X178689000Y-140699000D03*
X181229000Y-148099000D03*
%TD*%
D25*
%TO.C,VT2*%
X224773000Y-132029200D03*
X232173000Y-134569200D03*
X224773000Y-137109200D03*
%TD*%
%TO.C,VT1*%
X219312000Y-116332000D03*
X226712000Y-118872000D03*
X219312000Y-121412000D03*
%TD*%
%TO.C,R54*%
G36*
G01*
X177560000Y-132428000D02*
X177560000Y-132748000D01*
G75*
G02*
X177400000Y-132908000I-160000J0D01*
G01*
X177005000Y-132908000D01*
G75*
G02*
X176845000Y-132748000I0J160000D01*
G01*
X176845000Y-132428000D01*
G75*
G02*
X177005000Y-132268000I160000J0D01*
G01*
X177400000Y-132268000D01*
G75*
G02*
X177560000Y-132428000I0J-160000D01*
G01*
G37*
G36*
G01*
X178755000Y-132428000D02*
X178755000Y-132748000D01*
G75*
G02*
X178595000Y-132908000I-160000J0D01*
G01*
X178200000Y-132908000D01*
G75*
G02*
X178040000Y-132748000I0J160000D01*
G01*
X178040000Y-132428000D01*
G75*
G02*
X178200000Y-132268000I160000J0D01*
G01*
X178595000Y-132268000D01*
G75*
G02*
X178755000Y-132428000I0J-160000D01*
G01*
G37*
%TD*%
%TO.C,R55*%
G36*
G01*
X190232000Y-123350000D02*
X190232000Y-123030000D01*
G75*
G02*
X190392000Y-122870000I160000J0D01*
G01*
X190787000Y-122870000D01*
G75*
G02*
X190947000Y-123030000I0J-160000D01*
G01*
X190947000Y-123350000D01*
G75*
G02*
X190787000Y-123510000I-160000J0D01*
G01*
X190392000Y-123510000D01*
G75*
G02*
X190232000Y-123350000I0J160000D01*
G01*
G37*
G36*
G01*
X189037000Y-123350000D02*
X189037000Y-123030000D01*
G75*
G02*
X189197000Y-122870000I160000J0D01*
G01*
X189592000Y-122870000D01*
G75*
G02*
X189752000Y-123030000I0J-160000D01*
G01*
X189752000Y-123350000D01*
G75*
G02*
X189592000Y-123510000I-160000J0D01*
G01*
X189197000Y-123510000D01*
G75*
G02*
X189037000Y-123350000I0J160000D01*
G01*
G37*
%TD*%
%TO.C,R94*%
G36*
G01*
X200838500Y-139540000D02*
X200838500Y-139860000D01*
G75*
G02*
X200678500Y-140020000I-160000J0D01*
G01*
X200283500Y-140020000D01*
G75*
G02*
X200123500Y-139860000I0J160000D01*
G01*
X200123500Y-139540000D01*
G75*
G02*
X200283500Y-139380000I160000J0D01*
G01*
X200678500Y-139380000D01*
G75*
G02*
X200838500Y-139540000I0J-160000D01*
G01*
G37*
G36*
G01*
X202033500Y-139540000D02*
X202033500Y-139860000D01*
G75*
G02*
X201873500Y-140020000I-160000J0D01*
G01*
X201478500Y-140020000D01*
G75*
G02*
X201318500Y-139860000I0J160000D01*
G01*
X201318500Y-139540000D01*
G75*
G02*
X201478500Y-139380000I160000J0D01*
G01*
X201873500Y-139380000D01*
G75*
G02*
X202033500Y-139540000I0J-160000D01*
G01*
G37*
%TD*%
%TO.C,R53*%
G36*
G01*
X163397500Y-135796000D02*
X163397500Y-135476000D01*
G75*
G02*
X163557500Y-135316000I160000J0D01*
G01*
X163952500Y-135316000D01*
G75*
G02*
X164112500Y-135476000I0J-160000D01*
G01*
X164112500Y-135796000D01*
G75*
G02*
X163952500Y-135956000I-160000J0D01*
G01*
X163557500Y-135956000D01*
G75*
G02*
X163397500Y-135796000I0J160000D01*
G01*
G37*
G36*
G01*
X162202500Y-135796000D02*
X162202500Y-135476000D01*
G75*
G02*
X162362500Y-135316000I160000J0D01*
G01*
X162757500Y-135316000D01*
G75*
G02*
X162917500Y-135476000I0J-160000D01*
G01*
X162917500Y-135796000D01*
G75*
G02*
X162757500Y-135956000I-160000J0D01*
G01*
X162362500Y-135956000D01*
G75*
G02*
X162202500Y-135796000I0J160000D01*
G01*
G37*
%TD*%
%TO.C,R92*%
G36*
G01*
X210472000Y-134888000D02*
X210152000Y-134888000D01*
G75*
G02*
X209992000Y-134728000I0J160000D01*
G01*
X209992000Y-134333000D01*
G75*
G02*
X210152000Y-134173000I160000J0D01*
G01*
X210472000Y-134173000D01*
G75*
G02*
X210632000Y-134333000I0J-160000D01*
G01*
X210632000Y-134728000D01*
G75*
G02*
X210472000Y-134888000I-160000J0D01*
G01*
G37*
G36*
G01*
X210472000Y-136083000D02*
X210152000Y-136083000D01*
G75*
G02*
X209992000Y-135923000I0J160000D01*
G01*
X209992000Y-135528000D01*
G75*
G02*
X210152000Y-135368000I160000J0D01*
G01*
X210472000Y-135368000D01*
G75*
G02*
X210632000Y-135528000I0J-160000D01*
G01*
X210632000Y-135923000D01*
G75*
G02*
X210472000Y-136083000I-160000J0D01*
G01*
G37*
%TD*%
%TO.C,R91*%
G36*
G01*
X201497500Y-144432000D02*
X201497500Y-144112000D01*
G75*
G02*
X201657500Y-143952000I160000J0D01*
G01*
X202052500Y-143952000D01*
G75*
G02*
X202212500Y-144112000I0J-160000D01*
G01*
X202212500Y-144432000D01*
G75*
G02*
X202052500Y-144592000I-160000J0D01*
G01*
X201657500Y-144592000D01*
G75*
G02*
X201497500Y-144432000I0J160000D01*
G01*
G37*
G36*
G01*
X200302500Y-144432000D02*
X200302500Y-144112000D01*
G75*
G02*
X200462500Y-143952000I160000J0D01*
G01*
X200857500Y-143952000D01*
G75*
G02*
X201017500Y-144112000I0J-160000D01*
G01*
X201017500Y-144432000D01*
G75*
G02*
X200857500Y-144592000I-160000J0D01*
G01*
X200462500Y-144592000D01*
G75*
G02*
X200302500Y-144432000I0J160000D01*
G01*
G37*
%TD*%
%TO.C,R51*%
G36*
G01*
X161384000Y-135368000D02*
X161704000Y-135368000D01*
G75*
G02*
X161864000Y-135528000I0J-160000D01*
G01*
X161864000Y-135923000D01*
G75*
G02*
X161704000Y-136083000I-160000J0D01*
G01*
X161384000Y-136083000D01*
G75*
G02*
X161224000Y-135923000I0J160000D01*
G01*
X161224000Y-135528000D01*
G75*
G02*
X161384000Y-135368000I160000J0D01*
G01*
G37*
G36*
G01*
X161384000Y-134173000D02*
X161704000Y-134173000D01*
G75*
G02*
X161864000Y-134333000I0J-160000D01*
G01*
X161864000Y-134728000D01*
G75*
G02*
X161704000Y-134888000I-160000J0D01*
G01*
X161384000Y-134888000D01*
G75*
G02*
X161224000Y-134728000I0J160000D01*
G01*
X161224000Y-134333000D01*
G75*
G02*
X161384000Y-134173000I160000J0D01*
G01*
G37*
%TD*%
%TO.C,R103*%
G36*
G01*
X217574500Y-104300000D02*
X217574500Y-103980000D01*
G75*
G02*
X217734500Y-103820000I160000J0D01*
G01*
X218129500Y-103820000D01*
G75*
G02*
X218289500Y-103980000I0J-160000D01*
G01*
X218289500Y-104300000D01*
G75*
G02*
X218129500Y-104460000I-160000J0D01*
G01*
X217734500Y-104460000D01*
G75*
G02*
X217574500Y-104300000I0J160000D01*
G01*
G37*
G36*
G01*
X216379500Y-104300000D02*
X216379500Y-103980000D01*
G75*
G02*
X216539500Y-103820000I160000J0D01*
G01*
X216934500Y-103820000D01*
G75*
G02*
X217094500Y-103980000I0J-160000D01*
G01*
X217094500Y-104300000D01*
G75*
G02*
X216934500Y-104460000I-160000J0D01*
G01*
X216539500Y-104460000D01*
G75*
G02*
X216379500Y-104300000I0J160000D01*
G01*
G37*
%TD*%
%TO.C,R102*%
G36*
G01*
X217574500Y-102776000D02*
X217574500Y-102456000D01*
G75*
G02*
X217734500Y-102296000I160000J0D01*
G01*
X218129500Y-102296000D01*
G75*
G02*
X218289500Y-102456000I0J-160000D01*
G01*
X218289500Y-102776000D01*
G75*
G02*
X218129500Y-102936000I-160000J0D01*
G01*
X217734500Y-102936000D01*
G75*
G02*
X217574500Y-102776000I0J160000D01*
G01*
G37*
G36*
G01*
X216379500Y-102776000D02*
X216379500Y-102456000D01*
G75*
G02*
X216539500Y-102296000I160000J0D01*
G01*
X216934500Y-102296000D01*
G75*
G02*
X217094500Y-102456000I0J-160000D01*
G01*
X217094500Y-102776000D01*
G75*
G02*
X216934500Y-102936000I-160000J0D01*
G01*
X216539500Y-102936000D01*
G75*
G02*
X216379500Y-102776000I0J160000D01*
G01*
G37*
%TD*%
%TO.C,R84*%
G36*
G01*
X205410500Y-124300000D02*
X205410500Y-124620000D01*
G75*
G02*
X205250500Y-124780000I-160000J0D01*
G01*
X204855500Y-124780000D01*
G75*
G02*
X204695500Y-124620000I0J160000D01*
G01*
X204695500Y-124300000D01*
G75*
G02*
X204855500Y-124140000I160000J0D01*
G01*
X205250500Y-124140000D01*
G75*
G02*
X205410500Y-124300000I0J-160000D01*
G01*
G37*
G36*
G01*
X206605500Y-124300000D02*
X206605500Y-124620000D01*
G75*
G02*
X206445500Y-124780000I-160000J0D01*
G01*
X206050500Y-124780000D01*
G75*
G02*
X205890500Y-124620000I0J160000D01*
G01*
X205890500Y-124300000D01*
G75*
G02*
X206050500Y-124140000I160000J0D01*
G01*
X206445500Y-124140000D01*
G75*
G02*
X206605500Y-124300000I0J-160000D01*
G01*
G37*
%TD*%
%TO.C,R44*%
G36*
G01*
X181723000Y-113825000D02*
X181723000Y-113505000D01*
G75*
G02*
X181883000Y-113345000I160000J0D01*
G01*
X182278000Y-113345000D01*
G75*
G02*
X182438000Y-113505000I0J-160000D01*
G01*
X182438000Y-113825000D01*
G75*
G02*
X182278000Y-113985000I-160000J0D01*
G01*
X181883000Y-113985000D01*
G75*
G02*
X181723000Y-113825000I0J160000D01*
G01*
G37*
G36*
G01*
X180528000Y-113825000D02*
X180528000Y-113505000D01*
G75*
G02*
X180688000Y-113345000I160000J0D01*
G01*
X181083000Y-113345000D01*
G75*
G02*
X181243000Y-113505000I0J-160000D01*
G01*
X181243000Y-113825000D01*
G75*
G02*
X181083000Y-113985000I-160000J0D01*
G01*
X180688000Y-113985000D01*
G75*
G02*
X180528000Y-113825000I0J160000D01*
G01*
G37*
%TD*%
%TO.C,R82*%
G36*
G01*
X215740000Y-119620000D02*
X216060000Y-119620000D01*
G75*
G02*
X216220000Y-119780000I0J-160000D01*
G01*
X216220000Y-120175000D01*
G75*
G02*
X216060000Y-120335000I-160000J0D01*
G01*
X215740000Y-120335000D01*
G75*
G02*
X215580000Y-120175000I0J160000D01*
G01*
X215580000Y-119780000D01*
G75*
G02*
X215740000Y-119620000I160000J0D01*
G01*
G37*
G36*
G01*
X215740000Y-118425000D02*
X216060000Y-118425000D01*
G75*
G02*
X216220000Y-118585000I0J-160000D01*
G01*
X216220000Y-118980000D01*
G75*
G02*
X216060000Y-119140000I-160000J0D01*
G01*
X215740000Y-119140000D01*
G75*
G02*
X215580000Y-118980000I0J160000D01*
G01*
X215580000Y-118585000D01*
G75*
G02*
X215740000Y-118425000I160000J0D01*
G01*
G37*
%TD*%
%TO.C,R81*%
G36*
G01*
X205980000Y-128684000D02*
X205980000Y-128364000D01*
G75*
G02*
X206140000Y-128204000I160000J0D01*
G01*
X206535000Y-128204000D01*
G75*
G02*
X206695000Y-128364000I0J-160000D01*
G01*
X206695000Y-128684000D01*
G75*
G02*
X206535000Y-128844000I-160000J0D01*
G01*
X206140000Y-128844000D01*
G75*
G02*
X205980000Y-128684000I0J160000D01*
G01*
G37*
G36*
G01*
X204785000Y-128684000D02*
X204785000Y-128364000D01*
G75*
G02*
X204945000Y-128204000I160000J0D01*
G01*
X205340000Y-128204000D01*
G75*
G02*
X205500000Y-128364000I0J-160000D01*
G01*
X205500000Y-128684000D01*
G75*
G02*
X205340000Y-128844000I-160000J0D01*
G01*
X204945000Y-128844000D01*
G75*
G02*
X204785000Y-128684000I0J160000D01*
G01*
G37*
%TD*%
%TO.C,R45*%
G36*
G01*
X190232000Y-122080000D02*
X190232000Y-121760000D01*
G75*
G02*
X190392000Y-121600000I160000J0D01*
G01*
X190787000Y-121600000D01*
G75*
G02*
X190947000Y-121760000I0J-160000D01*
G01*
X190947000Y-122080000D01*
G75*
G02*
X190787000Y-122240000I-160000J0D01*
G01*
X190392000Y-122240000D01*
G75*
G02*
X190232000Y-122080000I0J160000D01*
G01*
G37*
G36*
G01*
X189037000Y-122080000D02*
X189037000Y-121760000D01*
G75*
G02*
X189197000Y-121600000I160000J0D01*
G01*
X189592000Y-121600000D01*
G75*
G02*
X189752000Y-121760000I0J-160000D01*
G01*
X189752000Y-122080000D01*
G75*
G02*
X189592000Y-122240000I-160000J0D01*
G01*
X189197000Y-122240000D01*
G75*
G02*
X189037000Y-122080000I0J160000D01*
G01*
G37*
%TD*%
%TO.C,R101*%
G36*
G01*
X225185000Y-112997000D02*
X225185000Y-113317000D01*
G75*
G02*
X225025000Y-113477000I-160000J0D01*
G01*
X224630000Y-113477000D01*
G75*
G02*
X224470000Y-113317000I0J160000D01*
G01*
X224470000Y-112997000D01*
G75*
G02*
X224630000Y-112837000I160000J0D01*
G01*
X225025000Y-112837000D01*
G75*
G02*
X225185000Y-112997000I0J-160000D01*
G01*
G37*
G36*
G01*
X226380000Y-112997000D02*
X226380000Y-113317000D01*
G75*
G02*
X226220000Y-113477000I-160000J0D01*
G01*
X225825000Y-113477000D01*
G75*
G02*
X225665000Y-113317000I0J160000D01*
G01*
X225665000Y-112997000D01*
G75*
G02*
X225825000Y-112837000I160000J0D01*
G01*
X226220000Y-112837000D01*
G75*
G02*
X226380000Y-112997000I0J-160000D01*
G01*
G37*
%TD*%
%TO.C,R43*%
G36*
G01*
X163726500Y-119540000D02*
X163726500Y-119220000D01*
G75*
G02*
X163886500Y-119060000I160000J0D01*
G01*
X164281500Y-119060000D01*
G75*
G02*
X164441500Y-119220000I0J-160000D01*
G01*
X164441500Y-119540000D01*
G75*
G02*
X164281500Y-119700000I-160000J0D01*
G01*
X163886500Y-119700000D01*
G75*
G02*
X163726500Y-119540000I0J160000D01*
G01*
G37*
G36*
G01*
X162531500Y-119540000D02*
X162531500Y-119220000D01*
G75*
G02*
X162691500Y-119060000I160000J0D01*
G01*
X163086500Y-119060000D01*
G75*
G02*
X163246500Y-119220000I0J-160000D01*
G01*
X163246500Y-119540000D01*
G75*
G02*
X163086500Y-119700000I-160000J0D01*
G01*
X162691500Y-119700000D01*
G75*
G02*
X162531500Y-119540000I0J160000D01*
G01*
G37*
%TD*%
%TO.C,R31*%
G36*
G01*
X182532000Y-108382500D02*
X182212000Y-108382500D01*
G75*
G02*
X182052000Y-108222500I0J160000D01*
G01*
X182052000Y-107827500D01*
G75*
G02*
X182212000Y-107667500I160000J0D01*
G01*
X182532000Y-107667500D01*
G75*
G02*
X182692000Y-107827500I0J-160000D01*
G01*
X182692000Y-108222500D01*
G75*
G02*
X182532000Y-108382500I-160000J0D01*
G01*
G37*
G36*
G01*
X182532000Y-109577500D02*
X182212000Y-109577500D01*
G75*
G02*
X182052000Y-109417500I0J160000D01*
G01*
X182052000Y-109022500D01*
G75*
G02*
X182212000Y-108862500I160000J0D01*
G01*
X182532000Y-108862500D01*
G75*
G02*
X182692000Y-109022500I0J-160000D01*
G01*
X182692000Y-109417500D01*
G75*
G02*
X182532000Y-109577500I-160000J0D01*
G01*
G37*
%TD*%
%TO.C,R42*%
G36*
G01*
X163726500Y-114968000D02*
X163726500Y-114648000D01*
G75*
G02*
X163886500Y-114488000I160000J0D01*
G01*
X164281500Y-114488000D01*
G75*
G02*
X164441500Y-114648000I0J-160000D01*
G01*
X164441500Y-114968000D01*
G75*
G02*
X164281500Y-115128000I-160000J0D01*
G01*
X163886500Y-115128000D01*
G75*
G02*
X163726500Y-114968000I0J160000D01*
G01*
G37*
G36*
G01*
X162531500Y-114968000D02*
X162531500Y-114648000D01*
G75*
G02*
X162691500Y-114488000I160000J0D01*
G01*
X163086500Y-114488000D01*
G75*
G02*
X163246500Y-114648000I0J-160000D01*
G01*
X163246500Y-114968000D01*
G75*
G02*
X163086500Y-115128000I-160000J0D01*
G01*
X162691500Y-115128000D01*
G75*
G02*
X162531500Y-114968000I0J160000D01*
G01*
G37*
%TD*%
%TO.C,R41*%
G36*
G01*
X161958000Y-126087500D02*
X161638000Y-126087500D01*
G75*
G02*
X161478000Y-125927500I0J160000D01*
G01*
X161478000Y-125532500D01*
G75*
G02*
X161638000Y-125372500I160000J0D01*
G01*
X161958000Y-125372500D01*
G75*
G02*
X162118000Y-125532500I0J-160000D01*
G01*
X162118000Y-125927500D01*
G75*
G02*
X161958000Y-126087500I-160000J0D01*
G01*
G37*
G36*
G01*
X161958000Y-127282500D02*
X161638000Y-127282500D01*
G75*
G02*
X161478000Y-127122500I0J160000D01*
G01*
X161478000Y-126727500D01*
G75*
G02*
X161638000Y-126567500I160000J0D01*
G01*
X161958000Y-126567500D01*
G75*
G02*
X162118000Y-126727500I0J-160000D01*
G01*
X162118000Y-127122500D01*
G75*
G02*
X161958000Y-127282500I-160000J0D01*
G01*
G37*
%TD*%
%TO.C,R72*%
G36*
G01*
X185622500Y-137066000D02*
X185622500Y-136746000D01*
G75*
G02*
X185782500Y-136586000I160000J0D01*
G01*
X186177500Y-136586000D01*
G75*
G02*
X186337500Y-136746000I0J-160000D01*
G01*
X186337500Y-137066000D01*
G75*
G02*
X186177500Y-137226000I-160000J0D01*
G01*
X185782500Y-137226000D01*
G75*
G02*
X185622500Y-137066000I0J160000D01*
G01*
G37*
G36*
G01*
X184427500Y-137066000D02*
X184427500Y-136746000D01*
G75*
G02*
X184587500Y-136586000I160000J0D01*
G01*
X184982500Y-136586000D01*
G75*
G02*
X185142500Y-136746000I0J-160000D01*
G01*
X185142500Y-137066000D01*
G75*
G02*
X184982500Y-137226000I-160000J0D01*
G01*
X184587500Y-137226000D01*
G75*
G02*
X184427500Y-137066000I0J160000D01*
G01*
G37*
%TD*%
%TO.C,R71*%
G36*
G01*
X185570500Y-122207000D02*
X185570500Y-121887000D01*
G75*
G02*
X185730500Y-121727000I160000J0D01*
G01*
X186125500Y-121727000D01*
G75*
G02*
X186285500Y-121887000I0J-160000D01*
G01*
X186285500Y-122207000D01*
G75*
G02*
X186125500Y-122367000I-160000J0D01*
G01*
X185730500Y-122367000D01*
G75*
G02*
X185570500Y-122207000I0J160000D01*
G01*
G37*
G36*
G01*
X184375500Y-122207000D02*
X184375500Y-121887000D01*
G75*
G02*
X184535500Y-121727000I160000J0D01*
G01*
X184930500Y-121727000D01*
G75*
G02*
X185090500Y-121887000I0J-160000D01*
G01*
X185090500Y-122207000D01*
G75*
G02*
X184930500Y-122367000I-160000J0D01*
G01*
X184535500Y-122367000D01*
G75*
G02*
X184375500Y-122207000I0J160000D01*
G01*
G37*
%TD*%
%TO.C,R76*%
G36*
G01*
X211596000Y-113632000D02*
X211596000Y-113952000D01*
G75*
G02*
X211436000Y-114112000I-160000J0D01*
G01*
X211041000Y-114112000D01*
G75*
G02*
X210881000Y-113952000I0J160000D01*
G01*
X210881000Y-113632000D01*
G75*
G02*
X211041000Y-113472000I160000J0D01*
G01*
X211436000Y-113472000D01*
G75*
G02*
X211596000Y-113632000I0J-160000D01*
G01*
G37*
G36*
G01*
X212791000Y-113632000D02*
X212791000Y-113952000D01*
G75*
G02*
X212631000Y-114112000I-160000J0D01*
G01*
X212236000Y-114112000D01*
G75*
G02*
X212076000Y-113952000I0J160000D01*
G01*
X212076000Y-113632000D01*
G75*
G02*
X212236000Y-113472000I160000J0D01*
G01*
X212631000Y-113472000D01*
G75*
G02*
X212791000Y-113632000I0J-160000D01*
G01*
G37*
%TD*%
%TO.C,R74*%
G36*
G01*
X195820000Y-137828000D02*
X195820000Y-137508000D01*
G75*
G02*
X195980000Y-137348000I160000J0D01*
G01*
X196375000Y-137348000D01*
G75*
G02*
X196535000Y-137508000I0J-160000D01*
G01*
X196535000Y-137828000D01*
G75*
G02*
X196375000Y-137988000I-160000J0D01*
G01*
X195980000Y-137988000D01*
G75*
G02*
X195820000Y-137828000I0J160000D01*
G01*
G37*
G36*
G01*
X194625000Y-137828000D02*
X194625000Y-137508000D01*
G75*
G02*
X194785000Y-137348000I160000J0D01*
G01*
X195180000Y-137348000D01*
G75*
G02*
X195340000Y-137508000I0J-160000D01*
G01*
X195340000Y-137828000D01*
G75*
G02*
X195180000Y-137988000I-160000J0D01*
G01*
X194785000Y-137988000D01*
G75*
G02*
X194625000Y-137828000I0J160000D01*
G01*
G37*
%TD*%
%TO.C,R75*%
G36*
G01*
X199465500Y-124112000D02*
X199465500Y-123792000D01*
G75*
G02*
X199625500Y-123632000I160000J0D01*
G01*
X200020500Y-123632000D01*
G75*
G02*
X200180500Y-123792000I0J-160000D01*
G01*
X200180500Y-124112000D01*
G75*
G02*
X200020500Y-124272000I-160000J0D01*
G01*
X199625500Y-124272000D01*
G75*
G02*
X199465500Y-124112000I0J160000D01*
G01*
G37*
G36*
G01*
X198270500Y-124112000D02*
X198270500Y-123792000D01*
G75*
G02*
X198430500Y-123632000I160000J0D01*
G01*
X198825500Y-123632000D01*
G75*
G02*
X198985500Y-123792000I0J-160000D01*
G01*
X198985500Y-124112000D01*
G75*
G02*
X198825500Y-124272000I-160000J0D01*
G01*
X198430500Y-124272000D01*
G75*
G02*
X198270500Y-124112000I0J160000D01*
G01*
G37*
%TD*%
%TO.C,R78*%
G36*
G01*
X211596000Y-112108000D02*
X211596000Y-112428000D01*
G75*
G02*
X211436000Y-112588000I-160000J0D01*
G01*
X211041000Y-112588000D01*
G75*
G02*
X210881000Y-112428000I0J160000D01*
G01*
X210881000Y-112108000D01*
G75*
G02*
X211041000Y-111948000I160000J0D01*
G01*
X211436000Y-111948000D01*
G75*
G02*
X211596000Y-112108000I0J-160000D01*
G01*
G37*
G36*
G01*
X212791000Y-112108000D02*
X212791000Y-112428000D01*
G75*
G02*
X212631000Y-112588000I-160000J0D01*
G01*
X212236000Y-112588000D01*
G75*
G02*
X212076000Y-112428000I0J160000D01*
G01*
X212076000Y-112108000D01*
G75*
G02*
X212236000Y-111948000I160000J0D01*
G01*
X212631000Y-111948000D01*
G75*
G02*
X212791000Y-112108000I0J-160000D01*
G01*
G37*
%TD*%
%TO.C,R73*%
G36*
G01*
X185622500Y-138463000D02*
X185622500Y-138143000D01*
G75*
G02*
X185782500Y-137983000I160000J0D01*
G01*
X186177500Y-137983000D01*
G75*
G02*
X186337500Y-138143000I0J-160000D01*
G01*
X186337500Y-138463000D01*
G75*
G02*
X186177500Y-138623000I-160000J0D01*
G01*
X185782500Y-138623000D01*
G75*
G02*
X185622500Y-138463000I0J160000D01*
G01*
G37*
G36*
G01*
X184427500Y-138463000D02*
X184427500Y-138143000D01*
G75*
G02*
X184587500Y-137983000I160000J0D01*
G01*
X184982500Y-137983000D01*
G75*
G02*
X185142500Y-138143000I0J-160000D01*
G01*
X185142500Y-138463000D01*
G75*
G02*
X184982500Y-138623000I-160000J0D01*
G01*
X184587500Y-138623000D01*
G75*
G02*
X184427500Y-138463000I0J160000D01*
G01*
G37*
%TD*%
%TO.C,R27*%
G36*
G01*
X185533000Y-123477000D02*
X185533000Y-123157000D01*
G75*
G02*
X185693000Y-122997000I160000J0D01*
G01*
X186088000Y-122997000D01*
G75*
G02*
X186248000Y-123157000I0J-160000D01*
G01*
X186248000Y-123477000D01*
G75*
G02*
X186088000Y-123637000I-160000J0D01*
G01*
X185693000Y-123637000D01*
G75*
G02*
X185533000Y-123477000I0J160000D01*
G01*
G37*
G36*
G01*
X184338000Y-123477000D02*
X184338000Y-123157000D01*
G75*
G02*
X184498000Y-122997000I160000J0D01*
G01*
X184893000Y-122997000D01*
G75*
G02*
X185053000Y-123157000I0J-160000D01*
G01*
X185053000Y-123477000D01*
G75*
G02*
X184893000Y-123637000I-160000J0D01*
G01*
X184498000Y-123637000D01*
G75*
G02*
X184338000Y-123477000I0J160000D01*
G01*
G37*
%TD*%
%TO.C,R25*%
G36*
G01*
X175608000Y-125626500D02*
X175928000Y-125626500D01*
G75*
G02*
X176088000Y-125786500I0J-160000D01*
G01*
X176088000Y-126181500D01*
G75*
G02*
X175928000Y-126341500I-160000J0D01*
G01*
X175608000Y-126341500D01*
G75*
G02*
X175448000Y-126181500I0J160000D01*
G01*
X175448000Y-125786500D01*
G75*
G02*
X175608000Y-125626500I160000J0D01*
G01*
G37*
G36*
G01*
X175608000Y-124431500D02*
X175928000Y-124431500D01*
G75*
G02*
X176088000Y-124591500I0J-160000D01*
G01*
X176088000Y-124986500D01*
G75*
G02*
X175928000Y-125146500I-160000J0D01*
G01*
X175608000Y-125146500D01*
G75*
G02*
X175448000Y-124986500I0J160000D01*
G01*
X175448000Y-124591500D01*
G75*
G02*
X175608000Y-124431500I160000J0D01*
G01*
G37*
%TD*%
%TO.C,R24*%
G36*
G01*
X175608000Y-122832500D02*
X175928000Y-122832500D01*
G75*
G02*
X176088000Y-122992500I0J-160000D01*
G01*
X176088000Y-123387500D01*
G75*
G02*
X175928000Y-123547500I-160000J0D01*
G01*
X175608000Y-123547500D01*
G75*
G02*
X175448000Y-123387500I0J160000D01*
G01*
X175448000Y-122992500D01*
G75*
G02*
X175608000Y-122832500I160000J0D01*
G01*
G37*
G36*
G01*
X175608000Y-121637500D02*
X175928000Y-121637500D01*
G75*
G02*
X176088000Y-121797500I0J-160000D01*
G01*
X176088000Y-122192500D01*
G75*
G02*
X175928000Y-122352500I-160000J0D01*
G01*
X175608000Y-122352500D01*
G75*
G02*
X175448000Y-122192500I0J160000D01*
G01*
X175448000Y-121797500D01*
G75*
G02*
X175608000Y-121637500I160000J0D01*
G01*
G37*
%TD*%
%TO.C,R8*%
G36*
G01*
X199376000Y-122588000D02*
X199376000Y-122268000D01*
G75*
G02*
X199536000Y-122108000I160000J0D01*
G01*
X199931000Y-122108000D01*
G75*
G02*
X200091000Y-122268000I0J-160000D01*
G01*
X200091000Y-122588000D01*
G75*
G02*
X199931000Y-122748000I-160000J0D01*
G01*
X199536000Y-122748000D01*
G75*
G02*
X199376000Y-122588000I0J160000D01*
G01*
G37*
G36*
G01*
X198181000Y-122588000D02*
X198181000Y-122268000D01*
G75*
G02*
X198341000Y-122108000I160000J0D01*
G01*
X198736000Y-122108000D01*
G75*
G02*
X198896000Y-122268000I0J-160000D01*
G01*
X198896000Y-122588000D01*
G75*
G02*
X198736000Y-122748000I-160000J0D01*
G01*
X198341000Y-122748000D01*
G75*
G02*
X198181000Y-122588000I0J160000D01*
G01*
G37*
%TD*%
%TO.C,R22*%
G36*
G01*
X176544000Y-113505000D02*
X176544000Y-113825000D01*
G75*
G02*
X176384000Y-113985000I-160000J0D01*
G01*
X175989000Y-113985000D01*
G75*
G02*
X175829000Y-113825000I0J160000D01*
G01*
X175829000Y-113505000D01*
G75*
G02*
X175989000Y-113345000I160000J0D01*
G01*
X176384000Y-113345000D01*
G75*
G02*
X176544000Y-113505000I0J-160000D01*
G01*
G37*
G36*
G01*
X177739000Y-113505000D02*
X177739000Y-113825000D01*
G75*
G02*
X177579000Y-113985000I-160000J0D01*
G01*
X177184000Y-113985000D01*
G75*
G02*
X177024000Y-113825000I0J160000D01*
G01*
X177024000Y-113505000D01*
G75*
G02*
X177184000Y-113345000I160000J0D01*
G01*
X177579000Y-113345000D01*
G75*
G02*
X177739000Y-113505000I0J-160000D01*
G01*
G37*
%TD*%
%TO.C,R21*%
G36*
G01*
X176544000Y-114648000D02*
X176544000Y-114968000D01*
G75*
G02*
X176384000Y-115128000I-160000J0D01*
G01*
X175989000Y-115128000D01*
G75*
G02*
X175829000Y-114968000I0J160000D01*
G01*
X175829000Y-114648000D01*
G75*
G02*
X175989000Y-114488000I160000J0D01*
G01*
X176384000Y-114488000D01*
G75*
G02*
X176544000Y-114648000I0J-160000D01*
G01*
G37*
G36*
G01*
X177739000Y-114648000D02*
X177739000Y-114968000D01*
G75*
G02*
X177579000Y-115128000I-160000J0D01*
G01*
X177184000Y-115128000D01*
G75*
G02*
X177024000Y-114968000I0J160000D01*
G01*
X177024000Y-114648000D01*
G75*
G02*
X177184000Y-114488000I160000J0D01*
G01*
X177579000Y-114488000D01*
G75*
G02*
X177739000Y-114648000I0J-160000D01*
G01*
G37*
%TD*%
%TO.C,R26*%
G36*
G01*
X177649500Y-130396000D02*
X177649500Y-130716000D01*
G75*
G02*
X177489500Y-130876000I-160000J0D01*
G01*
X177094500Y-130876000D01*
G75*
G02*
X176934500Y-130716000I0J160000D01*
G01*
X176934500Y-130396000D01*
G75*
G02*
X177094500Y-130236000I160000J0D01*
G01*
X177489500Y-130236000D01*
G75*
G02*
X177649500Y-130396000I0J-160000D01*
G01*
G37*
G36*
G01*
X178844500Y-130396000D02*
X178844500Y-130716000D01*
G75*
G02*
X178684500Y-130876000I-160000J0D01*
G01*
X178289500Y-130876000D01*
G75*
G02*
X178129500Y-130716000I0J160000D01*
G01*
X178129500Y-130396000D01*
G75*
G02*
X178289500Y-130236000I160000J0D01*
G01*
X178684500Y-130236000D01*
G75*
G02*
X178844500Y-130396000I0J-160000D01*
G01*
G37*
%TD*%
%TO.C,R12*%
G36*
G01*
X180100000Y-99916000D02*
X180100000Y-100236000D01*
G75*
G02*
X179940000Y-100396000I-160000J0D01*
G01*
X179545000Y-100396000D01*
G75*
G02*
X179385000Y-100236000I0J160000D01*
G01*
X179385000Y-99916000D01*
G75*
G02*
X179545000Y-99756000I160000J0D01*
G01*
X179940000Y-99756000D01*
G75*
G02*
X180100000Y-99916000I0J-160000D01*
G01*
G37*
G36*
G01*
X181295000Y-99916000D02*
X181295000Y-100236000D01*
G75*
G02*
X181135000Y-100396000I-160000J0D01*
G01*
X180740000Y-100396000D01*
G75*
G02*
X180580000Y-100236000I0J160000D01*
G01*
X180580000Y-99916000D01*
G75*
G02*
X180740000Y-99756000I160000J0D01*
G01*
X181135000Y-99756000D01*
G75*
G02*
X181295000Y-99916000I0J-160000D01*
G01*
G37*
%TD*%
%TO.C,R77*%
G36*
G01*
X185533000Y-126144000D02*
X185533000Y-125824000D01*
G75*
G02*
X185693000Y-125664000I160000J0D01*
G01*
X186088000Y-125664000D01*
G75*
G02*
X186248000Y-125824000I0J-160000D01*
G01*
X186248000Y-126144000D01*
G75*
G02*
X186088000Y-126304000I-160000J0D01*
G01*
X185693000Y-126304000D01*
G75*
G02*
X185533000Y-126144000I0J160000D01*
G01*
G37*
G36*
G01*
X184338000Y-126144000D02*
X184338000Y-125824000D01*
G75*
G02*
X184498000Y-125664000I160000J0D01*
G01*
X184893000Y-125664000D01*
G75*
G02*
X185053000Y-125824000I0J-160000D01*
G01*
X185053000Y-126144000D01*
G75*
G02*
X184893000Y-126304000I-160000J0D01*
G01*
X184498000Y-126304000D01*
G75*
G02*
X184338000Y-126144000I0J160000D01*
G01*
G37*
%TD*%
%TO.C,R11*%
G36*
G01*
X179460999Y-104532000D02*
X180711001Y-104532000D01*
G75*
G02*
X180961000Y-104781999I0J-249999D01*
G01*
X180961000Y-105582001D01*
G75*
G02*
X180711001Y-105832000I-249999J0D01*
G01*
X179460999Y-105832000D01*
G75*
G02*
X179211000Y-105582001I0J249999D01*
G01*
X179211000Y-104781999D01*
G75*
G02*
X179460999Y-104532000I249999J0D01*
G01*
G37*
G36*
G01*
X179460999Y-101432000D02*
X180711001Y-101432000D01*
G75*
G02*
X180961000Y-101681999I0J-249999D01*
G01*
X180961000Y-102482001D01*
G75*
G02*
X180711001Y-102732000I-249999J0D01*
G01*
X179460999Y-102732000D01*
G75*
G02*
X179211000Y-102482001I0J249999D01*
G01*
X179211000Y-101681999D01*
G75*
G02*
X179460999Y-101432000I249999J0D01*
G01*
G37*
%TD*%
%TO.C,R23*%
G36*
G01*
X177024000Y-116111000D02*
X177024000Y-115791000D01*
G75*
G02*
X177184000Y-115631000I160000J0D01*
G01*
X177579000Y-115631000D01*
G75*
G02*
X177739000Y-115791000I0J-160000D01*
G01*
X177739000Y-116111000D01*
G75*
G02*
X177579000Y-116271000I-160000J0D01*
G01*
X177184000Y-116271000D01*
G75*
G02*
X177024000Y-116111000I0J160000D01*
G01*
G37*
G36*
G01*
X175829000Y-116111000D02*
X175829000Y-115791000D01*
G75*
G02*
X175989000Y-115631000I160000J0D01*
G01*
X176384000Y-115631000D01*
G75*
G02*
X176544000Y-115791000I0J-160000D01*
G01*
X176544000Y-116111000D01*
G75*
G02*
X176384000Y-116271000I-160000J0D01*
G01*
X175989000Y-116271000D01*
G75*
G02*
X175829000Y-116111000I0J160000D01*
G01*
G37*
%TD*%
D26*
%TO.C,Q101*%
X216916000Y-108188000D03*
X215966000Y-106188000D03*
X217866000Y-106188000D03*
%TD*%
D27*
%TO.C,FID3*%
X232588000Y-143000000D03*
%TD*%
%TO.C,FID2*%
X155000000Y-143000000D03*
%TD*%
%TO.C,FID1*%
X155000000Y-103000000D03*
%TD*%
D17*
%TO.C,D92*%
X207772000Y-134028000D03*
X207772000Y-136228000D03*
%TD*%
%TO.C,D91*%
X202268000Y-142240000D03*
X200068000Y-142240000D03*
%TD*%
%TO.C,D82*%
X213360000Y-120480000D03*
X213360000Y-118280000D03*
%TD*%
%TO.C,D81*%
X206840000Y-126492000D03*
X204640000Y-126492000D03*
%TD*%
%TO.C,D101*%
G36*
G01*
X222727000Y-113394500D02*
X222727000Y-112919500D01*
G75*
G02*
X222964500Y-112682000I237500J0D01*
G01*
X223539500Y-112682000D01*
G75*
G02*
X223777000Y-112919500I0J-237500D01*
G01*
X223777000Y-113394500D01*
G75*
G02*
X223539500Y-113632000I-237500J0D01*
G01*
X222964500Y-113632000D01*
G75*
G02*
X222727000Y-113394500I0J237500D01*
G01*
G37*
G36*
G01*
X220977000Y-113394500D02*
X220977000Y-112919500D01*
G75*
G02*
X221214500Y-112682000I237500J0D01*
G01*
X221789500Y-112682000D01*
G75*
G02*
X222027000Y-112919500I0J-237500D01*
G01*
X222027000Y-113394500D01*
G75*
G02*
X221789500Y-113632000I-237500J0D01*
G01*
X221214500Y-113632000D01*
G75*
G02*
X220977000Y-113394500I0J237500D01*
G01*
G37*
%TD*%
%TO.C,D31*%
X179324000Y-107612000D03*
X179324000Y-109812000D03*
%TD*%
%TO.C,D11*%
G36*
G01*
X177054500Y-99664000D02*
X177529500Y-99664000D01*
G75*
G02*
X177767000Y-99901500I0J-237500D01*
G01*
X177767000Y-100476500D01*
G75*
G02*
X177529500Y-100714000I-237500J0D01*
G01*
X177054500Y-100714000D01*
G75*
G02*
X176817000Y-100476500I0J237500D01*
G01*
X176817000Y-99901500D01*
G75*
G02*
X177054500Y-99664000I237500J0D01*
G01*
G37*
G36*
G01*
X177054500Y-97914000D02*
X177529500Y-97914000D01*
G75*
G02*
X177767000Y-98151500I0J-237500D01*
G01*
X177767000Y-98726500D01*
G75*
G02*
X177529500Y-98964000I-237500J0D01*
G01*
X177054500Y-98964000D01*
G75*
G02*
X176817000Y-98726500I0J237500D01*
G01*
X176817000Y-98151500D01*
G75*
G02*
X177054500Y-97914000I237500J0D01*
G01*
G37*
%TD*%
%TO.C,C94*%
G36*
G01*
X226271800Y-144586200D02*
X226271800Y-142586200D01*
G75*
G02*
X226521800Y-142336200I250000J0D01*
G01*
X230021800Y-142336200D01*
G75*
G02*
X230271800Y-142586200I0J-250000D01*
G01*
X230271800Y-144586200D01*
G75*
G02*
X230021800Y-144836200I-250000J0D01*
G01*
X226521800Y-144836200D01*
G75*
G02*
X226271800Y-144586200I0J250000D01*
G01*
G37*
G36*
G01*
X220171800Y-144586200D02*
X220171800Y-142586200D01*
G75*
G02*
X220421800Y-142336200I250000J0D01*
G01*
X223921800Y-142336200D01*
G75*
G02*
X224171800Y-142586200I0J-250000D01*
G01*
X224171800Y-144586200D01*
G75*
G02*
X223921800Y-144836200I-250000J0D01*
G01*
X220421800Y-144836200D01*
G75*
G02*
X220171800Y-144586200I0J250000D01*
G01*
G37*
%TD*%
%TO.C,C92*%
G36*
G01*
X211170400Y-148497300D02*
X211170400Y-148022300D01*
G75*
G02*
X211407900Y-147784800I237500J0D01*
G01*
X212007900Y-147784800D01*
G75*
G02*
X212245400Y-148022300I0J-237500D01*
G01*
X212245400Y-148497300D01*
G75*
G02*
X212007900Y-148734800I-237500J0D01*
G01*
X211407900Y-148734800D01*
G75*
G02*
X211170400Y-148497300I0J237500D01*
G01*
G37*
G36*
G01*
X209445400Y-148497300D02*
X209445400Y-148022300D01*
G75*
G02*
X209682900Y-147784800I237500J0D01*
G01*
X210282900Y-147784800D01*
G75*
G02*
X210520400Y-148022300I0J-237500D01*
G01*
X210520400Y-148497300D01*
G75*
G02*
X210282900Y-148734800I-237500J0D01*
G01*
X209682900Y-148734800D01*
G75*
G02*
X209445400Y-148497300I0J237500D01*
G01*
G37*
%TD*%
%TO.C,C93*%
G36*
G01*
X205469500Y-134803000D02*
X204994500Y-134803000D01*
G75*
G02*
X204757000Y-134565500I0J237500D01*
G01*
X204757000Y-133965500D01*
G75*
G02*
X204994500Y-133728000I237500J0D01*
G01*
X205469500Y-133728000D01*
G75*
G02*
X205707000Y-133965500I0J-237500D01*
G01*
X205707000Y-134565500D01*
G75*
G02*
X205469500Y-134803000I-237500J0D01*
G01*
G37*
G36*
G01*
X205469500Y-136528000D02*
X204994500Y-136528000D01*
G75*
G02*
X204757000Y-136290500I0J237500D01*
G01*
X204757000Y-135690500D01*
G75*
G02*
X204994500Y-135453000I237500J0D01*
G01*
X205469500Y-135453000D01*
G75*
G02*
X205707000Y-135690500I0J-237500D01*
G01*
X205707000Y-136290500D01*
G75*
G02*
X205469500Y-136528000I-237500J0D01*
G01*
G37*
%TD*%
%TO.C,C91*%
G36*
G01*
X201339500Y-137905500D02*
X201339500Y-137430500D01*
G75*
G02*
X201577000Y-137193000I237500J0D01*
G01*
X202177000Y-137193000D01*
G75*
G02*
X202414500Y-137430500I0J-237500D01*
G01*
X202414500Y-137905500D01*
G75*
G02*
X202177000Y-138143000I-237500J0D01*
G01*
X201577000Y-138143000D01*
G75*
G02*
X201339500Y-137905500I0J237500D01*
G01*
G37*
G36*
G01*
X199614500Y-137905500D02*
X199614500Y-137430500D01*
G75*
G02*
X199852000Y-137193000I237500J0D01*
G01*
X200452000Y-137193000D01*
G75*
G02*
X200689500Y-137430500I0J-237500D01*
G01*
X200689500Y-137905500D01*
G75*
G02*
X200452000Y-138143000I-237500J0D01*
G01*
X199852000Y-138143000D01*
G75*
G02*
X199614500Y-137905500I0J237500D01*
G01*
G37*
%TD*%
%TO.C,C82*%
G36*
G01*
X218892000Y-135187700D02*
X218892000Y-134712700D01*
G75*
G02*
X219129500Y-134475200I237500J0D01*
G01*
X219729500Y-134475200D01*
G75*
G02*
X219967000Y-134712700I0J-237500D01*
G01*
X219967000Y-135187700D01*
G75*
G02*
X219729500Y-135425200I-237500J0D01*
G01*
X219129500Y-135425200D01*
G75*
G02*
X218892000Y-135187700I0J237500D01*
G01*
G37*
G36*
G01*
X217167000Y-135187700D02*
X217167000Y-134712700D01*
G75*
G02*
X217404500Y-134475200I237500J0D01*
G01*
X218004500Y-134475200D01*
G75*
G02*
X218242000Y-134712700I0J-237500D01*
G01*
X218242000Y-135187700D01*
G75*
G02*
X218004500Y-135425200I-237500J0D01*
G01*
X217404500Y-135425200D01*
G75*
G02*
X217167000Y-135187700I0J237500D01*
G01*
G37*
%TD*%
%TO.C,C83*%
G36*
G01*
X210582500Y-119705000D02*
X211057500Y-119705000D01*
G75*
G02*
X211295000Y-119942500I0J-237500D01*
G01*
X211295000Y-120542500D01*
G75*
G02*
X211057500Y-120780000I-237500J0D01*
G01*
X210582500Y-120780000D01*
G75*
G02*
X210345000Y-120542500I0J237500D01*
G01*
X210345000Y-119942500D01*
G75*
G02*
X210582500Y-119705000I237500J0D01*
G01*
G37*
G36*
G01*
X210582500Y-117980000D02*
X211057500Y-117980000D01*
G75*
G02*
X211295000Y-118217500I0J-237500D01*
G01*
X211295000Y-118817500D01*
G75*
G02*
X211057500Y-119055000I-237500J0D01*
G01*
X210582500Y-119055000D01*
G75*
G02*
X210345000Y-118817500I0J237500D01*
G01*
X210345000Y-118217500D01*
G75*
G02*
X210582500Y-117980000I237500J0D01*
G01*
G37*
%TD*%
%TO.C,C81*%
G36*
G01*
X206065000Y-122665500D02*
X206065000Y-122190500D01*
G75*
G02*
X206302500Y-121953000I237500J0D01*
G01*
X206902500Y-121953000D01*
G75*
G02*
X207140000Y-122190500I0J-237500D01*
G01*
X207140000Y-122665500D01*
G75*
G02*
X206902500Y-122903000I-237500J0D01*
G01*
X206302500Y-122903000D01*
G75*
G02*
X206065000Y-122665500I0J237500D01*
G01*
G37*
G36*
G01*
X204340000Y-122665500D02*
X204340000Y-122190500D01*
G75*
G02*
X204577500Y-121953000I237500J0D01*
G01*
X205177500Y-121953000D01*
G75*
G02*
X205415000Y-122190500I0J-237500D01*
G01*
X205415000Y-122665500D01*
G75*
G02*
X205177500Y-122903000I-237500J0D01*
G01*
X204577500Y-122903000D01*
G75*
G02*
X204340000Y-122665500I0J237500D01*
G01*
G37*
%TD*%
%TO.C,C31*%
G36*
G01*
X176038500Y-109037000D02*
X176513500Y-109037000D01*
G75*
G02*
X176751000Y-109274500I0J-237500D01*
G01*
X176751000Y-109874500D01*
G75*
G02*
X176513500Y-110112000I-237500J0D01*
G01*
X176038500Y-110112000D01*
G75*
G02*
X175801000Y-109874500I0J237500D01*
G01*
X175801000Y-109274500D01*
G75*
G02*
X176038500Y-109037000I237500J0D01*
G01*
G37*
G36*
G01*
X176038500Y-107312000D02*
X176513500Y-107312000D01*
G75*
G02*
X176751000Y-107549500I0J-237500D01*
G01*
X176751000Y-108149500D01*
G75*
G02*
X176513500Y-108387000I-237500J0D01*
G01*
X176038500Y-108387000D01*
G75*
G02*
X175801000Y-108149500I0J237500D01*
G01*
X175801000Y-107549500D01*
G75*
G02*
X176038500Y-107312000I237500J0D01*
G01*
G37*
%TD*%
%TO.C,C12*%
G36*
G01*
X162568000Y-105114000D02*
X162568000Y-106214000D01*
G75*
G02*
X162318000Y-106464000I-250000J0D01*
G01*
X160218000Y-106464000D01*
G75*
G02*
X159968000Y-106214000I0J250000D01*
G01*
X159968000Y-105114000D01*
G75*
G02*
X160218000Y-104864000I250000J0D01*
G01*
X162318000Y-104864000D01*
G75*
G02*
X162568000Y-105114000I0J-250000D01*
G01*
G37*
G36*
G01*
X166168000Y-105114000D02*
X166168000Y-106214000D01*
G75*
G02*
X165918000Y-106464000I-250000J0D01*
G01*
X163818000Y-106464000D01*
G75*
G02*
X163568000Y-106214000I0J250000D01*
G01*
X163568000Y-105114000D01*
G75*
G02*
X163818000Y-104864000I250000J0D01*
G01*
X165918000Y-104864000D01*
G75*
G02*
X166168000Y-105114000I0J-250000D01*
G01*
G37*
%TD*%
%TO.C,C11*%
G36*
G01*
X162568000Y-99526000D02*
X162568000Y-100626000D01*
G75*
G02*
X162318000Y-100876000I-250000J0D01*
G01*
X160218000Y-100876000D01*
G75*
G02*
X159968000Y-100626000I0J250000D01*
G01*
X159968000Y-99526000D01*
G75*
G02*
X160218000Y-99276000I250000J0D01*
G01*
X162318000Y-99276000D01*
G75*
G02*
X162568000Y-99526000I0J-250000D01*
G01*
G37*
G36*
G01*
X166168000Y-99526000D02*
X166168000Y-100626000D01*
G75*
G02*
X165918000Y-100876000I-250000J0D01*
G01*
X163818000Y-100876000D01*
G75*
G02*
X163568000Y-100626000I0J250000D01*
G01*
X163568000Y-99526000D01*
G75*
G02*
X163818000Y-99276000I250000J0D01*
G01*
X165918000Y-99276000D01*
G75*
G02*
X166168000Y-99526000I0J-250000D01*
G01*
G37*
%TD*%
M02*
