M48
; DRILL file {KiCad (5.1.10)-1} date 02/21/22 21:55:48
; FORMAT={-:-/ absolute / metric / decimal}
; #@! TF.CreationDate,2022-02-21T21:55:48+01:00
; #@! TF.GenerationSoftware,Kicad,Pcbnew,(5.1.10)-1
; #@! TF.FileFunction,Plated,1,2,PTH
FMAT,2
METRIC
T1C0.400
T2C0.800
T3C1.200
T4C1.500
T5C2.700
%
G90
G05
T1
X159.004Y-105.664
X161.29Y-102.108
X162.052Y-124.714
X162.687Y-132.842
X164.084Y-118.11
X164.592Y-128.016
X164.592Y-134.239
X164.592Y-148.082
X165.354Y-130.048
X165.354Y-132.08
X165.7Y-137.668
X165.735Y-139.319
X165.989Y-115.189
X166.497Y-97.79
X167.64Y-108.712
X169.037Y-121.95
X169.037Y-125.476
X169.545Y-140.081
X169.672Y-137.795
X169.774Y-132.445
X169.829Y-119.872
X169.9Y-117.754
X171.121Y-114.664
X171.577Y-129.794
X172.085Y-148.082
X172.593Y-107.188
X173.609Y-108.712
X174.752Y-134.112
X174.787Y-130.869
X174.807Y-114.027
X175.006Y-112.776
X175.041Y-132.842
X175.26Y-119.126
X175.474Y-111.892
X175.641Y-138.811
X175.768Y-128.016
X175.768Y-129.032
X176.149Y-98.425
X177.202Y-134.075
X177.419Y-112.776
X177.673Y-108.331
X178.308Y-114.808
X178.435Y-122.047
X178.435Y-123.063
X178.435Y-129.667
X178.778Y-120.65
X179.578Y-115.316
X179.705Y-148.082
X180.086Y-133.731
X180.467Y-107.569
X180.975Y-129.667
X181.991Y-120.904
X183.388Y-109.22
X183.439Y-119.71
X184.658Y-125.222
X185.196Y-121.206
X186.436Y-135.382
X186.563Y-117.094
X186.563Y-120.142
X186.563Y-134.112
X187.29Y-114.265
X187.325Y-119.38
X187.337Y-123.837
X187.706Y-109.601
X187.706Y-112.395
X187.706Y-138.303
X187.833Y-121.412
X188.017Y-115.951
X188.087Y-146.939
X188.214Y-120.142
X190.754Y-126.492
X191.15Y-116.554
X192.405Y-113.792
X192.405Y-115.062
X192.659Y-135.382
X193.132Y-132.842
X193.294Y-125.857
X194.437Y-124.968
X194.691Y-146.939
X195.072Y-126.238
X195.58Y-120.396
X195.707Y-130.048
X195.762Y-118.944
X195.818Y-128.992
X196.088Y-116.332
X196.088Y-131.699
X196.469Y-118.237
X197.182Y-136.18
X197.231Y-138.43
X197.358Y-134.366
X197.866Y-122.428
X198.247Y-138.43
X199.644Y-121.539
X199.898Y-125.349
X200.914Y-123.952
X201.041Y-119.761
X201.168Y-135.509
X201.295Y-130.175
X202.057Y-127.762
X202.311Y-122.174
X202.438Y-139.7
X203.962Y-124.46
X204.089Y-143.002
X204.216Y-128.524
X205.105Y-120.142
X205.232Y-137.795
X205.994Y-116.332
X207.264Y-124.46
X208.077Y-145.898
X209.169Y-127.0
X209.677Y-122.682
X210.693Y-121.188
X210.947Y-106.045
X211.963Y-118.618
X211.963Y-122.555
X213.487Y-112.268
X213.69Y-135.026
X214.63Y-102.616
X214.757Y-106.172
X217.043Y-113.411
X222.504Y-145.542
X230.276Y-140.513
X230.861Y-130.15
T2
X210.439Y-138.024
X210.439Y-140.564
X210.439Y-143.104
X210.439Y-145.644
X213.741Y-124.689
X213.741Y-127.229
X213.741Y-129.769
X213.741Y-132.309
X218.059Y-138.024
X218.059Y-140.564
X218.059Y-143.104
X218.059Y-145.644
X221.361Y-124.689
X221.361Y-127.229
X221.361Y-129.769
X221.361Y-132.309
T3
X158.75Y-109.768
X158.75Y-112.268
X159.258Y-121.492
X159.258Y-123.992
X159.258Y-126.492
X159.258Y-133.43
X159.258Y-135.93
X159.258Y-138.43
X224.815Y-104.902
X224.815Y-107.402
T4
X186.878Y-99.832
X186.878Y-107.432
X203.378Y-99.832
X206.878Y-107.432
X210.378Y-99.832
T5
X153.0Y-98.0
X153.0Y-148.0
X232.588Y-98.0
X232.588Y-148.0
T0
M30
