<?xml version="1.0" standalone="no"?>
 <!DOCTYPE svg PUBLIC "-//W3C//DTD SVG 1.1//EN" 
 "http://www.w3.org/Graphics/SVG/1.1/DTD/svg11.dtd"> 
<svg
  xmlns:svg="http://www.w3.org/2000/svg"
  xmlns="http://www.w3.org/2000/svg"
  xmlns:xlink="http://www.w3.org/1999/xlink"
  version="1.1"
  width="29.700220cm" height="21.000720cm" viewBox="0 0 116930 82680">
<title>SVG Picture created as BSPD-CV_3_0_03RC_B-NPTH-drl_map.svg date 2022/04/28 16:12:27 </title>
  <desc>Picture generated by PCBNEW </desc>
<g style="fill:#000000; fill-opacity:1;stroke:#000000; stroke-opacity:1;
stroke-linecap:round; stroke-linejoin:round;"
 transform="translate(0 0) scale(1 1)">
</g>
<g style="fill:#000000; fill-opacity:0.0; 
stroke:#000000; stroke-width:-0.000393701; stroke-opacity:1; 
stroke-linecap:round; stroke-linejoin:round;">
</g>
<g style="fill:#000000; fill-opacity:0.0; 
stroke:#000000; stroke-width:19.685; stroke-opacity:1; 
stroke-linecap:round; stroke-linejoin:round;">
<path d="M91732 63385
L60236 63385
" />
<path d="M92913 38582
L92913 62204
" />
<path d="M60236 37401
L91732 37401
" />
<path d="M59055 62204
L59055 38582
" />
<path d="M59055.1 62204.7 A1181.1 1181.1 0.0 0 0 60236.2 63385.8" />
<path d="M91732.3 63385.8 A1181.1 1181.1 0.0 0 0 92913.4 62204.7" />
<path d="M92913.4 38582.7 A1181.1 1181.1 0.0 0 0 91732.3 37401.6" />
<path d="M60236.2 37401.6 A1181.1 1181.1 0.0 0 0 59055.1 38582.7" />
</g>
<g style="fill:#000000; fill-opacity:0.0; 
stroke:#000000; stroke-width:78.7402; stroke-opacity:1; 
stroke-linecap:round; stroke-linejoin:round;">
<path d="M59830 42775
L60500 43444
" />
<path d="M60500 42775
L59830 43444
" />
<path d="M59830 43759
L60500 44429
" />
<path d="M60500 43759
L59830 44429
" />
<path d="M59830 47096
L60500 47766
" />
<path d="M60500 47096
L59830 47766
" />
<path d="M59830 49065
L60500 49734
" />
<path d="M60500 49065
L59830 49734
" />
<path d="M59830 54783
L60500 55452
" />
<path d="M60500 54783
L59830 55452
" />
<path d="M59830 56751
L60500 57421
" />
<path d="M60500 56751
L59830 57421
" />
<path d="M91002 40965
L91671 41634
" />
<path d="M91671 40965
L91002 41634
" />
<path d="M91002 41949
L91671 42618
" />
<path d="M91671 41949
L91002 42618
" />
</g>
<g style="fill:#000000; fill-opacity:0.0; 
stroke:#000000; stroke-width:118.11; stroke-opacity:1; 
stroke-linecap:round; stroke-linejoin:round;">
<text x="59832.7" y="65285.4"
textLength="8779.53" font-size="1574.8" lengthAdjust="spacingAndGlyphs"
text-anchor="start" opacity="0">Drill Map:</text>
<path d="M60172 65229
L60172 64048
L60454 64048
L60622 64104
L60735 64216
L60791 64329
L60847 64554
L60847 64723
L60791 64947
L60735 65060
L60622 65172
L60454 65229
L60172 65229
" />
<path d="M61354 65229
L61354 64441
" />
<path d="M61354 64666
L61410 64554
L61466 64498
L61579 64441
L61691 64441
" />
<path d="M62085 65229
L62085 64441
" />
<path d="M62085 64048
L62028 64104
L62085 64160
L62141 64104
L62085 64048
L62085 64160
" />
<path d="M62816 65229
L62703 65172
L62647 65060
L62647 64048
" />
<path d="M63435 65229
L63322 65172
L63266 65060
L63266 64048
" />
<path d="M64784 65229
L64784 64048
L65178 64891
L65572 64048
L65572 65229
" />
<path d="M66640 65229
L66640 64610
L66584 64498
L66472 64441
L66247 64441
L66134 64498
" />
<path d="M66640 65172
L66528 65229
L66247 65229
L66134 65172
L66078 65060
L66078 64947
L66134 64835
L66247 64779
L66528 64779
L66640 64723
" />
<path d="M67203 64441
L67203 65622
" />
<path d="M67203 64498
L67315 64441
L67540 64441
L67653 64498
L67709 64554
L67765 64666
L67765 65004
L67709 65116
L67653 65172
L67540 65229
L67315 65229
L67203 65172
" />
<path d="M68271 65116
L68328 65172
L68271 65229
L68215 65172
L68271 65116
L68271 65229
" />
<path d="M68271 64498
L68328 64554
L68271 64610
L68215 64554
L68271 64498
L68271 64610
" />
<path d="M58375 66840
L59045 67509
" />
<path d="M59045 66840
L58375 67509
" />
<text x="59832.7" y="67765.7"
textLength="39375.7" font-size="1574.8" lengthAdjust="spacingAndGlyphs"
text-anchor="start" opacity="0">1.700mm / 0.0669" (8 holes) (not plated)</text>
<path d="M60791 67709
L60116 67709
" />
<path d="M60454 67709
L60454 66528
L60341 66697
L60229 66809
L60116 66865
" />
<path d="M61297 67597
L61354 67653
L61297 67709
L61241 67653
L61297 67597
L61297 67709
" />
<path d="M61747 66528
L62535 66528
L62028 67709
" />
<path d="M63210 66528
L63322 66528
L63435 66584
L63491 66640
L63547 66753
L63603 66978
L63603 67259
L63547 67484
L63491 67597
L63435 67653
L63322 67709
L63210 67709
L63097 67653
L63041 67597
L62985 67484
L62928 67259
L62928 66978
L62985 66753
L63041 66640
L63097 66584
L63210 66528
" />
<path d="M64334 66528
L64447 66528
L64559 66584
L64616 66640
L64672 66753
L64728 66978
L64728 67259
L64672 67484
L64616 67597
L64559 67653
L64447 67709
L64334 67709
L64222 67653
L64166 67597
L64109 67484
L64053 67259
L64053 66978
L64109 66753
L64166 66640
L64222 66584
L64334 66528
" />
<path d="M65234 67709
L65234 66922
" />
<path d="M65234 67034
L65291 66978
L65403 66922
L65572 66922
L65684 66978
L65741 67090
L65741 67709
" />
<path d="M65741 67090
L65797 66978
L65909 66922
L66078 66922
L66190 66978
L66247 67090
L66247 67709
" />
<path d="M66809 67709
L66809 66922
" />
<path d="M66809 67034
L66865 66978
L66978 66922
L67147 66922
L67259 66978
L67315 67090
L67315 67709
" />
<path d="M67315 67090
L67372 66978
L67484 66922
L67653 66922
L67765 66978
L67821 67090
L67821 67709
" />
<path d="M70127 66472
L69115 67990
" />
<path d="M71646 66528
L71758 66528
L71871 66584
L71927 66640
L71983 66753
L72040 66978
L72040 67259
L71983 67484
L71927 67597
L71871 67653
L71758 67709
L71646 67709
L71534 67653
L71477 67597
L71421 67484
L71365 67259
L71365 66978
L71421 66753
L71477 66640
L71534 66584
L71646 66528
" />
<path d="M72546 67597
L72602 67653
L72546 67709
L72490 67653
L72546 67597
L72546 67709
" />
<path d="M73333 66528
L73446 66528
L73558 66584
L73615 66640
L73671 66753
L73727 66978
L73727 67259
L73671 67484
L73615 67597
L73558 67653
L73446 67709
L73333 67709
L73221 67653
L73165 67597
L73108 67484
L73052 67259
L73052 66978
L73108 66753
L73165 66640
L73221 66584
L73333 66528
" />
<path d="M74739 66528
L74514 66528
L74402 66584
L74346 66640
L74233 66809
L74177 67034
L74177 67484
L74233 67597
L74289 67653
L74402 67709
L74627 67709
L74739 67653
L74796 67597
L74852 67484
L74852 67203
L74796 67090
L74739 67034
L74627 66978
L74402 66978
L74289 67034
L74233 67090
L74177 67203
" />
<path d="M75864 66528
L75639 66528
L75527 66584
L75471 66640
L75358 66809
L75302 67034
L75302 67484
L75358 67597
L75414 67653
L75527 67709
L75752 67709
L75864 67653
L75920 67597
L75977 67484
L75977 67203
L75920 67090
L75864 67034
L75752 66978
L75527 66978
L75414 67034
L75358 67090
L75302 67203
" />
<path d="M76539 67709
L76764 67709
L76877 67653
L76933 67597
L77045 67428
L77102 67203
L77102 66753
L77045 66640
L76989 66584
L76877 66528
L76652 66528
L76539 66584
L76483 66640
L76427 66753
L76427 67034
L76483 67147
L76539 67203
L76652 67259
L76877 67259
L76989 67203
L77045 67147
L77102 67034
" />
<path d="M77552 66528
L77552 66753
" />
<path d="M78001 66528
L78001 66753
" />
<path d="M79745 68159
L79689 68103
L79576 67934
L79520 67821
L79464 67653
L79408 67372
L79408 67147
L79464 66865
L79520 66697
L79576 66584
L79689 66415
L79745 66359
" />
<path d="M80364 67034
L80251 66978
L80195 66922
L80139 66809
L80139 66753
L80195 66640
L80251 66584
L80364 66528
L80589 66528
L80701 66584
L80757 66640
L80814 66753
L80814 66809
L80757 66922
L80701 66978
L80589 67034
L80364 67034
L80251 67090
L80195 67147
L80139 67259
L80139 67484
L80195 67597
L80251 67653
L80364 67709
L80589 67709
L80701 67653
L80757 67597
L80814 67484
L80814 67259
L80757 67147
L80701 67090
L80589 67034
" />
<path d="M82220 67709
L82220 66528
" />
<path d="M82726 67709
L82726 67090
L82670 66978
L82557 66922
L82388 66922
L82276 66978
L82220 67034
" />
<path d="M83457 67709
L83345 67653
L83288 67597
L83232 67484
L83232 67147
L83288 67034
L83345 66978
L83457 66922
L83626 66922
L83738 66978
L83794 67034
L83851 67147
L83851 67484
L83794 67597
L83738 67653
L83626 67709
L83457 67709
" />
<path d="M84526 67709
L84413 67653
L84357 67540
L84357 66528
" />
<path d="M85426 67653
L85313 67709
L85088 67709
L84976 67653
L84919 67540
L84919 67090
L84976 66978
L85088 66922
L85313 66922
L85426 66978
L85482 67090
L85482 67203
L84919 67315
" />
<path d="M85932 67653
L86044 67709
L86269 67709
L86382 67653
L86438 67540
L86438 67484
L86382 67372
L86269 67315
L86100 67315
L85988 67259
L85932 67147
L85932 67090
L85988 66978
L86100 66922
L86269 66922
L86382 66978
" />
<path d="M86832 68159
L86888 68103
L87000 67934
L87057 67821
L87113 67653
L87169 67372
L87169 67147
L87113 66865
L87057 66697
L87000 66584
L86888 66415
L86832 66359
" />
<path d="M88969 68159
L88913 68103
L88800 67934
L88744 67821
L88688 67653
L88631 67372
L88631 67147
L88688 66865
L88744 66697
L88800 66584
L88913 66415
L88969 66359
" />
<path d="M89419 66922
L89419 67709
" />
<path d="M89419 67034
L89475 66978
L89588 66922
L89756 66922
L89869 66978
L89925 67090
L89925 67709
" />
<path d="M90656 67709
L90544 67653
L90487 67597
L90431 67484
L90431 67147
L90487 67034
L90544 66978
L90656 66922
L90825 66922
L90937 66978
L90994 67034
L91050 67147
L91050 67484
L90994 67597
L90937 67653
L90825 67709
L90656 67709
" />
<path d="M91387 66922
L91837 66922
" />
<path d="M91556 66528
L91556 67540
L91612 67653
L91725 67709
L91837 67709
" />
<path d="M93131 66922
L93131 68103
" />
<path d="M93131 66978
L93243 66922
L93468 66922
L93581 66978
L93637 67034
L93693 67147
L93693 67484
L93637 67597
L93581 67653
L93468 67709
L93243 67709
L93131 67653
" />
<path d="M94368 67709
L94256 67653
L94199 67540
L94199 66528
" />
<path d="M95324 67709
L95324 67090
L95268 66978
L95156 66922
L94931 66922
L94818 66978
" />
<path d="M95324 67653
L95212 67709
L94931 67709
L94818 67653
L94762 67540
L94762 67428
L94818 67315
L94931 67259
L95212 67259
L95324 67203
" />
<path d="M95718 66922
L96168 66922
" />
<path d="M95887 66528
L95887 67540
L95943 67653
L96055 67709
L96168 67709
" />
<path d="M97012 67653
L96899 67709
L96674 67709
L96562 67653
L96505 67540
L96505 67090
L96562 66978
L96674 66922
L96899 66922
L97012 66978
L97068 67090
L97068 67203
L96505 67315
" />
<path d="M98080 67709
L98080 66528
" />
<path d="M98080 67653
L97968 67709
L97743 67709
L97630 67653
L97574 67597
L97518 67484
L97518 67147
L97574 67034
L97630 66978
L97743 66922
L97968 66922
L98080 66978
" />
<path d="M98530 68159
L98586 68103
L98699 67934
L98755 67821
L98811 67653
L98868 67372
L98868 67147
L98811 66865
L98755 66697
L98699 66584
L98586 66415
L98530 66359
" />
</g> 
</svg>
