%TF.GenerationSoftware,KiCad,Pcbnew,(5.1.10)-1*%
%TF.CreationDate,2022-02-21T21:55:40+01:00*%
%TF.ProjectId,BSPD-CV_3_0_01B,42535044-2d43-4565-9f33-5f305f303142,rev?*%
%TF.SameCoordinates,Original*%
%TF.FileFunction,Legend,Bot*%
%TF.FilePolarity,Positive*%
%FSLAX46Y46*%
G04 Gerber Fmt 4.6, Leading zero omitted, Abs format (unit mm)*
G04 Created by KiCad (PCBNEW (5.1.10)-1) date 2022-02-21 21:55:40*
%MOMM*%
%LPD*%
G01*
G04 APERTURE LIST*
%ADD10C,0.150000*%
%ADD11C,0.120000*%
%ADD12O,1.600000X1.600000*%
%ADD13R,1.600000X1.600000*%
%ADD14C,1.700000*%
%ADD15O,2.200000X1.700000*%
%ADD16C,4.700000*%
%ADD17C,2.000000*%
%ADD18C,0.100000*%
G04 APERTURE END LIST*
D10*
X224528285Y-107545238D02*
X224671142Y-107497619D01*
X224909238Y-107497619D01*
X225004476Y-107545238D01*
X225052095Y-107592857D01*
X225099714Y-107688095D01*
X225099714Y-107783333D01*
X225052095Y-107878571D01*
X225004476Y-107926190D01*
X224909238Y-107973809D01*
X224718761Y-108021428D01*
X224623523Y-108069047D01*
X224575904Y-108116666D01*
X224528285Y-108211904D01*
X224528285Y-108307142D01*
X224575904Y-108402380D01*
X224623523Y-108450000D01*
X224718761Y-108497619D01*
X224956857Y-108497619D01*
X225099714Y-108450000D01*
X225528285Y-107497619D02*
X225528285Y-108497619D01*
X225766380Y-108497619D01*
X225909238Y-108450000D01*
X226004476Y-108354761D01*
X226052095Y-108259523D01*
X226099714Y-108069047D01*
X226099714Y-107926190D01*
X226052095Y-107735714D01*
X226004476Y-107640476D01*
X225909238Y-107545238D01*
X225766380Y-107497619D01*
X225528285Y-107497619D01*
X227290190Y-107878571D02*
X228052095Y-107878571D01*
X224528285Y-104243238D02*
X224671142Y-104195619D01*
X224909238Y-104195619D01*
X225004476Y-104243238D01*
X225052095Y-104290857D01*
X225099714Y-104386095D01*
X225099714Y-104481333D01*
X225052095Y-104576571D01*
X225004476Y-104624190D01*
X224909238Y-104671809D01*
X224718761Y-104719428D01*
X224623523Y-104767047D01*
X224575904Y-104814666D01*
X224528285Y-104909904D01*
X224528285Y-105005142D01*
X224575904Y-105100380D01*
X224623523Y-105148000D01*
X224718761Y-105195619D01*
X224956857Y-105195619D01*
X225099714Y-105148000D01*
X225528285Y-104195619D02*
X225528285Y-105195619D01*
X225766380Y-105195619D01*
X225909238Y-105148000D01*
X226004476Y-105052761D01*
X226052095Y-104957523D01*
X226099714Y-104767047D01*
X226099714Y-104624190D01*
X226052095Y-104433714D01*
X226004476Y-104338476D01*
X225909238Y-104243238D01*
X225766380Y-104195619D01*
X225528285Y-104195619D01*
X227290190Y-104576571D02*
X228052095Y-104576571D01*
X227671142Y-104195619D02*
X227671142Y-104957523D01*
X154178095Y-109720000D02*
X154082857Y-109767619D01*
X153940000Y-109767619D01*
X153797142Y-109720000D01*
X153701904Y-109624761D01*
X153654285Y-109529523D01*
X153606666Y-109339047D01*
X153606666Y-109196190D01*
X153654285Y-109005714D01*
X153701904Y-108910476D01*
X153797142Y-108815238D01*
X153940000Y-108767619D01*
X154035238Y-108767619D01*
X154178095Y-108815238D01*
X154225714Y-108862857D01*
X154225714Y-109196190D01*
X154035238Y-109196190D01*
X154654285Y-108767619D02*
X154654285Y-109767619D01*
X155225714Y-108767619D01*
X155225714Y-109767619D01*
X155701904Y-108767619D02*
X155701904Y-109767619D01*
X155940000Y-109767619D01*
X156082857Y-109720000D01*
X156178095Y-109624761D01*
X156225714Y-109529523D01*
X156273333Y-109339047D01*
X156273333Y-109196190D01*
X156225714Y-109005714D01*
X156178095Y-108910476D01*
X156082857Y-108815238D01*
X155940000Y-108767619D01*
X155701904Y-108767619D01*
X154003523Y-113323619D02*
X154336857Y-112323619D01*
X154670190Y-113323619D01*
X155432095Y-112371238D02*
X155336857Y-112323619D01*
X155146380Y-112323619D01*
X155051142Y-112371238D01*
X155003523Y-112418857D01*
X154955904Y-112514095D01*
X154955904Y-112799809D01*
X155003523Y-112895047D01*
X155051142Y-112942666D01*
X155146380Y-112990285D01*
X155336857Y-112990285D01*
X155432095Y-112942666D01*
X156289238Y-112371238D02*
X156194000Y-112323619D01*
X156003523Y-112323619D01*
X155908285Y-112371238D01*
X155860666Y-112418857D01*
X155813047Y-112514095D01*
X155813047Y-112799809D01*
X155860666Y-112895047D01*
X155908285Y-112942666D01*
X156003523Y-112990285D01*
X156194000Y-112990285D01*
X156289238Y-112942666D01*
X155194095Y-135485238D02*
X155336952Y-135437619D01*
X155575047Y-135437619D01*
X155670285Y-135485238D01*
X155717904Y-135532857D01*
X155765523Y-135628095D01*
X155765523Y-135723333D01*
X155717904Y-135818571D01*
X155670285Y-135866190D01*
X155575047Y-135913809D01*
X155384571Y-135961428D01*
X155289333Y-136009047D01*
X155241714Y-136056666D01*
X155194095Y-136151904D01*
X155194095Y-136247142D01*
X155241714Y-136342380D01*
X155289333Y-136390000D01*
X155384571Y-136437619D01*
X155622666Y-136437619D01*
X155765523Y-136390000D01*
X156717904Y-135437619D02*
X156146476Y-135437619D01*
X156432190Y-135437619D02*
X156432190Y-136437619D01*
X156336952Y-136294761D01*
X156241714Y-136199523D01*
X156146476Y-136151904D01*
X154940095Y-138930000D02*
X154844857Y-138977619D01*
X154702000Y-138977619D01*
X154559142Y-138930000D01*
X154463904Y-138834761D01*
X154416285Y-138739523D01*
X154368666Y-138549047D01*
X154368666Y-138406190D01*
X154416285Y-138215714D01*
X154463904Y-138120476D01*
X154559142Y-138025238D01*
X154702000Y-137977619D01*
X154797238Y-137977619D01*
X154940095Y-138025238D01*
X154987714Y-138072857D01*
X154987714Y-138406190D01*
X154797238Y-138406190D01*
X155416285Y-137977619D02*
X155416285Y-138977619D01*
X155987714Y-137977619D01*
X155987714Y-138977619D01*
X156463904Y-137977619D02*
X156463904Y-138977619D01*
X156702000Y-138977619D01*
X156844857Y-138930000D01*
X156940095Y-138834761D01*
X156987714Y-138739523D01*
X157035333Y-138549047D01*
X157035333Y-138406190D01*
X156987714Y-138215714D01*
X156940095Y-138120476D01*
X156844857Y-138025238D01*
X156702000Y-137977619D01*
X156463904Y-137977619D01*
X154511523Y-133897619D02*
X154844857Y-132897619D01*
X155178190Y-133897619D01*
X155940095Y-132945238D02*
X155844857Y-132897619D01*
X155654380Y-132897619D01*
X155559142Y-132945238D01*
X155511523Y-132992857D01*
X155463904Y-133088095D01*
X155463904Y-133373809D01*
X155511523Y-133469047D01*
X155559142Y-133516666D01*
X155654380Y-133564285D01*
X155844857Y-133564285D01*
X155940095Y-133516666D01*
X156797238Y-132945238D02*
X156702000Y-132897619D01*
X156511523Y-132897619D01*
X156416285Y-132945238D01*
X156368666Y-132992857D01*
X156321047Y-133088095D01*
X156321047Y-133373809D01*
X156368666Y-133469047D01*
X156416285Y-133516666D01*
X156511523Y-133564285D01*
X156702000Y-133564285D01*
X156797238Y-133516666D01*
X151717523Y-125515619D02*
X152050857Y-124515619D01*
X152384190Y-125515619D01*
X153146095Y-124563238D02*
X153050857Y-124515619D01*
X152860380Y-124515619D01*
X152765142Y-124563238D01*
X152717523Y-124610857D01*
X152669904Y-124706095D01*
X152669904Y-124991809D01*
X152717523Y-125087047D01*
X152765142Y-125134666D01*
X152860380Y-125182285D01*
X153050857Y-125182285D01*
X153146095Y-125134666D01*
X154003238Y-124563238D02*
X153908000Y-124515619D01*
X153717523Y-124515619D01*
X153622285Y-124563238D01*
X153574666Y-124610857D01*
X153527047Y-124706095D01*
X153527047Y-124991809D01*
X153574666Y-125087047D01*
X153622285Y-125134666D01*
X153717523Y-125182285D01*
X153908000Y-125182285D01*
X154003238Y-125134666D01*
X152146095Y-122023238D02*
X152288952Y-121975619D01*
X152527047Y-121975619D01*
X152622285Y-122023238D01*
X152669904Y-122070857D01*
X152717523Y-122166095D01*
X152717523Y-122261333D01*
X152669904Y-122356571D01*
X152622285Y-122404190D01*
X152527047Y-122451809D01*
X152336571Y-122499428D01*
X152241333Y-122547047D01*
X152193714Y-122594666D01*
X152146095Y-122689904D01*
X152146095Y-122785142D01*
X152193714Y-122880380D01*
X152241333Y-122928000D01*
X152336571Y-122975619D01*
X152574666Y-122975619D01*
X152717523Y-122928000D01*
X153336571Y-122975619D02*
X153431809Y-122975619D01*
X153527047Y-122928000D01*
X153574666Y-122880380D01*
X153622285Y-122785142D01*
X153669904Y-122594666D01*
X153669904Y-122356571D01*
X153622285Y-122166095D01*
X153574666Y-122070857D01*
X153527047Y-122023238D01*
X153431809Y-121975619D01*
X153336571Y-121975619D01*
X153241333Y-122023238D01*
X153193714Y-122070857D01*
X153146095Y-122166095D01*
X153098476Y-122356571D01*
X153098476Y-122594666D01*
X153146095Y-122785142D01*
X153193714Y-122880380D01*
X153241333Y-122928000D01*
X153336571Y-122975619D01*
X152146095Y-120134000D02*
X152050857Y-120181619D01*
X151908000Y-120181619D01*
X151765142Y-120134000D01*
X151669904Y-120038761D01*
X151622285Y-119943523D01*
X151574666Y-119753047D01*
X151574666Y-119610190D01*
X151622285Y-119419714D01*
X151669904Y-119324476D01*
X151765142Y-119229238D01*
X151908000Y-119181619D01*
X152003238Y-119181619D01*
X152146095Y-119229238D01*
X152193714Y-119276857D01*
X152193714Y-119610190D01*
X152003238Y-119610190D01*
X152622285Y-119181619D02*
X152622285Y-120181619D01*
X153193714Y-119181619D01*
X153193714Y-120181619D01*
X153669904Y-119181619D02*
X153669904Y-120181619D01*
X153908000Y-120181619D01*
X154050857Y-120134000D01*
X154146095Y-120038761D01*
X154193714Y-119943523D01*
X154241333Y-119753047D01*
X154241333Y-119610190D01*
X154193714Y-119419714D01*
X154146095Y-119324476D01*
X154050857Y-119229238D01*
X153908000Y-119181619D01*
X153669904Y-119181619D01*
D11*
%TO.C,JP54*%
X170704000Y-131380000D02*
X170704000Y-132780000D01*
X171404000Y-133480000D02*
X172004000Y-133480000D01*
X172704000Y-132780000D02*
X172704000Y-131380000D01*
X172004000Y-130680000D02*
X171404000Y-130680000D01*
X171404000Y-130680000D02*
G75*
G03*
X170704000Y-131380000I0J-700000D01*
G01*
X172704000Y-131380000D02*
G75*
G03*
X172004000Y-130680000I-700000J0D01*
G01*
X172004000Y-133480000D02*
G75*
G03*
X172704000Y-132780000I0J700000D01*
G01*
X170704000Y-132780000D02*
G75*
G03*
X171404000Y-133480000I700000J0D01*
G01*
%TO.C,JP53*%
X172704000Y-137860000D02*
X172704000Y-136460000D01*
X172004000Y-135760000D02*
X171404000Y-135760000D01*
X170704000Y-136460000D02*
X170704000Y-137860000D01*
X171404000Y-138560000D02*
X172004000Y-138560000D01*
X172004000Y-138560000D02*
G75*
G03*
X172704000Y-137860000I0J700000D01*
G01*
X170704000Y-137860000D02*
G75*
G03*
X171404000Y-138560000I700000J0D01*
G01*
X171404000Y-135760000D02*
G75*
G03*
X170704000Y-136460000I0J-700000D01*
G01*
X172704000Y-136460000D02*
G75*
G03*
X172004000Y-135760000I-700000J0D01*
G01*
%TO.C,JP52*%
X166386000Y-131380000D02*
X166386000Y-132780000D01*
X167086000Y-133480000D02*
X167686000Y-133480000D01*
X168386000Y-132780000D02*
X168386000Y-131380000D01*
X167686000Y-130680000D02*
X167086000Y-130680000D01*
X167086000Y-130680000D02*
G75*
G03*
X166386000Y-131380000I0J-700000D01*
G01*
X168386000Y-131380000D02*
G75*
G03*
X167686000Y-130680000I-700000J0D01*
G01*
X167686000Y-133480000D02*
G75*
G03*
X168386000Y-132780000I0J700000D01*
G01*
X166386000Y-132780000D02*
G75*
G03*
X167086000Y-133480000I700000J0D01*
G01*
%TO.C,JP51*%
X168386000Y-137860000D02*
X168386000Y-136460000D01*
X167686000Y-135760000D02*
X167086000Y-135760000D01*
X166386000Y-136460000D02*
X166386000Y-137860000D01*
X167086000Y-138560000D02*
X167686000Y-138560000D01*
X167686000Y-138560000D02*
G75*
G03*
X168386000Y-137860000I0J700000D01*
G01*
X166386000Y-137860000D02*
G75*
G03*
X167086000Y-138560000I700000J0D01*
G01*
X167086000Y-135760000D02*
G75*
G03*
X166386000Y-136460000I0J-700000D01*
G01*
X168386000Y-136460000D02*
G75*
G03*
X167686000Y-135760000I-700000J0D01*
G01*
%TO.C,JP44*%
X170704000Y-118314000D02*
X170704000Y-119714000D01*
X171404000Y-120414000D02*
X172004000Y-120414000D01*
X172704000Y-119714000D02*
X172704000Y-118314000D01*
X172004000Y-117614000D02*
X171404000Y-117614000D01*
X171404000Y-117614000D02*
G75*
G03*
X170704000Y-118314000I0J-700000D01*
G01*
X172704000Y-118314000D02*
G75*
G03*
X172004000Y-117614000I-700000J0D01*
G01*
X172004000Y-120414000D02*
G75*
G03*
X172704000Y-119714000I0J700000D01*
G01*
X170704000Y-119714000D02*
G75*
G03*
X171404000Y-120414000I700000J0D01*
G01*
%TO.C,JP43*%
X172704000Y-124652000D02*
X172704000Y-123252000D01*
X172004000Y-122552000D02*
X171404000Y-122552000D01*
X170704000Y-123252000D02*
X170704000Y-124652000D01*
X171404000Y-125352000D02*
X172004000Y-125352000D01*
X172004000Y-125352000D02*
G75*
G03*
X172704000Y-124652000I0J700000D01*
G01*
X170704000Y-124652000D02*
G75*
G03*
X171404000Y-125352000I700000J0D01*
G01*
X171404000Y-122552000D02*
G75*
G03*
X170704000Y-123252000I0J-700000D01*
G01*
X172704000Y-123252000D02*
G75*
G03*
X172004000Y-122552000I-700000J0D01*
G01*
%TO.C,JP42*%
X166386000Y-118314000D02*
X166386000Y-119714000D01*
X167086000Y-120414000D02*
X167686000Y-120414000D01*
X168386000Y-119714000D02*
X168386000Y-118314000D01*
X167686000Y-117614000D02*
X167086000Y-117614000D01*
X167086000Y-117614000D02*
G75*
G03*
X166386000Y-118314000I0J-700000D01*
G01*
X168386000Y-118314000D02*
G75*
G03*
X167686000Y-117614000I-700000J0D01*
G01*
X167686000Y-120414000D02*
G75*
G03*
X168386000Y-119714000I0J700000D01*
G01*
X166386000Y-119714000D02*
G75*
G03*
X167086000Y-120414000I700000J0D01*
G01*
%TO.C,JP41*%
X168386000Y-124652000D02*
X168386000Y-123252000D01*
X167686000Y-122552000D02*
X167086000Y-122552000D01*
X166386000Y-123252000D02*
X166386000Y-124652000D01*
X167086000Y-125352000D02*
X167686000Y-125352000D01*
X167686000Y-125352000D02*
G75*
G03*
X168386000Y-124652000I0J700000D01*
G01*
X166386000Y-124652000D02*
G75*
G03*
X167086000Y-125352000I700000J0D01*
G01*
X167086000Y-122552000D02*
G75*
G03*
X166386000Y-123252000I0J-700000D01*
G01*
X168386000Y-123252000D02*
G75*
G03*
X167686000Y-122552000I-700000J0D01*
G01*
%TO.C,JP54*%
D10*
X173315380Y-130643476D02*
X174029666Y-130643476D01*
X174172523Y-130595857D01*
X174267761Y-130500619D01*
X174315380Y-130357761D01*
X174315380Y-130262523D01*
X174315380Y-131119666D02*
X173315380Y-131119666D01*
X173315380Y-131500619D01*
X173363000Y-131595857D01*
X173410619Y-131643476D01*
X173505857Y-131691095D01*
X173648714Y-131691095D01*
X173743952Y-131643476D01*
X173791571Y-131595857D01*
X173839190Y-131500619D01*
X173839190Y-131119666D01*
X173315380Y-132595857D02*
X173315380Y-132119666D01*
X173791571Y-132072047D01*
X173743952Y-132119666D01*
X173696333Y-132214904D01*
X173696333Y-132453000D01*
X173743952Y-132548238D01*
X173791571Y-132595857D01*
X173886809Y-132643476D01*
X174124904Y-132643476D01*
X174220142Y-132595857D01*
X174267761Y-132548238D01*
X174315380Y-132453000D01*
X174315380Y-132214904D01*
X174267761Y-132119666D01*
X174220142Y-132072047D01*
X173648714Y-133500619D02*
X174315380Y-133500619D01*
X173267761Y-133262523D02*
X173982047Y-133024428D01*
X173982047Y-133643476D01*
%TO.C,JP53*%
X173188380Y-135850476D02*
X173902666Y-135850476D01*
X174045523Y-135802857D01*
X174140761Y-135707619D01*
X174188380Y-135564761D01*
X174188380Y-135469523D01*
X174188380Y-136326666D02*
X173188380Y-136326666D01*
X173188380Y-136707619D01*
X173236000Y-136802857D01*
X173283619Y-136850476D01*
X173378857Y-136898095D01*
X173521714Y-136898095D01*
X173616952Y-136850476D01*
X173664571Y-136802857D01*
X173712190Y-136707619D01*
X173712190Y-136326666D01*
X173188380Y-137802857D02*
X173188380Y-137326666D01*
X173664571Y-137279047D01*
X173616952Y-137326666D01*
X173569333Y-137421904D01*
X173569333Y-137660000D01*
X173616952Y-137755238D01*
X173664571Y-137802857D01*
X173759809Y-137850476D01*
X173997904Y-137850476D01*
X174093142Y-137802857D01*
X174140761Y-137755238D01*
X174188380Y-137660000D01*
X174188380Y-137421904D01*
X174140761Y-137326666D01*
X174093142Y-137279047D01*
X173188380Y-138183809D02*
X173188380Y-138802857D01*
X173569333Y-138469523D01*
X173569333Y-138612380D01*
X173616952Y-138707619D01*
X173664571Y-138755238D01*
X173759809Y-138802857D01*
X173997904Y-138802857D01*
X174093142Y-138755238D01*
X174140761Y-138707619D01*
X174188380Y-138612380D01*
X174188380Y-138326666D01*
X174140761Y-138231428D01*
X174093142Y-138183809D01*
%TO.C,JP52*%
X164806380Y-130770476D02*
X165520666Y-130770476D01*
X165663523Y-130722857D01*
X165758761Y-130627619D01*
X165806380Y-130484761D01*
X165806380Y-130389523D01*
X165806380Y-131246666D02*
X164806380Y-131246666D01*
X164806380Y-131627619D01*
X164854000Y-131722857D01*
X164901619Y-131770476D01*
X164996857Y-131818095D01*
X165139714Y-131818095D01*
X165234952Y-131770476D01*
X165282571Y-131722857D01*
X165330190Y-131627619D01*
X165330190Y-131246666D01*
X164806380Y-132722857D02*
X164806380Y-132246666D01*
X165282571Y-132199047D01*
X165234952Y-132246666D01*
X165187333Y-132341904D01*
X165187333Y-132580000D01*
X165234952Y-132675238D01*
X165282571Y-132722857D01*
X165377809Y-132770476D01*
X165615904Y-132770476D01*
X165711142Y-132722857D01*
X165758761Y-132675238D01*
X165806380Y-132580000D01*
X165806380Y-132341904D01*
X165758761Y-132246666D01*
X165711142Y-132199047D01*
X164901619Y-133151428D02*
X164854000Y-133199047D01*
X164806380Y-133294285D01*
X164806380Y-133532380D01*
X164854000Y-133627619D01*
X164901619Y-133675238D01*
X164996857Y-133722857D01*
X165092095Y-133722857D01*
X165234952Y-133675238D01*
X165806380Y-133103809D01*
X165806380Y-133722857D01*
%TO.C,JP51*%
X164552380Y-135850476D02*
X165266666Y-135850476D01*
X165409523Y-135802857D01*
X165504761Y-135707619D01*
X165552380Y-135564761D01*
X165552380Y-135469523D01*
X165552380Y-136326666D02*
X164552380Y-136326666D01*
X164552380Y-136707619D01*
X164600000Y-136802857D01*
X164647619Y-136850476D01*
X164742857Y-136898095D01*
X164885714Y-136898095D01*
X164980952Y-136850476D01*
X165028571Y-136802857D01*
X165076190Y-136707619D01*
X165076190Y-136326666D01*
X164552380Y-137802857D02*
X164552380Y-137326666D01*
X165028571Y-137279047D01*
X164980952Y-137326666D01*
X164933333Y-137421904D01*
X164933333Y-137660000D01*
X164980952Y-137755238D01*
X165028571Y-137802857D01*
X165123809Y-137850476D01*
X165361904Y-137850476D01*
X165457142Y-137802857D01*
X165504761Y-137755238D01*
X165552380Y-137660000D01*
X165552380Y-137421904D01*
X165504761Y-137326666D01*
X165457142Y-137279047D01*
X165552380Y-138802857D02*
X165552380Y-138231428D01*
X165552380Y-138517142D02*
X164552380Y-138517142D01*
X164695238Y-138421904D01*
X164790476Y-138326666D01*
X164838095Y-138231428D01*
%TO.C,JP44*%
X173188380Y-117704476D02*
X173902666Y-117704476D01*
X174045523Y-117656857D01*
X174140761Y-117561619D01*
X174188380Y-117418761D01*
X174188380Y-117323523D01*
X174188380Y-118180666D02*
X173188380Y-118180666D01*
X173188380Y-118561619D01*
X173236000Y-118656857D01*
X173283619Y-118704476D01*
X173378857Y-118752095D01*
X173521714Y-118752095D01*
X173616952Y-118704476D01*
X173664571Y-118656857D01*
X173712190Y-118561619D01*
X173712190Y-118180666D01*
X173521714Y-119609238D02*
X174188380Y-119609238D01*
X173140761Y-119371142D02*
X173855047Y-119133047D01*
X173855047Y-119752095D01*
X173521714Y-120561619D02*
X174188380Y-120561619D01*
X173140761Y-120323523D02*
X173855047Y-120085428D01*
X173855047Y-120704476D01*
%TO.C,JP43*%
X173188380Y-122642476D02*
X173902666Y-122642476D01*
X174045523Y-122594857D01*
X174140761Y-122499619D01*
X174188380Y-122356761D01*
X174188380Y-122261523D01*
X174188380Y-123118666D02*
X173188380Y-123118666D01*
X173188380Y-123499619D01*
X173236000Y-123594857D01*
X173283619Y-123642476D01*
X173378857Y-123690095D01*
X173521714Y-123690095D01*
X173616952Y-123642476D01*
X173664571Y-123594857D01*
X173712190Y-123499619D01*
X173712190Y-123118666D01*
X173521714Y-124547238D02*
X174188380Y-124547238D01*
X173140761Y-124309142D02*
X173855047Y-124071047D01*
X173855047Y-124690095D01*
X173188380Y-124975809D02*
X173188380Y-125594857D01*
X173569333Y-125261523D01*
X173569333Y-125404380D01*
X173616952Y-125499619D01*
X173664571Y-125547238D01*
X173759809Y-125594857D01*
X173997904Y-125594857D01*
X174093142Y-125547238D01*
X174140761Y-125499619D01*
X174188380Y-125404380D01*
X174188380Y-125118666D01*
X174140761Y-125023428D01*
X174093142Y-124975809D01*
%TO.C,JP42*%
X164552380Y-117704476D02*
X165266666Y-117704476D01*
X165409523Y-117656857D01*
X165504761Y-117561619D01*
X165552380Y-117418761D01*
X165552380Y-117323523D01*
X165552380Y-118180666D02*
X164552380Y-118180666D01*
X164552380Y-118561619D01*
X164600000Y-118656857D01*
X164647619Y-118704476D01*
X164742857Y-118752095D01*
X164885714Y-118752095D01*
X164980952Y-118704476D01*
X165028571Y-118656857D01*
X165076190Y-118561619D01*
X165076190Y-118180666D01*
X164885714Y-119609238D02*
X165552380Y-119609238D01*
X164504761Y-119371142D02*
X165219047Y-119133047D01*
X165219047Y-119752095D01*
X164647619Y-120085428D02*
X164600000Y-120133047D01*
X164552380Y-120228285D01*
X164552380Y-120466380D01*
X164600000Y-120561619D01*
X164647619Y-120609238D01*
X164742857Y-120656857D01*
X164838095Y-120656857D01*
X164980952Y-120609238D01*
X165552380Y-120037809D01*
X165552380Y-120656857D01*
%TO.C,JP41*%
X164552380Y-122642476D02*
X165266666Y-122642476D01*
X165409523Y-122594857D01*
X165504761Y-122499619D01*
X165552380Y-122356761D01*
X165552380Y-122261523D01*
X165552380Y-123118666D02*
X164552380Y-123118666D01*
X164552380Y-123499619D01*
X164600000Y-123594857D01*
X164647619Y-123642476D01*
X164742857Y-123690095D01*
X164885714Y-123690095D01*
X164980952Y-123642476D01*
X165028571Y-123594857D01*
X165076190Y-123499619D01*
X165076190Y-123118666D01*
X164885714Y-124547238D02*
X165552380Y-124547238D01*
X164504761Y-124309142D02*
X165219047Y-124071047D01*
X165219047Y-124690095D01*
X165552380Y-125594857D02*
X165552380Y-125023428D01*
X165552380Y-125309142D02*
X164552380Y-125309142D01*
X164695238Y-125213904D01*
X164790476Y-125118666D01*
X164838095Y-125023428D01*
%TD*%
%LPC*%
D12*
%TO.C,U15*%
X218059000Y-138023600D03*
X210439000Y-145643600D03*
X218059000Y-140563600D03*
X210439000Y-143103600D03*
X218059000Y-143103600D03*
X210439000Y-140563600D03*
X218059000Y-145643600D03*
D13*
X210439000Y-138023600D03*
%TD*%
D12*
%TO.C,U12*%
X221361000Y-124688600D03*
X213741000Y-132308600D03*
X221361000Y-127228600D03*
X213741000Y-129768600D03*
X221361000Y-129768600D03*
X213741000Y-127228600D03*
X221361000Y-132308600D03*
D13*
X213741000Y-124688600D03*
%TD*%
D14*
%TO.C,J3*%
X152078000Y-133430000D03*
X152078000Y-138430000D03*
D15*
X159258000Y-133430000D03*
X159258000Y-135930000D03*
G36*
G01*
X160358000Y-137830000D02*
X160358000Y-139030000D01*
G75*
G02*
X160108000Y-139280000I-250000J0D01*
G01*
X158408000Y-139280000D01*
G75*
G02*
X158158000Y-139030000I0J250000D01*
G01*
X158158000Y-137830000D01*
G75*
G02*
X158408000Y-137580000I250000J0D01*
G01*
X160108000Y-137580000D01*
G75*
G02*
X160358000Y-137830000I0J-250000D01*
G01*
G37*
%TD*%
D14*
%TO.C,J2*%
X152078000Y-121492000D03*
X152078000Y-126492000D03*
D15*
X159258000Y-121492000D03*
X159258000Y-123992000D03*
G36*
G01*
X160358000Y-125892000D02*
X160358000Y-127092000D01*
G75*
G02*
X160108000Y-127342000I-250000J0D01*
G01*
X158408000Y-127342000D01*
G75*
G02*
X158158000Y-127092000I0J250000D01*
G01*
X158158000Y-125892000D01*
G75*
G02*
X158408000Y-125642000I250000J0D01*
G01*
X160108000Y-125642000D01*
G75*
G02*
X160358000Y-125892000I0J-250000D01*
G01*
G37*
%TD*%
D14*
%TO.C,J4*%
X231995400Y-107402000D03*
X231995400Y-104902000D03*
D15*
X224815400Y-107402000D03*
G36*
G01*
X223715400Y-105502000D02*
X223715400Y-104302000D01*
G75*
G02*
X223965400Y-104052000I250000J0D01*
G01*
X225665400Y-104052000D01*
G75*
G02*
X225915400Y-104302000I0J-250000D01*
G01*
X225915400Y-105502000D01*
G75*
G02*
X225665400Y-105752000I-250000J0D01*
G01*
X223965400Y-105752000D01*
G75*
G02*
X223715400Y-105502000I0J250000D01*
G01*
G37*
%TD*%
D14*
%TO.C,J1*%
X151570000Y-109768000D03*
X151570000Y-112268000D03*
D15*
X158750000Y-109768000D03*
G36*
G01*
X159850000Y-111668000D02*
X159850000Y-112868000D01*
G75*
G02*
X159600000Y-113118000I-250000J0D01*
G01*
X157900000Y-113118000D01*
G75*
G02*
X157650000Y-112868000I0J250000D01*
G01*
X157650000Y-111668000D01*
G75*
G02*
X157900000Y-111418000I250000J0D01*
G01*
X159600000Y-111418000D01*
G75*
G02*
X159850000Y-111668000I0J-250000D01*
G01*
G37*
%TD*%
D16*
%TO.C,H4*%
X232588000Y-148000000D03*
%TD*%
%TO.C,H3*%
X153000000Y-148000000D03*
%TD*%
%TO.C,H2*%
X232588000Y-98000000D03*
%TD*%
%TO.C,H1*%
X153000000Y-98000000D03*
%TD*%
D17*
%TO.C,K101*%
X206878000Y-107432000D03*
X203378000Y-99832000D03*
X210378000Y-99832000D03*
X186878000Y-99832000D03*
X186878000Y-107432000D03*
%TD*%
D18*
%TO.C,JP54*%
G36*
X170954000Y-131930000D02*
G01*
X170954000Y-131430000D01*
X170954602Y-131430000D01*
X170954602Y-131405466D01*
X170959412Y-131356635D01*
X170968984Y-131308510D01*
X170983228Y-131261555D01*
X171002005Y-131216222D01*
X171025136Y-131172949D01*
X171052396Y-131132150D01*
X171083524Y-131094221D01*
X171118221Y-131059524D01*
X171156150Y-131028396D01*
X171196949Y-131001136D01*
X171240222Y-130978005D01*
X171285555Y-130959228D01*
X171332510Y-130944984D01*
X171380635Y-130935412D01*
X171429466Y-130930602D01*
X171454000Y-130930602D01*
X171454000Y-130930000D01*
X171954000Y-130930000D01*
X171954000Y-130930602D01*
X171978534Y-130930602D01*
X172027365Y-130935412D01*
X172075490Y-130944984D01*
X172122445Y-130959228D01*
X172167778Y-130978005D01*
X172211051Y-131001136D01*
X172251850Y-131028396D01*
X172289779Y-131059524D01*
X172324476Y-131094221D01*
X172355604Y-131132150D01*
X172382864Y-131172949D01*
X172405995Y-131216222D01*
X172424772Y-131261555D01*
X172439016Y-131308510D01*
X172448588Y-131356635D01*
X172453398Y-131405466D01*
X172453398Y-131430000D01*
X172454000Y-131430000D01*
X172454000Y-131930000D01*
X170954000Y-131930000D01*
G37*
G36*
X172453398Y-132730000D02*
G01*
X172453398Y-132754534D01*
X172448588Y-132803365D01*
X172439016Y-132851490D01*
X172424772Y-132898445D01*
X172405995Y-132943778D01*
X172382864Y-132987051D01*
X172355604Y-133027850D01*
X172324476Y-133065779D01*
X172289779Y-133100476D01*
X172251850Y-133131604D01*
X172211051Y-133158864D01*
X172167778Y-133181995D01*
X172122445Y-133200772D01*
X172075490Y-133215016D01*
X172027365Y-133224588D01*
X171978534Y-133229398D01*
X171954000Y-133229398D01*
X171954000Y-133230000D01*
X171454000Y-133230000D01*
X171454000Y-133229398D01*
X171429466Y-133229398D01*
X171380635Y-133224588D01*
X171332510Y-133215016D01*
X171285555Y-133200772D01*
X171240222Y-133181995D01*
X171196949Y-133158864D01*
X171156150Y-133131604D01*
X171118221Y-133100476D01*
X171083524Y-133065779D01*
X171052396Y-133027850D01*
X171025136Y-132987051D01*
X171002005Y-132943778D01*
X170983228Y-132898445D01*
X170968984Y-132851490D01*
X170959412Y-132803365D01*
X170954602Y-132754534D01*
X170954602Y-132730000D01*
X170954000Y-132730000D01*
X170954000Y-132230000D01*
X172454000Y-132230000D01*
X172454000Y-132730000D01*
X172453398Y-132730000D01*
G37*
%TD*%
%TO.C,JP53*%
G36*
X170954602Y-136510000D02*
G01*
X170954602Y-136485466D01*
X170959412Y-136436635D01*
X170968984Y-136388510D01*
X170983228Y-136341555D01*
X171002005Y-136296222D01*
X171025136Y-136252949D01*
X171052396Y-136212150D01*
X171083524Y-136174221D01*
X171118221Y-136139524D01*
X171156150Y-136108396D01*
X171196949Y-136081136D01*
X171240222Y-136058005D01*
X171285555Y-136039228D01*
X171332510Y-136024984D01*
X171380635Y-136015412D01*
X171429466Y-136010602D01*
X171454000Y-136010602D01*
X171454000Y-136010000D01*
X171954000Y-136010000D01*
X171954000Y-136010602D01*
X171978534Y-136010602D01*
X172027365Y-136015412D01*
X172075490Y-136024984D01*
X172122445Y-136039228D01*
X172167778Y-136058005D01*
X172211051Y-136081136D01*
X172251850Y-136108396D01*
X172289779Y-136139524D01*
X172324476Y-136174221D01*
X172355604Y-136212150D01*
X172382864Y-136252949D01*
X172405995Y-136296222D01*
X172424772Y-136341555D01*
X172439016Y-136388510D01*
X172448588Y-136436635D01*
X172453398Y-136485466D01*
X172453398Y-136510000D01*
X172454000Y-136510000D01*
X172454000Y-137010000D01*
X170954000Y-137010000D01*
X170954000Y-136510000D01*
X170954602Y-136510000D01*
G37*
G36*
X172454000Y-137310000D02*
G01*
X172454000Y-137810000D01*
X172453398Y-137810000D01*
X172453398Y-137834534D01*
X172448588Y-137883365D01*
X172439016Y-137931490D01*
X172424772Y-137978445D01*
X172405995Y-138023778D01*
X172382864Y-138067051D01*
X172355604Y-138107850D01*
X172324476Y-138145779D01*
X172289779Y-138180476D01*
X172251850Y-138211604D01*
X172211051Y-138238864D01*
X172167778Y-138261995D01*
X172122445Y-138280772D01*
X172075490Y-138295016D01*
X172027365Y-138304588D01*
X171978534Y-138309398D01*
X171954000Y-138309398D01*
X171954000Y-138310000D01*
X171454000Y-138310000D01*
X171454000Y-138309398D01*
X171429466Y-138309398D01*
X171380635Y-138304588D01*
X171332510Y-138295016D01*
X171285555Y-138280772D01*
X171240222Y-138261995D01*
X171196949Y-138238864D01*
X171156150Y-138211604D01*
X171118221Y-138180476D01*
X171083524Y-138145779D01*
X171052396Y-138107850D01*
X171025136Y-138067051D01*
X171002005Y-138023778D01*
X170983228Y-137978445D01*
X170968984Y-137931490D01*
X170959412Y-137883365D01*
X170954602Y-137834534D01*
X170954602Y-137810000D01*
X170954000Y-137810000D01*
X170954000Y-137310000D01*
X172454000Y-137310000D01*
G37*
%TD*%
%TO.C,JP52*%
G36*
X168135398Y-132730000D02*
G01*
X168135398Y-132754534D01*
X168130588Y-132803365D01*
X168121016Y-132851490D01*
X168106772Y-132898445D01*
X168087995Y-132943778D01*
X168064864Y-132987051D01*
X168037604Y-133027850D01*
X168006476Y-133065779D01*
X167971779Y-133100476D01*
X167933850Y-133131604D01*
X167893051Y-133158864D01*
X167849778Y-133181995D01*
X167804445Y-133200772D01*
X167757490Y-133215016D01*
X167709365Y-133224588D01*
X167660534Y-133229398D01*
X167636000Y-133229398D01*
X167636000Y-133230000D01*
X167136000Y-133230000D01*
X167136000Y-133229398D01*
X167111466Y-133229398D01*
X167062635Y-133224588D01*
X167014510Y-133215016D01*
X166967555Y-133200772D01*
X166922222Y-133181995D01*
X166878949Y-133158864D01*
X166838150Y-133131604D01*
X166800221Y-133100476D01*
X166765524Y-133065779D01*
X166734396Y-133027850D01*
X166707136Y-132987051D01*
X166684005Y-132943778D01*
X166665228Y-132898445D01*
X166650984Y-132851490D01*
X166641412Y-132803365D01*
X166636602Y-132754534D01*
X166636602Y-132730000D01*
X166636000Y-132730000D01*
X166636000Y-132230000D01*
X168136000Y-132230000D01*
X168136000Y-132730000D01*
X168135398Y-132730000D01*
G37*
G36*
X166636000Y-131930000D02*
G01*
X166636000Y-131430000D01*
X166636602Y-131430000D01*
X166636602Y-131405466D01*
X166641412Y-131356635D01*
X166650984Y-131308510D01*
X166665228Y-131261555D01*
X166684005Y-131216222D01*
X166707136Y-131172949D01*
X166734396Y-131132150D01*
X166765524Y-131094221D01*
X166800221Y-131059524D01*
X166838150Y-131028396D01*
X166878949Y-131001136D01*
X166922222Y-130978005D01*
X166967555Y-130959228D01*
X167014510Y-130944984D01*
X167062635Y-130935412D01*
X167111466Y-130930602D01*
X167136000Y-130930602D01*
X167136000Y-130930000D01*
X167636000Y-130930000D01*
X167636000Y-130930602D01*
X167660534Y-130930602D01*
X167709365Y-130935412D01*
X167757490Y-130944984D01*
X167804445Y-130959228D01*
X167849778Y-130978005D01*
X167893051Y-131001136D01*
X167933850Y-131028396D01*
X167971779Y-131059524D01*
X168006476Y-131094221D01*
X168037604Y-131132150D01*
X168064864Y-131172949D01*
X168087995Y-131216222D01*
X168106772Y-131261555D01*
X168121016Y-131308510D01*
X168130588Y-131356635D01*
X168135398Y-131405466D01*
X168135398Y-131430000D01*
X168136000Y-131430000D01*
X168136000Y-131930000D01*
X166636000Y-131930000D01*
G37*
%TD*%
%TO.C,JP51*%
G36*
X168136000Y-137310000D02*
G01*
X168136000Y-137810000D01*
X168135398Y-137810000D01*
X168135398Y-137834534D01*
X168130588Y-137883365D01*
X168121016Y-137931490D01*
X168106772Y-137978445D01*
X168087995Y-138023778D01*
X168064864Y-138067051D01*
X168037604Y-138107850D01*
X168006476Y-138145779D01*
X167971779Y-138180476D01*
X167933850Y-138211604D01*
X167893051Y-138238864D01*
X167849778Y-138261995D01*
X167804445Y-138280772D01*
X167757490Y-138295016D01*
X167709365Y-138304588D01*
X167660534Y-138309398D01*
X167636000Y-138309398D01*
X167636000Y-138310000D01*
X167136000Y-138310000D01*
X167136000Y-138309398D01*
X167111466Y-138309398D01*
X167062635Y-138304588D01*
X167014510Y-138295016D01*
X166967555Y-138280772D01*
X166922222Y-138261995D01*
X166878949Y-138238864D01*
X166838150Y-138211604D01*
X166800221Y-138180476D01*
X166765524Y-138145779D01*
X166734396Y-138107850D01*
X166707136Y-138067051D01*
X166684005Y-138023778D01*
X166665228Y-137978445D01*
X166650984Y-137931490D01*
X166641412Y-137883365D01*
X166636602Y-137834534D01*
X166636602Y-137810000D01*
X166636000Y-137810000D01*
X166636000Y-137310000D01*
X168136000Y-137310000D01*
G37*
G36*
X166636602Y-136510000D02*
G01*
X166636602Y-136485466D01*
X166641412Y-136436635D01*
X166650984Y-136388510D01*
X166665228Y-136341555D01*
X166684005Y-136296222D01*
X166707136Y-136252949D01*
X166734396Y-136212150D01*
X166765524Y-136174221D01*
X166800221Y-136139524D01*
X166838150Y-136108396D01*
X166878949Y-136081136D01*
X166922222Y-136058005D01*
X166967555Y-136039228D01*
X167014510Y-136024984D01*
X167062635Y-136015412D01*
X167111466Y-136010602D01*
X167136000Y-136010602D01*
X167136000Y-136010000D01*
X167636000Y-136010000D01*
X167636000Y-136010602D01*
X167660534Y-136010602D01*
X167709365Y-136015412D01*
X167757490Y-136024984D01*
X167804445Y-136039228D01*
X167849778Y-136058005D01*
X167893051Y-136081136D01*
X167933850Y-136108396D01*
X167971779Y-136139524D01*
X168006476Y-136174221D01*
X168037604Y-136212150D01*
X168064864Y-136252949D01*
X168087995Y-136296222D01*
X168106772Y-136341555D01*
X168121016Y-136388510D01*
X168130588Y-136436635D01*
X168135398Y-136485466D01*
X168135398Y-136510000D01*
X168136000Y-136510000D01*
X168136000Y-137010000D01*
X166636000Y-137010000D01*
X166636000Y-136510000D01*
X166636602Y-136510000D01*
G37*
%TD*%
%TO.C,JP44*%
G36*
X170954000Y-118864000D02*
G01*
X170954000Y-118364000D01*
X170954602Y-118364000D01*
X170954602Y-118339466D01*
X170959412Y-118290635D01*
X170968984Y-118242510D01*
X170983228Y-118195555D01*
X171002005Y-118150222D01*
X171025136Y-118106949D01*
X171052396Y-118066150D01*
X171083524Y-118028221D01*
X171118221Y-117993524D01*
X171156150Y-117962396D01*
X171196949Y-117935136D01*
X171240222Y-117912005D01*
X171285555Y-117893228D01*
X171332510Y-117878984D01*
X171380635Y-117869412D01*
X171429466Y-117864602D01*
X171454000Y-117864602D01*
X171454000Y-117864000D01*
X171954000Y-117864000D01*
X171954000Y-117864602D01*
X171978534Y-117864602D01*
X172027365Y-117869412D01*
X172075490Y-117878984D01*
X172122445Y-117893228D01*
X172167778Y-117912005D01*
X172211051Y-117935136D01*
X172251850Y-117962396D01*
X172289779Y-117993524D01*
X172324476Y-118028221D01*
X172355604Y-118066150D01*
X172382864Y-118106949D01*
X172405995Y-118150222D01*
X172424772Y-118195555D01*
X172439016Y-118242510D01*
X172448588Y-118290635D01*
X172453398Y-118339466D01*
X172453398Y-118364000D01*
X172454000Y-118364000D01*
X172454000Y-118864000D01*
X170954000Y-118864000D01*
G37*
G36*
X172453398Y-119664000D02*
G01*
X172453398Y-119688534D01*
X172448588Y-119737365D01*
X172439016Y-119785490D01*
X172424772Y-119832445D01*
X172405995Y-119877778D01*
X172382864Y-119921051D01*
X172355604Y-119961850D01*
X172324476Y-119999779D01*
X172289779Y-120034476D01*
X172251850Y-120065604D01*
X172211051Y-120092864D01*
X172167778Y-120115995D01*
X172122445Y-120134772D01*
X172075490Y-120149016D01*
X172027365Y-120158588D01*
X171978534Y-120163398D01*
X171954000Y-120163398D01*
X171954000Y-120164000D01*
X171454000Y-120164000D01*
X171454000Y-120163398D01*
X171429466Y-120163398D01*
X171380635Y-120158588D01*
X171332510Y-120149016D01*
X171285555Y-120134772D01*
X171240222Y-120115995D01*
X171196949Y-120092864D01*
X171156150Y-120065604D01*
X171118221Y-120034476D01*
X171083524Y-119999779D01*
X171052396Y-119961850D01*
X171025136Y-119921051D01*
X171002005Y-119877778D01*
X170983228Y-119832445D01*
X170968984Y-119785490D01*
X170959412Y-119737365D01*
X170954602Y-119688534D01*
X170954602Y-119664000D01*
X170954000Y-119664000D01*
X170954000Y-119164000D01*
X172454000Y-119164000D01*
X172454000Y-119664000D01*
X172453398Y-119664000D01*
G37*
%TD*%
%TO.C,JP43*%
G36*
X170954602Y-123302000D02*
G01*
X170954602Y-123277466D01*
X170959412Y-123228635D01*
X170968984Y-123180510D01*
X170983228Y-123133555D01*
X171002005Y-123088222D01*
X171025136Y-123044949D01*
X171052396Y-123004150D01*
X171083524Y-122966221D01*
X171118221Y-122931524D01*
X171156150Y-122900396D01*
X171196949Y-122873136D01*
X171240222Y-122850005D01*
X171285555Y-122831228D01*
X171332510Y-122816984D01*
X171380635Y-122807412D01*
X171429466Y-122802602D01*
X171454000Y-122802602D01*
X171454000Y-122802000D01*
X171954000Y-122802000D01*
X171954000Y-122802602D01*
X171978534Y-122802602D01*
X172027365Y-122807412D01*
X172075490Y-122816984D01*
X172122445Y-122831228D01*
X172167778Y-122850005D01*
X172211051Y-122873136D01*
X172251850Y-122900396D01*
X172289779Y-122931524D01*
X172324476Y-122966221D01*
X172355604Y-123004150D01*
X172382864Y-123044949D01*
X172405995Y-123088222D01*
X172424772Y-123133555D01*
X172439016Y-123180510D01*
X172448588Y-123228635D01*
X172453398Y-123277466D01*
X172453398Y-123302000D01*
X172454000Y-123302000D01*
X172454000Y-123802000D01*
X170954000Y-123802000D01*
X170954000Y-123302000D01*
X170954602Y-123302000D01*
G37*
G36*
X172454000Y-124102000D02*
G01*
X172454000Y-124602000D01*
X172453398Y-124602000D01*
X172453398Y-124626534D01*
X172448588Y-124675365D01*
X172439016Y-124723490D01*
X172424772Y-124770445D01*
X172405995Y-124815778D01*
X172382864Y-124859051D01*
X172355604Y-124899850D01*
X172324476Y-124937779D01*
X172289779Y-124972476D01*
X172251850Y-125003604D01*
X172211051Y-125030864D01*
X172167778Y-125053995D01*
X172122445Y-125072772D01*
X172075490Y-125087016D01*
X172027365Y-125096588D01*
X171978534Y-125101398D01*
X171954000Y-125101398D01*
X171954000Y-125102000D01*
X171454000Y-125102000D01*
X171454000Y-125101398D01*
X171429466Y-125101398D01*
X171380635Y-125096588D01*
X171332510Y-125087016D01*
X171285555Y-125072772D01*
X171240222Y-125053995D01*
X171196949Y-125030864D01*
X171156150Y-125003604D01*
X171118221Y-124972476D01*
X171083524Y-124937779D01*
X171052396Y-124899850D01*
X171025136Y-124859051D01*
X171002005Y-124815778D01*
X170983228Y-124770445D01*
X170968984Y-124723490D01*
X170959412Y-124675365D01*
X170954602Y-124626534D01*
X170954602Y-124602000D01*
X170954000Y-124602000D01*
X170954000Y-124102000D01*
X172454000Y-124102000D01*
G37*
%TD*%
%TO.C,JP42*%
G36*
X168135398Y-119664000D02*
G01*
X168135398Y-119688534D01*
X168130588Y-119737365D01*
X168121016Y-119785490D01*
X168106772Y-119832445D01*
X168087995Y-119877778D01*
X168064864Y-119921051D01*
X168037604Y-119961850D01*
X168006476Y-119999779D01*
X167971779Y-120034476D01*
X167933850Y-120065604D01*
X167893051Y-120092864D01*
X167849778Y-120115995D01*
X167804445Y-120134772D01*
X167757490Y-120149016D01*
X167709365Y-120158588D01*
X167660534Y-120163398D01*
X167636000Y-120163398D01*
X167636000Y-120164000D01*
X167136000Y-120164000D01*
X167136000Y-120163398D01*
X167111466Y-120163398D01*
X167062635Y-120158588D01*
X167014510Y-120149016D01*
X166967555Y-120134772D01*
X166922222Y-120115995D01*
X166878949Y-120092864D01*
X166838150Y-120065604D01*
X166800221Y-120034476D01*
X166765524Y-119999779D01*
X166734396Y-119961850D01*
X166707136Y-119921051D01*
X166684005Y-119877778D01*
X166665228Y-119832445D01*
X166650984Y-119785490D01*
X166641412Y-119737365D01*
X166636602Y-119688534D01*
X166636602Y-119664000D01*
X166636000Y-119664000D01*
X166636000Y-119164000D01*
X168136000Y-119164000D01*
X168136000Y-119664000D01*
X168135398Y-119664000D01*
G37*
G36*
X166636000Y-118864000D02*
G01*
X166636000Y-118364000D01*
X166636602Y-118364000D01*
X166636602Y-118339466D01*
X166641412Y-118290635D01*
X166650984Y-118242510D01*
X166665228Y-118195555D01*
X166684005Y-118150222D01*
X166707136Y-118106949D01*
X166734396Y-118066150D01*
X166765524Y-118028221D01*
X166800221Y-117993524D01*
X166838150Y-117962396D01*
X166878949Y-117935136D01*
X166922222Y-117912005D01*
X166967555Y-117893228D01*
X167014510Y-117878984D01*
X167062635Y-117869412D01*
X167111466Y-117864602D01*
X167136000Y-117864602D01*
X167136000Y-117864000D01*
X167636000Y-117864000D01*
X167636000Y-117864602D01*
X167660534Y-117864602D01*
X167709365Y-117869412D01*
X167757490Y-117878984D01*
X167804445Y-117893228D01*
X167849778Y-117912005D01*
X167893051Y-117935136D01*
X167933850Y-117962396D01*
X167971779Y-117993524D01*
X168006476Y-118028221D01*
X168037604Y-118066150D01*
X168064864Y-118106949D01*
X168087995Y-118150222D01*
X168106772Y-118195555D01*
X168121016Y-118242510D01*
X168130588Y-118290635D01*
X168135398Y-118339466D01*
X168135398Y-118364000D01*
X168136000Y-118364000D01*
X168136000Y-118864000D01*
X166636000Y-118864000D01*
G37*
%TD*%
%TO.C,JP41*%
G36*
X168136000Y-124102000D02*
G01*
X168136000Y-124602000D01*
X168135398Y-124602000D01*
X168135398Y-124626534D01*
X168130588Y-124675365D01*
X168121016Y-124723490D01*
X168106772Y-124770445D01*
X168087995Y-124815778D01*
X168064864Y-124859051D01*
X168037604Y-124899850D01*
X168006476Y-124937779D01*
X167971779Y-124972476D01*
X167933850Y-125003604D01*
X167893051Y-125030864D01*
X167849778Y-125053995D01*
X167804445Y-125072772D01*
X167757490Y-125087016D01*
X167709365Y-125096588D01*
X167660534Y-125101398D01*
X167636000Y-125101398D01*
X167636000Y-125102000D01*
X167136000Y-125102000D01*
X167136000Y-125101398D01*
X167111466Y-125101398D01*
X167062635Y-125096588D01*
X167014510Y-125087016D01*
X166967555Y-125072772D01*
X166922222Y-125053995D01*
X166878949Y-125030864D01*
X166838150Y-125003604D01*
X166800221Y-124972476D01*
X166765524Y-124937779D01*
X166734396Y-124899850D01*
X166707136Y-124859051D01*
X166684005Y-124815778D01*
X166665228Y-124770445D01*
X166650984Y-124723490D01*
X166641412Y-124675365D01*
X166636602Y-124626534D01*
X166636602Y-124602000D01*
X166636000Y-124602000D01*
X166636000Y-124102000D01*
X168136000Y-124102000D01*
G37*
G36*
X166636602Y-123302000D02*
G01*
X166636602Y-123277466D01*
X166641412Y-123228635D01*
X166650984Y-123180510D01*
X166665228Y-123133555D01*
X166684005Y-123088222D01*
X166707136Y-123044949D01*
X166734396Y-123004150D01*
X166765524Y-122966221D01*
X166800221Y-122931524D01*
X166838150Y-122900396D01*
X166878949Y-122873136D01*
X166922222Y-122850005D01*
X166967555Y-122831228D01*
X167014510Y-122816984D01*
X167062635Y-122807412D01*
X167111466Y-122802602D01*
X167136000Y-122802602D01*
X167136000Y-122802000D01*
X167636000Y-122802000D01*
X167636000Y-122802602D01*
X167660534Y-122802602D01*
X167709365Y-122807412D01*
X167757490Y-122816984D01*
X167804445Y-122831228D01*
X167849778Y-122850005D01*
X167893051Y-122873136D01*
X167933850Y-122900396D01*
X167971779Y-122931524D01*
X168006476Y-122966221D01*
X168037604Y-123004150D01*
X168064864Y-123044949D01*
X168087995Y-123088222D01*
X168106772Y-123133555D01*
X168121016Y-123180510D01*
X168130588Y-123228635D01*
X168135398Y-123277466D01*
X168135398Y-123302000D01*
X168136000Y-123302000D01*
X168136000Y-123802000D01*
X166636000Y-123802000D01*
X166636000Y-123302000D01*
X166636602Y-123302000D01*
G37*
%TD*%
M02*
