M48
; DRILL file {KiCad (5.1.10)-1} date 03/16/22 15:26:13
; FORMAT={-:-/ absolute / metric / decimal}
; #@! TF.CreationDate,2022-03-16T15:26:13+01:00
; #@! TF.GenerationSoftware,Kicad,Pcbnew,(5.1.10)-1
; #@! TF.FileFunction,Plated,1,2,PTH
FMAT,2
METRIC
T1C0.400
T2C0.800
T3C1.200
T4C1.500
T5C2.700
%
G90
G05
T1
X38.862Y-77.216
X41.148Y-73.66
X41.91Y-96.266
X42.545Y-104.394
X43.942Y-89.662
X44.45Y-99.568
X44.45Y-105.791
X44.45Y-119.634
X45.212Y-101.6
X45.212Y-103.632
X45.558Y-109.22
X45.593Y-110.871
X45.847Y-86.741
X46.355Y-69.342
X47.498Y-80.264
X48.895Y-93.502
X48.895Y-97.028
X49.403Y-111.633
X49.53Y-109.347
X49.632Y-103.997
X49.687Y-91.424
X49.758Y-89.306
X50.979Y-86.216
X51.435Y-101.346
X51.943Y-119.634
X52.451Y-78.74
X53.467Y-80.264
X54.61Y-105.664
X54.645Y-102.421
X54.665Y-85.579
X54.864Y-84.328
X54.899Y-104.394
X55.118Y-90.678
X55.332Y-83.444
X55.499Y-110.363
X55.626Y-99.568
X55.626Y-100.584
X56.007Y-69.977
X57.06Y-105.626
X57.277Y-84.328
X57.531Y-79.883
X58.166Y-86.36
X58.293Y-93.599
X58.293Y-94.615
X58.293Y-101.219
X58.636Y-92.202
X59.436Y-86.868
X59.563Y-119.634
X59.944Y-105.283
X60.325Y-79.121
X60.833Y-101.219
X61.849Y-92.456
X63.246Y-80.772
X63.297Y-91.262
X64.516Y-96.774
X65.054Y-92.758
X66.294Y-106.934
X66.421Y-88.646
X66.421Y-91.694
X66.421Y-105.664
X67.148Y-85.817
X67.183Y-90.932
X67.195Y-95.389
X67.564Y-81.153
X67.564Y-83.947
X67.564Y-109.855
X67.691Y-92.964
X67.875Y-87.503
X67.945Y-118.491
X68.072Y-91.694
X70.612Y-98.044
X71.008Y-88.106
X72.263Y-85.344
X72.263Y-86.614
X72.517Y-106.934
X72.99Y-104.394
X73.152Y-97.409
X74.295Y-96.52
X74.549Y-118.491
X74.93Y-97.79
X75.438Y-91.948
X75.565Y-101.6
X75.62Y-90.496
X75.676Y-100.544
X75.946Y-87.884
X75.946Y-103.251
X76.327Y-89.789
X77.04Y-107.732
X77.089Y-109.982
X77.216Y-105.918
X77.724Y-93.98
X78.105Y-109.982
X79.502Y-93.091
X79.756Y-96.901
X80.772Y-95.504
X80.899Y-91.313
X81.026Y-107.061
X81.153Y-101.727
X81.915Y-99.314
X82.169Y-93.726
X82.296Y-111.252
X83.82Y-96.012
X83.947Y-114.554
X84.074Y-100.076
X84.963Y-91.694
X85.09Y-109.347
X85.852Y-87.884
X87.122Y-96.012
X87.935Y-117.45
X89.027Y-98.552
X89.535Y-94.234
X90.551Y-92.74
X90.805Y-77.597
X91.821Y-90.17
X91.821Y-94.107
X93.345Y-83.82
X93.548Y-106.578
X94.488Y-74.168
X94.615Y-77.724
X96.901Y-84.963
X102.362Y-117.094
X110.134Y-112.065
X110.719Y-101.702
T2
X90.297Y-109.576
X90.297Y-112.116
X90.297Y-114.656
X90.297Y-117.196
X93.599Y-96.241
X93.599Y-98.781
X93.599Y-101.321
X93.599Y-103.861
X97.917Y-109.576
X97.917Y-112.116
X97.917Y-114.656
X97.917Y-117.196
X101.219Y-96.241
X101.219Y-98.781
X101.219Y-101.321
X101.219Y-103.861
T3
X38.608Y-81.32
X38.608Y-83.82
X39.116Y-93.044
X39.116Y-95.544
X39.116Y-98.044
X39.116Y-104.982
X39.116Y-107.482
X39.116Y-109.982
X104.673Y-76.454
X104.673Y-78.954
T4
X66.736Y-71.384
X66.736Y-78.984
X83.236Y-71.384
X86.736Y-78.984
X90.236Y-71.384
T5
X32.858Y-69.552
X32.858Y-119.552
X112.446Y-69.552
X112.446Y-119.552
T0
M30
