M48
; DRILL file {KiCad (5.1.10)-1} date 04/28/22 16:13:26
; FORMAT={-:-/ absolute / metric / decimal}
; #@! TF.CreationDate,2022-04-28T16:13:26+02:00
; #@! TF.GenerationSoftware,Kicad,Pcbnew,(5.1.10)-1
; #@! TF.FileFunction,Plated,1,2,PTH
FMAT,2
METRIC
T1C0.400
T2C0.750
T3C0.800
T4C1.200
T5C1.500
T6C2.700
%
G90
G05
T1
X156.718Y-98.044
X156.718Y-103.632
X156.718Y-107.442
X156.972Y-129.286
X157.226Y-112.014
X157.48Y-118.11
X157.734Y-98.044
X157.734Y-103.632
X157.734Y-116.84
X157.734Y-136.144
X157.988Y-133.604
X161.798Y-133.604
X162.052Y-105.664
X162.814Y-108.204
X163.322Y-105.664
X163.322Y-117.856
X163.898Y-141.224
X164.084Y-108.204
X164.084Y-118.872
X164.592Y-157.734
X164.681Y-128.016
X164.874Y-134.245
X165.862Y-126.746
X165.953Y-121.237
X167.386Y-139.7
X167.418Y-135.855
X167.64Y-101.854
X167.894Y-114.808
X168.148Y-143.51
X168.91Y-114.554
X168.91Y-120.65
X168.993Y-107.661
X169.144Y-137.775
X169.235Y-135.748
X169.926Y-103.124
X171.196Y-103.124
X172.203Y-139.703
X172.212Y-134.366
X172.466Y-103.124
X172.466Y-113.792
X172.466Y-138.176
X172.72Y-120.142
X172.72Y-157.734
X173.12Y-135.636
X173.193Y-115.062
X173.193Y-116.332
X173.193Y-117.856
X173.736Y-106.934
X173.736Y-143.256
X173.923Y-118.539
X174.65Y-119.254
X175.006Y-146.812
X175.514Y-125.73
X176.784Y-133.858
X178.371Y-141.122
X178.441Y-124.996
X178.562Y-132.334
X179.324Y-107.95
X179.578Y-97.028
X180.34Y-128.778
X180.594Y-123.19
X180.848Y-115.824
X180.848Y-157.734
X181.356Y-108.204
X181.61Y-128.524
X182.626Y-104.14
X182.626Y-105.918
X182.626Y-110.998
X182.88Y-138.684
X183.388Y-121.158
X183.642Y-109.474
X183.896Y-105.41
X184.658Y-128.524
X185.166Y-125.476
X185.385Y-107.878
X185.819Y-120.405
X185.825Y-127.489
X185.928Y-133.858
X186.379Y-135.056
X186.69Y-113.792
X186.69Y-142.748
X187.452Y-157.988
X187.679Y-115.486
X187.741Y-137.515
X187.839Y-106.293
X188.037Y-128.805
X188.214Y-110.744
X188.214Y-112.522
X188.406Y-114.453
X188.579Y-117.022
X188.903Y-121.038
X189.064Y-116.147
X190.189Y-130.041
X191.262Y-95.758
X192.024Y-148.336
X192.24Y-122.977
X192.532Y-140.208
X192.606Y-117.059
X192.875Y-123.75
X193.04Y-111.217
X193.259Y-133.096
X193.294Y-144.018
X193.329Y-124.714
X193.548Y-147.828
X193.802Y-157.988
X194.564Y-121.666
X195.152Y-147.834
X195.361Y-138.678
X195.834Y-120.142
X195.84Y-142.754
X196.596Y-118.329
X196.983Y-141.611
X197.042Y-136.389
X197.042Y-137.668
X197.104Y-114.554
X197.104Y-116.167
X197.323Y-104.034
X197.358Y-122.428
X197.358Y-129.54
X197.669Y-131.826
X198.12Y-105.41
X199.136Y-130.048
X200.406Y-125.73
X200.914Y-108.712
X200.914Y-113.792
X201.1Y-116.604
X201.23Y-117.918
X201.422Y-137.414
X201.955Y-132.299
X202.219Y-141.478
X202.447Y-110.963
X202.692Y-143.764
X203.2Y-138.938
X203.419Y-135.299
X203.419Y-136.326
X203.454Y-131.826
X203.708Y-151.638
X204.978Y-120.142
X205.74Y-149.352
X205.775Y-115.983
X206.502Y-114.046
X206.742Y-116.499
X209.55Y-124.714
X209.55Y-143.256
X211.322Y-113.827
X211.582Y-110.744
X212.344Y-114.046
X216.408Y-112.268
X216.408Y-116.84
X216.408Y-124.46
X216.662Y-142.748
X222.504Y-103.886
X225.552Y-132.08
X225.552Y-150.114
X232.918Y-141.732
X233.426Y-130.048
T2
X167.386Y-122.682
X167.386Y-124.968
X167.386Y-129.794
X167.386Y-132.08
X169.926Y-122.682
X169.926Y-124.968
X169.926Y-129.794
X169.926Y-132.08
X176.53Y-127.254
X176.53Y-129.794
X176.784Y-112.268
X176.784Y-114.554
X176.975Y-145.669
X177.038Y-119.38
X177.038Y-121.92
X177.038Y-138.684
X177.038Y-143.383
X177.101Y-136.398
X178.816Y-127.254
X178.816Y-129.794
X179.324Y-112.268
X179.324Y-114.554
X179.514Y-145.669
X179.578Y-119.38
X179.578Y-121.92
X179.578Y-138.684
X179.578Y-143.383
X179.641Y-136.398
T3
X213.36Y-127.254
X213.36Y-129.794
X213.36Y-132.334
X213.36Y-134.874
X213.36Y-145.542
X213.36Y-148.082
X213.36Y-150.622
X213.36Y-153.162
X220.98Y-127.254
X220.98Y-129.794
X220.98Y-132.334
X220.98Y-134.874
X220.98Y-145.542
X220.98Y-148.082
X220.98Y-150.622
X220.98Y-153.162
T4
X160.0Y-109.5
X160.0Y-112.0
X160.0Y-120.476
X160.0Y-122.976
X160.0Y-125.476
X160.0Y-140.0
X160.0Y-142.5
X160.0Y-145.0
X224.815Y-104.902
X224.815Y-107.402
T5
X194.498Y-99.324
X194.498Y-106.924
X210.998Y-106.924
X214.498Y-99.324
X217.998Y-106.924
T6
X153.0Y-98.0
X153.0Y-158.0
X233.0Y-98.0
X233.0Y-158.0
T0
M30
