<?xml version="1.0" standalone="no"?>
 <!DOCTYPE svg PUBLIC "-//W3C//DTD SVG 1.1//EN" 
 "http://www.w3.org/Graphics/SVG/1.1/DTD/svg11.dtd"> 
<svg
  xmlns:svg="http://www.w3.org/2000/svg"
  xmlns="http://www.w3.org/2000/svg"
  xmlns:xlink="http://www.w3.org/1999/xlink"
  version="1.1"
  width="29.700220cm" height="21.000720cm" viewBox="0 0 116930 82680">
<title>SVG Picture created as BSPD-CV_3_0_03RC_B-PTH-drl_map.svg date 2022/04/28 16:13:27 </title>
  <desc>Picture generated by PCBNEW </desc>
<g style="fill:#000000; fill-opacity:1;stroke:#000000; stroke-opacity:1;
stroke-linecap:round; stroke-linejoin:round;"
 transform="translate(0 0) scale(1 1)">
</g>
<g style="fill:#000000; fill-opacity:0.0; 
stroke:#000000; stroke-width:-0.000393701; stroke-opacity:1; 
stroke-linecap:round; stroke-linejoin:round;">
</g>
<g style="fill:#000000; fill-opacity:0.0; 
stroke:#000000; stroke-width:19.685; stroke-opacity:1; 
stroke-linecap:round; stroke-linejoin:round;">
<path d="M91732 63385
L60236 63385
" />
<path d="M92913 38582
L92913 62204
" />
<path d="M60236 37401
L91732 37401
" />
<path d="M59055 62204
L59055 38582
" />
<path d="M59055.1 62204.7 A1181.1 1181.1 0.0 0 0 60236.2 63385.8" />
<path d="M91732.3 63385.8 A1181.1 1181.1 0.0 0 0 92913.4 62204.7" />
<path d="M92913.4 38582.7 A1181.1 1181.1 0.0 0 0 91732.3 37401.6" />
<path d="M60236.2 37401.6 A1181.1 1181.1 0.0 0 0 59055.1 38582.7" />
</g>
<g style="fill:#000000; fill-opacity:0.0; 
stroke:#000000; stroke-width:78.7402; stroke-opacity:1; 
stroke-linecap:round; stroke-linejoin:round;">
<path d="M61621 38521
L61778 38678
" />
<path d="M61778 38521
L61621 38678
" />
<path d="M61621 40721
L61778 40878
" />
<path d="M61778 40721
L61621 40878
" />
<path d="M61621 42221
L61778 42378
" />
<path d="M61778 42221
L61621 42378
" />
<path d="M61721 50821
L61878 50978
" />
<path d="M61878 50821
L61721 50978
" />
<path d="M61821 44021
L61978 44178
" />
<path d="M61978 44021
L61821 44178
" />
<path d="M61921 46421
L62078 46578
" />
<path d="M62078 46421
L61921 46578
" />
<path d="M62021 38521
L62178 38678
" />
<path d="M62178 38521
L62021 38678
" />
<path d="M62021 40721
L62178 40878
" />
<path d="M62178 40721
L62021 40878
" />
<path d="M62021 45921
L62178 46078
" />
<path d="M62178 45921
L62021 46078
" />
<path d="M62021 53521
L62178 53678
" />
<path d="M62178 53521
L62021 53678
" />
<path d="M62121 52521
L62278 52678
" />
<path d="M62278 52521
L62121 52678
" />
<path d="M63621 52521
L63778 52678
" />
<path d="M63778 52521
L63621 52678
" />
<path d="M63721 41521
L63878 41678
" />
<path d="M63878 41521
L63721 41678
" />
<path d="M64021 42521
L64178 42678
" />
<path d="M64178 42521
L64021 42678
" />
<path d="M64221 41521
L64378 41678
" />
<path d="M64378 41521
L64221 41678
" />
<path d="M64221 46321
L64378 46478
" />
<path d="M64378 46321
L64221 46478
" />
<path d="M64448 55521
L64605 55678
" />
<path d="M64605 55521
L64448 55678
" />
<path d="M64521 42521
L64678 42678
" />
<path d="M64678 42521
L64521 42678
" />
<path d="M64521 46721
L64678 46878
" />
<path d="M64678 46721
L64521 46878
" />
<path d="M64721 62021
L64878 62178
" />
<path d="M64878 62021
L64721 62178
" />
<path d="M64756 50321
L64913 50478
" />
<path d="M64913 50321
L64756 50478
" />
<path d="M64832 52773
L64989 52930
" />
<path d="M64989 52773
L64832 52930
" />
<path d="M65221 49821
L65378 49978
" />
<path d="M65378 49821
L65221 49978
" />
<path d="M65256 47652
L65414 47809
" />
<path d="M65414 47652
L65256 47809
" />
<path d="M65821 54921
L65978 55078
" />
<path d="M65978 54921
L65821 55078
" />
<path d="M65833 53407
L65991 53564
" />
<path d="M65991 53407
L65833 53564
" />
<path d="M65921 40021
L66078 40178
" />
<path d="M66078 40021
L65921 40178
" />
<path d="M66021 45121
L66178 45278
" />
<path d="M66178 45121
L66021 45278
" />
<path d="M66121 56421
L66278 56578
" />
<path d="M66278 56421
L66121 56578
" />
<path d="M66421 45021
L66578 45178
" />
<path d="M66578 45021
L66421 45178
" />
<path d="M66421 47421
L66578 47578
" />
<path d="M66578 47421
L66421 47578
" />
<path d="M66453 42307
L66611 42464
" />
<path d="M66611 42307
L66453 42464
" />
<path d="M66513 54163
L66670 54320
" />
<path d="M66670 54163
L66513 54320
" />
<path d="M66549 53365
L66706 53522
" />
<path d="M66706 53365
L66549 53522
" />
<path d="M66821 40521
L66978 40678
" />
<path d="M66978 40521
L66821 40678
" />
<path d="M67321 40521
L67478 40678
" />
<path d="M67478 40521
L67321 40678
" />
<path d="M67717 54922
L67875 55080
" />
<path d="M67875 54922
L67717 55080
" />
<path d="M67721 52821
L67878 52978
" />
<path d="M67878 52821
L67721 52978
" />
<path d="M67821 40521
L67978 40678
" />
<path d="M67978 40521
L67821 40678
" />
<path d="M67821 44721
L67978 44878
" />
<path d="M67978 44721
L67821 44878
" />
<path d="M67821 54321
L67978 54478
" />
<path d="M67978 54321
L67821 54478
" />
<path d="M67921 47221
L68078 47378
" />
<path d="M68078 47221
L67921 47378
" />
<path d="M67921 62021
L68078 62178
" />
<path d="M68078 62021
L67921 62178
" />
<path d="M68078 53321
L68236 53478
" />
<path d="M68236 53321
L68078 53478
" />
<path d="M68107 45221
L68264 45378
" />
<path d="M68264 45221
L68107 45378
" />
<path d="M68107 45721
L68264 45878
" />
<path d="M68264 45721
L68107 45878
" />
<path d="M68107 46321
L68264 46478
" />
<path d="M68264 46321
L68107 46478
" />
<path d="M68321 42021
L68478 42178
" />
<path d="M68478 42021
L68321 42178
" />
<path d="M68321 56321
L68478 56478
" />
<path d="M68478 56321
L68321 56478
" />
<path d="M68394 46590
L68552 46747
" />
<path d="M68552 46590
L68394 46747
" />
<path d="M68681 46871
L68838 47028
" />
<path d="M68838 46871
L68681 47028
" />
<path d="M68821 57721
L68978 57878
" />
<path d="M68978 57721
L68821 57878
" />
<path d="M69021 49421
L69178 49578
" />
<path d="M69178 49421
L69021 49578
" />
<path d="M69521 52621
L69678 52778
" />
<path d="M69678 52621
L69521 52778
" />
<path d="M70146 55481
L70303 55638
" />
<path d="M70303 55481
L70146 55638
" />
<path d="M70173 49132
L70331 49289
" />
<path d="M70331 49132
L70173 49289
" />
<path d="M70221 52021
L70378 52178
" />
<path d="M70378 52021
L70221 52178
" />
<path d="M70521 42421
L70678 42578
" />
<path d="M70678 42421
L70521 42578
" />
<path d="M70621 38121
L70778 38278
" />
<path d="M70778 38121
L70621 38278
" />
<path d="M70921 50621
L71078 50778
" />
<path d="M71078 50621
L70921 50778
" />
<path d="M71021 48421
L71178 48578
" />
<path d="M71178 48421
L71021 48578
" />
<path d="M71121 45521
L71278 45678
" />
<path d="M71278 45521
L71121 45678
" />
<path d="M71121 62021
L71278 62178
" />
<path d="M71278 62021
L71121 62178
" />
<path d="M71321 42521
L71478 42678
" />
<path d="M71478 42521
L71321 42678
" />
<path d="M71421 50521
L71578 50678
" />
<path d="M71578 50521
L71421 50678
" />
<path d="M71821 40921
L71978 41078
" />
<path d="M71978 40921
L71821 41078
" />
<path d="M71821 41621
L71978 41778
" />
<path d="M71978 41621
L71821 41778
" />
<path d="M71821 43621
L71978 43778
" />
<path d="M71978 43621
L71821 43778
" />
<path d="M71921 54521
L72078 54678
" />
<path d="M72078 54521
L71921 54678
" />
<path d="M72121 47621
L72278 47778
" />
<path d="M72278 47621
L72121 47778
" />
<path d="M72221 43021
L72378 43178
" />
<path d="M72378 43021
L72221 43178
" />
<path d="M72321 41421
L72478 41578
" />
<path d="M72478 41421
L72321 41578
" />
<path d="M72621 50521
L72778 50678
" />
<path d="M72778 50521
L72621 50678
" />
<path d="M72821 49321
L72978 49478
" />
<path d="M72978 49321
L72821 49478
" />
<path d="M72907 42392
L73064 42550
" />
<path d="M73064 42392
L72907 42550
" />
<path d="M73078 47324
L73235 47482
" />
<path d="M73235 47324
L73078 47482
" />
<path d="M73080 50113
L73238 50271
" />
<path d="M73238 50113
L73080 50271
" />
<path d="M73121 52621
L73278 52778
" />
<path d="M73278 52621
L73121 52778
" />
<path d="M73298 53092
L73456 53250
" />
<path d="M73456 53092
L73298 53250
" />
<path d="M73421 44721
L73578 44878
" />
<path d="M73578 44721
L73421 44878
" />
<path d="M73421 56121
L73578 56278
" />
<path d="M73578 56121
L73421 56278
" />
<path d="M73721 62121
L73878 62278
" />
<path d="M73878 62121
L73721 62278
" />
<path d="M73810 45388
L73968 45545
" />
<path d="M73968 45388
L73810 45545
" />
<path d="M73835 54061
L73992 54218
" />
<path d="M73992 54061
L73835 54218
" />
<path d="M73873 41768
L74031 41926
" />
<path d="M74031 41768
L73873 41926
" />
<path d="M73951 50632
L74108 50789
" />
<path d="M74108 50632
L73951 50789
" />
<path d="M74021 43521
L74178 43678
" />
<path d="M74178 43521
L74021 43678
" />
<path d="M74021 44221
L74178 44378
" />
<path d="M74178 44221
L74021 44378
" />
<path d="M74096 44981
L74254 45139
" />
<path d="M74254 44981
L74096 45139
" />
<path d="M74164 45992
L74322 46150
" />
<path d="M74322 45992
L74164 46150
" />
<path d="M74292 47574
L74449 47731
" />
<path d="M74449 47574
L74292 47731
" />
<path d="M74355 45648
L74513 45805
" />
<path d="M74513 45648
L74355 45805
" />
<path d="M74798 51118
L74956 51275
" />
<path d="M74956 51118
L74798 51275
" />
<path d="M75221 37621
L75378 37778
" />
<path d="M75378 37621
L75221 37778
" />
<path d="M75521 58321
L75678 58478
" />
<path d="M75678 58321
L75521 58478
" />
<path d="M75606 48337
L75763 48494
" />
<path d="M75763 48337
L75606 48494
" />
<path d="M75721 55121
L75878 55278
" />
<path d="M75878 55121
L75721 55278
" />
<path d="M75750 46007
L75907 46164
" />
<path d="M75907 46007
L75750 46164
" />
<path d="M75856 48641
L76013 48799
" />
<path d="M76013 48641
L75856 48799
" />
<path d="M75921 43707
L76078 43864
" />
<path d="M76078 43707
L75921 43864
" />
<path d="M76007 52321
L76164 52478
" />
<path d="M76164 52321
L76007 52478
" />
<path d="M76021 56621
L76178 56778
" />
<path d="M76178 56621
L76021 56778
" />
<path d="M76035 49021
L76192 49178
" />
<path d="M76192 49021
L76035 49178
" />
<path d="M76121 58121
L76278 58278
" />
<path d="M76278 58121
L76121 58278
" />
<path d="M76221 62121
L76378 62278
" />
<path d="M76378 62121
L76221 62278
" />
<path d="M76521 47821
L76678 47978
" />
<path d="M76678 47821
L76521 47978
" />
<path d="M76752 58123
L76910 58281
" />
<path d="M76910 58123
L76752 58281
" />
<path d="M76835 54518
L76992 54676
" />
<path d="M76992 54518
L76835 54676
" />
<path d="M77021 47221
L77178 47378
" />
<path d="M77178 47221
L77021 47378
" />
<path d="M77023 56123
L77181 56281
" />
<path d="M77181 56123
L77023 56281
" />
<path d="M77321 46507
L77478 46664
" />
<path d="M77478 46507
L77321 46664
" />
<path d="M77473 55673
L77631 55831
" />
<path d="M77631 55673
L77473 55831
" />
<path d="M77496 53617
L77654 53775
" />
<path d="M77654 53617
L77496 53775
" />
<path d="M77496 54121
L77654 54278
" />
<path d="M77654 54121
L77496 54278
" />
<path d="M77521 45021
L77678 45178
" />
<path d="M77678 45021
L77521 45178
" />
<path d="M77521 45656
L77678 45813
" />
<path d="M77678 45656
L77521 45813
" />
<path d="M77607 40879
L77764 41036
" />
<path d="M77764 40879
L77607 41036
" />
<path d="M77621 48121
L77778 48278
" />
<path d="M77778 48121
L77621 48278
" />
<path d="M77621 50921
L77778 51078
" />
<path d="M77778 50921
L77621 51078
" />
<path d="M77743 51821
L77901 51978
" />
<path d="M77901 51821
L77743 51978
" />
<path d="M77921 41421
L78078 41578
" />
<path d="M78078 41421
L77921 41578
" />
<path d="M78321 51121
L78478 51278
" />
<path d="M78478 51121
L78321 51278
" />
<path d="M78821 49421
L78978 49578
" />
<path d="M78978 49421
L78821 49578
" />
<path d="M79021 42721
L79178 42878
" />
<path d="M79178 42721
L79021 42878
" />
<path d="M79021 44721
L79178 44878
" />
<path d="M79178 44721
L79021 44878
" />
<path d="M79094 45828
L79251 45985
" />
<path d="M79251 45828
L79094 45985
" />
<path d="M79145 46345
L79303 46503
" />
<path d="M79303 46345
L79145 46503
" />
<path d="M79221 54021
L79378 54178
" />
<path d="M79378 54021
L79221 54178
" />
<path d="M79430 52007
L79588 52164
" />
<path d="M79588 52007
L79430 52164
" />
<path d="M79535 55621
L79692 55778
" />
<path d="M79692 55621
L79535 55778
" />
<path d="M79624 43607
L79782 43764
" />
<path d="M79782 43607
L79624 43764
" />
<path d="M79721 56521
L79878 56678
" />
<path d="M79878 56521
L79721 56678
" />
<path d="M79921 54621
L80078 54778
" />
<path d="M80078 54621
L79921 54778
" />
<path d="M80007 53188
L80164 53346
" />
<path d="M80164 53188
L80007 53346
" />
<path d="M80007 53592
L80164 53750
" />
<path d="M80164 53592
L80007 53750
" />
<path d="M80021 51821
L80178 51978
" />
<path d="M80178 51821
L80021 51978
" />
<path d="M80121 59621
L80278 59778
" />
<path d="M80278 59621
L80121 59778
" />
<path d="M80621 47221
L80778 47378
" />
<path d="M80778 47221
L80621 47378
" />
<path d="M80921 58721
L81078 58878
" />
<path d="M81078 58721
L80921 58878
" />
<path d="M80935 45583
L81092 45741
" />
<path d="M81092 45583
L80935 45741
" />
<path d="M81221 44821
L81378 44978
" />
<path d="M81378 44821
L81221 44978
" />
<path d="M81315 45787
L81473 45944
" />
<path d="M81473 45787
L81315 45944
" />
<path d="M82421 49021
L82578 49178
" />
<path d="M82578 49021
L82421 49178
" />
<path d="M82421 56321
L82578 56478
" />
<path d="M82578 56321
L82421 56478
" />
<path d="M83118 44735
L83276 44892
" />
<path d="M83276 44735
L83118 44892
" />
<path d="M83221 43521
L83378 43678
" />
<path d="M83378 43521
L83221 43678
" />
<path d="M83521 44821
L83678 44978
" />
<path d="M83678 44821
L83521 44978
" />
<path d="M85121 44121
L85278 44278
" />
<path d="M85278 44121
L85121 44278
" />
<path d="M85121 45921
L85278 46078
" />
<path d="M85278 45921
L85121 46078
" />
<path d="M85121 48921
L85278 49078
" />
<path d="M85278 48921
L85121 49078
" />
<path d="M85221 56121
L85378 56278
" />
<path d="M85378 56121
L85221 56278
" />
<path d="M87521 40821
L87678 40978
" />
<path d="M87678 40821
L87521 40978
" />
<path d="M88721 51921
L88878 52078
" />
<path d="M88878 51921
L88721 52078
" />
<path d="M88721 59021
L88878 59178
" />
<path d="M88878 59021
L88721 59178
" />
<path d="M91621 55721
L91778 55878
" />
<path d="M91778 55721
L91621 55878
" />
<path d="M91821 51121
L91978 51278
" />
<path d="M91978 51121
L91821 51278
" />
<circle cx="65900" cy="48300" r="147.638" /> 
<circle cx="65900" cy="49200" r="147.638" /> 
<circle cx="65900" cy="51100" r="147.638" /> 
<circle cx="65900" cy="52000" r="147.638" /> 
<circle cx="66900" cy="48300" r="147.638" /> 
<circle cx="66900" cy="49200" r="147.638" /> 
<circle cx="66900" cy="51100" r="147.638" /> 
<circle cx="66900" cy="52000" r="147.638" /> 
<circle cx="69500" cy="50100" r="147.638" /> 
<circle cx="69500" cy="51100" r="147.638" /> 
<circle cx="69600" cy="44200" r="147.638" /> 
<circle cx="69600" cy="45100" r="147.638" /> 
<circle cx="69675" cy="57350" r="147.638" /> 
<circle cx="69700" cy="47000" r="147.638" /> 
<circle cx="69700" cy="48000" r="147.638" /> 
<circle cx="69700" cy="54600" r="147.638" /> 
<circle cx="69700" cy="56450" r="147.638" /> 
<circle cx="69725" cy="53700" r="147.638" /> 
<circle cx="70400" cy="50100" r="147.638" /> 
<circle cx="70400" cy="51100" r="147.638" /> 
<circle cx="70600" cy="44200" r="147.638" /> 
<circle cx="70600" cy="45100" r="147.638" /> 
<circle cx="70675" cy="57350" r="147.638" /> 
<circle cx="70700" cy="47000" r="147.638" /> 
<circle cx="70700" cy="48000" r="147.638" /> 
<circle cx="70700" cy="54600" r="147.638" /> 
<circle cx="70700" cy="56450" r="147.638" /> 
<circle cx="70725" cy="53700" r="147.638" /> 
<path d="M84000 49942
L84000 50257
" />
<path d="M83842 50100
L84157 50100
" />
<path d="M84000 50942
L84000 51257
" />
<path d="M83842 51100
L84157 51100
" />
<path d="M84000 51942
L84000 52257
" />
<path d="M83842 52100
L84157 52100
" />
<path d="M84000 52942
L84000 53257
" />
<path d="M83842 53100
L84157 53100
" />
<path d="M84000 57142
L84000 57457
" />
<path d="M83842 57300
L84157 57300
" />
<path d="M84000 58142
L84000 58457
" />
<path d="M83842 58300
L84157 58300
" />
<path d="M84000 59142
L84000 59457
" />
<path d="M83842 59300
L84157 59300
" />
<path d="M84000 60142
L84000 60457
" />
<path d="M83842 60300
L84157 60300
" />
<path d="M87000 49942
L87000 50257
" />
<path d="M86842 50100
L87157 50100
" />
<path d="M87000 50942
L87000 51257
" />
<path d="M86842 51100
L87157 51100
" />
<path d="M87000 51942
L87000 52257
" />
<path d="M86842 52100
L87157 52100
" />
<path d="M87000 52942
L87000 53257
" />
<path d="M86842 53100
L87157 53100
" />
<path d="M87000 57142
L87000 57457
" />
<path d="M86842 57300
L87157 57300
" />
<path d="M87000 58142
L87000 58457
" />
<path d="M86842 58300
L87157 58300
" />
<path d="M87000 59142
L87000 59457
" />
<path d="M86842 59300
L87157 59300
" />
<path d="M87000 60142
L87000 60457
" />
<path d="M86842 60300
L87157 60300
" />
<path style="fill:#000000; fill-opacity:0.0; 
stroke:#000000; stroke-width:78.7402; stroke-opacity:1; 
stroke-linecap:round; stroke-linejoin:round;fill:none"
d="M 63159.2,43277.3
63159.2,42943.2
62825.1,42943.2
62825.1,43277.3
Z" /> 
<path style="fill:#000000; fill-opacity:0.0; 
stroke:#000000; stroke-width:78.7402; stroke-opacity:1; 
stroke-linecap:round; stroke-linejoin:round;fill:none"
d="M 63159.2,44261.5
63159.2,43927.5
62825.1,43927.5
62825.1,44261.5
Z" /> 
<path style="fill:#000000; fill-opacity:0.0; 
stroke:#000000; stroke-width:78.7402; stroke-opacity:1; 
stroke-linecap:round; stroke-linejoin:round;fill:none"
d="M 63159.2,47598.5
63159.2,47264.5
62825.1,47264.5
62825.1,47598.5
Z" /> 
<path style="fill:#000000; fill-opacity:0.0; 
stroke:#000000; stroke-width:78.7402; stroke-opacity:1; 
stroke-linecap:round; stroke-linejoin:round;fill:none"
d="M 63159.2,48582.8
63159.2,48248.7
62825.1,48248.7
62825.1,48582.8
Z" /> 
<path style="fill:#000000; fill-opacity:0.0; 
stroke:#000000; stroke-width:78.7402; stroke-opacity:1; 
stroke-linecap:round; stroke-linejoin:round;fill:none"
d="M 63159.2,49567
63159.2,49233
62825.1,49233
62825.1,49567
Z" /> 
<path style="fill:#000000; fill-opacity:0.0; 
stroke:#000000; stroke-width:78.7402; stroke-opacity:1; 
stroke-linecap:round; stroke-linejoin:round;fill:none"
d="M 63159.2,55285.1
63159.2,54951.1
62825.1,54951.1
62825.1,55285.1
Z" /> 
<path style="fill:#000000; fill-opacity:0.0; 
stroke:#000000; stroke-width:78.7402; stroke-opacity:1; 
stroke-linecap:round; stroke-linejoin:round;fill:none"
d="M 63159.2,56269.4
63159.2,55935.3
62825.1,55935.3
62825.1,56269.4
Z" /> 
<path style="fill:#000000; fill-opacity:0.0; 
stroke:#000000; stroke-width:78.7402; stroke-opacity:1; 
stroke-linecap:round; stroke-linejoin:round;fill:none"
d="M 63159.2,57253.6
63159.2,56919.6
62825.1,56919.6
62825.1,57253.6
Z" /> 
<path style="fill:#000000; fill-opacity:0.0; 
stroke:#000000; stroke-width:78.7402; stroke-opacity:1; 
stroke-linecap:round; stroke-linejoin:round;fill:none"
d="M 88677,41467
88677,41133
88343,41133
88343,41467
Z" /> 
<path style="fill:#000000; fill-opacity:0.0; 
stroke:#000000; stroke-width:78.7402; stroke-opacity:1; 
stroke-linecap:round; stroke-linejoin:round;fill:none"
d="M 88677,42451.3
88677,42117.2
88343,42117.2
88343,42451.3
Z" /> 
<path style="fill:#000000; fill-opacity:0.0; 
stroke:#000000; stroke-width:78.7402; stroke-opacity:1; 
stroke-linecap:round; stroke-linejoin:round;fill:none"
d="M 76574,39399.2
76869.3,39103.9
76574,38808.7
76278.7,39103.9
Z" /> 
<path style="fill:#000000; fill-opacity:0.0; 
stroke:#000000; stroke-width:78.7402; stroke-opacity:1; 
stroke-linecap:round; stroke-linejoin:round;fill:none"
d="M 76574,42391.3
76869.3,42096.1
76574,41800.8
76278.7,42096.1
Z" /> 
<path style="fill:#000000; fill-opacity:0.0; 
stroke:#000000; stroke-width:78.7402; stroke-opacity:1; 
stroke-linecap:round; stroke-linejoin:round;fill:none"
d="M 83070.1,42391.3
83365.4,42096.1
83070.1,41800.8
82774.8,42096.1
Z" /> 
<path style="fill:#000000; fill-opacity:0.0; 
stroke:#000000; stroke-width:78.7402; stroke-opacity:1; 
stroke-linecap:round; stroke-linejoin:round;fill:none"
d="M 84448,39399.2
84743.3,39103.9
84448,38808.7
84152.8,39103.9
Z" /> 
<path style="fill:#000000; fill-opacity:0.0; 
stroke:#000000; stroke-width:78.7402; stroke-opacity:1; 
stroke-linecap:round; stroke-linejoin:round;fill:none"
d="M 85826,42391.3
86121.3,42096.1
85826,41800.8
85530.7,42096.1
Z" /> 
<path d="M59704 38051
L60767 39114
" />
<path d="M60767 38051
L59704 39114
" />
<circle cx="60236.2" cy="38582.7" r="531.496" /> 
<path d="M59704 61673
L60767 62736
" />
<path d="M60767 61673
L59704 62736
" />
<circle cx="60236.2" cy="62204.7" r="531.496" /> 
<path d="M91200 38051
L92263 39114
" />
<path d="M92263 38051
L91200 39114
" />
<circle cx="91732.3" cy="38582.7" r="531.496" /> 
<path d="M91200 61673
L92263 62736
" />
<path d="M92263 61673
L91200 62736
" />
<circle cx="91732.3" cy="62204.7" r="531.496" /> 
</g>
<g style="fill:#000000; fill-opacity:0.0; 
stroke:#000000; stroke-width:118.11; stroke-opacity:1; 
stroke-linecap:round; stroke-linejoin:round;">
<text x="59832.7" y="65285.4"
textLength="8738.19" font-size="1574.8" lengthAdjust="spacingAndGlyphs"
text-anchor="start" opacity="0">Drill Map:</text>
<path d="M60172 65229
L60172 64048
L60454 64048
L60622 64104
L60735 64216
L60791 64329
L60847 64554
L60847 64723
L60791 64947
L60735 65060
L60622 65172
L60454 65229
L60172 65229
" />
<path d="M61354 65229
L61354 64441
" />
<path d="M61354 64666
L61410 64554
L61466 64498
L61579 64441
L61691 64441
" />
<path d="M62085 65229
L62085 64441
" />
<path d="M62085 64048
L62028 64104
L62085 64160
L62141 64104
L62085 64048
L62085 64160
" />
<path d="M62816 65229
L62703 65172
L62647 65060
L62647 64048
" />
<path d="M63435 65229
L63322 65172
L63266 65060
L63266 64048
" />
<path d="M64784 65229
L64784 64048
L65178 64891
L65572 64048
L65572 65229
" />
<path d="M66640 65229
L66640 64610
L66584 64498
L66472 64441
L66247 64441
L66134 64498
" />
<path d="M66640 65172
L66528 65229
L66247 65229
L66134 65172
L66078 65060
L66078 64947
L66134 64835
L66247 64779
L66528 64779
L66640 64723
" />
<path d="M67203 64441
L67203 65622
" />
<path d="M67203 64498
L67315 64441
L67540 64441
L67653 64498
L67709 64554
L67765 64666
L67765 65004
L67709 65116
L67653 65172
L67540 65229
L67315 65229
L67203 65172
" />
<path d="M68271 65116
L68328 65172
L68271 65229
L68215 65172
L68271 65116
L68271 65229
" />
<path d="M68271 64498
L68328 64554
L68271 64610
L68215 64554
L68271 64498
L68271 64610
" />
<path d="M58887 67096
L59045 67253
" />
<path d="M59045 67096
L58887 67253
" />
<text x="59832.7" y="67765.7"
textLength="29926.9" font-size="1574.8" lengthAdjust="spacingAndGlyphs"
text-anchor="start" opacity="0">0.400mm / 0.0157" (156 holes)</text>
<path d="M60397 66528
L60510 66528
L60622 66584
L60679 66640
L60735 66753
L60791 66978
L60791 67259
L60735 67484
L60679 67597
L60622 67653
L60510 67709
L60397 67709
L60285 67653
L60229 67597
L60172 67484
L60116 67259
L60116 66978
L60172 66753
L60229 66640
L60285 66584
L60397 66528
" />
<path d="M61297 67597
L61354 67653
L61297 67709
L61241 67653
L61297 67597
L61297 67709
" />
<path d="M62366 66922
L62366 67709
" />
<path d="M62085 66472
L61803 67315
L62535 67315
" />
<path d="M63210 66528
L63322 66528
L63435 66584
L63491 66640
L63547 66753
L63603 66978
L63603 67259
L63547 67484
L63491 67597
L63435 67653
L63322 67709
L63210 67709
L63097 67653
L63041 67597
L62985 67484
L62928 67259
L62928 66978
L62985 66753
L63041 66640
L63097 66584
L63210 66528
" />
<path d="M64334 66528
L64447 66528
L64559 66584
L64616 66640
L64672 66753
L64728 66978
L64728 67259
L64672 67484
L64616 67597
L64559 67653
L64447 67709
L64334 67709
L64222 67653
L64166 67597
L64109 67484
L64053 67259
L64053 66978
L64109 66753
L64166 66640
L64222 66584
L64334 66528
" />
<path d="M65234 67709
L65234 66922
" />
<path d="M65234 67034
L65291 66978
L65403 66922
L65572 66922
L65684 66978
L65741 67090
L65741 67709
" />
<path d="M65741 67090
L65797 66978
L65909 66922
L66078 66922
L66190 66978
L66247 67090
L66247 67709
" />
<path d="M66809 67709
L66809 66922
" />
<path d="M66809 67034
L66865 66978
L66978 66922
L67147 66922
L67259 66978
L67315 67090
L67315 67709
" />
<path d="M67315 67090
L67372 66978
L67484 66922
L67653 66922
L67765 66978
L67821 67090
L67821 67709
" />
<path d="M70127 66472
L69115 67990
" />
<path d="M71646 66528
L71758 66528
L71871 66584
L71927 66640
L71983 66753
L72040 66978
L72040 67259
L71983 67484
L71927 67597
L71871 67653
L71758 67709
L71646 67709
L71534 67653
L71477 67597
L71421 67484
L71365 67259
L71365 66978
L71421 66753
L71477 66640
L71534 66584
L71646 66528
" />
<path d="M72546 67597
L72602 67653
L72546 67709
L72490 67653
L72546 67597
L72546 67709
" />
<path d="M73333 66528
L73446 66528
L73558 66584
L73615 66640
L73671 66753
L73727 66978
L73727 67259
L73671 67484
L73615 67597
L73558 67653
L73446 67709
L73333 67709
L73221 67653
L73165 67597
L73108 67484
L73052 67259
L73052 66978
L73108 66753
L73165 66640
L73221 66584
L73333 66528
" />
<path d="M74852 67709
L74177 67709
" />
<path d="M74514 67709
L74514 66528
L74402 66697
L74289 66809
L74177 66865
" />
<path d="M75920 66528
L75358 66528
L75302 67090
L75358 67034
L75471 66978
L75752 66978
L75864 67034
L75920 67090
L75977 67203
L75977 67484
L75920 67597
L75864 67653
L75752 67709
L75471 67709
L75358 67653
L75302 67597
" />
<path d="M76370 66528
L77158 66528
L76652 67709
" />
<path d="M77552 66528
L77552 66753
" />
<path d="M78001 66528
L78001 66753
" />
<path d="M79745 68159
L79689 68103
L79576 67934
L79520 67821
L79464 67653
L79408 67372
L79408 67147
L79464 66865
L79520 66697
L79576 66584
L79689 66415
L79745 66359
" />
<path d="M80814 67709
L80139 67709
" />
<path d="M80476 67709
L80476 66528
L80364 66697
L80251 66809
L80139 66865
" />
<path d="M81882 66528
L81320 66528
L81264 67090
L81320 67034
L81432 66978
L81714 66978
L81826 67034
L81882 67090
L81938 67203
L81938 67484
L81882 67597
L81826 67653
L81714 67709
L81432 67709
L81320 67653
L81264 67597
" />
<path d="M82951 66528
L82726 66528
L82613 66584
L82557 66640
L82445 66809
L82388 67034
L82388 67484
L82445 67597
L82501 67653
L82613 67709
L82838 67709
L82951 67653
L83007 67597
L83063 67484
L83063 67203
L83007 67090
L82951 67034
L82838 66978
L82613 66978
L82501 67034
L82445 67090
L82388 67203
" />
<path d="M84469 67709
L84469 66528
" />
<path d="M84976 67709
L84976 67090
L84919 66978
L84807 66922
L84638 66922
L84526 66978
L84469 67034
" />
<path d="M85707 67709
L85594 67653
L85538 67597
L85482 67484
L85482 67147
L85538 67034
L85594 66978
L85707 66922
L85875 66922
L85988 66978
L86044 67034
L86100 67147
L86100 67484
L86044 67597
L85988 67653
L85875 67709
L85707 67709
" />
<path d="M86775 67709
L86663 67653
L86607 67540
L86607 66528
" />
<path d="M87675 67653
L87563 67709
L87338 67709
L87225 67653
L87169 67540
L87169 67090
L87225 66978
L87338 66922
L87563 66922
L87675 66978
L87732 67090
L87732 67203
L87169 67315
" />
<path d="M88181 67653
L88294 67709
L88519 67709
L88631 67653
L88688 67540
L88688 67484
L88631 67372
L88519 67315
L88350 67315
L88238 67259
L88181 67147
L88181 67090
L88238 66978
L88350 66922
L88519 66922
L88631 66978
" />
<path d="M89081 68159
L89138 68103
L89250 67934
L89306 67821
L89363 67653
L89419 67372
L89419 67147
L89363 66865
L89306 66697
L89250 66584
L89138 66415
L89081 66359
" />
<circle cx="58897.6" cy="68734.3" r="147.638" /> 
<text x="59832.7" y="69324.8"
textLength="28802" font-size="1574.8" lengthAdjust="spacingAndGlyphs"
text-anchor="start" opacity="0">0.750mm / 0.0295" (28 holes)</text>
<path d="M60397 68087
L60510 68087
L60622 68143
L60679 68199
L60735 68312
L60791 68537
L60791 68818
L60735 69043
L60679 69156
L60622 69212
L60510 69268
L60397 69268
L60285 69212
L60229 69156
L60172 69043
L60116 68818
L60116 68537
L60172 68312
L60229 68199
L60285 68143
L60397 68087
" />
<path d="M61297 69156
L61354 69212
L61297 69268
L61241 69212
L61297 69156
L61297 69268
" />
<path d="M61747 68087
L62535 68087
L62028 69268
" />
<path d="M63547 68087
L62985 68087
L62928 68649
L62985 68593
L63097 68537
L63378 68537
L63491 68593
L63547 68649
L63603 68762
L63603 69043
L63547 69156
L63491 69212
L63378 69268
L63097 69268
L62985 69212
L62928 69156
" />
<path d="M64334 68087
L64447 68087
L64559 68143
L64616 68199
L64672 68312
L64728 68537
L64728 68818
L64672 69043
L64616 69156
L64559 69212
L64447 69268
L64334 69268
L64222 69212
L64166 69156
L64109 69043
L64053 68818
L64053 68537
L64109 68312
L64166 68199
L64222 68143
L64334 68087
" />
<path d="M65234 69268
L65234 68481
" />
<path d="M65234 68593
L65291 68537
L65403 68481
L65572 68481
L65684 68537
L65741 68649
L65741 69268
" />
<path d="M65741 68649
L65797 68537
L65909 68481
L66078 68481
L66190 68537
L66247 68649
L66247 69268
" />
<path d="M66809 69268
L66809 68481
" />
<path d="M66809 68593
L66865 68537
L66978 68481
L67147 68481
L67259 68537
L67315 68649
L67315 69268
" />
<path d="M67315 68649
L67372 68537
L67484 68481
L67653 68481
L67765 68537
L67821 68649
L67821 69268
" />
<path d="M70127 68031
L69115 69549
" />
<path d="M71646 68087
L71758 68087
L71871 68143
L71927 68199
L71983 68312
L72040 68537
L72040 68818
L71983 69043
L71927 69156
L71871 69212
L71758 69268
L71646 69268
L71534 69212
L71477 69156
L71421 69043
L71365 68818
L71365 68537
L71421 68312
L71477 68199
L71534 68143
L71646 68087
" />
<path d="M72546 69156
L72602 69212
L72546 69268
L72490 69212
L72546 69156
L72546 69268
" />
<path d="M73333 68087
L73446 68087
L73558 68143
L73615 68199
L73671 68312
L73727 68537
L73727 68818
L73671 69043
L73615 69156
L73558 69212
L73446 69268
L73333 69268
L73221 69212
L73165 69156
L73108 69043
L73052 68818
L73052 68537
L73108 68312
L73165 68199
L73221 68143
L73333 68087
" />
<path d="M74177 68199
L74233 68143
L74346 68087
L74627 68087
L74739 68143
L74796 68199
L74852 68312
L74852 68424
L74796 68593
L74121 69268
L74852 69268
" />
<path d="M75414 69268
L75639 69268
L75752 69212
L75808 69156
L75920 68987
L75977 68762
L75977 68312
L75920 68199
L75864 68143
L75752 68087
L75527 68087
L75414 68143
L75358 68199
L75302 68312
L75302 68593
L75358 68706
L75414 68762
L75527 68818
L75752 68818
L75864 68762
L75920 68706
L75977 68593
" />
<path d="M77045 68087
L76483 68087
L76427 68649
L76483 68593
L76595 68537
L76877 68537
L76989 68593
L77045 68649
L77102 68762
L77102 69043
L77045 69156
L76989 69212
L76877 69268
L76595 69268
L76483 69212
L76427 69156
" />
<path d="M77552 68087
L77552 68312
" />
<path d="M78001 68087
L78001 68312
" />
<path d="M79745 69718
L79689 69662
L79576 69493
L79520 69381
L79464 69212
L79408 68931
L79408 68706
L79464 68424
L79520 68256
L79576 68143
L79689 67974
L79745 67918
" />
<path d="M80139 68199
L80195 68143
L80307 68087
L80589 68087
L80701 68143
L80757 68199
L80814 68312
L80814 68424
L80757 68593
L80082 69268
L80814 69268
" />
<path d="M81489 68593
L81376 68537
L81320 68481
L81264 68368
L81264 68312
L81320 68199
L81376 68143
L81489 68087
L81714 68087
L81826 68143
L81882 68199
L81938 68312
L81938 68368
L81882 68481
L81826 68537
L81714 68593
L81489 68593
L81376 68649
L81320 68706
L81264 68818
L81264 69043
L81320 69156
L81376 69212
L81489 69268
L81714 69268
L81826 69212
L81882 69156
L81938 69043
L81938 68818
L81882 68706
L81826 68649
L81714 68593
" />
<path d="M83345 69268
L83345 68087
" />
<path d="M83851 69268
L83851 68649
L83794 68537
L83682 68481
L83513 68481
L83401 68537
L83345 68593
" />
<path d="M84582 69268
L84469 69212
L84413 69156
L84357 69043
L84357 68706
L84413 68593
L84469 68537
L84582 68481
L84751 68481
L84863 68537
L84919 68593
L84976 68706
L84976 69043
L84919 69156
L84863 69212
L84751 69268
L84582 69268
" />
<path d="M85651 69268
L85538 69212
L85482 69099
L85482 68087
" />
<path d="M86550 69212
L86438 69268
L86213 69268
L86100 69212
L86044 69099
L86044 68649
L86100 68537
L86213 68481
L86438 68481
L86550 68537
L86607 68649
L86607 68762
L86044 68874
" />
<path d="M87057 69212
L87169 69268
L87394 69268
L87507 69212
L87563 69099
L87563 69043
L87507 68931
L87394 68874
L87225 68874
L87113 68818
L87057 68706
L87057 68649
L87113 68537
L87225 68481
L87394 68481
L87507 68537
" />
<path d="M87956 69718
L88013 69662
L88125 69493
L88181 69381
L88238 69212
L88294 68931
L88294 68706
L88238 68424
L88181 68256
L88125 68143
L88013 67974
L87956 67918
" />
<path d="M58887 70135
L58887 70450
" />
<path d="M58730 70293
L59045 70293
" />
<text x="59832.7" y="70883.9"
textLength="28802" font-size="1574.8" lengthAdjust="spacingAndGlyphs"
text-anchor="start" opacity="0">0.800mm / 0.0315" (16 holes)</text>
<path d="M60397 69646
L60510 69646
L60622 69702
L60679 69758
L60735 69871
L60791 70096
L60791 70377
L60735 70602
L60679 70715
L60622 70771
L60510 70827
L60397 70827
L60285 70771
L60229 70715
L60172 70602
L60116 70377
L60116 70096
L60172 69871
L60229 69758
L60285 69702
L60397 69646
" />
<path d="M61297 70715
L61354 70771
L61297 70827
L61241 70771
L61297 70715
L61297 70827
" />
<path d="M62028 70152
L61916 70096
L61860 70040
L61803 69927
L61803 69871
L61860 69758
L61916 69702
L62028 69646
L62253 69646
L62366 69702
L62422 69758
L62478 69871
L62478 69927
L62422 70040
L62366 70096
L62253 70152
L62028 70152
L61916 70208
L61860 70265
L61803 70377
L61803 70602
L61860 70715
L61916 70771
L62028 70827
L62253 70827
L62366 70771
L62422 70715
L62478 70602
L62478 70377
L62422 70265
L62366 70208
L62253 70152
" />
<path d="M63210 69646
L63322 69646
L63435 69702
L63491 69758
L63547 69871
L63603 70096
L63603 70377
L63547 70602
L63491 70715
L63435 70771
L63322 70827
L63210 70827
L63097 70771
L63041 70715
L62985 70602
L62928 70377
L62928 70096
L62985 69871
L63041 69758
L63097 69702
L63210 69646
" />
<path d="M64334 69646
L64447 69646
L64559 69702
L64616 69758
L64672 69871
L64728 70096
L64728 70377
L64672 70602
L64616 70715
L64559 70771
L64447 70827
L64334 70827
L64222 70771
L64166 70715
L64109 70602
L64053 70377
L64053 70096
L64109 69871
L64166 69758
L64222 69702
L64334 69646
" />
<path d="M65234 70827
L65234 70040
" />
<path d="M65234 70152
L65291 70096
L65403 70040
L65572 70040
L65684 70096
L65741 70208
L65741 70827
" />
<path d="M65741 70208
L65797 70096
L65909 70040
L66078 70040
L66190 70096
L66247 70208
L66247 70827
" />
<path d="M66809 70827
L66809 70040
" />
<path d="M66809 70152
L66865 70096
L66978 70040
L67147 70040
L67259 70096
L67315 70208
L67315 70827
" />
<path d="M67315 70208
L67372 70096
L67484 70040
L67653 70040
L67765 70096
L67821 70208
L67821 70827
" />
<path d="M70127 69590
L69115 71108
" />
<path d="M71646 69646
L71758 69646
L71871 69702
L71927 69758
L71983 69871
L72040 70096
L72040 70377
L71983 70602
L71927 70715
L71871 70771
L71758 70827
L71646 70827
L71534 70771
L71477 70715
L71421 70602
L71365 70377
L71365 70096
L71421 69871
L71477 69758
L71534 69702
L71646 69646
" />
<path d="M72546 70715
L72602 70771
L72546 70827
L72490 70771
L72546 70715
L72546 70827
" />
<path d="M73333 69646
L73446 69646
L73558 69702
L73615 69758
L73671 69871
L73727 70096
L73727 70377
L73671 70602
L73615 70715
L73558 70771
L73446 70827
L73333 70827
L73221 70771
L73165 70715
L73108 70602
L73052 70377
L73052 70096
L73108 69871
L73165 69758
L73221 69702
L73333 69646
" />
<path d="M74121 69646
L74852 69646
L74458 70096
L74627 70096
L74739 70152
L74796 70208
L74852 70321
L74852 70602
L74796 70715
L74739 70771
L74627 70827
L74289 70827
L74177 70771
L74121 70715
" />
<path d="M75977 70827
L75302 70827
" />
<path d="M75639 70827
L75639 69646
L75527 69815
L75414 69927
L75302 69983
" />
<path d="M77045 69646
L76483 69646
L76427 70208
L76483 70152
L76595 70096
L76877 70096
L76989 70152
L77045 70208
L77102 70321
L77102 70602
L77045 70715
L76989 70771
L76877 70827
L76595 70827
L76483 70771
L76427 70715
" />
<path d="M77552 69646
L77552 69871
" />
<path d="M78001 69646
L78001 69871
" />
<path d="M79745 71277
L79689 71221
L79576 71052
L79520 70940
L79464 70771
L79408 70490
L79408 70265
L79464 69983
L79520 69815
L79576 69702
L79689 69534
L79745 69477
" />
<path d="M80814 70827
L80139 70827
" />
<path d="M80476 70827
L80476 69646
L80364 69815
L80251 69927
L80139 69983
" />
<path d="M81826 69646
L81601 69646
L81489 69702
L81432 69758
L81320 69927
L81264 70152
L81264 70602
L81320 70715
L81376 70771
L81489 70827
L81714 70827
L81826 70771
L81882 70715
L81938 70602
L81938 70321
L81882 70208
L81826 70152
L81714 70096
L81489 70096
L81376 70152
L81320 70208
L81264 70321
" />
<path d="M83345 70827
L83345 69646
" />
<path d="M83851 70827
L83851 70208
L83794 70096
L83682 70040
L83513 70040
L83401 70096
L83345 70152
" />
<path d="M84582 70827
L84469 70771
L84413 70715
L84357 70602
L84357 70265
L84413 70152
L84469 70096
L84582 70040
L84751 70040
L84863 70096
L84919 70152
L84976 70265
L84976 70602
L84919 70715
L84863 70771
L84751 70827
L84582 70827
" />
<path d="M85651 70827
L85538 70771
L85482 70658
L85482 69646
" />
<path d="M86550 70771
L86438 70827
L86213 70827
L86100 70771
L86044 70658
L86044 70208
L86100 70096
L86213 70040
L86438 70040
L86550 70096
L86607 70208
L86607 70321
L86044 70433
" />
<path d="M87057 70771
L87169 70827
L87394 70827
L87507 70771
L87563 70658
L87563 70602
L87507 70490
L87394 70433
L87225 70433
L87113 70377
L87057 70265
L87057 70208
L87113 70096
L87225 70040
L87394 70040
L87507 70096
" />
<path d="M87956 71277
L88013 71221
L88125 71052
L88181 70940
L88238 70771
L88294 70490
L88294 70265
L88238 69983
L88181 69815
L88125 69702
L88013 69534
L87956 69477
" />
<path style="fill:#000000; fill-opacity:0.0; 
stroke:#000000; stroke-width:118.11; stroke-opacity:1; 
stroke-linecap:round; stroke-linejoin:round;fill:none"
d="M 58976.1,72019.4
58976.1,71685.3
58642,71685.3
58642,72019.4
Z" /> 
<text x="59832.7" y="72442.9"
textLength="28802" font-size="1574.8" lengthAdjust="spacingAndGlyphs"
text-anchor="start" opacity="0">1.200mm / 0.0472" (10 holes)</text>
<path d="M60791 72386
L60116 72386
" />
<path d="M60454 72386
L60454 71205
L60341 71374
L60229 71486
L60116 71543
" />
<path d="M61297 72274
L61354 72330
L61297 72386
L61241 72330
L61297 72274
L61297 72386
" />
<path d="M61803 71318
L61860 71261
L61972 71205
L62253 71205
L62366 71261
L62422 71318
L62478 71430
L62478 71543
L62422 71711
L61747 72386
L62478 72386
" />
<path d="M63210 71205
L63322 71205
L63435 71261
L63491 71318
L63547 71430
L63603 71655
L63603 71936
L63547 72161
L63491 72274
L63435 72330
L63322 72386
L63210 72386
L63097 72330
L63041 72274
L62985 72161
L62928 71936
L62928 71655
L62985 71430
L63041 71318
L63097 71261
L63210 71205
" />
<path d="M64334 71205
L64447 71205
L64559 71261
L64616 71318
L64672 71430
L64728 71655
L64728 71936
L64672 72161
L64616 72274
L64559 72330
L64447 72386
L64334 72386
L64222 72330
L64166 72274
L64109 72161
L64053 71936
L64053 71655
L64109 71430
L64166 71318
L64222 71261
L64334 71205
" />
<path d="M65234 72386
L65234 71599
" />
<path d="M65234 71711
L65291 71655
L65403 71599
L65572 71599
L65684 71655
L65741 71767
L65741 72386
" />
<path d="M65741 71767
L65797 71655
L65909 71599
L66078 71599
L66190 71655
L66247 71767
L66247 72386
" />
<path d="M66809 72386
L66809 71599
" />
<path d="M66809 71711
L66865 71655
L66978 71599
L67147 71599
L67259 71655
L67315 71767
L67315 72386
" />
<path d="M67315 71767
L67372 71655
L67484 71599
L67653 71599
L67765 71655
L67821 71767
L67821 72386
" />
<path d="M70127 71149
L69115 72667
" />
<path d="M71646 71205
L71758 71205
L71871 71261
L71927 71318
L71983 71430
L72040 71655
L72040 71936
L71983 72161
L71927 72274
L71871 72330
L71758 72386
L71646 72386
L71534 72330
L71477 72274
L71421 72161
L71365 71936
L71365 71655
L71421 71430
L71477 71318
L71534 71261
L71646 71205
" />
<path d="M72546 72274
L72602 72330
L72546 72386
L72490 72330
L72546 72274
L72546 72386
" />
<path d="M73333 71205
L73446 71205
L73558 71261
L73615 71318
L73671 71430
L73727 71655
L73727 71936
L73671 72161
L73615 72274
L73558 72330
L73446 72386
L73333 72386
L73221 72330
L73165 72274
L73108 72161
L73052 71936
L73052 71655
L73108 71430
L73165 71318
L73221 71261
L73333 71205
" />
<path d="M74739 71599
L74739 72386
" />
<path d="M74458 71149
L74177 71992
L74908 71992
" />
<path d="M75246 71205
L76033 71205
L75527 72386
" />
<path d="M76427 71318
L76483 71261
L76595 71205
L76877 71205
L76989 71261
L77045 71318
L77102 71430
L77102 71543
L77045 71711
L76370 72386
L77102 72386
" />
<path d="M77552 71205
L77552 71430
" />
<path d="M78001 71205
L78001 71430
" />
<path d="M79745 72836
L79689 72780
L79576 72611
L79520 72499
L79464 72330
L79408 72049
L79408 71824
L79464 71543
L79520 71374
L79576 71261
L79689 71093
L79745 71036
" />
<path d="M80814 72386
L80139 72386
" />
<path d="M80476 72386
L80476 71205
L80364 71374
L80251 71486
L80139 71543
" />
<path d="M81545 71205
L81657 71205
L81770 71261
L81826 71318
L81882 71430
L81938 71655
L81938 71936
L81882 72161
L81826 72274
L81770 72330
L81657 72386
L81545 72386
L81432 72330
L81376 72274
L81320 72161
L81264 71936
L81264 71655
L81320 71430
L81376 71318
L81432 71261
L81545 71205
" />
<path d="M83345 72386
L83345 71205
" />
<path d="M83851 72386
L83851 71767
L83794 71655
L83682 71599
L83513 71599
L83401 71655
L83345 71711
" />
<path d="M84582 72386
L84469 72330
L84413 72274
L84357 72161
L84357 71824
L84413 71711
L84469 71655
L84582 71599
L84751 71599
L84863 71655
L84919 71711
L84976 71824
L84976 72161
L84919 72274
L84863 72330
L84751 72386
L84582 72386
" />
<path d="M85651 72386
L85538 72330
L85482 72217
L85482 71205
" />
<path d="M86550 72330
L86438 72386
L86213 72386
L86100 72330
L86044 72217
L86044 71767
L86100 71655
L86213 71599
L86438 71599
L86550 71655
L86607 71767
L86607 71880
L86044 71992
" />
<path d="M87057 72330
L87169 72386
L87394 72386
L87507 72330
L87563 72217
L87563 72161
L87507 72049
L87394 71992
L87225 71992
L87113 71936
L87057 71824
L87057 71767
L87113 71655
L87225 71599
L87394 71599
L87507 71655
" />
<path d="M87956 72836
L88013 72780
L88125 72611
L88181 72499
L88238 72330
L88294 72049
L88294 71824
L88238 71543
L88181 71374
L88125 71261
L88013 71093
L87956 71036
" />
<path style="fill:#000000; fill-opacity:0.0; 
stroke:#000000; stroke-width:118.11; stroke-opacity:1; 
stroke-linecap:round; stroke-linejoin:round;fill:none"
d="M 58750,73706.7
59045.3,73411.4
58750,73116.1
58454.7,73411.4
Z" /> 
<text x="59832.7" y="74002"
textLength="27677.2" font-size="1574.8" lengthAdjust="spacingAndGlyphs"
text-anchor="start" opacity="0">1.500mm / 0.0591" (5 holes)</text>
<path d="M60791 73945
L60116 73945
" />
<path d="M60454 73945
L60454 72764
L60341 72933
L60229 73045
L60116 73102
" />
<path d="M61297 73833
L61354 73889
L61297 73945
L61241 73889
L61297 73833
L61297 73945
" />
<path d="M62422 72764
L61860 72764
L61803 73327
L61860 73270
L61972 73214
L62253 73214
L62366 73270
L62422 73327
L62478 73439
L62478 73720
L62422 73833
L62366 73889
L62253 73945
L61972 73945
L61860 73889
L61803 73833
" />
<path d="M63210 72764
L63322 72764
L63435 72820
L63491 72877
L63547 72989
L63603 73214
L63603 73495
L63547 73720
L63491 73833
L63435 73889
L63322 73945
L63210 73945
L63097 73889
L63041 73833
L62985 73720
L62928 73495
L62928 73214
L62985 72989
L63041 72877
L63097 72820
L63210 72764
" />
<path d="M64334 72764
L64447 72764
L64559 72820
L64616 72877
L64672 72989
L64728 73214
L64728 73495
L64672 73720
L64616 73833
L64559 73889
L64447 73945
L64334 73945
L64222 73889
L64166 73833
L64109 73720
L64053 73495
L64053 73214
L64109 72989
L64166 72877
L64222 72820
L64334 72764
" />
<path d="M65234 73945
L65234 73158
" />
<path d="M65234 73270
L65291 73214
L65403 73158
L65572 73158
L65684 73214
L65741 73327
L65741 73945
" />
<path d="M65741 73327
L65797 73214
L65909 73158
L66078 73158
L66190 73214
L66247 73327
L66247 73945
" />
<path d="M66809 73945
L66809 73158
" />
<path d="M66809 73270
L66865 73214
L66978 73158
L67147 73158
L67259 73214
L67315 73327
L67315 73945
" />
<path d="M67315 73327
L67372 73214
L67484 73158
L67653 73158
L67765 73214
L67821 73327
L67821 73945
" />
<path d="M70127 72708
L69115 74226
" />
<path d="M71646 72764
L71758 72764
L71871 72820
L71927 72877
L71983 72989
L72040 73214
L72040 73495
L71983 73720
L71927 73833
L71871 73889
L71758 73945
L71646 73945
L71534 73889
L71477 73833
L71421 73720
L71365 73495
L71365 73214
L71421 72989
L71477 72877
L71534 72820
L71646 72764
" />
<path d="M72546 73833
L72602 73889
L72546 73945
L72490 73889
L72546 73833
L72546 73945
" />
<path d="M73333 72764
L73446 72764
L73558 72820
L73615 72877
L73671 72989
L73727 73214
L73727 73495
L73671 73720
L73615 73833
L73558 73889
L73446 73945
L73333 73945
L73221 73889
L73165 73833
L73108 73720
L73052 73495
L73052 73214
L73108 72989
L73165 72877
L73221 72820
L73333 72764
" />
<path d="M74796 72764
L74233 72764
L74177 73327
L74233 73270
L74346 73214
L74627 73214
L74739 73270
L74796 73327
L74852 73439
L74852 73720
L74796 73833
L74739 73889
L74627 73945
L74346 73945
L74233 73889
L74177 73833
" />
<path d="M75414 73945
L75639 73945
L75752 73889
L75808 73833
L75920 73664
L75977 73439
L75977 72989
L75920 72877
L75864 72820
L75752 72764
L75527 72764
L75414 72820
L75358 72877
L75302 72989
L75302 73270
L75358 73383
L75414 73439
L75527 73495
L75752 73495
L75864 73439
L75920 73383
L75977 73270
" />
<path d="M77102 73945
L76427 73945
" />
<path d="M76764 73945
L76764 72764
L76652 72933
L76539 73045
L76427 73102
" />
<path d="M77552 72764
L77552 72989
" />
<path d="M78001 72764
L78001 72989
" />
<path d="M79745 74395
L79689 74339
L79576 74170
L79520 74058
L79464 73889
L79408 73608
L79408 73383
L79464 73102
L79520 72933
L79576 72820
L79689 72652
L79745 72595
" />
<path d="M80757 72764
L80195 72764
L80139 73327
L80195 73270
L80307 73214
L80589 73214
L80701 73270
L80757 73327
L80814 73439
L80814 73720
L80757 73833
L80701 73889
L80589 73945
L80307 73945
L80195 73889
L80139 73833
" />
<path d="M82220 73945
L82220 72764
" />
<path d="M82726 73945
L82726 73327
L82670 73214
L82557 73158
L82388 73158
L82276 73214
L82220 73270
" />
<path d="M83457 73945
L83345 73889
L83288 73833
L83232 73720
L83232 73383
L83288 73270
L83345 73214
L83457 73158
L83626 73158
L83738 73214
L83794 73270
L83851 73383
L83851 73720
L83794 73833
L83738 73889
L83626 73945
L83457 73945
" />
<path d="M84526 73945
L84413 73889
L84357 73776
L84357 72764
" />
<path d="M85426 73889
L85313 73945
L85088 73945
L84976 73889
L84919 73776
L84919 73327
L84976 73214
L85088 73158
L85313 73158
L85426 73214
L85482 73327
L85482 73439
L84919 73552
" />
<path d="M85932 73889
L86044 73945
L86269 73945
L86382 73889
L86438 73776
L86438 73720
L86382 73608
L86269 73552
L86100 73552
L85988 73495
L85932 73383
L85932 73327
L85988 73214
L86100 73158
L86269 73158
L86382 73214
" />
<path d="M86832 74395
L86888 74339
L87000 74170
L87057 74058
L87113 73889
L87169 73608
L87169 73383
L87113 73102
L87057 72933
L87000 72820
L86888 72652
L86832 72595
" />
<path d="M57982 74438
L59045 75501
" />
<path d="M59045 74438
L57982 75501
" />
<circle cx="58513.8" cy="74970.5" r="531.496" /> 
<text x="59832.7" y="75561"
textLength="27677.2" font-size="1574.8" lengthAdjust="spacingAndGlyphs"
text-anchor="start" opacity="0">2.700mm / 0.1063" (4 holes)</text>
<path d="M60116 74436
L60172 74379
L60285 74323
L60566 74323
L60679 74379
L60735 74436
L60791 74548
L60791 74661
L60735 74829
L60060 75504
L60791 75504
" />
<path d="M61297 75392
L61354 75448
L61297 75504
L61241 75448
L61297 75392
L61297 75504
" />
<path d="M61747 74323
L62535 74323
L62028 75504
" />
<path d="M63210 74323
L63322 74323
L63435 74379
L63491 74436
L63547 74548
L63603 74773
L63603 75054
L63547 75279
L63491 75392
L63435 75448
L63322 75504
L63210 75504
L63097 75448
L63041 75392
L62985 75279
L62928 75054
L62928 74773
L62985 74548
L63041 74436
L63097 74379
L63210 74323
" />
<path d="M64334 74323
L64447 74323
L64559 74379
L64616 74436
L64672 74548
L64728 74773
L64728 75054
L64672 75279
L64616 75392
L64559 75448
L64447 75504
L64334 75504
L64222 75448
L64166 75392
L64109 75279
L64053 75054
L64053 74773
L64109 74548
L64166 74436
L64222 74379
L64334 74323
" />
<path d="M65234 75504
L65234 74717
" />
<path d="M65234 74829
L65291 74773
L65403 74717
L65572 74717
L65684 74773
L65741 74886
L65741 75504
" />
<path d="M65741 74886
L65797 74773
L65909 74717
L66078 74717
L66190 74773
L66247 74886
L66247 75504
" />
<path d="M66809 75504
L66809 74717
" />
<path d="M66809 74829
L66865 74773
L66978 74717
L67147 74717
L67259 74773
L67315 74886
L67315 75504
" />
<path d="M67315 74886
L67372 74773
L67484 74717
L67653 74717
L67765 74773
L67821 74886
L67821 75504
" />
<path d="M70127 74267
L69115 75785
" />
<path d="M71646 74323
L71758 74323
L71871 74379
L71927 74436
L71983 74548
L72040 74773
L72040 75054
L71983 75279
L71927 75392
L71871 75448
L71758 75504
L71646 75504
L71534 75448
L71477 75392
L71421 75279
L71365 75054
L71365 74773
L71421 74548
L71477 74436
L71534 74379
L71646 74323
" />
<path d="M72546 75392
L72602 75448
L72546 75504
L72490 75448
L72546 75392
L72546 75504
" />
<path d="M73727 75504
L73052 75504
" />
<path d="M73390 75504
L73390 74323
L73277 74492
L73165 74604
L73052 74661
" />
<path d="M74458 74323
L74571 74323
L74683 74379
L74739 74436
L74796 74548
L74852 74773
L74852 75054
L74796 75279
L74739 75392
L74683 75448
L74571 75504
L74458 75504
L74346 75448
L74289 75392
L74233 75279
L74177 75054
L74177 74773
L74233 74548
L74289 74436
L74346 74379
L74458 74323
" />
<path d="M75864 74323
L75639 74323
L75527 74379
L75471 74436
L75358 74604
L75302 74829
L75302 75279
L75358 75392
L75414 75448
L75527 75504
L75752 75504
L75864 75448
L75920 75392
L75977 75279
L75977 74998
L75920 74886
L75864 74829
L75752 74773
L75527 74773
L75414 74829
L75358 74886
L75302 74998
" />
<path d="M76370 74323
L77102 74323
L76708 74773
L76877 74773
L76989 74829
L77045 74886
L77102 74998
L77102 75279
L77045 75392
L76989 75448
L76877 75504
L76539 75504
L76427 75448
L76370 75392
" />
<path d="M77552 74323
L77552 74548
" />
<path d="M78001 74323
L78001 74548
" />
<path d="M79745 75954
L79689 75898
L79576 75729
L79520 75617
L79464 75448
L79408 75167
L79408 74942
L79464 74661
L79520 74492
L79576 74379
L79689 74211
L79745 74154
" />
<path d="M80701 74717
L80701 75504
" />
<path d="M80420 74267
L80139 75111
L80870 75111
" />
<path d="M82220 75504
L82220 74323
" />
<path d="M82726 75504
L82726 74886
L82670 74773
L82557 74717
L82388 74717
L82276 74773
L82220 74829
" />
<path d="M83457 75504
L83345 75448
L83288 75392
L83232 75279
L83232 74942
L83288 74829
L83345 74773
L83457 74717
L83626 74717
L83738 74773
L83794 74829
L83851 74942
L83851 75279
L83794 75392
L83738 75448
L83626 75504
L83457 75504
" />
<path d="M84526 75504
L84413 75448
L84357 75336
L84357 74323
" />
<path d="M85426 75448
L85313 75504
L85088 75504
L84976 75448
L84919 75336
L84919 74886
L84976 74773
L85088 74717
L85313 74717
L85426 74773
L85482 74886
L85482 74998
L84919 75111
" />
<path d="M85932 75448
L86044 75504
L86269 75504
L86382 75448
L86438 75336
L86438 75279
L86382 75167
L86269 75111
L86100 75111
L85988 75054
L85932 74942
L85932 74886
L85988 74773
L86100 74717
L86269 74717
L86382 74773
" />
<path d="M86832 75954
L86888 75898
L87000 75729
L87057 75617
L87113 75448
L87169 75167
L87169 74942
L87113 74661
L87057 74492
L87000 74379
L86888 74211
L86832 74154
" />
</g> 
</svg>
