<?xml version="1.0" standalone="no"?>
 <!DOCTYPE svg PUBLIC "-//W3C//DTD SVG 1.1//EN" 
 "http://www.w3.org/Graphics/SVG/1.1/DTD/svg11.dtd"> 
<svg
  xmlns:svg="http://www.w3.org/2000/svg"
  xmlns="http://www.w3.org/2000/svg"
  xmlns:xlink="http://www.w3.org/1999/xlink"
  version="1.1"
  width="29.700220cm" height="21.000720cm" viewBox="0 0 116930 82680">
<title>SVG Picture created as BSPD-CV_3_0_00a-F_SilkS.svg date 2022/03/12 21:54:21 </title>
  <desc>Picture generated by PCBNEW </desc>
<g style="fill:#000000; fill-opacity:1;stroke:#000000; stroke-opacity:1;
stroke-linecap:round; stroke-linejoin:round;"
 transform="translate(0 0) scale(1 1)">
</g>
<g style="fill:#000000; fill-opacity:0.0; 
stroke:#000000; stroke-width:-0.000393701; stroke-opacity:1; 
stroke-linecap:round; stroke-linejoin:round;">
</g>
<g style="fill:#000000; fill-opacity:0.0; 
stroke:#000000; stroke-width:59.0551; stroke-opacity:1; 
stroke-linecap:round; stroke-linejoin:round;">
<text x="69000" y="38196.9"
textLength="4559.24" font-size="524.934" lengthAdjust="spacingAndGlyphs"
text-anchor="middle" opacity="0">BSPD V3.0.01A</text>
<path d="M67022 37971
L67078 37990
L67097 38009
L67115 38046
L67115 38103
L67097 38140
L67078 38159
L67040 38178
L66890 38178
L66890 37784
L67022 37784
L67059 37803
L67078 37821
L67097 37859
L67097 37896
L67078 37934
L67059 37953
L67022 37971
L66890 37971
" />
<path d="M67265 38159
L67322 38178
L67415 38178
L67453 38159
L67472 38140
L67490 38103
L67490 38065
L67472 38028
L67453 38009
L67415 37990
L67340 37971
L67303 37953
L67284 37934
L67265 37896
L67265 37859
L67284 37821
L67303 37803
L67340 37784
L67434 37784
L67490 37803
" />
<path d="M67659 38178
L67659 37784
L67809 37784
L67847 37803
L67865 37821
L67884 37859
L67884 37915
L67865 37953
L67847 37971
L67809 37990
L67659 37990
" />
<path d="M68053 38178
L68053 37784
L68146 37784
L68203 37803
L68240 37840
L68259 37878
L68278 37953
L68278 38009
L68259 38084
L68240 38121
L68203 38159
L68146 38178
L68053 38178
" />
<path d="M68690 37784
L68821 38178
L68953 37784
" />
<path d="M69046 37784
L69290 37784
L69159 37934
L69215 37934
L69253 37953
L69271 37971
L69290 38009
L69290 38103
L69271 38140
L69253 38159
L69215 38178
L69103 38178
L69065 38159
L69046 38140
" />
<path d="M69459 38140
L69478 38159
L69459 38178
L69440 38159
L69459 38140
L69459 38178
" />
<path d="M69721 37784
L69759 37784
L69796 37803
L69815 37821
L69834 37859
L69853 37934
L69853 38028
L69834 38103
L69815 38140
L69796 38159
L69759 38178
L69721 38178
L69684 38159
L69665 38140
L69646 38103
L69628 38028
L69628 37934
L69646 37859
L69665 37821
L69684 37803
L69721 37784
" />
<path d="M70021 38140
L70040 38159
L70021 38178
L70002 38159
L70021 38140
L70021 38178
" />
<path d="M70284 37784
L70321 37784
L70359 37803
L70377 37821
L70396 37859
L70415 37934
L70415 38028
L70396 38103
L70377 38140
L70359 38159
L70321 38178
L70284 38178
L70246 38159
L70227 38140
L70209 38103
L70190 38028
L70190 37934
L70209 37859
L70227 37821
L70246 37803
L70284 37784
" />
<path d="M70790 38178
L70565 38178
" />
<path d="M70677 38178
L70677 37784
L70640 37840
L70602 37878
L70565 37896
" />
<path d="M70940 38065
L71127 38065
" />
<path d="M70902 38178
L71034 37784
L71165 38178
" />
<text x="85100" y="38296.9"
textLength="3620.08" font-size="524.934" lengthAdjust="spacingAndGlyphs"
text-anchor="middle" opacity="0">MART FS 22</text>
<path d="M83422 38278
L83422 37884
L83553 38165
L83684 37884
L83684 38278
" />
<path d="M83853 38165
L84040 38165
" />
<path d="M83815 38278
L83947 37884
L84078 38278
" />
<path d="M84434 38278
L84303 38090
" />
<path d="M84209 38278
L84209 37884
L84359 37884
L84396 37903
L84415 37921
L84434 37959
L84434 38015
L84415 38053
L84396 38071
L84359 38090
L84209 38090
" />
<path d="M84546 37884
L84771 37884
" />
<path d="M84659 38278
L84659 37884
" />
<path d="M85334 38071
L85203 38071
" />
<path d="M85203 38278
L85203 37884
L85390 37884
" />
<path d="M85521 38259
L85578 38278
L85671 38278
L85709 38259
L85728 38240
L85746 38203
L85746 38165
L85728 38128
L85709 38109
L85671 38090
L85596 38071
L85559 38053
L85540 38034
L85521 37996
L85521 37959
L85540 37921
L85559 37903
L85596 37884
L85690 37884
L85746 37903
" />
<path d="M86196 37921
L86215 37903
L86252 37884
L86346 37884
L86384 37903
L86402 37921
L86421 37959
L86421 37996
L86402 38053
L86177 38278
L86421 38278
" />
<path d="M86571 37921
L86590 37903
L86627 37884
L86721 37884
L86759 37903
L86777 37921
L86796 37959
L86796 37996
L86777 38053
L86552 38278
L86796 38278
" />
</g>
<g style="fill:#000000; fill-opacity:0.0; 
stroke:#000000; stroke-width:47.2441; stroke-opacity:1; 
stroke-linecap:round; stroke-linejoin:round;">
<path d="M64262 43441
L64737 43441
" />
<path d="M64262 44158
L64737 44158
" />
<path d="M61987 55220
L61987 51811
" />
<path d="M61987 51811
L58570 51811
" />
<path d="M58570 51811
L58570 55220
" />
<path d="M58570 55220
L61987 55220
" />
<path d="M61987 54440
L61987 54559
" />
<path d="M61987 54559
L62164 54559
" />
<path d="M62164 54559
L62164 54440
" />
<path d="M62164 54440
L61987 54440
" />
<path d="M61987 53456
L61987 53574
" />
<path d="M61987 53574
L62164 53574
" />
<path d="M62164 53574
L62164 53456
" />
<path d="M62164 53456
L61987 53456
" />
<path d="M61987 52472
L61987 52590
" />
<path d="M61987 52590
L62164 52590
" />
<path d="M62164 52590
L62164 52472
" />
<path d="M62164 52472
L61987 52472
" />
<path d="M62700 54937
L62581 55104
" />
<path d="M62581 55104
L62818 55104
" />
<path d="M62818 55104
L62700 54937
" />
<path d="M61987 50520
L61987 47111
" />
<path d="M61987 47111
L58570 47111
" />
<path d="M58570 47111
L58570 50520
" />
<path d="M58570 50520
L61987 50520
" />
<path d="M61987 49740
L61987 49859
" />
<path d="M61987 49859
L62164 49859
" />
<path d="M62164 49859
L62164 49740
" />
<path d="M62164 49740
L61987 49740
" />
<path d="M61987 48756
L61987 48874
" />
<path d="M61987 48874
L62164 48874
" />
<path d="M62164 48874
L62164 48756
" />
<path d="M62164 48756
L61987 48756
" />
<path d="M61987 47772
L61987 47890
" />
<path d="M61987 47890
L62164 47890
" />
<path d="M62164 47890
L62164 47772
" />
<path d="M62164 47772
L61987 47772
" />
<path d="M62700 50237
L62581 50404
" />
<path d="M62581 50404
L62818 50404
" />
<path d="M62818 50404
L62700 50237
" />
<path d="M87912 40579
L87912 43004
" />
<path d="M87912 43004
L91329 43004
" />
<path d="M91329 43004
L91329 40579
" />
<path d="M91329 40579
L87912 40579
" />
<path d="M87912 41359
L87912 41240
" />
<path d="M87912 41240
L87735 41240
" />
<path d="M87735 41240
L87735 41359
" />
<path d="M87735 41359
L87912 41359
" />
<path d="M87912 42343
L87912 42225
" />
<path d="M87912 42225
L87735 42225
" />
<path d="M87735 42225
L87735 42343
" />
<path d="M87735 42343
L87912 42343
" />
<path d="M87200 40862
L87318 40695
" />
<path d="M87318 40695
L87081 40695
" />
<path d="M87081 40695
L87200 40862
" />
<path d="M61787 44920
L61787 42495
" />
<path d="M61787 42495
L58370 42495
" />
<path d="M58370 42495
L58370 44920
" />
<path d="M58370 44920
L61787 44920
" />
<path d="M61787 44140
L61787 44259
" />
<path d="M61787 44259
L61964 44259
" />
<path d="M61964 44259
L61964 44140
" />
<path d="M61964 44140
L61787 44140
" />
<path d="M61787 43156
L61787 43274
" />
<path d="M61787 43274
L61964 43274
" />
<path d="M61964 43274
L61964 43156
" />
<path d="M61964 43156
L61787 43156
" />
<path d="M62500 44637
L62381 44804
" />
<path d="M62381 44804
L62618 44804
" />
<path d="M62618 44804
L62500 44637
" />
<path d="M85665 44990
L85665 43986
" />
<path d="M86334 44990
L86334 43986
" />
<path d="M85665 44990
L86334 44990
" />
<path d="M82000 57207
L82767 57207
" />
<path d="M82000 57207
L81232 57207
" />
<path d="M82000 55192
L82767 55192
" />
<path d="M82000 55192
L80641 55192
" />
<path d="M83975 50807
L84743 50807
" />
<path d="M83975 50807
L83207 50807
" />
<path d="M83975 48792
L84743 48792
" />
<path d="M83975 48792
L82617 48792
" />
<path d="M73800 53546
L74567 53546
" />
<path d="M73800 53546
L73032 53546
" />
<path d="M73800 50053
L74567 50053
" />
<path d="M73800 50053
L72441 50053
" />
<path d="M81000 47546
L81767 47546
" />
<path d="M81000 47546
L80232 47546
" />
<path d="M81000 44053
L81767 44053
" />
<path d="M81000 44053
L79641 44053
" />
<path d="M67200 53546
L67967 53546
" />
<path d="M67200 53546
L66432 53546
" />
<path d="M67200 50053
L67967 50053
" />
<path d="M67200 50053
L65841 50053
" />
<path d="M77400 53546
L78167 53546
" />
<path d="M77400 53546
L76632 53546
" />
<path d="M77400 50053
L78167 50053
" />
<path d="M77400 50053
L76041 50053
" />
<path d="M77400 47546
L78167 47546
" />
<path d="M77400 47546
L76632 47546
" />
<path d="M77400 44053
L78167 44053
" />
<path d="M77400 44053
L76041 44053
" />
<path d="M73800 47546
L74567 47546
" />
<path d="M73800 47546
L73032 47546
" />
<path d="M73800 44053
L74567 44053
" />
<path d="M73800 44053
L72441 44053
" />
<path d="M67200 47546
L67967 47546
" />
<path d="M67200 47546
L66432 47546
" />
<path d="M67200 44053
L67967 44053
" />
<path d="M67200 44053
L65841 44053
" />
<path d="M68742 39348
L68246 39348
" />
<path d="M66057 39348
L66553 39348
" />
<path d="M68742 40828
L68742 39348
" />
<path d="M66057 41714
L66057 39348
" />
<path d="M74757 58036
L74607 58036
" />
<path d="M76592 58036
L76442 58036
" />
<path d="M75741 58036
L75458 58036
" />
<path d="M76592 56563
L76088 56563
" />
<path d="M75111 56563
L74607 56563
" />
<path d="M76592 58036
L76592 56563
" />
<path d="M74607 58036
L74607 56563
" />
<path d="M72157 58036
L72007 58036
" />
<path d="M73992 58036
L73842 58036
" />
<path d="M73141 58036
L72858 58036
" />
<path d="M73992 56563
L73488 56563
" />
<path d="M72511 56563
L72007 56563
" />
<path d="M73992 58036
L73992 56563
" />
<path d="M72007 58036
L72007 56563
" />
<path d="M70065 52349
L69934 52349
" />
<path d="M70065 52050
L69934 52050
" />
<path d="M74734 48350
L74865 48350
" />
<path d="M74734 48649
L74865 48649
" />
<path d="M79230 55149
L79098 55149
" />
<path d="M79230 54850
L79098 54850
" />
<path d="M64169 53250
L64301 53250
" />
<path d="M64169 53549
L64301 53549
" />
<path d="M82650 53265
L82650 53134
" />
<path d="M82949 53265
L82949 53134
" />
<path d="M79169 56650
L79301 56650
" />
<path d="M79169 56949
L79301 56949
" />
<path d="M63749 53134
L63749 53265
" />
<path d="M63450 53134
L63450 53265
" />
<path d="M85498 40850
L85630 40850
" />
<path d="M85498 41149
L85630 41149
" />
<path d="M85498 40250
L85630 40250
" />
<path d="M85498 40549
L85630 40549
" />
<path d="M81030 49149
L80898 49149
" />
<path d="M81030 48850
L80898 48850
" />
<path d="M71384 44600
L71515 44600
" />
<path d="M71384 44899
L71515 44899
" />
<path d="M85149 46934
L85149 47065
" />
<path d="M84850 46934
L84850 47065
" />
<path d="M80934 50450
L81065 50450
" />
<path d="M80934 50749
L81065 50749
" />
<path d="M74734 47850
L74865 47850
" />
<path d="M74734 48149
L74865 48149
" />
<path d="M88815 44699
L88684 44699
" />
<path d="M88815 44400
L88684 44400
" />
<path d="M64298 46850
L64430 46850
" />
<path d="M64298 47149
L64430 47149
" />
<path d="M71650 42830
L71650 42698
" />
<path d="M71949 42830
L71949 42698
" />
<path d="M64298 45050
L64430 45050
" />
<path d="M64298 45349
L64430 45349
" />
<path d="M63550 49801
L63550 49669
" />
<path d="M63849 49801
L63849 49669
" />
<path d="M72919 53750
L73051 53750
" />
<path d="M72919 54049
L73051 54049
" />
<path d="M72898 47900
L73030 47900
" />
<path d="M72898 48199
L73030 48199
" />
<path d="M83465 44949
L83334 44949
" />
<path d="M83465 44650
L83334 44650
" />
<path d="M76934 54050
L77065 54050
" />
<path d="M76934 54349
L77065 54349
" />
<path d="M78369 48650
L78501 48650
" />
<path d="M78369 48949
L78501 48949
" />
<path d="M83465 44349
L83334 44349
" />
<path d="M83465 44050
L83334 44050
" />
<path d="M72919 54300
L73051 54300
" />
<path d="M72919 54599
L73051 54599
" />
<path d="M72884 48400
L73015 48400
" />
<path d="M72884 48699
L73015 48699
" />
<path d="M69349 49298
L69349 49430
" />
<path d="M69050 49298
L69050 49430
" />
<path d="M69349 48198
L69349 48330
" />
<path d="M69050 48198
L69050 48330
" />
<path d="M78334 48050
L78465 48050
" />
<path d="M78334 48349
L78465 48349
" />
<path d="M69665 44899
L69534 44899
" />
<path d="M69665 44600
L69534 44600
" />
<path d="M69665 45349
L69534 45349
" />
<path d="M69665 45050
L69534 45050
" />
<path d="M70101 51549
L69969 51549
" />
<path d="M70101 51250
L69969 51250
" />
<path d="M71065 39549
L70934 39549
" />
<path d="M71065 39250
L70934 39250
" />
<path d="M72884 49450
L73015 49450
" />
<path d="M72884 49749
L73015 49749
" />
<path d="M71258 40513
L71258 41086
" />
<path d="M70541 40513
L70541 41086
" />
<path d="M69534 45500
L69665 45500
" />
<path d="M69534 45799
L69665 45799
" />
<path d="M84777 42499
L85144 42499
" />
<path d="M86022 42499
L85655 42499
" />
<path d="M86022 42499
L86022 41648
" />
<path d="M84777 42499
L84777 41924
" />
<path d="M81465 53790
L82134 53790
" />
<path d="M82134 53790
L82134 52786
" />
<path d="M81465 53790
L81465 52786
" />
<path d="M78609 55665
L78609 56334
" />
<path d="M78609 56334
L79613 56334
" />
<path d="M78609 55665
L79613 55665
" />
<path d="M84334 46409
L83665 46409
" />
<path d="M83665 46409
L83665 47413
" />
<path d="M84334 46409
L84334 47413
" />
<path d="M80409 49465
L80409 50134
" />
<path d="M80409 50134
L81413 50134
" />
<path d="M80409 49465
L81413 49465
" />
<path d="M87864 44260
L86896 44260
" />
<path d="M86896 44260
L86896 44839
" />
<path d="M86896 44839
L87864 44839
" />
<path d="M70265 43390
L70934 43390
" />
<path d="M70934 43390
L70934 42386
" />
<path d="M70265 43390
L70265 42386
" />
<path d="M70089 39414
L70089 38446
" />
<path d="M70089 38446
L69510 38446
" />
<path d="M69510 38446
L69510 39414
" />
<path d="M88077 58077
L88077 56994
" />
<path d="M88077 54722
L88077 55805
" />
<path d="M85141 54722
L88077 54722
" />
<path d="M85141 58077
L88077 58077
" />
<path d="M84722 57658
L84722 56994
" />
<path d="M84722 55141
L84722 55805
" />
<path d="M84722 55141
L85141 54722
" />
<path d="M84722 57658
L85141 58077
" />
<path d="M84234 55411
L84628 55411
" />
<path d="M84431 55214
L84431 55608
" />
<path d="M82942 58049
L83057 58049
" />
<path d="M82942 58450
L83057 58450
" />
<path d="M80599 53257
L80599 53142
" />
<path d="M81000 53257
L81000 53142
" />
<path d="M79081 53999
L79197 53999
" />
<path d="M79081 54400
L79197 54400
" />
<path d="M88889 50689
L88889 50217
" />
<path d="M88889 48910
L88889 49382
" />
<path d="M87529 48910
L88889 48910
" />
<path d="M87529 50689
L88889 50689
" />
<path d="M87110 50270
L87110 50217
" />
<path d="M87110 49329
L87110 49382
" />
<path d="M87110 49329
L87529 48910
" />
<path d="M87110 50270
L87529 50689
" />
<path d="M86818 49185
L87015 49185
" />
<path d="M86917 49087
L86917 49284
" />
<path d="M84292 51649
L84407 51649
" />
<path d="M84292 52050
L84407 52050
" />
<path d="M83200 46942
L83200 47057
" />
<path d="M82799 46942
L82799 47057
" />
<path d="M80942 47999
L81057 47999
" />
<path d="M80942 48400
L81057 48400
" />
<path d="M69600 42742
L69600 42857
" />
<path d="M69199 42742
L69199 42857
" />
<path d="M63310 40710
L63310 41182
" />
<path d="M63310 42489
L63310 42017
" />
<path d="M64670 42489
L63310 42489
" />
<path d="M64670 40710
L63310 40710
" />
<path d="M65089 41129
L65089 41182
" />
<path d="M65089 42070
L65089 42017
" />
<path d="M65089 42070
L64670 42489
" />
<path d="M65089 41129
L64670 40710
" />
<path d="M65381 42214
L65184 42214
" />
<path d="M65282 42312
L65282 42115
" />
<path d="M63310 38510
L63310 38982
" />
<path d="M63310 40289
L63310 39817
" />
<path d="M64670 40289
L63310 40289
" />
<path d="M64670 38510
L63310 38510
" />
<path d="M65089 38929
L65089 38982
" />
<path d="M65089 39870
L65089 39817
" />
<path d="M65089 39870
L64670 40289
" />
<path d="M65089 38929
L64670 38510
" />
<path d="M65381 40014
L65184 40014
" />
<path d="M65282 40112
L65282 39915
" />
</g>
<g style="fill:#000000; fill-opacity:0.0; 
stroke:#000000; stroke-width:59.0551; stroke-opacity:1; 
stroke-linecap:round; stroke-linejoin:round;">
<text x="64200" y="44796.9"
textLength="1164.14" font-size="524.934" lengthAdjust="spacingAndGlyphs"
text-anchor="middle" opacity="0">F11</text>
<path d="M63881 44571
L63750 44571
" />
<path d="M63750 44778
L63750 44384
L63937 44384
" />
<path d="M64293 44778
L64068 44778
" />
<path d="M64181 44778
L64181 44384
L64143 44440
L64106 44478
L64068 44496
" />
<path d="M64668 44778
L64443 44778
" />
<path d="M64556 44778
L64556 44384
L64518 44440
L64481 44478
L64443 44496
" />
<text x="62700" y="55846.5"
textLength="751.687" font-size="524.934" lengthAdjust="spacingAndGlyphs"
text-anchor="middle" opacity="0">J3</text>
<path d="M62568 55434
L62568 55715
L62550 55771
L62512 55808
L62456 55827
L62418 55827
" />
<path d="M62718 55434
L62962 55434
L62831 55583
L62887 55583
L62924 55602
L62943 55621
L62962 55658
L62962 55752
L62943 55790
L62924 55808
L62887 55827
L62774 55827
L62737 55808
L62718 55790
" />
<text x="62700" y="51146.5"
textLength="751.687" font-size="524.934" lengthAdjust="spacingAndGlyphs"
text-anchor="middle" opacity="0">J2</text>
<path d="M62568 50734
L62568 51015
L62550 51071
L62512 51108
L62456 51127
L62418 51127
" />
<path d="M62737 50771
L62756 50752
L62793 50734
L62887 50734
L62924 50752
L62943 50771
L62962 50808
L62962 50846
L62943 50902
L62718 51127
L62962 51127
" />
<text x="87400" y="40296.9"
textLength="751.687" font-size="524.934" lengthAdjust="spacingAndGlyphs"
text-anchor="middle" opacity="0">J4</text>
<path d="M87268 39884
L87268 40165
L87250 40221
L87212 40259
L87156 40278
L87118 40278
" />
<path d="M87624 40015
L87624 40278
" />
<path d="M87531 39865
L87437 40146
L87681 40146
" />
<text x="62500" y="45546.5"
textLength="751.687" font-size="524.934" lengthAdjust="spacingAndGlyphs"
text-anchor="middle" opacity="0">J1</text>
<path d="M62368 45134
L62368 45415
L62350 45471
L62312 45508
L62256 45527
L62218 45527
" />
<path d="M62762 45527
L62537 45527
" />
<path d="M62649 45527
L62649 45134
L62612 45190
L62574 45227
L62537 45246
" />
<text x="88200" y="59346.9"
textLength="864.173" font-size="524.934" lengthAdjust="spacingAndGlyphs"
text-anchor="middle" opacity="0">H4</text>
<path d="M87900 59328
L87900 58934
" />
<path d="M87900 59121
L88125 59121
" />
<path d="M88125 59328
L88125 58934
" />
<path d="M88481 59065
L88481 59328
" />
<path d="M88387 58915
L88293 59196
L88537 59196
" />
<text x="61550" y="59346.9"
textLength="864.173" font-size="524.934" lengthAdjust="spacingAndGlyphs"
text-anchor="middle" opacity="0">H3</text>
<path d="M61250 59328
L61250 58934
" />
<path d="M61250 59121
L61475 59121
" />
<path d="M61475 59328
L61475 58934
" />
<path d="M61624 58934
L61868 58934
L61737 59084
L61793 59084
L61831 59103
L61849 59121
L61868 59159
L61868 59253
L61849 59290
L61831 59309
L61793 59328
L61681 59328
L61643 59309
L61624 59290
" />
<text x="88000" y="37946.9"
textLength="864.173" font-size="524.934" lengthAdjust="spacingAndGlyphs"
text-anchor="middle" opacity="0">H2</text>
<path d="M87700 37928
L87700 37534
" />
<path d="M87700 37721
L87925 37721
" />
<path d="M87925 37928
L87925 37534
" />
<path d="M88093 37571
L88112 37553
L88149 37534
L88243 37534
L88281 37553
L88299 37571
L88318 37609
L88318 37646
L88299 37703
L88074 37928
L88318 37928
" />
<text x="61550" y="37946.9"
textLength="864.173" font-size="524.934" lengthAdjust="spacingAndGlyphs"
text-anchor="middle" opacity="0">H1</text>
<path d="M61250 37928
L61250 37534
" />
<path d="M61250 37721
L61475 37721
" />
<path d="M61475 37928
L61475 37534
" />
<path d="M61868 37928
L61643 37928
" />
<path d="M61756 37928
L61756 37534
L61718 37590
L61681 37628
L61643 37646
" />
<text x="86000" y="43596.9"
textLength="1595.33" font-size="524.934" lengthAdjust="spacingAndGlyphs"
text-anchor="middle" opacity="0">D102</text>
<path d="M85334 43578
L85334 43184
L85428 43184
L85484 43203
L85521 43240
L85540 43278
L85559 43353
L85559 43409
L85540 43484
L85521 43521
L85484 43559
L85428 43578
L85334 43578
" />
<path d="M85934 43578
L85709 43578
" />
<path d="M85821 43578
L85821 43184
L85784 43240
L85746 43278
L85709 43296
" />
<path d="M86178 43184
L86215 43184
L86253 43203
L86271 43221
L86290 43259
L86309 43334
L86309 43428
L86290 43503
L86271 43540
L86253 43559
L86215 43578
L86178 43578
L86140 43559
L86121 43540
L86103 43503
L86084 43428
L86084 43334
L86103 43259
L86121 43221
L86140 43203
L86178 43184
" />
<path d="M86459 43221
L86478 43203
L86515 43184
L86609 43184
L86646 43203
L86665 43221
L86684 43259
L86684 43296
L86665 43353
L86440 43578
L86684 43578
" />
<text x="75000" y="42496.9"
textLength="1595.33" font-size="524.934" lengthAdjust="spacingAndGlyphs"
text-anchor="middle" opacity="0">K101</text>
<path d="M74334 42478
L74334 42084
" />
<path d="M74559 42478
L74390 42253
" />
<path d="M74559 42084
L74334 42309
" />
<path d="M74934 42478
L74709 42478
" />
<path d="M74821 42478
L74821 42084
L74784 42140
L74746 42178
L74709 42196
" />
<path d="M75178 42084
L75215 42084
L75253 42103
L75271 42121
L75290 42159
L75309 42234
L75309 42328
L75290 42403
L75271 42440
L75253 42459
L75215 42478
L75178 42478
L75140 42459
L75121 42440
L75103 42403
L75084 42328
L75084 42234
L75103 42159
L75121 42121
L75140 42103
L75178 42084
" />
<path d="M75684 42478
L75459 42478
" />
<path d="M75571 42478
L75571 42084
L75534 42140
L75496 42178
L75459 42196
" />
<text x="82000" y="57796.9"
textLength="1239.13" font-size="524.934" lengthAdjust="spacingAndGlyphs"
text-anchor="middle" opacity="0">U15</text>
<path d="M81512 57384
L81512 57703
L81531 57740
L81550 57759
L81587 57778
L81662 57778
L81700 57759
L81718 57740
L81737 57703
L81737 57384
" />
<path d="M82131 57778
L81906 57778
" />
<path d="M82018 57778
L82018 57384
L81981 57440
L81943 57478
L81906 57496
" />
<path d="M82487 57384
L82299 57384
L82281 57571
L82299 57553
L82337 57534
L82431 57534
L82468 57553
L82487 57571
L82506 57609
L82506 57703
L82487 57740
L82468 57759
L82431 57778
L82337 57778
L82299 57759
L82281 57740
" />
<text x="83000" y="51396.9"
textLength="1239.13" font-size="524.934" lengthAdjust="spacingAndGlyphs"
text-anchor="middle" opacity="0">U12</text>
<path d="M82512 50984
L82512 51303
L82531 51340
L82550 51359
L82587 51378
L82662 51378
L82700 51359
L82718 51340
L82737 51303
L82737 50984
" />
<path d="M83131 51378
L82906 51378
" />
<path d="M83018 51378
L83018 50984
L82981 51040
L82943 51078
L82906 51096
" />
<path d="M83281 51021
L83299 51003
L83337 50984
L83431 50984
L83468 51003
L83487 51021
L83506 51059
L83506 51096
L83487 51153
L83262 51378
L83506 51378
" />
<text x="73800" y="49918.1"
textLength="864.173" font-size="524.934" lengthAdjust="spacingAndGlyphs"
text-anchor="middle" opacity="0">U8</text>
<path d="M73500 49505
L73500 49824
L73518 49861
L73537 49880
L73575 49899
L73650 49899
L73687 49880
L73706 49861
L73725 49824
L73725 49505
" />
<path d="M73968 49674
L73931 49655
L73912 49636
L73893 49599
L73893 49580
L73912 49543
L73931 49524
L73968 49505
L74043 49505
L74081 49524
L74099 49543
L74118 49580
L74118 49599
L74099 49636
L74081 49655
L74043 49674
L73968 49674
L73931 49693
L73912 49711
L73893 49749
L73893 49824
L73912 49861
L73931 49880
L73968 49899
L74043 49899
L74081 49880
L74099 49861
L74118 49824
L74118 49749
L74099 49711
L74081 49693
L74043 49674
" />
<text x="81000" y="43918.1"
textLength="864.173" font-size="524.934" lengthAdjust="spacingAndGlyphs"
text-anchor="middle" opacity="0">U7</text>
<path d="M80700 43505
L80700 43824
L80718 43861
L80737 43880
L80775 43899
L80850 43899
L80887 43880
L80906 43861
L80925 43824
L80925 43505
" />
<path d="M81074 43505
L81337 43505
L81168 43899
" />
<text x="67200" y="49918.1"
textLength="864.173" font-size="524.934" lengthAdjust="spacingAndGlyphs"
text-anchor="middle" opacity="0">U6</text>
<path d="M66900 49505
L66900 49824
L66918 49861
L66937 49880
L66975 49899
L67050 49899
L67087 49880
L67106 49861
L67125 49824
L67125 49505
" />
<path d="M67481 49505
L67406 49505
L67368 49524
L67349 49543
L67312 49599
L67293 49674
L67293 49824
L67312 49861
L67331 49880
L67368 49899
L67443 49899
L67481 49880
L67499 49861
L67518 49824
L67518 49730
L67499 49693
L67481 49674
L67443 49655
L67368 49655
L67331 49674
L67312 49693
L67293 49730
" />
<text x="77400" y="49918.1"
textLength="864.173" font-size="524.934" lengthAdjust="spacingAndGlyphs"
text-anchor="middle" opacity="0">U5</text>
<path d="M77100 49505
L77100 49824
L77118 49861
L77137 49880
L77175 49899
L77250 49899
L77287 49880
L77306 49861
L77325 49824
L77325 49505
" />
<path d="M77699 49505
L77512 49505
L77493 49693
L77512 49674
L77549 49655
L77643 49655
L77681 49674
L77699 49693
L77718 49730
L77718 49824
L77699 49861
L77681 49880
L77643 49899
L77549 49899
L77512 49880
L77493 49861
" />
<text x="77400" y="43918.1"
textLength="864.173" font-size="524.934" lengthAdjust="spacingAndGlyphs"
text-anchor="middle" opacity="0">U4</text>
<path d="M77100 43505
L77100 43824
L77118 43861
L77137 43880
L77175 43899
L77250 43899
L77287 43880
L77306 43861
L77325 43824
L77325 43505
" />
<path d="M77681 43636
L77681 43899
" />
<path d="M77587 43486
L77493 43768
L77737 43768
" />
<text x="73800" y="43918.1"
textLength="864.173" font-size="524.934" lengthAdjust="spacingAndGlyphs"
text-anchor="middle" opacity="0">U3</text>
<path d="M73500 43505
L73500 43824
L73518 43861
L73537 43880
L73575 43899
L73650 43899
L73687 43880
L73706 43861
L73725 43824
L73725 43505
" />
<path d="M73874 43505
L74118 43505
L73987 43655
L74043 43655
L74081 43674
L74099 43693
L74118 43730
L74118 43824
L74099 43861
L74081 43880
L74043 43899
L73931 43899
L73893 43880
L73874 43861
" />
<text x="67200" y="43918.1"
textLength="864.173" font-size="524.934" lengthAdjust="spacingAndGlyphs"
text-anchor="middle" opacity="0">U2</text>
<path d="M66900 43505
L66900 43824
L66918 43861
L66937 43880
L66975 43899
L67050 43899
L67087 43880
L67106 43861
L67125 43824
L67125 43505
" />
<path d="M67293 43543
L67312 43524
L67349 43505
L67443 43505
L67481 43524
L67499 43543
L67518 43580
L67518 43618
L67499 43674
L67274 43899
L67518 43899
" />
<text x="67400" y="42396.9"
textLength="864.173" font-size="524.934" lengthAdjust="spacingAndGlyphs"
text-anchor="middle" opacity="0">U1</text>
<path d="M67100 41984
L67100 42303
L67118 42340
L67137 42359
L67175 42378
L67250 42378
L67287 42359
L67306 42340
L67325 42303
L67325 41984
" />
<path d="M67718 42378
L67493 42378
" />
<path d="M67606 42378
L67606 41984
L67568 42040
L67531 42078
L67493 42096
" />
<text x="80800" y="59196.9"
textLength="826.678" font-size="524.934" lengthAdjust="spacingAndGlyphs"
text-anchor="middle" opacity="0">S3</text>
<path d="M80500 59159
L80556 59178
L80650 59178
L80687 59159
L80706 59140
L80725 59103
L80725 59065
L80706 59028
L80687 59009
L80650 58990
L80575 58971
L80537 58953
L80518 58934
L80500 58896
L80500 58859
L80518 58821
L80537 58803
L80575 58784
L80668 58784
L80725 58803
" />
<path d="M80856 58784
L81099 58784
L80968 58934
L81024 58934
L81062 58953
L81081 58971
L81099 59009
L81099 59103
L81081 59140
L81062 59159
L81024 59178
L80912 59178
L80874 59159
L80856 59140
" />
<text x="79200" y="59196.9"
textLength="826.678" font-size="524.934" lengthAdjust="spacingAndGlyphs"
text-anchor="middle" opacity="0">S2</text>
<path d="M78900 59159
L78956 59178
L79050 59178
L79087 59159
L79106 59140
L79125 59103
L79125 59065
L79106 59028
L79087 59009
L79050 58990
L78975 58971
L78937 58953
L78918 58934
L78900 58896
L78900 58859
L78918 58821
L78937 58803
L78975 58784
L79068 58784
L79125 58803
" />
<path d="M79274 58821
L79293 58803
L79331 58784
L79424 58784
L79462 58803
L79481 58821
L79499 58859
L79499 58896
L79481 58953
L79256 59178
L79499 59178
" />
<text x="77600" y="59196.9"
textLength="826.678" font-size="524.934" lengthAdjust="spacingAndGlyphs"
text-anchor="middle" opacity="0">S1</text>
<path d="M77300 59159
L77356 59178
L77450 59178
L77487 59159
L77506 59140
L77525 59103
L77525 59065
L77506 59028
L77487 59009
L77450 58990
L77375 58971
L77337 58953
L77318 58934
L77300 58896
L77300 58859
L77318 58821
L77337 58803
L77375 58784
L77468 58784
L77525 58803
" />
<path d="M77899 59178
L77674 59178
" />
<path d="M77787 59178
L77787 58784
L77749 58840
L77712 58878
L77674 58896
" />
<text x="75650" y="59046.9"
textLength="1839.05" font-size="524.934" lengthAdjust="spacingAndGlyphs"
text-anchor="middle" opacity="0">VApp1</text>
<path d="M74806 58634
L74937 59028
L75068 58634
" />
<path d="M75181 58915
L75368 58915
" />
<path d="M75143 59028
L75275 58634
L75406 59028
" />
<path d="M75537 58765
L75537 59159
" />
<path d="M75537 58784
L75575 58765
L75650 58765
L75687 58784
L75706 58803
L75724 58840
L75724 58953
L75706 58990
L75687 59009
L75650 59028
L75575 59028
L75537 59009
" />
<path d="M75893 58765
L75893 59159
" />
<path d="M75893 58784
L75931 58765
L76006 58765
L76043 58784
L76062 58803
L76081 58840
L76081 58953
L76062 58990
L76043 59009
L76006 59028
L75931 59028
L75893 59009
" />
<path d="M76456 59028
L76231 59028
" />
<path d="M76343 59028
L76343 58634
L76306 58690
L76268 58728
L76231 58746
" />
<text x="72950" y="59046.9"
textLength="1745.31" font-size="524.934" lengthAdjust="spacingAndGlyphs"
text-anchor="middle" opacity="0">VBrk1</text>
<path d="M72153 58634
L72284 59028
L72415 58634
" />
<path d="M72678 58821
L72734 58840
L72753 58859
L72771 58896
L72771 58953
L72753 58990
L72734 59009
L72696 59028
L72546 59028
L72546 58634
L72678 58634
L72715 58653
L72734 58671
L72753 58709
L72753 58746
L72734 58784
L72715 58803
L72678 58821
L72546 58821
" />
<path d="M72940 59028
L72940 58765
" />
<path d="M72940 58840
L72959 58803
L72978 58784
L73015 58765
L73053 58765
" />
<path d="M73184 59028
L73184 58634
" />
<path d="M73221 58878
L73334 59028
" />
<path d="M73334 58765
L73184 58915
" />
<path d="M73709 59028
L73484 59028
" />
<path d="M73596 59028
L73596 58634
L73559 58690
L73521 58728
L73484 58746
" />
<text x="64400" y="59096.9"
textLength="1351.61" font-size="524.934" lengthAdjust="spacingAndGlyphs"
text-anchor="middle" opacity="0">V0.5</text>
<path d="M63800 58684
L63931 59078
L64062 58684
" />
<path d="M64268 58684
L64306 58684
L64343 58703
L64362 58721
L64381 58759
L64400 58834
L64400 58928
L64381 59003
L64362 59040
L64343 59059
L64306 59078
L64268 59078
L64231 59059
L64212 59040
L64193 59003
L64175 58928
L64175 58834
L64193 58759
L64212 58721
L64231 58703
L64268 58684
" />
<path d="M64568 59040
L64587 59059
L64568 59078
L64549 59059
L64568 59040
L64568 59078
" />
<path d="M64943 58684
L64756 58684
L64737 58871
L64756 58853
L64793 58834
L64887 58834
L64924 58853
L64943 58871
L64962 58909
L64962 59003
L64943 59040
L64924 59059
L64887 59078
L64793 59078
L64756 59059
L64737 59040
" />
<text x="67400" y="59096.9"
textLength="1351.61" font-size="524.934" lengthAdjust="spacingAndGlyphs"
text-anchor="middle" opacity="0">V4.5</text>
<path d="M66800 58684
L66931 59078
L67062 58684
" />
<path d="M67362 58815
L67362 59078
" />
<path d="M67268 58665
L67175 58946
L67418 58946
" />
<path d="M67568 59040
L67587 59059
L67568 59078
L67549 59059
L67568 59040
L67568 59078
" />
<path d="M67943 58684
L67756 58684
L67737 58871
L67756 58853
L67793 58834
L67887 58834
L67924 58853
L67943 58871
L67962 58909
L67962 59003
L67943 59040
L67924 59059
L67887 59078
L67793 59078
L67756 59059
L67737 59040
" />
<text x="70400" y="59096.9"
textLength="1182.88" font-size="524.934" lengthAdjust="spacingAndGlyphs"
text-anchor="middle" opacity="0">VC1</text>
<path d="M69884 58684
L70015 59078
L70146 58684
" />
<path d="M70503 59040
L70484 59059
L70428 59078
L70390 59078
L70334 59059
L70296 59021
L70278 58984
L70259 58909
L70259 58853
L70278 58778
L70296 58740
L70334 58703
L70390 58684
L70428 58684
L70484 58703
L70503 58721
" />
<path d="M70878 59078
L70653 59078
" />
<path d="M70765 59078
L70765 58684
L70728 58740
L70690 58778
L70653 58796
" />
<g transform="rotate(-90 89700 53900)">
<text x="89700" y="54096.9"
textLength="1089.15" font-size="524.934" lengthAdjust="spacingAndGlyphs"
text-anchor="middle" opacity="0">VT2</text>
</g>
<path d="M89484 54368
L89878 54237
L89484 54106
" />
<path d="M89484 54031
L89484 53806
" />
<path d="M89878 53918
L89484 53918
" />
<path d="M89521 53693
L89503 53675
L89484 53637
L89484 53543
L89503 53506
L89521 53487
L89559 53468
L89596 53468
L89653 53487
L89878 53712
L89878 53468
" />
<g transform="rotate(-90 89700 47700)">
<text x="89700" y="47896.9"
textLength="1089.15" font-size="524.934" lengthAdjust="spacingAndGlyphs"
text-anchor="middle" opacity="0">VT1</text>
</g>
<path d="M89484 48168
L89878 48037
L89484 47906
" />
<path d="M89484 47831
L89484 47606
" />
<path d="M89878 47718
L89484 47718
" />
<path d="M89878 47268
L89878 47493
" />
<path d="M89878 47381
L89484 47381
L89540 47418
L89578 47456
L89596 47493
" />
<text x="71000" y="52396.9"
textLength="1220.38" font-size="524.934" lengthAdjust="spacingAndGlyphs"
text-anchor="middle" opacity="0">R54</text>
<path d="M70746 52378
L70615 52190
" />
<path d="M70521 52378
L70521 51984
L70671 51984
L70709 52003
L70728 52021
L70746 52059
L70746 52115
L70728 52153
L70709 52171
L70671 52190
L70521 52190
" />
<path d="M71103 51984
L70915 51984
L70896 52171
L70915 52153
L70953 52134
L71046 52134
L71084 52153
L71103 52171
L71121 52209
L71121 52303
L71103 52340
L71084 52359
L71046 52378
L70953 52378
L70915 52359
L70896 52340
" />
<path d="M71459 52115
L71459 52378
" />
<path d="M71365 51965
L71271 52246
L71515 52246
" />
<text x="75800" y="48696.9"
textLength="1220.38" font-size="524.934" lengthAdjust="spacingAndGlyphs"
text-anchor="middle" opacity="0">R55</text>
<path d="M75546 48678
L75415 48490
" />
<path d="M75321 48678
L75321 48284
L75471 48284
L75509 48303
L75528 48321
L75546 48359
L75546 48415
L75528 48453
L75509 48471
L75471 48490
L75321 48490
" />
<path d="M75903 48284
L75715 48284
L75696 48471
L75715 48453
L75753 48434
L75846 48434
L75884 48453
L75903 48471
L75921 48509
L75921 48603
L75903 48640
L75884 48659
L75846 48678
L75753 48678
L75715 48659
L75696 48640
" />
<path d="M76278 48284
L76090 48284
L76071 48471
L76090 48453
L76128 48434
L76221 48434
L76259 48453
L76278 48471
L76296 48509
L76296 48603
L76278 48640
L76259 48659
L76221 48678
L76128 48678
L76090 48659
L76071 48640
" />
<text x="78000" y="55196.9"
textLength="1220.38" font-size="524.934" lengthAdjust="spacingAndGlyphs"
text-anchor="middle" opacity="0">R94</text>
<path d="M77746 55178
L77615 54990
" />
<path d="M77521 55178
L77521 54784
L77671 54784
L77709 54803
L77728 54821
L77746 54859
L77746 54915
L77728 54953
L77709 54971
L77671 54990
L77521 54990
" />
<path d="M77934 55178
L78009 55178
L78046 55159
L78065 55140
L78103 55084
L78121 55009
L78121 54859
L78103 54821
L78084 54803
L78046 54784
L77971 54784
L77934 54803
L77915 54821
L77896 54859
L77896 54953
L77915 54990
L77934 55009
L77971 55028
L78046 55028
L78084 55009
L78103 54990
L78121 54953
" />
<path d="M78459 54915
L78459 55178
" />
<path d="M78365 54765
L78271 55046
L78515 55046
" />
<text x="64100" y="54096.9"
textLength="1220.38" font-size="524.934" lengthAdjust="spacingAndGlyphs"
text-anchor="middle" opacity="0">R53</text>
<path d="M63846 54078
L63715 53890
" />
<path d="M63621 54078
L63621 53684
L63771 53684
L63809 53703
L63828 53721
L63846 53759
L63846 53815
L63828 53853
L63809 53871
L63771 53890
L63621 53890
" />
<path d="M64203 53684
L64015 53684
L63996 53871
L64015 53853
L64053 53834
L64146 53834
L64184 53853
L64203 53871
L64221 53909
L64221 54003
L64203 54040
L64184 54059
L64146 54078
L64053 54078
L64015 54059
L63996 54040
" />
<path d="M64353 53684
L64596 53684
L64465 53834
L64521 53834
L64559 53853
L64578 53871
L64596 53909
L64596 54003
L64578 54040
L64559 54059
L64521 54078
L64409 54078
L64371 54059
L64353 54040
" />
<g transform="rotate(-90 82800 54200)">
<text x="82800" y="54396.9"
textLength="1220.38" font-size="524.934" lengthAdjust="spacingAndGlyphs"
text-anchor="middle" opacity="0">R92</text>
</g>
<path d="M82978 54453
L82790 54584
" />
<path d="M82978 54678
L82584 54678
L82584 54528
L82603 54490
L82621 54471
L82659 54453
L82715 54453
L82753 54471
L82771 54490
L82790 54528
L82790 54678
" />
<path d="M82978 54265
L82978 54190
L82959 54153
L82940 54134
L82884 54096
L82809 54078
L82659 54078
L82621 54096
L82603 54115
L82584 54153
L82584 54228
L82603 54265
L82621 54284
L82659 54303
L82753 54303
L82790 54284
L82809 54265
L82828 54228
L82828 54153
L82809 54115
L82790 54096
L82753 54078
" />
<path d="M82621 53928
L82603 53909
L82584 53871
L82584 53778
L82603 53740
L82621 53721
L82659 53703
L82696 53703
L82753 53721
L82978 53946
L82978 53703
" />
<text x="78200" y="56996.9"
textLength="1220.38" font-size="524.934" lengthAdjust="spacingAndGlyphs"
text-anchor="middle" opacity="0">R91</text>
<path d="M77946 56978
L77815 56790
" />
<path d="M77721 56978
L77721 56584
L77871 56584
L77909 56603
L77928 56621
L77946 56659
L77946 56715
L77928 56753
L77909 56771
L77871 56790
L77721 56790
" />
<path d="M78134 56978
L78209 56978
L78246 56959
L78265 56940
L78303 56884
L78321 56809
L78321 56659
L78303 56621
L78284 56603
L78246 56584
L78171 56584
L78134 56603
L78115 56621
L78096 56659
L78096 56753
L78115 56790
L78134 56809
L78171 56828
L78246 56828
L78284 56809
L78303 56790
L78321 56753
" />
<path d="M78696 56978
L78471 56978
" />
<path d="M78584 56978
L78584 56584
L78546 56640
L78509 56678
L78471 56696
" />
<g transform="rotate(-90 63600 52200)">
<text x="63600" y="52396.9"
textLength="1220.38" font-size="524.934" lengthAdjust="spacingAndGlyphs"
text-anchor="middle" opacity="0">R51</text>
</g>
<path d="M63778 52453
L63590 52584
" />
<path d="M63778 52678
L63384 52678
L63384 52528
L63403 52490
L63421 52471
L63459 52453
L63515 52453
L63553 52471
L63571 52490
L63590 52528
L63590 52678
" />
<path d="M63384 52096
L63384 52284
L63571 52303
L63553 52284
L63534 52246
L63534 52153
L63553 52115
L63571 52096
L63609 52078
L63703 52078
L63740 52096
L63759 52115
L63778 52153
L63778 52246
L63759 52284
L63740 52303
" />
<path d="M63778 51703
L63778 51928
" />
<path d="M63778 51815
L63384 51815
L63440 51853
L63478 51890
L63496 51928
" />
<text x="84400" y="41196.9"
textLength="1595.33" font-size="524.934" lengthAdjust="spacingAndGlyphs"
text-anchor="middle" opacity="0">R103</text>
<path d="M83959 41178
L83828 40990
" />
<path d="M83734 41178
L83734 40784
L83884 40784
L83921 40803
L83940 40821
L83959 40859
L83959 40915
L83940 40953
L83921 40971
L83884 40990
L83734 40990
" />
<path d="M84334 41178
L84109 41178
" />
<path d="M84221 41178
L84221 40784
L84184 40840
L84146 40878
L84109 40896
" />
<path d="M84578 40784
L84615 40784
L84653 40803
L84671 40821
L84690 40859
L84709 40934
L84709 41028
L84690 41103
L84671 41140
L84653 41159
L84615 41178
L84578 41178
L84540 41159
L84521 41140
L84503 41103
L84484 41028
L84484 40934
L84503 40859
L84521 40821
L84540 40803
L84578 40784
" />
<path d="M84840 40784
L85084 40784
L84953 40934
L85009 40934
L85046 40953
L85065 40971
L85084 41009
L85084 41103
L85065 41140
L85046 41159
L85009 41178
L84896 41178
L84859 41159
L84840 41140
" />
<text x="84400" y="40596.9"
textLength="1595.33" font-size="524.934" lengthAdjust="spacingAndGlyphs"
text-anchor="middle" opacity="0">R102</text>
<path d="M83959 40578
L83828 40390
" />
<path d="M83734 40578
L83734 40184
L83884 40184
L83921 40203
L83940 40221
L83959 40259
L83959 40315
L83940 40353
L83921 40371
L83884 40390
L83734 40390
" />
<path d="M84334 40578
L84109 40578
" />
<path d="M84221 40578
L84221 40184
L84184 40240
L84146 40278
L84109 40296
" />
<path d="M84578 40184
L84615 40184
L84653 40203
L84671 40221
L84690 40259
L84709 40334
L84709 40428
L84690 40503
L84671 40540
L84653 40559
L84615 40578
L84578 40578
L84540 40559
L84521 40540
L84503 40503
L84484 40428
L84484 40334
L84503 40259
L84521 40221
L84540 40203
L84578 40184
" />
<path d="M84859 40221
L84878 40203
L84915 40184
L85009 40184
L85046 40203
L85065 40221
L85084 40259
L85084 40296
L85065 40353
L84840 40578
L85084 40578
" />
<text x="79800" y="49196.9"
textLength="1220.38" font-size="524.934" lengthAdjust="spacingAndGlyphs"
text-anchor="middle" opacity="0">R84</text>
<path d="M79546 49178
L79415 48990
" />
<path d="M79321 49178
L79321 48784
L79471 48784
L79509 48803
L79528 48821
L79546 48859
L79546 48915
L79528 48953
L79509 48971
L79471 48990
L79321 48990
" />
<path d="M79771 48953
L79734 48934
L79715 48915
L79696 48878
L79696 48859
L79715 48821
L79734 48803
L79771 48784
L79846 48784
L79884 48803
L79903 48821
L79921 48859
L79921 48878
L79903 48915
L79884 48934
L79846 48953
L79771 48953
L79734 48971
L79715 48990
L79696 49028
L79696 49103
L79715 49140
L79734 49159
L79771 49178
L79846 49178
L79884 49159
L79903 49140
L79921 49103
L79921 49028
L79903 48990
L79884 48971
L79846 48953
" />
<path d="M80259 48915
L80259 49178
" />
<path d="M80165 48765
L80071 49046
L80315 49046
" />
<text x="71600" y="44496.9"
textLength="1220.38" font-size="524.934" lengthAdjust="spacingAndGlyphs"
text-anchor="middle" opacity="0">R44</text>
<path d="M71346 44478
L71215 44290
" />
<path d="M71121 44478
L71121 44084
L71271 44084
L71309 44103
L71328 44121
L71346 44159
L71346 44215
L71328 44253
L71309 44271
L71271 44290
L71121 44290
" />
<path d="M71684 44215
L71684 44478
" />
<path d="M71590 44065
L71496 44346
L71740 44346
" />
<path d="M72059 44215
L72059 44478
" />
<path d="M71965 44065
L71871 44346
L72115 44346
" />
<g transform="rotate(-90 85000 48200)">
<text x="85000" y="48396.9"
textLength="1220.38" font-size="524.934" lengthAdjust="spacingAndGlyphs"
text-anchor="middle" opacity="0">R82</text>
</g>
<path d="M85178 48453
L84990 48584
" />
<path d="M85178 48678
L84784 48678
L84784 48528
L84803 48490
L84821 48471
L84859 48453
L84915 48453
L84953 48471
L84971 48490
L84990 48528
L84990 48678
" />
<path d="M84953 48228
L84934 48265
L84915 48284
L84878 48303
L84859 48303
L84821 48284
L84803 48265
L84784 48228
L84784 48153
L84803 48115
L84821 48096
L84859 48078
L84878 48078
L84915 48096
L84934 48115
L84953 48153
L84953 48228
L84971 48265
L84990 48284
L85028 48303
L85103 48303
L85140 48284
L85159 48265
L85178 48228
L85178 48153
L85159 48115
L85140 48096
L85103 48078
L85028 48078
L84990 48096
L84971 48115
L84953 48153
" />
<path d="M84821 47928
L84803 47909
L84784 47871
L84784 47778
L84803 47740
L84821 47721
L84859 47703
L84896 47703
L84953 47721
L85178 47946
L85178 47703
" />
<text x="79800" y="50796.9"
textLength="1220.38" font-size="524.934" lengthAdjust="spacingAndGlyphs"
text-anchor="middle" opacity="0">R81</text>
<path d="M79546 50778
L79415 50590
" />
<path d="M79321 50778
L79321 50384
L79471 50384
L79509 50403
L79528 50421
L79546 50459
L79546 50515
L79528 50553
L79509 50571
L79471 50590
L79321 50590
" />
<path d="M79771 50553
L79734 50534
L79715 50515
L79696 50478
L79696 50459
L79715 50421
L79734 50403
L79771 50384
L79846 50384
L79884 50403
L79903 50421
L79921 50459
L79921 50478
L79903 50515
L79884 50534
L79846 50553
L79771 50553
L79734 50571
L79715 50590
L79696 50628
L79696 50703
L79715 50740
L79734 50759
L79771 50778
L79846 50778
L79884 50759
L79903 50740
L79921 50703
L79921 50628
L79903 50590
L79884 50571
L79846 50553
" />
<path d="M80296 50778
L80071 50778
" />
<path d="M80184 50778
L80184 50384
L80146 50440
L80109 50478
L80071 50496
" />
<text x="75800" y="48196.9"
textLength="1220.38" font-size="524.934" lengthAdjust="spacingAndGlyphs"
text-anchor="middle" opacity="0">R45</text>
<path d="M75546 48178
L75415 47990
" />
<path d="M75321 48178
L75321 47784
L75471 47784
L75509 47803
L75528 47821
L75546 47859
L75546 47915
L75528 47953
L75509 47971
L75471 47990
L75321 47990
" />
<path d="M75884 47915
L75884 48178
" />
<path d="M75790 47765
L75696 48046
L75940 48046
" />
<path d="M76278 47784
L76090 47784
L76071 47971
L76090 47953
L76128 47934
L76221 47934
L76259 47953
L76278 47971
L76296 48009
L76296 48103
L76278 48140
L76259 48159
L76221 48178
L76128 48178
L76090 48159
L76071 48140
" />
<text x="89000" y="44296.9"
textLength="1595.33" font-size="524.934" lengthAdjust="spacingAndGlyphs"
text-anchor="middle" opacity="0">R101</text>
<path d="M88559 44278
L88428 44090
" />
<path d="M88334 44278
L88334 43884
L88484 43884
L88521 43903
L88540 43921
L88559 43959
L88559 44015
L88540 44053
L88521 44071
L88484 44090
L88334 44090
" />
<path d="M88934 44278
L88709 44278
" />
<path d="M88821 44278
L88821 43884
L88784 43940
L88746 43978
L88709 43996
" />
<path d="M89178 43884
L89215 43884
L89253 43903
L89271 43921
L89290 43959
L89309 44034
L89309 44128
L89290 44203
L89271 44240
L89253 44259
L89215 44278
L89178 44278
L89140 44259
L89121 44240
L89103 44203
L89084 44128
L89084 44034
L89103 43959
L89121 43921
L89140 43903
L89178 43884
" />
<path d="M89684 44278
L89459 44278
" />
<path d="M89571 44278
L89571 43884
L89534 43940
L89496 43978
L89459 43996
" />
<text x="64400" y="47796.9"
textLength="1220.38" font-size="524.934" lengthAdjust="spacingAndGlyphs"
text-anchor="middle" opacity="0">R43</text>
<path d="M64146 47778
L64015 47590
" />
<path d="M63921 47778
L63921 47384
L64071 47384
L64109 47403
L64128 47421
L64146 47459
L64146 47515
L64128 47553
L64109 47571
L64071 47590
L63921 47590
" />
<path d="M64484 47515
L64484 47778
" />
<path d="M64390 47365
L64296 47646
L64540 47646
" />
<path d="M64653 47384
L64896 47384
L64765 47534
L64821 47534
L64859 47553
L64878 47571
L64896 47609
L64896 47703
L64878 47740
L64859 47759
L64821 47778
L64709 47778
L64671 47759
L64653 47740
" />
<text x="71800" y="43896.9"
textLength="1220.38" font-size="524.934" lengthAdjust="spacingAndGlyphs"
text-anchor="middle" opacity="0">R31</text>
<path d="M71546 43878
L71415 43690
" />
<path d="M71321 43878
L71321 43484
L71471 43484
L71509 43503
L71528 43521
L71546 43559
L71546 43615
L71528 43653
L71509 43671
L71471 43690
L71321 43690
" />
<path d="M71678 43484
L71921 43484
L71790 43634
L71846 43634
L71884 43653
L71903 43671
L71921 43709
L71921 43803
L71903 43840
L71884 43859
L71846 43878
L71734 43878
L71696 43859
L71678 43840
" />
<path d="M72296 43878
L72071 43878
" />
<path d="M72184 43878
L72184 43484
L72146 43540
L72109 43578
L72071 43596
" />
<text x="64300" y="45996.9"
textLength="1220.38" font-size="524.934" lengthAdjust="spacingAndGlyphs"
text-anchor="middle" opacity="0">R42</text>
<path d="M64046 45978
L63915 45790
" />
<path d="M63821 45978
L63821 45584
L63971 45584
L64009 45603
L64028 45621
L64046 45659
L64046 45715
L64028 45753
L64009 45771
L63971 45790
L63821 45790
" />
<path d="M64384 45715
L64384 45978
" />
<path d="M64290 45565
L64196 45846
L64440 45846
" />
<path d="M64571 45621
L64590 45603
L64628 45584
L64721 45584
L64759 45603
L64778 45621
L64796 45659
L64796 45696
L64778 45753
L64553 45978
L64796 45978
" />
<text x="63800" y="50732.1"
textLength="1220.38" font-size="524.934" lengthAdjust="spacingAndGlyphs"
text-anchor="middle" opacity="0">R41</text>
<path d="M63546 50713
L63415 50525
" />
<path d="M63321 50713
L63321 50319
L63471 50319
L63509 50338
L63528 50357
L63546 50394
L63546 50450
L63528 50488
L63509 50507
L63471 50525
L63321 50525
" />
<path d="M63884 50450
L63884 50713
" />
<path d="M63790 50300
L63696 50582
L63940 50582
" />
<path d="M64296 50713
L64071 50713
" />
<path d="M64184 50713
L64184 50319
L64146 50375
L64109 50413
L64071 50432
" />
<text x="71950" y="54096.9"
textLength="1220.38" font-size="524.934" lengthAdjust="spacingAndGlyphs"
text-anchor="middle" opacity="0">R72</text>
<path d="M71696 54078
L71565 53890
" />
<path d="M71471 54078
L71471 53684
L71621 53684
L71659 53703
L71678 53721
L71696 53759
L71696 53815
L71678 53853
L71659 53871
L71621 53890
L71471 53890
" />
<path d="M71828 53684
L72090 53684
L71921 54078
" />
<path d="M72221 53721
L72240 53703
L72278 53684
L72371 53684
L72409 53703
L72428 53721
L72446 53759
L72446 53796
L72428 53853
L72203 54078
L72446 54078
" />
<text x="71900" y="48246.9"
textLength="1220.38" font-size="524.934" lengthAdjust="spacingAndGlyphs"
text-anchor="middle" opacity="0">R71</text>
<path d="M71646 48228
L71515 48040
" />
<path d="M71421 48228
L71421 47834
L71571 47834
L71609 47853
L71628 47871
L71646 47909
L71646 47965
L71628 48003
L71609 48021
L71571 48040
L71421 48040
" />
<path d="M71778 47834
L72040 47834
L71871 48228
" />
<path d="M72396 48228
L72171 48228
" />
<path d="M72284 48228
L72284 47834
L72246 47890
L72209 47928
L72171 47946
" />
<text x="84500" y="44996.9"
textLength="1220.38" font-size="524.934" lengthAdjust="spacingAndGlyphs"
text-anchor="middle" opacity="0">R76</text>
<path d="M84246 44978
L84115 44790
" />
<path d="M84021 44978
L84021 44584
L84171 44584
L84209 44603
L84228 44621
L84246 44659
L84246 44715
L84228 44753
L84209 44771
L84171 44790
L84021 44790
" />
<path d="M84378 44584
L84640 44584
L84471 44978
" />
<path d="M84959 44584
L84884 44584
L84846 44603
L84828 44621
L84790 44678
L84771 44753
L84771 44903
L84790 44940
L84809 44959
L84846 44978
L84921 44978
L84959 44959
L84978 44940
L84996 44903
L84996 44809
L84978 44771
L84959 44753
L84921 44734
L84846 44734
L84809 44753
L84790 44771
L84771 44809
" />
<text x="75964.8" y="54396.9"
textLength="1220.38" font-size="524.934" lengthAdjust="spacingAndGlyphs"
text-anchor="middle" opacity="0">R74</text>
<path d="M75711 54378
L75580 54190
" />
<path d="M75486 54378
L75486 53984
L75636 53984
L75674 54003
L75692 54021
L75711 54059
L75711 54115
L75692 54153
L75674 54171
L75636 54190
L75486 54190
" />
<path d="M75842 53984
L76105 53984
L75936 54378
" />
<path d="M76424 54115
L76424 54378
" />
<path d="M76330 53965
L76236 54246
L76480 54246
" />
<text x="77270.5" y="48996.9"
textLength="1220.38" font-size="524.934" lengthAdjust="spacingAndGlyphs"
text-anchor="middle" opacity="0">R75</text>
<path d="M77017 48978
L76886 48790
" />
<path d="M76792 48978
L76792 48584
L76942 48584
L76979 48603
L76998 48621
L77017 48659
L77017 48715
L76998 48753
L76979 48771
L76942 48790
L76792 48790
" />
<path d="M77148 48584
L77411 48584
L77242 48978
" />
<path d="M77748 48584
L77561 48584
L77542 48771
L77561 48753
L77598 48734
L77692 48734
L77729 48753
L77748 48771
L77767 48809
L77767 48903
L77748 48940
L77729 48959
L77692 48978
L77598 48978
L77561 48959
L77542 48940
" />
<text x="84500" y="44396.9"
textLength="1220.38" font-size="524.934" lengthAdjust="spacingAndGlyphs"
text-anchor="middle" opacity="0">R78</text>
<path d="M84246 44378
L84115 44190
" />
<path d="M84021 44378
L84021 43984
L84171 43984
L84209 44003
L84228 44021
L84246 44059
L84246 44115
L84228 44153
L84209 44171
L84171 44190
L84021 44190
" />
<path d="M84378 43984
L84640 43984
L84471 44378
" />
<path d="M84846 44153
L84809 44134
L84790 44115
L84771 44078
L84771 44059
L84790 44021
L84809 44003
L84846 43984
L84921 43984
L84959 44003
L84978 44021
L84996 44059
L84996 44078
L84978 44115
L84959 44134
L84921 44153
L84846 44153
L84809 44171
L84790 44190
L84771 44228
L84771 44303
L84790 44340
L84809 44359
L84846 44378
L84921 44378
L84959 44359
L84978 44340
L84996 44303
L84996 44228
L84978 44190
L84959 44171
L84921 44153
" />
<text x="71950" y="54646.9"
textLength="1220.38" font-size="524.934" lengthAdjust="spacingAndGlyphs"
text-anchor="middle" opacity="0">R73</text>
<path d="M71696 54628
L71565 54440
" />
<path d="M71471 54628
L71471 54234
L71621 54234
L71659 54253
L71678 54271
L71696 54309
L71696 54365
L71678 54403
L71659 54421
L71621 54440
L71471 54440
" />
<path d="M71828 54234
L72090 54234
L71921 54628
" />
<path d="M72203 54234
L72446 54234
L72315 54384
L72371 54384
L72409 54403
L72428 54421
L72446 54459
L72446 54553
L72428 54590
L72409 54609
L72371 54628
L72259 54628
L72221 54609
L72203 54590
" />
<text x="71950" y="48796.9"
textLength="1220.38" font-size="524.934" lengthAdjust="spacingAndGlyphs"
text-anchor="middle" opacity="0">R27</text>
<path d="M71696 48778
L71565 48590
" />
<path d="M71471 48778
L71471 48384
L71621 48384
L71659 48403
L71678 48421
L71696 48459
L71696 48515
L71678 48553
L71659 48571
L71621 48590
L71471 48590
" />
<path d="M71846 48421
L71865 48403
L71903 48384
L71996 48384
L72034 48403
L72053 48421
L72071 48459
L72071 48496
L72053 48553
L71828 48778
L72071 48778
" />
<path d="M72203 48384
L72465 48384
L72296 48778
" />
<g transform="rotate(-90 69660.6 49364.8)">
<text x="69660.6" y="49561.6"
textLength="1220.38" font-size="524.934" lengthAdjust="spacingAndGlyphs"
text-anchor="middle" opacity="0">R25</text>
</g>
<path d="M69838 49617
L69651 49749
" />
<path d="M69838 49842
L69445 49842
L69445 49692
L69463 49655
L69482 49636
L69520 49617
L69576 49617
L69613 49636
L69632 49655
L69651 49692
L69651 49842
" />
<path d="M69482 49467
L69463 49449
L69445 49411
L69445 49317
L69463 49280
L69482 49261
L69520 49242
L69557 49242
L69613 49261
L69838 49486
L69838 49242
" />
<path d="M69445 48886
L69445 49074
L69632 49092
L69613 49074
L69595 49036
L69595 48942
L69613 48905
L69632 48886
L69670 48867
L69763 48867
L69801 48886
L69819 48905
L69838 48942
L69838 49036
L69819 49074
L69801 49092
" />
<g transform="rotate(-90 69660.6 48264.8)">
<text x="69660.6" y="48461.6"
textLength="1220.38" font-size="524.934" lengthAdjust="spacingAndGlyphs"
text-anchor="middle" opacity="0">R24</text>
</g>
<path d="M69838 48517
L69651 48649
" />
<path d="M69838 48742
L69445 48742
L69445 48592
L69463 48555
L69482 48536
L69520 48517
L69576 48517
L69613 48536
L69632 48555
L69651 48592
L69651 48742
" />
<path d="M69482 48367
L69463 48349
L69445 48311
L69445 48217
L69463 48180
L69482 48161
L69520 48142
L69557 48142
L69613 48161
L69838 48386
L69838 48142
" />
<path d="M69576 47805
L69838 47805
" />
<path d="M69426 47899
L69707 47992
L69707 47749
" />
<text x="77435.2" y="48396.9"
textLength="845.426" font-size="524.934" lengthAdjust="spacingAndGlyphs"
text-anchor="middle" opacity="0">R8</text>
<path d="M77369 48378
L77238 48190
" />
<path d="M77144 48378
L77144 47984
L77294 47984
L77332 48003
L77350 48021
L77369 48059
L77369 48115
L77350 48153
L77332 48171
L77294 48190
L77144 48190
" />
<path d="M77594 48153
L77557 48134
L77538 48115
L77519 48078
L77519 48059
L77538 48021
L77557 48003
L77594 47984
L77669 47984
L77707 48003
L77725 48021
L77744 48059
L77744 48078
L77725 48115
L77707 48134
L77669 48153
L77594 48153
L77557 48171
L77538 48190
L77519 48228
L77519 48303
L77538 48340
L77557 48359
L77594 48378
L77669 48378
L77707 48359
L77725 48340
L77744 48303
L77744 48228
L77725 48190
L77707 48171
L77669 48153
" />
<text x="70564.8" y="44946.9"
textLength="1220.38" font-size="524.934" lengthAdjust="spacingAndGlyphs"
text-anchor="middle" opacity="0">R22</text>
<path d="M70311 44928
L70180 44740
" />
<path d="M70086 44928
L70086 44534
L70236 44534
L70274 44553
L70292 44571
L70311 44609
L70311 44665
L70292 44703
L70274 44721
L70236 44740
L70086 44740
" />
<path d="M70461 44571
L70480 44553
L70517 44534
L70611 44534
L70649 44553
L70667 44571
L70686 44609
L70686 44646
L70667 44703
L70442 44928
L70686 44928
" />
<path d="M70836 44571
L70855 44553
L70892 44534
L70986 44534
L71024 44553
L71042 44571
L71061 44609
L71061 44646
L71042 44703
L70817 44928
L71061 44928
" />
<text x="70564.8" y="45496.9"
textLength="1220.38" font-size="524.934" lengthAdjust="spacingAndGlyphs"
text-anchor="middle" opacity="0">R21</text>
<path d="M70311 45478
L70180 45290
" />
<path d="M70086 45478
L70086 45084
L70236 45084
L70274 45103
L70292 45121
L70311 45159
L70311 45215
L70292 45253
L70274 45271
L70236 45290
L70086 45290
" />
<path d="M70461 45121
L70480 45103
L70517 45084
L70611 45084
L70649 45103
L70667 45121
L70686 45159
L70686 45196
L70667 45253
L70442 45478
L70686 45478
" />
<path d="M71061 45478
L70836 45478
" />
<path d="M70949 45478
L70949 45084
L70911 45140
L70874 45178
L70836 45196
" />
<text x="71000" y="51596.9"
textLength="1220.38" font-size="524.934" lengthAdjust="spacingAndGlyphs"
text-anchor="middle" opacity="0">R26</text>
<path d="M70746 51578
L70615 51390
" />
<path d="M70521 51578
L70521 51184
L70671 51184
L70709 51203
L70728 51221
L70746 51259
L70746 51315
L70728 51353
L70709 51371
L70671 51390
L70521 51390
" />
<path d="M70896 51221
L70915 51203
L70953 51184
L71046 51184
L71084 51203
L71103 51221
L71121 51259
L71121 51296
L71103 51353
L70878 51578
L71121 51578
" />
<path d="M71459 51184
L71384 51184
L71346 51203
L71328 51221
L71290 51278
L71271 51353
L71271 51503
L71290 51540
L71309 51559
L71346 51578
L71421 51578
L71459 51559
L71478 51540
L71496 51503
L71496 51409
L71478 51371
L71459 51353
L71421 51334
L71346 51334
L71309 51353
L71290 51371
L71271 51409
" />
<text x="71100" y="39096.9"
textLength="1220.38" font-size="524.934" lengthAdjust="spacingAndGlyphs"
text-anchor="middle" opacity="0">R12</text>
<path d="M70846 39078
L70715 38890
" />
<path d="M70621 39078
L70621 38684
L70771 38684
L70809 38703
L70828 38721
L70846 38759
L70846 38815
L70828 38853
L70809 38871
L70771 38890
L70621 38890
" />
<path d="M71221 39078
L70996 39078
" />
<path d="M71109 39078
L71109 38684
L71071 38740
L71034 38778
L70996 38796
" />
<path d="M71371 38721
L71390 38703
L71428 38684
L71521 38684
L71559 38703
L71578 38721
L71596 38759
L71596 38796
L71578 38853
L71353 39078
L71596 39078
" />
<text x="71900" y="49796.9"
textLength="1220.38" font-size="524.934" lengthAdjust="spacingAndGlyphs"
text-anchor="middle" opacity="0">R77</text>
<path d="M71646 49778
L71515 49590
" />
<path d="M71421 49778
L71421 49384
L71571 49384
L71609 49403
L71628 49421
L71646 49459
L71646 49515
L71628 49553
L71609 49571
L71571 49590
L71421 49590
" />
<path d="M71778 49384
L72040 49384
L71871 49778
" />
<path d="M72153 49384
L72415 49384
L72246 49778
" />
<g transform="rotate(-90 71800 40800)">
<text x="71800" y="40996.9"
textLength="1220.38" font-size="524.934" lengthAdjust="spacingAndGlyphs"
text-anchor="middle" opacity="0">R11</text>
</g>
<path d="M71978 41053
L71790 41184
" />
<path d="M71978 41278
L71584 41278
L71584 41128
L71603 41090
L71621 41071
L71659 41053
L71715 41053
L71753 41071
L71771 41090
L71790 41128
L71790 41278
" />
<path d="M71978 40678
L71978 40903
" />
<path d="M71978 40790
L71584 40790
L71640 40828
L71678 40865
L71696 40903
" />
<path d="M71978 40303
L71978 40528
" />
<path d="M71978 40415
L71584 40415
L71640 40453
L71678 40490
L71696 40528
" />
<text x="70550" y="45996.9"
textLength="1220.38" font-size="524.934" lengthAdjust="spacingAndGlyphs"
text-anchor="middle" opacity="0">R23</text>
<path d="M70296 45978
L70165 45790
" />
<path d="M70071 45978
L70071 45584
L70221 45584
L70259 45603
L70278 45621
L70296 45659
L70296 45715
L70278 45753
L70259 45771
L70221 45790
L70071 45790
" />
<path d="M70446 45621
L70465 45603
L70503 45584
L70596 45584
L70634 45603
L70653 45621
L70671 45659
L70671 45696
L70653 45753
L70428 45978
L70671 45978
" />
<path d="M70803 45584
L71046 45584
L70915 45734
L70971 45734
L71009 45753
L71028 45771
L71046 45809
L71046 45903
L71028 45940
L71009 45959
L70971 45978
L70859 45978
L70821 45959
L70803 45940
" />
<g transform="rotate(-90 84300 42300)">
<text x="84300" y="42496.9"
textLength="1614.08" font-size="524.934" lengthAdjust="spacingAndGlyphs"
text-anchor="middle" opacity="0">Q101</text>
</g>
<path d="M84515 42712
L84496 42749
L84459 42787
L84403 42843
L84384 42881
L84384 42918
" />
<path d="M84478 42899
L84459 42937
L84421 42974
L84346 42993
L84215 42993
L84140 42974
L84103 42937
L84084 42899
L84084 42824
L84103 42787
L84140 42749
L84215 42731
L84346 42731
L84421 42749
L84459 42787
L84478 42824
L84478 42899
" />
<path d="M84478 42356
L84478 42581
" />
<path d="M84478 42468
L84084 42468
L84140 42506
L84178 42543
L84196 42581
" />
<path d="M84084 42112
L84084 42075
L84103 42037
L84121 42018
L84159 42000
L84234 41981
L84328 41981
L84403 42000
L84440 42018
L84459 42037
L84478 42075
L84478 42112
L84459 42150
L84440 42168
L84403 42187
L84328 42206
L84234 42206
L84159 42187
L84121 42168
L84103 42150
L84084 42112
" />
<path d="M84478 41606
L84478 41831
" />
<path d="M84478 41718
L84084 41718
L84140 41756
L84178 41793
L84196 41831
" />
<text x="89370.1" y="55821.1"
textLength="1370.36" font-size="524.934" lengthAdjust="spacingAndGlyphs"
text-anchor="middle" opacity="0">FID3</text>
<path d="M88948 55596
L88817 55596
" />
<path d="M88817 55802
L88817 55408
L89004 55408
" />
<path d="M89154 55802
L89154 55408
" />
<path d="M89341 55802
L89341 55408
L89435 55408
L89491 55427
L89529 55464
L89548 55502
L89566 55577
L89566 55633
L89548 55708
L89529 55746
L89491 55783
L89435 55802
L89341 55802
" />
<path d="M89698 55408
L89941 55408
L89810 55558
L89866 55558
L89904 55577
L89923 55596
L89941 55633
L89941 55727
L89923 55764
L89904 55783
L89866 55802
L89754 55802
L89716 55783
L89698 55764
" />
<text x="59950" y="56546.9"
textLength="1370.36" font-size="524.934" lengthAdjust="spacingAndGlyphs"
text-anchor="middle" opacity="0">FID2</text>
<path d="M59528 56321
L59396 56321
" />
<path d="M59396 56528
L59396 56134
L59584 56134
" />
<path d="M59734 56528
L59734 56134
" />
<path d="M59921 56528
L59921 56134
L60015 56134
L60071 56153
L60109 56190
L60128 56228
L60146 56303
L60146 56359
L60128 56434
L60109 56471
L60071 56509
L60015 56528
L59921 56528
" />
<path d="M60296 56171
L60315 56153
L60353 56134
L60446 56134
L60484 56153
L60503 56171
L60521 56209
L60521 56246
L60503 56303
L60278 56528
L60521 56528
" />
<text x="59950" y="40796.9"
textLength="1370.36" font-size="524.934" lengthAdjust="spacingAndGlyphs"
text-anchor="middle" opacity="0">FID1</text>
<path d="M59528 40571
L59396 40571
" />
<path d="M59396 40778
L59396 40384
L59584 40384
" />
<path d="M59734 40778
L59734 40384
" />
<path d="M59921 40778
L59921 40384
L60015 40384
L60071 40403
L60109 40440
L60128 40478
L60146 40553
L60146 40609
L60128 40684
L60109 40721
L60071 40759
L60015 40778
L59921 40778
" />
<path d="M60521 40778
L60296 40778
" />
<path d="M60409 40778
L60409 40384
L60371 40440
L60334 40478
L60296 40496
" />
<g transform="rotate(-90 81800 54400)">
<text x="81800" y="54596.9"
textLength="1220.38" font-size="524.934" lengthAdjust="spacingAndGlyphs"
text-anchor="middle" opacity="0">D92</text>
</g>
<path d="M81978 54878
L81584 54878
L81584 54784
L81603 54728
L81640 54690
L81678 54671
L81753 54653
L81809 54653
L81884 54671
L81921 54690
L81959 54728
L81978 54784
L81978 54878
" />
<path d="M81978 54465
L81978 54390
L81959 54353
L81940 54334
L81884 54296
L81809 54278
L81659 54278
L81621 54296
L81603 54315
L81584 54353
L81584 54428
L81603 54465
L81621 54484
L81659 54503
L81753 54503
L81790 54484
L81809 54465
L81828 54428
L81828 54353
L81809 54315
L81790 54296
L81753 54278
" />
<path d="M81621 54128
L81603 54109
L81584 54071
L81584 53978
L81603 53940
L81621 53921
L81659 53903
L81696 53903
L81753 53921
L81978 54146
L81978 53903
" />
<text x="78000" y="56196.9"
textLength="1220.38" font-size="524.934" lengthAdjust="spacingAndGlyphs"
text-anchor="middle" opacity="0">D91</text>
<path d="M77521 56178
L77521 55784
L77615 55784
L77671 55803
L77709 55840
L77728 55878
L77746 55953
L77746 56009
L77728 56084
L77709 56121
L77671 56159
L77615 56178
L77521 56178
" />
<path d="M77934 56178
L78009 56178
L78046 56159
L78065 56140
L78103 56084
L78121 56009
L78121 55859
L78103 55821
L78084 55803
L78046 55784
L77971 55784
L77934 55803
L77915 55821
L77896 55859
L77896 55953
L77915 55990
L77934 56009
L77971 56028
L78046 56028
L78084 56009
L78103 55990
L78121 55953
" />
<path d="M78496 56178
L78271 56178
" />
<path d="M78384 56178
L78384 55784
L78346 55840
L78309 55878
L78271 55896
" />
<g transform="rotate(-90 84000 48200)">
<text x="84000" y="48396.9"
textLength="1220.38" font-size="524.934" lengthAdjust="spacingAndGlyphs"
text-anchor="middle" opacity="0">D82</text>
</g>
<path d="M84178 48678
L83784 48678
L83784 48584
L83803 48528
L83840 48490
L83878 48471
L83953 48453
L84009 48453
L84084 48471
L84121 48490
L84159 48528
L84178 48584
L84178 48678
" />
<path d="M83953 48228
L83934 48265
L83915 48284
L83878 48303
L83859 48303
L83821 48284
L83803 48265
L83784 48228
L83784 48153
L83803 48115
L83821 48096
L83859 48078
L83878 48078
L83915 48096
L83934 48115
L83953 48153
L83953 48228
L83971 48265
L83990 48284
L84028 48303
L84103 48303
L84140 48284
L84159 48265
L84178 48228
L84178 48153
L84159 48115
L84140 48096
L84103 48078
L84028 48078
L83990 48096
L83971 48115
L83953 48153
" />
<path d="M83821 47928
L83803 47909
L83784 47871
L83784 47778
L83803 47740
L83821 47721
L83859 47703
L83896 47703
L83953 47721
L84178 47946
L84178 47703
" />
<text x="79800" y="49996.9"
textLength="1220.38" font-size="524.934" lengthAdjust="spacingAndGlyphs"
text-anchor="middle" opacity="0">D81</text>
<path d="M79321 49978
L79321 49584
L79415 49584
L79471 49603
L79509 49640
L79528 49678
L79546 49753
L79546 49809
L79528 49884
L79509 49921
L79471 49959
L79415 49978
L79321 49978
" />
<path d="M79771 49753
L79734 49734
L79715 49715
L79696 49678
L79696 49659
L79715 49621
L79734 49603
L79771 49584
L79846 49584
L79884 49603
L79903 49621
L79921 49659
L79921 49678
L79903 49715
L79884 49734
L79846 49753
L79771 49753
L79734 49771
L79715 49790
L79696 49828
L79696 49903
L79715 49940
L79734 49959
L79771 49978
L79846 49978
L79884 49959
L79903 49940
L79921 49903
L79921 49828
L79903 49790
L79884 49771
L79846 49753
" />
<path d="M80296 49978
L80071 49978
" />
<path d="M80184 49978
L80184 49584
L80146 49640
L80109 49678
L80071 49696
" />
<text x="87500" y="44146.9"
textLength="1595.33" font-size="524.934" lengthAdjust="spacingAndGlyphs"
text-anchor="middle" opacity="0">D101</text>
<path d="M86834 44128
L86834 43734
L86928 43734
L86984 43753
L87021 43790
L87040 43828
L87059 43903
L87059 43959
L87040 44034
L87021 44071
L86984 44109
L86928 44128
L86834 44128
" />
<path d="M87434 44128
L87209 44128
" />
<path d="M87321 44128
L87321 43734
L87284 43790
L87246 43828
L87209 43846
" />
<path d="M87678 43734
L87715 43734
L87753 43753
L87771 43771
L87790 43809
L87809 43884
L87809 43978
L87790 44053
L87771 44090
L87753 44109
L87715 44128
L87678 44128
L87640 44109
L87621 44090
L87603 44053
L87584 43978
L87584 43884
L87603 43809
L87621 43771
L87640 43753
L87678 43734
" />
<path d="M88184 44128
L87959 44128
" />
<path d="M88071 44128
L88071 43734
L88034 43790
L87996 43828
L87959 43846
" />
<text x="70600" y="43896.9"
textLength="1220.38" font-size="524.934" lengthAdjust="spacingAndGlyphs"
text-anchor="middle" opacity="0">D31</text>
<path d="M70121 43878
L70121 43484
L70215 43484
L70271 43503
L70309 43540
L70328 43578
L70346 43653
L70346 43709
L70328 43784
L70309 43821
L70271 43859
L70215 43878
L70121 43878
" />
<path d="M70478 43484
L70721 43484
L70590 43634
L70646 43634
L70684 43653
L70703 43671
L70721 43709
L70721 43803
L70703 43840
L70684 43859
L70646 43878
L70534 43878
L70496 43859
L70478 43840
" />
<path d="M71096 43878
L70871 43878
" />
<path d="M70984 43878
L70984 43484
L70946 43540
L70909 43578
L70871 43596
" />
<g transform="rotate(-90 69800 40300)">
<text x="69800" y="40496.9"
textLength="1220.38" font-size="524.934" lengthAdjust="spacingAndGlyphs"
text-anchor="middle" opacity="0">D11</text>
</g>
<path d="M69978 40778
L69584 40778
L69584 40684
L69603 40628
L69640 40590
L69678 40571
L69753 40553
L69809 40553
L69884 40571
L69921 40590
L69959 40628
L69978 40684
L69978 40778
" />
<path d="M69978 40178
L69978 40403
" />
<path d="M69978 40290
L69584 40290
L69640 40328
L69678 40365
L69696 40403
" />
<path d="M69978 39803
L69978 40028
" />
<path d="M69978 39915
L69584 39915
L69640 39953
L69678 39990
L69696 40028
" />
<text x="86200" y="58696.9"
textLength="1220.38" font-size="524.934" lengthAdjust="spacingAndGlyphs"
text-anchor="middle" opacity="0">C94</text>
<path d="M85946 58640
L85928 58659
L85871 58678
L85834 58678
L85778 58659
L85740 58621
L85721 58584
L85703 58509
L85703 58453
L85721 58378
L85740 58340
L85778 58303
L85834 58284
L85871 58284
L85928 58303
L85946 58321
" />
<path d="M86134 58678
L86209 58678
L86246 58659
L86265 58640
L86303 58584
L86321 58509
L86321 58359
L86303 58321
L86284 58303
L86246 58284
L86171 58284
L86134 58303
L86115 58321
L86096 58359
L86096 58453
L86115 58490
L86134 58509
L86171 58528
L86246 58528
L86284 58509
L86303 58490
L86321 58453
" />
<path d="M86659 58415
L86659 58678
" />
<path d="M86565 58265
L86471 58546
L86715 58546
" />
<text x="83000" y="59046.9"
textLength="1220.38" font-size="524.934" lengthAdjust="spacingAndGlyphs"
text-anchor="middle" opacity="0">C92</text>
<path d="M82746 58990
L82728 59009
L82671 59028
L82634 59028
L82578 59009
L82540 58971
L82521 58934
L82503 58859
L82503 58803
L82521 58728
L82540 58690
L82578 58653
L82634 58634
L82671 58634
L82728 58653
L82746 58671
" />
<path d="M82934 59028
L83009 59028
L83046 59009
L83065 58990
L83103 58934
L83121 58859
L83121 58709
L83103 58671
L83084 58653
L83046 58634
L82971 58634
L82934 58653
L82915 58671
L82896 58709
L82896 58803
L82915 58840
L82934 58859
L82971 58878
L83046 58878
L83084 58859
L83103 58840
L83121 58803
" />
<path d="M83271 58671
L83290 58653
L83328 58634
L83421 58634
L83459 58653
L83478 58671
L83496 58709
L83496 58746
L83478 58803
L83253 59028
L83496 59028
" />
<g transform="rotate(-90 80800 54400)">
<text x="80800" y="54596.9"
textLength="1220.38" font-size="524.934" lengthAdjust="spacingAndGlyphs"
text-anchor="middle" opacity="0">C93</text>
</g>
<path d="M80940 54653
L80959 54671
L80978 54728
L80978 54765
L80959 54821
L80921 54859
L80884 54878
L80809 54896
L80753 54896
L80678 54878
L80640 54859
L80603 54821
L80584 54765
L80584 54728
L80603 54671
L80621 54653
" />
<path d="M80978 54465
L80978 54390
L80959 54353
L80940 54334
L80884 54296
L80809 54278
L80659 54278
L80621 54296
L80603 54315
L80584 54353
L80584 54428
L80603 54465
L80621 54484
L80659 54503
L80753 54503
L80790 54484
L80809 54465
L80828 54428
L80828 54353
L80809 54315
L80790 54296
L80753 54278
" />
<path d="M80584 54146
L80584 53903
L80734 54034
L80734 53978
L80753 53940
L80771 53921
L80809 53903
L80903 53903
L80940 53921
L80959 53940
L80978 53978
L80978 54090
L80959 54128
L80940 54146
" />
<text x="78000" y="54396.9"
textLength="1220.38" font-size="524.934" lengthAdjust="spacingAndGlyphs"
text-anchor="middle" opacity="0">C91</text>
<path d="M77746 54340
L77728 54359
L77671 54378
L77634 54378
L77578 54359
L77540 54321
L77521 54284
L77503 54209
L77503 54153
L77521 54078
L77540 54040
L77578 54003
L77634 53984
L77671 53984
L77728 54003
L77746 54021
" />
<path d="M77934 54378
L78009 54378
L78046 54359
L78065 54340
L78103 54284
L78121 54209
L78121 54059
L78103 54021
L78084 54003
L78046 53984
L77971 53984
L77934 54003
L77915 54021
L77896 54059
L77896 54153
L77915 54190
L77934 54209
L77971 54228
L78046 54228
L78084 54209
L78103 54190
L78121 54153
" />
<path d="M78496 54378
L78271 54378
" />
<path d="M78384 54378
L78384 53984
L78346 54040
L78309 54078
L78271 54096
" />
<text x="86600" y="48996.9"
textLength="1220.38" font-size="524.934" lengthAdjust="spacingAndGlyphs"
text-anchor="middle" opacity="0">C84</text>
<path d="M86346 48940
L86328 48959
L86271 48978
L86234 48978
L86178 48959
L86140 48921
L86121 48884
L86103 48809
L86103 48753
L86121 48678
L86140 48640
L86178 48603
L86234 48584
L86271 48584
L86328 48603
L86346 48621
" />
<path d="M86571 48753
L86534 48734
L86515 48715
L86496 48678
L86496 48659
L86515 48621
L86534 48603
L86571 48584
L86646 48584
L86684 48603
L86703 48621
L86721 48659
L86721 48678
L86703 48715
L86684 48734
L86646 48753
L86571 48753
L86534 48771
L86515 48790
L86496 48828
L86496 48903
L86515 48940
L86534 48959
L86571 48978
L86646 48978
L86684 48959
L86703 48940
L86721 48903
L86721 48828
L86703 48790
L86684 48771
L86646 48753
" />
<path d="M87059 48715
L87059 48978
" />
<path d="M86965 48565
L86871 48846
L87115 48846
" />
<text x="84300" y="52696.9"
textLength="1220.38" font-size="524.934" lengthAdjust="spacingAndGlyphs"
text-anchor="middle" opacity="0">C82</text>
<path d="M84046 52640
L84028 52659
L83971 52678
L83934 52678
L83878 52659
L83840 52621
L83821 52584
L83803 52509
L83803 52453
L83821 52378
L83840 52340
L83878 52303
L83934 52284
L83971 52284
L84028 52303
L84046 52321
" />
<path d="M84271 52453
L84234 52434
L84215 52415
L84196 52378
L84196 52359
L84215 52321
L84234 52303
L84271 52284
L84346 52284
L84384 52303
L84403 52321
L84421 52359
L84421 52378
L84403 52415
L84384 52434
L84346 52453
L84271 52453
L84234 52471
L84215 52490
L84196 52528
L84196 52603
L84215 52640
L84234 52659
L84271 52678
L84346 52678
L84384 52659
L84403 52640
L84421 52603
L84421 52528
L84403 52490
L84384 52471
L84346 52453
" />
<path d="M84571 52321
L84590 52303
L84628 52284
L84721 52284
L84759 52303
L84778 52321
L84796 52359
L84796 52396
L84778 52453
L84553 52678
L84796 52678
" />
<g transform="rotate(-90 83000 48200)">
<text x="83000" y="48396.9"
textLength="1220.38" font-size="524.934" lengthAdjust="spacingAndGlyphs"
text-anchor="middle" opacity="0">C83</text>
</g>
<path d="M83140 48453
L83159 48471
L83178 48528
L83178 48565
L83159 48621
L83121 48659
L83084 48678
L83009 48696
L82953 48696
L82878 48678
L82840 48659
L82803 48621
L82784 48565
L82784 48528
L82803 48471
L82821 48453
" />
<path d="M82953 48228
L82934 48265
L82915 48284
L82878 48303
L82859 48303
L82821 48284
L82803 48265
L82784 48228
L82784 48153
L82803 48115
L82821 48096
L82859 48078
L82878 48078
L82915 48096
L82934 48115
L82953 48153
L82953 48228
L82971 48265
L82990 48284
L83028 48303
L83103 48303
L83140 48284
L83159 48265
L83178 48228
L83178 48153
L83159 48115
L83140 48096
L83103 48078
L83028 48078
L82990 48096
L82971 48115
L82953 48153
" />
<path d="M82784 47946
L82784 47703
L82934 47834
L82934 47778
L82953 47740
L82971 47721
L83009 47703
L83103 47703
L83140 47721
L83159 47740
L83178 47778
L83178 47890
L83159 47928
L83140 47946
" />
<text x="79800" y="48396.9"
textLength="1220.38" font-size="524.934" lengthAdjust="spacingAndGlyphs"
text-anchor="middle" opacity="0">C81</text>
<path d="M79546 48340
L79528 48359
L79471 48378
L79434 48378
L79378 48359
L79340 48321
L79321 48284
L79303 48209
L79303 48153
L79321 48078
L79340 48040
L79378 48003
L79434 47984
L79471 47984
L79528 48003
L79546 48021
" />
<path d="M79771 48153
L79734 48134
L79715 48115
L79696 48078
L79696 48059
L79715 48021
L79734 48003
L79771 47984
L79846 47984
L79884 48003
L79903 48021
L79921 48059
L79921 48078
L79903 48115
L79884 48134
L79846 48153
L79771 48153
L79734 48171
L79715 48190
L79696 48228
L79696 48303
L79715 48340
L79734 48359
L79771 48378
L79846 48378
L79884 48359
L79903 48340
L79921 48303
L79921 48228
L79903 48190
L79884 48171
L79846 48153
" />
<path d="M80296 48378
L80071 48378
" />
<path d="M80184 48378
L80184 47984
L80146 48040
L80109 48078
L80071 48096
" />
<text x="69400" y="43896.9"
textLength="1220.38" font-size="524.934" lengthAdjust="spacingAndGlyphs"
text-anchor="middle" opacity="0">C31</text>
<path d="M69146 43840
L69128 43859
L69071 43878
L69034 43878
L68978 43859
L68940 43821
L68921 43784
L68903 43709
L68903 43653
L68921 43578
L68940 43540
L68978 43503
L69034 43484
L69071 43484
L69128 43503
L69146 43521
" />
<path d="M69278 43484
L69521 43484
L69390 43634
L69446 43634
L69484 43653
L69503 43671
L69521 43709
L69521 43803
L69503 43840
L69484 43859
L69446 43878
L69334 43878
L69296 43859
L69278 43840
" />
<path d="M69896 43878
L69671 43878
" />
<path d="M69784 43878
L69784 43484
L69746 43540
L69709 43578
L69671 43596
" />
<text x="62600" y="41096.9"
textLength="1220.38" font-size="524.934" lengthAdjust="spacingAndGlyphs"
text-anchor="middle" opacity="0">C12</text>
<path d="M62346 41040
L62328 41059
L62271 41078
L62234 41078
L62178 41059
L62140 41021
L62121 40984
L62103 40909
L62103 40853
L62121 40778
L62140 40740
L62178 40703
L62234 40684
L62271 40684
L62328 40703
L62346 40721
" />
<path d="M62721 41078
L62496 41078
" />
<path d="M62609 41078
L62609 40684
L62571 40740
L62534 40778
L62496 40796
" />
<path d="M62871 40721
L62890 40703
L62928 40684
L63021 40684
L63059 40703
L63078 40721
L63096 40759
L63096 40796
L63078 40853
L62853 41078
L63096 41078
" />
<text x="62700" y="38896.9"
textLength="1220.38" font-size="524.934" lengthAdjust="spacingAndGlyphs"
text-anchor="middle" opacity="0">C11</text>
<path d="M62446 38840
L62428 38859
L62371 38878
L62334 38878
L62278 38859
L62240 38821
L62221 38784
L62203 38709
L62203 38653
L62221 38578
L62240 38540
L62278 38503
L62334 38484
L62371 38484
L62428 38503
L62446 38521
" />
<path d="M62821 38878
L62596 38878
" />
<path d="M62709 38878
L62709 38484
L62671 38540
L62634 38578
L62596 38596
" />
<path d="M63196 38878
L62971 38878
" />
<path d="M63084 38878
L63084 38484
L63046 38540
L63009 38578
L62971 38596
" />
<g >
</g>
</g> 
</svg>
