<?xml version="1.0" standalone="no"?>
 <!DOCTYPE svg PUBLIC "-//W3C//DTD SVG 1.1//EN" 
 "http://www.w3.org/Graphics/SVG/1.1/DTD/svg11.dtd"> 
<svg
  xmlns:svg="http://www.w3.org/2000/svg"
  xmlns="http://www.w3.org/2000/svg"
  xmlns:xlink="http://www.w3.org/1999/xlink"
  version="1.1"
  width="29.700220cm" height="21.000720cm" viewBox="0 0 116930 82680">
<title>SVG Picture created as BSPD-CV_3_0_00a-B_SilkS.svg date 2022/03/12 21:54:21 </title>
  <desc>Picture generated by PCBNEW </desc>
<g style="fill:#000000; fill-opacity:1;stroke:#000000; stroke-opacity:1;
stroke-linecap:round; stroke-linejoin:round;"
 transform="translate(0 0) scale(1 1)">
</g>
<g style="fill:#000000; fill-opacity:0.0; 
stroke:#000000; stroke-width:-0.000393701; stroke-opacity:1; 
stroke-linecap:round; stroke-linejoin:round;">
</g>
<g style="fill:#000000; fill-opacity:0.0; 
stroke:#000000; stroke-width:59.0551; stroke-opacity:1; 
stroke-linecap:round; stroke-linejoin:round;">
<g transform="rotate(-180 89100 42500)">
<text x="89100" y="42696.9"
transform="scale(-1 1) translate(-178200.000000 0)"
textLength="1479.28" font-size="524.934" lengthAdjust="spacingAndGlyphs"
text-anchor="middle" opacity="0">SD -</text>
</g>
<path d="M88396 42340
L88453 42321
L88546 42321
L88584 42340
L88603 42359
L88621 42396
L88621 42434
L88603 42471
L88584 42490
L88546 42509
L88471 42528
L88434 42546
L88415 42565
L88396 42603
L88396 42640
L88415 42678
L88434 42696
L88471 42715
L88565 42715
L88621 42696
" />
<path d="M88790 42321
L88790 42715
L88884 42715
L88940 42696
L88978 42659
L88996 42621
L89015 42546
L89015 42490
L88996 42415
L88978 42378
L88940 42340
L88884 42321
L88790 42321
" />
<path d="M89484 42471
L89784 42471
" />
<g transform="rotate(-180 89100 41200)">
<text x="89100" y="41396.9"
transform="scale(-1 1) translate(-178200.000000 0)"
textLength="1479.28" font-size="524.934" lengthAdjust="spacingAndGlyphs"
text-anchor="middle" opacity="0">SD +</text>
</g>
<path d="M88396 41040
L88453 41021
L88546 41021
L88584 41040
L88603 41059
L88621 41096
L88621 41134
L88603 41171
L88584 41190
L88546 41209
L88471 41228
L88434 41246
L88415 41265
L88396 41303
L88396 41340
L88415 41378
L88434 41396
L88471 41415
L88565 41415
L88621 41396
" />
<path d="M88790 41021
L88790 41415
L88884 41415
L88940 41396
L88978 41359
L88996 41321
L89015 41246
L89015 41190
L88996 41115
L88978 41078
L88940 41040
L88884 41021
L88790 41021
" />
<path d="M89484 41171
L89784 41171
" />
<path d="M89634 41021
L89634 41321
" />
<g transform="rotate(-180 61000 43000)">
<text x="61000" y="43196.9"
transform="scale(-1 1) translate(-122000.000000 0)"
textLength="1123.08" font-size="524.934" lengthAdjust="spacingAndGlyphs"
text-anchor="middle" opacity="0">GND</text>
</g>
<path d="M60700 43196
L60662 43215
L60606 43215
L60550 43196
L60512 43159
L60493 43121
L60475 43046
L60475 42990
L60493 42915
L60512 42878
L60550 42840
L60606 42821
L60643 42821
L60700 42840
L60718 42859
L60718 42990
L60643 42990
" />
<path d="M60887 42821
L60887 43215
L61112 42821
L61112 43215
" />
<path d="M61299 42821
L61299 43215
L61393 43215
L61449 43196
L61487 43159
L61506 43121
L61524 43046
L61524 42990
L61506 42915
L61487 42878
L61449 42840
L61393 42821
L61299 42821
" />
<g transform="rotate(-180 61100 44400)">
<text x="61100" y="44596.9"
transform="scale(-1 1) translate(-122200.000000 0)"
textLength="935.602" font-size="524.934" lengthAdjust="spacingAndGlyphs"
text-anchor="middle" opacity="0">Vcc</text>
</g>
<path d="M60631 44615
L60762 44221
L60893 44615
" />
<path d="M61193 44240
L61156 44221
L61081 44221
L61043 44240
L61025 44259
L61006 44296
L61006 44409
L61025 44446
L61043 44465
L61081 44484
L61156 44484
L61193 44465
" />
<path d="M61531 44240
L61493 44221
L61418 44221
L61381 44240
L61362 44259
L61343 44296
L61343 44409
L61362 44446
L61381 44465
L61418 44484
L61493 44484
L61531 44465
" />
<g transform="rotate(-180 61400 53500)">
<text x="61400" y="53696.9"
transform="scale(-1 1) translate(-122800.000000 0)"
textLength="673.135" font-size="524.934" lengthAdjust="spacingAndGlyphs"
text-anchor="middle" opacity="0">S1</text>
</g>
<path d="M61100 53340
L61156 53321
L61250 53321
L61287 53340
L61306 53359
L61325 53396
L61325 53434
L61306 53471
L61287 53490
L61250 53509
L61175 53528
L61137 53546
L61118 53565
L61100 53603
L61100 53640
L61118 53678
L61137 53696
L61175 53715
L61268 53715
L61325 53696
" />
<path d="M61699 53321
L61474 53321
" />
<path d="M61587 53321
L61587 53715
L61549 53659
L61512 53621
L61474 53603
" />
<g transform="rotate(-180 61300 54500)">
<text x="61300" y="54696.9"
transform="scale(-1 1) translate(-122600.000000 0)"
textLength="1123.08" font-size="524.934" lengthAdjust="spacingAndGlyphs"
text-anchor="middle" opacity="0">GND</text>
</g>
<path d="M61000 54696
L60962 54715
L60906 54715
L60850 54696
L60812 54659
L60793 54621
L60775 54546
L60775 54490
L60793 54415
L60812 54378
L60850 54340
L60906 54321
L60943 54321
L61000 54340
L61018 54359
L61018 54490
L60943 54490
" />
<path d="M61187 54321
L61187 54715
L61412 54321
L61412 54715
" />
<path d="M61599 54321
L61599 54715
L61693 54715
L61749 54696
L61787 54659
L61806 54621
L61824 54546
L61824 54490
L61806 54415
L61787 54378
L61749 54340
L61693 54321
L61599 54321
" />
<g transform="rotate(-180 61300 52500)">
<text x="61300" y="52696.9"
transform="scale(-1 1) translate(-122600.000000 0)"
textLength="935.602" font-size="524.934" lengthAdjust="spacingAndGlyphs"
text-anchor="middle" opacity="0">Vcc</text>
</g>
<path d="M60831 52715
L60962 52321
L61093 52715
" />
<path d="M61393 52340
L61356 52321
L61281 52321
L61243 52340
L61225 52359
L61206 52396
L61206 52509
L61225 52546
L61243 52565
L61281 52584
L61356 52584
L61393 52565
" />
<path d="M61731 52340
L61693 52321
L61618 52321
L61581 52340
L61562 52359
L61543 52396
L61543 52509
L61562 52546
L61581 52565
L61618 52584
L61693 52584
L61731 52565
" />
<g transform="rotate(-180 60200 49200)">
<text x="60200" y="49396.9"
transform="scale(-1 1) translate(-120400.000000 0)"
textLength="935.602" font-size="524.934" lengthAdjust="spacingAndGlyphs"
text-anchor="middle" opacity="0">Vcc</text>
</g>
<path d="M59731 49415
L59862 49021
L59993 49415
" />
<path d="M60293 49040
L60256 49021
L60181 49021
L60143 49040
L60125 49059
L60106 49096
L60106 49209
L60125 49246
L60143 49265
L60181 49284
L60256 49284
L60293 49265
" />
<path d="M60631 49040
L60593 49021
L60518 49021
L60481 49040
L60462 49059
L60443 49096
L60443 49209
L60462 49246
L60481 49265
L60518 49284
L60593 49284
L60631 49265
" />
<g transform="rotate(-180 60200 48200)">
<text x="60200" y="48396.9"
transform="scale(-1 1) translate(-120400.000000 0)"
textLength="673.135" font-size="524.934" lengthAdjust="spacingAndGlyphs"
text-anchor="middle" opacity="0">S0</text>
</g>
<path d="M59900 48040
L59956 48021
L60050 48021
L60087 48040
L60106 48059
L60125 48096
L60125 48134
L60106 48171
L60087 48190
L60050 48209
L59975 48228
L59937 48246
L59918 48265
L59900 48303
L59900 48340
L59918 48378
L59937 48396
L59975 48415
L60068 48415
L60125 48396
" />
<path d="M60368 48415
L60406 48415
L60443 48396
L60462 48378
L60481 48340
L60499 48265
L60499 48171
L60481 48096
L60462 48059
L60443 48040
L60406 48021
L60368 48021
L60331 48040
L60312 48059
L60293 48096
L60274 48171
L60274 48265
L60293 48340
L60312 48378
L60331 48396
L60368 48415
" />
<g transform="rotate(-180 60200 47100)">
<text x="60200" y="47296.9"
transform="scale(-1 1) translate(-120400.000000 0)"
textLength="1123.08" font-size="524.934" lengthAdjust="spacingAndGlyphs"
text-anchor="middle" opacity="0">GND</text>
</g>
<path d="M59900 47296
L59862 47315
L59806 47315
L59750 47296
L59712 47259
L59693 47221
L59675 47146
L59675 47090
L59693 47015
L59712 46978
L59750 46940
L59806 46921
L59843 46921
L59900 46940
L59918 46959
L59918 47090
L59843 47090
" />
<path d="M60087 46921
L60087 47315
L60312 46921
L60312 47315
" />
<path d="M60499 46921
L60499 47315
L60593 47315
L60649 47296
L60687 47259
L60706 47221
L60724 47146
L60724 47090
L60706 47015
L60687 46978
L60649 46940
L60593 46921
L60499 46921
" />
</g>
<g style="fill:#000000; fill-opacity:0.0; 
stroke:#000000; stroke-width:47.2441; stroke-opacity:1; 
stroke-linecap:round; stroke-linejoin:round;">
<path d="M67718 51448
L67481 51448
" />
<path d="M67993 52275
L67993 51724
" />
<path d="M67481 52551
L67718 52551
" />
<path d="M67206 51724
L67206 52275
" />
<path d="M67481.9 51448.8 A275.591 275.591 0.0 0 0 67206.3 51724.4" />
<path d="M67993.7 51724.4 A275.591 275.591 0.0 0 0 67718.1 51448.8" />
<path d="M67718.1 52551.2 A275.591 275.591 0.0 0 0 67993.7 52275.6" />
<path d="M67206.3 52275.6 A275.591 275.591 0.0 0 0 67481.9 52551.2" />
<path d="M67481 54551
L67718 54551
" />
<path d="M67206 53724
L67206 54275
" />
<path d="M67718 53448
L67481 53448
" />
<path d="M67993 54275
L67993 53724
" />
<path d="M67718.1 54551.2 A275.591 275.591 0.0 0 0 67993.7 54275.6" />
<path d="M67206.3 54275.6 A275.591 275.591 0.0 0 0 67481.9 54551.2" />
<path d="M67481.9 53448.8 A275.591 275.591 0.0 0 0 67206.3 53724.4" />
<path d="M67993.7 53724.4 A275.591 275.591 0.0 0 0 67718.1 53448.8" />
<path d="M66018 51448
L65781 51448
" />
<path d="M66293 52275
L66293 51724
" />
<path d="M65781 52551
L66018 52551
" />
<path d="M65506 51724
L65506 52275
" />
<path d="M65781.9 51448.8 A275.591 275.591 0.0 0 0 65506.3 51724.4" />
<path d="M66293.7 51724.4 A275.591 275.591 0.0 0 0 66018.1 51448.8" />
<path d="M66018.1 52551.2 A275.591 275.591 0.0 0 0 66293.7 52275.6" />
<path d="M65506.3 52275.6 A275.591 275.591 0.0 0 0 65781.9 52551.2" />
<path d="M65781 54551
L66018 54551
" />
<path d="M65506 53724
L65506 54275
" />
<path d="M66018 53448
L65781 53448
" />
<path d="M66293 54275
L66293 53724
" />
<path d="M66018.1 54551.2 A275.591 275.591 0.0 0 0 66293.7 54275.6" />
<path d="M65506.3 54275.6 A275.591 275.591 0.0 0 0 65781.9 54551.2" />
<path d="M65781.9 53448.8 A275.591 275.591 0.0 0 0 65506.3 53724.4" />
<path d="M66293.7 53724.4 A275.591 275.591 0.0 0 0 66018.1 53448.8" />
<path d="M67718 46304
L67481 46304
" />
<path d="M67993 47131
L67993 46580
" />
<path d="M67481 47407
L67718 47407
" />
<path d="M67206 46580
L67206 47131
" />
<path d="M67481.9 46304.7 A275.591 275.591 0.0 0 0 67206.3 46580.3" />
<path d="M67993.7 46580.3 A275.591 275.591 0.0 0 0 67718.1 46304.7" />
<path d="M67718.1 47407.1 A275.591 275.591 0.0 0 0 67993.7 47131.5" />
<path d="M67206.3 47131.5 A275.591 275.591 0.0 0 0 67481.9 47407.1" />
<path d="M67481 49351
L67718 49351
" />
<path d="M67206 48524
L67206 49075
" />
<path d="M67718 48248
L67481 48248
" />
<path d="M67993 49075
L67993 48524
" />
<path d="M67718.1 49351.2 A275.591 275.591 0.0 0 0 67993.7 49075.6" />
<path d="M67206.3 49075.6 A275.591 275.591 0.0 0 0 67481.9 49351.2" />
<path d="M67481.9 48248.8 A275.591 275.591 0.0 0 0 67206.3 48524.4" />
<path d="M67993.7 48524.4 A275.591 275.591 0.0 0 0 67718.1 48248.8" />
<path d="M66018 46304
L65781 46304
" />
<path d="M66293 47131
L66293 46580
" />
<path d="M65781 47407
L66018 47407
" />
<path d="M65506 46580
L65506 47131
" />
<path d="M65781.9 46304.7 A275.591 275.591 0.0 0 0 65506.3 46580.3" />
<path d="M66293.7 46580.3 A275.591 275.591 0.0 0 0 66018.1 46304.7" />
<path d="M66018.1 47407.1 A275.591 275.591 0.0 0 0 66293.7 47131.5" />
<path d="M65506.3 47131.5 A275.591 275.591 0.0 0 0 65781.9 47407.1" />
<path d="M65781 49351
L66018 49351
" />
<path d="M65506 48524
L65506 49075
" />
<path d="M66018 48248
L65781 48248
" />
<path d="M66293 49075
L66293 48524
" />
<path d="M66018.1 49351.2 A275.591 275.591 0.0 0 0 66293.7 49075.6" />
<path d="M65506.3 49075.6 A275.591 275.591 0.0 0 0 65781.9 49351.2" />
<path d="M65781.9 48248.8 A275.591 275.591 0.0 0 0 65506.3 48524.4" />
<path d="M66293.7 48524.4 A275.591 275.591 0.0 0 0 66018.1 48248.8" />
</g>
<g style="fill:#000000; fill-opacity:0.0; 
stroke:#000000; stroke-width:59.0551; stroke-opacity:1; 
stroke-linecap:round; stroke-linejoin:round;">
<g transform="rotate(-90 68450 51950)">
<text x="68450" y="52146.9"
transform="scale(-1 1) translate(-136900.000000 0)"
textLength="1366.8" font-size="524.934" lengthAdjust="spacingAndGlyphs"
text-anchor="middle" opacity="0">JP54</text>
</g>
<path d="M68234 51434
L68515 51434
L68571 51415
L68609 51378
L68628 51321
L68628 51284
" />
<path d="M68628 51621
L68234 51621
L68234 51771
L68253 51809
L68271 51828
L68309 51846
L68365 51846
L68403 51828
L68421 51809
L68440 51771
L68440 51621
" />
<path d="M68234 52203
L68234 52015
L68421 51996
L68403 52015
L68384 52053
L68384 52146
L68403 52184
L68421 52203
L68459 52221
L68553 52221
L68590 52203
L68609 52184
L68628 52146
L68628 52053
L68609 52015
L68590 51996
" />
<path d="M68365 52559
L68628 52559
" />
<path d="M68215 52465
L68496 52371
L68496 52615
" />
<g transform="rotate(-90 68400 54000)">
<text x="68400" y="54196.9"
transform="scale(-1 1) translate(-136800.000000 0)"
textLength="1366.8" font-size="524.934" lengthAdjust="spacingAndGlyphs"
text-anchor="middle" opacity="0">JP53</text>
</g>
<path d="M68184 53484
L68465 53484
L68521 53465
L68559 53428
L68578 53371
L68578 53334
" />
<path d="M68578 53671
L68184 53671
L68184 53821
L68203 53859
L68221 53878
L68259 53896
L68315 53896
L68353 53878
L68371 53859
L68390 53821
L68390 53671
" />
<path d="M68184 54253
L68184 54065
L68371 54046
L68353 54065
L68334 54103
L68334 54196
L68353 54234
L68371 54253
L68409 54271
L68503 54271
L68540 54253
L68559 54234
L68578 54196
L68578 54103
L68559 54065
L68540 54046
" />
<path d="M68184 54403
L68184 54646
L68334 54515
L68334 54571
L68353 54609
L68371 54628
L68409 54646
L68503 54646
L68540 54628
L68559 54609
L68578 54571
L68578 54459
L68559 54421
L68540 54403
" />
<g transform="rotate(-90 65100 52000)">
<text x="65100" y="52196.9"
transform="scale(-1 1) translate(-130200.000000 0)"
textLength="1366.8" font-size="524.934" lengthAdjust="spacingAndGlyphs"
text-anchor="middle" opacity="0">JP52</text>
</g>
<path d="M64884 51484
L65165 51484
L65221 51465
L65259 51428
L65278 51371
L65278 51334
" />
<path d="M65278 51671
L64884 51671
L64884 51821
L64903 51859
L64921 51878
L64959 51896
L65015 51896
L65053 51878
L65071 51859
L65090 51821
L65090 51671
" />
<path d="M64884 52253
L64884 52065
L65071 52046
L65053 52065
L65034 52103
L65034 52196
L65053 52234
L65071 52253
L65109 52271
L65203 52271
L65240 52253
L65259 52234
L65278 52196
L65278 52103
L65259 52065
L65240 52046
" />
<path d="M64921 52421
L64903 52440
L64884 52478
L64884 52571
L64903 52609
L64921 52628
L64959 52646
L64996 52646
L65053 52628
L65278 52403
L65278 52646
" />
<g transform="rotate(-90 65000 54000)">
<text x="65000" y="54196.9"
transform="scale(-1 1) translate(-130000.000000 0)"
textLength="1366.8" font-size="524.934" lengthAdjust="spacingAndGlyphs"
text-anchor="middle" opacity="0">JP51</text>
</g>
<path d="M64784 53484
L65065 53484
L65121 53465
L65159 53428
L65178 53371
L65178 53334
" />
<path d="M65178 53671
L64784 53671
L64784 53821
L64803 53859
L64821 53878
L64859 53896
L64915 53896
L64953 53878
L64971 53859
L64990 53821
L64990 53671
" />
<path d="M64784 54253
L64784 54065
L64971 54046
L64953 54065
L64934 54103
L64934 54196
L64953 54234
L64971 54253
L65009 54271
L65103 54271
L65140 54253
L65159 54234
L65178 54196
L65178 54103
L65159 54065
L65140 54046
" />
<path d="M65178 54646
L65178 54421
" />
<path d="M65178 54534
L64784 54534
L64840 54496
L64878 54459
L64896 54421
" />
<g transform="rotate(-90 68400 46855.9)">
<text x="68400" y="47052.8"
transform="scale(-1 1) translate(-136800.000000 0)"
textLength="1366.8" font-size="524.934" lengthAdjust="spacingAndGlyphs"
text-anchor="middle" opacity="0">JP44</text>
</g>
<path d="M68184 46340
L68465 46340
L68521 46321
L68559 46284
L68578 46227
L68578 46190
" />
<path d="M68578 46527
L68184 46527
L68184 46677
L68203 46715
L68221 46734
L68259 46752
L68315 46752
L68353 46734
L68371 46715
L68390 46677
L68390 46527
" />
<path d="M68315 47090
L68578 47090
" />
<path d="M68165 46996
L68446 46902
L68446 47146
" />
<path d="M68315 47465
L68578 47465
" />
<path d="M68165 47371
L68446 47277
L68446 47521
" />
<g transform="rotate(-90 68400 48800)">
<text x="68400" y="48996.9"
transform="scale(-1 1) translate(-136800.000000 0)"
textLength="1366.8" font-size="524.934" lengthAdjust="spacingAndGlyphs"
text-anchor="middle" opacity="0">JP43</text>
</g>
<path d="M68184 48284
L68465 48284
L68521 48265
L68559 48228
L68578 48171
L68578 48134
" />
<path d="M68578 48471
L68184 48471
L68184 48621
L68203 48659
L68221 48678
L68259 48696
L68315 48696
L68353 48678
L68371 48659
L68390 48621
L68390 48471
" />
<path d="M68315 49034
L68578 49034
" />
<path d="M68165 48940
L68446 48846
L68446 49090
" />
<path d="M68184 49203
L68184 49446
L68334 49315
L68334 49371
L68353 49409
L68371 49428
L68409 49446
L68503 49446
L68540 49428
L68559 49409
L68578 49371
L68578 49259
L68559 49221
L68540 49203
" />
<g transform="rotate(-90 65000 46855.9)">
<text x="65000" y="47052.8"
transform="scale(-1 1) translate(-130000.000000 0)"
textLength="1366.8" font-size="524.934" lengthAdjust="spacingAndGlyphs"
text-anchor="middle" opacity="0">JP42</text>
</g>
<path d="M64784 46340
L65065 46340
L65121 46321
L65159 46284
L65178 46227
L65178 46190
" />
<path d="M65178 46527
L64784 46527
L64784 46677
L64803 46715
L64821 46734
L64859 46752
L64915 46752
L64953 46734
L64971 46715
L64990 46677
L64990 46527
" />
<path d="M64915 47090
L65178 47090
" />
<path d="M64765 46996
L65046 46902
L65046 47146
" />
<path d="M64821 47277
L64803 47296
L64784 47333
L64784 47427
L64803 47465
L64821 47483
L64859 47502
L64896 47502
L64953 47483
L65178 47258
L65178 47502
" />
<g transform="rotate(-90 65000 48800)">
<text x="65000" y="48996.9"
transform="scale(-1 1) translate(-130000.000000 0)"
textLength="1366.8" font-size="524.934" lengthAdjust="spacingAndGlyphs"
text-anchor="middle" opacity="0">JP41</text>
</g>
<path d="M64784 48284
L65065 48284
L65121 48265
L65159 48228
L65178 48171
L65178 48134
" />
<path d="M65178 48471
L64784 48471
L64784 48621
L64803 48659
L64821 48678
L64859 48696
L64915 48696
L64953 48678
L64971 48659
L64990 48621
L64990 48471
" />
<path d="M64915 49034
L65178 49034
" />
<path d="M64765 48940
L65046 48846
L65046 49090
" />
<path d="M65178 49446
L65178 49221
" />
<path d="M65178 49334
L64784 49334
L64840 49296
L64878 49259
L64896 49221
" />
<g >
</g>
</g> 
</svg>
