G04 #@! TF.GenerationSoftware,KiCad,Pcbnew,(5.1.4)-1*
G04 #@! TF.CreationDate,2020-10-31T11:52:51+01:00*
G04 #@! TF.ProjectId,BSPD_v_1_0b,42535044-5f76-45f3-915f-30622e6b6963,rev?*
G04 #@! TF.SameCoordinates,Original*
G04 #@! TF.FileFunction,Copper,L2,Bot*
G04 #@! TF.FilePolarity,Positive*
%FSLAX46Y46*%
G04 Gerber Fmt 4.6, Leading zero omitted, Abs format (unit mm)*
G04 Created by KiCad (PCBNEW (5.1.4)-1) date 2020-10-31 11:52:51*
%MOMM*%
%LPD*%
G04 APERTURE LIST*
%ADD10C,0.300000*%
%ADD11C,1.900000*%
%ADD12C,1.524000*%
%ADD13C,0.800000*%
%ADD14C,0.250000*%
%ADD15C,0.500000*%
%ADD16C,0.254000*%
G04 APERTURE END LIST*
D10*
X161722000Y-30142571D02*
X161722000Y-28642571D01*
X161222000Y-29714000D01*
X160722000Y-28642571D01*
X160722000Y-30142571D01*
X160079142Y-29714000D02*
X159364857Y-29714000D01*
X160222000Y-30142571D02*
X159722000Y-28642571D01*
X159222000Y-30142571D01*
X157864857Y-30142571D02*
X158364857Y-29428285D01*
X158722000Y-30142571D02*
X158722000Y-28642571D01*
X158150571Y-28642571D01*
X158007714Y-28714000D01*
X157936285Y-28785428D01*
X157864857Y-28928285D01*
X157864857Y-29142571D01*
X157936285Y-29285428D01*
X158007714Y-29356857D01*
X158150571Y-29428285D01*
X158722000Y-29428285D01*
X157436285Y-28642571D02*
X156579142Y-28642571D01*
X157007714Y-30142571D02*
X157007714Y-28642571D01*
X156079142Y-29571142D02*
X154936285Y-29571142D01*
X153722000Y-29356857D02*
X154222000Y-29356857D01*
X154222000Y-30142571D02*
X154222000Y-28642571D01*
X153507714Y-28642571D01*
X153007714Y-30071142D02*
X152793428Y-30142571D01*
X152436285Y-30142571D01*
X152293428Y-30071142D01*
X152222000Y-29999714D01*
X152150571Y-29856857D01*
X152150571Y-29714000D01*
X152222000Y-29571142D01*
X152293428Y-29499714D01*
X152436285Y-29428285D01*
X152722000Y-29356857D01*
X152864857Y-29285428D01*
X152936285Y-29214000D01*
X153007714Y-29071142D01*
X153007714Y-28928285D01*
X152936285Y-28785428D01*
X152864857Y-28714000D01*
X152722000Y-28642571D01*
X152364857Y-28642571D01*
X152150571Y-28714000D01*
X154564000Y-75726857D02*
X154564000Y-74526857D01*
X154164000Y-75384000D01*
X153764000Y-74526857D01*
X153764000Y-75726857D01*
X153249714Y-74641142D02*
X153192571Y-74584000D01*
X153078285Y-74526857D01*
X152792571Y-74526857D01*
X152678285Y-74584000D01*
X152621142Y-74641142D01*
X152564000Y-74755428D01*
X152564000Y-74869714D01*
X152621142Y-75041142D01*
X153306857Y-75726857D01*
X152564000Y-75726857D01*
X151421142Y-75726857D02*
X152106857Y-75726857D01*
X151764000Y-75726857D02*
X151764000Y-74526857D01*
X151878285Y-74698285D01*
X151992571Y-74812571D01*
X152106857Y-74869714D01*
X150906857Y-75269714D02*
X149992571Y-75269714D01*
X149421142Y-75098285D02*
X149021142Y-75098285D01*
X148849714Y-75726857D02*
X149421142Y-75726857D01*
X149421142Y-74526857D01*
X148849714Y-74526857D01*
X147764000Y-75726857D02*
X148335428Y-75726857D01*
X148335428Y-74526857D01*
X147364000Y-75269714D02*
X146449714Y-75269714D01*
X145878285Y-75726857D02*
X145878285Y-74526857D01*
X145421142Y-74526857D01*
X145306857Y-74584000D01*
X145249714Y-74641142D01*
X145192571Y-74755428D01*
X145192571Y-74926857D01*
X145249714Y-75041142D01*
X145306857Y-75098285D01*
X145421142Y-75155428D01*
X145878285Y-75155428D01*
X143992571Y-75612571D02*
X144049714Y-75669714D01*
X144221142Y-75726857D01*
X144335428Y-75726857D01*
X144506857Y-75669714D01*
X144621142Y-75555428D01*
X144678285Y-75441142D01*
X144735428Y-75212571D01*
X144735428Y-75041142D01*
X144678285Y-74812571D01*
X144621142Y-74698285D01*
X144506857Y-74584000D01*
X144335428Y-74526857D01*
X144221142Y-74526857D01*
X144049714Y-74584000D01*
X143992571Y-74641142D01*
X143478285Y-75726857D02*
X143478285Y-74526857D01*
X142792571Y-75726857D02*
X143306857Y-75041142D01*
X142792571Y-74526857D02*
X143478285Y-75212571D01*
X142278285Y-75269714D02*
X141364000Y-75269714D01*
X140849714Y-75669714D02*
X140678285Y-75726857D01*
X140392571Y-75726857D01*
X140278285Y-75669714D01*
X140221142Y-75612571D01*
X140164000Y-75498285D01*
X140164000Y-75384000D01*
X140221142Y-75269714D01*
X140278285Y-75212571D01*
X140392571Y-75155428D01*
X140621142Y-75098285D01*
X140735428Y-75041142D01*
X140792571Y-74984000D01*
X140849714Y-74869714D01*
X140849714Y-74755428D01*
X140792571Y-74641142D01*
X140735428Y-74584000D01*
X140621142Y-74526857D01*
X140335428Y-74526857D01*
X140164000Y-74584000D01*
X139421142Y-74526857D02*
X139306857Y-74526857D01*
X139192571Y-74584000D01*
X139135428Y-74641142D01*
X139078285Y-74755428D01*
X139021142Y-74984000D01*
X139021142Y-75269714D01*
X139078285Y-75498285D01*
X139135428Y-75612571D01*
X139192571Y-75669714D01*
X139306857Y-75726857D01*
X139421142Y-75726857D01*
X139535428Y-75669714D01*
X139592571Y-75612571D01*
X139649714Y-75498285D01*
X139706857Y-75269714D01*
X139706857Y-74984000D01*
X139649714Y-74755428D01*
X139592571Y-74641142D01*
X139535428Y-74584000D01*
X139421142Y-74526857D01*
X138564000Y-74641142D02*
X138506857Y-74584000D01*
X138392571Y-74526857D01*
X138106857Y-74526857D01*
X137992571Y-74584000D01*
X137935428Y-74641142D01*
X137878285Y-74755428D01*
X137878285Y-74869714D01*
X137935428Y-75041142D01*
X138621142Y-75726857D01*
X137878285Y-75726857D01*
X137364000Y-75269714D02*
X136449714Y-75269714D01*
X135878285Y-75726857D02*
X135878285Y-74526857D01*
X135421142Y-74526857D01*
X135306857Y-74584000D01*
X135249714Y-74641142D01*
X135192571Y-74755428D01*
X135192571Y-74926857D01*
X135249714Y-75041142D01*
X135306857Y-75098285D01*
X135421142Y-75155428D01*
X135878285Y-75155428D01*
X134449714Y-74526857D02*
X134335428Y-74526857D01*
X134221142Y-74584000D01*
X134164000Y-74641142D01*
X134106857Y-74755428D01*
X134049714Y-74984000D01*
X134049714Y-75269714D01*
X134106857Y-75498285D01*
X134164000Y-75612571D01*
X134221142Y-75669714D01*
X134335428Y-75726857D01*
X134449714Y-75726857D01*
X134564000Y-75669714D01*
X134621142Y-75612571D01*
X134678285Y-75498285D01*
X134735428Y-75269714D01*
X134735428Y-74984000D01*
X134678285Y-74755428D01*
X134621142Y-74641142D01*
X134564000Y-74584000D01*
X134449714Y-74526857D01*
X133649714Y-74526857D02*
X132906857Y-74526857D01*
X133306857Y-74984000D01*
X133135428Y-74984000D01*
X133021142Y-75041142D01*
X132964000Y-75098285D01*
X132906857Y-75212571D01*
X132906857Y-75498285D01*
X132964000Y-75612571D01*
X133021142Y-75669714D01*
X133135428Y-75726857D01*
X133478285Y-75726857D01*
X133592571Y-75669714D01*
X133649714Y-75612571D01*
D11*
X159639000Y-57785000D03*
X159639000Y-62865000D03*
X159639000Y-43180000D03*
X159639000Y-48260000D03*
X91948000Y-33655000D03*
X91948000Y-38735000D03*
X91948000Y-54483000D03*
X91948000Y-49403000D03*
X91948000Y-44323000D03*
X91948000Y-60071000D03*
X91948000Y-65151000D03*
X91948000Y-70231000D03*
X135636000Y-72136000D03*
X140636000Y-72136000D03*
D12*
X157036000Y-72136000D03*
X161036000Y-72136000D03*
D13*
X119634000Y-39878000D03*
X108966000Y-39878000D03*
X141986000Y-34544000D03*
X146558000Y-41910000D03*
X139700000Y-66040000D03*
X141732000Y-65278000D03*
X138684000Y-56642000D03*
X137414000Y-52832000D03*
X99314000Y-66040000D03*
X101854000Y-66802000D03*
X106059000Y-69850000D03*
X104902000Y-68580000D03*
X106934000Y-60706000D03*
X112776000Y-48006000D03*
X122682000Y-35560000D03*
X128524000Y-35814000D03*
X116078000Y-48768000D03*
X131572000Y-34798000D03*
X117348000Y-28956000D03*
X105410000Y-36576000D03*
X107197000Y-36585000D03*
X108195000Y-36585000D03*
X109211000Y-36585000D03*
X110227000Y-36585000D03*
X100584000Y-47244000D03*
X101600000Y-51308000D03*
X116840000Y-67564000D03*
X123952000Y-69088000D03*
X131171000Y-67671000D03*
X137842203Y-67956617D03*
X117856000Y-43180000D03*
X125476000Y-41656000D03*
X128016000Y-33528000D03*
X138396000Y-33308000D03*
X142748000Y-40132000D03*
X149352000Y-50292000D03*
X149860000Y-65024000D03*
X111760000Y-71628000D03*
X100901500Y-57150000D03*
X130048000Y-48260000D03*
X137160000Y-41656000D03*
X150368000Y-34544000D03*
X129032000Y-59436000D03*
X130810000Y-59944000D03*
X125476000Y-54610000D03*
X138139010Y-59932500D03*
X114554000Y-62738000D03*
X116586000Y-57150000D03*
X114300000Y-52070000D03*
X100330000Y-67818000D03*
X122936000Y-33020000D03*
X118872000Y-33528000D03*
X102997000Y-60960000D03*
X101028500Y-54102000D03*
X104902000Y-54102000D03*
X113453750Y-34142250D03*
X112660000Y-34936000D03*
X111802750Y-35793250D03*
X121920000Y-46736000D03*
X148082000Y-32512000D03*
X120396000Y-41656000D03*
X141732000Y-30226000D03*
X124095022Y-37108076D03*
X122645010Y-37084000D03*
X131572000Y-58420000D03*
X131572000Y-56896000D03*
X135640653Y-46731347D03*
X136081057Y-55310250D03*
X96647000Y-49530000D03*
X98933000Y-49530000D03*
X140716000Y-70612000D03*
X154774010Y-48260000D03*
X135636000Y-70104000D03*
X155956000Y-43180000D03*
X157480000Y-50292000D03*
X138811000Y-48006000D03*
X140335000Y-48006000D03*
X113157000Y-56007000D03*
X113030000Y-52070000D03*
X122174000Y-58166000D03*
X122174000Y-63246000D03*
X107823000Y-41910000D03*
X102525990Y-55372000D03*
X118237000Y-60706000D03*
X102879320Y-65728996D03*
X134112000Y-44196000D03*
X142494000Y-49022000D03*
X123698000Y-59436000D03*
X130048000Y-45466000D03*
X137414000Y-55372000D03*
X138176000Y-66040000D03*
X156591000Y-54483000D03*
X156972000Y-70104000D03*
X101092000Y-49276000D03*
X112776000Y-43688000D03*
X107315000Y-44704000D03*
X106045000Y-67564000D03*
X112612010Y-65404512D03*
X112612010Y-59690000D03*
X108331000Y-43434000D03*
X108490021Y-65220854D03*
X108040010Y-51433551D03*
X108143976Y-71219507D03*
X109093000Y-67691000D03*
X108331000Y-48514000D03*
X108940032Y-62474212D03*
X119634000Y-73660000D03*
X103653375Y-44820354D03*
X126492000Y-73660000D03*
X106299000Y-74422000D03*
X108040010Y-59488701D03*
X107151010Y-71101000D03*
X111887000Y-58420000D03*
X110324442Y-67720238D03*
D14*
X141986000Y-34544000D02*
X146558000Y-39116000D01*
X146558000Y-39116000D02*
X146558000Y-41910000D01*
X139700000Y-66040000D02*
X140970000Y-66040000D01*
X140970000Y-66040000D02*
X141732000Y-65278000D01*
X138139001Y-55023999D02*
X137160000Y-54044998D01*
X138684000Y-56642000D02*
X138139001Y-56097001D01*
X138139001Y-56097001D02*
X138139001Y-55023999D01*
X137160000Y-54044998D02*
X137160000Y-53086000D01*
X137160000Y-53086000D02*
X137414000Y-52832000D01*
X100076000Y-66802000D02*
X101854000Y-66802000D01*
X99314000Y-66040000D02*
X100076000Y-66802000D01*
X106059000Y-69850000D02*
X106059000Y-69737000D01*
X106059000Y-69737000D02*
X104902000Y-68580000D01*
X106934000Y-68975000D02*
X106059000Y-69850000D01*
X106934000Y-60706000D02*
X106934000Y-68975000D01*
X114300000Y-46482000D02*
X112776000Y-48006000D01*
X114300000Y-39878000D02*
X114300000Y-46482000D01*
X114300000Y-39878000D02*
X108966000Y-39878000D01*
X119634000Y-39878000D02*
X114300000Y-39878000D01*
X122682000Y-35560000D02*
X128270000Y-35560000D01*
X128270000Y-35560000D02*
X128524000Y-35814000D01*
X112776000Y-48006000D02*
X115316000Y-48006000D01*
X115316000Y-48006000D02*
X116078000Y-48768000D01*
X128524000Y-35814000D02*
X130556000Y-35814000D01*
X130556000Y-35814000D02*
X131572000Y-34798000D01*
D15*
X117602000Y-39878000D02*
X117602000Y-30226000D01*
X117602000Y-39878000D02*
X119634000Y-39878000D01*
X108966000Y-39878000D02*
X117602000Y-39878000D01*
X117602000Y-30226000D02*
X117348000Y-29972000D01*
X117348000Y-29972000D02*
X117348000Y-28956000D01*
D14*
X123444000Y-33528000D02*
X122936000Y-33020000D01*
X128016000Y-33528000D02*
X123444000Y-33528000D01*
X101092000Y-56330315D02*
X101028500Y-56266815D01*
X101092000Y-56896000D02*
X101092000Y-56330315D01*
X101028500Y-56266815D02*
X101028500Y-54102000D01*
X121920000Y-46736000D02*
X121920000Y-32004000D01*
X121920000Y-32004000D02*
X148082000Y-32004000D01*
X148082000Y-32004000D02*
X148082000Y-32512000D01*
X120396000Y-41656000D02*
X120396000Y-32258000D01*
X120396000Y-32258000D02*
X122428000Y-30226000D01*
X122428000Y-30226000D02*
X141732000Y-30226000D01*
X122645010Y-37084000D02*
X124070946Y-37084000D01*
X124070946Y-37084000D02*
X124095022Y-37108076D01*
X131572000Y-58420000D02*
X131572000Y-56896000D01*
X135681058Y-54910251D02*
X136081057Y-55310250D01*
X135640653Y-54869846D02*
X135681058Y-54910251D01*
X135640653Y-46731347D02*
X135640653Y-54869846D01*
D15*
X96647000Y-49530000D02*
X98933000Y-49530000D01*
X140716000Y-70612000D02*
X154774010Y-56553990D01*
X154774010Y-48825685D02*
X154774010Y-48260000D01*
X154774010Y-56553990D02*
X154774010Y-48825685D01*
X135636000Y-70104000D02*
X139700000Y-70104000D01*
X139700000Y-70104000D02*
X153924000Y-55880000D01*
X153924000Y-55880000D02*
X153924000Y-44196000D01*
X153924000Y-44196000D02*
X154940000Y-43180000D01*
X154940000Y-43180000D02*
X155956000Y-43180000D01*
D14*
X159639000Y-53467000D02*
X159639000Y-57785000D01*
X157480000Y-50292000D02*
X157480000Y-51308000D01*
X157480000Y-51308000D02*
X159639000Y-53467000D01*
X138811000Y-48006000D02*
X139376685Y-48006000D01*
X139376685Y-48006000D02*
X140335000Y-48006000D01*
X113157000Y-55441315D02*
X113030000Y-55314315D01*
X113157000Y-56007000D02*
X113157000Y-55441315D01*
X113030000Y-55314315D02*
X113030000Y-52070000D01*
X122174000Y-58731685D02*
X122174000Y-63246000D01*
X122174000Y-58166000D02*
X122174000Y-58731685D01*
X102925989Y-54972001D02*
X102525990Y-55372000D01*
X102925989Y-44522421D02*
X102925989Y-54972001D01*
X105538410Y-41910000D02*
X102925989Y-44522421D01*
X107823000Y-41910000D02*
X105538410Y-41910000D01*
X118237000Y-60706000D02*
X118237000Y-62199485D01*
X118237000Y-62199485D02*
X107792485Y-72644000D01*
X103279319Y-66128995D02*
X102879320Y-65728996D01*
X107792485Y-72644000D02*
X104521000Y-72644000D01*
X104521000Y-72644000D02*
X103279319Y-71402319D01*
X103279319Y-71402319D02*
X103279319Y-66128995D01*
X134511999Y-44595999D02*
X135527999Y-44595999D01*
X134112000Y-44196000D02*
X134511999Y-44595999D01*
X135527999Y-44595999D02*
X137668000Y-46736000D01*
X137668000Y-46736000D02*
X137668000Y-48768000D01*
X137668000Y-48768000D02*
X137922000Y-49022000D01*
X137922000Y-49022000D02*
X142494000Y-49022000D01*
X123698000Y-59436000D02*
X123698000Y-58870315D01*
X123698000Y-58870315D02*
X123698000Y-51308000D01*
X123698000Y-51308000D02*
X129540000Y-45466000D01*
X129540000Y-45466000D02*
X130048000Y-45466000D01*
X137414000Y-65278000D02*
X138176000Y-66040000D01*
X137414000Y-55372000D02*
X137414000Y-65278000D01*
X156591000Y-56388000D02*
X156591000Y-55822315D01*
X156591000Y-55822315D02*
X156591000Y-54483000D01*
D15*
X156591000Y-54483000D02*
X156591000Y-69977000D01*
X156591000Y-69977000D02*
X156718000Y-70104000D01*
X156718000Y-70104000D02*
X156972000Y-70104000D01*
D14*
X101092000Y-48710315D02*
X102362000Y-47440315D01*
X101092000Y-49276000D02*
X101092000Y-48710315D01*
X102362000Y-47440315D02*
X102362000Y-44450000D01*
X102362000Y-44450000D02*
X105664000Y-41148000D01*
X105664000Y-41148000D02*
X110744000Y-41148000D01*
X110744000Y-41148000D02*
X112776000Y-43180000D01*
X112776000Y-43180000D02*
X112776000Y-43688000D01*
X106045000Y-45974000D02*
X106045000Y-66998315D01*
X106045000Y-66998315D02*
X106045000Y-67564000D01*
X107315000Y-44704000D02*
X106045000Y-45974000D01*
X112612010Y-65404512D02*
X112612010Y-64838827D01*
X112612010Y-64838827D02*
X112612010Y-59690000D01*
X108331000Y-44634004D02*
X112304998Y-48608002D01*
X112612010Y-56662012D02*
X112612010Y-59124315D01*
X112612010Y-59124315D02*
X112612010Y-59690000D01*
X112304998Y-56355000D02*
X112612010Y-56662012D01*
X108331000Y-43434000D02*
X108331000Y-44634004D01*
X112304998Y-48608002D02*
X112304998Y-56355000D01*
X108215022Y-64380170D02*
X108490021Y-64655169D01*
X108040010Y-51433551D02*
X108765012Y-52158553D01*
X108490021Y-64655169D02*
X108490021Y-65220854D01*
X108215022Y-61840798D02*
X108215022Y-64380170D01*
X108765012Y-61290808D02*
X108215022Y-61840798D01*
X108765012Y-52158553D02*
X108765012Y-61290808D01*
X108490021Y-65220854D02*
X108490021Y-65786539D01*
X108225718Y-66050842D02*
X108225718Y-70572080D01*
X108490021Y-65786539D02*
X108225718Y-66050842D01*
X108143976Y-70653822D02*
X108143976Y-71219507D01*
X108225718Y-70572080D02*
X108143976Y-70653822D01*
X109340031Y-62074213D02*
X108940032Y-62474212D01*
X109340031Y-62874211D02*
X108940032Y-62474212D01*
X109492999Y-67291001D02*
X109492999Y-63027179D01*
X108331000Y-48514000D02*
X109340031Y-49523031D01*
X109340031Y-49523031D02*
X109340031Y-62074213D01*
X109492999Y-63027179D02*
X109340031Y-62874211D01*
X109093000Y-67691000D02*
X109492999Y-67291001D01*
X119634000Y-73660000D02*
X104900590Y-73660000D01*
X103653375Y-58722623D02*
X103653375Y-45386039D01*
X104900590Y-73660000D02*
X102579002Y-71338412D01*
X101763999Y-60611999D02*
X103653375Y-58722623D01*
X101763999Y-65638995D02*
X101763999Y-60611999D01*
X103653375Y-45386039D02*
X103653375Y-44820354D01*
X102579002Y-66453998D02*
X101763999Y-65638995D01*
X102579002Y-71338412D02*
X102579002Y-66453998D01*
X106698999Y-74821999D02*
X106299000Y-74422000D01*
X125330001Y-74821999D02*
X106698999Y-74821999D01*
X126492000Y-73660000D02*
X125330001Y-74821999D01*
X107765011Y-69921314D02*
X107151010Y-70535315D01*
X108040010Y-60054386D02*
X107765011Y-60329385D01*
X107151010Y-70535315D02*
X107151010Y-71101000D01*
X107765011Y-60329385D02*
X107765011Y-69921314D01*
X108040010Y-59488701D02*
X108040010Y-60054386D01*
X111887000Y-66157680D02*
X110724441Y-67320239D01*
X110724441Y-67320239D02*
X110324442Y-67720238D01*
X111887000Y-58420000D02*
X111887000Y-66157680D01*
D16*
G36*
X151079857Y-31494000D02*
G01*
X162864143Y-31494000D01*
X162864143Y-31239221D01*
X163175340Y-31368123D01*
X163608949Y-31454373D01*
X164051051Y-31454373D01*
X164484660Y-31368123D01*
X164893109Y-31198938D01*
X165254722Y-30957317D01*
X165256829Y-40284977D01*
X157930061Y-40507000D01*
X157905370Y-40510190D01*
X157881776Y-40518135D01*
X157860185Y-40530531D01*
X157842755Y-40545510D01*
X157642847Y-40751568D01*
X157627347Y-40771050D01*
X157615945Y-40793182D01*
X157609079Y-40817113D01*
X157607000Y-40840000D01*
X157607000Y-49261985D01*
X157581939Y-49257000D01*
X157378061Y-49257000D01*
X157178102Y-49296774D01*
X156989744Y-49374795D01*
X156820226Y-49488063D01*
X156676063Y-49632226D01*
X156562795Y-49801744D01*
X156484774Y-49990102D01*
X156445000Y-50190061D01*
X156445000Y-50393939D01*
X156484774Y-50593898D01*
X156562795Y-50782256D01*
X156676063Y-50951774D01*
X156720001Y-50995712D01*
X156720001Y-51270667D01*
X156716324Y-51308000D01*
X156720001Y-51345333D01*
X156726393Y-51410226D01*
X156730998Y-51456985D01*
X156774454Y-51600246D01*
X156845026Y-51732276D01*
X156916201Y-51819002D01*
X156940000Y-51848001D01*
X156968998Y-51871799D01*
X158879000Y-53781802D01*
X158879001Y-56386552D01*
X158628621Y-56553850D01*
X158407850Y-56774621D01*
X158234391Y-57034221D01*
X158114911Y-57322673D01*
X158054000Y-57628891D01*
X158054000Y-57941109D01*
X158114911Y-58247327D01*
X158234391Y-58535779D01*
X158407850Y-58795379D01*
X158628621Y-59016150D01*
X158888221Y-59189609D01*
X159176673Y-59309089D01*
X159482891Y-59370000D01*
X159795109Y-59370000D01*
X160101327Y-59309089D01*
X160389779Y-59189609D01*
X160649379Y-59016150D01*
X160870150Y-58795379D01*
X161043609Y-58535779D01*
X161163089Y-58247327D01*
X161224000Y-57941109D01*
X161224000Y-57628891D01*
X161163089Y-57322673D01*
X161043609Y-57034221D01*
X160870150Y-56774621D01*
X160649379Y-56553850D01*
X160399000Y-56386552D01*
X160399000Y-53504322D01*
X160402676Y-53466999D01*
X160399000Y-53429676D01*
X160399000Y-53429667D01*
X160388003Y-53318014D01*
X160344546Y-53174753D01*
X160273975Y-53042725D01*
X160273974Y-53042723D01*
X160202799Y-52955997D01*
X160179001Y-52926999D01*
X160150004Y-52903202D01*
X158241256Y-50994455D01*
X158283937Y-50951774D01*
X158300490Y-50927000D01*
X165259234Y-50927000D01*
X165264330Y-73485856D01*
X165070239Y-73291765D01*
X164751581Y-73078844D01*
X164397507Y-72932182D01*
X164021624Y-72857414D01*
X163638376Y-72857414D01*
X163262493Y-72932182D01*
X162908419Y-73078844D01*
X162589761Y-73291765D01*
X162318765Y-73562761D01*
X162105844Y-73881419D01*
X161959182Y-74235493D01*
X161884414Y-74611376D01*
X161884414Y-74994624D01*
X161959182Y-75370507D01*
X162105844Y-75724581D01*
X162318765Y-76043239D01*
X162502526Y-76227000D01*
X155634715Y-76227000D01*
X155634715Y-73610000D01*
X141219253Y-73610000D01*
X141386779Y-73540609D01*
X141646379Y-73367150D01*
X141867150Y-73146379D01*
X142040609Y-72886779D01*
X142160089Y-72598327D01*
X142221000Y-72292109D01*
X142221000Y-71979891D01*
X142160089Y-71673673D01*
X142040609Y-71385221D01*
X141867150Y-71125621D01*
X141694883Y-70953354D01*
X141711226Y-70913898D01*
X141722535Y-70857043D01*
X155369061Y-57210518D01*
X155402827Y-57182807D01*
X155444314Y-57132256D01*
X155513420Y-57048050D01*
X155513421Y-57048049D01*
X155595599Y-56894303D01*
X155646205Y-56727480D01*
X155659010Y-56597467D01*
X155659010Y-56597457D01*
X155663291Y-56553991D01*
X155659010Y-56510525D01*
X155659010Y-54937562D01*
X155673795Y-54973256D01*
X155706000Y-55021454D01*
X155706001Y-69933521D01*
X155701719Y-69977000D01*
X155718805Y-70150490D01*
X155769412Y-70317313D01*
X155851590Y-70471059D01*
X155934468Y-70572046D01*
X155934471Y-70572049D01*
X155962184Y-70605817D01*
X155995952Y-70633530D01*
X156061466Y-70699044D01*
X156089183Y-70732817D01*
X156223941Y-70843411D01*
X156274981Y-70870692D01*
X156312226Y-70907937D01*
X156335810Y-70923695D01*
X156145465Y-71050880D01*
X155950880Y-71245465D01*
X155797995Y-71474273D01*
X155692686Y-71728510D01*
X155639000Y-71998408D01*
X155639000Y-72273592D01*
X155692686Y-72543490D01*
X155797995Y-72797727D01*
X155950880Y-73026535D01*
X156145465Y-73221120D01*
X156374273Y-73374005D01*
X156628510Y-73479314D01*
X156898408Y-73533000D01*
X157173592Y-73533000D01*
X157443490Y-73479314D01*
X157697727Y-73374005D01*
X157926535Y-73221120D01*
X158121120Y-73026535D01*
X158274005Y-72797727D01*
X158379314Y-72543490D01*
X158433000Y-72273592D01*
X158433000Y-71998408D01*
X159639000Y-71998408D01*
X159639000Y-72273592D01*
X159692686Y-72543490D01*
X159797995Y-72797727D01*
X159950880Y-73026535D01*
X160145465Y-73221120D01*
X160374273Y-73374005D01*
X160628510Y-73479314D01*
X160898408Y-73533000D01*
X161173592Y-73533000D01*
X161443490Y-73479314D01*
X161697727Y-73374005D01*
X161926535Y-73221120D01*
X162121120Y-73026535D01*
X162274005Y-72797727D01*
X162379314Y-72543490D01*
X162433000Y-72273592D01*
X162433000Y-71998408D01*
X162379314Y-71728510D01*
X162274005Y-71474273D01*
X162121120Y-71245465D01*
X161926535Y-71050880D01*
X161697727Y-70897995D01*
X161443490Y-70792686D01*
X161173592Y-70739000D01*
X160898408Y-70739000D01*
X160628510Y-70792686D01*
X160374273Y-70897995D01*
X160145465Y-71050880D01*
X159950880Y-71245465D01*
X159797995Y-71474273D01*
X159692686Y-71728510D01*
X159639000Y-71998408D01*
X158433000Y-71998408D01*
X158379314Y-71728510D01*
X158274005Y-71474273D01*
X158121120Y-71245465D01*
X157926535Y-71050880D01*
X157697727Y-70897995D01*
X157658121Y-70881590D01*
X157775937Y-70763774D01*
X157889205Y-70594256D01*
X157967226Y-70405898D01*
X158007000Y-70205939D01*
X158007000Y-70002061D01*
X157967226Y-69802102D01*
X157889205Y-69613744D01*
X157775937Y-69444226D01*
X157631774Y-69300063D01*
X157476000Y-69195978D01*
X157476000Y-62708891D01*
X158054000Y-62708891D01*
X158054000Y-63021109D01*
X158114911Y-63327327D01*
X158234391Y-63615779D01*
X158407850Y-63875379D01*
X158628621Y-64096150D01*
X158888221Y-64269609D01*
X159176673Y-64389089D01*
X159482891Y-64450000D01*
X159795109Y-64450000D01*
X160101327Y-64389089D01*
X160389779Y-64269609D01*
X160649379Y-64096150D01*
X160870150Y-63875379D01*
X161043609Y-63615779D01*
X161163089Y-63327327D01*
X161224000Y-63021109D01*
X161224000Y-62708891D01*
X161163089Y-62402673D01*
X161043609Y-62114221D01*
X160870150Y-61854621D01*
X160649379Y-61633850D01*
X160389779Y-61460391D01*
X160101327Y-61340911D01*
X159795109Y-61280000D01*
X159482891Y-61280000D01*
X159176673Y-61340911D01*
X158888221Y-61460391D01*
X158628621Y-61633850D01*
X158407850Y-61854621D01*
X158234391Y-62114221D01*
X158114911Y-62402673D01*
X158054000Y-62708891D01*
X157476000Y-62708891D01*
X157476000Y-55021454D01*
X157508205Y-54973256D01*
X157586226Y-54784898D01*
X157626000Y-54584939D01*
X157626000Y-54381061D01*
X157586226Y-54181102D01*
X157508205Y-53992744D01*
X157394937Y-53823226D01*
X157250774Y-53679063D01*
X157081256Y-53565795D01*
X156892898Y-53487774D01*
X156692939Y-53448000D01*
X156489061Y-53448000D01*
X156289102Y-53487774D01*
X156100744Y-53565795D01*
X155931226Y-53679063D01*
X155787063Y-53823226D01*
X155673795Y-53992744D01*
X155659010Y-54028438D01*
X155659010Y-48798454D01*
X155691215Y-48750256D01*
X155769236Y-48561898D01*
X155809010Y-48361939D01*
X155809010Y-48158061D01*
X155769236Y-47958102D01*
X155691215Y-47769744D01*
X155577947Y-47600226D01*
X155433784Y-47456063D01*
X155264266Y-47342795D01*
X155075908Y-47264774D01*
X154875949Y-47225000D01*
X154809000Y-47225000D01*
X154809000Y-44562578D01*
X155306579Y-44065000D01*
X155417546Y-44065000D01*
X155465744Y-44097205D01*
X155654102Y-44175226D01*
X155854061Y-44215000D01*
X156057939Y-44215000D01*
X156257898Y-44175226D01*
X156446256Y-44097205D01*
X156615774Y-43983937D01*
X156759937Y-43839774D01*
X156873205Y-43670256D01*
X156951226Y-43481898D01*
X156991000Y-43281939D01*
X156991000Y-43078061D01*
X156951226Y-42878102D01*
X156873205Y-42689744D01*
X156759937Y-42520226D01*
X156615774Y-42376063D01*
X156446256Y-42262795D01*
X156257898Y-42184774D01*
X156057939Y-42145000D01*
X155854061Y-42145000D01*
X155654102Y-42184774D01*
X155465744Y-42262795D01*
X155417546Y-42295000D01*
X154983469Y-42295000D01*
X154940000Y-42290719D01*
X154896531Y-42295000D01*
X154896523Y-42295000D01*
X154781306Y-42306348D01*
X154766509Y-42307805D01*
X154740240Y-42315774D01*
X154599687Y-42358411D01*
X154445941Y-42440589D01*
X154445939Y-42440590D01*
X154445940Y-42440590D01*
X154344953Y-42523468D01*
X154344951Y-42523470D01*
X154311183Y-42551183D01*
X154283470Y-42584951D01*
X153328951Y-43539471D01*
X153295184Y-43567183D01*
X153267471Y-43600951D01*
X153267468Y-43600954D01*
X153184590Y-43701941D01*
X153102412Y-43855687D01*
X153051805Y-44022510D01*
X153034719Y-44196000D01*
X153039001Y-44239479D01*
X153039000Y-55513421D01*
X139333422Y-69219000D01*
X136174454Y-69219000D01*
X136126256Y-69186795D01*
X135937898Y-69108774D01*
X135737939Y-69069000D01*
X135534061Y-69069000D01*
X135334102Y-69108774D01*
X135145744Y-69186795D01*
X134976226Y-69300063D01*
X134832063Y-69444226D01*
X134718795Y-69613744D01*
X134640774Y-69802102D01*
X134601000Y-70002061D01*
X134601000Y-70205939D01*
X134640774Y-70405898D01*
X134718795Y-70594256D01*
X134832063Y-70763774D01*
X134833943Y-70765654D01*
X134625621Y-70904850D01*
X134404850Y-71125621D01*
X134231391Y-71385221D01*
X134111911Y-71673673D01*
X134051000Y-71979891D01*
X134051000Y-72292109D01*
X134111911Y-72598327D01*
X134231391Y-72886779D01*
X134404850Y-73146379D01*
X134625621Y-73367150D01*
X134885221Y-73540609D01*
X135052747Y-73610000D01*
X131893286Y-73610000D01*
X131893286Y-76227000D01*
X89465474Y-76227000D01*
X89649235Y-76043239D01*
X89862156Y-75724581D01*
X90008818Y-75370507D01*
X90083586Y-74994624D01*
X90083586Y-74611376D01*
X90008818Y-74235493D01*
X89862156Y-73881419D01*
X89649235Y-73562761D01*
X89378239Y-73291765D01*
X89059581Y-73078844D01*
X88705507Y-72932182D01*
X88329624Y-72857414D01*
X87946376Y-72857414D01*
X87570493Y-72932182D01*
X87216419Y-73078844D01*
X86897761Y-73291765D01*
X86735256Y-73454270D01*
X86735447Y-71330752D01*
X91027853Y-71330752D01*
X91117579Y-71590042D01*
X91398671Y-71725935D01*
X91700873Y-71804379D01*
X92012573Y-71822359D01*
X92321791Y-71779184D01*
X92616644Y-71676513D01*
X92778421Y-71590042D01*
X92868147Y-71330752D01*
X91948000Y-70410605D01*
X91027853Y-71330752D01*
X86735447Y-71330752D01*
X86735541Y-70295573D01*
X90356641Y-70295573D01*
X90399816Y-70604791D01*
X90502487Y-70899644D01*
X90588958Y-71061421D01*
X90848248Y-71151147D01*
X91768395Y-70231000D01*
X92127605Y-70231000D01*
X93047752Y-71151147D01*
X93307042Y-71061421D01*
X93442935Y-70780329D01*
X93521379Y-70478127D01*
X93539359Y-70166427D01*
X93496184Y-69857209D01*
X93393513Y-69562356D01*
X93307042Y-69400579D01*
X93047752Y-69310853D01*
X92127605Y-70231000D01*
X91768395Y-70231000D01*
X90848248Y-69310853D01*
X90588958Y-69400579D01*
X90453065Y-69681671D01*
X90374621Y-69983873D01*
X90356641Y-70295573D01*
X86735541Y-70295573D01*
X86735645Y-69131248D01*
X91027853Y-69131248D01*
X91948000Y-70051395D01*
X92868147Y-69131248D01*
X92778421Y-68871958D01*
X92497329Y-68736065D01*
X92195127Y-68657621D01*
X91883427Y-68639641D01*
X91574209Y-68682816D01*
X91279356Y-68785487D01*
X91117579Y-68871958D01*
X91027853Y-69131248D01*
X86735645Y-69131248D01*
X86736019Y-64994891D01*
X90363000Y-64994891D01*
X90363000Y-65307109D01*
X90423911Y-65613327D01*
X90543391Y-65901779D01*
X90716850Y-66161379D01*
X90937621Y-66382150D01*
X91197221Y-66555609D01*
X91485673Y-66675089D01*
X91791891Y-66736000D01*
X92104109Y-66736000D01*
X92410327Y-66675089D01*
X92698779Y-66555609D01*
X92958379Y-66382150D01*
X93179150Y-66161379D01*
X93328366Y-65938061D01*
X98279000Y-65938061D01*
X98279000Y-66141939D01*
X98318774Y-66341898D01*
X98396795Y-66530256D01*
X98510063Y-66699774D01*
X98654226Y-66843937D01*
X98823744Y-66957205D01*
X99012102Y-67035226D01*
X99212061Y-67075000D01*
X99274198Y-67075000D01*
X99512201Y-67313002D01*
X99535999Y-67342001D01*
X99651724Y-67436974D01*
X99783753Y-67507546D01*
X99927014Y-67551003D01*
X100038667Y-67562000D01*
X100038675Y-67562000D01*
X100076000Y-67565676D01*
X100113325Y-67562000D01*
X101150289Y-67562000D01*
X101194226Y-67605937D01*
X101363744Y-67719205D01*
X101552102Y-67797226D01*
X101752061Y-67837000D01*
X101819003Y-67837000D01*
X101819002Y-71301089D01*
X101815326Y-71338412D01*
X101819002Y-71375734D01*
X101819002Y-71375744D01*
X101829999Y-71487397D01*
X101861504Y-71591256D01*
X101873456Y-71630658D01*
X101944028Y-71762688D01*
X101978243Y-71804379D01*
X102039001Y-71878413D01*
X102068005Y-71902216D01*
X104336791Y-74171003D01*
X104360589Y-74200001D01*
X104476314Y-74294974D01*
X104608343Y-74365546D01*
X104751604Y-74409003D01*
X104863257Y-74420000D01*
X104863266Y-74420000D01*
X104900589Y-74423676D01*
X104937912Y-74420000D01*
X105264000Y-74420000D01*
X105264000Y-74523939D01*
X105303774Y-74723898D01*
X105381795Y-74912256D01*
X105495063Y-75081774D01*
X105639226Y-75225937D01*
X105808744Y-75339205D01*
X105997102Y-75417226D01*
X106197061Y-75457000D01*
X106274774Y-75457000D01*
X106406752Y-75527545D01*
X106550013Y-75571002D01*
X106661666Y-75581999D01*
X106661676Y-75581999D01*
X106698998Y-75585675D01*
X106736321Y-75581999D01*
X125292679Y-75581999D01*
X125330001Y-75585675D01*
X125367323Y-75581999D01*
X125367334Y-75581999D01*
X125478987Y-75571002D01*
X125622248Y-75527545D01*
X125754277Y-75456973D01*
X125870002Y-75362000D01*
X125893805Y-75332996D01*
X126531802Y-74695000D01*
X126593939Y-74695000D01*
X126793898Y-74655226D01*
X126982256Y-74577205D01*
X127151774Y-74463937D01*
X127295937Y-74319774D01*
X127409205Y-74150256D01*
X127487226Y-73961898D01*
X127527000Y-73761939D01*
X127527000Y-73558061D01*
X127487226Y-73358102D01*
X127409205Y-73169744D01*
X127295937Y-73000226D01*
X127151774Y-72856063D01*
X126982256Y-72742795D01*
X126793898Y-72664774D01*
X126593939Y-72625000D01*
X126390061Y-72625000D01*
X126190102Y-72664774D01*
X126001744Y-72742795D01*
X125832226Y-72856063D01*
X125688063Y-73000226D01*
X125574795Y-73169744D01*
X125496774Y-73358102D01*
X125457000Y-73558061D01*
X125457000Y-73620198D01*
X125015200Y-74061999D01*
X120587763Y-74061999D01*
X120629226Y-73961898D01*
X120669000Y-73761939D01*
X120669000Y-73558061D01*
X120629226Y-73358102D01*
X120551205Y-73169744D01*
X120437937Y-73000226D01*
X120293774Y-72856063D01*
X120124256Y-72742795D01*
X119935898Y-72664774D01*
X119735939Y-72625000D01*
X119532061Y-72625000D01*
X119332102Y-72664774D01*
X119143744Y-72742795D01*
X118974226Y-72856063D01*
X118930289Y-72900000D01*
X108611286Y-72900000D01*
X118748003Y-62763284D01*
X118777001Y-62739486D01*
X118871974Y-62623761D01*
X118942546Y-62491732D01*
X118986003Y-62348471D01*
X118997000Y-62236818D01*
X118997000Y-62236810D01*
X119000676Y-62199485D01*
X118997000Y-62162160D01*
X118997000Y-61409711D01*
X119040937Y-61365774D01*
X119154205Y-61196256D01*
X119232226Y-61007898D01*
X119272000Y-60807939D01*
X119272000Y-60604061D01*
X119232226Y-60404102D01*
X119154205Y-60215744D01*
X119040937Y-60046226D01*
X118896774Y-59902063D01*
X118727256Y-59788795D01*
X118538898Y-59710774D01*
X118338939Y-59671000D01*
X118135061Y-59671000D01*
X117935102Y-59710774D01*
X117746744Y-59788795D01*
X117577226Y-59902063D01*
X117433063Y-60046226D01*
X117319795Y-60215744D01*
X117241774Y-60404102D01*
X117202000Y-60604061D01*
X117202000Y-60807939D01*
X117241774Y-61007898D01*
X117319795Y-61196256D01*
X117433063Y-61365774D01*
X117477000Y-61409711D01*
X117477001Y-61884682D01*
X113573268Y-65788415D01*
X113607236Y-65706410D01*
X113647010Y-65506451D01*
X113647010Y-65302573D01*
X113607236Y-65102614D01*
X113529215Y-64914256D01*
X113415947Y-64744738D01*
X113372010Y-64700801D01*
X113372010Y-60393711D01*
X113415947Y-60349774D01*
X113529215Y-60180256D01*
X113607236Y-59991898D01*
X113647010Y-59791939D01*
X113647010Y-59588061D01*
X113607236Y-59388102D01*
X113529215Y-59199744D01*
X113415947Y-59030226D01*
X113372010Y-58986289D01*
X113372010Y-58064061D01*
X121139000Y-58064061D01*
X121139000Y-58267939D01*
X121178774Y-58467898D01*
X121256795Y-58656256D01*
X121370063Y-58825774D01*
X121414000Y-58869711D01*
X121414001Y-62542288D01*
X121370063Y-62586226D01*
X121256795Y-62755744D01*
X121178774Y-62944102D01*
X121139000Y-63144061D01*
X121139000Y-63347939D01*
X121178774Y-63547898D01*
X121256795Y-63736256D01*
X121370063Y-63905774D01*
X121514226Y-64049937D01*
X121683744Y-64163205D01*
X121872102Y-64241226D01*
X122072061Y-64281000D01*
X122275939Y-64281000D01*
X122475898Y-64241226D01*
X122664256Y-64163205D01*
X122833774Y-64049937D01*
X122977937Y-63905774D01*
X123091205Y-63736256D01*
X123169226Y-63547898D01*
X123209000Y-63347939D01*
X123209000Y-63144061D01*
X123169226Y-62944102D01*
X123091205Y-62755744D01*
X122977937Y-62586226D01*
X122934000Y-62542289D01*
X122934000Y-60135711D01*
X123038226Y-60239937D01*
X123207744Y-60353205D01*
X123396102Y-60431226D01*
X123596061Y-60471000D01*
X123799939Y-60471000D01*
X123999898Y-60431226D01*
X124188256Y-60353205D01*
X124357774Y-60239937D01*
X124501937Y-60095774D01*
X124615205Y-59926256D01*
X124693226Y-59737898D01*
X124733000Y-59537939D01*
X124733000Y-59334061D01*
X124693226Y-59134102D01*
X124615205Y-58945744D01*
X124501937Y-58776226D01*
X124458000Y-58732289D01*
X124458000Y-56794061D01*
X130537000Y-56794061D01*
X130537000Y-56997939D01*
X130576774Y-57197898D01*
X130654795Y-57386256D01*
X130768063Y-57555774D01*
X130812001Y-57599712D01*
X130812000Y-57716289D01*
X130768063Y-57760226D01*
X130654795Y-57929744D01*
X130576774Y-58118102D01*
X130537000Y-58318061D01*
X130537000Y-58521939D01*
X130576774Y-58721898D01*
X130654795Y-58910256D01*
X130768063Y-59079774D01*
X130912226Y-59223937D01*
X131081744Y-59337205D01*
X131270102Y-59415226D01*
X131470061Y-59455000D01*
X131673939Y-59455000D01*
X131873898Y-59415226D01*
X132062256Y-59337205D01*
X132231774Y-59223937D01*
X132375937Y-59079774D01*
X132489205Y-58910256D01*
X132567226Y-58721898D01*
X132607000Y-58521939D01*
X132607000Y-58318061D01*
X132567226Y-58118102D01*
X132489205Y-57929744D01*
X132375937Y-57760226D01*
X132332000Y-57716289D01*
X132332000Y-57599711D01*
X132375937Y-57555774D01*
X132489205Y-57386256D01*
X132567226Y-57197898D01*
X132607000Y-56997939D01*
X132607000Y-56794061D01*
X132567226Y-56594102D01*
X132489205Y-56405744D01*
X132375937Y-56236226D01*
X132231774Y-56092063D01*
X132062256Y-55978795D01*
X131873898Y-55900774D01*
X131673939Y-55861000D01*
X131470061Y-55861000D01*
X131270102Y-55900774D01*
X131081744Y-55978795D01*
X130912226Y-56092063D01*
X130768063Y-56236226D01*
X130654795Y-56405744D01*
X130576774Y-56594102D01*
X130537000Y-56794061D01*
X124458000Y-56794061D01*
X124458000Y-51622801D01*
X129656635Y-46424167D01*
X129746102Y-46461226D01*
X129946061Y-46501000D01*
X130149939Y-46501000D01*
X130349898Y-46461226D01*
X130538256Y-46383205D01*
X130707774Y-46269937D01*
X130851937Y-46125774D01*
X130965205Y-45956256D01*
X131043226Y-45767898D01*
X131083000Y-45567939D01*
X131083000Y-45364061D01*
X131043226Y-45164102D01*
X130965205Y-44975744D01*
X130851937Y-44806226D01*
X130707774Y-44662063D01*
X130538256Y-44548795D01*
X130349898Y-44470774D01*
X130149939Y-44431000D01*
X129946061Y-44431000D01*
X129746102Y-44470774D01*
X129557744Y-44548795D01*
X129388226Y-44662063D01*
X129308158Y-44742131D01*
X129247753Y-44760454D01*
X129115724Y-44831026D01*
X128999999Y-44925999D01*
X128976201Y-44954997D01*
X123186998Y-50744201D01*
X123158000Y-50767999D01*
X123134202Y-50796997D01*
X123134201Y-50796998D01*
X123063026Y-50883724D01*
X122992454Y-51015754D01*
X122974551Y-51074774D01*
X122948998Y-51159014D01*
X122938001Y-51270667D01*
X122934324Y-51308000D01*
X122938001Y-51345332D01*
X122938000Y-57466289D01*
X122833774Y-57362063D01*
X122664256Y-57248795D01*
X122475898Y-57170774D01*
X122275939Y-57131000D01*
X122072061Y-57131000D01*
X121872102Y-57170774D01*
X121683744Y-57248795D01*
X121514226Y-57362063D01*
X121370063Y-57506226D01*
X121256795Y-57675744D01*
X121178774Y-57864102D01*
X121139000Y-58064061D01*
X113372010Y-58064061D01*
X113372010Y-57019509D01*
X113458898Y-57002226D01*
X113647256Y-56924205D01*
X113816774Y-56810937D01*
X113960937Y-56666774D01*
X114074205Y-56497256D01*
X114152226Y-56308898D01*
X114192000Y-56108939D01*
X114192000Y-55905061D01*
X114152226Y-55705102D01*
X114074205Y-55516744D01*
X113960937Y-55347226D01*
X113905987Y-55292276D01*
X113862546Y-55149068D01*
X113791974Y-55017039D01*
X113790000Y-55014634D01*
X113790000Y-52773711D01*
X113833937Y-52729774D01*
X113947205Y-52560256D01*
X114025226Y-52371898D01*
X114065000Y-52171939D01*
X114065000Y-51968061D01*
X114025226Y-51768102D01*
X113947205Y-51579744D01*
X113833937Y-51410226D01*
X113689774Y-51266063D01*
X113520256Y-51152795D01*
X113331898Y-51074774D01*
X113131939Y-51035000D01*
X113064998Y-51035000D01*
X113064998Y-49003792D01*
X113077898Y-49001226D01*
X113266256Y-48923205D01*
X113435774Y-48809937D01*
X113479711Y-48766000D01*
X115001199Y-48766000D01*
X115043000Y-48807801D01*
X115043000Y-48869939D01*
X115082774Y-49069898D01*
X115160795Y-49258256D01*
X115274063Y-49427774D01*
X115418226Y-49571937D01*
X115587744Y-49685205D01*
X115776102Y-49763226D01*
X115976061Y-49803000D01*
X116179939Y-49803000D01*
X116379898Y-49763226D01*
X116568256Y-49685205D01*
X116737774Y-49571937D01*
X116881937Y-49427774D01*
X116995205Y-49258256D01*
X117073226Y-49069898D01*
X117113000Y-48869939D01*
X117113000Y-48666061D01*
X117073226Y-48466102D01*
X116995205Y-48277744D01*
X116881937Y-48108226D01*
X116737774Y-47964063D01*
X116568256Y-47850795D01*
X116379898Y-47772774D01*
X116179939Y-47733000D01*
X116117801Y-47733000D01*
X115879803Y-47495002D01*
X115856001Y-47465999D01*
X115740276Y-47371026D01*
X115608247Y-47300454D01*
X115464986Y-47256997D01*
X115353333Y-47246000D01*
X115353322Y-47246000D01*
X115316000Y-47242324D01*
X115278678Y-47246000D01*
X114610803Y-47246000D01*
X114811008Y-47045795D01*
X114840001Y-47022001D01*
X114863795Y-46993008D01*
X114863799Y-46993004D01*
X114934973Y-46906277D01*
X114934974Y-46906276D01*
X115005546Y-46774247D01*
X115049003Y-46630986D01*
X115060000Y-46519333D01*
X115060000Y-46519324D01*
X115063676Y-46482001D01*
X115060000Y-46444678D01*
X115060000Y-40763000D01*
X117558523Y-40763000D01*
X117602000Y-40767282D01*
X117645476Y-40763000D01*
X119095546Y-40763000D01*
X119143744Y-40795205D01*
X119332102Y-40873226D01*
X119532061Y-40913000D01*
X119636000Y-40913000D01*
X119636000Y-40952289D01*
X119592063Y-40996226D01*
X119478795Y-41165744D01*
X119400774Y-41354102D01*
X119361000Y-41554061D01*
X119361000Y-41757939D01*
X119400774Y-41957898D01*
X119478795Y-42146256D01*
X119592063Y-42315774D01*
X119736226Y-42459937D01*
X119905744Y-42573205D01*
X120094102Y-42651226D01*
X120294061Y-42691000D01*
X120497939Y-42691000D01*
X120697898Y-42651226D01*
X120886256Y-42573205D01*
X121055774Y-42459937D01*
X121160000Y-42355711D01*
X121160000Y-46032289D01*
X121116063Y-46076226D01*
X121002795Y-46245744D01*
X120924774Y-46434102D01*
X120885000Y-46634061D01*
X120885000Y-46837939D01*
X120924774Y-47037898D01*
X121002795Y-47226256D01*
X121116063Y-47395774D01*
X121260226Y-47539937D01*
X121429744Y-47653205D01*
X121618102Y-47731226D01*
X121818061Y-47771000D01*
X122021939Y-47771000D01*
X122221898Y-47731226D01*
X122410256Y-47653205D01*
X122579774Y-47539937D01*
X122723937Y-47395774D01*
X122837205Y-47226256D01*
X122915226Y-47037898D01*
X122955000Y-46837939D01*
X122955000Y-46634061D01*
X122915226Y-46434102D01*
X122837205Y-46245744D01*
X122723937Y-46076226D01*
X122680000Y-46032289D01*
X122680000Y-44094061D01*
X133077000Y-44094061D01*
X133077000Y-44297939D01*
X133116774Y-44497898D01*
X133194795Y-44686256D01*
X133308063Y-44855774D01*
X133452226Y-44999937D01*
X133621744Y-45113205D01*
X133810102Y-45191226D01*
X134010061Y-45231000D01*
X134087774Y-45231000D01*
X134219752Y-45301545D01*
X134363013Y-45345002D01*
X134474666Y-45355999D01*
X134474676Y-45355999D01*
X134511998Y-45359675D01*
X134549321Y-45355999D01*
X135213198Y-45355999D01*
X135553545Y-45696347D01*
X135538714Y-45696347D01*
X135338755Y-45736121D01*
X135150397Y-45814142D01*
X134980879Y-45927410D01*
X134836716Y-46071573D01*
X134723448Y-46241091D01*
X134645427Y-46429449D01*
X134605653Y-46629408D01*
X134605653Y-46833286D01*
X134645427Y-47033245D01*
X134723448Y-47221603D01*
X134836716Y-47391121D01*
X134880653Y-47435058D01*
X134880654Y-54832514D01*
X134876977Y-54869846D01*
X134880654Y-54907179D01*
X134891475Y-55017039D01*
X134891651Y-55018831D01*
X134935107Y-55162092D01*
X135005679Y-55294122D01*
X135046057Y-55343322D01*
X135046057Y-55412189D01*
X135085831Y-55612148D01*
X135163852Y-55800506D01*
X135277120Y-55970024D01*
X135421283Y-56114187D01*
X135590801Y-56227455D01*
X135779159Y-56305476D01*
X135979118Y-56345250D01*
X136182996Y-56345250D01*
X136382955Y-56305476D01*
X136571313Y-56227455D01*
X136654000Y-56172205D01*
X136654001Y-65240668D01*
X136650324Y-65278000D01*
X136654001Y-65315333D01*
X136664998Y-65426986D01*
X136678180Y-65470442D01*
X136708454Y-65570246D01*
X136779026Y-65702276D01*
X136833175Y-65768256D01*
X136874000Y-65818001D01*
X136902998Y-65841799D01*
X137141000Y-66079801D01*
X137141000Y-66141939D01*
X137180774Y-66341898D01*
X137258795Y-66530256D01*
X137372063Y-66699774D01*
X137516226Y-66843937D01*
X137685744Y-66957205D01*
X137874102Y-67035226D01*
X138074061Y-67075000D01*
X138277939Y-67075000D01*
X138477898Y-67035226D01*
X138666256Y-66957205D01*
X138835774Y-66843937D01*
X138938000Y-66741711D01*
X139040226Y-66843937D01*
X139209744Y-66957205D01*
X139398102Y-67035226D01*
X139598061Y-67075000D01*
X139801939Y-67075000D01*
X140001898Y-67035226D01*
X140190256Y-66957205D01*
X140359774Y-66843937D01*
X140403711Y-66800000D01*
X140932678Y-66800000D01*
X140970000Y-66803676D01*
X141007322Y-66800000D01*
X141007333Y-66800000D01*
X141118986Y-66789003D01*
X141262247Y-66745546D01*
X141394276Y-66674974D01*
X141510001Y-66580001D01*
X141533803Y-66550998D01*
X141771801Y-66313000D01*
X141833939Y-66313000D01*
X142033898Y-66273226D01*
X142222256Y-66195205D01*
X142391774Y-66081937D01*
X142535937Y-65937774D01*
X142649205Y-65768256D01*
X142727226Y-65579898D01*
X142767000Y-65379939D01*
X142767000Y-65176061D01*
X142727226Y-64976102D01*
X142649205Y-64787744D01*
X142535937Y-64618226D01*
X142391774Y-64474063D01*
X142222256Y-64360795D01*
X142033898Y-64282774D01*
X141833939Y-64243000D01*
X141630061Y-64243000D01*
X141430102Y-64282774D01*
X141241744Y-64360795D01*
X141072226Y-64474063D01*
X140928063Y-64618226D01*
X140814795Y-64787744D01*
X140736774Y-64976102D01*
X140697000Y-65176061D01*
X140697000Y-65238199D01*
X140655199Y-65280000D01*
X140403711Y-65280000D01*
X140359774Y-65236063D01*
X140190256Y-65122795D01*
X140001898Y-65044774D01*
X139801939Y-65005000D01*
X139598061Y-65005000D01*
X139398102Y-65044774D01*
X139209744Y-65122795D01*
X139040226Y-65236063D01*
X138938000Y-65338289D01*
X138835774Y-65236063D01*
X138666256Y-65122795D01*
X138477898Y-65044774D01*
X138277939Y-65005000D01*
X138215801Y-65005000D01*
X138174000Y-64963199D01*
X138174000Y-57546013D01*
X138193744Y-57559205D01*
X138382102Y-57637226D01*
X138582061Y-57677000D01*
X138785939Y-57677000D01*
X138985898Y-57637226D01*
X139174256Y-57559205D01*
X139343774Y-57445937D01*
X139487937Y-57301774D01*
X139601205Y-57132256D01*
X139679226Y-56943898D01*
X139719000Y-56743939D01*
X139719000Y-56540061D01*
X139679226Y-56340102D01*
X139601205Y-56151744D01*
X139487937Y-55982226D01*
X139343774Y-55838063D01*
X139174256Y-55724795D01*
X138985898Y-55646774D01*
X138899001Y-55629489D01*
X138899001Y-55061321D01*
X138902677Y-55023998D01*
X138899001Y-54986675D01*
X138899001Y-54986666D01*
X138888004Y-54875013D01*
X138844547Y-54731752D01*
X138773975Y-54599723D01*
X138747992Y-54568063D01*
X138702800Y-54512995D01*
X138702796Y-54512991D01*
X138679002Y-54483998D01*
X138650009Y-54460204D01*
X137925089Y-53735285D01*
X138073774Y-53635937D01*
X138217937Y-53491774D01*
X138331205Y-53322256D01*
X138409226Y-53133898D01*
X138449000Y-52933939D01*
X138449000Y-52730061D01*
X138409226Y-52530102D01*
X138331205Y-52341744D01*
X138217937Y-52172226D01*
X138073774Y-52028063D01*
X137904256Y-51914795D01*
X137715898Y-51836774D01*
X137515939Y-51797000D01*
X137312061Y-51797000D01*
X137112102Y-51836774D01*
X136923744Y-51914795D01*
X136754226Y-52028063D01*
X136610063Y-52172226D01*
X136496795Y-52341744D01*
X136418774Y-52530102D01*
X136400653Y-52621203D01*
X136400653Y-47435058D01*
X136444590Y-47391121D01*
X136557858Y-47221603D01*
X136635879Y-47033245D01*
X136675653Y-46833286D01*
X136675653Y-46818456D01*
X136908000Y-47050803D01*
X136908001Y-48730668D01*
X136904324Y-48768000D01*
X136908001Y-48805333D01*
X136918998Y-48916986D01*
X136925456Y-48938276D01*
X136962454Y-49060246D01*
X137033026Y-49192276D01*
X137104201Y-49279002D01*
X137128000Y-49308001D01*
X137156998Y-49331799D01*
X137358196Y-49532997D01*
X137381999Y-49562001D01*
X137497724Y-49656974D01*
X137629753Y-49727546D01*
X137773014Y-49771003D01*
X137884667Y-49782000D01*
X137884676Y-49782000D01*
X137921999Y-49785676D01*
X137959322Y-49782000D01*
X141790289Y-49782000D01*
X141834226Y-49825937D01*
X142003744Y-49939205D01*
X142192102Y-50017226D01*
X142392061Y-50057000D01*
X142595939Y-50057000D01*
X142795898Y-50017226D01*
X142984256Y-49939205D01*
X143153774Y-49825937D01*
X143297937Y-49681774D01*
X143411205Y-49512256D01*
X143489226Y-49323898D01*
X143529000Y-49123939D01*
X143529000Y-48920061D01*
X143489226Y-48720102D01*
X143411205Y-48531744D01*
X143297937Y-48362226D01*
X143153774Y-48218063D01*
X142984256Y-48104795D01*
X142795898Y-48026774D01*
X142595939Y-47987000D01*
X142392061Y-47987000D01*
X142192102Y-48026774D01*
X142003744Y-48104795D01*
X141834226Y-48218063D01*
X141790289Y-48262000D01*
X141339356Y-48262000D01*
X141370000Y-48107939D01*
X141370000Y-47904061D01*
X141330226Y-47704102D01*
X141252205Y-47515744D01*
X141138937Y-47346226D01*
X140994774Y-47202063D01*
X140825256Y-47088795D01*
X140636898Y-47010774D01*
X140436939Y-46971000D01*
X140233061Y-46971000D01*
X140033102Y-47010774D01*
X139844744Y-47088795D01*
X139675226Y-47202063D01*
X139631289Y-47246000D01*
X139514711Y-47246000D01*
X139470774Y-47202063D01*
X139301256Y-47088795D01*
X139112898Y-47010774D01*
X138912939Y-46971000D01*
X138709061Y-46971000D01*
X138509102Y-47010774D01*
X138428000Y-47044368D01*
X138428000Y-46773322D01*
X138431676Y-46735999D01*
X138428000Y-46698676D01*
X138428000Y-46698667D01*
X138417003Y-46587014D01*
X138373546Y-46443753D01*
X138302974Y-46311724D01*
X138289811Y-46295685D01*
X138231799Y-46224996D01*
X138231795Y-46224992D01*
X138208001Y-46195999D01*
X138179009Y-46172206D01*
X136091803Y-44085001D01*
X136068000Y-44055998D01*
X135952275Y-43961025D01*
X135820246Y-43890453D01*
X135676985Y-43846996D01*
X135565332Y-43835999D01*
X135565321Y-43835999D01*
X135527999Y-43832323D01*
X135490677Y-43835999D01*
X135083159Y-43835999D01*
X135029205Y-43705744D01*
X134915937Y-43536226D01*
X134771774Y-43392063D01*
X134602256Y-43278795D01*
X134413898Y-43200774D01*
X134213939Y-43161000D01*
X134010061Y-43161000D01*
X133810102Y-43200774D01*
X133621744Y-43278795D01*
X133452226Y-43392063D01*
X133308063Y-43536226D01*
X133194795Y-43705744D01*
X133116774Y-43894102D01*
X133077000Y-44094061D01*
X122680000Y-44094061D01*
X122680000Y-38119000D01*
X122746949Y-38119000D01*
X122946908Y-38079226D01*
X123135266Y-38001205D01*
X123304784Y-37887937D01*
X123348721Y-37844000D01*
X123367235Y-37844000D01*
X123435248Y-37912013D01*
X123604766Y-38025281D01*
X123793124Y-38103302D01*
X123993083Y-38143076D01*
X124196961Y-38143076D01*
X124396920Y-38103302D01*
X124585278Y-38025281D01*
X124754796Y-37912013D01*
X124898959Y-37767850D01*
X125012227Y-37598332D01*
X125090248Y-37409974D01*
X125130022Y-37210015D01*
X125130022Y-37006137D01*
X125090248Y-36806178D01*
X125012227Y-36617820D01*
X124898959Y-36448302D01*
X124770657Y-36320000D01*
X127617315Y-36320000D01*
X127720063Y-36473774D01*
X127864226Y-36617937D01*
X128033744Y-36731205D01*
X128222102Y-36809226D01*
X128422061Y-36849000D01*
X128625939Y-36849000D01*
X128825898Y-36809226D01*
X129014256Y-36731205D01*
X129183774Y-36617937D01*
X129227711Y-36574000D01*
X130518678Y-36574000D01*
X130556000Y-36577676D01*
X130593322Y-36574000D01*
X130593333Y-36574000D01*
X130704986Y-36563003D01*
X130848247Y-36519546D01*
X130980276Y-36448974D01*
X131096001Y-36354001D01*
X131119804Y-36324998D01*
X131611802Y-35833000D01*
X131673939Y-35833000D01*
X131873898Y-35793226D01*
X132062256Y-35715205D01*
X132231774Y-35601937D01*
X132375937Y-35457774D01*
X132489205Y-35288256D01*
X132567226Y-35099898D01*
X132607000Y-34899939D01*
X132607000Y-34696061D01*
X132567226Y-34496102D01*
X132544842Y-34442061D01*
X140951000Y-34442061D01*
X140951000Y-34645939D01*
X140990774Y-34845898D01*
X141068795Y-35034256D01*
X141182063Y-35203774D01*
X141326226Y-35347937D01*
X141495744Y-35461205D01*
X141684102Y-35539226D01*
X141884061Y-35579000D01*
X141946199Y-35579000D01*
X145798000Y-39430803D01*
X145798001Y-41206288D01*
X145754063Y-41250226D01*
X145640795Y-41419744D01*
X145562774Y-41608102D01*
X145523000Y-41808061D01*
X145523000Y-42011939D01*
X145562774Y-42211898D01*
X145640795Y-42400256D01*
X145754063Y-42569774D01*
X145898226Y-42713937D01*
X146067744Y-42827205D01*
X146256102Y-42905226D01*
X146456061Y-42945000D01*
X146659939Y-42945000D01*
X146859898Y-42905226D01*
X147048256Y-42827205D01*
X147217774Y-42713937D01*
X147361937Y-42569774D01*
X147475205Y-42400256D01*
X147553226Y-42211898D01*
X147593000Y-42011939D01*
X147593000Y-41808061D01*
X147553226Y-41608102D01*
X147475205Y-41419744D01*
X147361937Y-41250226D01*
X147318000Y-41206289D01*
X147318000Y-39153322D01*
X147321676Y-39115999D01*
X147318000Y-39078676D01*
X147318000Y-39078667D01*
X147307003Y-38967014D01*
X147263546Y-38823753D01*
X147192974Y-38691724D01*
X147179811Y-38675685D01*
X147121799Y-38604996D01*
X147121795Y-38604992D01*
X147098001Y-38575999D01*
X147069009Y-38552206D01*
X143021000Y-34504199D01*
X143021000Y-34442061D01*
X142981226Y-34242102D01*
X142903205Y-34053744D01*
X142789937Y-33884226D01*
X142645774Y-33740063D01*
X142476256Y-33626795D01*
X142287898Y-33548774D01*
X142087939Y-33509000D01*
X141884061Y-33509000D01*
X141684102Y-33548774D01*
X141495744Y-33626795D01*
X141326226Y-33740063D01*
X141182063Y-33884226D01*
X141068795Y-34053744D01*
X140990774Y-34242102D01*
X140951000Y-34442061D01*
X132544842Y-34442061D01*
X132489205Y-34307744D01*
X132375937Y-34138226D01*
X132231774Y-33994063D01*
X132062256Y-33880795D01*
X131873898Y-33802774D01*
X131673939Y-33763000D01*
X131470061Y-33763000D01*
X131270102Y-33802774D01*
X131081744Y-33880795D01*
X130912226Y-33994063D01*
X130768063Y-34138226D01*
X130654795Y-34307744D01*
X130576774Y-34496102D01*
X130537000Y-34696061D01*
X130537000Y-34758198D01*
X130241199Y-35054000D01*
X129227711Y-35054000D01*
X129183774Y-35010063D01*
X129014256Y-34896795D01*
X128825898Y-34818774D01*
X128625939Y-34779000D01*
X128422061Y-34779000D01*
X128313455Y-34800603D01*
X128307333Y-34800000D01*
X128307322Y-34800000D01*
X128270000Y-34796324D01*
X128232678Y-34800000D01*
X123385711Y-34800000D01*
X123341774Y-34756063D01*
X123172256Y-34642795D01*
X122983898Y-34564774D01*
X122783939Y-34525000D01*
X122680000Y-34525000D01*
X122680000Y-32764000D01*
X147076849Y-32764000D01*
X147086774Y-32813898D01*
X147164795Y-33002256D01*
X147278063Y-33171774D01*
X147422226Y-33315937D01*
X147591744Y-33429205D01*
X147780102Y-33507226D01*
X147980061Y-33547000D01*
X148183939Y-33547000D01*
X148383898Y-33507226D01*
X148572256Y-33429205D01*
X148741774Y-33315937D01*
X148885937Y-33171774D01*
X148999205Y-33002256D01*
X149077226Y-32813898D01*
X149117000Y-32613939D01*
X149117000Y-32410061D01*
X149077226Y-32210102D01*
X148999205Y-32021744D01*
X148885937Y-31852226D01*
X148805869Y-31772158D01*
X148787546Y-31711753D01*
X148716974Y-31579724D01*
X148622001Y-31463999D01*
X148506276Y-31369026D01*
X148374247Y-31298454D01*
X148230986Y-31254997D01*
X148119333Y-31244000D01*
X148082000Y-31240323D01*
X148044667Y-31244000D01*
X141919404Y-31244000D01*
X142033898Y-31221226D01*
X142222256Y-31143205D01*
X142391774Y-31029937D01*
X142535937Y-30885774D01*
X142649205Y-30716256D01*
X142727226Y-30527898D01*
X142767000Y-30327939D01*
X142767000Y-30124061D01*
X142727226Y-29924102D01*
X142649205Y-29735744D01*
X142535937Y-29566226D01*
X142391774Y-29422063D01*
X142222256Y-29308795D01*
X142033898Y-29230774D01*
X141833939Y-29191000D01*
X141630061Y-29191000D01*
X141430102Y-29230774D01*
X141241744Y-29308795D01*
X141072226Y-29422063D01*
X141028289Y-29466000D01*
X122465323Y-29466000D01*
X122428000Y-29462324D01*
X122390677Y-29466000D01*
X122390667Y-29466000D01*
X122279014Y-29476997D01*
X122135753Y-29520454D01*
X122003723Y-29591026D01*
X121954178Y-29631687D01*
X121887999Y-29685999D01*
X121864201Y-29714997D01*
X119884998Y-31694201D01*
X119856000Y-31717999D01*
X119832202Y-31746997D01*
X119832201Y-31746998D01*
X119761026Y-31833724D01*
X119690454Y-31965754D01*
X119646998Y-32109015D01*
X119632324Y-32258000D01*
X119636001Y-32295332D01*
X119636000Y-38843000D01*
X119532061Y-38843000D01*
X119332102Y-38882774D01*
X119143744Y-38960795D01*
X119095546Y-38993000D01*
X118487000Y-38993000D01*
X118487000Y-30269465D01*
X118491281Y-30225999D01*
X118487000Y-30182533D01*
X118487000Y-30182523D01*
X118474195Y-30052510D01*
X118423589Y-29885687D01*
X118341411Y-29731941D01*
X118233000Y-29599843D01*
X118233000Y-29494454D01*
X118265205Y-29446256D01*
X118343226Y-29257898D01*
X118383000Y-29057939D01*
X118383000Y-28854061D01*
X118343226Y-28654102D01*
X118265205Y-28465744D01*
X118151937Y-28296226D01*
X118007774Y-28152063D01*
X117838256Y-28038795D01*
X117649898Y-27960774D01*
X117449939Y-27921000D01*
X117246061Y-27921000D01*
X117046102Y-27960774D01*
X116857744Y-28038795D01*
X116688226Y-28152063D01*
X116544063Y-28296226D01*
X116430795Y-28465744D01*
X116352774Y-28654102D01*
X116313000Y-28854061D01*
X116313000Y-29057939D01*
X116352774Y-29257898D01*
X116430795Y-29446256D01*
X116463000Y-29494455D01*
X116463000Y-29928530D01*
X116458719Y-29972000D01*
X116463000Y-30015469D01*
X116463000Y-30015476D01*
X116475805Y-30145489D01*
X116526411Y-30312312D01*
X116608589Y-30466058D01*
X116717001Y-30598158D01*
X116717000Y-38993000D01*
X109504454Y-38993000D01*
X109456256Y-38960795D01*
X109267898Y-38882774D01*
X109067939Y-38843000D01*
X108864061Y-38843000D01*
X108664102Y-38882774D01*
X108475744Y-38960795D01*
X108306226Y-39074063D01*
X108162063Y-39218226D01*
X108048795Y-39387744D01*
X107970774Y-39576102D01*
X107931000Y-39776061D01*
X107931000Y-39979939D01*
X107970774Y-40179898D01*
X108048795Y-40368256D01*
X108061987Y-40388000D01*
X105701322Y-40388000D01*
X105663999Y-40384324D01*
X105626676Y-40388000D01*
X105626667Y-40388000D01*
X105515014Y-40398997D01*
X105371753Y-40442454D01*
X105239724Y-40513026D01*
X105123999Y-40607999D01*
X105100201Y-40636997D01*
X101850998Y-43886201D01*
X101822000Y-43909999D01*
X101798202Y-43938997D01*
X101798201Y-43938998D01*
X101727026Y-44025724D01*
X101656454Y-44157754D01*
X101635146Y-44228001D01*
X101612998Y-44301014D01*
X101608055Y-44351205D01*
X101598324Y-44450000D01*
X101602001Y-44487332D01*
X101602000Y-47125513D01*
X100580998Y-48146516D01*
X100552000Y-48170314D01*
X100528202Y-48199312D01*
X100528201Y-48199313D01*
X100457026Y-48286039D01*
X100426193Y-48343724D01*
X100386454Y-48418068D01*
X100343013Y-48561276D01*
X100288063Y-48616226D01*
X100174795Y-48785744D01*
X100096774Y-48974102D01*
X100057000Y-49174061D01*
X100057000Y-49377939D01*
X100096774Y-49577898D01*
X100174795Y-49766256D01*
X100288063Y-49935774D01*
X100432226Y-50079937D01*
X100601744Y-50193205D01*
X100790102Y-50271226D01*
X100990061Y-50311000D01*
X101193939Y-50311000D01*
X101393898Y-50271226D01*
X101582256Y-50193205D01*
X101751774Y-50079937D01*
X101895937Y-49935774D01*
X102009205Y-49766256D01*
X102087226Y-49577898D01*
X102127000Y-49377939D01*
X102127000Y-49174061D01*
X102087226Y-48974102D01*
X102033271Y-48843845D01*
X102165989Y-48711127D01*
X102165990Y-54400841D01*
X102035734Y-54454795D01*
X101866216Y-54568063D01*
X101722053Y-54712226D01*
X101608785Y-54881744D01*
X101530764Y-55070102D01*
X101490990Y-55270061D01*
X101490990Y-55473939D01*
X101530764Y-55673898D01*
X101608785Y-55862256D01*
X101722053Y-56031774D01*
X101866216Y-56175937D01*
X102035734Y-56289205D01*
X102224092Y-56367226D01*
X102424051Y-56407000D01*
X102627929Y-56407000D01*
X102827888Y-56367226D01*
X102893375Y-56340100D01*
X102893375Y-58407821D01*
X101252997Y-60048200D01*
X101223999Y-60071998D01*
X101200201Y-60100996D01*
X101200200Y-60100997D01*
X101129025Y-60187723D01*
X101058453Y-60319753D01*
X101032867Y-60404102D01*
X101014997Y-60463013D01*
X101004914Y-60565388D01*
X101000323Y-60611999D01*
X101004000Y-60649331D01*
X101003999Y-65601672D01*
X101000323Y-65638995D01*
X101003999Y-65676317D01*
X101003999Y-65676327D01*
X101014996Y-65787980D01*
X101049540Y-65901857D01*
X101058453Y-65931241D01*
X101117655Y-66042000D01*
X100390802Y-66042000D01*
X100349000Y-66000198D01*
X100349000Y-65938061D01*
X100309226Y-65738102D01*
X100231205Y-65549744D01*
X100117937Y-65380226D01*
X99973774Y-65236063D01*
X99804256Y-65122795D01*
X99615898Y-65044774D01*
X99415939Y-65005000D01*
X99212061Y-65005000D01*
X99012102Y-65044774D01*
X98823744Y-65122795D01*
X98654226Y-65236063D01*
X98510063Y-65380226D01*
X98396795Y-65549744D01*
X98318774Y-65738102D01*
X98279000Y-65938061D01*
X93328366Y-65938061D01*
X93352609Y-65901779D01*
X93472089Y-65613327D01*
X93533000Y-65307109D01*
X93533000Y-64994891D01*
X93472089Y-64688673D01*
X93352609Y-64400221D01*
X93179150Y-64140621D01*
X92958379Y-63919850D01*
X92698779Y-63746391D01*
X92410327Y-63626911D01*
X92104109Y-63566000D01*
X91791891Y-63566000D01*
X91485673Y-63626911D01*
X91197221Y-63746391D01*
X90937621Y-63919850D01*
X90716850Y-64140621D01*
X90543391Y-64400221D01*
X90423911Y-64688673D01*
X90363000Y-64994891D01*
X86736019Y-64994891D01*
X86736478Y-59914891D01*
X90363000Y-59914891D01*
X90363000Y-60227109D01*
X90423911Y-60533327D01*
X90543391Y-60821779D01*
X90716850Y-61081379D01*
X90937621Y-61302150D01*
X91197221Y-61475609D01*
X91485673Y-61595089D01*
X91791891Y-61656000D01*
X92104109Y-61656000D01*
X92410327Y-61595089D01*
X92698779Y-61475609D01*
X92958379Y-61302150D01*
X93179150Y-61081379D01*
X93352609Y-60821779D01*
X93472089Y-60533327D01*
X93533000Y-60227109D01*
X93533000Y-59914891D01*
X93472089Y-59608673D01*
X93352609Y-59320221D01*
X93179150Y-59060621D01*
X92958379Y-58839850D01*
X92698779Y-58666391D01*
X92410327Y-58546911D01*
X92104109Y-58486000D01*
X91791891Y-58486000D01*
X91485673Y-58546911D01*
X91197221Y-58666391D01*
X90937621Y-58839850D01*
X90716850Y-59060621D01*
X90543391Y-59320221D01*
X90423911Y-59608673D01*
X90363000Y-59914891D01*
X86736478Y-59914891D01*
X86736869Y-55582752D01*
X91027853Y-55582752D01*
X91117579Y-55842042D01*
X91398671Y-55977935D01*
X91700873Y-56056379D01*
X92012573Y-56074359D01*
X92321791Y-56031184D01*
X92616644Y-55928513D01*
X92778421Y-55842042D01*
X92868147Y-55582752D01*
X91948000Y-54662605D01*
X91027853Y-55582752D01*
X86736869Y-55582752D01*
X86736963Y-54547573D01*
X90356641Y-54547573D01*
X90399816Y-54856791D01*
X90502487Y-55151644D01*
X90588958Y-55313421D01*
X90848248Y-55403147D01*
X91768395Y-54483000D01*
X92127605Y-54483000D01*
X93047752Y-55403147D01*
X93307042Y-55313421D01*
X93442935Y-55032329D01*
X93521379Y-54730127D01*
X93539359Y-54418427D01*
X93496184Y-54109209D01*
X93393513Y-53814356D01*
X93307042Y-53652579D01*
X93047752Y-53562853D01*
X92127605Y-54483000D01*
X91768395Y-54483000D01*
X90848248Y-53562853D01*
X90588958Y-53652579D01*
X90453065Y-53933671D01*
X90374621Y-54235873D01*
X90356641Y-54547573D01*
X86736963Y-54547573D01*
X86737068Y-53383248D01*
X91027853Y-53383248D01*
X91948000Y-54303395D01*
X92868147Y-53383248D01*
X92778421Y-53123958D01*
X92497329Y-52988065D01*
X92195127Y-52909621D01*
X91883427Y-52891641D01*
X91574209Y-52934816D01*
X91279356Y-53037487D01*
X91117579Y-53123958D01*
X91027853Y-53383248D01*
X86737068Y-53383248D01*
X86737442Y-49246891D01*
X90363000Y-49246891D01*
X90363000Y-49559109D01*
X90423911Y-49865327D01*
X90543391Y-50153779D01*
X90716850Y-50413379D01*
X90937621Y-50634150D01*
X91197221Y-50807609D01*
X91485673Y-50927089D01*
X91791891Y-50988000D01*
X92104109Y-50988000D01*
X92410327Y-50927089D01*
X92698779Y-50807609D01*
X92958379Y-50634150D01*
X93179150Y-50413379D01*
X93352609Y-50153779D01*
X93472089Y-49865327D01*
X93533000Y-49559109D01*
X93533000Y-49428061D01*
X95612000Y-49428061D01*
X95612000Y-49631939D01*
X95651774Y-49831898D01*
X95729795Y-50020256D01*
X95843063Y-50189774D01*
X95987226Y-50333937D01*
X96156744Y-50447205D01*
X96345102Y-50525226D01*
X96545061Y-50565000D01*
X96748939Y-50565000D01*
X96948898Y-50525226D01*
X97137256Y-50447205D01*
X97185454Y-50415000D01*
X98394546Y-50415000D01*
X98442744Y-50447205D01*
X98631102Y-50525226D01*
X98831061Y-50565000D01*
X99034939Y-50565000D01*
X99234898Y-50525226D01*
X99423256Y-50447205D01*
X99592774Y-50333937D01*
X99736937Y-50189774D01*
X99850205Y-50020256D01*
X99928226Y-49831898D01*
X99968000Y-49631939D01*
X99968000Y-49428061D01*
X99928226Y-49228102D01*
X99850205Y-49039744D01*
X99736937Y-48870226D01*
X99592774Y-48726063D01*
X99423256Y-48612795D01*
X99234898Y-48534774D01*
X99034939Y-48495000D01*
X98831061Y-48495000D01*
X98631102Y-48534774D01*
X98442744Y-48612795D01*
X98394546Y-48645000D01*
X97185454Y-48645000D01*
X97137256Y-48612795D01*
X96948898Y-48534774D01*
X96748939Y-48495000D01*
X96545061Y-48495000D01*
X96345102Y-48534774D01*
X96156744Y-48612795D01*
X95987226Y-48726063D01*
X95843063Y-48870226D01*
X95729795Y-49039744D01*
X95651774Y-49228102D01*
X95612000Y-49428061D01*
X93533000Y-49428061D01*
X93533000Y-49246891D01*
X93472089Y-48940673D01*
X93352609Y-48652221D01*
X93179150Y-48392621D01*
X92958379Y-48171850D01*
X92698779Y-47998391D01*
X92410327Y-47878911D01*
X92104109Y-47818000D01*
X91791891Y-47818000D01*
X91485673Y-47878911D01*
X91197221Y-47998391D01*
X90937621Y-48171850D01*
X90716850Y-48392621D01*
X90543391Y-48652221D01*
X90423911Y-48940673D01*
X90363000Y-49246891D01*
X86737442Y-49246891D01*
X86737901Y-44166891D01*
X90363000Y-44166891D01*
X90363000Y-44479109D01*
X90423911Y-44785327D01*
X90543391Y-45073779D01*
X90716850Y-45333379D01*
X90937621Y-45554150D01*
X91197221Y-45727609D01*
X91485673Y-45847089D01*
X91791891Y-45908000D01*
X92104109Y-45908000D01*
X92410327Y-45847089D01*
X92698779Y-45727609D01*
X92958379Y-45554150D01*
X93179150Y-45333379D01*
X93352609Y-45073779D01*
X93472089Y-44785327D01*
X93533000Y-44479109D01*
X93533000Y-44166891D01*
X93472089Y-43860673D01*
X93352609Y-43572221D01*
X93179150Y-43312621D01*
X92958379Y-43091850D01*
X92698779Y-42918391D01*
X92410327Y-42798911D01*
X92104109Y-42738000D01*
X91791891Y-42738000D01*
X91485673Y-42798911D01*
X91197221Y-42918391D01*
X90937621Y-43091850D01*
X90716850Y-43312621D01*
X90543391Y-43572221D01*
X90423911Y-43860673D01*
X90363000Y-44166891D01*
X86737901Y-44166891D01*
X86738140Y-41529000D01*
X102162000Y-41529000D01*
X102186776Y-41526560D01*
X102210601Y-41519333D01*
X102552022Y-41377912D01*
X102573978Y-41366176D01*
X102593224Y-41350382D01*
X103580382Y-40363224D01*
X103596176Y-40343978D01*
X103607912Y-40322022D01*
X103749333Y-39980601D01*
X103756560Y-39956776D01*
X103759000Y-39932000D01*
X103759000Y-27735000D01*
X151079857Y-27735000D01*
X151079857Y-31494000D01*
X151079857Y-31494000D01*
G37*
X151079857Y-31494000D02*
X162864143Y-31494000D01*
X162864143Y-31239221D01*
X163175340Y-31368123D01*
X163608949Y-31454373D01*
X164051051Y-31454373D01*
X164484660Y-31368123D01*
X164893109Y-31198938D01*
X165254722Y-30957317D01*
X165256829Y-40284977D01*
X157930061Y-40507000D01*
X157905370Y-40510190D01*
X157881776Y-40518135D01*
X157860185Y-40530531D01*
X157842755Y-40545510D01*
X157642847Y-40751568D01*
X157627347Y-40771050D01*
X157615945Y-40793182D01*
X157609079Y-40817113D01*
X157607000Y-40840000D01*
X157607000Y-49261985D01*
X157581939Y-49257000D01*
X157378061Y-49257000D01*
X157178102Y-49296774D01*
X156989744Y-49374795D01*
X156820226Y-49488063D01*
X156676063Y-49632226D01*
X156562795Y-49801744D01*
X156484774Y-49990102D01*
X156445000Y-50190061D01*
X156445000Y-50393939D01*
X156484774Y-50593898D01*
X156562795Y-50782256D01*
X156676063Y-50951774D01*
X156720001Y-50995712D01*
X156720001Y-51270667D01*
X156716324Y-51308000D01*
X156720001Y-51345333D01*
X156726393Y-51410226D01*
X156730998Y-51456985D01*
X156774454Y-51600246D01*
X156845026Y-51732276D01*
X156916201Y-51819002D01*
X156940000Y-51848001D01*
X156968998Y-51871799D01*
X158879000Y-53781802D01*
X158879001Y-56386552D01*
X158628621Y-56553850D01*
X158407850Y-56774621D01*
X158234391Y-57034221D01*
X158114911Y-57322673D01*
X158054000Y-57628891D01*
X158054000Y-57941109D01*
X158114911Y-58247327D01*
X158234391Y-58535779D01*
X158407850Y-58795379D01*
X158628621Y-59016150D01*
X158888221Y-59189609D01*
X159176673Y-59309089D01*
X159482891Y-59370000D01*
X159795109Y-59370000D01*
X160101327Y-59309089D01*
X160389779Y-59189609D01*
X160649379Y-59016150D01*
X160870150Y-58795379D01*
X161043609Y-58535779D01*
X161163089Y-58247327D01*
X161224000Y-57941109D01*
X161224000Y-57628891D01*
X161163089Y-57322673D01*
X161043609Y-57034221D01*
X160870150Y-56774621D01*
X160649379Y-56553850D01*
X160399000Y-56386552D01*
X160399000Y-53504322D01*
X160402676Y-53466999D01*
X160399000Y-53429676D01*
X160399000Y-53429667D01*
X160388003Y-53318014D01*
X160344546Y-53174753D01*
X160273975Y-53042725D01*
X160273974Y-53042723D01*
X160202799Y-52955997D01*
X160179001Y-52926999D01*
X160150004Y-52903202D01*
X158241256Y-50994455D01*
X158283937Y-50951774D01*
X158300490Y-50927000D01*
X165259234Y-50927000D01*
X165264330Y-73485856D01*
X165070239Y-73291765D01*
X164751581Y-73078844D01*
X164397507Y-72932182D01*
X164021624Y-72857414D01*
X163638376Y-72857414D01*
X163262493Y-72932182D01*
X162908419Y-73078844D01*
X162589761Y-73291765D01*
X162318765Y-73562761D01*
X162105844Y-73881419D01*
X161959182Y-74235493D01*
X161884414Y-74611376D01*
X161884414Y-74994624D01*
X161959182Y-75370507D01*
X162105844Y-75724581D01*
X162318765Y-76043239D01*
X162502526Y-76227000D01*
X155634715Y-76227000D01*
X155634715Y-73610000D01*
X141219253Y-73610000D01*
X141386779Y-73540609D01*
X141646379Y-73367150D01*
X141867150Y-73146379D01*
X142040609Y-72886779D01*
X142160089Y-72598327D01*
X142221000Y-72292109D01*
X142221000Y-71979891D01*
X142160089Y-71673673D01*
X142040609Y-71385221D01*
X141867150Y-71125621D01*
X141694883Y-70953354D01*
X141711226Y-70913898D01*
X141722535Y-70857043D01*
X155369061Y-57210518D01*
X155402827Y-57182807D01*
X155444314Y-57132256D01*
X155513420Y-57048050D01*
X155513421Y-57048049D01*
X155595599Y-56894303D01*
X155646205Y-56727480D01*
X155659010Y-56597467D01*
X155659010Y-56597457D01*
X155663291Y-56553991D01*
X155659010Y-56510525D01*
X155659010Y-54937562D01*
X155673795Y-54973256D01*
X155706000Y-55021454D01*
X155706001Y-69933521D01*
X155701719Y-69977000D01*
X155718805Y-70150490D01*
X155769412Y-70317313D01*
X155851590Y-70471059D01*
X155934468Y-70572046D01*
X155934471Y-70572049D01*
X155962184Y-70605817D01*
X155995952Y-70633530D01*
X156061466Y-70699044D01*
X156089183Y-70732817D01*
X156223941Y-70843411D01*
X156274981Y-70870692D01*
X156312226Y-70907937D01*
X156335810Y-70923695D01*
X156145465Y-71050880D01*
X155950880Y-71245465D01*
X155797995Y-71474273D01*
X155692686Y-71728510D01*
X155639000Y-71998408D01*
X155639000Y-72273592D01*
X155692686Y-72543490D01*
X155797995Y-72797727D01*
X155950880Y-73026535D01*
X156145465Y-73221120D01*
X156374273Y-73374005D01*
X156628510Y-73479314D01*
X156898408Y-73533000D01*
X157173592Y-73533000D01*
X157443490Y-73479314D01*
X157697727Y-73374005D01*
X157926535Y-73221120D01*
X158121120Y-73026535D01*
X158274005Y-72797727D01*
X158379314Y-72543490D01*
X158433000Y-72273592D01*
X158433000Y-71998408D01*
X159639000Y-71998408D01*
X159639000Y-72273592D01*
X159692686Y-72543490D01*
X159797995Y-72797727D01*
X159950880Y-73026535D01*
X160145465Y-73221120D01*
X160374273Y-73374005D01*
X160628510Y-73479314D01*
X160898408Y-73533000D01*
X161173592Y-73533000D01*
X161443490Y-73479314D01*
X161697727Y-73374005D01*
X161926535Y-73221120D01*
X162121120Y-73026535D01*
X162274005Y-72797727D01*
X162379314Y-72543490D01*
X162433000Y-72273592D01*
X162433000Y-71998408D01*
X162379314Y-71728510D01*
X162274005Y-71474273D01*
X162121120Y-71245465D01*
X161926535Y-71050880D01*
X161697727Y-70897995D01*
X161443490Y-70792686D01*
X161173592Y-70739000D01*
X160898408Y-70739000D01*
X160628510Y-70792686D01*
X160374273Y-70897995D01*
X160145465Y-71050880D01*
X159950880Y-71245465D01*
X159797995Y-71474273D01*
X159692686Y-71728510D01*
X159639000Y-71998408D01*
X158433000Y-71998408D01*
X158379314Y-71728510D01*
X158274005Y-71474273D01*
X158121120Y-71245465D01*
X157926535Y-71050880D01*
X157697727Y-70897995D01*
X157658121Y-70881590D01*
X157775937Y-70763774D01*
X157889205Y-70594256D01*
X157967226Y-70405898D01*
X158007000Y-70205939D01*
X158007000Y-70002061D01*
X157967226Y-69802102D01*
X157889205Y-69613744D01*
X157775937Y-69444226D01*
X157631774Y-69300063D01*
X157476000Y-69195978D01*
X157476000Y-62708891D01*
X158054000Y-62708891D01*
X158054000Y-63021109D01*
X158114911Y-63327327D01*
X158234391Y-63615779D01*
X158407850Y-63875379D01*
X158628621Y-64096150D01*
X158888221Y-64269609D01*
X159176673Y-64389089D01*
X159482891Y-64450000D01*
X159795109Y-64450000D01*
X160101327Y-64389089D01*
X160389779Y-64269609D01*
X160649379Y-64096150D01*
X160870150Y-63875379D01*
X161043609Y-63615779D01*
X161163089Y-63327327D01*
X161224000Y-63021109D01*
X161224000Y-62708891D01*
X161163089Y-62402673D01*
X161043609Y-62114221D01*
X160870150Y-61854621D01*
X160649379Y-61633850D01*
X160389779Y-61460391D01*
X160101327Y-61340911D01*
X159795109Y-61280000D01*
X159482891Y-61280000D01*
X159176673Y-61340911D01*
X158888221Y-61460391D01*
X158628621Y-61633850D01*
X158407850Y-61854621D01*
X158234391Y-62114221D01*
X158114911Y-62402673D01*
X158054000Y-62708891D01*
X157476000Y-62708891D01*
X157476000Y-55021454D01*
X157508205Y-54973256D01*
X157586226Y-54784898D01*
X157626000Y-54584939D01*
X157626000Y-54381061D01*
X157586226Y-54181102D01*
X157508205Y-53992744D01*
X157394937Y-53823226D01*
X157250774Y-53679063D01*
X157081256Y-53565795D01*
X156892898Y-53487774D01*
X156692939Y-53448000D01*
X156489061Y-53448000D01*
X156289102Y-53487774D01*
X156100744Y-53565795D01*
X155931226Y-53679063D01*
X155787063Y-53823226D01*
X155673795Y-53992744D01*
X155659010Y-54028438D01*
X155659010Y-48798454D01*
X155691215Y-48750256D01*
X155769236Y-48561898D01*
X155809010Y-48361939D01*
X155809010Y-48158061D01*
X155769236Y-47958102D01*
X155691215Y-47769744D01*
X155577947Y-47600226D01*
X155433784Y-47456063D01*
X155264266Y-47342795D01*
X155075908Y-47264774D01*
X154875949Y-47225000D01*
X154809000Y-47225000D01*
X154809000Y-44562578D01*
X155306579Y-44065000D01*
X155417546Y-44065000D01*
X155465744Y-44097205D01*
X155654102Y-44175226D01*
X155854061Y-44215000D01*
X156057939Y-44215000D01*
X156257898Y-44175226D01*
X156446256Y-44097205D01*
X156615774Y-43983937D01*
X156759937Y-43839774D01*
X156873205Y-43670256D01*
X156951226Y-43481898D01*
X156991000Y-43281939D01*
X156991000Y-43078061D01*
X156951226Y-42878102D01*
X156873205Y-42689744D01*
X156759937Y-42520226D01*
X156615774Y-42376063D01*
X156446256Y-42262795D01*
X156257898Y-42184774D01*
X156057939Y-42145000D01*
X155854061Y-42145000D01*
X155654102Y-42184774D01*
X155465744Y-42262795D01*
X155417546Y-42295000D01*
X154983469Y-42295000D01*
X154940000Y-42290719D01*
X154896531Y-42295000D01*
X154896523Y-42295000D01*
X154781306Y-42306348D01*
X154766509Y-42307805D01*
X154740240Y-42315774D01*
X154599687Y-42358411D01*
X154445941Y-42440589D01*
X154445939Y-42440590D01*
X154445940Y-42440590D01*
X154344953Y-42523468D01*
X154344951Y-42523470D01*
X154311183Y-42551183D01*
X154283470Y-42584951D01*
X153328951Y-43539471D01*
X153295184Y-43567183D01*
X153267471Y-43600951D01*
X153267468Y-43600954D01*
X153184590Y-43701941D01*
X153102412Y-43855687D01*
X153051805Y-44022510D01*
X153034719Y-44196000D01*
X153039001Y-44239479D01*
X153039000Y-55513421D01*
X139333422Y-69219000D01*
X136174454Y-69219000D01*
X136126256Y-69186795D01*
X135937898Y-69108774D01*
X135737939Y-69069000D01*
X135534061Y-69069000D01*
X135334102Y-69108774D01*
X135145744Y-69186795D01*
X134976226Y-69300063D01*
X134832063Y-69444226D01*
X134718795Y-69613744D01*
X134640774Y-69802102D01*
X134601000Y-70002061D01*
X134601000Y-70205939D01*
X134640774Y-70405898D01*
X134718795Y-70594256D01*
X134832063Y-70763774D01*
X134833943Y-70765654D01*
X134625621Y-70904850D01*
X134404850Y-71125621D01*
X134231391Y-71385221D01*
X134111911Y-71673673D01*
X134051000Y-71979891D01*
X134051000Y-72292109D01*
X134111911Y-72598327D01*
X134231391Y-72886779D01*
X134404850Y-73146379D01*
X134625621Y-73367150D01*
X134885221Y-73540609D01*
X135052747Y-73610000D01*
X131893286Y-73610000D01*
X131893286Y-76227000D01*
X89465474Y-76227000D01*
X89649235Y-76043239D01*
X89862156Y-75724581D01*
X90008818Y-75370507D01*
X90083586Y-74994624D01*
X90083586Y-74611376D01*
X90008818Y-74235493D01*
X89862156Y-73881419D01*
X89649235Y-73562761D01*
X89378239Y-73291765D01*
X89059581Y-73078844D01*
X88705507Y-72932182D01*
X88329624Y-72857414D01*
X87946376Y-72857414D01*
X87570493Y-72932182D01*
X87216419Y-73078844D01*
X86897761Y-73291765D01*
X86735256Y-73454270D01*
X86735447Y-71330752D01*
X91027853Y-71330752D01*
X91117579Y-71590042D01*
X91398671Y-71725935D01*
X91700873Y-71804379D01*
X92012573Y-71822359D01*
X92321791Y-71779184D01*
X92616644Y-71676513D01*
X92778421Y-71590042D01*
X92868147Y-71330752D01*
X91948000Y-70410605D01*
X91027853Y-71330752D01*
X86735447Y-71330752D01*
X86735541Y-70295573D01*
X90356641Y-70295573D01*
X90399816Y-70604791D01*
X90502487Y-70899644D01*
X90588958Y-71061421D01*
X90848248Y-71151147D01*
X91768395Y-70231000D01*
X92127605Y-70231000D01*
X93047752Y-71151147D01*
X93307042Y-71061421D01*
X93442935Y-70780329D01*
X93521379Y-70478127D01*
X93539359Y-70166427D01*
X93496184Y-69857209D01*
X93393513Y-69562356D01*
X93307042Y-69400579D01*
X93047752Y-69310853D01*
X92127605Y-70231000D01*
X91768395Y-70231000D01*
X90848248Y-69310853D01*
X90588958Y-69400579D01*
X90453065Y-69681671D01*
X90374621Y-69983873D01*
X90356641Y-70295573D01*
X86735541Y-70295573D01*
X86735645Y-69131248D01*
X91027853Y-69131248D01*
X91948000Y-70051395D01*
X92868147Y-69131248D01*
X92778421Y-68871958D01*
X92497329Y-68736065D01*
X92195127Y-68657621D01*
X91883427Y-68639641D01*
X91574209Y-68682816D01*
X91279356Y-68785487D01*
X91117579Y-68871958D01*
X91027853Y-69131248D01*
X86735645Y-69131248D01*
X86736019Y-64994891D01*
X90363000Y-64994891D01*
X90363000Y-65307109D01*
X90423911Y-65613327D01*
X90543391Y-65901779D01*
X90716850Y-66161379D01*
X90937621Y-66382150D01*
X91197221Y-66555609D01*
X91485673Y-66675089D01*
X91791891Y-66736000D01*
X92104109Y-66736000D01*
X92410327Y-66675089D01*
X92698779Y-66555609D01*
X92958379Y-66382150D01*
X93179150Y-66161379D01*
X93328366Y-65938061D01*
X98279000Y-65938061D01*
X98279000Y-66141939D01*
X98318774Y-66341898D01*
X98396795Y-66530256D01*
X98510063Y-66699774D01*
X98654226Y-66843937D01*
X98823744Y-66957205D01*
X99012102Y-67035226D01*
X99212061Y-67075000D01*
X99274198Y-67075000D01*
X99512201Y-67313002D01*
X99535999Y-67342001D01*
X99651724Y-67436974D01*
X99783753Y-67507546D01*
X99927014Y-67551003D01*
X100038667Y-67562000D01*
X100038675Y-67562000D01*
X100076000Y-67565676D01*
X100113325Y-67562000D01*
X101150289Y-67562000D01*
X101194226Y-67605937D01*
X101363744Y-67719205D01*
X101552102Y-67797226D01*
X101752061Y-67837000D01*
X101819003Y-67837000D01*
X101819002Y-71301089D01*
X101815326Y-71338412D01*
X101819002Y-71375734D01*
X101819002Y-71375744D01*
X101829999Y-71487397D01*
X101861504Y-71591256D01*
X101873456Y-71630658D01*
X101944028Y-71762688D01*
X101978243Y-71804379D01*
X102039001Y-71878413D01*
X102068005Y-71902216D01*
X104336791Y-74171003D01*
X104360589Y-74200001D01*
X104476314Y-74294974D01*
X104608343Y-74365546D01*
X104751604Y-74409003D01*
X104863257Y-74420000D01*
X104863266Y-74420000D01*
X104900589Y-74423676D01*
X104937912Y-74420000D01*
X105264000Y-74420000D01*
X105264000Y-74523939D01*
X105303774Y-74723898D01*
X105381795Y-74912256D01*
X105495063Y-75081774D01*
X105639226Y-75225937D01*
X105808744Y-75339205D01*
X105997102Y-75417226D01*
X106197061Y-75457000D01*
X106274774Y-75457000D01*
X106406752Y-75527545D01*
X106550013Y-75571002D01*
X106661666Y-75581999D01*
X106661676Y-75581999D01*
X106698998Y-75585675D01*
X106736321Y-75581999D01*
X125292679Y-75581999D01*
X125330001Y-75585675D01*
X125367323Y-75581999D01*
X125367334Y-75581999D01*
X125478987Y-75571002D01*
X125622248Y-75527545D01*
X125754277Y-75456973D01*
X125870002Y-75362000D01*
X125893805Y-75332996D01*
X126531802Y-74695000D01*
X126593939Y-74695000D01*
X126793898Y-74655226D01*
X126982256Y-74577205D01*
X127151774Y-74463937D01*
X127295937Y-74319774D01*
X127409205Y-74150256D01*
X127487226Y-73961898D01*
X127527000Y-73761939D01*
X127527000Y-73558061D01*
X127487226Y-73358102D01*
X127409205Y-73169744D01*
X127295937Y-73000226D01*
X127151774Y-72856063D01*
X126982256Y-72742795D01*
X126793898Y-72664774D01*
X126593939Y-72625000D01*
X126390061Y-72625000D01*
X126190102Y-72664774D01*
X126001744Y-72742795D01*
X125832226Y-72856063D01*
X125688063Y-73000226D01*
X125574795Y-73169744D01*
X125496774Y-73358102D01*
X125457000Y-73558061D01*
X125457000Y-73620198D01*
X125015200Y-74061999D01*
X120587763Y-74061999D01*
X120629226Y-73961898D01*
X120669000Y-73761939D01*
X120669000Y-73558061D01*
X120629226Y-73358102D01*
X120551205Y-73169744D01*
X120437937Y-73000226D01*
X120293774Y-72856063D01*
X120124256Y-72742795D01*
X119935898Y-72664774D01*
X119735939Y-72625000D01*
X119532061Y-72625000D01*
X119332102Y-72664774D01*
X119143744Y-72742795D01*
X118974226Y-72856063D01*
X118930289Y-72900000D01*
X108611286Y-72900000D01*
X118748003Y-62763284D01*
X118777001Y-62739486D01*
X118871974Y-62623761D01*
X118942546Y-62491732D01*
X118986003Y-62348471D01*
X118997000Y-62236818D01*
X118997000Y-62236810D01*
X119000676Y-62199485D01*
X118997000Y-62162160D01*
X118997000Y-61409711D01*
X119040937Y-61365774D01*
X119154205Y-61196256D01*
X119232226Y-61007898D01*
X119272000Y-60807939D01*
X119272000Y-60604061D01*
X119232226Y-60404102D01*
X119154205Y-60215744D01*
X119040937Y-60046226D01*
X118896774Y-59902063D01*
X118727256Y-59788795D01*
X118538898Y-59710774D01*
X118338939Y-59671000D01*
X118135061Y-59671000D01*
X117935102Y-59710774D01*
X117746744Y-59788795D01*
X117577226Y-59902063D01*
X117433063Y-60046226D01*
X117319795Y-60215744D01*
X117241774Y-60404102D01*
X117202000Y-60604061D01*
X117202000Y-60807939D01*
X117241774Y-61007898D01*
X117319795Y-61196256D01*
X117433063Y-61365774D01*
X117477000Y-61409711D01*
X117477001Y-61884682D01*
X113573268Y-65788415D01*
X113607236Y-65706410D01*
X113647010Y-65506451D01*
X113647010Y-65302573D01*
X113607236Y-65102614D01*
X113529215Y-64914256D01*
X113415947Y-64744738D01*
X113372010Y-64700801D01*
X113372010Y-60393711D01*
X113415947Y-60349774D01*
X113529215Y-60180256D01*
X113607236Y-59991898D01*
X113647010Y-59791939D01*
X113647010Y-59588061D01*
X113607236Y-59388102D01*
X113529215Y-59199744D01*
X113415947Y-59030226D01*
X113372010Y-58986289D01*
X113372010Y-58064061D01*
X121139000Y-58064061D01*
X121139000Y-58267939D01*
X121178774Y-58467898D01*
X121256795Y-58656256D01*
X121370063Y-58825774D01*
X121414000Y-58869711D01*
X121414001Y-62542288D01*
X121370063Y-62586226D01*
X121256795Y-62755744D01*
X121178774Y-62944102D01*
X121139000Y-63144061D01*
X121139000Y-63347939D01*
X121178774Y-63547898D01*
X121256795Y-63736256D01*
X121370063Y-63905774D01*
X121514226Y-64049937D01*
X121683744Y-64163205D01*
X121872102Y-64241226D01*
X122072061Y-64281000D01*
X122275939Y-64281000D01*
X122475898Y-64241226D01*
X122664256Y-64163205D01*
X122833774Y-64049937D01*
X122977937Y-63905774D01*
X123091205Y-63736256D01*
X123169226Y-63547898D01*
X123209000Y-63347939D01*
X123209000Y-63144061D01*
X123169226Y-62944102D01*
X123091205Y-62755744D01*
X122977937Y-62586226D01*
X122934000Y-62542289D01*
X122934000Y-60135711D01*
X123038226Y-60239937D01*
X123207744Y-60353205D01*
X123396102Y-60431226D01*
X123596061Y-60471000D01*
X123799939Y-60471000D01*
X123999898Y-60431226D01*
X124188256Y-60353205D01*
X124357774Y-60239937D01*
X124501937Y-60095774D01*
X124615205Y-59926256D01*
X124693226Y-59737898D01*
X124733000Y-59537939D01*
X124733000Y-59334061D01*
X124693226Y-59134102D01*
X124615205Y-58945744D01*
X124501937Y-58776226D01*
X124458000Y-58732289D01*
X124458000Y-56794061D01*
X130537000Y-56794061D01*
X130537000Y-56997939D01*
X130576774Y-57197898D01*
X130654795Y-57386256D01*
X130768063Y-57555774D01*
X130812001Y-57599712D01*
X130812000Y-57716289D01*
X130768063Y-57760226D01*
X130654795Y-57929744D01*
X130576774Y-58118102D01*
X130537000Y-58318061D01*
X130537000Y-58521939D01*
X130576774Y-58721898D01*
X130654795Y-58910256D01*
X130768063Y-59079774D01*
X130912226Y-59223937D01*
X131081744Y-59337205D01*
X131270102Y-59415226D01*
X131470061Y-59455000D01*
X131673939Y-59455000D01*
X131873898Y-59415226D01*
X132062256Y-59337205D01*
X132231774Y-59223937D01*
X132375937Y-59079774D01*
X132489205Y-58910256D01*
X132567226Y-58721898D01*
X132607000Y-58521939D01*
X132607000Y-58318061D01*
X132567226Y-58118102D01*
X132489205Y-57929744D01*
X132375937Y-57760226D01*
X132332000Y-57716289D01*
X132332000Y-57599711D01*
X132375937Y-57555774D01*
X132489205Y-57386256D01*
X132567226Y-57197898D01*
X132607000Y-56997939D01*
X132607000Y-56794061D01*
X132567226Y-56594102D01*
X132489205Y-56405744D01*
X132375937Y-56236226D01*
X132231774Y-56092063D01*
X132062256Y-55978795D01*
X131873898Y-55900774D01*
X131673939Y-55861000D01*
X131470061Y-55861000D01*
X131270102Y-55900774D01*
X131081744Y-55978795D01*
X130912226Y-56092063D01*
X130768063Y-56236226D01*
X130654795Y-56405744D01*
X130576774Y-56594102D01*
X130537000Y-56794061D01*
X124458000Y-56794061D01*
X124458000Y-51622801D01*
X129656635Y-46424167D01*
X129746102Y-46461226D01*
X129946061Y-46501000D01*
X130149939Y-46501000D01*
X130349898Y-46461226D01*
X130538256Y-46383205D01*
X130707774Y-46269937D01*
X130851937Y-46125774D01*
X130965205Y-45956256D01*
X131043226Y-45767898D01*
X131083000Y-45567939D01*
X131083000Y-45364061D01*
X131043226Y-45164102D01*
X130965205Y-44975744D01*
X130851937Y-44806226D01*
X130707774Y-44662063D01*
X130538256Y-44548795D01*
X130349898Y-44470774D01*
X130149939Y-44431000D01*
X129946061Y-44431000D01*
X129746102Y-44470774D01*
X129557744Y-44548795D01*
X129388226Y-44662063D01*
X129308158Y-44742131D01*
X129247753Y-44760454D01*
X129115724Y-44831026D01*
X128999999Y-44925999D01*
X128976201Y-44954997D01*
X123186998Y-50744201D01*
X123158000Y-50767999D01*
X123134202Y-50796997D01*
X123134201Y-50796998D01*
X123063026Y-50883724D01*
X122992454Y-51015754D01*
X122974551Y-51074774D01*
X122948998Y-51159014D01*
X122938001Y-51270667D01*
X122934324Y-51308000D01*
X122938001Y-51345332D01*
X122938000Y-57466289D01*
X122833774Y-57362063D01*
X122664256Y-57248795D01*
X122475898Y-57170774D01*
X122275939Y-57131000D01*
X122072061Y-57131000D01*
X121872102Y-57170774D01*
X121683744Y-57248795D01*
X121514226Y-57362063D01*
X121370063Y-57506226D01*
X121256795Y-57675744D01*
X121178774Y-57864102D01*
X121139000Y-58064061D01*
X113372010Y-58064061D01*
X113372010Y-57019509D01*
X113458898Y-57002226D01*
X113647256Y-56924205D01*
X113816774Y-56810937D01*
X113960937Y-56666774D01*
X114074205Y-56497256D01*
X114152226Y-56308898D01*
X114192000Y-56108939D01*
X114192000Y-55905061D01*
X114152226Y-55705102D01*
X114074205Y-55516744D01*
X113960937Y-55347226D01*
X113905987Y-55292276D01*
X113862546Y-55149068D01*
X113791974Y-55017039D01*
X113790000Y-55014634D01*
X113790000Y-52773711D01*
X113833937Y-52729774D01*
X113947205Y-52560256D01*
X114025226Y-52371898D01*
X114065000Y-52171939D01*
X114065000Y-51968061D01*
X114025226Y-51768102D01*
X113947205Y-51579744D01*
X113833937Y-51410226D01*
X113689774Y-51266063D01*
X113520256Y-51152795D01*
X113331898Y-51074774D01*
X113131939Y-51035000D01*
X113064998Y-51035000D01*
X113064998Y-49003792D01*
X113077898Y-49001226D01*
X113266256Y-48923205D01*
X113435774Y-48809937D01*
X113479711Y-48766000D01*
X115001199Y-48766000D01*
X115043000Y-48807801D01*
X115043000Y-48869939D01*
X115082774Y-49069898D01*
X115160795Y-49258256D01*
X115274063Y-49427774D01*
X115418226Y-49571937D01*
X115587744Y-49685205D01*
X115776102Y-49763226D01*
X115976061Y-49803000D01*
X116179939Y-49803000D01*
X116379898Y-49763226D01*
X116568256Y-49685205D01*
X116737774Y-49571937D01*
X116881937Y-49427774D01*
X116995205Y-49258256D01*
X117073226Y-49069898D01*
X117113000Y-48869939D01*
X117113000Y-48666061D01*
X117073226Y-48466102D01*
X116995205Y-48277744D01*
X116881937Y-48108226D01*
X116737774Y-47964063D01*
X116568256Y-47850795D01*
X116379898Y-47772774D01*
X116179939Y-47733000D01*
X116117801Y-47733000D01*
X115879803Y-47495002D01*
X115856001Y-47465999D01*
X115740276Y-47371026D01*
X115608247Y-47300454D01*
X115464986Y-47256997D01*
X115353333Y-47246000D01*
X115353322Y-47246000D01*
X115316000Y-47242324D01*
X115278678Y-47246000D01*
X114610803Y-47246000D01*
X114811008Y-47045795D01*
X114840001Y-47022001D01*
X114863795Y-46993008D01*
X114863799Y-46993004D01*
X114934973Y-46906277D01*
X114934974Y-46906276D01*
X115005546Y-46774247D01*
X115049003Y-46630986D01*
X115060000Y-46519333D01*
X115060000Y-46519324D01*
X115063676Y-46482001D01*
X115060000Y-46444678D01*
X115060000Y-40763000D01*
X117558523Y-40763000D01*
X117602000Y-40767282D01*
X117645476Y-40763000D01*
X119095546Y-40763000D01*
X119143744Y-40795205D01*
X119332102Y-40873226D01*
X119532061Y-40913000D01*
X119636000Y-40913000D01*
X119636000Y-40952289D01*
X119592063Y-40996226D01*
X119478795Y-41165744D01*
X119400774Y-41354102D01*
X119361000Y-41554061D01*
X119361000Y-41757939D01*
X119400774Y-41957898D01*
X119478795Y-42146256D01*
X119592063Y-42315774D01*
X119736226Y-42459937D01*
X119905744Y-42573205D01*
X120094102Y-42651226D01*
X120294061Y-42691000D01*
X120497939Y-42691000D01*
X120697898Y-42651226D01*
X120886256Y-42573205D01*
X121055774Y-42459937D01*
X121160000Y-42355711D01*
X121160000Y-46032289D01*
X121116063Y-46076226D01*
X121002795Y-46245744D01*
X120924774Y-46434102D01*
X120885000Y-46634061D01*
X120885000Y-46837939D01*
X120924774Y-47037898D01*
X121002795Y-47226256D01*
X121116063Y-47395774D01*
X121260226Y-47539937D01*
X121429744Y-47653205D01*
X121618102Y-47731226D01*
X121818061Y-47771000D01*
X122021939Y-47771000D01*
X122221898Y-47731226D01*
X122410256Y-47653205D01*
X122579774Y-47539937D01*
X122723937Y-47395774D01*
X122837205Y-47226256D01*
X122915226Y-47037898D01*
X122955000Y-46837939D01*
X122955000Y-46634061D01*
X122915226Y-46434102D01*
X122837205Y-46245744D01*
X122723937Y-46076226D01*
X122680000Y-46032289D01*
X122680000Y-44094061D01*
X133077000Y-44094061D01*
X133077000Y-44297939D01*
X133116774Y-44497898D01*
X133194795Y-44686256D01*
X133308063Y-44855774D01*
X133452226Y-44999937D01*
X133621744Y-45113205D01*
X133810102Y-45191226D01*
X134010061Y-45231000D01*
X134087774Y-45231000D01*
X134219752Y-45301545D01*
X134363013Y-45345002D01*
X134474666Y-45355999D01*
X134474676Y-45355999D01*
X134511998Y-45359675D01*
X134549321Y-45355999D01*
X135213198Y-45355999D01*
X135553545Y-45696347D01*
X135538714Y-45696347D01*
X135338755Y-45736121D01*
X135150397Y-45814142D01*
X134980879Y-45927410D01*
X134836716Y-46071573D01*
X134723448Y-46241091D01*
X134645427Y-46429449D01*
X134605653Y-46629408D01*
X134605653Y-46833286D01*
X134645427Y-47033245D01*
X134723448Y-47221603D01*
X134836716Y-47391121D01*
X134880653Y-47435058D01*
X134880654Y-54832514D01*
X134876977Y-54869846D01*
X134880654Y-54907179D01*
X134891475Y-55017039D01*
X134891651Y-55018831D01*
X134935107Y-55162092D01*
X135005679Y-55294122D01*
X135046057Y-55343322D01*
X135046057Y-55412189D01*
X135085831Y-55612148D01*
X135163852Y-55800506D01*
X135277120Y-55970024D01*
X135421283Y-56114187D01*
X135590801Y-56227455D01*
X135779159Y-56305476D01*
X135979118Y-56345250D01*
X136182996Y-56345250D01*
X136382955Y-56305476D01*
X136571313Y-56227455D01*
X136654000Y-56172205D01*
X136654001Y-65240668D01*
X136650324Y-65278000D01*
X136654001Y-65315333D01*
X136664998Y-65426986D01*
X136678180Y-65470442D01*
X136708454Y-65570246D01*
X136779026Y-65702276D01*
X136833175Y-65768256D01*
X136874000Y-65818001D01*
X136902998Y-65841799D01*
X137141000Y-66079801D01*
X137141000Y-66141939D01*
X137180774Y-66341898D01*
X137258795Y-66530256D01*
X137372063Y-66699774D01*
X137516226Y-66843937D01*
X137685744Y-66957205D01*
X137874102Y-67035226D01*
X138074061Y-67075000D01*
X138277939Y-67075000D01*
X138477898Y-67035226D01*
X138666256Y-66957205D01*
X138835774Y-66843937D01*
X138938000Y-66741711D01*
X139040226Y-66843937D01*
X139209744Y-66957205D01*
X139398102Y-67035226D01*
X139598061Y-67075000D01*
X139801939Y-67075000D01*
X140001898Y-67035226D01*
X140190256Y-66957205D01*
X140359774Y-66843937D01*
X140403711Y-66800000D01*
X140932678Y-66800000D01*
X140970000Y-66803676D01*
X141007322Y-66800000D01*
X141007333Y-66800000D01*
X141118986Y-66789003D01*
X141262247Y-66745546D01*
X141394276Y-66674974D01*
X141510001Y-66580001D01*
X141533803Y-66550998D01*
X141771801Y-66313000D01*
X141833939Y-66313000D01*
X142033898Y-66273226D01*
X142222256Y-66195205D01*
X142391774Y-66081937D01*
X142535937Y-65937774D01*
X142649205Y-65768256D01*
X142727226Y-65579898D01*
X142767000Y-65379939D01*
X142767000Y-65176061D01*
X142727226Y-64976102D01*
X142649205Y-64787744D01*
X142535937Y-64618226D01*
X142391774Y-64474063D01*
X142222256Y-64360795D01*
X142033898Y-64282774D01*
X141833939Y-64243000D01*
X141630061Y-64243000D01*
X141430102Y-64282774D01*
X141241744Y-64360795D01*
X141072226Y-64474063D01*
X140928063Y-64618226D01*
X140814795Y-64787744D01*
X140736774Y-64976102D01*
X140697000Y-65176061D01*
X140697000Y-65238199D01*
X140655199Y-65280000D01*
X140403711Y-65280000D01*
X140359774Y-65236063D01*
X140190256Y-65122795D01*
X140001898Y-65044774D01*
X139801939Y-65005000D01*
X139598061Y-65005000D01*
X139398102Y-65044774D01*
X139209744Y-65122795D01*
X139040226Y-65236063D01*
X138938000Y-65338289D01*
X138835774Y-65236063D01*
X138666256Y-65122795D01*
X138477898Y-65044774D01*
X138277939Y-65005000D01*
X138215801Y-65005000D01*
X138174000Y-64963199D01*
X138174000Y-57546013D01*
X138193744Y-57559205D01*
X138382102Y-57637226D01*
X138582061Y-57677000D01*
X138785939Y-57677000D01*
X138985898Y-57637226D01*
X139174256Y-57559205D01*
X139343774Y-57445937D01*
X139487937Y-57301774D01*
X139601205Y-57132256D01*
X139679226Y-56943898D01*
X139719000Y-56743939D01*
X139719000Y-56540061D01*
X139679226Y-56340102D01*
X139601205Y-56151744D01*
X139487937Y-55982226D01*
X139343774Y-55838063D01*
X139174256Y-55724795D01*
X138985898Y-55646774D01*
X138899001Y-55629489D01*
X138899001Y-55061321D01*
X138902677Y-55023998D01*
X138899001Y-54986675D01*
X138899001Y-54986666D01*
X138888004Y-54875013D01*
X138844547Y-54731752D01*
X138773975Y-54599723D01*
X138747992Y-54568063D01*
X138702800Y-54512995D01*
X138702796Y-54512991D01*
X138679002Y-54483998D01*
X138650009Y-54460204D01*
X137925089Y-53735285D01*
X138073774Y-53635937D01*
X138217937Y-53491774D01*
X138331205Y-53322256D01*
X138409226Y-53133898D01*
X138449000Y-52933939D01*
X138449000Y-52730061D01*
X138409226Y-52530102D01*
X138331205Y-52341744D01*
X138217937Y-52172226D01*
X138073774Y-52028063D01*
X137904256Y-51914795D01*
X137715898Y-51836774D01*
X137515939Y-51797000D01*
X137312061Y-51797000D01*
X137112102Y-51836774D01*
X136923744Y-51914795D01*
X136754226Y-52028063D01*
X136610063Y-52172226D01*
X136496795Y-52341744D01*
X136418774Y-52530102D01*
X136400653Y-52621203D01*
X136400653Y-47435058D01*
X136444590Y-47391121D01*
X136557858Y-47221603D01*
X136635879Y-47033245D01*
X136675653Y-46833286D01*
X136675653Y-46818456D01*
X136908000Y-47050803D01*
X136908001Y-48730668D01*
X136904324Y-48768000D01*
X136908001Y-48805333D01*
X136918998Y-48916986D01*
X136925456Y-48938276D01*
X136962454Y-49060246D01*
X137033026Y-49192276D01*
X137104201Y-49279002D01*
X137128000Y-49308001D01*
X137156998Y-49331799D01*
X137358196Y-49532997D01*
X137381999Y-49562001D01*
X137497724Y-49656974D01*
X137629753Y-49727546D01*
X137773014Y-49771003D01*
X137884667Y-49782000D01*
X137884676Y-49782000D01*
X137921999Y-49785676D01*
X137959322Y-49782000D01*
X141790289Y-49782000D01*
X141834226Y-49825937D01*
X142003744Y-49939205D01*
X142192102Y-50017226D01*
X142392061Y-50057000D01*
X142595939Y-50057000D01*
X142795898Y-50017226D01*
X142984256Y-49939205D01*
X143153774Y-49825937D01*
X143297937Y-49681774D01*
X143411205Y-49512256D01*
X143489226Y-49323898D01*
X143529000Y-49123939D01*
X143529000Y-48920061D01*
X143489226Y-48720102D01*
X143411205Y-48531744D01*
X143297937Y-48362226D01*
X143153774Y-48218063D01*
X142984256Y-48104795D01*
X142795898Y-48026774D01*
X142595939Y-47987000D01*
X142392061Y-47987000D01*
X142192102Y-48026774D01*
X142003744Y-48104795D01*
X141834226Y-48218063D01*
X141790289Y-48262000D01*
X141339356Y-48262000D01*
X141370000Y-48107939D01*
X141370000Y-47904061D01*
X141330226Y-47704102D01*
X141252205Y-47515744D01*
X141138937Y-47346226D01*
X140994774Y-47202063D01*
X140825256Y-47088795D01*
X140636898Y-47010774D01*
X140436939Y-46971000D01*
X140233061Y-46971000D01*
X140033102Y-47010774D01*
X139844744Y-47088795D01*
X139675226Y-47202063D01*
X139631289Y-47246000D01*
X139514711Y-47246000D01*
X139470774Y-47202063D01*
X139301256Y-47088795D01*
X139112898Y-47010774D01*
X138912939Y-46971000D01*
X138709061Y-46971000D01*
X138509102Y-47010774D01*
X138428000Y-47044368D01*
X138428000Y-46773322D01*
X138431676Y-46735999D01*
X138428000Y-46698676D01*
X138428000Y-46698667D01*
X138417003Y-46587014D01*
X138373546Y-46443753D01*
X138302974Y-46311724D01*
X138289811Y-46295685D01*
X138231799Y-46224996D01*
X138231795Y-46224992D01*
X138208001Y-46195999D01*
X138179009Y-46172206D01*
X136091803Y-44085001D01*
X136068000Y-44055998D01*
X135952275Y-43961025D01*
X135820246Y-43890453D01*
X135676985Y-43846996D01*
X135565332Y-43835999D01*
X135565321Y-43835999D01*
X135527999Y-43832323D01*
X135490677Y-43835999D01*
X135083159Y-43835999D01*
X135029205Y-43705744D01*
X134915937Y-43536226D01*
X134771774Y-43392063D01*
X134602256Y-43278795D01*
X134413898Y-43200774D01*
X134213939Y-43161000D01*
X134010061Y-43161000D01*
X133810102Y-43200774D01*
X133621744Y-43278795D01*
X133452226Y-43392063D01*
X133308063Y-43536226D01*
X133194795Y-43705744D01*
X133116774Y-43894102D01*
X133077000Y-44094061D01*
X122680000Y-44094061D01*
X122680000Y-38119000D01*
X122746949Y-38119000D01*
X122946908Y-38079226D01*
X123135266Y-38001205D01*
X123304784Y-37887937D01*
X123348721Y-37844000D01*
X123367235Y-37844000D01*
X123435248Y-37912013D01*
X123604766Y-38025281D01*
X123793124Y-38103302D01*
X123993083Y-38143076D01*
X124196961Y-38143076D01*
X124396920Y-38103302D01*
X124585278Y-38025281D01*
X124754796Y-37912013D01*
X124898959Y-37767850D01*
X125012227Y-37598332D01*
X125090248Y-37409974D01*
X125130022Y-37210015D01*
X125130022Y-37006137D01*
X125090248Y-36806178D01*
X125012227Y-36617820D01*
X124898959Y-36448302D01*
X124770657Y-36320000D01*
X127617315Y-36320000D01*
X127720063Y-36473774D01*
X127864226Y-36617937D01*
X128033744Y-36731205D01*
X128222102Y-36809226D01*
X128422061Y-36849000D01*
X128625939Y-36849000D01*
X128825898Y-36809226D01*
X129014256Y-36731205D01*
X129183774Y-36617937D01*
X129227711Y-36574000D01*
X130518678Y-36574000D01*
X130556000Y-36577676D01*
X130593322Y-36574000D01*
X130593333Y-36574000D01*
X130704986Y-36563003D01*
X130848247Y-36519546D01*
X130980276Y-36448974D01*
X131096001Y-36354001D01*
X131119804Y-36324998D01*
X131611802Y-35833000D01*
X131673939Y-35833000D01*
X131873898Y-35793226D01*
X132062256Y-35715205D01*
X132231774Y-35601937D01*
X132375937Y-35457774D01*
X132489205Y-35288256D01*
X132567226Y-35099898D01*
X132607000Y-34899939D01*
X132607000Y-34696061D01*
X132567226Y-34496102D01*
X132544842Y-34442061D01*
X140951000Y-34442061D01*
X140951000Y-34645939D01*
X140990774Y-34845898D01*
X141068795Y-35034256D01*
X141182063Y-35203774D01*
X141326226Y-35347937D01*
X141495744Y-35461205D01*
X141684102Y-35539226D01*
X141884061Y-35579000D01*
X141946199Y-35579000D01*
X145798000Y-39430803D01*
X145798001Y-41206288D01*
X145754063Y-41250226D01*
X145640795Y-41419744D01*
X145562774Y-41608102D01*
X145523000Y-41808061D01*
X145523000Y-42011939D01*
X145562774Y-42211898D01*
X145640795Y-42400256D01*
X145754063Y-42569774D01*
X145898226Y-42713937D01*
X146067744Y-42827205D01*
X146256102Y-42905226D01*
X146456061Y-42945000D01*
X146659939Y-42945000D01*
X146859898Y-42905226D01*
X147048256Y-42827205D01*
X147217774Y-42713937D01*
X147361937Y-42569774D01*
X147475205Y-42400256D01*
X147553226Y-42211898D01*
X147593000Y-42011939D01*
X147593000Y-41808061D01*
X147553226Y-41608102D01*
X147475205Y-41419744D01*
X147361937Y-41250226D01*
X147318000Y-41206289D01*
X147318000Y-39153322D01*
X147321676Y-39115999D01*
X147318000Y-39078676D01*
X147318000Y-39078667D01*
X147307003Y-38967014D01*
X147263546Y-38823753D01*
X147192974Y-38691724D01*
X147179811Y-38675685D01*
X147121799Y-38604996D01*
X147121795Y-38604992D01*
X147098001Y-38575999D01*
X147069009Y-38552206D01*
X143021000Y-34504199D01*
X143021000Y-34442061D01*
X142981226Y-34242102D01*
X142903205Y-34053744D01*
X142789937Y-33884226D01*
X142645774Y-33740063D01*
X142476256Y-33626795D01*
X142287898Y-33548774D01*
X142087939Y-33509000D01*
X141884061Y-33509000D01*
X141684102Y-33548774D01*
X141495744Y-33626795D01*
X141326226Y-33740063D01*
X141182063Y-33884226D01*
X141068795Y-34053744D01*
X140990774Y-34242102D01*
X140951000Y-34442061D01*
X132544842Y-34442061D01*
X132489205Y-34307744D01*
X132375937Y-34138226D01*
X132231774Y-33994063D01*
X132062256Y-33880795D01*
X131873898Y-33802774D01*
X131673939Y-33763000D01*
X131470061Y-33763000D01*
X131270102Y-33802774D01*
X131081744Y-33880795D01*
X130912226Y-33994063D01*
X130768063Y-34138226D01*
X130654795Y-34307744D01*
X130576774Y-34496102D01*
X130537000Y-34696061D01*
X130537000Y-34758198D01*
X130241199Y-35054000D01*
X129227711Y-35054000D01*
X129183774Y-35010063D01*
X129014256Y-34896795D01*
X128825898Y-34818774D01*
X128625939Y-34779000D01*
X128422061Y-34779000D01*
X128313455Y-34800603D01*
X128307333Y-34800000D01*
X128307322Y-34800000D01*
X128270000Y-34796324D01*
X128232678Y-34800000D01*
X123385711Y-34800000D01*
X123341774Y-34756063D01*
X123172256Y-34642795D01*
X122983898Y-34564774D01*
X122783939Y-34525000D01*
X122680000Y-34525000D01*
X122680000Y-32764000D01*
X147076849Y-32764000D01*
X147086774Y-32813898D01*
X147164795Y-33002256D01*
X147278063Y-33171774D01*
X147422226Y-33315937D01*
X147591744Y-33429205D01*
X147780102Y-33507226D01*
X147980061Y-33547000D01*
X148183939Y-33547000D01*
X148383898Y-33507226D01*
X148572256Y-33429205D01*
X148741774Y-33315937D01*
X148885937Y-33171774D01*
X148999205Y-33002256D01*
X149077226Y-32813898D01*
X149117000Y-32613939D01*
X149117000Y-32410061D01*
X149077226Y-32210102D01*
X148999205Y-32021744D01*
X148885937Y-31852226D01*
X148805869Y-31772158D01*
X148787546Y-31711753D01*
X148716974Y-31579724D01*
X148622001Y-31463999D01*
X148506276Y-31369026D01*
X148374247Y-31298454D01*
X148230986Y-31254997D01*
X148119333Y-31244000D01*
X148082000Y-31240323D01*
X148044667Y-31244000D01*
X141919404Y-31244000D01*
X142033898Y-31221226D01*
X142222256Y-31143205D01*
X142391774Y-31029937D01*
X142535937Y-30885774D01*
X142649205Y-30716256D01*
X142727226Y-30527898D01*
X142767000Y-30327939D01*
X142767000Y-30124061D01*
X142727226Y-29924102D01*
X142649205Y-29735744D01*
X142535937Y-29566226D01*
X142391774Y-29422063D01*
X142222256Y-29308795D01*
X142033898Y-29230774D01*
X141833939Y-29191000D01*
X141630061Y-29191000D01*
X141430102Y-29230774D01*
X141241744Y-29308795D01*
X141072226Y-29422063D01*
X141028289Y-29466000D01*
X122465323Y-29466000D01*
X122428000Y-29462324D01*
X122390677Y-29466000D01*
X122390667Y-29466000D01*
X122279014Y-29476997D01*
X122135753Y-29520454D01*
X122003723Y-29591026D01*
X121954178Y-29631687D01*
X121887999Y-29685999D01*
X121864201Y-29714997D01*
X119884998Y-31694201D01*
X119856000Y-31717999D01*
X119832202Y-31746997D01*
X119832201Y-31746998D01*
X119761026Y-31833724D01*
X119690454Y-31965754D01*
X119646998Y-32109015D01*
X119632324Y-32258000D01*
X119636001Y-32295332D01*
X119636000Y-38843000D01*
X119532061Y-38843000D01*
X119332102Y-38882774D01*
X119143744Y-38960795D01*
X119095546Y-38993000D01*
X118487000Y-38993000D01*
X118487000Y-30269465D01*
X118491281Y-30225999D01*
X118487000Y-30182533D01*
X118487000Y-30182523D01*
X118474195Y-30052510D01*
X118423589Y-29885687D01*
X118341411Y-29731941D01*
X118233000Y-29599843D01*
X118233000Y-29494454D01*
X118265205Y-29446256D01*
X118343226Y-29257898D01*
X118383000Y-29057939D01*
X118383000Y-28854061D01*
X118343226Y-28654102D01*
X118265205Y-28465744D01*
X118151937Y-28296226D01*
X118007774Y-28152063D01*
X117838256Y-28038795D01*
X117649898Y-27960774D01*
X117449939Y-27921000D01*
X117246061Y-27921000D01*
X117046102Y-27960774D01*
X116857744Y-28038795D01*
X116688226Y-28152063D01*
X116544063Y-28296226D01*
X116430795Y-28465744D01*
X116352774Y-28654102D01*
X116313000Y-28854061D01*
X116313000Y-29057939D01*
X116352774Y-29257898D01*
X116430795Y-29446256D01*
X116463000Y-29494455D01*
X116463000Y-29928530D01*
X116458719Y-29972000D01*
X116463000Y-30015469D01*
X116463000Y-30015476D01*
X116475805Y-30145489D01*
X116526411Y-30312312D01*
X116608589Y-30466058D01*
X116717001Y-30598158D01*
X116717000Y-38993000D01*
X109504454Y-38993000D01*
X109456256Y-38960795D01*
X109267898Y-38882774D01*
X109067939Y-38843000D01*
X108864061Y-38843000D01*
X108664102Y-38882774D01*
X108475744Y-38960795D01*
X108306226Y-39074063D01*
X108162063Y-39218226D01*
X108048795Y-39387744D01*
X107970774Y-39576102D01*
X107931000Y-39776061D01*
X107931000Y-39979939D01*
X107970774Y-40179898D01*
X108048795Y-40368256D01*
X108061987Y-40388000D01*
X105701322Y-40388000D01*
X105663999Y-40384324D01*
X105626676Y-40388000D01*
X105626667Y-40388000D01*
X105515014Y-40398997D01*
X105371753Y-40442454D01*
X105239724Y-40513026D01*
X105123999Y-40607999D01*
X105100201Y-40636997D01*
X101850998Y-43886201D01*
X101822000Y-43909999D01*
X101798202Y-43938997D01*
X101798201Y-43938998D01*
X101727026Y-44025724D01*
X101656454Y-44157754D01*
X101635146Y-44228001D01*
X101612998Y-44301014D01*
X101608055Y-44351205D01*
X101598324Y-44450000D01*
X101602001Y-44487332D01*
X101602000Y-47125513D01*
X100580998Y-48146516D01*
X100552000Y-48170314D01*
X100528202Y-48199312D01*
X100528201Y-48199313D01*
X100457026Y-48286039D01*
X100426193Y-48343724D01*
X100386454Y-48418068D01*
X100343013Y-48561276D01*
X100288063Y-48616226D01*
X100174795Y-48785744D01*
X100096774Y-48974102D01*
X100057000Y-49174061D01*
X100057000Y-49377939D01*
X100096774Y-49577898D01*
X100174795Y-49766256D01*
X100288063Y-49935774D01*
X100432226Y-50079937D01*
X100601744Y-50193205D01*
X100790102Y-50271226D01*
X100990061Y-50311000D01*
X101193939Y-50311000D01*
X101393898Y-50271226D01*
X101582256Y-50193205D01*
X101751774Y-50079937D01*
X101895937Y-49935774D01*
X102009205Y-49766256D01*
X102087226Y-49577898D01*
X102127000Y-49377939D01*
X102127000Y-49174061D01*
X102087226Y-48974102D01*
X102033271Y-48843845D01*
X102165989Y-48711127D01*
X102165990Y-54400841D01*
X102035734Y-54454795D01*
X101866216Y-54568063D01*
X101722053Y-54712226D01*
X101608785Y-54881744D01*
X101530764Y-55070102D01*
X101490990Y-55270061D01*
X101490990Y-55473939D01*
X101530764Y-55673898D01*
X101608785Y-55862256D01*
X101722053Y-56031774D01*
X101866216Y-56175937D01*
X102035734Y-56289205D01*
X102224092Y-56367226D01*
X102424051Y-56407000D01*
X102627929Y-56407000D01*
X102827888Y-56367226D01*
X102893375Y-56340100D01*
X102893375Y-58407821D01*
X101252997Y-60048200D01*
X101223999Y-60071998D01*
X101200201Y-60100996D01*
X101200200Y-60100997D01*
X101129025Y-60187723D01*
X101058453Y-60319753D01*
X101032867Y-60404102D01*
X101014997Y-60463013D01*
X101004914Y-60565388D01*
X101000323Y-60611999D01*
X101004000Y-60649331D01*
X101003999Y-65601672D01*
X101000323Y-65638995D01*
X101003999Y-65676317D01*
X101003999Y-65676327D01*
X101014996Y-65787980D01*
X101049540Y-65901857D01*
X101058453Y-65931241D01*
X101117655Y-66042000D01*
X100390802Y-66042000D01*
X100349000Y-66000198D01*
X100349000Y-65938061D01*
X100309226Y-65738102D01*
X100231205Y-65549744D01*
X100117937Y-65380226D01*
X99973774Y-65236063D01*
X99804256Y-65122795D01*
X99615898Y-65044774D01*
X99415939Y-65005000D01*
X99212061Y-65005000D01*
X99012102Y-65044774D01*
X98823744Y-65122795D01*
X98654226Y-65236063D01*
X98510063Y-65380226D01*
X98396795Y-65549744D01*
X98318774Y-65738102D01*
X98279000Y-65938061D01*
X93328366Y-65938061D01*
X93352609Y-65901779D01*
X93472089Y-65613327D01*
X93533000Y-65307109D01*
X93533000Y-64994891D01*
X93472089Y-64688673D01*
X93352609Y-64400221D01*
X93179150Y-64140621D01*
X92958379Y-63919850D01*
X92698779Y-63746391D01*
X92410327Y-63626911D01*
X92104109Y-63566000D01*
X91791891Y-63566000D01*
X91485673Y-63626911D01*
X91197221Y-63746391D01*
X90937621Y-63919850D01*
X90716850Y-64140621D01*
X90543391Y-64400221D01*
X90423911Y-64688673D01*
X90363000Y-64994891D01*
X86736019Y-64994891D01*
X86736478Y-59914891D01*
X90363000Y-59914891D01*
X90363000Y-60227109D01*
X90423911Y-60533327D01*
X90543391Y-60821779D01*
X90716850Y-61081379D01*
X90937621Y-61302150D01*
X91197221Y-61475609D01*
X91485673Y-61595089D01*
X91791891Y-61656000D01*
X92104109Y-61656000D01*
X92410327Y-61595089D01*
X92698779Y-61475609D01*
X92958379Y-61302150D01*
X93179150Y-61081379D01*
X93352609Y-60821779D01*
X93472089Y-60533327D01*
X93533000Y-60227109D01*
X93533000Y-59914891D01*
X93472089Y-59608673D01*
X93352609Y-59320221D01*
X93179150Y-59060621D01*
X92958379Y-58839850D01*
X92698779Y-58666391D01*
X92410327Y-58546911D01*
X92104109Y-58486000D01*
X91791891Y-58486000D01*
X91485673Y-58546911D01*
X91197221Y-58666391D01*
X90937621Y-58839850D01*
X90716850Y-59060621D01*
X90543391Y-59320221D01*
X90423911Y-59608673D01*
X90363000Y-59914891D01*
X86736478Y-59914891D01*
X86736869Y-55582752D01*
X91027853Y-55582752D01*
X91117579Y-55842042D01*
X91398671Y-55977935D01*
X91700873Y-56056379D01*
X92012573Y-56074359D01*
X92321791Y-56031184D01*
X92616644Y-55928513D01*
X92778421Y-55842042D01*
X92868147Y-55582752D01*
X91948000Y-54662605D01*
X91027853Y-55582752D01*
X86736869Y-55582752D01*
X86736963Y-54547573D01*
X90356641Y-54547573D01*
X90399816Y-54856791D01*
X90502487Y-55151644D01*
X90588958Y-55313421D01*
X90848248Y-55403147D01*
X91768395Y-54483000D01*
X92127605Y-54483000D01*
X93047752Y-55403147D01*
X93307042Y-55313421D01*
X93442935Y-55032329D01*
X93521379Y-54730127D01*
X93539359Y-54418427D01*
X93496184Y-54109209D01*
X93393513Y-53814356D01*
X93307042Y-53652579D01*
X93047752Y-53562853D01*
X92127605Y-54483000D01*
X91768395Y-54483000D01*
X90848248Y-53562853D01*
X90588958Y-53652579D01*
X90453065Y-53933671D01*
X90374621Y-54235873D01*
X90356641Y-54547573D01*
X86736963Y-54547573D01*
X86737068Y-53383248D01*
X91027853Y-53383248D01*
X91948000Y-54303395D01*
X92868147Y-53383248D01*
X92778421Y-53123958D01*
X92497329Y-52988065D01*
X92195127Y-52909621D01*
X91883427Y-52891641D01*
X91574209Y-52934816D01*
X91279356Y-53037487D01*
X91117579Y-53123958D01*
X91027853Y-53383248D01*
X86737068Y-53383248D01*
X86737442Y-49246891D01*
X90363000Y-49246891D01*
X90363000Y-49559109D01*
X90423911Y-49865327D01*
X90543391Y-50153779D01*
X90716850Y-50413379D01*
X90937621Y-50634150D01*
X91197221Y-50807609D01*
X91485673Y-50927089D01*
X91791891Y-50988000D01*
X92104109Y-50988000D01*
X92410327Y-50927089D01*
X92698779Y-50807609D01*
X92958379Y-50634150D01*
X93179150Y-50413379D01*
X93352609Y-50153779D01*
X93472089Y-49865327D01*
X93533000Y-49559109D01*
X93533000Y-49428061D01*
X95612000Y-49428061D01*
X95612000Y-49631939D01*
X95651774Y-49831898D01*
X95729795Y-50020256D01*
X95843063Y-50189774D01*
X95987226Y-50333937D01*
X96156744Y-50447205D01*
X96345102Y-50525226D01*
X96545061Y-50565000D01*
X96748939Y-50565000D01*
X96948898Y-50525226D01*
X97137256Y-50447205D01*
X97185454Y-50415000D01*
X98394546Y-50415000D01*
X98442744Y-50447205D01*
X98631102Y-50525226D01*
X98831061Y-50565000D01*
X99034939Y-50565000D01*
X99234898Y-50525226D01*
X99423256Y-50447205D01*
X99592774Y-50333937D01*
X99736937Y-50189774D01*
X99850205Y-50020256D01*
X99928226Y-49831898D01*
X99968000Y-49631939D01*
X99968000Y-49428061D01*
X99928226Y-49228102D01*
X99850205Y-49039744D01*
X99736937Y-48870226D01*
X99592774Y-48726063D01*
X99423256Y-48612795D01*
X99234898Y-48534774D01*
X99034939Y-48495000D01*
X98831061Y-48495000D01*
X98631102Y-48534774D01*
X98442744Y-48612795D01*
X98394546Y-48645000D01*
X97185454Y-48645000D01*
X97137256Y-48612795D01*
X96948898Y-48534774D01*
X96748939Y-48495000D01*
X96545061Y-48495000D01*
X96345102Y-48534774D01*
X96156744Y-48612795D01*
X95987226Y-48726063D01*
X95843063Y-48870226D01*
X95729795Y-49039744D01*
X95651774Y-49228102D01*
X95612000Y-49428061D01*
X93533000Y-49428061D01*
X93533000Y-49246891D01*
X93472089Y-48940673D01*
X93352609Y-48652221D01*
X93179150Y-48392621D01*
X92958379Y-48171850D01*
X92698779Y-47998391D01*
X92410327Y-47878911D01*
X92104109Y-47818000D01*
X91791891Y-47818000D01*
X91485673Y-47878911D01*
X91197221Y-47998391D01*
X90937621Y-48171850D01*
X90716850Y-48392621D01*
X90543391Y-48652221D01*
X90423911Y-48940673D01*
X90363000Y-49246891D01*
X86737442Y-49246891D01*
X86737901Y-44166891D01*
X90363000Y-44166891D01*
X90363000Y-44479109D01*
X90423911Y-44785327D01*
X90543391Y-45073779D01*
X90716850Y-45333379D01*
X90937621Y-45554150D01*
X91197221Y-45727609D01*
X91485673Y-45847089D01*
X91791891Y-45908000D01*
X92104109Y-45908000D01*
X92410327Y-45847089D01*
X92698779Y-45727609D01*
X92958379Y-45554150D01*
X93179150Y-45333379D01*
X93352609Y-45073779D01*
X93472089Y-44785327D01*
X93533000Y-44479109D01*
X93533000Y-44166891D01*
X93472089Y-43860673D01*
X93352609Y-43572221D01*
X93179150Y-43312621D01*
X92958379Y-43091850D01*
X92698779Y-42918391D01*
X92410327Y-42798911D01*
X92104109Y-42738000D01*
X91791891Y-42738000D01*
X91485673Y-42798911D01*
X91197221Y-42918391D01*
X90937621Y-43091850D01*
X90716850Y-43312621D01*
X90543391Y-43572221D01*
X90423911Y-43860673D01*
X90363000Y-44166891D01*
X86737901Y-44166891D01*
X86738140Y-41529000D01*
X102162000Y-41529000D01*
X102186776Y-41526560D01*
X102210601Y-41519333D01*
X102552022Y-41377912D01*
X102573978Y-41366176D01*
X102593224Y-41350382D01*
X103580382Y-40363224D01*
X103596176Y-40343978D01*
X103607912Y-40322022D01*
X103749333Y-39980601D01*
X103756560Y-39956776D01*
X103759000Y-39932000D01*
X103759000Y-27735000D01*
X151079857Y-27735000D01*
X151079857Y-31494000D01*
G36*
X107163226Y-42713937D02*
G01*
X107332744Y-42827205D01*
X107457214Y-42878763D01*
X107413795Y-42943744D01*
X107335774Y-43132102D01*
X107296000Y-43332061D01*
X107296000Y-43535939D01*
X107322467Y-43669000D01*
X107213061Y-43669000D01*
X107013102Y-43708774D01*
X106824744Y-43786795D01*
X106655226Y-43900063D01*
X106511063Y-44044226D01*
X106397795Y-44213744D01*
X106319774Y-44402102D01*
X106280000Y-44602061D01*
X106280000Y-44664198D01*
X105534003Y-45410196D01*
X105504999Y-45433999D01*
X105449871Y-45501174D01*
X105410026Y-45549724D01*
X105370169Y-45624291D01*
X105339454Y-45681754D01*
X105295997Y-45825015D01*
X105285000Y-45936668D01*
X105285000Y-45936678D01*
X105281324Y-45974000D01*
X105285000Y-46011322D01*
X105285001Y-66860288D01*
X105241063Y-66904226D01*
X105127795Y-67073744D01*
X105049774Y-67262102D01*
X105010000Y-67462061D01*
X105010000Y-67546206D01*
X105003939Y-67545000D01*
X104800061Y-67545000D01*
X104600102Y-67584774D01*
X104411744Y-67662795D01*
X104242226Y-67776063D01*
X104098063Y-67920226D01*
X104039319Y-68008143D01*
X104039319Y-66166317D01*
X104042995Y-66128994D01*
X104039319Y-66091672D01*
X104039319Y-66091662D01*
X104028322Y-65980009D01*
X103984865Y-65836748D01*
X103914320Y-65704770D01*
X103914320Y-65627057D01*
X103874546Y-65427098D01*
X103796525Y-65238740D01*
X103683257Y-65069222D01*
X103539094Y-64925059D01*
X103369576Y-64811791D01*
X103181218Y-64733770D01*
X102981259Y-64693996D01*
X102777381Y-64693996D01*
X102577422Y-64733770D01*
X102523999Y-64755899D01*
X102523999Y-60926800D01*
X104164379Y-59286421D01*
X104193376Y-59262624D01*
X104288349Y-59146899D01*
X104358921Y-59014870D01*
X104402378Y-58871609D01*
X104413375Y-58759956D01*
X104413375Y-58759947D01*
X104417051Y-58722624D01*
X104413375Y-58685301D01*
X104413375Y-45524065D01*
X104457312Y-45480128D01*
X104570580Y-45310610D01*
X104648601Y-45122252D01*
X104688375Y-44922293D01*
X104688375Y-44718415D01*
X104648601Y-44518456D01*
X104570580Y-44330098D01*
X104457312Y-44160580D01*
X104409972Y-44113240D01*
X105853212Y-42670000D01*
X107119289Y-42670000D01*
X107163226Y-42713937D01*
X107163226Y-42713937D01*
G37*
X107163226Y-42713937D02*
X107332744Y-42827205D01*
X107457214Y-42878763D01*
X107413795Y-42943744D01*
X107335774Y-43132102D01*
X107296000Y-43332061D01*
X107296000Y-43535939D01*
X107322467Y-43669000D01*
X107213061Y-43669000D01*
X107013102Y-43708774D01*
X106824744Y-43786795D01*
X106655226Y-43900063D01*
X106511063Y-44044226D01*
X106397795Y-44213744D01*
X106319774Y-44402102D01*
X106280000Y-44602061D01*
X106280000Y-44664198D01*
X105534003Y-45410196D01*
X105504999Y-45433999D01*
X105449871Y-45501174D01*
X105410026Y-45549724D01*
X105370169Y-45624291D01*
X105339454Y-45681754D01*
X105295997Y-45825015D01*
X105285000Y-45936668D01*
X105285000Y-45936678D01*
X105281324Y-45974000D01*
X105285000Y-46011322D01*
X105285001Y-66860288D01*
X105241063Y-66904226D01*
X105127795Y-67073744D01*
X105049774Y-67262102D01*
X105010000Y-67462061D01*
X105010000Y-67546206D01*
X105003939Y-67545000D01*
X104800061Y-67545000D01*
X104600102Y-67584774D01*
X104411744Y-67662795D01*
X104242226Y-67776063D01*
X104098063Y-67920226D01*
X104039319Y-68008143D01*
X104039319Y-66166317D01*
X104042995Y-66128994D01*
X104039319Y-66091672D01*
X104039319Y-66091662D01*
X104028322Y-65980009D01*
X103984865Y-65836748D01*
X103914320Y-65704770D01*
X103914320Y-65627057D01*
X103874546Y-65427098D01*
X103796525Y-65238740D01*
X103683257Y-65069222D01*
X103539094Y-64925059D01*
X103369576Y-64811791D01*
X103181218Y-64733770D01*
X102981259Y-64693996D01*
X102777381Y-64693996D01*
X102577422Y-64733770D01*
X102523999Y-64755899D01*
X102523999Y-60926800D01*
X104164379Y-59286421D01*
X104193376Y-59262624D01*
X104288349Y-59146899D01*
X104358921Y-59014870D01*
X104402378Y-58871609D01*
X104413375Y-58759956D01*
X104413375Y-58759947D01*
X104417051Y-58722624D01*
X104413375Y-58685301D01*
X104413375Y-45524065D01*
X104457312Y-45480128D01*
X104570580Y-45310610D01*
X104648601Y-45122252D01*
X104688375Y-44922293D01*
X104688375Y-44718415D01*
X104648601Y-44518456D01*
X104570580Y-44330098D01*
X104457312Y-44160580D01*
X104409972Y-44113240D01*
X105853212Y-42670000D01*
X107119289Y-42670000D01*
X107163226Y-42713937D01*
M02*
