G04 #@! TF.GenerationSoftware,KiCad,Pcbnew,(5.1.4)-1*
G04 #@! TF.CreationDate,2020-10-31T11:52:51+01:00*
G04 #@! TF.ProjectId,BSPD_v_1_0b,42535044-5f76-45f3-915f-30622e6b6963,rev?*
G04 #@! TF.SameCoordinates,Original*
G04 #@! TF.FileFunction,Legend,Bot*
G04 #@! TF.FilePolarity,Positive*
%FSLAX46Y46*%
G04 Gerber Fmt 4.6, Leading zero omitted, Abs format (unit mm)*
G04 Created by KiCad (PCBNEW (5.1.4)-1) date 2020-10-31 11:52:51*
%MOMM*%
%LPD*%
G04 APERTURE LIST*
%ADD10C,0.500000*%
%ADD11C,0.150000*%
%ADD12C,0.010000*%
%ADD13C,1.900000*%
%ADD14C,1.524000*%
G04 APERTURE END LIST*
D10*
X153526642Y-70112142D02*
X153526642Y-72540714D01*
X153383785Y-72826428D01*
X153240928Y-72969285D01*
X152955214Y-73112142D01*
X152383785Y-73112142D01*
X152098071Y-72969285D01*
X151955214Y-72826428D01*
X151812357Y-72540714D01*
X151812357Y-70112142D01*
X150383785Y-73112142D02*
X150383785Y-70112142D01*
X149383785Y-72255000D01*
X148383785Y-70112142D01*
X148383785Y-73112142D01*
X147098071Y-72255000D02*
X145669500Y-72255000D01*
X147383785Y-73112142D02*
X146383785Y-70112142D01*
X145383785Y-73112142D01*
D11*
X100059547Y-74826880D02*
X100059547Y-75541166D01*
X100107166Y-75684023D01*
X100202404Y-75779261D01*
X100345261Y-75826880D01*
X100440500Y-75826880D01*
X99107166Y-75826880D02*
X99583357Y-75826880D01*
X99583357Y-74826880D01*
X98202404Y-75731642D02*
X98250023Y-75779261D01*
X98392880Y-75826880D01*
X98488119Y-75826880D01*
X98630976Y-75779261D01*
X98726214Y-75684023D01*
X98773833Y-75588785D01*
X98821452Y-75398309D01*
X98821452Y-75255452D01*
X98773833Y-75064976D01*
X98726214Y-74969738D01*
X98630976Y-74874500D01*
X98488119Y-74826880D01*
X98392880Y-74826880D01*
X98250023Y-74874500D01*
X98202404Y-74922119D01*
X97488119Y-74826880D02*
X97488119Y-75541166D01*
X97535738Y-75684023D01*
X97630976Y-75779261D01*
X97773833Y-75826880D01*
X97869071Y-75826880D01*
X96535738Y-75826880D02*
X97011928Y-75826880D01*
X97011928Y-74826880D01*
X95630976Y-75731642D02*
X95678595Y-75779261D01*
X95821452Y-75826880D01*
X95916690Y-75826880D01*
X96059547Y-75779261D01*
X96154785Y-75684023D01*
X96202404Y-75588785D01*
X96250023Y-75398309D01*
X96250023Y-75255452D01*
X96202404Y-75064976D01*
X96154785Y-74969738D01*
X96059547Y-74874500D01*
X95916690Y-74826880D01*
X95821452Y-74826880D01*
X95678595Y-74874500D01*
X95630976Y-74922119D01*
X94916690Y-74826880D02*
X94916690Y-75541166D01*
X94964309Y-75684023D01*
X95059547Y-75779261D01*
X95202404Y-75826880D01*
X95297642Y-75826880D01*
X93964309Y-75826880D02*
X94440500Y-75826880D01*
X94440500Y-74826880D01*
X93059547Y-75731642D02*
X93107166Y-75779261D01*
X93250023Y-75826880D01*
X93345261Y-75826880D01*
X93488119Y-75779261D01*
X93583357Y-75684023D01*
X93630976Y-75588785D01*
X93678595Y-75398309D01*
X93678595Y-75255452D01*
X93630976Y-75064976D01*
X93583357Y-74969738D01*
X93488119Y-74874500D01*
X93345261Y-74826880D01*
X93250023Y-74826880D01*
X93107166Y-74874500D01*
X93059547Y-74922119D01*
X92345261Y-74826880D02*
X92345261Y-75541166D01*
X92392880Y-75684023D01*
X92488119Y-75779261D01*
X92630976Y-75826880D01*
X92726214Y-75826880D01*
X91392880Y-75826880D02*
X91869071Y-75826880D01*
X91869071Y-74826880D01*
X90488119Y-75731642D02*
X90535738Y-75779261D01*
X90678595Y-75826880D01*
X90773833Y-75826880D01*
X90916690Y-75779261D01*
X91011928Y-75684023D01*
X91059547Y-75588785D01*
X91107166Y-75398309D01*
X91107166Y-75255452D01*
X91059547Y-75064976D01*
X91011928Y-74969738D01*
X90916690Y-74874500D01*
X90773833Y-74826880D01*
X90678595Y-74826880D01*
X90535738Y-74874500D01*
X90488119Y-74922119D01*
X107965857Y-34821880D02*
X108442047Y-34821880D01*
X108489666Y-35298071D01*
X108442047Y-35250452D01*
X108346809Y-35202833D01*
X108108714Y-35202833D01*
X108013476Y-35250452D01*
X107965857Y-35298071D01*
X107918238Y-35393309D01*
X107918238Y-35631404D01*
X107965857Y-35726642D01*
X108013476Y-35774261D01*
X108108714Y-35821880D01*
X108346809Y-35821880D01*
X108442047Y-35774261D01*
X108489666Y-35726642D01*
X107584904Y-35155214D02*
X107346809Y-35821880D01*
X107108714Y-35155214D01*
X93797500Y-38862095D02*
X93749880Y-38766857D01*
X93749880Y-38624000D01*
X93797500Y-38481142D01*
X93892738Y-38385904D01*
X93987976Y-38338285D01*
X94178452Y-38290666D01*
X94321309Y-38290666D01*
X94511785Y-38338285D01*
X94607023Y-38385904D01*
X94702261Y-38481142D01*
X94749880Y-38624000D01*
X94749880Y-38719238D01*
X94702261Y-38862095D01*
X94654642Y-38909714D01*
X94321309Y-38909714D01*
X94321309Y-38719238D01*
X94749880Y-39338285D02*
X93749880Y-39338285D01*
X94749880Y-39909714D01*
X93749880Y-39909714D01*
X94749880Y-40385904D02*
X93749880Y-40385904D01*
X93749880Y-40624000D01*
X93797500Y-40766857D01*
X93892738Y-40862095D01*
X93987976Y-40909714D01*
X94178452Y-40957333D01*
X94321309Y-40957333D01*
X94511785Y-40909714D01*
X94607023Y-40862095D01*
X94702261Y-40766857D01*
X94749880Y-40624000D01*
X94749880Y-40385904D01*
X161043928Y-40957547D02*
X161043928Y-41719452D01*
X161607452Y-50172928D02*
X160845547Y-50172928D01*
X161226500Y-50553880D02*
X161226500Y-49791976D01*
X163409261Y-42061238D02*
X163456880Y-42204095D01*
X163456880Y-42442190D01*
X163409261Y-42537428D01*
X163361642Y-42585047D01*
X163266404Y-42632666D01*
X163171166Y-42632666D01*
X163075928Y-42585047D01*
X163028309Y-42537428D01*
X162980690Y-42442190D01*
X162933071Y-42251714D01*
X162885452Y-42156476D01*
X162837833Y-42108857D01*
X162742595Y-42061238D01*
X162647357Y-42061238D01*
X162552119Y-42108857D01*
X162504500Y-42156476D01*
X162456880Y-42251714D01*
X162456880Y-42489809D01*
X162504500Y-42632666D01*
X163456880Y-43061238D02*
X162456880Y-43061238D01*
X163456880Y-43489809D02*
X162933071Y-43489809D01*
X162837833Y-43442190D01*
X162790214Y-43346952D01*
X162790214Y-43204095D01*
X162837833Y-43108857D01*
X162885452Y-43061238D01*
X162790214Y-44394571D02*
X163456880Y-44394571D01*
X162790214Y-43966000D02*
X163314023Y-43966000D01*
X163409261Y-44013619D01*
X163456880Y-44108857D01*
X163456880Y-44251714D01*
X163409261Y-44346952D01*
X163361642Y-44394571D01*
X162790214Y-44727904D02*
X162790214Y-45108857D01*
X162456880Y-44870761D02*
X163314023Y-44870761D01*
X163409261Y-44918380D01*
X163456880Y-45013619D01*
X163456880Y-45108857D01*
X163456880Y-45442190D02*
X162456880Y-45442190D01*
X162456880Y-45680285D01*
X162504500Y-45823142D01*
X162599738Y-45918380D01*
X162694976Y-45966000D01*
X162885452Y-46013619D01*
X163028309Y-46013619D01*
X163218785Y-45966000D01*
X163314023Y-45918380D01*
X163409261Y-45823142D01*
X163456880Y-45680285D01*
X163456880Y-45442190D01*
X163456880Y-46585047D02*
X163409261Y-46489809D01*
X163361642Y-46442190D01*
X163266404Y-46394571D01*
X162980690Y-46394571D01*
X162885452Y-46442190D01*
X162837833Y-46489809D01*
X162790214Y-46585047D01*
X162790214Y-46727904D01*
X162837833Y-46823142D01*
X162885452Y-46870761D01*
X162980690Y-46918380D01*
X163266404Y-46918380D01*
X163361642Y-46870761D01*
X163409261Y-46823142D01*
X163456880Y-46727904D01*
X163456880Y-46585047D01*
X162790214Y-47251714D02*
X163456880Y-47442190D01*
X162980690Y-47632666D01*
X163456880Y-47823142D01*
X162790214Y-48013619D01*
X162790214Y-48394571D02*
X163456880Y-48394571D01*
X162885452Y-48394571D02*
X162837833Y-48442190D01*
X162790214Y-48537428D01*
X162790214Y-48680285D01*
X162837833Y-48775523D01*
X162933071Y-48823142D01*
X163456880Y-48823142D01*
X88384071Y-62769976D02*
X88431690Y-62912833D01*
X88479309Y-62960452D01*
X88574547Y-63008071D01*
X88717404Y-63008071D01*
X88812642Y-62960452D01*
X88860261Y-62912833D01*
X88907880Y-62817595D01*
X88907880Y-62436642D01*
X87907880Y-62436642D01*
X87907880Y-62769976D01*
X87955500Y-62865214D01*
X88003119Y-62912833D01*
X88098357Y-62960452D01*
X88193595Y-62960452D01*
X88288833Y-62912833D01*
X88336452Y-62865214D01*
X88384071Y-62769976D01*
X88384071Y-62436642D01*
X88907880Y-64008071D02*
X88431690Y-63674738D01*
X88907880Y-63436642D02*
X87907880Y-63436642D01*
X87907880Y-63817595D01*
X87955500Y-63912833D01*
X88003119Y-63960452D01*
X88098357Y-64008071D01*
X88241214Y-64008071D01*
X88336452Y-63960452D01*
X88384071Y-63912833D01*
X88431690Y-63817595D01*
X88431690Y-63436642D01*
X88622166Y-64389023D02*
X88622166Y-64865214D01*
X88907880Y-64293785D02*
X87907880Y-64627119D01*
X88907880Y-64960452D01*
X88907880Y-65293785D02*
X87907880Y-65293785D01*
X88907880Y-65865214D02*
X88336452Y-65436642D01*
X87907880Y-65865214D02*
X88479309Y-65293785D01*
X88384071Y-66293785D02*
X88384071Y-66627119D01*
X88907880Y-66769976D02*
X88907880Y-66293785D01*
X87907880Y-66293785D01*
X87907880Y-66769976D01*
X88939666Y-48482404D02*
X88939666Y-48958595D01*
X89225380Y-48387166D02*
X88225380Y-48720500D01*
X89225380Y-49053833D01*
X89225380Y-49387166D02*
X88225380Y-49387166D01*
X88225380Y-49768119D01*
X88273000Y-49863357D01*
X88320619Y-49910976D01*
X88415857Y-49958595D01*
X88558714Y-49958595D01*
X88653952Y-49910976D01*
X88701571Y-49863357D01*
X88749190Y-49768119D01*
X88749190Y-49387166D01*
X89225380Y-50387166D02*
X88225380Y-50387166D01*
X88225380Y-50768119D01*
X88273000Y-50863357D01*
X88320619Y-50910976D01*
X88415857Y-50958595D01*
X88558714Y-50958595D01*
X88653952Y-50910976D01*
X88701571Y-50863357D01*
X88749190Y-50768119D01*
X88749190Y-50387166D01*
X91058952Y-31440428D02*
X90297047Y-31440428D01*
X90678000Y-31821380D02*
X90678000Y-31059476D01*
X88971380Y-34861714D02*
X88971380Y-34290285D01*
X88971380Y-34576000D02*
X87971380Y-34576000D01*
X88114238Y-34480761D01*
X88209476Y-34385523D01*
X88257095Y-34290285D01*
X88066619Y-35242666D02*
X88019000Y-35290285D01*
X87971380Y-35385523D01*
X87971380Y-35623619D01*
X88019000Y-35718857D01*
X88066619Y-35766476D01*
X88161857Y-35814095D01*
X88257095Y-35814095D01*
X88399952Y-35766476D01*
X88971380Y-35195047D01*
X88971380Y-35814095D01*
X88304714Y-36147428D02*
X88971380Y-36385523D01*
X88304714Y-36623619D01*
X88971380Y-37766476D02*
X87971380Y-37766476D01*
X88971380Y-38242666D02*
X87971380Y-38242666D01*
X88971380Y-38814095D01*
X87971380Y-38814095D01*
X150200738Y-28567071D02*
X150057880Y-28614690D01*
X150010261Y-28662309D01*
X149962642Y-28757547D01*
X149962642Y-28900404D01*
X150010261Y-28995642D01*
X150057880Y-29043261D01*
X150153119Y-29090880D01*
X150534071Y-29090880D01*
X150534071Y-28090880D01*
X150200738Y-28090880D01*
X150105500Y-28138500D01*
X150057880Y-28186119D01*
X150010261Y-28281357D01*
X150010261Y-28376595D01*
X150057880Y-28471833D01*
X150105500Y-28519452D01*
X150200738Y-28567071D01*
X150534071Y-28567071D01*
X149581690Y-29043261D02*
X149438833Y-29090880D01*
X149200738Y-29090880D01*
X149105500Y-29043261D01*
X149057880Y-28995642D01*
X149010261Y-28900404D01*
X149010261Y-28805166D01*
X149057880Y-28709928D01*
X149105500Y-28662309D01*
X149200738Y-28614690D01*
X149391214Y-28567071D01*
X149486452Y-28519452D01*
X149534071Y-28471833D01*
X149581690Y-28376595D01*
X149581690Y-28281357D01*
X149534071Y-28186119D01*
X149486452Y-28138500D01*
X149391214Y-28090880D01*
X149153119Y-28090880D01*
X149010261Y-28138500D01*
X148581690Y-29090880D02*
X148581690Y-28090880D01*
X148200738Y-28090880D01*
X148105500Y-28138500D01*
X148057880Y-28186119D01*
X148010261Y-28281357D01*
X148010261Y-28424214D01*
X148057880Y-28519452D01*
X148105500Y-28567071D01*
X148200738Y-28614690D01*
X148581690Y-28614690D01*
X147581690Y-29090880D02*
X147581690Y-28090880D01*
X147343595Y-28090880D01*
X147200738Y-28138500D01*
X147105500Y-28233738D01*
X147057880Y-28328976D01*
X147010261Y-28519452D01*
X147010261Y-28662309D01*
X147057880Y-28852785D01*
X147105500Y-28948023D01*
X147200738Y-29043261D01*
X147343595Y-29090880D01*
X147581690Y-29090880D01*
X146819785Y-29186119D02*
X146057880Y-29186119D01*
X145962642Y-28090880D02*
X145629309Y-29090880D01*
X145295976Y-28090880D01*
X144438833Y-29090880D02*
X145010261Y-29090880D01*
X144724547Y-29090880D02*
X144724547Y-28090880D01*
X144819785Y-28233738D01*
X144915023Y-28328976D01*
X145010261Y-28376595D01*
X144010261Y-28995642D02*
X143962642Y-29043261D01*
X144010261Y-29090880D01*
X144057880Y-29043261D01*
X144010261Y-28995642D01*
X144010261Y-29090880D01*
X143343595Y-28090880D02*
X143248357Y-28090880D01*
X143153119Y-28138500D01*
X143105500Y-28186119D01*
X143057880Y-28281357D01*
X143010261Y-28471833D01*
X143010261Y-28709928D01*
X143057880Y-28900404D01*
X143105500Y-28995642D01*
X143153119Y-29043261D01*
X143248357Y-29090880D01*
X143343595Y-29090880D01*
X143438833Y-29043261D01*
X143486452Y-28995642D01*
X143534071Y-28900404D01*
X143581690Y-28709928D01*
X143581690Y-28471833D01*
X143534071Y-28281357D01*
X143486452Y-28186119D01*
X143438833Y-28138500D01*
X143343595Y-28090880D01*
X142581690Y-28995642D02*
X142534071Y-29043261D01*
X142581690Y-29090880D01*
X142629309Y-29043261D01*
X142581690Y-28995642D01*
X142581690Y-29090880D01*
X141915023Y-28090880D02*
X141819785Y-28090880D01*
X141724547Y-28138500D01*
X141676928Y-28186119D01*
X141629309Y-28281357D01*
X141581690Y-28471833D01*
X141581690Y-28709928D01*
X141629309Y-28900404D01*
X141676928Y-28995642D01*
X141724547Y-29043261D01*
X141819785Y-29090880D01*
X141915023Y-29090880D01*
X142010261Y-29043261D01*
X142057880Y-28995642D01*
X142105500Y-28900404D01*
X142153119Y-28709928D01*
X142153119Y-28471833D01*
X142105500Y-28281357D01*
X142057880Y-28186119D01*
X142010261Y-28138500D01*
X141915023Y-28090880D01*
X140962642Y-28090880D02*
X140867404Y-28090880D01*
X140772166Y-28138500D01*
X140724547Y-28186119D01*
X140676928Y-28281357D01*
X140629309Y-28471833D01*
X140629309Y-28709928D01*
X140676928Y-28900404D01*
X140724547Y-28995642D01*
X140772166Y-29043261D01*
X140867404Y-29090880D01*
X140962642Y-29090880D01*
X141057880Y-29043261D01*
X141105500Y-28995642D01*
X141153119Y-28900404D01*
X141200738Y-28709928D01*
X141200738Y-28471833D01*
X141153119Y-28281357D01*
X141105500Y-28186119D01*
X141057880Y-28138500D01*
X140962642Y-28090880D01*
D12*
G36*
X115912900Y-58359631D02*
G01*
X115911942Y-58741216D01*
X115907718Y-59035807D01*
X115898198Y-59258002D01*
X115881355Y-59422399D01*
X115855158Y-59543597D01*
X115817580Y-59636195D01*
X115766591Y-59714789D01*
X115716090Y-59775897D01*
X115601353Y-59871205D01*
X115445102Y-59959283D01*
X115285903Y-60022104D01*
X115162323Y-60041642D01*
X115150900Y-60040066D01*
X115089871Y-60025006D01*
X114970020Y-59993809D01*
X114933458Y-59984138D01*
X114727794Y-59878678D01*
X114565934Y-59688833D01*
X114456472Y-59425519D01*
X114439911Y-59357118D01*
X114422281Y-59219447D01*
X114408912Y-59004347D01*
X114400684Y-58735933D01*
X114398474Y-58438320D01*
X114400199Y-58267600D01*
X114414300Y-57429400D01*
X114769900Y-57429400D01*
X114795300Y-58402128D01*
X114805186Y-58745001D01*
X114815530Y-59001082D01*
X114828009Y-59185170D01*
X114844296Y-59312065D01*
X114866067Y-59396568D01*
X114894996Y-59453478D01*
X114917473Y-59481628D01*
X115058966Y-59569896D01*
X115228982Y-59584202D01*
X115386387Y-59524546D01*
X115435126Y-59481617D01*
X115469384Y-59434437D01*
X115495436Y-59368920D01*
X115514957Y-59270266D01*
X115529621Y-59123675D01*
X115541104Y-58914347D01*
X115551081Y-58627480D01*
X115557300Y-58402117D01*
X115582700Y-57429400D01*
X115912900Y-57397562D01*
X115912900Y-58359631D01*
X115912900Y-58359631D01*
G37*
X115912900Y-58359631D02*
X115911942Y-58741216D01*
X115907718Y-59035807D01*
X115898198Y-59258002D01*
X115881355Y-59422399D01*
X115855158Y-59543597D01*
X115817580Y-59636195D01*
X115766591Y-59714789D01*
X115716090Y-59775897D01*
X115601353Y-59871205D01*
X115445102Y-59959283D01*
X115285903Y-60022104D01*
X115162323Y-60041642D01*
X115150900Y-60040066D01*
X115089871Y-60025006D01*
X114970020Y-59993809D01*
X114933458Y-59984138D01*
X114727794Y-59878678D01*
X114565934Y-59688833D01*
X114456472Y-59425519D01*
X114439911Y-59357118D01*
X114422281Y-59219447D01*
X114408912Y-59004347D01*
X114400684Y-58735933D01*
X114398474Y-58438320D01*
X114400199Y-58267600D01*
X114414300Y-57429400D01*
X114769900Y-57429400D01*
X114795300Y-58402128D01*
X114805186Y-58745001D01*
X114815530Y-59001082D01*
X114828009Y-59185170D01*
X114844296Y-59312065D01*
X114866067Y-59396568D01*
X114894996Y-59453478D01*
X114917473Y-59481628D01*
X115058966Y-59569896D01*
X115228982Y-59584202D01*
X115386387Y-59524546D01*
X115435126Y-59481617D01*
X115469384Y-59434437D01*
X115495436Y-59368920D01*
X115514957Y-59270266D01*
X115529621Y-59123675D01*
X115541104Y-58914347D01*
X115551081Y-58627480D01*
X115557300Y-58402117D01*
X115582700Y-57429400D01*
X115912900Y-57397562D01*
X115912900Y-58359631D01*
G36*
X120990898Y-57441196D02*
G01*
X121194255Y-57555040D01*
X121338665Y-57748917D01*
X121351376Y-57775668D01*
X121437816Y-58064463D01*
X121425494Y-58336955D01*
X121366306Y-58505027D01*
X121260280Y-58666987D01*
X121103020Y-58793848D01*
X120872413Y-58902028D01*
X120792729Y-58930847D01*
X120586741Y-59033218D01*
X120470012Y-59163368D01*
X120447029Y-59314086D01*
X120486484Y-59423300D01*
X120599115Y-59541488D01*
X120743356Y-59586189D01*
X120891299Y-59564174D01*
X121015039Y-59482219D01*
X121086668Y-59347096D01*
X121094500Y-59275726D01*
X121105544Y-59177910D01*
X121159212Y-59138239D01*
X121269301Y-59131200D01*
X121393432Y-59141431D01*
X121465093Y-59166433D01*
X121468161Y-59170126D01*
X121479679Y-59262079D01*
X121456191Y-59409159D01*
X121407841Y-59575477D01*
X121344771Y-59725141D01*
X121286402Y-59813264D01*
X121181539Y-59889755D01*
X121030222Y-59964829D01*
X120873748Y-60021328D01*
X120753415Y-60042095D01*
X120738900Y-60040735D01*
X120677744Y-60025171D01*
X120560118Y-59992437D01*
X120536085Y-59985575D01*
X120312976Y-59872608D01*
X120150264Y-59686571D01*
X120055174Y-59440965D01*
X120034933Y-59149295D01*
X120043227Y-59064482D01*
X120120197Y-58852112D01*
X120282570Y-58666246D01*
X120514774Y-58522137D01*
X120648475Y-58471652D01*
X120854271Y-58377676D01*
X120988811Y-58253333D01*
X121044489Y-58113447D01*
X121013699Y-57972841D01*
X120946592Y-57890665D01*
X120801564Y-57816686D01*
X120652899Y-57832365D01*
X120528870Y-57930899D01*
X120488432Y-58000900D01*
X120420683Y-58116031D01*
X120329834Y-58160767D01*
X120247132Y-58166000D01*
X120130502Y-58147888D01*
X120080315Y-58084486D01*
X120093125Y-57962188D01*
X120153420Y-57795897D01*
X120289226Y-57579083D01*
X120478973Y-57448160D01*
X120721388Y-57404001D01*
X120722873Y-57404000D01*
X120990898Y-57441196D01*
X120990898Y-57441196D01*
G37*
X120990898Y-57441196D02*
X121194255Y-57555040D01*
X121338665Y-57748917D01*
X121351376Y-57775668D01*
X121437816Y-58064463D01*
X121425494Y-58336955D01*
X121366306Y-58505027D01*
X121260280Y-58666987D01*
X121103020Y-58793848D01*
X120872413Y-58902028D01*
X120792729Y-58930847D01*
X120586741Y-59033218D01*
X120470012Y-59163368D01*
X120447029Y-59314086D01*
X120486484Y-59423300D01*
X120599115Y-59541488D01*
X120743356Y-59586189D01*
X120891299Y-59564174D01*
X121015039Y-59482219D01*
X121086668Y-59347096D01*
X121094500Y-59275726D01*
X121105544Y-59177910D01*
X121159212Y-59138239D01*
X121269301Y-59131200D01*
X121393432Y-59141431D01*
X121465093Y-59166433D01*
X121468161Y-59170126D01*
X121479679Y-59262079D01*
X121456191Y-59409159D01*
X121407841Y-59575477D01*
X121344771Y-59725141D01*
X121286402Y-59813264D01*
X121181539Y-59889755D01*
X121030222Y-59964829D01*
X120873748Y-60021328D01*
X120753415Y-60042095D01*
X120738900Y-60040735D01*
X120677744Y-60025171D01*
X120560118Y-59992437D01*
X120536085Y-59985575D01*
X120312976Y-59872608D01*
X120150264Y-59686571D01*
X120055174Y-59440965D01*
X120034933Y-59149295D01*
X120043227Y-59064482D01*
X120120197Y-58852112D01*
X120282570Y-58666246D01*
X120514774Y-58522137D01*
X120648475Y-58471652D01*
X120854271Y-58377676D01*
X120988811Y-58253333D01*
X121044489Y-58113447D01*
X121013699Y-57972841D01*
X120946592Y-57890665D01*
X120801564Y-57816686D01*
X120652899Y-57832365D01*
X120528870Y-57930899D01*
X120488432Y-58000900D01*
X120420683Y-58116031D01*
X120329834Y-58160767D01*
X120247132Y-58166000D01*
X120130502Y-58147888D01*
X120080315Y-58084486D01*
X120093125Y-57962188D01*
X120153420Y-57795897D01*
X120289226Y-57579083D01*
X120478973Y-57448160D01*
X120721388Y-57404001D01*
X120722873Y-57404000D01*
X120990898Y-57441196D01*
G36*
X130517900Y-57480200D02*
G01*
X130527168Y-58381938D01*
X130531375Y-58708887D01*
X130537512Y-58950698D01*
X130547420Y-59123834D01*
X130562936Y-59244757D01*
X130585900Y-59329930D01*
X130618152Y-59395814D01*
X130644927Y-59436038D01*
X130753345Y-59548469D01*
X130884767Y-59587242D01*
X130922741Y-59588400D01*
X131047657Y-59570975D01*
X131136530Y-59501183D01*
X131196755Y-59410961D01*
X131236337Y-59334804D01*
X131264567Y-59249864D01*
X131283330Y-59138135D01*
X131294509Y-58981609D01*
X131299987Y-58762280D01*
X131301647Y-58462140D01*
X131301684Y-58407661D01*
X131301863Y-58124889D01*
X131302208Y-57875780D01*
X131302676Y-57678975D01*
X131303228Y-57553115D01*
X131303610Y-57518300D01*
X131351131Y-57472989D01*
X131475173Y-57454846D01*
X131483100Y-57454800D01*
X131660900Y-57454800D01*
X131659784Y-58432700D01*
X131658247Y-58782757D01*
X131653643Y-59047758D01*
X131644615Y-59244233D01*
X131629808Y-59388712D01*
X131607868Y-59497724D01*
X131577438Y-59587798D01*
X131562176Y-59623131D01*
X131420557Y-59820646D01*
X131217223Y-59956387D01*
X130977993Y-60020155D01*
X130728688Y-60001755D01*
X130658901Y-59979859D01*
X130501180Y-59907769D01*
X130378003Y-59815133D01*
X130285335Y-59689556D01*
X130219140Y-59518643D01*
X130175382Y-59289997D01*
X130150027Y-58991223D01*
X130139038Y-58609926D01*
X130137664Y-58378833D01*
X130136900Y-57448666D01*
X130517900Y-57480200D01*
X130517900Y-57480200D01*
G37*
X130517900Y-57480200D02*
X130527168Y-58381938D01*
X130531375Y-58708887D01*
X130537512Y-58950698D01*
X130547420Y-59123834D01*
X130562936Y-59244757D01*
X130585900Y-59329930D01*
X130618152Y-59395814D01*
X130644927Y-59436038D01*
X130753345Y-59548469D01*
X130884767Y-59587242D01*
X130922741Y-59588400D01*
X131047657Y-59570975D01*
X131136530Y-59501183D01*
X131196755Y-59410961D01*
X131236337Y-59334804D01*
X131264567Y-59249864D01*
X131283330Y-59138135D01*
X131294509Y-58981609D01*
X131299987Y-58762280D01*
X131301647Y-58462140D01*
X131301684Y-58407661D01*
X131301863Y-58124889D01*
X131302208Y-57875780D01*
X131302676Y-57678975D01*
X131303228Y-57553115D01*
X131303610Y-57518300D01*
X131351131Y-57472989D01*
X131475173Y-57454846D01*
X131483100Y-57454800D01*
X131660900Y-57454800D01*
X131659784Y-58432700D01*
X131658247Y-58782757D01*
X131653643Y-59047758D01*
X131644615Y-59244233D01*
X131629808Y-59388712D01*
X131607868Y-59497724D01*
X131577438Y-59587798D01*
X131562176Y-59623131D01*
X131420557Y-59820646D01*
X131217223Y-59956387D01*
X130977993Y-60020155D01*
X130728688Y-60001755D01*
X130658901Y-59979859D01*
X130501180Y-59907769D01*
X130378003Y-59815133D01*
X130285335Y-59689556D01*
X130219140Y-59518643D01*
X130175382Y-59289997D01*
X130150027Y-58991223D01*
X130139038Y-58609926D01*
X130137664Y-58378833D01*
X130136900Y-57448666D01*
X130517900Y-57480200D01*
G36*
X140543964Y-57434949D02*
G01*
X140738039Y-57535543D01*
X140896828Y-57717404D01*
X140999348Y-57907254D01*
X141062466Y-58058626D01*
X141101950Y-58201442D01*
X141123222Y-58368058D01*
X141131706Y-58590833D01*
X141132734Y-58702991D01*
X141131333Y-58945693D01*
X141120577Y-59118292D01*
X141094634Y-59252223D01*
X141047671Y-59378922D01*
X140982432Y-59513100D01*
X140808038Y-59770355D01*
X140596757Y-59940270D01*
X140356996Y-60018448D01*
X140097162Y-60000491D01*
X140066710Y-59992162D01*
X139853025Y-59879501D01*
X139679799Y-59690485D01*
X139547991Y-59442363D01*
X139458559Y-59152388D01*
X139412460Y-58837808D01*
X139411308Y-58632307D01*
X139838731Y-58632307D01*
X139849773Y-58899856D01*
X139888583Y-59150405D01*
X139953652Y-59359769D01*
X140043470Y-59503761D01*
X140085117Y-59537116D01*
X140247632Y-59580550D01*
X140418975Y-59542369D01*
X140561988Y-59431556D01*
X140571277Y-59419574D01*
X140618524Y-59344508D01*
X140649512Y-59256398D01*
X140667538Y-59132965D01*
X140675900Y-58951930D01*
X140677900Y-58699400D01*
X140675773Y-58440974D01*
X140667193Y-58261820D01*
X140648860Y-58139659D01*
X140617476Y-58052211D01*
X140571253Y-57979225D01*
X140434235Y-57858839D01*
X140284566Y-57820356D01*
X140153825Y-57823656D01*
X140061916Y-57877431D01*
X139987305Y-57969533D01*
X139905988Y-58142959D01*
X139856966Y-58371946D01*
X139838731Y-58632307D01*
X139411308Y-58632307D01*
X139410654Y-58515876D01*
X139454097Y-58203843D01*
X139543748Y-57918958D01*
X139680566Y-57678473D01*
X139865509Y-57499639D01*
X139926225Y-57462867D01*
X140040913Y-57428339D01*
X140207946Y-57407160D01*
X140298418Y-57404000D01*
X140543964Y-57434949D01*
X140543964Y-57434949D01*
G37*
X140543964Y-57434949D02*
X140738039Y-57535543D01*
X140896828Y-57717404D01*
X140999348Y-57907254D01*
X141062466Y-58058626D01*
X141101950Y-58201442D01*
X141123222Y-58368058D01*
X141131706Y-58590833D01*
X141132734Y-58702991D01*
X141131333Y-58945693D01*
X141120577Y-59118292D01*
X141094634Y-59252223D01*
X141047671Y-59378922D01*
X140982432Y-59513100D01*
X140808038Y-59770355D01*
X140596757Y-59940270D01*
X140356996Y-60018448D01*
X140097162Y-60000491D01*
X140066710Y-59992162D01*
X139853025Y-59879501D01*
X139679799Y-59690485D01*
X139547991Y-59442363D01*
X139458559Y-59152388D01*
X139412460Y-58837808D01*
X139411308Y-58632307D01*
X139838731Y-58632307D01*
X139849773Y-58899856D01*
X139888583Y-59150405D01*
X139953652Y-59359769D01*
X140043470Y-59503761D01*
X140085117Y-59537116D01*
X140247632Y-59580550D01*
X140418975Y-59542369D01*
X140561988Y-59431556D01*
X140571277Y-59419574D01*
X140618524Y-59344508D01*
X140649512Y-59256398D01*
X140667538Y-59132965D01*
X140675900Y-58951930D01*
X140677900Y-58699400D01*
X140675773Y-58440974D01*
X140667193Y-58261820D01*
X140648860Y-58139659D01*
X140617476Y-58052211D01*
X140571253Y-57979225D01*
X140434235Y-57858839D01*
X140284566Y-57820356D01*
X140153825Y-57823656D01*
X140061916Y-57877431D01*
X139987305Y-57969533D01*
X139905988Y-58142959D01*
X139856966Y-58371946D01*
X139838731Y-58632307D01*
X139411308Y-58632307D01*
X139410654Y-58515876D01*
X139454097Y-58203843D01*
X139543748Y-57918958D01*
X139680566Y-57678473D01*
X139865509Y-57499639D01*
X139926225Y-57462867D01*
X140040913Y-57428339D01*
X140207946Y-57407160D01*
X140298418Y-57404000D01*
X140543964Y-57434949D01*
G36*
X146138900Y-59994800D02*
G01*
X145279454Y-59994800D01*
X144989388Y-59996559D01*
X144731335Y-60001428D01*
X144523956Y-60008795D01*
X144385908Y-60018049D01*
X144339654Y-60025635D01*
X144328767Y-60023390D01*
X144318900Y-60004775D01*
X144310004Y-59965105D01*
X144302029Y-59899699D01*
X144294927Y-59803873D01*
X144288647Y-59672945D01*
X144283140Y-59502231D01*
X144278356Y-59287049D01*
X144274246Y-59022716D01*
X144270760Y-58704550D01*
X144267849Y-58327866D01*
X144265462Y-57887983D01*
X144263552Y-57380217D01*
X144262068Y-56799886D01*
X144260960Y-56142307D01*
X144260179Y-55402797D01*
X144259675Y-54576673D01*
X144259399Y-53659252D01*
X144259302Y-52645851D01*
X144259300Y-52431035D01*
X144259300Y-44805600D01*
X146138900Y-44805600D01*
X146138900Y-59994800D01*
X146138900Y-59994800D01*
G37*
X146138900Y-59994800D02*
X145279454Y-59994800D01*
X144989388Y-59996559D01*
X144731335Y-60001428D01*
X144523956Y-60008795D01*
X144385908Y-60018049D01*
X144339654Y-60025635D01*
X144328767Y-60023390D01*
X144318900Y-60004775D01*
X144310004Y-59965105D01*
X144302029Y-59899699D01*
X144294927Y-59803873D01*
X144288647Y-59672945D01*
X144283140Y-59502231D01*
X144278356Y-59287049D01*
X144274246Y-59022716D01*
X144270760Y-58704550D01*
X144267849Y-58327866D01*
X144265462Y-57887983D01*
X144263552Y-57380217D01*
X144262068Y-56799886D01*
X144260960Y-56142307D01*
X144260179Y-55402797D01*
X144259675Y-54576673D01*
X144259399Y-53659252D01*
X144259302Y-52645851D01*
X144259300Y-52431035D01*
X144259300Y-44805600D01*
X146138900Y-44805600D01*
X146138900Y-59994800D01*
G36*
X148856700Y-44780200D02*
G01*
X148856700Y-60020200D01*
X147904200Y-60034020D01*
X146951700Y-60047841D01*
X146951700Y-44752558D01*
X148856700Y-44780200D01*
X148856700Y-44780200D01*
G37*
X148856700Y-44780200D02*
X148856700Y-60020200D01*
X147904200Y-60034020D01*
X146951700Y-60047841D01*
X146951700Y-44752558D01*
X148856700Y-44780200D01*
G36*
X112890300Y-59969400D02*
G01*
X112560100Y-59977118D01*
X112362910Y-59976119D01*
X112187017Y-59965675D01*
X112089510Y-59951718D01*
X111900835Y-59867525D01*
X111712375Y-59719079D01*
X111559719Y-59537372D01*
X111509080Y-59446267D01*
X111464812Y-59309788D01*
X111436900Y-59122211D01*
X111422980Y-58863594D01*
X111422303Y-58818491D01*
X111810128Y-58818491D01*
X111825597Y-58964125D01*
X111890150Y-59227152D01*
X112001801Y-59404588D01*
X112168084Y-59504424D01*
X112363250Y-59534379D01*
X112462143Y-59517874D01*
X112512629Y-59442520D01*
X112528350Y-59378850D01*
X112542696Y-59252296D01*
X112552459Y-59057062D01*
X112557645Y-58820206D01*
X112558259Y-58568782D01*
X112554306Y-58329848D01*
X112545791Y-58130459D01*
X112532719Y-57997672D01*
X112528081Y-57975500D01*
X112483375Y-57894706D01*
X112387203Y-57863724D01*
X112320556Y-57861200D01*
X112132099Y-57907348D01*
X111981538Y-58037936D01*
X111874164Y-58241179D01*
X111815265Y-58505293D01*
X111810128Y-58818491D01*
X111422303Y-58818491D01*
X111420515Y-58699400D01*
X111421692Y-58438825D01*
X111431344Y-58254210D01*
X111453019Y-58120036D01*
X111490264Y-58010781D01*
X111526456Y-57937400D01*
X111680159Y-57707101D01*
X111863674Y-57548502D01*
X112095363Y-57452202D01*
X112393589Y-57408802D01*
X112568552Y-57404000D01*
X112917444Y-57404000D01*
X112890300Y-59969400D01*
X112890300Y-59969400D01*
G37*
X112890300Y-59969400D02*
X112560100Y-59977118D01*
X112362910Y-59976119D01*
X112187017Y-59965675D01*
X112089510Y-59951718D01*
X111900835Y-59867525D01*
X111712375Y-59719079D01*
X111559719Y-59537372D01*
X111509080Y-59446267D01*
X111464812Y-59309788D01*
X111436900Y-59122211D01*
X111422980Y-58863594D01*
X111422303Y-58818491D01*
X111810128Y-58818491D01*
X111825597Y-58964125D01*
X111890150Y-59227152D01*
X112001801Y-59404588D01*
X112168084Y-59504424D01*
X112363250Y-59534379D01*
X112462143Y-59517874D01*
X112512629Y-59442520D01*
X112528350Y-59378850D01*
X112542696Y-59252296D01*
X112552459Y-59057062D01*
X112557645Y-58820206D01*
X112558259Y-58568782D01*
X112554306Y-58329848D01*
X112545791Y-58130459D01*
X112532719Y-57997672D01*
X112528081Y-57975500D01*
X112483375Y-57894706D01*
X112387203Y-57863724D01*
X112320556Y-57861200D01*
X112132099Y-57907348D01*
X111981538Y-58037936D01*
X111874164Y-58241179D01*
X111815265Y-58505293D01*
X111810128Y-58818491D01*
X111422303Y-58818491D01*
X111420515Y-58699400D01*
X111421692Y-58438825D01*
X111431344Y-58254210D01*
X111453019Y-58120036D01*
X111490264Y-58010781D01*
X111526456Y-57937400D01*
X111680159Y-57707101D01*
X111863674Y-57548502D01*
X112095363Y-57452202D01*
X112393589Y-57408802D01*
X112568552Y-57404000D01*
X112917444Y-57404000D01*
X112890300Y-59969400D01*
G36*
X125548668Y-57416519D02*
G01*
X125633768Y-57447504D01*
X125642083Y-57456392D01*
X125665841Y-57522771D01*
X125708289Y-57668010D01*
X125763916Y-57872296D01*
X125827206Y-58115813D01*
X125843527Y-58180292D01*
X125921201Y-58486559D01*
X126004936Y-58813046D01*
X126084251Y-59119075D01*
X126144345Y-59347735D01*
X126213485Y-59612171D01*
X126255223Y-59793530D01*
X126268872Y-59906761D01*
X126253747Y-59966811D01*
X126209161Y-59988629D01*
X126134427Y-59987163D01*
X126115062Y-59985318D01*
X126015976Y-59964900D01*
X125951448Y-59910698D01*
X125897541Y-59796415D01*
X125869377Y-59715400D01*
X125784729Y-59461400D01*
X125090606Y-59461400D01*
X125010253Y-59715400D01*
X124955855Y-59866600D01*
X124901108Y-59945309D01*
X124822424Y-59977942D01*
X124769567Y-59984963D01*
X124648266Y-59980516D01*
X124576989Y-59948258D01*
X124576069Y-59946863D01*
X124568315Y-59859604D01*
X124579364Y-59834205D01*
X124605392Y-59762780D01*
X124651774Y-59599255D01*
X124718866Y-59342234D01*
X124807022Y-58990320D01*
X124844459Y-58837191D01*
X125223006Y-58837191D01*
X125225552Y-58924788D01*
X125264031Y-58965933D01*
X125342749Y-58978127D01*
X125437900Y-58978800D01*
X125574240Y-58969334D01*
X125656016Y-58945387D01*
X125666500Y-58931152D01*
X125655684Y-58860651D01*
X125627749Y-58721871D01*
X125589459Y-58545286D01*
X125547579Y-58361368D01*
X125508873Y-58200592D01*
X125481692Y-58098671D01*
X125457796Y-58039829D01*
X125432855Y-58038849D01*
X125401619Y-58106463D01*
X125358835Y-58253402D01*
X125308500Y-58452632D01*
X125252090Y-58685640D01*
X125223006Y-58837191D01*
X124844459Y-58837191D01*
X124916599Y-58542120D01*
X125047951Y-57996237D01*
X125055946Y-57962800D01*
X125114924Y-57721503D01*
X125161489Y-57562112D01*
X125206549Y-57467646D01*
X125261015Y-57421124D01*
X125335796Y-57405565D01*
X125414936Y-57404000D01*
X125548668Y-57416519D01*
X125548668Y-57416519D01*
G37*
X125548668Y-57416519D02*
X125633768Y-57447504D01*
X125642083Y-57456392D01*
X125665841Y-57522771D01*
X125708289Y-57668010D01*
X125763916Y-57872296D01*
X125827206Y-58115813D01*
X125843527Y-58180292D01*
X125921201Y-58486559D01*
X126004936Y-58813046D01*
X126084251Y-59119075D01*
X126144345Y-59347735D01*
X126213485Y-59612171D01*
X126255223Y-59793530D01*
X126268872Y-59906761D01*
X126253747Y-59966811D01*
X126209161Y-59988629D01*
X126134427Y-59987163D01*
X126115062Y-59985318D01*
X126015976Y-59964900D01*
X125951448Y-59910698D01*
X125897541Y-59796415D01*
X125869377Y-59715400D01*
X125784729Y-59461400D01*
X125090606Y-59461400D01*
X125010253Y-59715400D01*
X124955855Y-59866600D01*
X124901108Y-59945309D01*
X124822424Y-59977942D01*
X124769567Y-59984963D01*
X124648266Y-59980516D01*
X124576989Y-59948258D01*
X124576069Y-59946863D01*
X124568315Y-59859604D01*
X124579364Y-59834205D01*
X124605392Y-59762780D01*
X124651774Y-59599255D01*
X124718866Y-59342234D01*
X124807022Y-58990320D01*
X124844459Y-58837191D01*
X125223006Y-58837191D01*
X125225552Y-58924788D01*
X125264031Y-58965933D01*
X125342749Y-58978127D01*
X125437900Y-58978800D01*
X125574240Y-58969334D01*
X125656016Y-58945387D01*
X125666500Y-58931152D01*
X125655684Y-58860651D01*
X125627749Y-58721871D01*
X125589459Y-58545286D01*
X125547579Y-58361368D01*
X125508873Y-58200592D01*
X125481692Y-58098671D01*
X125457796Y-58039829D01*
X125432855Y-58038849D01*
X125401619Y-58106463D01*
X125358835Y-58253402D01*
X125308500Y-58452632D01*
X125252090Y-58685640D01*
X125223006Y-58837191D01*
X124844459Y-58837191D01*
X124916599Y-58542120D01*
X125047951Y-57996237D01*
X125055946Y-57962800D01*
X125114924Y-57721503D01*
X125161489Y-57562112D01*
X125206549Y-57467646D01*
X125261015Y-57421124D01*
X125335796Y-57405565D01*
X125414936Y-57404000D01*
X125548668Y-57416519D01*
G36*
X103699419Y-57466009D02*
G01*
X104406700Y-57480200D01*
X104399116Y-57632600D01*
X104392105Y-57753702D01*
X104386416Y-57823100D01*
X104337784Y-57846591D01*
X104221625Y-57860465D01*
X104165400Y-57861977D01*
X104019336Y-57870694D01*
X103915998Y-57891541D01*
X103898700Y-57900077D01*
X103880727Y-57963478D01*
X103866170Y-58118160D01*
X103855537Y-58353844D01*
X103849336Y-58660254D01*
X103847900Y-58928000D01*
X103847900Y-59918600D01*
X103469022Y-59950006D01*
X103441500Y-57886600D01*
X103205589Y-57871336D01*
X103060325Y-57856160D01*
X102986900Y-57822740D01*
X102955555Y-57752152D01*
X102947861Y-57707418D01*
X102942404Y-57582634D01*
X102959091Y-57505290D01*
X103025615Y-57482362D01*
X103187778Y-57468261D01*
X103439976Y-57463287D01*
X103699419Y-57466009D01*
X103699419Y-57466009D01*
G37*
X103699419Y-57466009D02*
X104406700Y-57480200D01*
X104399116Y-57632600D01*
X104392105Y-57753702D01*
X104386416Y-57823100D01*
X104337784Y-57846591D01*
X104221625Y-57860465D01*
X104165400Y-57861977D01*
X104019336Y-57870694D01*
X103915998Y-57891541D01*
X103898700Y-57900077D01*
X103880727Y-57963478D01*
X103866170Y-58118160D01*
X103855537Y-58353844D01*
X103849336Y-58660254D01*
X103847900Y-58928000D01*
X103847900Y-59918600D01*
X103469022Y-59950006D01*
X103441500Y-57886600D01*
X103205589Y-57871336D01*
X103060325Y-57856160D01*
X102986900Y-57822740D01*
X102955555Y-57752152D01*
X102947861Y-57707418D01*
X102942404Y-57582634D01*
X102959091Y-57505290D01*
X103025615Y-57482362D01*
X103187778Y-57468261D01*
X103439976Y-57463287D01*
X103699419Y-57466009D01*
G36*
X107145224Y-57410878D02*
G01*
X107265907Y-57440597D01*
X107312475Y-57476417D01*
X107323374Y-57546004D01*
X107331938Y-57702016D01*
X107337857Y-57929298D01*
X107340818Y-58212697D01*
X107340510Y-58537057D01*
X107338610Y-58746417D01*
X107324120Y-59944000D01*
X106974293Y-59944000D01*
X106960496Y-58968183D01*
X106946700Y-57992366D01*
X106700639Y-58726883D01*
X106612887Y-58988185D01*
X106534997Y-59218914D01*
X106473374Y-59400184D01*
X106434427Y-59513109D01*
X106425626Y-59537600D01*
X106396930Y-59614676D01*
X106375265Y-59681720D01*
X106344121Y-59790249D01*
X106340150Y-59804300D01*
X106309007Y-59885312D01*
X106255516Y-59926930D01*
X106150573Y-59942129D01*
X106026792Y-59944000D01*
X105875171Y-59937608D01*
X105775088Y-59921152D01*
X105751478Y-59905900D01*
X105744825Y-59657108D01*
X105741251Y-59365548D01*
X105740497Y-59047497D01*
X105742303Y-58719233D01*
X105746408Y-58397034D01*
X105752553Y-58097177D01*
X105760479Y-57835941D01*
X105769923Y-57629603D01*
X105780628Y-57494441D01*
X105790750Y-57447429D01*
X105877886Y-57413031D01*
X105962940Y-57412399D01*
X106083100Y-57429400D01*
X106090095Y-58267600D01*
X106092914Y-58611548D01*
X106095585Y-58865651D01*
X106099261Y-59041657D01*
X106105098Y-59151310D01*
X106114248Y-59206359D01*
X106127867Y-59218549D01*
X106147108Y-59199628D01*
X106173126Y-59161342D01*
X106177307Y-59155203D01*
X106243696Y-59022900D01*
X106273268Y-58928000D01*
X106301652Y-58825842D01*
X106355334Y-58657165D01*
X106426580Y-58444056D01*
X106507653Y-58208604D01*
X106590819Y-57972895D01*
X106668342Y-57759019D01*
X106732488Y-57589061D01*
X106775521Y-57485111D01*
X106784737Y-57467500D01*
X106863047Y-57423626D01*
X106997073Y-57404987D01*
X107145224Y-57410878D01*
X107145224Y-57410878D01*
G37*
X107145224Y-57410878D02*
X107265907Y-57440597D01*
X107312475Y-57476417D01*
X107323374Y-57546004D01*
X107331938Y-57702016D01*
X107337857Y-57929298D01*
X107340818Y-58212697D01*
X107340510Y-58537057D01*
X107338610Y-58746417D01*
X107324120Y-59944000D01*
X106974293Y-59944000D01*
X106960496Y-58968183D01*
X106946700Y-57992366D01*
X106700639Y-58726883D01*
X106612887Y-58988185D01*
X106534997Y-59218914D01*
X106473374Y-59400184D01*
X106434427Y-59513109D01*
X106425626Y-59537600D01*
X106396930Y-59614676D01*
X106375265Y-59681720D01*
X106344121Y-59790249D01*
X106340150Y-59804300D01*
X106309007Y-59885312D01*
X106255516Y-59926930D01*
X106150573Y-59942129D01*
X106026792Y-59944000D01*
X105875171Y-59937608D01*
X105775088Y-59921152D01*
X105751478Y-59905900D01*
X105744825Y-59657108D01*
X105741251Y-59365548D01*
X105740497Y-59047497D01*
X105742303Y-58719233D01*
X105746408Y-58397034D01*
X105752553Y-58097177D01*
X105760479Y-57835941D01*
X105769923Y-57629603D01*
X105780628Y-57494441D01*
X105790750Y-57447429D01*
X105877886Y-57413031D01*
X105962940Y-57412399D01*
X106083100Y-57429400D01*
X106090095Y-58267600D01*
X106092914Y-58611548D01*
X106095585Y-58865651D01*
X106099261Y-59041657D01*
X106105098Y-59151310D01*
X106114248Y-59206359D01*
X106127867Y-59218549D01*
X106147108Y-59199628D01*
X106173126Y-59161342D01*
X106177307Y-59155203D01*
X106243696Y-59022900D01*
X106273268Y-58928000D01*
X106301652Y-58825842D01*
X106355334Y-58657165D01*
X106426580Y-58444056D01*
X106507653Y-58208604D01*
X106590819Y-57972895D01*
X106668342Y-57759019D01*
X106732488Y-57589061D01*
X106775521Y-57485111D01*
X106784737Y-57467500D01*
X106863047Y-57423626D01*
X106997073Y-57404987D01*
X107145224Y-57410878D01*
G36*
X109969300Y-59944000D02*
G01*
X108750100Y-59944000D01*
X108750100Y-59537600D01*
X109150575Y-59537600D01*
X109368212Y-59532958D01*
X109503797Y-59508080D01*
X109576807Y-59446536D01*
X109606717Y-59331899D01*
X109613005Y-59147740D01*
X109613006Y-59147528D01*
X109588964Y-58989852D01*
X109506317Y-58890033D01*
X109351730Y-58838761D01*
X109152871Y-58826400D01*
X108851700Y-58826400D01*
X108851486Y-58496200D01*
X109177781Y-58513057D01*
X109358910Y-58518567D01*
X109466248Y-58507327D01*
X109527083Y-58472880D01*
X109561713Y-58422216D01*
X109595033Y-58303086D01*
X109605703Y-58142017D01*
X109603826Y-58100559D01*
X109588300Y-57886600D01*
X108775500Y-57835800D01*
X108775500Y-57480200D01*
X109372400Y-57465887D01*
X109969300Y-57451575D01*
X109969300Y-59944000D01*
X109969300Y-59944000D01*
G37*
X109969300Y-59944000D02*
X108750100Y-59944000D01*
X108750100Y-59537600D01*
X109150575Y-59537600D01*
X109368212Y-59532958D01*
X109503797Y-59508080D01*
X109576807Y-59446536D01*
X109606717Y-59331899D01*
X109613005Y-59147740D01*
X109613006Y-59147528D01*
X109588964Y-58989852D01*
X109506317Y-58890033D01*
X109351730Y-58838761D01*
X109152871Y-58826400D01*
X108851700Y-58826400D01*
X108851486Y-58496200D01*
X109177781Y-58513057D01*
X109358910Y-58518567D01*
X109466248Y-58507327D01*
X109527083Y-58472880D01*
X109561713Y-58422216D01*
X109595033Y-58303086D01*
X109605703Y-58142017D01*
X109603826Y-58100559D01*
X109588300Y-57886600D01*
X108775500Y-57835800D01*
X108775500Y-57480200D01*
X109372400Y-57465887D01*
X109969300Y-57451575D01*
X109969300Y-59944000D01*
G36*
X118715329Y-57478067D02*
G01*
X118744428Y-57606863D01*
X118747920Y-57645300D01*
X118763541Y-57861200D01*
X118535018Y-57861200D01*
X118390242Y-57871945D01*
X118292216Y-57899041D01*
X118274057Y-57913686D01*
X118264309Y-57978721D01*
X118256348Y-58128825D01*
X118250596Y-58347475D01*
X118247472Y-58618150D01*
X118247398Y-58924327D01*
X118247567Y-58955086D01*
X118253516Y-59944000D01*
X117845403Y-59944000D01*
X117831651Y-58915300D01*
X117817900Y-57886600D01*
X117284500Y-57855890D01*
X117284500Y-57454800D01*
X117944900Y-57447180D01*
X118197721Y-57443942D01*
X118416099Y-57440547D01*
X118578678Y-57437369D01*
X118664101Y-57434782D01*
X118668800Y-57434480D01*
X118715329Y-57478067D01*
X118715329Y-57478067D01*
G37*
X118715329Y-57478067D02*
X118744428Y-57606863D01*
X118747920Y-57645300D01*
X118763541Y-57861200D01*
X118535018Y-57861200D01*
X118390242Y-57871945D01*
X118292216Y-57899041D01*
X118274057Y-57913686D01*
X118264309Y-57978721D01*
X118256348Y-58128825D01*
X118250596Y-58347475D01*
X118247472Y-58618150D01*
X118247398Y-58924327D01*
X118247567Y-58955086D01*
X118253516Y-59944000D01*
X117845403Y-59944000D01*
X117831651Y-58915300D01*
X117817900Y-57886600D01*
X117284500Y-57855890D01*
X117284500Y-57454800D01*
X117944900Y-57447180D01*
X118197721Y-57443942D01*
X118416099Y-57440547D01*
X118578678Y-57437369D01*
X118664101Y-57434782D01*
X118668800Y-57434480D01*
X118715329Y-57478067D01*
G36*
X128570235Y-57446154D02*
G01*
X128612900Y-57449155D01*
X128630096Y-57501194D01*
X128643969Y-57649838D01*
X128654320Y-57890140D01*
X128660945Y-58217151D01*
X128663645Y-58625925D01*
X128663700Y-58699400D01*
X128663700Y-59944000D01*
X127495300Y-59944000D01*
X127495300Y-59542051D01*
X127863600Y-59527125D01*
X128231900Y-59512200D01*
X128245651Y-58483500D01*
X128252764Y-58129671D01*
X128263476Y-57839641D01*
X128277192Y-57623132D01*
X128293314Y-57489867D01*
X128309151Y-57449155D01*
X128398671Y-57444384D01*
X128460500Y-57443511D01*
X128570235Y-57446154D01*
X128570235Y-57446154D01*
G37*
X128570235Y-57446154D02*
X128612900Y-57449155D01*
X128630096Y-57501194D01*
X128643969Y-57649838D01*
X128654320Y-57890140D01*
X128660945Y-58217151D01*
X128663645Y-58625925D01*
X128663700Y-58699400D01*
X128663700Y-59944000D01*
X127495300Y-59944000D01*
X127495300Y-59542051D01*
X127863600Y-59527125D01*
X128231900Y-59512200D01*
X128245651Y-58483500D01*
X128252764Y-58129671D01*
X128263476Y-57839641D01*
X128277192Y-57623132D01*
X128293314Y-57489867D01*
X128309151Y-57449155D01*
X128398671Y-57444384D01*
X128460500Y-57443511D01*
X128570235Y-57446154D01*
G36*
X133759027Y-57482291D02*
G01*
X133818081Y-57550290D01*
X133853354Y-57685198D01*
X133874339Y-57817808D01*
X133898314Y-57968585D01*
X133919738Y-58089800D01*
X133941533Y-58205858D01*
X133969966Y-58362490D01*
X133975692Y-58394600D01*
X134007418Y-58536174D01*
X134041322Y-58635110D01*
X134049140Y-58648600D01*
X134078125Y-58726103D01*
X134108907Y-58864466D01*
X134121551Y-58941683D01*
X134154229Y-59096307D01*
X134190941Y-59150046D01*
X134228822Y-59103380D01*
X134265003Y-58956790D01*
X134271626Y-58916538D01*
X134298691Y-58751284D01*
X134324070Y-58610950D01*
X134329281Y-58585100D01*
X134358642Y-58435409D01*
X134372850Y-58356337D01*
X134399742Y-58229422D01*
X134439369Y-58071938D01*
X134444009Y-58054963D01*
X134471225Y-57928592D01*
X134473871Y-57850099D01*
X134470172Y-57842605D01*
X134470681Y-57784552D01*
X134487913Y-57750279D01*
X134524838Y-57644021D01*
X134531100Y-57581800D01*
X134541391Y-57526815D01*
X134587232Y-57496160D01*
X134691072Y-57482927D01*
X134861300Y-57480200D01*
X135191500Y-57480200D01*
X135191500Y-59918600D01*
X135026400Y-59934518D01*
X134897692Y-59928272D01*
X134858651Y-59883718D01*
X134857767Y-59809922D01*
X134857246Y-59656014D01*
X134857123Y-59443483D01*
X134857432Y-59193817D01*
X134857512Y-59156600D01*
X134854797Y-58826145D01*
X134845634Y-58546332D01*
X134830915Y-58328804D01*
X134811532Y-58185207D01*
X134788375Y-58127185D01*
X134778941Y-58129825D01*
X134758127Y-58187660D01*
X134721587Y-58325324D01*
X134674092Y-58523135D01*
X134620415Y-58761411D01*
X134579271Y-58953400D01*
X134554601Y-59064802D01*
X134518108Y-59223099D01*
X134503879Y-59283600D01*
X134467704Y-59438697D01*
X134440413Y-59559636D01*
X134434285Y-59588400D01*
X134390575Y-59775846D01*
X134345362Y-59883547D01*
X134284547Y-59932573D01*
X134196360Y-59944000D01*
X134083495Y-59923589D01*
X134029669Y-59842423D01*
X134019938Y-59804300D01*
X133979826Y-59646409D01*
X133946900Y-59537600D01*
X133900672Y-59387194D01*
X133855787Y-59222344D01*
X133824542Y-59089296D01*
X133818571Y-59055000D01*
X133801622Y-58977024D01*
X133767660Y-58845015D01*
X133755658Y-58801000D01*
X133711856Y-58627664D01*
X133677278Y-58466059D01*
X133673598Y-58445400D01*
X133638337Y-58276734D01*
X133602898Y-58140600D01*
X133578079Y-58068769D01*
X133560189Y-58064527D01*
X133544172Y-58138917D01*
X133524970Y-58302985D01*
X133523897Y-58313151D01*
X133510397Y-58494780D01*
X133499410Y-58744131D01*
X133492121Y-59027340D01*
X133489700Y-59291051D01*
X133489700Y-59944000D01*
X133337300Y-59944000D01*
X133229513Y-59940303D01*
X133182998Y-59931402D01*
X133182978Y-59931300D01*
X133182197Y-59879160D01*
X133181030Y-59739498D01*
X133179570Y-59526390D01*
X133177909Y-59253910D01*
X133176139Y-58936136D01*
X133174910Y-58699400D01*
X133168763Y-57480200D01*
X133477473Y-57465183D01*
X133653166Y-57460741D01*
X133759027Y-57482291D01*
X133759027Y-57482291D01*
G37*
X133759027Y-57482291D02*
X133818081Y-57550290D01*
X133853354Y-57685198D01*
X133874339Y-57817808D01*
X133898314Y-57968585D01*
X133919738Y-58089800D01*
X133941533Y-58205858D01*
X133969966Y-58362490D01*
X133975692Y-58394600D01*
X134007418Y-58536174D01*
X134041322Y-58635110D01*
X134049140Y-58648600D01*
X134078125Y-58726103D01*
X134108907Y-58864466D01*
X134121551Y-58941683D01*
X134154229Y-59096307D01*
X134190941Y-59150046D01*
X134228822Y-59103380D01*
X134265003Y-58956790D01*
X134271626Y-58916538D01*
X134298691Y-58751284D01*
X134324070Y-58610950D01*
X134329281Y-58585100D01*
X134358642Y-58435409D01*
X134372850Y-58356337D01*
X134399742Y-58229422D01*
X134439369Y-58071938D01*
X134444009Y-58054963D01*
X134471225Y-57928592D01*
X134473871Y-57850099D01*
X134470172Y-57842605D01*
X134470681Y-57784552D01*
X134487913Y-57750279D01*
X134524838Y-57644021D01*
X134531100Y-57581800D01*
X134541391Y-57526815D01*
X134587232Y-57496160D01*
X134691072Y-57482927D01*
X134861300Y-57480200D01*
X135191500Y-57480200D01*
X135191500Y-59918600D01*
X135026400Y-59934518D01*
X134897692Y-59928272D01*
X134858651Y-59883718D01*
X134857767Y-59809922D01*
X134857246Y-59656014D01*
X134857123Y-59443483D01*
X134857432Y-59193817D01*
X134857512Y-59156600D01*
X134854797Y-58826145D01*
X134845634Y-58546332D01*
X134830915Y-58328804D01*
X134811532Y-58185207D01*
X134788375Y-58127185D01*
X134778941Y-58129825D01*
X134758127Y-58187660D01*
X134721587Y-58325324D01*
X134674092Y-58523135D01*
X134620415Y-58761411D01*
X134579271Y-58953400D01*
X134554601Y-59064802D01*
X134518108Y-59223099D01*
X134503879Y-59283600D01*
X134467704Y-59438697D01*
X134440413Y-59559636D01*
X134434285Y-59588400D01*
X134390575Y-59775846D01*
X134345362Y-59883547D01*
X134284547Y-59932573D01*
X134196360Y-59944000D01*
X134083495Y-59923589D01*
X134029669Y-59842423D01*
X134019938Y-59804300D01*
X133979826Y-59646409D01*
X133946900Y-59537600D01*
X133900672Y-59387194D01*
X133855787Y-59222344D01*
X133824542Y-59089296D01*
X133818571Y-59055000D01*
X133801622Y-58977024D01*
X133767660Y-58845015D01*
X133755658Y-58801000D01*
X133711856Y-58627664D01*
X133677278Y-58466059D01*
X133673598Y-58445400D01*
X133638337Y-58276734D01*
X133602898Y-58140600D01*
X133578079Y-58068769D01*
X133560189Y-58064527D01*
X133544172Y-58138917D01*
X133524970Y-58302985D01*
X133523897Y-58313151D01*
X133510397Y-58494780D01*
X133499410Y-58744131D01*
X133492121Y-59027340D01*
X133489700Y-59291051D01*
X133489700Y-59944000D01*
X133337300Y-59944000D01*
X133229513Y-59940303D01*
X133182998Y-59931402D01*
X133182978Y-59931300D01*
X133182197Y-59879160D01*
X133181030Y-59739498D01*
X133179570Y-59526390D01*
X133177909Y-59253910D01*
X133176139Y-58936136D01*
X133174910Y-58699400D01*
X133168763Y-57480200D01*
X133477473Y-57465183D01*
X133653166Y-57460741D01*
X133759027Y-57482291D01*
G36*
X137799967Y-57411855D02*
G01*
X137878311Y-57423458D01*
X138010900Y-57456735D01*
X138010900Y-59944000D01*
X137604500Y-59944000D01*
X137604500Y-58978800D01*
X137377687Y-58978800D01*
X137211904Y-58996916D01*
X137110294Y-59062686D01*
X137059384Y-59193237D01*
X137045700Y-59400910D01*
X137038206Y-59583526D01*
X137019631Y-59753200D01*
X137013950Y-59785250D01*
X136983550Y-59887895D01*
X136925216Y-59933062D01*
X136804782Y-59943903D01*
X136779696Y-59944000D01*
X136650781Y-59939690D01*
X136598616Y-59910825D01*
X136598355Y-59833497D01*
X136608104Y-59778900D01*
X136630035Y-59644893D01*
X136657940Y-59451597D01*
X136685815Y-59240612D01*
X136686082Y-59238490D01*
X136718823Y-59044818D01*
X136761066Y-58885527D01*
X136804166Y-58792559D01*
X136807910Y-58788417D01*
X136848285Y-58730350D01*
X136838074Y-58661626D01*
X136771230Y-58549509D01*
X136760987Y-58534338D01*
X136670224Y-58332079D01*
X136649563Y-58182573D01*
X137045700Y-58182573D01*
X137085149Y-58362910D01*
X137200673Y-58477091D01*
X137388040Y-58521194D01*
X137411597Y-58521600D01*
X137609348Y-58521600D01*
X137579100Y-57886600D01*
X137409248Y-57870326D01*
X137226670Y-57893152D01*
X137100677Y-57992246D01*
X137046647Y-58154399D01*
X137045700Y-58182573D01*
X136649563Y-58182573D01*
X136638447Y-58102140D01*
X136661905Y-57872638D01*
X136736854Y-57671691D01*
X136859544Y-57527414D01*
X136898460Y-57502837D01*
X137013271Y-57467470D01*
X137195231Y-57437900D01*
X137409937Y-57416917D01*
X137622984Y-57407306D01*
X137799967Y-57411855D01*
X137799967Y-57411855D01*
G37*
X137799967Y-57411855D02*
X137878311Y-57423458D01*
X138010900Y-57456735D01*
X138010900Y-59944000D01*
X137604500Y-59944000D01*
X137604500Y-58978800D01*
X137377687Y-58978800D01*
X137211904Y-58996916D01*
X137110294Y-59062686D01*
X137059384Y-59193237D01*
X137045700Y-59400910D01*
X137038206Y-59583526D01*
X137019631Y-59753200D01*
X137013950Y-59785250D01*
X136983550Y-59887895D01*
X136925216Y-59933062D01*
X136804782Y-59943903D01*
X136779696Y-59944000D01*
X136650781Y-59939690D01*
X136598616Y-59910825D01*
X136598355Y-59833497D01*
X136608104Y-59778900D01*
X136630035Y-59644893D01*
X136657940Y-59451597D01*
X136685815Y-59240612D01*
X136686082Y-59238490D01*
X136718823Y-59044818D01*
X136761066Y-58885527D01*
X136804166Y-58792559D01*
X136807910Y-58788417D01*
X136848285Y-58730350D01*
X136838074Y-58661626D01*
X136771230Y-58549509D01*
X136760987Y-58534338D01*
X136670224Y-58332079D01*
X136649563Y-58182573D01*
X137045700Y-58182573D01*
X137085149Y-58362910D01*
X137200673Y-58477091D01*
X137388040Y-58521194D01*
X137411597Y-58521600D01*
X137609348Y-58521600D01*
X137579100Y-57886600D01*
X137409248Y-57870326D01*
X137226670Y-57893152D01*
X137100677Y-57992246D01*
X137046647Y-58154399D01*
X137045700Y-58182573D01*
X136649563Y-58182573D01*
X136638447Y-58102140D01*
X136661905Y-57872638D01*
X136736854Y-57671691D01*
X136859544Y-57527414D01*
X136898460Y-57502837D01*
X137013271Y-57467470D01*
X137195231Y-57437900D01*
X137409937Y-57416917D01*
X137622984Y-57407306D01*
X137799967Y-57411855D01*
G36*
X143598900Y-59944000D02*
G01*
X143246854Y-59944000D01*
X143217900Y-58902600D01*
X142506700Y-58851800D01*
X142506700Y-58496200D01*
X142849212Y-58481187D01*
X143055419Y-58462872D01*
X143177977Y-58417284D01*
X143234527Y-58325072D01*
X143242710Y-58166884D01*
X143234342Y-58058729D01*
X143217900Y-57886600D01*
X142481300Y-57856748D01*
X142481300Y-57454800D01*
X143598900Y-57454800D01*
X143598900Y-59944000D01*
X143598900Y-59944000D01*
G37*
X143598900Y-59944000D02*
X143246854Y-59944000D01*
X143217900Y-58902600D01*
X142506700Y-58851800D01*
X142506700Y-58496200D01*
X142849212Y-58481187D01*
X143055419Y-58462872D01*
X143177977Y-58417284D01*
X143234527Y-58325072D01*
X143242710Y-58166884D01*
X143234342Y-58058729D01*
X143217900Y-57886600D01*
X142481300Y-57856748D01*
X142481300Y-57454800D01*
X143598900Y-57454800D01*
X143598900Y-59944000D01*
G36*
X111137700Y-46634400D02*
G01*
X109542935Y-46634400D01*
X109093848Y-46634879D01*
X108735986Y-46636661D01*
X108458975Y-46640256D01*
X108252443Y-46646179D01*
X108106017Y-46654941D01*
X108009323Y-46667056D01*
X107951991Y-46683035D01*
X107923645Y-46703393D01*
X107917335Y-46714754D01*
X107912877Y-46776183D01*
X107908612Y-46932016D01*
X107904587Y-47175056D01*
X107900847Y-47498106D01*
X107897438Y-47893971D01*
X107894406Y-48355454D01*
X107891798Y-48875359D01*
X107889658Y-49446489D01*
X107888034Y-50061647D01*
X107886970Y-50713639D01*
X107886514Y-51395266D01*
X107886500Y-51540754D01*
X107886500Y-56286400D01*
X106058215Y-56286400D01*
X106045257Y-51473100D01*
X106032300Y-46659800D01*
X102806500Y-46632972D01*
X102806500Y-44754800D01*
X111137700Y-44754800D01*
X111137700Y-46634400D01*
X111137700Y-46634400D01*
G37*
X111137700Y-46634400D02*
X109542935Y-46634400D01*
X109093848Y-46634879D01*
X108735986Y-46636661D01*
X108458975Y-46640256D01*
X108252443Y-46646179D01*
X108106017Y-46654941D01*
X108009323Y-46667056D01*
X107951991Y-46683035D01*
X107923645Y-46703393D01*
X107917335Y-46714754D01*
X107912877Y-46776183D01*
X107908612Y-46932016D01*
X107904587Y-47175056D01*
X107900847Y-47498106D01*
X107897438Y-47893971D01*
X107894406Y-48355454D01*
X107891798Y-48875359D01*
X107889658Y-49446489D01*
X107888034Y-50061647D01*
X107886970Y-50713639D01*
X107886514Y-51395266D01*
X107886500Y-51540754D01*
X107886500Y-56286400D01*
X106058215Y-56286400D01*
X106045257Y-51473100D01*
X106032300Y-46659800D01*
X102806500Y-46632972D01*
X102806500Y-44754800D01*
X111137700Y-44754800D01*
X111137700Y-46634400D01*
G36*
X119646700Y-56261000D02*
G01*
X117817900Y-56261000D01*
X117767100Y-51333400D01*
X116522500Y-51319020D01*
X116009031Y-51316344D01*
X115586136Y-51321982D01*
X115243048Y-51336946D01*
X114969003Y-51362247D01*
X114753237Y-51398897D01*
X114584985Y-51447906D01*
X114453482Y-51510286D01*
X114447389Y-51513950D01*
X114270840Y-51665228D01*
X114127801Y-51887691D01*
X114015345Y-52188726D01*
X113930543Y-52575718D01*
X113881845Y-52940735D01*
X113857030Y-53176206D01*
X113825548Y-53475957D01*
X113791254Y-53803213D01*
X113758007Y-54121200D01*
X113754709Y-54152800D01*
X113713827Y-54535021D01*
X113671785Y-54911215D01*
X113630376Y-55266824D01*
X113591393Y-55587289D01*
X113556631Y-55858054D01*
X113527882Y-56064559D01*
X113506941Y-56192247D01*
X113499652Y-56222900D01*
X113464344Y-56246803D01*
X113370531Y-56264424D01*
X113208087Y-56276432D01*
X112966884Y-56283498D01*
X112636795Y-56286291D01*
X112539292Y-56286400D01*
X112241205Y-56284434D01*
X111979648Y-56278968D01*
X111770970Y-56270650D01*
X111631517Y-56260128D01*
X111577769Y-56248300D01*
X111579024Y-56188630D01*
X111596250Y-56045076D01*
X111627093Y-55833690D01*
X111669200Y-55570523D01*
X111720219Y-55271624D01*
X111724546Y-55247041D01*
X111782924Y-54905293D01*
X111838673Y-54559293D01*
X111887620Y-54236386D01*
X111925595Y-53963922D01*
X111945417Y-53799241D01*
X112001321Y-53281775D01*
X112051734Y-52852643D01*
X112099266Y-52498902D01*
X112146524Y-52207608D01*
X112196116Y-51965819D01*
X112250650Y-51760592D01*
X112312733Y-51578983D01*
X112384975Y-51408050D01*
X112457053Y-51260036D01*
X112621647Y-51000489D01*
X112825922Y-50773019D01*
X113043210Y-50605422D01*
X113126942Y-50561750D01*
X113247926Y-50496093D01*
X113316370Y-50435136D01*
X113322100Y-50419000D01*
X113279733Y-50365717D01*
X113173181Y-50298661D01*
X113119834Y-50273113D01*
X112873446Y-50123180D01*
X112619651Y-49896010D01*
X112377108Y-49612567D01*
X112164479Y-49293811D01*
X112046342Y-49067239D01*
X111917750Y-48747956D01*
X111835033Y-48434372D01*
X111806205Y-48208080D01*
X113686110Y-48208080D01*
X113723654Y-48506351D01*
X113744052Y-48595254D01*
X113836304Y-48827962D01*
X113980873Y-49057500D01*
X114153092Y-49250281D01*
X114307770Y-49362772D01*
X114406543Y-49406616D01*
X114522803Y-49441561D01*
X114668233Y-49468461D01*
X114854515Y-49488170D01*
X115093333Y-49501542D01*
X115396371Y-49509433D01*
X115775312Y-49512695D01*
X116241839Y-49512183D01*
X116344700Y-49511713D01*
X117767100Y-49504600D01*
X117767100Y-46659800D01*
X116141500Y-46659800D01*
X115666180Y-46659676D01*
X115280481Y-46661161D01*
X114972431Y-46667039D01*
X114730059Y-46680091D01*
X114541391Y-46703102D01*
X114394457Y-46738855D01*
X114277283Y-46790133D01*
X114177899Y-46859719D01*
X114084331Y-46950396D01*
X113984608Y-47064948D01*
X113885049Y-47184378D01*
X113788347Y-47360856D01*
X113721157Y-47608313D01*
X113686177Y-47899728D01*
X113686110Y-48208080D01*
X111806205Y-48208080D01*
X111791334Y-48091358D01*
X111779731Y-47701200D01*
X111819233Y-47101017D01*
X111934399Y-46568508D01*
X112125634Y-46103093D01*
X112393344Y-45704189D01*
X112737934Y-45371214D01*
X113159811Y-45103587D01*
X113659381Y-44900727D01*
X113753900Y-44872109D01*
X113829853Y-44852753D01*
X113919002Y-44836251D01*
X114030033Y-44822308D01*
X114171630Y-44810633D01*
X114352479Y-44800931D01*
X114581263Y-44792908D01*
X114866669Y-44786273D01*
X115217382Y-44780731D01*
X115642085Y-44775989D01*
X116149465Y-44771753D01*
X116748206Y-44767731D01*
X116865617Y-44767012D01*
X119672534Y-44750002D01*
X119646700Y-56261000D01*
X119646700Y-56261000D01*
G37*
X119646700Y-56261000D02*
X117817900Y-56261000D01*
X117767100Y-51333400D01*
X116522500Y-51319020D01*
X116009031Y-51316344D01*
X115586136Y-51321982D01*
X115243048Y-51336946D01*
X114969003Y-51362247D01*
X114753237Y-51398897D01*
X114584985Y-51447906D01*
X114453482Y-51510286D01*
X114447389Y-51513950D01*
X114270840Y-51665228D01*
X114127801Y-51887691D01*
X114015345Y-52188726D01*
X113930543Y-52575718D01*
X113881845Y-52940735D01*
X113857030Y-53176206D01*
X113825548Y-53475957D01*
X113791254Y-53803213D01*
X113758007Y-54121200D01*
X113754709Y-54152800D01*
X113713827Y-54535021D01*
X113671785Y-54911215D01*
X113630376Y-55266824D01*
X113591393Y-55587289D01*
X113556631Y-55858054D01*
X113527882Y-56064559D01*
X113506941Y-56192247D01*
X113499652Y-56222900D01*
X113464344Y-56246803D01*
X113370531Y-56264424D01*
X113208087Y-56276432D01*
X112966884Y-56283498D01*
X112636795Y-56286291D01*
X112539292Y-56286400D01*
X112241205Y-56284434D01*
X111979648Y-56278968D01*
X111770970Y-56270650D01*
X111631517Y-56260128D01*
X111577769Y-56248300D01*
X111579024Y-56188630D01*
X111596250Y-56045076D01*
X111627093Y-55833690D01*
X111669200Y-55570523D01*
X111720219Y-55271624D01*
X111724546Y-55247041D01*
X111782924Y-54905293D01*
X111838673Y-54559293D01*
X111887620Y-54236386D01*
X111925595Y-53963922D01*
X111945417Y-53799241D01*
X112001321Y-53281775D01*
X112051734Y-52852643D01*
X112099266Y-52498902D01*
X112146524Y-52207608D01*
X112196116Y-51965819D01*
X112250650Y-51760592D01*
X112312733Y-51578983D01*
X112384975Y-51408050D01*
X112457053Y-51260036D01*
X112621647Y-51000489D01*
X112825922Y-50773019D01*
X113043210Y-50605422D01*
X113126942Y-50561750D01*
X113247926Y-50496093D01*
X113316370Y-50435136D01*
X113322100Y-50419000D01*
X113279733Y-50365717D01*
X113173181Y-50298661D01*
X113119834Y-50273113D01*
X112873446Y-50123180D01*
X112619651Y-49896010D01*
X112377108Y-49612567D01*
X112164479Y-49293811D01*
X112046342Y-49067239D01*
X111917750Y-48747956D01*
X111835033Y-48434372D01*
X111806205Y-48208080D01*
X113686110Y-48208080D01*
X113723654Y-48506351D01*
X113744052Y-48595254D01*
X113836304Y-48827962D01*
X113980873Y-49057500D01*
X114153092Y-49250281D01*
X114307770Y-49362772D01*
X114406543Y-49406616D01*
X114522803Y-49441561D01*
X114668233Y-49468461D01*
X114854515Y-49488170D01*
X115093333Y-49501542D01*
X115396371Y-49509433D01*
X115775312Y-49512695D01*
X116241839Y-49512183D01*
X116344700Y-49511713D01*
X117767100Y-49504600D01*
X117767100Y-46659800D01*
X116141500Y-46659800D01*
X115666180Y-46659676D01*
X115280481Y-46661161D01*
X114972431Y-46667039D01*
X114730059Y-46680091D01*
X114541391Y-46703102D01*
X114394457Y-46738855D01*
X114277283Y-46790133D01*
X114177899Y-46859719D01*
X114084331Y-46950396D01*
X113984608Y-47064948D01*
X113885049Y-47184378D01*
X113788347Y-47360856D01*
X113721157Y-47608313D01*
X113686177Y-47899728D01*
X113686110Y-48208080D01*
X111806205Y-48208080D01*
X111791334Y-48091358D01*
X111779731Y-47701200D01*
X111819233Y-47101017D01*
X111934399Y-46568508D01*
X112125634Y-46103093D01*
X112393344Y-45704189D01*
X112737934Y-45371214D01*
X113159811Y-45103587D01*
X113659381Y-44900727D01*
X113753900Y-44872109D01*
X113829853Y-44852753D01*
X113919002Y-44836251D01*
X114030033Y-44822308D01*
X114171630Y-44810633D01*
X114352479Y-44800931D01*
X114581263Y-44792908D01*
X114866669Y-44786273D01*
X115217382Y-44780731D01*
X115642085Y-44775989D01*
X116149465Y-44771753D01*
X116748206Y-44767731D01*
X116865617Y-44767012D01*
X119672534Y-44750002D01*
X119646700Y-56261000D01*
G36*
X126992195Y-45745400D02*
G01*
X127117384Y-46056426D01*
X127236701Y-46352266D01*
X127342349Y-46613632D01*
X127426531Y-46821238D01*
X127481451Y-46955798D01*
X127485077Y-46964600D01*
X127527459Y-47069084D01*
X127602414Y-47255771D01*
X127705058Y-47512418D01*
X127830506Y-47826785D01*
X127973873Y-48186629D01*
X128130275Y-48579711D01*
X128294827Y-48993789D01*
X128306030Y-49022000D01*
X128470561Y-49435770D01*
X128627026Y-49828227D01*
X128770598Y-50187334D01*
X128896447Y-50501057D01*
X128999745Y-50757361D01*
X129075664Y-50944210D01*
X129119375Y-51049570D01*
X129121284Y-51054000D01*
X129163981Y-51156713D01*
X129238528Y-51340641D01*
X129339596Y-51592446D01*
X129461857Y-51898790D01*
X129599980Y-52246336D01*
X129748638Y-52621744D01*
X129831671Y-52832000D01*
X129983834Y-53216938D01*
X130128391Y-53581238D01*
X130260007Y-53911558D01*
X130373346Y-54194562D01*
X130463074Y-54416910D01*
X130523856Y-54565263D01*
X130542803Y-54610000D01*
X130626404Y-54807545D01*
X130722296Y-55043848D01*
X130823285Y-55299975D01*
X130922176Y-55556991D01*
X131011776Y-55795962D01*
X131084892Y-55997954D01*
X131134328Y-56144034D01*
X131152893Y-56215266D01*
X131152900Y-56215775D01*
X131136413Y-56241049D01*
X131078894Y-56259735D01*
X130968254Y-56272722D01*
X130792402Y-56280903D01*
X130539249Y-56285165D01*
X130196705Y-56286399D01*
X130193542Y-56286400D01*
X129859152Y-56286000D01*
X129611819Y-56283729D01*
X129436996Y-56277974D01*
X129320142Y-56267125D01*
X129246712Y-56249570D01*
X129202161Y-56223699D01*
X129171946Y-56187901D01*
X129161668Y-56172100D01*
X129111604Y-56073335D01*
X129040507Y-55908301D01*
X128960904Y-55706630D01*
X128930827Y-55626000D01*
X128853546Y-55416815D01*
X128752001Y-55144219D01*
X128637996Y-54839785D01*
X128523333Y-54535086D01*
X128494069Y-54457600D01*
X128215634Y-53721000D01*
X125956101Y-53707780D01*
X125416929Y-53704830D01*
X124970469Y-53703061D01*
X124607837Y-53702769D01*
X124320151Y-53704249D01*
X124098527Y-53707794D01*
X123934080Y-53713701D01*
X123817928Y-53722264D01*
X123741186Y-53733777D01*
X123694971Y-53748537D01*
X123670399Y-53766837D01*
X123660453Y-53783980D01*
X123622242Y-53882895D01*
X123556133Y-54058416D01*
X123469076Y-54291715D01*
X123368025Y-54563962D01*
X123259932Y-54856330D01*
X123151747Y-55149988D01*
X123050422Y-55426108D01*
X122962911Y-55665860D01*
X122896164Y-55850415D01*
X122863141Y-55943500D01*
X122761572Y-56235600D01*
X121724836Y-56235600D01*
X121345650Y-56233790D01*
X121060312Y-56228071D01*
X120861128Y-56218003D01*
X120740406Y-56203149D01*
X120690453Y-56183069D01*
X120688100Y-56176541D01*
X120702056Y-56123119D01*
X120744746Y-55998549D01*
X120817401Y-55799583D01*
X120921252Y-55522974D01*
X121057531Y-55165473D01*
X121227470Y-54723831D01*
X121432300Y-54194802D01*
X121673252Y-53575137D01*
X121715381Y-53467000D01*
X121968492Y-52814923D01*
X122208413Y-52191142D01*
X122343151Y-51838107D01*
X124361352Y-51838107D01*
X124363067Y-51853772D01*
X124418978Y-51865894D01*
X124560304Y-51875708D01*
X124772113Y-51883272D01*
X125039471Y-51888645D01*
X125347444Y-51891886D01*
X125681098Y-51893055D01*
X126025500Y-51892209D01*
X126365716Y-51889408D01*
X126686813Y-51884712D01*
X126973857Y-51878178D01*
X127211915Y-51869867D01*
X127386051Y-51859836D01*
X127481335Y-51848146D01*
X127494761Y-51841400D01*
X127475125Y-51738062D01*
X127418007Y-51543093D01*
X127324212Y-51258974D01*
X127194549Y-50888181D01*
X127093387Y-50607291D01*
X126908451Y-50097521D01*
X126754268Y-49670101D01*
X126626408Y-49312067D01*
X126520436Y-49010456D01*
X126431920Y-48752305D01*
X126356427Y-48524652D01*
X126289525Y-48314533D01*
X126226780Y-48108986D01*
X126163760Y-47895046D01*
X126151743Y-47853600D01*
X126055789Y-47535197D01*
X125979175Y-47312216D01*
X125919803Y-47180766D01*
X125875575Y-47136954D01*
X125844393Y-47176889D01*
X125828927Y-47254687D01*
X125800501Y-47395717D01*
X125744075Y-47614987D01*
X125664863Y-47894721D01*
X125568082Y-48217143D01*
X125458948Y-48564476D01*
X125342676Y-48918943D01*
X125326340Y-48967491D01*
X125242589Y-49216897D01*
X125170728Y-49433395D01*
X125116990Y-49598017D01*
X125087608Y-49691791D01*
X125084291Y-49704091D01*
X125057186Y-49789571D01*
X125020277Y-49885600D01*
X124981736Y-49987843D01*
X124921066Y-50158290D01*
X124848212Y-50368744D01*
X124805247Y-50495200D01*
X124712677Y-50766129D01*
X124609869Y-51061627D01*
X124515152Y-51329135D01*
X124490874Y-51396572D01*
X124425435Y-51588493D01*
X124380017Y-51743698D01*
X124361352Y-51838107D01*
X122343151Y-51838107D01*
X122380671Y-51739800D01*
X122473883Y-51496495D01*
X122587846Y-51201401D01*
X122706025Y-50897235D01*
X122783738Y-50698400D01*
X122869247Y-50479667D01*
X122982686Y-50188538D01*
X123115358Y-49847384D01*
X123258566Y-49478577D01*
X123403614Y-49104489D01*
X123474906Y-48920400D01*
X123621465Y-48542089D01*
X123794160Y-48096810D01*
X123982237Y-47612260D01*
X124174943Y-47116135D01*
X124361524Y-46636132D01*
X124510420Y-46253400D01*
X125083822Y-44780200D01*
X126604109Y-44780200D01*
X126992195Y-45745400D01*
X126992195Y-45745400D01*
G37*
X126992195Y-45745400D02*
X127117384Y-46056426D01*
X127236701Y-46352266D01*
X127342349Y-46613632D01*
X127426531Y-46821238D01*
X127481451Y-46955798D01*
X127485077Y-46964600D01*
X127527459Y-47069084D01*
X127602414Y-47255771D01*
X127705058Y-47512418D01*
X127830506Y-47826785D01*
X127973873Y-48186629D01*
X128130275Y-48579711D01*
X128294827Y-48993789D01*
X128306030Y-49022000D01*
X128470561Y-49435770D01*
X128627026Y-49828227D01*
X128770598Y-50187334D01*
X128896447Y-50501057D01*
X128999745Y-50757361D01*
X129075664Y-50944210D01*
X129119375Y-51049570D01*
X129121284Y-51054000D01*
X129163981Y-51156713D01*
X129238528Y-51340641D01*
X129339596Y-51592446D01*
X129461857Y-51898790D01*
X129599980Y-52246336D01*
X129748638Y-52621744D01*
X129831671Y-52832000D01*
X129983834Y-53216938D01*
X130128391Y-53581238D01*
X130260007Y-53911558D01*
X130373346Y-54194562D01*
X130463074Y-54416910D01*
X130523856Y-54565263D01*
X130542803Y-54610000D01*
X130626404Y-54807545D01*
X130722296Y-55043848D01*
X130823285Y-55299975D01*
X130922176Y-55556991D01*
X131011776Y-55795962D01*
X131084892Y-55997954D01*
X131134328Y-56144034D01*
X131152893Y-56215266D01*
X131152900Y-56215775D01*
X131136413Y-56241049D01*
X131078894Y-56259735D01*
X130968254Y-56272722D01*
X130792402Y-56280903D01*
X130539249Y-56285165D01*
X130196705Y-56286399D01*
X130193542Y-56286400D01*
X129859152Y-56286000D01*
X129611819Y-56283729D01*
X129436996Y-56277974D01*
X129320142Y-56267125D01*
X129246712Y-56249570D01*
X129202161Y-56223699D01*
X129171946Y-56187901D01*
X129161668Y-56172100D01*
X129111604Y-56073335D01*
X129040507Y-55908301D01*
X128960904Y-55706630D01*
X128930827Y-55626000D01*
X128853546Y-55416815D01*
X128752001Y-55144219D01*
X128637996Y-54839785D01*
X128523333Y-54535086D01*
X128494069Y-54457600D01*
X128215634Y-53721000D01*
X125956101Y-53707780D01*
X125416929Y-53704830D01*
X124970469Y-53703061D01*
X124607837Y-53702769D01*
X124320151Y-53704249D01*
X124098527Y-53707794D01*
X123934080Y-53713701D01*
X123817928Y-53722264D01*
X123741186Y-53733777D01*
X123694971Y-53748537D01*
X123670399Y-53766837D01*
X123660453Y-53783980D01*
X123622242Y-53882895D01*
X123556133Y-54058416D01*
X123469076Y-54291715D01*
X123368025Y-54563962D01*
X123259932Y-54856330D01*
X123151747Y-55149988D01*
X123050422Y-55426108D01*
X122962911Y-55665860D01*
X122896164Y-55850415D01*
X122863141Y-55943500D01*
X122761572Y-56235600D01*
X121724836Y-56235600D01*
X121345650Y-56233790D01*
X121060312Y-56228071D01*
X120861128Y-56218003D01*
X120740406Y-56203149D01*
X120690453Y-56183069D01*
X120688100Y-56176541D01*
X120702056Y-56123119D01*
X120744746Y-55998549D01*
X120817401Y-55799583D01*
X120921252Y-55522974D01*
X121057531Y-55165473D01*
X121227470Y-54723831D01*
X121432300Y-54194802D01*
X121673252Y-53575137D01*
X121715381Y-53467000D01*
X121968492Y-52814923D01*
X122208413Y-52191142D01*
X122343151Y-51838107D01*
X124361352Y-51838107D01*
X124363067Y-51853772D01*
X124418978Y-51865894D01*
X124560304Y-51875708D01*
X124772113Y-51883272D01*
X125039471Y-51888645D01*
X125347444Y-51891886D01*
X125681098Y-51893055D01*
X126025500Y-51892209D01*
X126365716Y-51889408D01*
X126686813Y-51884712D01*
X126973857Y-51878178D01*
X127211915Y-51869867D01*
X127386051Y-51859836D01*
X127481335Y-51848146D01*
X127494761Y-51841400D01*
X127475125Y-51738062D01*
X127418007Y-51543093D01*
X127324212Y-51258974D01*
X127194549Y-50888181D01*
X127093387Y-50607291D01*
X126908451Y-50097521D01*
X126754268Y-49670101D01*
X126626408Y-49312067D01*
X126520436Y-49010456D01*
X126431920Y-48752305D01*
X126356427Y-48524652D01*
X126289525Y-48314533D01*
X126226780Y-48108986D01*
X126163760Y-47895046D01*
X126151743Y-47853600D01*
X126055789Y-47535197D01*
X125979175Y-47312216D01*
X125919803Y-47180766D01*
X125875575Y-47136954D01*
X125844393Y-47176889D01*
X125828927Y-47254687D01*
X125800501Y-47395717D01*
X125744075Y-47614987D01*
X125664863Y-47894721D01*
X125568082Y-48217143D01*
X125458948Y-48564476D01*
X125342676Y-48918943D01*
X125326340Y-48967491D01*
X125242589Y-49216897D01*
X125170728Y-49433395D01*
X125116990Y-49598017D01*
X125087608Y-49691791D01*
X125084291Y-49704091D01*
X125057186Y-49789571D01*
X125020277Y-49885600D01*
X124981736Y-49987843D01*
X124921066Y-50158290D01*
X124848212Y-50368744D01*
X124805247Y-50495200D01*
X124712677Y-50766129D01*
X124609869Y-51061627D01*
X124515152Y-51329135D01*
X124490874Y-51396572D01*
X124425435Y-51588493D01*
X124380017Y-51743698D01*
X124361352Y-51838107D01*
X122343151Y-51838107D01*
X122380671Y-51739800D01*
X122473883Y-51496495D01*
X122587846Y-51201401D01*
X122706025Y-50897235D01*
X122783738Y-50698400D01*
X122869247Y-50479667D01*
X122982686Y-50188538D01*
X123115358Y-49847384D01*
X123258566Y-49478577D01*
X123403614Y-49104489D01*
X123474906Y-48920400D01*
X123621465Y-48542089D01*
X123794160Y-48096810D01*
X123982237Y-47612260D01*
X124174943Y-47116135D01*
X124361524Y-46636132D01*
X124510420Y-46253400D01*
X125083822Y-44780200D01*
X126604109Y-44780200D01*
X126992195Y-45745400D01*
G36*
X143548100Y-56286400D02*
G01*
X141765305Y-56286400D01*
X141780402Y-51543998D01*
X141782891Y-50743542D01*
X141784879Y-50038831D01*
X141786272Y-49424010D01*
X141786974Y-48893224D01*
X141786890Y-48440621D01*
X141785924Y-48060344D01*
X141783980Y-47746540D01*
X141780963Y-47493354D01*
X141776778Y-47294931D01*
X141771330Y-47145418D01*
X141764522Y-47038960D01*
X141756259Y-46969702D01*
X141746447Y-46931791D01*
X141734988Y-46919370D01*
X141721789Y-46926587D01*
X141706753Y-46947587D01*
X141705489Y-46949652D01*
X141651520Y-47060771D01*
X141639414Y-47135251D01*
X141641381Y-47139618D01*
X141645753Y-47213538D01*
X141620499Y-47327064D01*
X141590824Y-47426075D01*
X141540228Y-47601920D01*
X141474712Y-47833465D01*
X141400276Y-48099575D01*
X141362804Y-48234600D01*
X141319927Y-48379974D01*
X141248207Y-48611720D01*
X141150927Y-48919820D01*
X141031371Y-49294259D01*
X140892821Y-49725021D01*
X140738562Y-50202091D01*
X140571877Y-50715451D01*
X140396050Y-51255087D01*
X140214364Y-51810981D01*
X140030102Y-52373119D01*
X139846549Y-52931484D01*
X139666987Y-53476060D01*
X139494700Y-53996831D01*
X139332971Y-54483782D01*
X139185085Y-54926896D01*
X139054324Y-55316158D01*
X138943972Y-55641551D01*
X138857312Y-55893060D01*
X138797629Y-56060668D01*
X138793989Y-56070500D01*
X138713696Y-56286400D01*
X137103148Y-56286400D01*
X136694212Y-55054500D01*
X136589219Y-54738526D01*
X136457839Y-54343641D01*
X136305887Y-53887293D01*
X136139178Y-53386934D01*
X135963526Y-52860013D01*
X135784745Y-52323979D01*
X135608652Y-51796283D01*
X135521956Y-51536600D01*
X135326760Y-50952020D01*
X135160718Y-50454449D01*
X135020844Y-50034515D01*
X134904150Y-49682845D01*
X134807651Y-49390064D01*
X134728361Y-49146801D01*
X134663294Y-48943682D01*
X134609463Y-48771333D01*
X134563882Y-48620383D01*
X134523566Y-48481457D01*
X134485527Y-48345182D01*
X134446780Y-48202186D01*
X134404339Y-48043096D01*
X134380963Y-47955200D01*
X134279073Y-47575714D01*
X134199325Y-47287532D01*
X134139342Y-47083362D01*
X134096749Y-46955909D01*
X134069169Y-46897881D01*
X134054227Y-46901985D01*
X134049964Y-46939200D01*
X134049138Y-47007780D01*
X134048115Y-47170546D01*
X134046921Y-47420081D01*
X134045579Y-47748972D01*
X134044115Y-48149804D01*
X134042555Y-48615160D01*
X134040921Y-49137628D01*
X134039240Y-49709791D01*
X134037537Y-50324235D01*
X134035836Y-50973546D01*
X134034161Y-51650307D01*
X134034129Y-51663600D01*
X134023100Y-56261000D01*
X133130999Y-56274833D01*
X132839628Y-56277419D01*
X132584087Y-56276022D01*
X132381460Y-56271032D01*
X132248827Y-56262839D01*
X132203899Y-56253666D01*
X132199293Y-56199260D01*
X132194863Y-56049708D01*
X132190650Y-55811467D01*
X132186692Y-55490990D01*
X132183030Y-55094733D01*
X132179701Y-54629151D01*
X132176745Y-54100699D01*
X132174201Y-53515831D01*
X132172109Y-52881003D01*
X132170508Y-52202669D01*
X132169436Y-51487285D01*
X132168934Y-50741304D01*
X132168900Y-50486733D01*
X132168900Y-44754800D01*
X133540500Y-44754800D01*
X133901914Y-44755250D01*
X134227691Y-44756520D01*
X134504735Y-44758488D01*
X134719951Y-44761033D01*
X134860243Y-44764035D01*
X134912517Y-44767371D01*
X134912592Y-44767500D01*
X134928190Y-44816936D01*
X134972218Y-44951327D01*
X135040898Y-45159270D01*
X135130450Y-45429360D01*
X135237095Y-45750193D01*
X135357055Y-46110366D01*
X135438652Y-46355000D01*
X135791223Y-47412442D01*
X136111633Y-48375562D01*
X136400488Y-49246211D01*
X136658393Y-50026239D01*
X136885950Y-50717496D01*
X137083766Y-51321832D01*
X137252444Y-51841097D01*
X137392589Y-52277143D01*
X137504805Y-52631818D01*
X137589697Y-52906974D01*
X137647868Y-53104461D01*
X137670495Y-53187600D01*
X137743408Y-53442688D01*
X137806368Y-53604304D01*
X137858007Y-53669052D01*
X137864737Y-53670200D01*
X137922645Y-53626569D01*
X137949952Y-53543200D01*
X137973657Y-53422221D01*
X138021017Y-53232695D01*
X138084270Y-53002693D01*
X138155650Y-52760286D01*
X138227394Y-52533546D01*
X138237983Y-52501800D01*
X138283998Y-52359920D01*
X138347838Y-52156585D01*
X138418276Y-51927696D01*
X138444464Y-51841400D01*
X138528446Y-51568237D01*
X138623912Y-51264957D01*
X138712272Y-50990520D01*
X138724780Y-50952400D01*
X138787815Y-50759104D01*
X138873120Y-50494879D01*
X138972361Y-50185676D01*
X139077203Y-49857445D01*
X139157099Y-49606200D01*
X139271754Y-49245031D01*
X139397760Y-48848414D01*
X139523296Y-48453536D01*
X139636540Y-48097586D01*
X139689965Y-47929800D01*
X139791197Y-47611654D01*
X139911243Y-47233836D01*
X140038290Y-46833549D01*
X140160530Y-46447995D01*
X140222162Y-46253400D01*
X140320545Y-45943104D01*
X140415090Y-45645804D01*
X140498890Y-45383154D01*
X140565035Y-45176811D01*
X140602959Y-45059600D01*
X140694291Y-44780200D01*
X142121195Y-44766708D01*
X143548100Y-44753217D01*
X143548100Y-56286400D01*
X143548100Y-56286400D01*
G37*
X143548100Y-56286400D02*
X141765305Y-56286400D01*
X141780402Y-51543998D01*
X141782891Y-50743542D01*
X141784879Y-50038831D01*
X141786272Y-49424010D01*
X141786974Y-48893224D01*
X141786890Y-48440621D01*
X141785924Y-48060344D01*
X141783980Y-47746540D01*
X141780963Y-47493354D01*
X141776778Y-47294931D01*
X141771330Y-47145418D01*
X141764522Y-47038960D01*
X141756259Y-46969702D01*
X141746447Y-46931791D01*
X141734988Y-46919370D01*
X141721789Y-46926587D01*
X141706753Y-46947587D01*
X141705489Y-46949652D01*
X141651520Y-47060771D01*
X141639414Y-47135251D01*
X141641381Y-47139618D01*
X141645753Y-47213538D01*
X141620499Y-47327064D01*
X141590824Y-47426075D01*
X141540228Y-47601920D01*
X141474712Y-47833465D01*
X141400276Y-48099575D01*
X141362804Y-48234600D01*
X141319927Y-48379974D01*
X141248207Y-48611720D01*
X141150927Y-48919820D01*
X141031371Y-49294259D01*
X140892821Y-49725021D01*
X140738562Y-50202091D01*
X140571877Y-50715451D01*
X140396050Y-51255087D01*
X140214364Y-51810981D01*
X140030102Y-52373119D01*
X139846549Y-52931484D01*
X139666987Y-53476060D01*
X139494700Y-53996831D01*
X139332971Y-54483782D01*
X139185085Y-54926896D01*
X139054324Y-55316158D01*
X138943972Y-55641551D01*
X138857312Y-55893060D01*
X138797629Y-56060668D01*
X138793989Y-56070500D01*
X138713696Y-56286400D01*
X137103148Y-56286400D01*
X136694212Y-55054500D01*
X136589219Y-54738526D01*
X136457839Y-54343641D01*
X136305887Y-53887293D01*
X136139178Y-53386934D01*
X135963526Y-52860013D01*
X135784745Y-52323979D01*
X135608652Y-51796283D01*
X135521956Y-51536600D01*
X135326760Y-50952020D01*
X135160718Y-50454449D01*
X135020844Y-50034515D01*
X134904150Y-49682845D01*
X134807651Y-49390064D01*
X134728361Y-49146801D01*
X134663294Y-48943682D01*
X134609463Y-48771333D01*
X134563882Y-48620383D01*
X134523566Y-48481457D01*
X134485527Y-48345182D01*
X134446780Y-48202186D01*
X134404339Y-48043096D01*
X134380963Y-47955200D01*
X134279073Y-47575714D01*
X134199325Y-47287532D01*
X134139342Y-47083362D01*
X134096749Y-46955909D01*
X134069169Y-46897881D01*
X134054227Y-46901985D01*
X134049964Y-46939200D01*
X134049138Y-47007780D01*
X134048115Y-47170546D01*
X134046921Y-47420081D01*
X134045579Y-47748972D01*
X134044115Y-48149804D01*
X134042555Y-48615160D01*
X134040921Y-49137628D01*
X134039240Y-49709791D01*
X134037537Y-50324235D01*
X134035836Y-50973546D01*
X134034161Y-51650307D01*
X134034129Y-51663600D01*
X134023100Y-56261000D01*
X133130999Y-56274833D01*
X132839628Y-56277419D01*
X132584087Y-56276022D01*
X132381460Y-56271032D01*
X132248827Y-56262839D01*
X132203899Y-56253666D01*
X132199293Y-56199260D01*
X132194863Y-56049708D01*
X132190650Y-55811467D01*
X132186692Y-55490990D01*
X132183030Y-55094733D01*
X132179701Y-54629151D01*
X132176745Y-54100699D01*
X132174201Y-53515831D01*
X132172109Y-52881003D01*
X132170508Y-52202669D01*
X132169436Y-51487285D01*
X132168934Y-50741304D01*
X132168900Y-50486733D01*
X132168900Y-44754800D01*
X133540500Y-44754800D01*
X133901914Y-44755250D01*
X134227691Y-44756520D01*
X134504735Y-44758488D01*
X134719951Y-44761033D01*
X134860243Y-44764035D01*
X134912517Y-44767371D01*
X134912592Y-44767500D01*
X134928190Y-44816936D01*
X134972218Y-44951327D01*
X135040898Y-45159270D01*
X135130450Y-45429360D01*
X135237095Y-45750193D01*
X135357055Y-46110366D01*
X135438652Y-46355000D01*
X135791223Y-47412442D01*
X136111633Y-48375562D01*
X136400488Y-49246211D01*
X136658393Y-50026239D01*
X136885950Y-50717496D01*
X137083766Y-51321832D01*
X137252444Y-51841097D01*
X137392589Y-52277143D01*
X137504805Y-52631818D01*
X137589697Y-52906974D01*
X137647868Y-53104461D01*
X137670495Y-53187600D01*
X137743408Y-53442688D01*
X137806368Y-53604304D01*
X137858007Y-53669052D01*
X137864737Y-53670200D01*
X137922645Y-53626569D01*
X137949952Y-53543200D01*
X137973657Y-53422221D01*
X138021017Y-53232695D01*
X138084270Y-53002693D01*
X138155650Y-52760286D01*
X138227394Y-52533546D01*
X138237983Y-52501800D01*
X138283998Y-52359920D01*
X138347838Y-52156585D01*
X138418276Y-51927696D01*
X138444464Y-51841400D01*
X138528446Y-51568237D01*
X138623912Y-51264957D01*
X138712272Y-50990520D01*
X138724780Y-50952400D01*
X138787815Y-50759104D01*
X138873120Y-50494879D01*
X138972361Y-50185676D01*
X139077203Y-49857445D01*
X139157099Y-49606200D01*
X139271754Y-49245031D01*
X139397760Y-48848414D01*
X139523296Y-48453536D01*
X139636540Y-48097586D01*
X139689965Y-47929800D01*
X139791197Y-47611654D01*
X139911243Y-47233836D01*
X140038290Y-46833549D01*
X140160530Y-46447995D01*
X140222162Y-46253400D01*
X140320545Y-45943104D01*
X140415090Y-45645804D01*
X140498890Y-45383154D01*
X140565035Y-45176811D01*
X140602959Y-45059600D01*
X140694291Y-44780200D01*
X142121195Y-44766708D01*
X143548100Y-44753217D01*
X143548100Y-56286400D01*
%LPC*%
D13*
X159639000Y-57785000D03*
X159639000Y-62865000D03*
X159639000Y-43180000D03*
X159639000Y-48260000D03*
X91948000Y-33655000D03*
X91948000Y-38735000D03*
X91948000Y-54483000D03*
X91948000Y-49403000D03*
X91948000Y-44323000D03*
X91948000Y-60071000D03*
X91948000Y-65151000D03*
X91948000Y-70231000D03*
X135636000Y-72136000D03*
X140636000Y-72136000D03*
D14*
X157036000Y-72136000D03*
X161036000Y-72136000D03*
M02*
