M48
; DRILL file {KiCad (5.1.4)-1} date 31/10/2020 11:53:59
; FORMAT={-:-/ absolute / metric / decimal}
; #@! TF.CreationDate,2020-10-31T11:53:59+01:00
; #@! TF.GenerationSoftware,Kicad,Pcbnew,(5.1.4)-1
; #@! TF.FileFunction,Plated,1,2,PTH
FMAT,2
METRIC
T1C0.400
T2C0.762
T3C1.100
%
G90
G05
T1
X96.647Y-49.53
X98.933Y-49.53
X99.314Y-66.04
X100.33Y-67.818
X100.584Y-47.244
X100.901Y-57.15
X101.028Y-54.102
X101.092Y-49.276
X101.6Y-51.308
X101.854Y-66.802
X102.526Y-55.372
X102.879Y-65.729
X102.997Y-60.96
X103.653Y-44.82
X104.902Y-54.102
X104.902Y-68.58
X105.41Y-36.576
X106.045Y-67.564
X106.059Y-69.85
X106.299Y-74.422
X106.934Y-60.706
X107.151Y-71.101
X107.197Y-36.585
X107.315Y-44.704
X107.823Y-41.91
X108.04Y-51.434
X108.04Y-59.489
X108.144Y-71.22
X108.195Y-36.585
X108.331Y-43.434
X108.331Y-48.514
X108.49Y-65.221
X108.94Y-62.474
X108.966Y-39.878
X109.093Y-67.691
X109.211Y-36.585
X110.227Y-36.585
X110.324Y-67.72
X111.76Y-71.628
X111.803Y-35.793
X111.887Y-58.42
X112.612Y-59.69
X112.612Y-65.405
X112.66Y-34.936
X112.776Y-43.688
X112.776Y-48.006
X113.03Y-52.07
X113.157Y-56.007
X113.454Y-34.142
X114.3Y-52.07
X114.554Y-62.738
X116.078Y-48.768
X116.586Y-57.15
X116.84Y-67.564
X117.348Y-28.956
X117.856Y-43.18
X118.237Y-60.706
X118.872Y-33.528
X119.634Y-39.878
X119.634Y-73.66
X120.396Y-41.656
X121.92Y-46.736
X122.174Y-58.166
X122.174Y-63.246
X122.645Y-37.084
X122.682Y-35.56
X122.936Y-33.02
X123.698Y-59.436
X123.952Y-69.088
X124.095Y-37.108
X125.476Y-41.656
X125.476Y-54.61
X126.492Y-73.66
X128.016Y-33.528
X128.524Y-35.814
X129.032Y-59.436
X130.048Y-45.466
X130.048Y-48.26
X130.81Y-59.944
X131.171Y-67.671
X131.572Y-34.798
X131.572Y-56.896
X131.572Y-58.42
X134.112Y-44.196
X135.636Y-70.104
X135.641Y-46.731
X136.081Y-55.31
X137.16Y-41.656
X137.414Y-52.832
X137.414Y-55.372
X137.842Y-67.957
X138.139Y-59.932
X138.176Y-66.04
X138.396Y-33.308
X138.684Y-56.642
X138.811Y-48.006
X139.7Y-66.04
X140.335Y-48.006
X140.716Y-70.612
X141.732Y-30.226
X141.732Y-65.278
X141.986Y-34.544
X142.494Y-49.022
X142.748Y-40.132
X146.558Y-41.91
X148.082Y-32.512
X149.352Y-50.292
X149.86Y-65.024
X150.368Y-34.544
X154.774Y-48.26
X155.956Y-43.18
X156.591Y-54.483
X156.972Y-70.104
X157.48Y-50.292
T2
X157.036Y-72.136
X161.036Y-72.136
T3
X91.948Y-44.323
X91.948Y-49.403
X91.948Y-54.483
X91.948Y-33.655
X91.948Y-38.735
X159.639Y-43.18
X159.639Y-48.26
X159.639Y-57.785
X159.639Y-62.865
X91.948Y-60.071
X91.948Y-65.151
X91.948Y-70.231
X135.636Y-72.136
X140.636Y-72.136
T0
M30
