G04 #@! TF.GenerationSoftware,KiCad,Pcbnew,(5.1.10)-1*
G04 #@! TF.CreationDate,2021-06-28T12:10:56+02:00*
G04 #@! TF.ProjectId,BSPD_v_1_1,42535044-5f76-45f3-915f-312e6b696361,rev?*
G04 #@! TF.SameCoordinates,Original*
G04 #@! TF.FileFunction,Copper,L2,Bot*
G04 #@! TF.FilePolarity,Positive*
%FSLAX46Y46*%
G04 Gerber Fmt 4.6, Leading zero omitted, Abs format (unit mm)*
G04 Created by KiCad (PCBNEW (5.1.10)-1) date 2021-06-28 12:10:56*
%MOMM*%
%LPD*%
G01*
G04 APERTURE LIST*
G04 #@! TA.AperFunction,NonConductor*
%ADD10C,0.300000*%
G04 #@! TD*
G04 #@! TA.AperFunction,ComponentPad*
%ADD11O,2.200000X1.700000*%
G04 #@! TD*
G04 #@! TA.AperFunction,ComponentPad*
%ADD12C,1.524000*%
G04 #@! TD*
G04 #@! TA.AperFunction,ComponentPad*
%ADD13C,1.900000*%
G04 #@! TD*
G04 #@! TA.AperFunction,ViaPad*
%ADD14C,0.800000*%
G04 #@! TD*
G04 #@! TA.AperFunction,Conductor*
%ADD15C,0.250000*%
G04 #@! TD*
G04 #@! TA.AperFunction,Conductor*
%ADD16C,0.500000*%
G04 #@! TD*
G04 #@! TA.AperFunction,Conductor*
%ADD17C,0.254000*%
G04 #@! TD*
G04 #@! TA.AperFunction,Conductor*
%ADD18C,0.100000*%
G04 #@! TD*
G04 APERTURE END LIST*
D10*
X159690000Y-30142571D02*
X159690000Y-28642571D01*
X159190000Y-29714000D01*
X158690000Y-28642571D01*
X158690000Y-30142571D01*
X158047142Y-29714000D02*
X157332857Y-29714000D01*
X158190000Y-30142571D02*
X157690000Y-28642571D01*
X157190000Y-30142571D01*
X155832857Y-30142571D02*
X156332857Y-29428285D01*
X156690000Y-30142571D02*
X156690000Y-28642571D01*
X156118571Y-28642571D01*
X155975714Y-28714000D01*
X155904285Y-28785428D01*
X155832857Y-28928285D01*
X155832857Y-29142571D01*
X155904285Y-29285428D01*
X155975714Y-29356857D01*
X156118571Y-29428285D01*
X156690000Y-29428285D01*
X155404285Y-28642571D02*
X154547142Y-28642571D01*
X154975714Y-30142571D02*
X154975714Y-28642571D01*
X154047142Y-29571142D02*
X152904285Y-29571142D01*
X151690000Y-29356857D02*
X152190000Y-29356857D01*
X152190000Y-30142571D02*
X152190000Y-28642571D01*
X151475714Y-28642571D01*
X150975714Y-30071142D02*
X150761428Y-30142571D01*
X150404285Y-30142571D01*
X150261428Y-30071142D01*
X150190000Y-29999714D01*
X150118571Y-29856857D01*
X150118571Y-29714000D01*
X150190000Y-29571142D01*
X150261428Y-29499714D01*
X150404285Y-29428285D01*
X150690000Y-29356857D01*
X150832857Y-29285428D01*
X150904285Y-29214000D01*
X150975714Y-29071142D01*
X150975714Y-28928285D01*
X150904285Y-28785428D01*
X150832857Y-28714000D01*
X150690000Y-28642571D01*
X150332857Y-28642571D01*
X150118571Y-28714000D01*
X158120000Y-73186857D02*
X158120000Y-71986857D01*
X157720000Y-72844000D01*
X157320000Y-71986857D01*
X157320000Y-73186857D01*
X156805714Y-72101142D02*
X156748571Y-72044000D01*
X156634285Y-71986857D01*
X156348571Y-71986857D01*
X156234285Y-72044000D01*
X156177142Y-72101142D01*
X156120000Y-72215428D01*
X156120000Y-72329714D01*
X156177142Y-72501142D01*
X156862857Y-73186857D01*
X156120000Y-73186857D01*
X154977142Y-73186857D02*
X155662857Y-73186857D01*
X155320000Y-73186857D02*
X155320000Y-71986857D01*
X155434285Y-72158285D01*
X155548571Y-72272571D01*
X155662857Y-72329714D01*
X154462857Y-72729714D02*
X153548571Y-72729714D01*
X152977142Y-72558285D02*
X152577142Y-72558285D01*
X152405714Y-73186857D02*
X152977142Y-73186857D01*
X152977142Y-71986857D01*
X152405714Y-71986857D01*
X151320000Y-73186857D02*
X151891428Y-73186857D01*
X151891428Y-71986857D01*
X150920000Y-72729714D02*
X150005714Y-72729714D01*
X149434285Y-73186857D02*
X149434285Y-71986857D01*
X148977142Y-71986857D01*
X148862857Y-72044000D01*
X148805714Y-72101142D01*
X148748571Y-72215428D01*
X148748571Y-72386857D01*
X148805714Y-72501142D01*
X148862857Y-72558285D01*
X148977142Y-72615428D01*
X149434285Y-72615428D01*
X147548571Y-73072571D02*
X147605714Y-73129714D01*
X147777142Y-73186857D01*
X147891428Y-73186857D01*
X148062857Y-73129714D01*
X148177142Y-73015428D01*
X148234285Y-72901142D01*
X148291428Y-72672571D01*
X148291428Y-72501142D01*
X148234285Y-72272571D01*
X148177142Y-72158285D01*
X148062857Y-72044000D01*
X147891428Y-71986857D01*
X147777142Y-71986857D01*
X147605714Y-72044000D01*
X147548571Y-72101142D01*
X147034285Y-73186857D02*
X147034285Y-71986857D01*
X146348571Y-73186857D02*
X146862857Y-72501142D01*
X146348571Y-71986857D02*
X147034285Y-72672571D01*
X145834285Y-72729714D02*
X144920000Y-72729714D01*
X144405714Y-73129714D02*
X144234285Y-73186857D01*
X143948571Y-73186857D01*
X143834285Y-73129714D01*
X143777142Y-73072571D01*
X143720000Y-72958285D01*
X143720000Y-72844000D01*
X143777142Y-72729714D01*
X143834285Y-72672571D01*
X143948571Y-72615428D01*
X144177142Y-72558285D01*
X144291428Y-72501142D01*
X144348571Y-72444000D01*
X144405714Y-72329714D01*
X144405714Y-72215428D01*
X144348571Y-72101142D01*
X144291428Y-72044000D01*
X144177142Y-71986857D01*
X143891428Y-71986857D01*
X143720000Y-72044000D01*
X142977142Y-71986857D02*
X142862857Y-71986857D01*
X142748571Y-72044000D01*
X142691428Y-72101142D01*
X142634285Y-72215428D01*
X142577142Y-72444000D01*
X142577142Y-72729714D01*
X142634285Y-72958285D01*
X142691428Y-73072571D01*
X142748571Y-73129714D01*
X142862857Y-73186857D01*
X142977142Y-73186857D01*
X143091428Y-73129714D01*
X143148571Y-73072571D01*
X143205714Y-72958285D01*
X143262857Y-72729714D01*
X143262857Y-72444000D01*
X143205714Y-72215428D01*
X143148571Y-72101142D01*
X143091428Y-72044000D01*
X142977142Y-71986857D01*
X142120000Y-72101142D02*
X142062857Y-72044000D01*
X141948571Y-71986857D01*
X141662857Y-71986857D01*
X141548571Y-72044000D01*
X141491428Y-72101142D01*
X141434285Y-72215428D01*
X141434285Y-72329714D01*
X141491428Y-72501142D01*
X142177142Y-73186857D01*
X141434285Y-73186857D01*
X140920000Y-72729714D02*
X140005714Y-72729714D01*
X139434285Y-73186857D02*
X139434285Y-71986857D01*
X138977142Y-71986857D01*
X138862857Y-72044000D01*
X138805714Y-72101142D01*
X138748571Y-72215428D01*
X138748571Y-72386857D01*
X138805714Y-72501142D01*
X138862857Y-72558285D01*
X138977142Y-72615428D01*
X139434285Y-72615428D01*
X138005714Y-71986857D02*
X137891428Y-71986857D01*
X137777142Y-72044000D01*
X137720000Y-72101142D01*
X137662857Y-72215428D01*
X137605714Y-72444000D01*
X137605714Y-72729714D01*
X137662857Y-72958285D01*
X137720000Y-73072571D01*
X137777142Y-73129714D01*
X137891428Y-73186857D01*
X138005714Y-73186857D01*
X138120000Y-73129714D01*
X138177142Y-73072571D01*
X138234285Y-72958285D01*
X138291428Y-72729714D01*
X138291428Y-72444000D01*
X138234285Y-72215428D01*
X138177142Y-72101142D01*
X138120000Y-72044000D01*
X138005714Y-71986857D01*
X137205714Y-71986857D02*
X136462857Y-71986857D01*
X136862857Y-72444000D01*
X136691428Y-72444000D01*
X136577142Y-72501142D01*
X136520000Y-72558285D01*
X136462857Y-72672571D01*
X136462857Y-72958285D01*
X136520000Y-73072571D01*
X136577142Y-73129714D01*
X136691428Y-73186857D01*
X137034285Y-73186857D01*
X137148571Y-73129714D01*
X137205714Y-73072571D01*
D11*
X96774000Y-45546000D03*
X96774000Y-48046000D03*
G04 #@! TA.AperFunction,ComponentPad*
G36*
G01*
X97874000Y-49946000D02*
X97874000Y-51146000D01*
G75*
G02*
X97624000Y-51396000I-250000J0D01*
G01*
X95924000Y-51396000D01*
G75*
G02*
X95674000Y-51146000I0J250000D01*
G01*
X95674000Y-49946000D01*
G75*
G02*
X95924000Y-49696000I250000J0D01*
G01*
X97624000Y-49696000D01*
G75*
G02*
X97874000Y-49946000I0J-250000D01*
G01*
G37*
G04 #@! TD.AperFunction*
X96774000Y-59262000D03*
X96774000Y-61762000D03*
G04 #@! TA.AperFunction,ComponentPad*
G36*
G01*
X97874000Y-63662000D02*
X97874000Y-64862000D01*
G75*
G02*
X97624000Y-65112000I-250000J0D01*
G01*
X95924000Y-65112000D01*
G75*
G02*
X95674000Y-64862000I0J250000D01*
G01*
X95674000Y-63662000D01*
G75*
G02*
X95924000Y-63412000I250000J0D01*
G01*
X97624000Y-63412000D01*
G75*
G02*
X97874000Y-63662000I0J-250000D01*
G01*
G37*
G04 #@! TD.AperFunction*
X155194000Y-62240800D03*
G04 #@! TA.AperFunction,ComponentPad*
G36*
G01*
X154094000Y-60340800D02*
X154094000Y-59140800D01*
G75*
G02*
X154344000Y-58890800I250000J0D01*
G01*
X156044000Y-58890800D01*
G75*
G02*
X156294000Y-59140800I0J-250000D01*
G01*
X156294000Y-60340800D01*
G75*
G02*
X156044000Y-60590800I-250000J0D01*
G01*
X154344000Y-60590800D01*
G75*
G02*
X154094000Y-60340800I0J250000D01*
G01*
G37*
G04 #@! TD.AperFunction*
X155194000Y-46950000D03*
G04 #@! TA.AperFunction,ComponentPad*
G36*
G01*
X154094000Y-45050000D02*
X154094000Y-43850000D01*
G75*
G02*
X154344000Y-43600000I250000J0D01*
G01*
X156044000Y-43600000D01*
G75*
G02*
X156294000Y-43850000I0J-250000D01*
G01*
X156294000Y-45050000D01*
G75*
G02*
X156044000Y-45300000I-250000J0D01*
G01*
X154344000Y-45300000D01*
G75*
G02*
X154094000Y-45050000I0J250000D01*
G01*
G37*
G04 #@! TD.AperFunction*
X96774000Y-36616000D03*
G04 #@! TA.AperFunction,ComponentPad*
G36*
G01*
X97874000Y-38516000D02*
X97874000Y-39716000D01*
G75*
G02*
X97624000Y-39966000I-250000J0D01*
G01*
X95924000Y-39966000D01*
G75*
G02*
X95674000Y-39716000I0J250000D01*
G01*
X95674000Y-38516000D01*
G75*
G02*
X95924000Y-38266000I250000J0D01*
G01*
X97624000Y-38266000D01*
G75*
G02*
X97874000Y-38516000I0J-250000D01*
G01*
G37*
G04 #@! TD.AperFunction*
D12*
X158496000Y-75184000D03*
X154496000Y-75184000D03*
D13*
X138096000Y-75184000D03*
X133096000Y-75184000D03*
D14*
X107442000Y-30226000D03*
X108966000Y-30226000D03*
X108966000Y-31496000D03*
X108966000Y-32766000D03*
X108966000Y-34036000D03*
X107442000Y-34036000D03*
X107442000Y-32766000D03*
X107442000Y-31496000D03*
X119634000Y-39878000D03*
X108966000Y-39878000D03*
X141986000Y-34544000D03*
X146558000Y-41910000D03*
X139700000Y-66040000D03*
X141732000Y-65278000D03*
X99314000Y-66040000D03*
X101854000Y-66802000D03*
X106059000Y-69850000D03*
X104902000Y-68580000D03*
X106934000Y-60706000D03*
X112776000Y-48006000D03*
X122682000Y-35560000D03*
X128524000Y-35814000D03*
X116078000Y-48768000D03*
X131572000Y-34798000D03*
X117348000Y-28956000D03*
X100076000Y-59436000D03*
X99060000Y-55880000D03*
X93726000Y-55880000D03*
X140439000Y-42903000D03*
X131064000Y-49276000D03*
X129032000Y-51816000D03*
X137668000Y-51816000D03*
X149352000Y-48768000D03*
X142748000Y-56388000D03*
X142748000Y-58420000D03*
X105410000Y-36576000D03*
X107197000Y-36585000D03*
X108195000Y-36585000D03*
X109211000Y-36585000D03*
X110227000Y-36585000D03*
X100584000Y-47244000D03*
X101600000Y-51308000D03*
X116840000Y-67564000D03*
X123952000Y-69088000D03*
X131171000Y-67671000D03*
X137842203Y-67956617D03*
X117856000Y-43180000D03*
X125476000Y-41656000D03*
X128016000Y-33528000D03*
X138396000Y-33308000D03*
X142748000Y-40132000D03*
X149352000Y-50292000D03*
X149860000Y-65024000D03*
X111760000Y-71628000D03*
X130048000Y-48260000D03*
X137160000Y-41656000D03*
X150368000Y-34544000D03*
X129032000Y-59436000D03*
X130810000Y-59944000D03*
X125476000Y-54610000D03*
X138139010Y-59932500D03*
X114554000Y-62738000D03*
X116586000Y-57150000D03*
X114300000Y-52070000D03*
X100330000Y-67818000D03*
X122936000Y-33020000D03*
X118872000Y-33528000D03*
X102997000Y-60960000D03*
X113453750Y-34142250D03*
X112660000Y-34936000D03*
X111802750Y-35793250D03*
X103632000Y-58928000D03*
X121920000Y-46736000D03*
X148082000Y-32512000D03*
X120396000Y-41656000D03*
X141732000Y-30226000D03*
X124095022Y-37108076D03*
X122645010Y-37084000D03*
X131572000Y-58420000D03*
X131572000Y-56896000D03*
X132588000Y-57404000D03*
X132588000Y-41148000D03*
X99060000Y-49022000D03*
X155702000Y-51181000D03*
X138811000Y-48006000D03*
X141224000Y-48260000D03*
X113157000Y-56007000D03*
X113030000Y-52070000D03*
X122174000Y-58166000D03*
X122174000Y-63246000D03*
X107823000Y-41910000D03*
X102525990Y-55372000D03*
X118237000Y-60706000D03*
X102879320Y-65728996D03*
X123698000Y-59436000D03*
X130048000Y-45466000D03*
X156591000Y-54483000D03*
X156591000Y-69977000D03*
X101092000Y-49276000D03*
X112776000Y-43688000D03*
X107315000Y-44704000D03*
X106045000Y-67564000D03*
X112612010Y-66548000D03*
X112612010Y-59690000D03*
X108331000Y-43434000D03*
X108490021Y-65220854D03*
X108040010Y-51433551D03*
X108143976Y-71219507D03*
X109093000Y-67691000D03*
X108331000Y-48514000D03*
X108940032Y-62474212D03*
X119634000Y-73660000D03*
X103653375Y-44820354D03*
X126492000Y-73660000D03*
X106299000Y-74422000D03*
X108040010Y-59488701D03*
X107151010Y-71101000D03*
X111887000Y-58420000D03*
X110324442Y-67720238D03*
X134112000Y-44196000D03*
X142494000Y-49022000D03*
X137414000Y-55372000D03*
X138176000Y-66040000D03*
D15*
X141986000Y-34544000D02*
X146558000Y-39116000D01*
X146558000Y-39116000D02*
X146558000Y-41910000D01*
X139700000Y-66040000D02*
X140970000Y-66040000D01*
X140970000Y-66040000D02*
X141732000Y-65278000D01*
X100076000Y-66802000D02*
X101854000Y-66802000D01*
X99314000Y-66040000D02*
X100076000Y-66802000D01*
X106059000Y-69850000D02*
X106059000Y-69737000D01*
X106059000Y-69737000D02*
X104902000Y-68580000D01*
X106934000Y-68975000D02*
X106059000Y-69850000D01*
X106934000Y-60706000D02*
X106934000Y-68975000D01*
X114300000Y-46482000D02*
X112776000Y-48006000D01*
X114300000Y-39878000D02*
X114300000Y-46482000D01*
X114300000Y-39878000D02*
X108966000Y-39878000D01*
X119634000Y-39878000D02*
X114300000Y-39878000D01*
X122682000Y-35560000D02*
X128270000Y-35560000D01*
X128270000Y-35560000D02*
X128524000Y-35814000D01*
X112776000Y-48006000D02*
X115316000Y-48006000D01*
X115316000Y-48006000D02*
X116078000Y-48768000D01*
X128524000Y-35814000D02*
X130556000Y-35814000D01*
X130556000Y-35814000D02*
X131572000Y-34798000D01*
D16*
X117602000Y-39878000D02*
X117602000Y-30226000D01*
X117602000Y-39878000D02*
X119634000Y-39878000D01*
X108966000Y-39878000D02*
X117602000Y-39878000D01*
X117602000Y-30226000D02*
X117348000Y-29972000D01*
X117348000Y-29972000D02*
X117348000Y-28956000D01*
X99060000Y-55880000D02*
X93726000Y-55880000D01*
X145565000Y-42903000D02*
X146558000Y-41910000D01*
X140439000Y-42903000D02*
X145565000Y-42903000D01*
X131064000Y-49784000D02*
X129032000Y-51816000D01*
X131064000Y-49276000D02*
X131064000Y-49784000D01*
X137668000Y-51816000D02*
X139192000Y-50292000D01*
X147828000Y-50292000D02*
X149352000Y-48768000D01*
X139192000Y-50292000D02*
X147828000Y-50292000D01*
X142748000Y-56388000D02*
X142748000Y-58420000D01*
D15*
X123444000Y-33528000D02*
X122936000Y-33020000D01*
X128016000Y-33528000D02*
X123444000Y-33528000D01*
D16*
X103632000Y-60325000D02*
X102997000Y-60960000D01*
X103632000Y-58928000D02*
X103632000Y-60325000D01*
D15*
X121920000Y-46736000D02*
X121920000Y-32004000D01*
X121920000Y-32004000D02*
X148082000Y-32004000D01*
X148082000Y-32004000D02*
X148082000Y-32512000D01*
X120396000Y-41656000D02*
X120396000Y-32258000D01*
X120396000Y-32258000D02*
X122428000Y-30226000D01*
X122428000Y-30226000D02*
X141732000Y-30226000D01*
X122645010Y-37084000D02*
X124070946Y-37084000D01*
X124070946Y-37084000D02*
X124095022Y-37108076D01*
X131572000Y-58420000D02*
X131572000Y-56896000D01*
X132588000Y-57404000D02*
X132588000Y-56642000D01*
X132588000Y-56642000D02*
X132588000Y-41148000D01*
D16*
X99060000Y-47832000D02*
X96774000Y-45546000D01*
X99060000Y-49022000D02*
X99060000Y-47832000D01*
X154774010Y-48825685D02*
X154774010Y-48260000D01*
X154774010Y-50888010D02*
X154774010Y-48825685D01*
X157480000Y-44450000D02*
X155194000Y-44450000D01*
X157734000Y-44704000D02*
X157480000Y-44450000D01*
X157734000Y-47498000D02*
X157734000Y-44704000D01*
X154774010Y-50457990D02*
X157734000Y-47498000D01*
X154774010Y-50888010D02*
X154774010Y-50457990D01*
X136652000Y-75184000D02*
X138096000Y-75184000D01*
X135128000Y-73660000D02*
X136652000Y-75184000D01*
X136144000Y-71120000D02*
X135128000Y-72136000D01*
X140208000Y-71120000D02*
X136144000Y-71120000D01*
X154774010Y-56553990D02*
X140208000Y-71120000D01*
X135128000Y-72136000D02*
X135128000Y-73660000D01*
X154774010Y-50888010D02*
X154774010Y-56553990D01*
X154218000Y-46950000D02*
X155194000Y-46950000D01*
X152654000Y-48514000D02*
X154218000Y-46950000D01*
X152654000Y-49784000D02*
X152654000Y-48514000D01*
X153924000Y-51054000D02*
X152654000Y-49784000D01*
X153924000Y-55880000D02*
X153924000Y-51054000D01*
X139700000Y-70104000D02*
X153924000Y-55880000D01*
X134112000Y-71628000D02*
X135636000Y-70104000D01*
X135636000Y-70104000D02*
X139700000Y-70104000D01*
X134112000Y-74168000D02*
X134112000Y-71628000D01*
X133096000Y-75184000D02*
X134112000Y-74168000D01*
D15*
X155702000Y-59232800D02*
X155194000Y-59740800D01*
X155702000Y-51181000D02*
X155702000Y-59232800D01*
X140970000Y-48006000D02*
X141224000Y-48260000D01*
X138811000Y-48006000D02*
X140970000Y-48006000D01*
X113157000Y-55441315D02*
X113030000Y-55314315D01*
X113157000Y-56007000D02*
X113157000Y-55441315D01*
X113030000Y-55314315D02*
X113030000Y-52070000D01*
X122174000Y-58731685D02*
X122174000Y-63246000D01*
X122174000Y-58166000D02*
X122174000Y-58731685D01*
X102925989Y-54972001D02*
X102525990Y-55372000D01*
X102925989Y-44522421D02*
X102925989Y-54972001D01*
X105538410Y-41910000D02*
X102925989Y-44522421D01*
X107823000Y-41910000D02*
X105538410Y-41910000D01*
X118237000Y-60706000D02*
X118237000Y-62199485D01*
X118237000Y-62199485D02*
X107792485Y-72644000D01*
X103279319Y-66128995D02*
X102879320Y-65728996D01*
X107792485Y-72644000D02*
X104521000Y-72644000D01*
X104521000Y-72644000D02*
X103279319Y-71402319D01*
X103279319Y-71402319D02*
X103279319Y-66128995D01*
X123698000Y-59436000D02*
X123698000Y-58870315D01*
X123698000Y-58870315D02*
X123698000Y-51308000D01*
X123698000Y-51308000D02*
X129540000Y-45466000D01*
X129540000Y-45466000D02*
X130048000Y-45466000D01*
D16*
X158496000Y-56388000D02*
X156591000Y-54483000D01*
X158496000Y-68072000D02*
X158496000Y-56388000D01*
X156591000Y-69977000D02*
X158496000Y-68072000D01*
D15*
X101092000Y-48710315D02*
X102362000Y-47440315D01*
X101092000Y-49276000D02*
X101092000Y-48710315D01*
X102362000Y-47440315D02*
X102362000Y-44450000D01*
X102362000Y-44450000D02*
X105664000Y-41148000D01*
X105664000Y-41148000D02*
X110744000Y-41148000D01*
X110744000Y-41148000D02*
X112776000Y-43180000D01*
X112776000Y-43180000D02*
X112776000Y-43688000D01*
X106045000Y-45974000D02*
X106045000Y-66998315D01*
X106045000Y-66998315D02*
X106045000Y-67564000D01*
X107315000Y-44704000D02*
X106045000Y-45974000D01*
X108331000Y-44634004D02*
X112304998Y-48608002D01*
X112612010Y-56662012D02*
X112612010Y-59124315D01*
X112612010Y-59124315D02*
X112612010Y-59690000D01*
X112304998Y-56355000D02*
X112612010Y-56662012D01*
X108331000Y-43434000D02*
X108331000Y-44634004D01*
X112304998Y-48608002D02*
X112304998Y-56355000D01*
X112612010Y-65404512D02*
X112612010Y-66548000D01*
X112612010Y-59690000D02*
X112612010Y-65404512D01*
X108215022Y-64380170D02*
X108490021Y-64655169D01*
X108040010Y-51433551D02*
X108765012Y-52158553D01*
X108490021Y-64655169D02*
X108490021Y-65220854D01*
X108215022Y-61840798D02*
X108215022Y-64380170D01*
X108765012Y-61290808D02*
X108215022Y-61840798D01*
X108765012Y-52158553D02*
X108765012Y-61290808D01*
X108490021Y-65220854D02*
X108490021Y-65786539D01*
X108225718Y-66050842D02*
X108225718Y-70572080D01*
X108490021Y-65786539D02*
X108225718Y-66050842D01*
X108143976Y-70653822D02*
X108143976Y-71219507D01*
X108225718Y-70572080D02*
X108143976Y-70653822D01*
X109340031Y-62074213D02*
X108940032Y-62474212D01*
X109340031Y-62874211D02*
X108940032Y-62474212D01*
X109492999Y-67291001D02*
X109492999Y-63027179D01*
X108331000Y-48514000D02*
X109340031Y-49523031D01*
X109340031Y-49523031D02*
X109340031Y-62074213D01*
X109492999Y-63027179D02*
X109340031Y-62874211D01*
X109093000Y-67691000D02*
X109492999Y-67291001D01*
X104900590Y-73660000D02*
X102579002Y-71338412D01*
X102579002Y-66453998D02*
X101763999Y-65638995D01*
X101763999Y-65638995D02*
X101763999Y-59722999D01*
X119634000Y-73660000D02*
X104900590Y-73660000D01*
X102579002Y-71338412D02*
X102579002Y-66453998D01*
X101763999Y-59722999D02*
X103653375Y-57833623D01*
X103653375Y-57833623D02*
X103653375Y-44820354D01*
X106698999Y-74821999D02*
X106299000Y-74422000D01*
X125330001Y-74821999D02*
X106698999Y-74821999D01*
X126492000Y-73660000D02*
X125330001Y-74821999D01*
X107765011Y-69921314D02*
X107151010Y-70535315D01*
X108040010Y-60054386D02*
X107765011Y-60329385D01*
X107151010Y-70535315D02*
X107151010Y-71101000D01*
X107765011Y-60329385D02*
X107765011Y-69921314D01*
X108040010Y-59488701D02*
X108040010Y-60054386D01*
X111887000Y-66157680D02*
X110724441Y-67320239D01*
X110724441Y-67320239D02*
X110324442Y-67720238D01*
X111887000Y-58420000D02*
X111887000Y-66157680D01*
X134511999Y-44595999D02*
X135527999Y-44595999D01*
X134112000Y-44196000D02*
X134511999Y-44595999D01*
X135527999Y-44595999D02*
X137668000Y-46736000D01*
X137668000Y-46736000D02*
X137668000Y-48768000D01*
X137668000Y-48768000D02*
X137922000Y-49022000D01*
X137922000Y-49022000D02*
X142494000Y-49022000D01*
X137414000Y-65278000D02*
X138176000Y-66040000D01*
X137414000Y-55372000D02*
X137414000Y-65278000D01*
D17*
X149047857Y-31494000D02*
X160832143Y-31494000D01*
X160832143Y-29776495D01*
X161083000Y-29776495D01*
X161083000Y-30167505D01*
X161159282Y-30551003D01*
X161308915Y-30912250D01*
X161526149Y-31237364D01*
X161802636Y-31513851D01*
X162127750Y-31731085D01*
X162488997Y-31880718D01*
X162872495Y-31957000D01*
X163263505Y-31957000D01*
X163647003Y-31880718D01*
X164008250Y-31731085D01*
X164333364Y-31513851D01*
X164609851Y-31237364D01*
X164827085Y-30912250D01*
X164976718Y-30551003D01*
X165053000Y-30167505D01*
X165053000Y-29776495D01*
X164976718Y-29392997D01*
X164827085Y-29031750D01*
X164609851Y-28706636D01*
X164333364Y-28430149D01*
X164008250Y-28212915D01*
X163647003Y-28063282D01*
X163263505Y-27987000D01*
X162872495Y-27987000D01*
X162488997Y-28063282D01*
X162127750Y-28212915D01*
X161802636Y-28430149D01*
X161526149Y-28706636D01*
X161308915Y-29031750D01*
X161159282Y-29392997D01*
X161083000Y-29776495D01*
X160832143Y-29776495D01*
X160832143Y-27735000D01*
X164922554Y-27735000D01*
X165254069Y-28066516D01*
X165264932Y-76150343D01*
X165188532Y-76227000D01*
X159428655Y-76227000D01*
X159581120Y-76074535D01*
X159734005Y-75845727D01*
X159839314Y-75591490D01*
X159893000Y-75321592D01*
X159893000Y-75046408D01*
X159839314Y-74776510D01*
X159734005Y-74522273D01*
X159581120Y-74293465D01*
X159386535Y-74098880D01*
X159197387Y-73972495D01*
X161083000Y-73972495D01*
X161083000Y-74363505D01*
X161159282Y-74747003D01*
X161308915Y-75108250D01*
X161526149Y-75433364D01*
X161802636Y-75709851D01*
X162127750Y-75927085D01*
X162488997Y-76076718D01*
X162872495Y-76153000D01*
X163263505Y-76153000D01*
X163647003Y-76076718D01*
X164008250Y-75927085D01*
X164333364Y-75709851D01*
X164609851Y-75433364D01*
X164827085Y-75108250D01*
X164976718Y-74747003D01*
X165053000Y-74363505D01*
X165053000Y-73972495D01*
X164976718Y-73588997D01*
X164827085Y-73227750D01*
X164609851Y-72902636D01*
X164333364Y-72626149D01*
X164008250Y-72408915D01*
X163647003Y-72259282D01*
X163263505Y-72183000D01*
X162872495Y-72183000D01*
X162488997Y-72259282D01*
X162127750Y-72408915D01*
X161802636Y-72626149D01*
X161526149Y-72902636D01*
X161308915Y-73227750D01*
X161159282Y-73588997D01*
X161083000Y-73972495D01*
X159197387Y-73972495D01*
X159190715Y-73968037D01*
X159190715Y-71070000D01*
X141509578Y-71070000D01*
X153457802Y-59121777D01*
X153455928Y-59140800D01*
X153455928Y-60340800D01*
X153472992Y-60514054D01*
X153523528Y-60680650D01*
X153605595Y-60834186D01*
X153716038Y-60968762D01*
X153850614Y-61079205D01*
X153952337Y-61133577D01*
X153888866Y-61185666D01*
X153703294Y-61411786D01*
X153565401Y-61669766D01*
X153480487Y-61949689D01*
X153451815Y-62240800D01*
X153480487Y-62531911D01*
X153565401Y-62811834D01*
X153703294Y-63069814D01*
X153888866Y-63295934D01*
X154114986Y-63481506D01*
X154372966Y-63619399D01*
X154652889Y-63704313D01*
X154871050Y-63725800D01*
X155516950Y-63725800D01*
X155735111Y-63704313D01*
X156015034Y-63619399D01*
X156273014Y-63481506D01*
X156499134Y-63295934D01*
X156684706Y-63069814D01*
X156822599Y-62811834D01*
X156907513Y-62531911D01*
X156936185Y-62240800D01*
X156907513Y-61949689D01*
X156822599Y-61669766D01*
X156684706Y-61411786D01*
X156499134Y-61185666D01*
X156435663Y-61133577D01*
X156537386Y-61079205D01*
X156671962Y-60968762D01*
X156782405Y-60834186D01*
X156864472Y-60680650D01*
X156915008Y-60514054D01*
X156932072Y-60340800D01*
X156932072Y-59140800D01*
X156915008Y-58967546D01*
X156864472Y-58800950D01*
X156782405Y-58647414D01*
X156671962Y-58512838D01*
X156537386Y-58402395D01*
X156462000Y-58362100D01*
X156462000Y-55605578D01*
X157611001Y-56754580D01*
X157611000Y-67705421D01*
X156345957Y-68970465D01*
X156289102Y-68981774D01*
X156100744Y-69059795D01*
X155931226Y-69173063D01*
X155787063Y-69317226D01*
X155673795Y-69486744D01*
X155595774Y-69675102D01*
X155556000Y-69875061D01*
X155556000Y-70078939D01*
X155595774Y-70278898D01*
X155673795Y-70467256D01*
X155787063Y-70636774D01*
X155931226Y-70780937D01*
X156100744Y-70894205D01*
X156289102Y-70972226D01*
X156489061Y-71012000D01*
X156692939Y-71012000D01*
X156892898Y-70972226D01*
X157081256Y-70894205D01*
X157250774Y-70780937D01*
X157394937Y-70636774D01*
X157508205Y-70467256D01*
X157586226Y-70278898D01*
X157597535Y-70222043D01*
X159091050Y-68728529D01*
X159124817Y-68700817D01*
X159200823Y-68608205D01*
X159235411Y-68566059D01*
X159287161Y-68469240D01*
X159317589Y-68412313D01*
X159368195Y-68245490D01*
X159381000Y-68115477D01*
X159381000Y-68115469D01*
X159385281Y-68072000D01*
X159381000Y-68028531D01*
X159381000Y-59594540D01*
X160889000Y-59594540D01*
X160889000Y-59887060D01*
X160946068Y-60173958D01*
X161058010Y-60444211D01*
X161220525Y-60687432D01*
X161427368Y-60894275D01*
X161571828Y-60990800D01*
X161427368Y-61087325D01*
X161220525Y-61294168D01*
X161058010Y-61537389D01*
X160946068Y-61807642D01*
X160889000Y-62094540D01*
X160889000Y-62387060D01*
X160946068Y-62673958D01*
X161058010Y-62944211D01*
X161220525Y-63187432D01*
X161427368Y-63394275D01*
X161670589Y-63556790D01*
X161940842Y-63668732D01*
X162227740Y-63725800D01*
X162520260Y-63725800D01*
X162807158Y-63668732D01*
X163077411Y-63556790D01*
X163320632Y-63394275D01*
X163527475Y-63187432D01*
X163689990Y-62944211D01*
X163801932Y-62673958D01*
X163859000Y-62387060D01*
X163859000Y-62094540D01*
X163801932Y-61807642D01*
X163689990Y-61537389D01*
X163527475Y-61294168D01*
X163320632Y-61087325D01*
X163176172Y-60990800D01*
X163320632Y-60894275D01*
X163527475Y-60687432D01*
X163689990Y-60444211D01*
X163801932Y-60173958D01*
X163859000Y-59887060D01*
X163859000Y-59594540D01*
X163801932Y-59307642D01*
X163689990Y-59037389D01*
X163527475Y-58794168D01*
X163320632Y-58587325D01*
X163077411Y-58424810D01*
X162807158Y-58312868D01*
X162520260Y-58255800D01*
X162227740Y-58255800D01*
X161940842Y-58312868D01*
X161670589Y-58424810D01*
X161427368Y-58587325D01*
X161220525Y-58794168D01*
X161058010Y-59037389D01*
X160946068Y-59307642D01*
X160889000Y-59594540D01*
X159381000Y-59594540D01*
X159381000Y-56431469D01*
X159385281Y-56388000D01*
X159381000Y-56344531D01*
X159381000Y-56344523D01*
X159368195Y-56214510D01*
X159317589Y-56047687D01*
X159235411Y-55893941D01*
X159202891Y-55854316D01*
X159152532Y-55792953D01*
X159152530Y-55792951D01*
X159124817Y-55759183D01*
X159091049Y-55731470D01*
X157597535Y-54237957D01*
X157586226Y-54181102D01*
X157508205Y-53992744D01*
X157394937Y-53823226D01*
X157250774Y-53679063D01*
X157081256Y-53565795D01*
X156892898Y-53487774D01*
X156692939Y-53448000D01*
X156489061Y-53448000D01*
X156462000Y-53453383D01*
X156462000Y-51884711D01*
X156505937Y-51840774D01*
X156619205Y-51671256D01*
X156697226Y-51482898D01*
X156737000Y-51282939D01*
X156737000Y-51079061D01*
X156697226Y-50879102D01*
X156619205Y-50690744D01*
X156505937Y-50521226D01*
X156361774Y-50377063D01*
X156208757Y-50274821D01*
X158329050Y-48154529D01*
X158362817Y-48126817D01*
X158395897Y-48086510D01*
X158462389Y-48005489D01*
X158473411Y-47992059D01*
X158555589Y-47838313D01*
X158606195Y-47671490D01*
X158619000Y-47541477D01*
X158619000Y-47541467D01*
X158623281Y-47498001D01*
X158619000Y-47454534D01*
X158619000Y-44747465D01*
X158623281Y-44703999D01*
X158619000Y-44660533D01*
X158619000Y-44660523D01*
X158606195Y-44530510D01*
X158555589Y-44363687D01*
X158523548Y-44303740D01*
X160889000Y-44303740D01*
X160889000Y-44596260D01*
X160946068Y-44883158D01*
X161058010Y-45153411D01*
X161220525Y-45396632D01*
X161427368Y-45603475D01*
X161571828Y-45700000D01*
X161427368Y-45796525D01*
X161220525Y-46003368D01*
X161058010Y-46246589D01*
X160946068Y-46516842D01*
X160889000Y-46803740D01*
X160889000Y-47096260D01*
X160946068Y-47383158D01*
X161058010Y-47653411D01*
X161220525Y-47896632D01*
X161427368Y-48103475D01*
X161670589Y-48265990D01*
X161940842Y-48377932D01*
X162227740Y-48435000D01*
X162520260Y-48435000D01*
X162807158Y-48377932D01*
X163077411Y-48265990D01*
X163320632Y-48103475D01*
X163527475Y-47896632D01*
X163689990Y-47653411D01*
X163801932Y-47383158D01*
X163859000Y-47096260D01*
X163859000Y-46803740D01*
X163801932Y-46516842D01*
X163689990Y-46246589D01*
X163527475Y-46003368D01*
X163320632Y-45796525D01*
X163176172Y-45700000D01*
X163320632Y-45603475D01*
X163527475Y-45396632D01*
X163689990Y-45153411D01*
X163801932Y-44883158D01*
X163859000Y-44596260D01*
X163859000Y-44303740D01*
X163801932Y-44016842D01*
X163689990Y-43746589D01*
X163527475Y-43503368D01*
X163320632Y-43296525D01*
X163077411Y-43134010D01*
X162807158Y-43022068D01*
X162520260Y-42965000D01*
X162227740Y-42965000D01*
X161940842Y-43022068D01*
X161670589Y-43134010D01*
X161427368Y-43296525D01*
X161220525Y-43503368D01*
X161058010Y-43746589D01*
X160946068Y-44016842D01*
X160889000Y-44303740D01*
X158523548Y-44303740D01*
X158473411Y-44209941D01*
X158362817Y-44075183D01*
X158329044Y-44047466D01*
X158136534Y-43854956D01*
X158108817Y-43821183D01*
X157974059Y-43710589D01*
X157820313Y-43628411D01*
X157653490Y-43577805D01*
X157523477Y-43565000D01*
X157523469Y-43565000D01*
X157480000Y-43560719D01*
X157436531Y-43565000D01*
X156881110Y-43565000D01*
X156864472Y-43510150D01*
X156782405Y-43356614D01*
X156671962Y-43222038D01*
X156537386Y-43111595D01*
X156383850Y-43029528D01*
X156217254Y-42978992D01*
X156044000Y-42961928D01*
X154344000Y-42961928D01*
X154170746Y-42978992D01*
X154004150Y-43029528D01*
X153850614Y-43111595D01*
X153716038Y-43222038D01*
X153605595Y-43356614D01*
X153523528Y-43510150D01*
X153472992Y-43676746D01*
X153455928Y-43850000D01*
X153455928Y-45050000D01*
X153472992Y-45223254D01*
X153523528Y-45389850D01*
X153605595Y-45543386D01*
X153716038Y-45677962D01*
X153850614Y-45788405D01*
X153952337Y-45842777D01*
X153888866Y-45894866D01*
X153703294Y-46120986D01*
X153601838Y-46310797D01*
X153589183Y-46321183D01*
X153561470Y-46354951D01*
X152058951Y-47857471D01*
X152025184Y-47885183D01*
X151997471Y-47918951D01*
X151997468Y-47918954D01*
X151914590Y-48019941D01*
X151832412Y-48173687D01*
X151781805Y-48340510D01*
X151764719Y-48514000D01*
X151769001Y-48557478D01*
X151769000Y-49740530D01*
X151764719Y-49784000D01*
X151769000Y-49827469D01*
X151769000Y-49827476D01*
X151775571Y-49894195D01*
X151781805Y-49957490D01*
X151783759Y-49963931D01*
X151832411Y-50124312D01*
X151914589Y-50278058D01*
X152025183Y-50412817D01*
X152058956Y-50440534D01*
X153039001Y-51420580D01*
X153039000Y-55513421D01*
X139333422Y-69219000D01*
X135679465Y-69219000D01*
X135635999Y-69214719D01*
X135592533Y-69219000D01*
X135592523Y-69219000D01*
X135462510Y-69231805D01*
X135295687Y-69282411D01*
X135141941Y-69364589D01*
X135141939Y-69364590D01*
X135141940Y-69364590D01*
X135040953Y-69447468D01*
X135040951Y-69447470D01*
X135007183Y-69475183D01*
X134979470Y-69508951D01*
X133516951Y-70971471D01*
X133483184Y-70999183D01*
X133455471Y-71032951D01*
X133455468Y-71032954D01*
X133372590Y-71133941D01*
X133290412Y-71287687D01*
X133239805Y-71454510D01*
X133222719Y-71628000D01*
X133227001Y-71671479D01*
X133227000Y-73599000D01*
X132939891Y-73599000D01*
X132633673Y-73659911D01*
X132345221Y-73779391D01*
X132085621Y-73952850D01*
X131864850Y-74173621D01*
X131691391Y-74433221D01*
X131571911Y-74721673D01*
X131511000Y-75027891D01*
X131511000Y-75340109D01*
X131571911Y-75646327D01*
X131691391Y-75934779D01*
X131864850Y-76194379D01*
X131897471Y-76227000D01*
X86976458Y-76227000D01*
X86735027Y-75991663D01*
X86735255Y-73464495D01*
X86915000Y-73464495D01*
X86915000Y-73855505D01*
X86991282Y-74239003D01*
X87140915Y-74600250D01*
X87358149Y-74925364D01*
X87634636Y-75201851D01*
X87959750Y-75419085D01*
X88320997Y-75568718D01*
X88704495Y-75645000D01*
X89095505Y-75645000D01*
X89479003Y-75568718D01*
X89840250Y-75419085D01*
X90165364Y-75201851D01*
X90441851Y-74925364D01*
X90659085Y-74600250D01*
X90808718Y-74239003D01*
X90885000Y-73855505D01*
X90885000Y-73464495D01*
X90808718Y-73080997D01*
X90659085Y-72719750D01*
X90441851Y-72394636D01*
X90165364Y-72118149D01*
X89840250Y-71900915D01*
X89479003Y-71751282D01*
X89095505Y-71675000D01*
X88704495Y-71675000D01*
X88320997Y-71751282D01*
X87959750Y-71900915D01*
X87634636Y-72118149D01*
X87358149Y-72394636D01*
X87140915Y-72719750D01*
X86991282Y-73080997D01*
X86915000Y-73464495D01*
X86735255Y-73464495D01*
X86736099Y-64115740D01*
X88109000Y-64115740D01*
X88109000Y-64408260D01*
X88166068Y-64695158D01*
X88278010Y-64965411D01*
X88440525Y-65208632D01*
X88647368Y-65415475D01*
X88890589Y-65577990D01*
X89160842Y-65689932D01*
X89447740Y-65747000D01*
X89740260Y-65747000D01*
X90027158Y-65689932D01*
X90297411Y-65577990D01*
X90540632Y-65415475D01*
X90747475Y-65208632D01*
X90812042Y-65112000D01*
X95035928Y-65112000D01*
X95048188Y-65236482D01*
X95084498Y-65356180D01*
X95143463Y-65466494D01*
X95222815Y-65563185D01*
X95319506Y-65642537D01*
X95429820Y-65701502D01*
X95549518Y-65737812D01*
X95674000Y-65750072D01*
X96488250Y-65747000D01*
X96647000Y-65588250D01*
X96647000Y-64389000D01*
X96901000Y-64389000D01*
X96901000Y-65588250D01*
X97059750Y-65747000D01*
X97874000Y-65750072D01*
X97998482Y-65737812D01*
X98118180Y-65701502D01*
X98228494Y-65642537D01*
X98325185Y-65563185D01*
X98404537Y-65466494D01*
X98463502Y-65356180D01*
X98499812Y-65236482D01*
X98512072Y-65112000D01*
X98509000Y-64547750D01*
X98350250Y-64389000D01*
X96901000Y-64389000D01*
X96647000Y-64389000D01*
X95197750Y-64389000D01*
X95039000Y-64547750D01*
X95035928Y-65112000D01*
X90812042Y-65112000D01*
X90909990Y-64965411D01*
X91021932Y-64695158D01*
X91079000Y-64408260D01*
X91079000Y-64115740D01*
X91021932Y-63828842D01*
X90909990Y-63558589D01*
X90747475Y-63315368D01*
X90540632Y-63108525D01*
X90297411Y-62946010D01*
X90027158Y-62834068D01*
X89740260Y-62777000D01*
X89447740Y-62777000D01*
X89160842Y-62834068D01*
X88890589Y-62946010D01*
X88647368Y-63108525D01*
X88440525Y-63315368D01*
X88278010Y-63558589D01*
X88166068Y-63828842D01*
X88109000Y-64115740D01*
X86736099Y-64115740D01*
X86736550Y-59115740D01*
X88109000Y-59115740D01*
X88109000Y-59408260D01*
X88166068Y-59695158D01*
X88278010Y-59965411D01*
X88440525Y-60208632D01*
X88647368Y-60415475D01*
X88890589Y-60577990D01*
X89160842Y-60689932D01*
X89447740Y-60747000D01*
X89740260Y-60747000D01*
X90027158Y-60689932D01*
X90297411Y-60577990D01*
X90540632Y-60415475D01*
X90747475Y-60208632D01*
X90909990Y-59965411D01*
X91021932Y-59695158D01*
X91079000Y-59408260D01*
X91079000Y-59262000D01*
X95031815Y-59262000D01*
X95060487Y-59553111D01*
X95145401Y-59833034D01*
X95283294Y-60091014D01*
X95468866Y-60317134D01*
X95694986Y-60502706D01*
X95712374Y-60512000D01*
X95694986Y-60521294D01*
X95468866Y-60706866D01*
X95283294Y-60932986D01*
X95145401Y-61190966D01*
X95060487Y-61470889D01*
X95031815Y-61762000D01*
X95060487Y-62053111D01*
X95145401Y-62333034D01*
X95283294Y-62591014D01*
X95464608Y-62811945D01*
X95429820Y-62822498D01*
X95319506Y-62881463D01*
X95222815Y-62960815D01*
X95143463Y-63057506D01*
X95084498Y-63167820D01*
X95048188Y-63287518D01*
X95035928Y-63412000D01*
X95039000Y-63976250D01*
X95197750Y-64135000D01*
X96647000Y-64135000D01*
X96647000Y-64115000D01*
X96901000Y-64115000D01*
X96901000Y-64135000D01*
X98350250Y-64135000D01*
X98509000Y-63976250D01*
X98512072Y-63412000D01*
X98499812Y-63287518D01*
X98463502Y-63167820D01*
X98404537Y-63057506D01*
X98325185Y-62960815D01*
X98228494Y-62881463D01*
X98118180Y-62822498D01*
X98083392Y-62811945D01*
X98264706Y-62591014D01*
X98402599Y-62333034D01*
X98487513Y-62053111D01*
X98516185Y-61762000D01*
X98487513Y-61470889D01*
X98402599Y-61190966D01*
X98264706Y-60932986D01*
X98079134Y-60706866D01*
X97853014Y-60521294D01*
X97835626Y-60512000D01*
X97853014Y-60502706D01*
X98079134Y-60317134D01*
X98264706Y-60091014D01*
X98402599Y-59833034D01*
X98487513Y-59553111D01*
X98516185Y-59262000D01*
X98487513Y-58970889D01*
X98402599Y-58690966D01*
X98264706Y-58432986D01*
X98079134Y-58206866D01*
X97853014Y-58021294D01*
X97595034Y-57883401D01*
X97315111Y-57798487D01*
X97096950Y-57777000D01*
X96451050Y-57777000D01*
X96232889Y-57798487D01*
X95952966Y-57883401D01*
X95694986Y-58021294D01*
X95468866Y-58206866D01*
X95283294Y-58432986D01*
X95145401Y-58690966D01*
X95060487Y-58970889D01*
X95031815Y-59262000D01*
X91079000Y-59262000D01*
X91079000Y-59115740D01*
X91021932Y-58828842D01*
X90909990Y-58558589D01*
X90747475Y-58315368D01*
X90540632Y-58108525D01*
X90297411Y-57946010D01*
X90027158Y-57834068D01*
X89740260Y-57777000D01*
X89447740Y-57777000D01*
X89160842Y-57834068D01*
X88890589Y-57946010D01*
X88647368Y-58108525D01*
X88440525Y-58315368D01*
X88278010Y-58558589D01*
X88166068Y-58828842D01*
X88109000Y-59115740D01*
X86736550Y-59115740D01*
X86736851Y-55778061D01*
X92691000Y-55778061D01*
X92691000Y-55981939D01*
X92730774Y-56181898D01*
X92808795Y-56370256D01*
X92922063Y-56539774D01*
X93066226Y-56683937D01*
X93235744Y-56797205D01*
X93424102Y-56875226D01*
X93624061Y-56915000D01*
X93827939Y-56915000D01*
X94027898Y-56875226D01*
X94216256Y-56797205D01*
X94264454Y-56765000D01*
X98521546Y-56765000D01*
X98569744Y-56797205D01*
X98758102Y-56875226D01*
X98958061Y-56915000D01*
X99161939Y-56915000D01*
X99361898Y-56875226D01*
X99550256Y-56797205D01*
X99719774Y-56683937D01*
X99863937Y-56539774D01*
X99977205Y-56370256D01*
X100055226Y-56181898D01*
X100095000Y-55981939D01*
X100095000Y-55778061D01*
X100055226Y-55578102D01*
X99977205Y-55389744D01*
X99863937Y-55220226D01*
X99719774Y-55076063D01*
X99550256Y-54962795D01*
X99361898Y-54884774D01*
X99161939Y-54845000D01*
X98958061Y-54845000D01*
X98758102Y-54884774D01*
X98569744Y-54962795D01*
X98521546Y-54995000D01*
X94264454Y-54995000D01*
X94216256Y-54962795D01*
X94027898Y-54884774D01*
X93827939Y-54845000D01*
X93624061Y-54845000D01*
X93424102Y-54884774D01*
X93235744Y-54962795D01*
X93066226Y-55076063D01*
X92922063Y-55220226D01*
X92808795Y-55389744D01*
X92730774Y-55578102D01*
X92691000Y-55778061D01*
X86736851Y-55778061D01*
X86737338Y-50399740D01*
X88109000Y-50399740D01*
X88109000Y-50692260D01*
X88166068Y-50979158D01*
X88278010Y-51249411D01*
X88440525Y-51492632D01*
X88647368Y-51699475D01*
X88890589Y-51861990D01*
X89160842Y-51973932D01*
X89447740Y-52031000D01*
X89740260Y-52031000D01*
X90027158Y-51973932D01*
X90297411Y-51861990D01*
X90540632Y-51699475D01*
X90747475Y-51492632D01*
X90812042Y-51396000D01*
X95035928Y-51396000D01*
X95048188Y-51520482D01*
X95084498Y-51640180D01*
X95143463Y-51750494D01*
X95222815Y-51847185D01*
X95319506Y-51926537D01*
X95429820Y-51985502D01*
X95549518Y-52021812D01*
X95674000Y-52034072D01*
X96488250Y-52031000D01*
X96647000Y-51872250D01*
X96647000Y-50673000D01*
X96901000Y-50673000D01*
X96901000Y-51872250D01*
X97059750Y-52031000D01*
X97874000Y-52034072D01*
X97998482Y-52021812D01*
X98118180Y-51985502D01*
X98228494Y-51926537D01*
X98325185Y-51847185D01*
X98404537Y-51750494D01*
X98463502Y-51640180D01*
X98499812Y-51520482D01*
X98512072Y-51396000D01*
X98509000Y-50831750D01*
X98350250Y-50673000D01*
X96901000Y-50673000D01*
X96647000Y-50673000D01*
X95197750Y-50673000D01*
X95039000Y-50831750D01*
X95035928Y-51396000D01*
X90812042Y-51396000D01*
X90909990Y-51249411D01*
X91021932Y-50979158D01*
X91079000Y-50692260D01*
X91079000Y-50399740D01*
X91021932Y-50112842D01*
X90909990Y-49842589D01*
X90747475Y-49599368D01*
X90540632Y-49392525D01*
X90297411Y-49230010D01*
X90027158Y-49118068D01*
X89740260Y-49061000D01*
X89447740Y-49061000D01*
X89160842Y-49118068D01*
X88890589Y-49230010D01*
X88647368Y-49392525D01*
X88440525Y-49599368D01*
X88278010Y-49842589D01*
X88166068Y-50112842D01*
X88109000Y-50399740D01*
X86737338Y-50399740D01*
X86737790Y-45399740D01*
X88109000Y-45399740D01*
X88109000Y-45692260D01*
X88166068Y-45979158D01*
X88278010Y-46249411D01*
X88440525Y-46492632D01*
X88647368Y-46699475D01*
X88890589Y-46861990D01*
X89160842Y-46973932D01*
X89447740Y-47031000D01*
X89740260Y-47031000D01*
X90027158Y-46973932D01*
X90297411Y-46861990D01*
X90540632Y-46699475D01*
X90747475Y-46492632D01*
X90909990Y-46249411D01*
X91021932Y-45979158D01*
X91079000Y-45692260D01*
X91079000Y-45546000D01*
X95031815Y-45546000D01*
X95060487Y-45837111D01*
X95145401Y-46117034D01*
X95283294Y-46375014D01*
X95468866Y-46601134D01*
X95694986Y-46786706D01*
X95712374Y-46796000D01*
X95694986Y-46805294D01*
X95468866Y-46990866D01*
X95283294Y-47216986D01*
X95145401Y-47474966D01*
X95060487Y-47754889D01*
X95031815Y-48046000D01*
X95060487Y-48337111D01*
X95145401Y-48617034D01*
X95283294Y-48875014D01*
X95464608Y-49095945D01*
X95429820Y-49106498D01*
X95319506Y-49165463D01*
X95222815Y-49244815D01*
X95143463Y-49341506D01*
X95084498Y-49451820D01*
X95048188Y-49571518D01*
X95035928Y-49696000D01*
X95039000Y-50260250D01*
X95197750Y-50419000D01*
X96647000Y-50419000D01*
X96647000Y-50399000D01*
X96901000Y-50399000D01*
X96901000Y-50419000D01*
X98350250Y-50419000D01*
X98509000Y-50260250D01*
X98510962Y-49899928D01*
X98569744Y-49939205D01*
X98758102Y-50017226D01*
X98958061Y-50057000D01*
X99161939Y-50057000D01*
X99361898Y-50017226D01*
X99550256Y-49939205D01*
X99719774Y-49825937D01*
X99863937Y-49681774D01*
X99977205Y-49512256D01*
X100055226Y-49323898D01*
X100057000Y-49314979D01*
X100057000Y-49377939D01*
X100096774Y-49577898D01*
X100174795Y-49766256D01*
X100288063Y-49935774D01*
X100432226Y-50079937D01*
X100601744Y-50193205D01*
X100790102Y-50271226D01*
X100990061Y-50311000D01*
X101193939Y-50311000D01*
X101393898Y-50271226D01*
X101582256Y-50193205D01*
X101751774Y-50079937D01*
X101895937Y-49935774D01*
X102009205Y-49766256D01*
X102087226Y-49577898D01*
X102127000Y-49377939D01*
X102127000Y-49174061D01*
X102087226Y-48974102D01*
X102033271Y-48843845D01*
X102165989Y-48711127D01*
X102165990Y-54400841D01*
X102035734Y-54454795D01*
X101866216Y-54568063D01*
X101722053Y-54712226D01*
X101608785Y-54881744D01*
X101530764Y-55070102D01*
X101490990Y-55270061D01*
X101490990Y-55473939D01*
X101530764Y-55673898D01*
X101608785Y-55862256D01*
X101722053Y-56031774D01*
X101866216Y-56175937D01*
X102035734Y-56289205D01*
X102224092Y-56367226D01*
X102424051Y-56407000D01*
X102627929Y-56407000D01*
X102827888Y-56367226D01*
X102893375Y-56340100D01*
X102893375Y-57518821D01*
X101252997Y-59159200D01*
X101223999Y-59182998D01*
X101200201Y-59211996D01*
X101200200Y-59211997D01*
X101129025Y-59298723D01*
X101110766Y-59332883D01*
X101071226Y-59134102D01*
X100993205Y-58945744D01*
X100879937Y-58776226D01*
X100735774Y-58632063D01*
X100566256Y-58518795D01*
X100377898Y-58440774D01*
X100177939Y-58401000D01*
X99974061Y-58401000D01*
X99774102Y-58440774D01*
X99585744Y-58518795D01*
X99416226Y-58632063D01*
X99272063Y-58776226D01*
X99158795Y-58945744D01*
X99080774Y-59134102D01*
X99041000Y-59334061D01*
X99041000Y-59537939D01*
X99080774Y-59737898D01*
X99158795Y-59926256D01*
X99272063Y-60095774D01*
X99416226Y-60239937D01*
X99585744Y-60353205D01*
X99774102Y-60431226D01*
X99974061Y-60471000D01*
X100177939Y-60471000D01*
X100377898Y-60431226D01*
X100566256Y-60353205D01*
X100735774Y-60239937D01*
X100879937Y-60095774D01*
X100993205Y-59926256D01*
X101004000Y-59900195D01*
X101003999Y-65601672D01*
X101000323Y-65638995D01*
X101003999Y-65676317D01*
X101003999Y-65676327D01*
X101014996Y-65787980D01*
X101049540Y-65901857D01*
X101058453Y-65931241D01*
X101117655Y-66042000D01*
X100390802Y-66042000D01*
X100349000Y-66000198D01*
X100349000Y-65938061D01*
X100309226Y-65738102D01*
X100231205Y-65549744D01*
X100117937Y-65380226D01*
X99973774Y-65236063D01*
X99804256Y-65122795D01*
X99615898Y-65044774D01*
X99415939Y-65005000D01*
X99212061Y-65005000D01*
X99012102Y-65044774D01*
X98823744Y-65122795D01*
X98654226Y-65236063D01*
X98510063Y-65380226D01*
X98396795Y-65549744D01*
X98318774Y-65738102D01*
X98279000Y-65938061D01*
X98279000Y-66141939D01*
X98318774Y-66341898D01*
X98396795Y-66530256D01*
X98510063Y-66699774D01*
X98654226Y-66843937D01*
X98823744Y-66957205D01*
X99012102Y-67035226D01*
X99212061Y-67075000D01*
X99274198Y-67075000D01*
X99512201Y-67313002D01*
X99535999Y-67342001D01*
X99651724Y-67436974D01*
X99783753Y-67507546D01*
X99927014Y-67551003D01*
X100038667Y-67562000D01*
X100038675Y-67562000D01*
X100076000Y-67565676D01*
X100113325Y-67562000D01*
X101150289Y-67562000D01*
X101194226Y-67605937D01*
X101363744Y-67719205D01*
X101552102Y-67797226D01*
X101752061Y-67837000D01*
X101819003Y-67837000D01*
X101819002Y-71301089D01*
X101815326Y-71338412D01*
X101819002Y-71375734D01*
X101819002Y-71375744D01*
X101829999Y-71487397D01*
X101861504Y-71591256D01*
X101873456Y-71630658D01*
X101944028Y-71762688D01*
X101980022Y-71806546D01*
X102039001Y-71878413D01*
X102068005Y-71902216D01*
X104336791Y-74171003D01*
X104360589Y-74200001D01*
X104476314Y-74294974D01*
X104608343Y-74365546D01*
X104751604Y-74409003D01*
X104863257Y-74420000D01*
X104863266Y-74420000D01*
X104900589Y-74423676D01*
X104937912Y-74420000D01*
X105264000Y-74420000D01*
X105264000Y-74523939D01*
X105303774Y-74723898D01*
X105381795Y-74912256D01*
X105495063Y-75081774D01*
X105639226Y-75225937D01*
X105808744Y-75339205D01*
X105997102Y-75417226D01*
X106197061Y-75457000D01*
X106274774Y-75457000D01*
X106406752Y-75527545D01*
X106550013Y-75571002D01*
X106661666Y-75581999D01*
X106661676Y-75581999D01*
X106698998Y-75585675D01*
X106736321Y-75581999D01*
X125292679Y-75581999D01*
X125330001Y-75585675D01*
X125367323Y-75581999D01*
X125367334Y-75581999D01*
X125478987Y-75571002D01*
X125622248Y-75527545D01*
X125754277Y-75456973D01*
X125870002Y-75362000D01*
X125893805Y-75332996D01*
X126531802Y-74695000D01*
X126593939Y-74695000D01*
X126793898Y-74655226D01*
X126982256Y-74577205D01*
X127151774Y-74463937D01*
X127295937Y-74319774D01*
X127409205Y-74150256D01*
X127487226Y-73961898D01*
X127527000Y-73761939D01*
X127527000Y-73558061D01*
X127487226Y-73358102D01*
X127409205Y-73169744D01*
X127295937Y-73000226D01*
X127151774Y-72856063D01*
X126982256Y-72742795D01*
X126793898Y-72664774D01*
X126593939Y-72625000D01*
X126390061Y-72625000D01*
X126190102Y-72664774D01*
X126001744Y-72742795D01*
X125832226Y-72856063D01*
X125688063Y-73000226D01*
X125574795Y-73169744D01*
X125496774Y-73358102D01*
X125457000Y-73558061D01*
X125457000Y-73620198D01*
X125015200Y-74061999D01*
X120587763Y-74061999D01*
X120629226Y-73961898D01*
X120669000Y-73761939D01*
X120669000Y-73558061D01*
X120629226Y-73358102D01*
X120551205Y-73169744D01*
X120437937Y-73000226D01*
X120293774Y-72856063D01*
X120124256Y-72742795D01*
X119935898Y-72664774D01*
X119735939Y-72625000D01*
X119532061Y-72625000D01*
X119332102Y-72664774D01*
X119143744Y-72742795D01*
X118974226Y-72856063D01*
X118930289Y-72900000D01*
X108611286Y-72900000D01*
X118748003Y-62763284D01*
X118777001Y-62739486D01*
X118871974Y-62623761D01*
X118942546Y-62491732D01*
X118986003Y-62348471D01*
X118997000Y-62236818D01*
X118997000Y-62236810D01*
X119000676Y-62199485D01*
X118997000Y-62162160D01*
X118997000Y-61409711D01*
X119040937Y-61365774D01*
X119154205Y-61196256D01*
X119232226Y-61007898D01*
X119272000Y-60807939D01*
X119272000Y-60604061D01*
X119232226Y-60404102D01*
X119154205Y-60215744D01*
X119040937Y-60046226D01*
X118896774Y-59902063D01*
X118727256Y-59788795D01*
X118538898Y-59710774D01*
X118338939Y-59671000D01*
X118135061Y-59671000D01*
X117935102Y-59710774D01*
X117746744Y-59788795D01*
X117577226Y-59902063D01*
X117433063Y-60046226D01*
X117319795Y-60215744D01*
X117241774Y-60404102D01*
X117202000Y-60604061D01*
X117202000Y-60807939D01*
X117241774Y-61007898D01*
X117319795Y-61196256D01*
X117433063Y-61365774D01*
X117477000Y-61409711D01*
X117477001Y-61884682D01*
X113438982Y-65922701D01*
X113415947Y-65888226D01*
X113372010Y-65844289D01*
X113372010Y-60393711D01*
X113415947Y-60349774D01*
X113529215Y-60180256D01*
X113607236Y-59991898D01*
X113647010Y-59791939D01*
X113647010Y-59588061D01*
X113607236Y-59388102D01*
X113529215Y-59199744D01*
X113415947Y-59030226D01*
X113372010Y-58986289D01*
X113372010Y-58064061D01*
X121139000Y-58064061D01*
X121139000Y-58267939D01*
X121178774Y-58467898D01*
X121256795Y-58656256D01*
X121370063Y-58825774D01*
X121414000Y-58869711D01*
X121414001Y-62542288D01*
X121370063Y-62586226D01*
X121256795Y-62755744D01*
X121178774Y-62944102D01*
X121139000Y-63144061D01*
X121139000Y-63347939D01*
X121178774Y-63547898D01*
X121256795Y-63736256D01*
X121370063Y-63905774D01*
X121514226Y-64049937D01*
X121683744Y-64163205D01*
X121872102Y-64241226D01*
X122072061Y-64281000D01*
X122275939Y-64281000D01*
X122475898Y-64241226D01*
X122664256Y-64163205D01*
X122833774Y-64049937D01*
X122977937Y-63905774D01*
X123091205Y-63736256D01*
X123169226Y-63547898D01*
X123209000Y-63347939D01*
X123209000Y-63144061D01*
X123169226Y-62944102D01*
X123091205Y-62755744D01*
X122977937Y-62586226D01*
X122934000Y-62542289D01*
X122934000Y-60135711D01*
X123038226Y-60239937D01*
X123207744Y-60353205D01*
X123396102Y-60431226D01*
X123596061Y-60471000D01*
X123799939Y-60471000D01*
X123999898Y-60431226D01*
X124188256Y-60353205D01*
X124357774Y-60239937D01*
X124501937Y-60095774D01*
X124615205Y-59926256D01*
X124693226Y-59737898D01*
X124733000Y-59537939D01*
X124733000Y-59334061D01*
X124693226Y-59134102D01*
X124615205Y-58945744D01*
X124501937Y-58776226D01*
X124458000Y-58732289D01*
X124458000Y-51714061D01*
X127997000Y-51714061D01*
X127997000Y-51917939D01*
X128036774Y-52117898D01*
X128114795Y-52306256D01*
X128228063Y-52475774D01*
X128372226Y-52619937D01*
X128541744Y-52733205D01*
X128730102Y-52811226D01*
X128930061Y-52851000D01*
X129133939Y-52851000D01*
X129333898Y-52811226D01*
X129522256Y-52733205D01*
X129691774Y-52619937D01*
X129835937Y-52475774D01*
X129949205Y-52306256D01*
X130027226Y-52117898D01*
X130038535Y-52061043D01*
X131659049Y-50440530D01*
X131692817Y-50412817D01*
X131720533Y-50379046D01*
X131803410Y-50278060D01*
X131803411Y-50278059D01*
X131828000Y-50232055D01*
X131828000Y-55891644D01*
X131673939Y-55861000D01*
X131470061Y-55861000D01*
X131270102Y-55900774D01*
X131081744Y-55978795D01*
X130912226Y-56092063D01*
X130768063Y-56236226D01*
X130654795Y-56405744D01*
X130576774Y-56594102D01*
X130537000Y-56794061D01*
X130537000Y-56997939D01*
X130576774Y-57197898D01*
X130654795Y-57386256D01*
X130768063Y-57555774D01*
X130812001Y-57599712D01*
X130812000Y-57716289D01*
X130768063Y-57760226D01*
X130654795Y-57929744D01*
X130576774Y-58118102D01*
X130537000Y-58318061D01*
X130537000Y-58521939D01*
X130576774Y-58721898D01*
X130654795Y-58910256D01*
X130768063Y-59079774D01*
X130912226Y-59223937D01*
X131081744Y-59337205D01*
X131270102Y-59415226D01*
X131470061Y-59455000D01*
X131673939Y-59455000D01*
X131873898Y-59415226D01*
X132062256Y-59337205D01*
X132231774Y-59223937D01*
X132375937Y-59079774D01*
X132489205Y-58910256D01*
X132567226Y-58721898D01*
X132607000Y-58521939D01*
X132607000Y-58439000D01*
X132689939Y-58439000D01*
X132889898Y-58399226D01*
X133078256Y-58321205D01*
X133247774Y-58207937D01*
X133391937Y-58063774D01*
X133505205Y-57894256D01*
X133583226Y-57705898D01*
X133623000Y-57505939D01*
X133623000Y-57302061D01*
X133583226Y-57102102D01*
X133505205Y-56913744D01*
X133391937Y-56744226D01*
X133348000Y-56700289D01*
X133348000Y-55270061D01*
X136379000Y-55270061D01*
X136379000Y-55473939D01*
X136418774Y-55673898D01*
X136496795Y-55862256D01*
X136610063Y-56031774D01*
X136654000Y-56075711D01*
X136654001Y-65240668D01*
X136650324Y-65278000D01*
X136654001Y-65315333D01*
X136664998Y-65426986D01*
X136676982Y-65466494D01*
X136708454Y-65570246D01*
X136779026Y-65702276D01*
X136833175Y-65768256D01*
X136874000Y-65818001D01*
X136902998Y-65841799D01*
X137141000Y-66079801D01*
X137141000Y-66141939D01*
X137180774Y-66341898D01*
X137258795Y-66530256D01*
X137372063Y-66699774D01*
X137516226Y-66843937D01*
X137685744Y-66957205D01*
X137874102Y-67035226D01*
X138074061Y-67075000D01*
X138277939Y-67075000D01*
X138477898Y-67035226D01*
X138666256Y-66957205D01*
X138835774Y-66843937D01*
X138938000Y-66741711D01*
X139040226Y-66843937D01*
X139209744Y-66957205D01*
X139398102Y-67035226D01*
X139598061Y-67075000D01*
X139801939Y-67075000D01*
X140001898Y-67035226D01*
X140190256Y-66957205D01*
X140359774Y-66843937D01*
X140403711Y-66800000D01*
X140932678Y-66800000D01*
X140970000Y-66803676D01*
X141007322Y-66800000D01*
X141007333Y-66800000D01*
X141118986Y-66789003D01*
X141262247Y-66745546D01*
X141394276Y-66674974D01*
X141510001Y-66580001D01*
X141533803Y-66550998D01*
X141771801Y-66313000D01*
X141833939Y-66313000D01*
X142033898Y-66273226D01*
X142222256Y-66195205D01*
X142391774Y-66081937D01*
X142535937Y-65937774D01*
X142649205Y-65768256D01*
X142727226Y-65579898D01*
X142767000Y-65379939D01*
X142767000Y-65176061D01*
X142727226Y-64976102D01*
X142649205Y-64787744D01*
X142535937Y-64618226D01*
X142391774Y-64474063D01*
X142222256Y-64360795D01*
X142033898Y-64282774D01*
X141833939Y-64243000D01*
X141630061Y-64243000D01*
X141430102Y-64282774D01*
X141241744Y-64360795D01*
X141072226Y-64474063D01*
X140928063Y-64618226D01*
X140814795Y-64787744D01*
X140736774Y-64976102D01*
X140697000Y-65176061D01*
X140697000Y-65238199D01*
X140655199Y-65280000D01*
X140403711Y-65280000D01*
X140359774Y-65236063D01*
X140190256Y-65122795D01*
X140001898Y-65044774D01*
X139801939Y-65005000D01*
X139598061Y-65005000D01*
X139398102Y-65044774D01*
X139209744Y-65122795D01*
X139040226Y-65236063D01*
X138938000Y-65338289D01*
X138835774Y-65236063D01*
X138666256Y-65122795D01*
X138477898Y-65044774D01*
X138277939Y-65005000D01*
X138215801Y-65005000D01*
X138174000Y-64963199D01*
X138174000Y-56286061D01*
X141713000Y-56286061D01*
X141713000Y-56489939D01*
X141752774Y-56689898D01*
X141830795Y-56878256D01*
X141863000Y-56926455D01*
X141863001Y-57881545D01*
X141830795Y-57929744D01*
X141752774Y-58118102D01*
X141713000Y-58318061D01*
X141713000Y-58521939D01*
X141752774Y-58721898D01*
X141830795Y-58910256D01*
X141944063Y-59079774D01*
X142088226Y-59223937D01*
X142257744Y-59337205D01*
X142446102Y-59415226D01*
X142646061Y-59455000D01*
X142849939Y-59455000D01*
X143049898Y-59415226D01*
X143238256Y-59337205D01*
X143407774Y-59223937D01*
X143551937Y-59079774D01*
X143665205Y-58910256D01*
X143743226Y-58721898D01*
X143783000Y-58521939D01*
X143783000Y-58318061D01*
X143743226Y-58118102D01*
X143665205Y-57929744D01*
X143633000Y-57881546D01*
X143633000Y-56926454D01*
X143665205Y-56878256D01*
X143743226Y-56689898D01*
X143783000Y-56489939D01*
X143783000Y-56286061D01*
X143743226Y-56086102D01*
X143665205Y-55897744D01*
X143551937Y-55728226D01*
X143407774Y-55584063D01*
X143238256Y-55470795D01*
X143049898Y-55392774D01*
X142849939Y-55353000D01*
X142646061Y-55353000D01*
X142446102Y-55392774D01*
X142257744Y-55470795D01*
X142088226Y-55584063D01*
X141944063Y-55728226D01*
X141830795Y-55897744D01*
X141752774Y-56086102D01*
X141713000Y-56286061D01*
X138174000Y-56286061D01*
X138174000Y-56075711D01*
X138217937Y-56031774D01*
X138331205Y-55862256D01*
X138409226Y-55673898D01*
X138449000Y-55473939D01*
X138449000Y-55270061D01*
X138409226Y-55070102D01*
X138331205Y-54881744D01*
X138217937Y-54712226D01*
X138073774Y-54568063D01*
X137904256Y-54454795D01*
X137715898Y-54376774D01*
X137515939Y-54337000D01*
X137312061Y-54337000D01*
X137112102Y-54376774D01*
X136923744Y-54454795D01*
X136754226Y-54568063D01*
X136610063Y-54712226D01*
X136496795Y-54881744D01*
X136418774Y-55070102D01*
X136379000Y-55270061D01*
X133348000Y-55270061D01*
X133348000Y-44895711D01*
X133452226Y-44999937D01*
X133621744Y-45113205D01*
X133810102Y-45191226D01*
X134010061Y-45231000D01*
X134087774Y-45231000D01*
X134219752Y-45301545D01*
X134363013Y-45345002D01*
X134474666Y-45355999D01*
X134474676Y-45355999D01*
X134511998Y-45359675D01*
X134549321Y-45355999D01*
X135213198Y-45355999D01*
X136908000Y-47050803D01*
X136908001Y-48730668D01*
X136904324Y-48768000D01*
X136908001Y-48805333D01*
X136918998Y-48916986D01*
X136932180Y-48960442D01*
X136962454Y-49060246D01*
X137033026Y-49192276D01*
X137104201Y-49279002D01*
X137128000Y-49308001D01*
X137156998Y-49331799D01*
X137358196Y-49532997D01*
X137381999Y-49562001D01*
X137497724Y-49656974D01*
X137629753Y-49727546D01*
X137773014Y-49771003D01*
X137884667Y-49782000D01*
X137884676Y-49782000D01*
X137921999Y-49785676D01*
X137959322Y-49782000D01*
X138450421Y-49782000D01*
X137422957Y-50809465D01*
X137366102Y-50820774D01*
X137177744Y-50898795D01*
X137008226Y-51012063D01*
X136864063Y-51156226D01*
X136750795Y-51325744D01*
X136672774Y-51514102D01*
X136633000Y-51714061D01*
X136633000Y-51917939D01*
X136672774Y-52117898D01*
X136750795Y-52306256D01*
X136864063Y-52475774D01*
X137008226Y-52619937D01*
X137177744Y-52733205D01*
X137366102Y-52811226D01*
X137566061Y-52851000D01*
X137769939Y-52851000D01*
X137969898Y-52811226D01*
X138158256Y-52733205D01*
X138327774Y-52619937D01*
X138471937Y-52475774D01*
X138585205Y-52306256D01*
X138663226Y-52117898D01*
X138674535Y-52061043D01*
X139558579Y-51177000D01*
X147784531Y-51177000D01*
X147828000Y-51181281D01*
X147871469Y-51177000D01*
X147871477Y-51177000D01*
X148001490Y-51164195D01*
X148168313Y-51113589D01*
X148322059Y-51031411D01*
X148456817Y-50920817D01*
X148484534Y-50887044D01*
X149597044Y-49774535D01*
X149653898Y-49763226D01*
X149842256Y-49685205D01*
X150011774Y-49571937D01*
X150155937Y-49427774D01*
X150269205Y-49258256D01*
X150347226Y-49069898D01*
X150387000Y-48869939D01*
X150387000Y-48666061D01*
X150347226Y-48466102D01*
X150269205Y-48277744D01*
X150155937Y-48108226D01*
X150011774Y-47964063D01*
X149842256Y-47850795D01*
X149653898Y-47772774D01*
X149453939Y-47733000D01*
X149250061Y-47733000D01*
X149050102Y-47772774D01*
X148861744Y-47850795D01*
X148692226Y-47964063D01*
X148548063Y-48108226D01*
X148434795Y-48277744D01*
X148356774Y-48466102D01*
X148345465Y-48522956D01*
X147461422Y-49407000D01*
X143454804Y-49407000D01*
X143489226Y-49323898D01*
X143529000Y-49123939D01*
X143529000Y-48920061D01*
X143489226Y-48720102D01*
X143411205Y-48531744D01*
X143297937Y-48362226D01*
X143153774Y-48218063D01*
X142984256Y-48104795D01*
X142795898Y-48026774D01*
X142595939Y-47987000D01*
X142392061Y-47987000D01*
X142231333Y-48018970D01*
X142219226Y-47958102D01*
X142141205Y-47769744D01*
X142027937Y-47600226D01*
X141883774Y-47456063D01*
X141714256Y-47342795D01*
X141525898Y-47264774D01*
X141325939Y-47225000D01*
X141122061Y-47225000D01*
X141013455Y-47246603D01*
X141007333Y-47246000D01*
X141007322Y-47246000D01*
X140970000Y-47242324D01*
X140932678Y-47246000D01*
X139514711Y-47246000D01*
X139470774Y-47202063D01*
X139301256Y-47088795D01*
X139112898Y-47010774D01*
X138912939Y-46971000D01*
X138709061Y-46971000D01*
X138509102Y-47010774D01*
X138428000Y-47044368D01*
X138428000Y-46773322D01*
X138431676Y-46735999D01*
X138428000Y-46698676D01*
X138428000Y-46698667D01*
X138417003Y-46587014D01*
X138373546Y-46443753D01*
X138302974Y-46311724D01*
X138287992Y-46293468D01*
X138231799Y-46224996D01*
X138231795Y-46224992D01*
X138208001Y-46195999D01*
X138179009Y-46172206D01*
X136091803Y-44085001D01*
X136068000Y-44055998D01*
X135952275Y-43961025D01*
X135820246Y-43890453D01*
X135676985Y-43846996D01*
X135565332Y-43835999D01*
X135565321Y-43835999D01*
X135527999Y-43832323D01*
X135490677Y-43835999D01*
X135083159Y-43835999D01*
X135029205Y-43705744D01*
X134915937Y-43536226D01*
X134771774Y-43392063D01*
X134602256Y-43278795D01*
X134413898Y-43200774D01*
X134213939Y-43161000D01*
X134010061Y-43161000D01*
X133810102Y-43200774D01*
X133621744Y-43278795D01*
X133452226Y-43392063D01*
X133348000Y-43496289D01*
X133348000Y-42801061D01*
X139404000Y-42801061D01*
X139404000Y-43004939D01*
X139443774Y-43204898D01*
X139521795Y-43393256D01*
X139635063Y-43562774D01*
X139779226Y-43706937D01*
X139948744Y-43820205D01*
X140137102Y-43898226D01*
X140337061Y-43938000D01*
X140540939Y-43938000D01*
X140740898Y-43898226D01*
X140929256Y-43820205D01*
X140977454Y-43788000D01*
X145521531Y-43788000D01*
X145565000Y-43792281D01*
X145608469Y-43788000D01*
X145608477Y-43788000D01*
X145738490Y-43775195D01*
X145905313Y-43724589D01*
X146059059Y-43642411D01*
X146193817Y-43531817D01*
X146221534Y-43498044D01*
X146803044Y-42916535D01*
X146859898Y-42905226D01*
X147048256Y-42827205D01*
X147217774Y-42713937D01*
X147361937Y-42569774D01*
X147475205Y-42400256D01*
X147553226Y-42211898D01*
X147593000Y-42011939D01*
X147593000Y-41808061D01*
X147553226Y-41608102D01*
X147475205Y-41419744D01*
X147361937Y-41250226D01*
X147318000Y-41206289D01*
X147318000Y-39153322D01*
X147321676Y-39115999D01*
X147318000Y-39078676D01*
X147318000Y-39078667D01*
X147307003Y-38967014D01*
X147263546Y-38823753D01*
X147192974Y-38691724D01*
X147179811Y-38675685D01*
X147121799Y-38604996D01*
X147121795Y-38604992D01*
X147098001Y-38575999D01*
X147069009Y-38552206D01*
X143021000Y-34504199D01*
X143021000Y-34442061D01*
X142981226Y-34242102D01*
X142903205Y-34053744D01*
X142789937Y-33884226D01*
X142645774Y-33740063D01*
X142476256Y-33626795D01*
X142287898Y-33548774D01*
X142087939Y-33509000D01*
X141884061Y-33509000D01*
X141684102Y-33548774D01*
X141495744Y-33626795D01*
X141326226Y-33740063D01*
X141182063Y-33884226D01*
X141068795Y-34053744D01*
X140990774Y-34242102D01*
X140951000Y-34442061D01*
X140951000Y-34645939D01*
X140990774Y-34845898D01*
X141068795Y-35034256D01*
X141182063Y-35203774D01*
X141326226Y-35347937D01*
X141495744Y-35461205D01*
X141684102Y-35539226D01*
X141884061Y-35579000D01*
X141946199Y-35579000D01*
X145798000Y-39430803D01*
X145798001Y-41206288D01*
X145754063Y-41250226D01*
X145640795Y-41419744D01*
X145562774Y-41608102D01*
X145551465Y-41664956D01*
X145198422Y-42018000D01*
X140977454Y-42018000D01*
X140929256Y-41985795D01*
X140740898Y-41907774D01*
X140540939Y-41868000D01*
X140337061Y-41868000D01*
X140137102Y-41907774D01*
X139948744Y-41985795D01*
X139779226Y-42099063D01*
X139635063Y-42243226D01*
X139521795Y-42412744D01*
X139443774Y-42601102D01*
X139404000Y-42801061D01*
X133348000Y-42801061D01*
X133348000Y-41851711D01*
X133391937Y-41807774D01*
X133505205Y-41638256D01*
X133583226Y-41449898D01*
X133623000Y-41249939D01*
X133623000Y-41046061D01*
X133583226Y-40846102D01*
X133505205Y-40657744D01*
X133391937Y-40488226D01*
X133247774Y-40344063D01*
X133078256Y-40230795D01*
X132889898Y-40152774D01*
X132689939Y-40113000D01*
X132486061Y-40113000D01*
X132286102Y-40152774D01*
X132097744Y-40230795D01*
X131928226Y-40344063D01*
X131784063Y-40488226D01*
X131670795Y-40657744D01*
X131592774Y-40846102D01*
X131553000Y-41046061D01*
X131553000Y-41249939D01*
X131592774Y-41449898D01*
X131670795Y-41638256D01*
X131784063Y-41807774D01*
X131828001Y-41851712D01*
X131828001Y-48576290D01*
X131723774Y-48472063D01*
X131554256Y-48358795D01*
X131365898Y-48280774D01*
X131165939Y-48241000D01*
X130962061Y-48241000D01*
X130762102Y-48280774D01*
X130573744Y-48358795D01*
X130404226Y-48472063D01*
X130260063Y-48616226D01*
X130146795Y-48785744D01*
X130068774Y-48974102D01*
X130029000Y-49174061D01*
X130029000Y-49377939D01*
X130060437Y-49535984D01*
X128786957Y-50809465D01*
X128730102Y-50820774D01*
X128541744Y-50898795D01*
X128372226Y-51012063D01*
X128228063Y-51156226D01*
X128114795Y-51325744D01*
X128036774Y-51514102D01*
X127997000Y-51714061D01*
X124458000Y-51714061D01*
X124458000Y-51622801D01*
X129656635Y-46424167D01*
X129746102Y-46461226D01*
X129946061Y-46501000D01*
X130149939Y-46501000D01*
X130349898Y-46461226D01*
X130538256Y-46383205D01*
X130707774Y-46269937D01*
X130851937Y-46125774D01*
X130965205Y-45956256D01*
X131043226Y-45767898D01*
X131083000Y-45567939D01*
X131083000Y-45364061D01*
X131043226Y-45164102D01*
X130965205Y-44975744D01*
X130851937Y-44806226D01*
X130707774Y-44662063D01*
X130538256Y-44548795D01*
X130349898Y-44470774D01*
X130149939Y-44431000D01*
X129946061Y-44431000D01*
X129746102Y-44470774D01*
X129557744Y-44548795D01*
X129388226Y-44662063D01*
X129308158Y-44742131D01*
X129247753Y-44760454D01*
X129115724Y-44831026D01*
X128999999Y-44925999D01*
X128976201Y-44954997D01*
X123186998Y-50744201D01*
X123158000Y-50767999D01*
X123134202Y-50796997D01*
X123134201Y-50796998D01*
X123063026Y-50883724D01*
X122992454Y-51015754D01*
X122980853Y-51053999D01*
X122948998Y-51159014D01*
X122938001Y-51270667D01*
X122934324Y-51308000D01*
X122938001Y-51345332D01*
X122938000Y-57466289D01*
X122833774Y-57362063D01*
X122664256Y-57248795D01*
X122475898Y-57170774D01*
X122275939Y-57131000D01*
X122072061Y-57131000D01*
X121872102Y-57170774D01*
X121683744Y-57248795D01*
X121514226Y-57362063D01*
X121370063Y-57506226D01*
X121256795Y-57675744D01*
X121178774Y-57864102D01*
X121139000Y-58064061D01*
X113372010Y-58064061D01*
X113372010Y-57019509D01*
X113458898Y-57002226D01*
X113647256Y-56924205D01*
X113816774Y-56810937D01*
X113960937Y-56666774D01*
X114074205Y-56497256D01*
X114152226Y-56308898D01*
X114192000Y-56108939D01*
X114192000Y-55905061D01*
X114152226Y-55705102D01*
X114074205Y-55516744D01*
X113960937Y-55347226D01*
X113905987Y-55292276D01*
X113862546Y-55149068D01*
X113791974Y-55017039D01*
X113790000Y-55014634D01*
X113790000Y-52773711D01*
X113833937Y-52729774D01*
X113947205Y-52560256D01*
X114025226Y-52371898D01*
X114065000Y-52171939D01*
X114065000Y-51968061D01*
X114025226Y-51768102D01*
X113947205Y-51579744D01*
X113833937Y-51410226D01*
X113689774Y-51266063D01*
X113520256Y-51152795D01*
X113331898Y-51074774D01*
X113131939Y-51035000D01*
X113064998Y-51035000D01*
X113064998Y-49003792D01*
X113077898Y-49001226D01*
X113266256Y-48923205D01*
X113435774Y-48809937D01*
X113479711Y-48766000D01*
X115001199Y-48766000D01*
X115043000Y-48807801D01*
X115043000Y-48869939D01*
X115082774Y-49069898D01*
X115160795Y-49258256D01*
X115274063Y-49427774D01*
X115418226Y-49571937D01*
X115587744Y-49685205D01*
X115776102Y-49763226D01*
X115976061Y-49803000D01*
X116179939Y-49803000D01*
X116379898Y-49763226D01*
X116568256Y-49685205D01*
X116737774Y-49571937D01*
X116881937Y-49427774D01*
X116995205Y-49258256D01*
X117073226Y-49069898D01*
X117113000Y-48869939D01*
X117113000Y-48666061D01*
X117073226Y-48466102D01*
X116995205Y-48277744D01*
X116881937Y-48108226D01*
X116737774Y-47964063D01*
X116568256Y-47850795D01*
X116379898Y-47772774D01*
X116179939Y-47733000D01*
X116117801Y-47733000D01*
X115879803Y-47495002D01*
X115856001Y-47465999D01*
X115740276Y-47371026D01*
X115608247Y-47300454D01*
X115464986Y-47256997D01*
X115353333Y-47246000D01*
X115353322Y-47246000D01*
X115316000Y-47242324D01*
X115278678Y-47246000D01*
X114610803Y-47246000D01*
X114811008Y-47045795D01*
X114840001Y-47022001D01*
X114863795Y-46993008D01*
X114863799Y-46993004D01*
X114934973Y-46906277D01*
X114934974Y-46906276D01*
X115005546Y-46774247D01*
X115049003Y-46630986D01*
X115060000Y-46519333D01*
X115060000Y-46519324D01*
X115063676Y-46482001D01*
X115060000Y-46444678D01*
X115060000Y-40763000D01*
X117558523Y-40763000D01*
X117602000Y-40767282D01*
X117645476Y-40763000D01*
X119095546Y-40763000D01*
X119143744Y-40795205D01*
X119332102Y-40873226D01*
X119532061Y-40913000D01*
X119636000Y-40913000D01*
X119636000Y-40952289D01*
X119592063Y-40996226D01*
X119478795Y-41165744D01*
X119400774Y-41354102D01*
X119361000Y-41554061D01*
X119361000Y-41757939D01*
X119400774Y-41957898D01*
X119478795Y-42146256D01*
X119592063Y-42315774D01*
X119736226Y-42459937D01*
X119905744Y-42573205D01*
X120094102Y-42651226D01*
X120294061Y-42691000D01*
X120497939Y-42691000D01*
X120697898Y-42651226D01*
X120886256Y-42573205D01*
X121055774Y-42459937D01*
X121160000Y-42355711D01*
X121160000Y-46032289D01*
X121116063Y-46076226D01*
X121002795Y-46245744D01*
X120924774Y-46434102D01*
X120885000Y-46634061D01*
X120885000Y-46837939D01*
X120924774Y-47037898D01*
X121002795Y-47226256D01*
X121116063Y-47395774D01*
X121260226Y-47539937D01*
X121429744Y-47653205D01*
X121618102Y-47731226D01*
X121818061Y-47771000D01*
X122021939Y-47771000D01*
X122221898Y-47731226D01*
X122410256Y-47653205D01*
X122579774Y-47539937D01*
X122723937Y-47395774D01*
X122837205Y-47226256D01*
X122915226Y-47037898D01*
X122955000Y-46837939D01*
X122955000Y-46634061D01*
X122915226Y-46434102D01*
X122837205Y-46245744D01*
X122723937Y-46076226D01*
X122680000Y-46032289D01*
X122680000Y-38119000D01*
X122746949Y-38119000D01*
X122946908Y-38079226D01*
X123135266Y-38001205D01*
X123304784Y-37887937D01*
X123348721Y-37844000D01*
X123367235Y-37844000D01*
X123435248Y-37912013D01*
X123604766Y-38025281D01*
X123793124Y-38103302D01*
X123993083Y-38143076D01*
X124196961Y-38143076D01*
X124396920Y-38103302D01*
X124585278Y-38025281D01*
X124754796Y-37912013D01*
X124898959Y-37767850D01*
X125012227Y-37598332D01*
X125090248Y-37409974D01*
X125130022Y-37210015D01*
X125130022Y-37006137D01*
X125090248Y-36806178D01*
X125012227Y-36617820D01*
X124898959Y-36448302D01*
X124770657Y-36320000D01*
X127617315Y-36320000D01*
X127720063Y-36473774D01*
X127864226Y-36617937D01*
X128033744Y-36731205D01*
X128222102Y-36809226D01*
X128422061Y-36849000D01*
X128625939Y-36849000D01*
X128825898Y-36809226D01*
X129014256Y-36731205D01*
X129183774Y-36617937D01*
X129227711Y-36574000D01*
X130518678Y-36574000D01*
X130556000Y-36577676D01*
X130593322Y-36574000D01*
X130593333Y-36574000D01*
X130704986Y-36563003D01*
X130848247Y-36519546D01*
X130980276Y-36448974D01*
X131096001Y-36354001D01*
X131119804Y-36324998D01*
X131611802Y-35833000D01*
X131673939Y-35833000D01*
X131873898Y-35793226D01*
X132062256Y-35715205D01*
X132231774Y-35601937D01*
X132375937Y-35457774D01*
X132489205Y-35288256D01*
X132567226Y-35099898D01*
X132607000Y-34899939D01*
X132607000Y-34696061D01*
X132567226Y-34496102D01*
X132489205Y-34307744D01*
X132375937Y-34138226D01*
X132231774Y-33994063D01*
X132062256Y-33880795D01*
X131873898Y-33802774D01*
X131673939Y-33763000D01*
X131470061Y-33763000D01*
X131270102Y-33802774D01*
X131081744Y-33880795D01*
X130912226Y-33994063D01*
X130768063Y-34138226D01*
X130654795Y-34307744D01*
X130576774Y-34496102D01*
X130537000Y-34696061D01*
X130537000Y-34758198D01*
X130241199Y-35054000D01*
X129227711Y-35054000D01*
X129183774Y-35010063D01*
X129014256Y-34896795D01*
X128825898Y-34818774D01*
X128625939Y-34779000D01*
X128422061Y-34779000D01*
X128313455Y-34800603D01*
X128307333Y-34800000D01*
X128307322Y-34800000D01*
X128270000Y-34796324D01*
X128232678Y-34800000D01*
X123385711Y-34800000D01*
X123341774Y-34756063D01*
X123172256Y-34642795D01*
X122983898Y-34564774D01*
X122783939Y-34525000D01*
X122680000Y-34525000D01*
X122680000Y-32764000D01*
X147076849Y-32764000D01*
X147086774Y-32813898D01*
X147164795Y-33002256D01*
X147278063Y-33171774D01*
X147422226Y-33315937D01*
X147591744Y-33429205D01*
X147780102Y-33507226D01*
X147980061Y-33547000D01*
X148183939Y-33547000D01*
X148383898Y-33507226D01*
X148572256Y-33429205D01*
X148741774Y-33315937D01*
X148885937Y-33171774D01*
X148999205Y-33002256D01*
X149077226Y-32813898D01*
X149117000Y-32613939D01*
X149117000Y-32410061D01*
X149077226Y-32210102D01*
X148999205Y-32021744D01*
X148885937Y-31852226D01*
X148805869Y-31772158D01*
X148787546Y-31711753D01*
X148716974Y-31579724D01*
X148622001Y-31463999D01*
X148506276Y-31369026D01*
X148374247Y-31298454D01*
X148230986Y-31254997D01*
X148119333Y-31244000D01*
X148082000Y-31240323D01*
X148044667Y-31244000D01*
X141919404Y-31244000D01*
X142033898Y-31221226D01*
X142222256Y-31143205D01*
X142391774Y-31029937D01*
X142535937Y-30885774D01*
X142649205Y-30716256D01*
X142727226Y-30527898D01*
X142767000Y-30327939D01*
X142767000Y-30124061D01*
X142727226Y-29924102D01*
X142649205Y-29735744D01*
X142535937Y-29566226D01*
X142391774Y-29422063D01*
X142222256Y-29308795D01*
X142033898Y-29230774D01*
X141833939Y-29191000D01*
X141630061Y-29191000D01*
X141430102Y-29230774D01*
X141241744Y-29308795D01*
X141072226Y-29422063D01*
X141028289Y-29466000D01*
X122465323Y-29466000D01*
X122428000Y-29462324D01*
X122390677Y-29466000D01*
X122390667Y-29466000D01*
X122279014Y-29476997D01*
X122135753Y-29520454D01*
X122003723Y-29591026D01*
X121954178Y-29631687D01*
X121887999Y-29685999D01*
X121864201Y-29714997D01*
X119884998Y-31694201D01*
X119856000Y-31717999D01*
X119832202Y-31746997D01*
X119832201Y-31746998D01*
X119761026Y-31833724D01*
X119690454Y-31965754D01*
X119660180Y-32065558D01*
X119646998Y-32109014D01*
X119637042Y-32210102D01*
X119632324Y-32258000D01*
X119636001Y-32295332D01*
X119636000Y-38843000D01*
X119532061Y-38843000D01*
X119332102Y-38882774D01*
X119143744Y-38960795D01*
X119095546Y-38993000D01*
X118487000Y-38993000D01*
X118487000Y-30269465D01*
X118491281Y-30225999D01*
X118487000Y-30182533D01*
X118487000Y-30182523D01*
X118474195Y-30052510D01*
X118423589Y-29885687D01*
X118341411Y-29731941D01*
X118233000Y-29599843D01*
X118233000Y-29494454D01*
X118265205Y-29446256D01*
X118343226Y-29257898D01*
X118383000Y-29057939D01*
X118383000Y-28854061D01*
X118343226Y-28654102D01*
X118265205Y-28465744D01*
X118151937Y-28296226D01*
X118007774Y-28152063D01*
X117838256Y-28038795D01*
X117649898Y-27960774D01*
X117449939Y-27921000D01*
X117246061Y-27921000D01*
X117046102Y-27960774D01*
X116857744Y-28038795D01*
X116688226Y-28152063D01*
X116544063Y-28296226D01*
X116430795Y-28465744D01*
X116352774Y-28654102D01*
X116313000Y-28854061D01*
X116313000Y-29057939D01*
X116352774Y-29257898D01*
X116430795Y-29446256D01*
X116463000Y-29494455D01*
X116463000Y-29928530D01*
X116458719Y-29972000D01*
X116463000Y-30015469D01*
X116463000Y-30015476D01*
X116469061Y-30077014D01*
X116475805Y-30145490D01*
X116487039Y-30182523D01*
X116526411Y-30312312D01*
X116608589Y-30466058D01*
X116717001Y-30598158D01*
X116717000Y-38993000D01*
X109504454Y-38993000D01*
X109456256Y-38960795D01*
X109267898Y-38882774D01*
X109067939Y-38843000D01*
X108864061Y-38843000D01*
X108664102Y-38882774D01*
X108475744Y-38960795D01*
X108306226Y-39074063D01*
X108162063Y-39218226D01*
X108048795Y-39387744D01*
X107970774Y-39576102D01*
X107931000Y-39776061D01*
X107931000Y-39979939D01*
X107970774Y-40179898D01*
X108048795Y-40368256D01*
X108061987Y-40388000D01*
X105701322Y-40388000D01*
X105663999Y-40384324D01*
X105626676Y-40388000D01*
X105626667Y-40388000D01*
X105515014Y-40398997D01*
X105371753Y-40442454D01*
X105239724Y-40513026D01*
X105123999Y-40607999D01*
X105100201Y-40636997D01*
X101850998Y-43886201D01*
X101822000Y-43909999D01*
X101798202Y-43938997D01*
X101798201Y-43938998D01*
X101727026Y-44025724D01*
X101656454Y-44157754D01*
X101635146Y-44228001D01*
X101612998Y-44301014D01*
X101608055Y-44351205D01*
X101598324Y-44450000D01*
X101602001Y-44487332D01*
X101602000Y-47125513D01*
X100580998Y-48146516D01*
X100552000Y-48170314D01*
X100528202Y-48199312D01*
X100528201Y-48199313D01*
X100457026Y-48286039D01*
X100426193Y-48343724D01*
X100386454Y-48418068D01*
X100343013Y-48561276D01*
X100288063Y-48616226D01*
X100174795Y-48785744D01*
X100096774Y-48974102D01*
X100095000Y-48983021D01*
X100095000Y-48920061D01*
X100055226Y-48720102D01*
X99977205Y-48531744D01*
X99945000Y-48483546D01*
X99945000Y-47875465D01*
X99949281Y-47831999D01*
X99945000Y-47788533D01*
X99945000Y-47788523D01*
X99932195Y-47658510D01*
X99881589Y-47491687D01*
X99799411Y-47337941D01*
X99739364Y-47264774D01*
X99716532Y-47236953D01*
X99716530Y-47236951D01*
X99688817Y-47203183D01*
X99655049Y-47175470D01*
X98447755Y-45968176D01*
X98487513Y-45837111D01*
X98516185Y-45546000D01*
X98487513Y-45254889D01*
X98402599Y-44974966D01*
X98264706Y-44716986D01*
X98079134Y-44490866D01*
X97853014Y-44305294D01*
X97595034Y-44167401D01*
X97315111Y-44082487D01*
X97096950Y-44061000D01*
X96451050Y-44061000D01*
X96232889Y-44082487D01*
X95952966Y-44167401D01*
X95694986Y-44305294D01*
X95468866Y-44490866D01*
X95283294Y-44716986D01*
X95145401Y-44974966D01*
X95060487Y-45254889D01*
X95031815Y-45546000D01*
X91079000Y-45546000D01*
X91079000Y-45399740D01*
X91021932Y-45112842D01*
X90909990Y-44842589D01*
X90747475Y-44599368D01*
X90540632Y-44392525D01*
X90297411Y-44230010D01*
X90027158Y-44118068D01*
X89740260Y-44061000D01*
X89447740Y-44061000D01*
X89160842Y-44118068D01*
X88890589Y-44230010D01*
X88647368Y-44392525D01*
X88440525Y-44599368D01*
X88278010Y-44842589D01*
X88166068Y-45112842D01*
X88109000Y-45399740D01*
X86737790Y-45399740D01*
X86738140Y-41529000D01*
X102162000Y-41529000D01*
X102186776Y-41526560D01*
X102210601Y-41519333D01*
X102552022Y-41377912D01*
X102573978Y-41366176D01*
X102593224Y-41350382D01*
X103580382Y-40363224D01*
X103596176Y-40343978D01*
X103607912Y-40322022D01*
X103749333Y-39980601D01*
X103756560Y-39956776D01*
X103759000Y-39932000D01*
X103759000Y-30124061D01*
X106407000Y-30124061D01*
X106407000Y-30327939D01*
X106446774Y-30527898D01*
X106524795Y-30716256D01*
X106621510Y-30861000D01*
X106524795Y-31005744D01*
X106446774Y-31194102D01*
X106407000Y-31394061D01*
X106407000Y-31597939D01*
X106446774Y-31797898D01*
X106524795Y-31986256D01*
X106621510Y-32131000D01*
X106524795Y-32275744D01*
X106446774Y-32464102D01*
X106407000Y-32664061D01*
X106407000Y-32867939D01*
X106446774Y-33067898D01*
X106524795Y-33256256D01*
X106621510Y-33401000D01*
X106524795Y-33545744D01*
X106446774Y-33734102D01*
X106407000Y-33934061D01*
X106407000Y-34137939D01*
X106446774Y-34337898D01*
X106524795Y-34526256D01*
X106638063Y-34695774D01*
X106782226Y-34839937D01*
X106951744Y-34953205D01*
X107140102Y-35031226D01*
X107340061Y-35071000D01*
X107543939Y-35071000D01*
X107743898Y-35031226D01*
X107932256Y-34953205D01*
X108101774Y-34839937D01*
X108204000Y-34737711D01*
X108306226Y-34839937D01*
X108475744Y-34953205D01*
X108664102Y-35031226D01*
X108864061Y-35071000D01*
X109067939Y-35071000D01*
X109267898Y-35031226D01*
X109456256Y-34953205D01*
X109625774Y-34839937D01*
X109769937Y-34695774D01*
X109883205Y-34526256D01*
X109961226Y-34337898D01*
X110001000Y-34137939D01*
X110001000Y-33934061D01*
X109961226Y-33734102D01*
X109883205Y-33545744D01*
X109786490Y-33401000D01*
X109883205Y-33256256D01*
X109961226Y-33067898D01*
X110001000Y-32867939D01*
X110001000Y-32664061D01*
X109961226Y-32464102D01*
X109883205Y-32275744D01*
X109786490Y-32131000D01*
X109883205Y-31986256D01*
X109961226Y-31797898D01*
X110001000Y-31597939D01*
X110001000Y-31394061D01*
X109961226Y-31194102D01*
X109883205Y-31005744D01*
X109786490Y-30861000D01*
X109883205Y-30716256D01*
X109961226Y-30527898D01*
X110001000Y-30327939D01*
X110001000Y-30124061D01*
X109961226Y-29924102D01*
X109883205Y-29735744D01*
X109769937Y-29566226D01*
X109625774Y-29422063D01*
X109456256Y-29308795D01*
X109267898Y-29230774D01*
X109067939Y-29191000D01*
X108864061Y-29191000D01*
X108664102Y-29230774D01*
X108475744Y-29308795D01*
X108306226Y-29422063D01*
X108204000Y-29524289D01*
X108101774Y-29422063D01*
X107932256Y-29308795D01*
X107743898Y-29230774D01*
X107543939Y-29191000D01*
X107340061Y-29191000D01*
X107140102Y-29230774D01*
X106951744Y-29308795D01*
X106782226Y-29422063D01*
X106638063Y-29566226D01*
X106524795Y-29735744D01*
X106446774Y-29924102D01*
X106407000Y-30124061D01*
X103759000Y-30124061D01*
X103759000Y-27735000D01*
X149047857Y-27735000D01*
X149047857Y-31494000D01*
G04 #@! TA.AperFunction,Conductor*
D18*
G36*
X149047857Y-31494000D02*
G01*
X160832143Y-31494000D01*
X160832143Y-29776495D01*
X161083000Y-29776495D01*
X161083000Y-30167505D01*
X161159282Y-30551003D01*
X161308915Y-30912250D01*
X161526149Y-31237364D01*
X161802636Y-31513851D01*
X162127750Y-31731085D01*
X162488997Y-31880718D01*
X162872495Y-31957000D01*
X163263505Y-31957000D01*
X163647003Y-31880718D01*
X164008250Y-31731085D01*
X164333364Y-31513851D01*
X164609851Y-31237364D01*
X164827085Y-30912250D01*
X164976718Y-30551003D01*
X165053000Y-30167505D01*
X165053000Y-29776495D01*
X164976718Y-29392997D01*
X164827085Y-29031750D01*
X164609851Y-28706636D01*
X164333364Y-28430149D01*
X164008250Y-28212915D01*
X163647003Y-28063282D01*
X163263505Y-27987000D01*
X162872495Y-27987000D01*
X162488997Y-28063282D01*
X162127750Y-28212915D01*
X161802636Y-28430149D01*
X161526149Y-28706636D01*
X161308915Y-29031750D01*
X161159282Y-29392997D01*
X161083000Y-29776495D01*
X160832143Y-29776495D01*
X160832143Y-27735000D01*
X164922554Y-27735000D01*
X165254069Y-28066516D01*
X165264932Y-76150343D01*
X165188532Y-76227000D01*
X159428655Y-76227000D01*
X159581120Y-76074535D01*
X159734005Y-75845727D01*
X159839314Y-75591490D01*
X159893000Y-75321592D01*
X159893000Y-75046408D01*
X159839314Y-74776510D01*
X159734005Y-74522273D01*
X159581120Y-74293465D01*
X159386535Y-74098880D01*
X159197387Y-73972495D01*
X161083000Y-73972495D01*
X161083000Y-74363505D01*
X161159282Y-74747003D01*
X161308915Y-75108250D01*
X161526149Y-75433364D01*
X161802636Y-75709851D01*
X162127750Y-75927085D01*
X162488997Y-76076718D01*
X162872495Y-76153000D01*
X163263505Y-76153000D01*
X163647003Y-76076718D01*
X164008250Y-75927085D01*
X164333364Y-75709851D01*
X164609851Y-75433364D01*
X164827085Y-75108250D01*
X164976718Y-74747003D01*
X165053000Y-74363505D01*
X165053000Y-73972495D01*
X164976718Y-73588997D01*
X164827085Y-73227750D01*
X164609851Y-72902636D01*
X164333364Y-72626149D01*
X164008250Y-72408915D01*
X163647003Y-72259282D01*
X163263505Y-72183000D01*
X162872495Y-72183000D01*
X162488997Y-72259282D01*
X162127750Y-72408915D01*
X161802636Y-72626149D01*
X161526149Y-72902636D01*
X161308915Y-73227750D01*
X161159282Y-73588997D01*
X161083000Y-73972495D01*
X159197387Y-73972495D01*
X159190715Y-73968037D01*
X159190715Y-71070000D01*
X141509578Y-71070000D01*
X153457802Y-59121777D01*
X153455928Y-59140800D01*
X153455928Y-60340800D01*
X153472992Y-60514054D01*
X153523528Y-60680650D01*
X153605595Y-60834186D01*
X153716038Y-60968762D01*
X153850614Y-61079205D01*
X153952337Y-61133577D01*
X153888866Y-61185666D01*
X153703294Y-61411786D01*
X153565401Y-61669766D01*
X153480487Y-61949689D01*
X153451815Y-62240800D01*
X153480487Y-62531911D01*
X153565401Y-62811834D01*
X153703294Y-63069814D01*
X153888866Y-63295934D01*
X154114986Y-63481506D01*
X154372966Y-63619399D01*
X154652889Y-63704313D01*
X154871050Y-63725800D01*
X155516950Y-63725800D01*
X155735111Y-63704313D01*
X156015034Y-63619399D01*
X156273014Y-63481506D01*
X156499134Y-63295934D01*
X156684706Y-63069814D01*
X156822599Y-62811834D01*
X156907513Y-62531911D01*
X156936185Y-62240800D01*
X156907513Y-61949689D01*
X156822599Y-61669766D01*
X156684706Y-61411786D01*
X156499134Y-61185666D01*
X156435663Y-61133577D01*
X156537386Y-61079205D01*
X156671962Y-60968762D01*
X156782405Y-60834186D01*
X156864472Y-60680650D01*
X156915008Y-60514054D01*
X156932072Y-60340800D01*
X156932072Y-59140800D01*
X156915008Y-58967546D01*
X156864472Y-58800950D01*
X156782405Y-58647414D01*
X156671962Y-58512838D01*
X156537386Y-58402395D01*
X156462000Y-58362100D01*
X156462000Y-55605578D01*
X157611001Y-56754580D01*
X157611000Y-67705421D01*
X156345957Y-68970465D01*
X156289102Y-68981774D01*
X156100744Y-69059795D01*
X155931226Y-69173063D01*
X155787063Y-69317226D01*
X155673795Y-69486744D01*
X155595774Y-69675102D01*
X155556000Y-69875061D01*
X155556000Y-70078939D01*
X155595774Y-70278898D01*
X155673795Y-70467256D01*
X155787063Y-70636774D01*
X155931226Y-70780937D01*
X156100744Y-70894205D01*
X156289102Y-70972226D01*
X156489061Y-71012000D01*
X156692939Y-71012000D01*
X156892898Y-70972226D01*
X157081256Y-70894205D01*
X157250774Y-70780937D01*
X157394937Y-70636774D01*
X157508205Y-70467256D01*
X157586226Y-70278898D01*
X157597535Y-70222043D01*
X159091050Y-68728529D01*
X159124817Y-68700817D01*
X159200823Y-68608205D01*
X159235411Y-68566059D01*
X159287161Y-68469240D01*
X159317589Y-68412313D01*
X159368195Y-68245490D01*
X159381000Y-68115477D01*
X159381000Y-68115469D01*
X159385281Y-68072000D01*
X159381000Y-68028531D01*
X159381000Y-59594540D01*
X160889000Y-59594540D01*
X160889000Y-59887060D01*
X160946068Y-60173958D01*
X161058010Y-60444211D01*
X161220525Y-60687432D01*
X161427368Y-60894275D01*
X161571828Y-60990800D01*
X161427368Y-61087325D01*
X161220525Y-61294168D01*
X161058010Y-61537389D01*
X160946068Y-61807642D01*
X160889000Y-62094540D01*
X160889000Y-62387060D01*
X160946068Y-62673958D01*
X161058010Y-62944211D01*
X161220525Y-63187432D01*
X161427368Y-63394275D01*
X161670589Y-63556790D01*
X161940842Y-63668732D01*
X162227740Y-63725800D01*
X162520260Y-63725800D01*
X162807158Y-63668732D01*
X163077411Y-63556790D01*
X163320632Y-63394275D01*
X163527475Y-63187432D01*
X163689990Y-62944211D01*
X163801932Y-62673958D01*
X163859000Y-62387060D01*
X163859000Y-62094540D01*
X163801932Y-61807642D01*
X163689990Y-61537389D01*
X163527475Y-61294168D01*
X163320632Y-61087325D01*
X163176172Y-60990800D01*
X163320632Y-60894275D01*
X163527475Y-60687432D01*
X163689990Y-60444211D01*
X163801932Y-60173958D01*
X163859000Y-59887060D01*
X163859000Y-59594540D01*
X163801932Y-59307642D01*
X163689990Y-59037389D01*
X163527475Y-58794168D01*
X163320632Y-58587325D01*
X163077411Y-58424810D01*
X162807158Y-58312868D01*
X162520260Y-58255800D01*
X162227740Y-58255800D01*
X161940842Y-58312868D01*
X161670589Y-58424810D01*
X161427368Y-58587325D01*
X161220525Y-58794168D01*
X161058010Y-59037389D01*
X160946068Y-59307642D01*
X160889000Y-59594540D01*
X159381000Y-59594540D01*
X159381000Y-56431469D01*
X159385281Y-56388000D01*
X159381000Y-56344531D01*
X159381000Y-56344523D01*
X159368195Y-56214510D01*
X159317589Y-56047687D01*
X159235411Y-55893941D01*
X159202891Y-55854316D01*
X159152532Y-55792953D01*
X159152530Y-55792951D01*
X159124817Y-55759183D01*
X159091049Y-55731470D01*
X157597535Y-54237957D01*
X157586226Y-54181102D01*
X157508205Y-53992744D01*
X157394937Y-53823226D01*
X157250774Y-53679063D01*
X157081256Y-53565795D01*
X156892898Y-53487774D01*
X156692939Y-53448000D01*
X156489061Y-53448000D01*
X156462000Y-53453383D01*
X156462000Y-51884711D01*
X156505937Y-51840774D01*
X156619205Y-51671256D01*
X156697226Y-51482898D01*
X156737000Y-51282939D01*
X156737000Y-51079061D01*
X156697226Y-50879102D01*
X156619205Y-50690744D01*
X156505937Y-50521226D01*
X156361774Y-50377063D01*
X156208757Y-50274821D01*
X158329050Y-48154529D01*
X158362817Y-48126817D01*
X158395897Y-48086510D01*
X158462389Y-48005489D01*
X158473411Y-47992059D01*
X158555589Y-47838313D01*
X158606195Y-47671490D01*
X158619000Y-47541477D01*
X158619000Y-47541467D01*
X158623281Y-47498001D01*
X158619000Y-47454534D01*
X158619000Y-44747465D01*
X158623281Y-44703999D01*
X158619000Y-44660533D01*
X158619000Y-44660523D01*
X158606195Y-44530510D01*
X158555589Y-44363687D01*
X158523548Y-44303740D01*
X160889000Y-44303740D01*
X160889000Y-44596260D01*
X160946068Y-44883158D01*
X161058010Y-45153411D01*
X161220525Y-45396632D01*
X161427368Y-45603475D01*
X161571828Y-45700000D01*
X161427368Y-45796525D01*
X161220525Y-46003368D01*
X161058010Y-46246589D01*
X160946068Y-46516842D01*
X160889000Y-46803740D01*
X160889000Y-47096260D01*
X160946068Y-47383158D01*
X161058010Y-47653411D01*
X161220525Y-47896632D01*
X161427368Y-48103475D01*
X161670589Y-48265990D01*
X161940842Y-48377932D01*
X162227740Y-48435000D01*
X162520260Y-48435000D01*
X162807158Y-48377932D01*
X163077411Y-48265990D01*
X163320632Y-48103475D01*
X163527475Y-47896632D01*
X163689990Y-47653411D01*
X163801932Y-47383158D01*
X163859000Y-47096260D01*
X163859000Y-46803740D01*
X163801932Y-46516842D01*
X163689990Y-46246589D01*
X163527475Y-46003368D01*
X163320632Y-45796525D01*
X163176172Y-45700000D01*
X163320632Y-45603475D01*
X163527475Y-45396632D01*
X163689990Y-45153411D01*
X163801932Y-44883158D01*
X163859000Y-44596260D01*
X163859000Y-44303740D01*
X163801932Y-44016842D01*
X163689990Y-43746589D01*
X163527475Y-43503368D01*
X163320632Y-43296525D01*
X163077411Y-43134010D01*
X162807158Y-43022068D01*
X162520260Y-42965000D01*
X162227740Y-42965000D01*
X161940842Y-43022068D01*
X161670589Y-43134010D01*
X161427368Y-43296525D01*
X161220525Y-43503368D01*
X161058010Y-43746589D01*
X160946068Y-44016842D01*
X160889000Y-44303740D01*
X158523548Y-44303740D01*
X158473411Y-44209941D01*
X158362817Y-44075183D01*
X158329044Y-44047466D01*
X158136534Y-43854956D01*
X158108817Y-43821183D01*
X157974059Y-43710589D01*
X157820313Y-43628411D01*
X157653490Y-43577805D01*
X157523477Y-43565000D01*
X157523469Y-43565000D01*
X157480000Y-43560719D01*
X157436531Y-43565000D01*
X156881110Y-43565000D01*
X156864472Y-43510150D01*
X156782405Y-43356614D01*
X156671962Y-43222038D01*
X156537386Y-43111595D01*
X156383850Y-43029528D01*
X156217254Y-42978992D01*
X156044000Y-42961928D01*
X154344000Y-42961928D01*
X154170746Y-42978992D01*
X154004150Y-43029528D01*
X153850614Y-43111595D01*
X153716038Y-43222038D01*
X153605595Y-43356614D01*
X153523528Y-43510150D01*
X153472992Y-43676746D01*
X153455928Y-43850000D01*
X153455928Y-45050000D01*
X153472992Y-45223254D01*
X153523528Y-45389850D01*
X153605595Y-45543386D01*
X153716038Y-45677962D01*
X153850614Y-45788405D01*
X153952337Y-45842777D01*
X153888866Y-45894866D01*
X153703294Y-46120986D01*
X153601838Y-46310797D01*
X153589183Y-46321183D01*
X153561470Y-46354951D01*
X152058951Y-47857471D01*
X152025184Y-47885183D01*
X151997471Y-47918951D01*
X151997468Y-47918954D01*
X151914590Y-48019941D01*
X151832412Y-48173687D01*
X151781805Y-48340510D01*
X151764719Y-48514000D01*
X151769001Y-48557478D01*
X151769000Y-49740530D01*
X151764719Y-49784000D01*
X151769000Y-49827469D01*
X151769000Y-49827476D01*
X151775571Y-49894195D01*
X151781805Y-49957490D01*
X151783759Y-49963931D01*
X151832411Y-50124312D01*
X151914589Y-50278058D01*
X152025183Y-50412817D01*
X152058956Y-50440534D01*
X153039001Y-51420580D01*
X153039000Y-55513421D01*
X139333422Y-69219000D01*
X135679465Y-69219000D01*
X135635999Y-69214719D01*
X135592533Y-69219000D01*
X135592523Y-69219000D01*
X135462510Y-69231805D01*
X135295687Y-69282411D01*
X135141941Y-69364589D01*
X135141939Y-69364590D01*
X135141940Y-69364590D01*
X135040953Y-69447468D01*
X135040951Y-69447470D01*
X135007183Y-69475183D01*
X134979470Y-69508951D01*
X133516951Y-70971471D01*
X133483184Y-70999183D01*
X133455471Y-71032951D01*
X133455468Y-71032954D01*
X133372590Y-71133941D01*
X133290412Y-71287687D01*
X133239805Y-71454510D01*
X133222719Y-71628000D01*
X133227001Y-71671479D01*
X133227000Y-73599000D01*
X132939891Y-73599000D01*
X132633673Y-73659911D01*
X132345221Y-73779391D01*
X132085621Y-73952850D01*
X131864850Y-74173621D01*
X131691391Y-74433221D01*
X131571911Y-74721673D01*
X131511000Y-75027891D01*
X131511000Y-75340109D01*
X131571911Y-75646327D01*
X131691391Y-75934779D01*
X131864850Y-76194379D01*
X131897471Y-76227000D01*
X86976458Y-76227000D01*
X86735027Y-75991663D01*
X86735255Y-73464495D01*
X86915000Y-73464495D01*
X86915000Y-73855505D01*
X86991282Y-74239003D01*
X87140915Y-74600250D01*
X87358149Y-74925364D01*
X87634636Y-75201851D01*
X87959750Y-75419085D01*
X88320997Y-75568718D01*
X88704495Y-75645000D01*
X89095505Y-75645000D01*
X89479003Y-75568718D01*
X89840250Y-75419085D01*
X90165364Y-75201851D01*
X90441851Y-74925364D01*
X90659085Y-74600250D01*
X90808718Y-74239003D01*
X90885000Y-73855505D01*
X90885000Y-73464495D01*
X90808718Y-73080997D01*
X90659085Y-72719750D01*
X90441851Y-72394636D01*
X90165364Y-72118149D01*
X89840250Y-71900915D01*
X89479003Y-71751282D01*
X89095505Y-71675000D01*
X88704495Y-71675000D01*
X88320997Y-71751282D01*
X87959750Y-71900915D01*
X87634636Y-72118149D01*
X87358149Y-72394636D01*
X87140915Y-72719750D01*
X86991282Y-73080997D01*
X86915000Y-73464495D01*
X86735255Y-73464495D01*
X86736099Y-64115740D01*
X88109000Y-64115740D01*
X88109000Y-64408260D01*
X88166068Y-64695158D01*
X88278010Y-64965411D01*
X88440525Y-65208632D01*
X88647368Y-65415475D01*
X88890589Y-65577990D01*
X89160842Y-65689932D01*
X89447740Y-65747000D01*
X89740260Y-65747000D01*
X90027158Y-65689932D01*
X90297411Y-65577990D01*
X90540632Y-65415475D01*
X90747475Y-65208632D01*
X90812042Y-65112000D01*
X95035928Y-65112000D01*
X95048188Y-65236482D01*
X95084498Y-65356180D01*
X95143463Y-65466494D01*
X95222815Y-65563185D01*
X95319506Y-65642537D01*
X95429820Y-65701502D01*
X95549518Y-65737812D01*
X95674000Y-65750072D01*
X96488250Y-65747000D01*
X96647000Y-65588250D01*
X96647000Y-64389000D01*
X96901000Y-64389000D01*
X96901000Y-65588250D01*
X97059750Y-65747000D01*
X97874000Y-65750072D01*
X97998482Y-65737812D01*
X98118180Y-65701502D01*
X98228494Y-65642537D01*
X98325185Y-65563185D01*
X98404537Y-65466494D01*
X98463502Y-65356180D01*
X98499812Y-65236482D01*
X98512072Y-65112000D01*
X98509000Y-64547750D01*
X98350250Y-64389000D01*
X96901000Y-64389000D01*
X96647000Y-64389000D01*
X95197750Y-64389000D01*
X95039000Y-64547750D01*
X95035928Y-65112000D01*
X90812042Y-65112000D01*
X90909990Y-64965411D01*
X91021932Y-64695158D01*
X91079000Y-64408260D01*
X91079000Y-64115740D01*
X91021932Y-63828842D01*
X90909990Y-63558589D01*
X90747475Y-63315368D01*
X90540632Y-63108525D01*
X90297411Y-62946010D01*
X90027158Y-62834068D01*
X89740260Y-62777000D01*
X89447740Y-62777000D01*
X89160842Y-62834068D01*
X88890589Y-62946010D01*
X88647368Y-63108525D01*
X88440525Y-63315368D01*
X88278010Y-63558589D01*
X88166068Y-63828842D01*
X88109000Y-64115740D01*
X86736099Y-64115740D01*
X86736550Y-59115740D01*
X88109000Y-59115740D01*
X88109000Y-59408260D01*
X88166068Y-59695158D01*
X88278010Y-59965411D01*
X88440525Y-60208632D01*
X88647368Y-60415475D01*
X88890589Y-60577990D01*
X89160842Y-60689932D01*
X89447740Y-60747000D01*
X89740260Y-60747000D01*
X90027158Y-60689932D01*
X90297411Y-60577990D01*
X90540632Y-60415475D01*
X90747475Y-60208632D01*
X90909990Y-59965411D01*
X91021932Y-59695158D01*
X91079000Y-59408260D01*
X91079000Y-59262000D01*
X95031815Y-59262000D01*
X95060487Y-59553111D01*
X95145401Y-59833034D01*
X95283294Y-60091014D01*
X95468866Y-60317134D01*
X95694986Y-60502706D01*
X95712374Y-60512000D01*
X95694986Y-60521294D01*
X95468866Y-60706866D01*
X95283294Y-60932986D01*
X95145401Y-61190966D01*
X95060487Y-61470889D01*
X95031815Y-61762000D01*
X95060487Y-62053111D01*
X95145401Y-62333034D01*
X95283294Y-62591014D01*
X95464608Y-62811945D01*
X95429820Y-62822498D01*
X95319506Y-62881463D01*
X95222815Y-62960815D01*
X95143463Y-63057506D01*
X95084498Y-63167820D01*
X95048188Y-63287518D01*
X95035928Y-63412000D01*
X95039000Y-63976250D01*
X95197750Y-64135000D01*
X96647000Y-64135000D01*
X96647000Y-64115000D01*
X96901000Y-64115000D01*
X96901000Y-64135000D01*
X98350250Y-64135000D01*
X98509000Y-63976250D01*
X98512072Y-63412000D01*
X98499812Y-63287518D01*
X98463502Y-63167820D01*
X98404537Y-63057506D01*
X98325185Y-62960815D01*
X98228494Y-62881463D01*
X98118180Y-62822498D01*
X98083392Y-62811945D01*
X98264706Y-62591014D01*
X98402599Y-62333034D01*
X98487513Y-62053111D01*
X98516185Y-61762000D01*
X98487513Y-61470889D01*
X98402599Y-61190966D01*
X98264706Y-60932986D01*
X98079134Y-60706866D01*
X97853014Y-60521294D01*
X97835626Y-60512000D01*
X97853014Y-60502706D01*
X98079134Y-60317134D01*
X98264706Y-60091014D01*
X98402599Y-59833034D01*
X98487513Y-59553111D01*
X98516185Y-59262000D01*
X98487513Y-58970889D01*
X98402599Y-58690966D01*
X98264706Y-58432986D01*
X98079134Y-58206866D01*
X97853014Y-58021294D01*
X97595034Y-57883401D01*
X97315111Y-57798487D01*
X97096950Y-57777000D01*
X96451050Y-57777000D01*
X96232889Y-57798487D01*
X95952966Y-57883401D01*
X95694986Y-58021294D01*
X95468866Y-58206866D01*
X95283294Y-58432986D01*
X95145401Y-58690966D01*
X95060487Y-58970889D01*
X95031815Y-59262000D01*
X91079000Y-59262000D01*
X91079000Y-59115740D01*
X91021932Y-58828842D01*
X90909990Y-58558589D01*
X90747475Y-58315368D01*
X90540632Y-58108525D01*
X90297411Y-57946010D01*
X90027158Y-57834068D01*
X89740260Y-57777000D01*
X89447740Y-57777000D01*
X89160842Y-57834068D01*
X88890589Y-57946010D01*
X88647368Y-58108525D01*
X88440525Y-58315368D01*
X88278010Y-58558589D01*
X88166068Y-58828842D01*
X88109000Y-59115740D01*
X86736550Y-59115740D01*
X86736851Y-55778061D01*
X92691000Y-55778061D01*
X92691000Y-55981939D01*
X92730774Y-56181898D01*
X92808795Y-56370256D01*
X92922063Y-56539774D01*
X93066226Y-56683937D01*
X93235744Y-56797205D01*
X93424102Y-56875226D01*
X93624061Y-56915000D01*
X93827939Y-56915000D01*
X94027898Y-56875226D01*
X94216256Y-56797205D01*
X94264454Y-56765000D01*
X98521546Y-56765000D01*
X98569744Y-56797205D01*
X98758102Y-56875226D01*
X98958061Y-56915000D01*
X99161939Y-56915000D01*
X99361898Y-56875226D01*
X99550256Y-56797205D01*
X99719774Y-56683937D01*
X99863937Y-56539774D01*
X99977205Y-56370256D01*
X100055226Y-56181898D01*
X100095000Y-55981939D01*
X100095000Y-55778061D01*
X100055226Y-55578102D01*
X99977205Y-55389744D01*
X99863937Y-55220226D01*
X99719774Y-55076063D01*
X99550256Y-54962795D01*
X99361898Y-54884774D01*
X99161939Y-54845000D01*
X98958061Y-54845000D01*
X98758102Y-54884774D01*
X98569744Y-54962795D01*
X98521546Y-54995000D01*
X94264454Y-54995000D01*
X94216256Y-54962795D01*
X94027898Y-54884774D01*
X93827939Y-54845000D01*
X93624061Y-54845000D01*
X93424102Y-54884774D01*
X93235744Y-54962795D01*
X93066226Y-55076063D01*
X92922063Y-55220226D01*
X92808795Y-55389744D01*
X92730774Y-55578102D01*
X92691000Y-55778061D01*
X86736851Y-55778061D01*
X86737338Y-50399740D01*
X88109000Y-50399740D01*
X88109000Y-50692260D01*
X88166068Y-50979158D01*
X88278010Y-51249411D01*
X88440525Y-51492632D01*
X88647368Y-51699475D01*
X88890589Y-51861990D01*
X89160842Y-51973932D01*
X89447740Y-52031000D01*
X89740260Y-52031000D01*
X90027158Y-51973932D01*
X90297411Y-51861990D01*
X90540632Y-51699475D01*
X90747475Y-51492632D01*
X90812042Y-51396000D01*
X95035928Y-51396000D01*
X95048188Y-51520482D01*
X95084498Y-51640180D01*
X95143463Y-51750494D01*
X95222815Y-51847185D01*
X95319506Y-51926537D01*
X95429820Y-51985502D01*
X95549518Y-52021812D01*
X95674000Y-52034072D01*
X96488250Y-52031000D01*
X96647000Y-51872250D01*
X96647000Y-50673000D01*
X96901000Y-50673000D01*
X96901000Y-51872250D01*
X97059750Y-52031000D01*
X97874000Y-52034072D01*
X97998482Y-52021812D01*
X98118180Y-51985502D01*
X98228494Y-51926537D01*
X98325185Y-51847185D01*
X98404537Y-51750494D01*
X98463502Y-51640180D01*
X98499812Y-51520482D01*
X98512072Y-51396000D01*
X98509000Y-50831750D01*
X98350250Y-50673000D01*
X96901000Y-50673000D01*
X96647000Y-50673000D01*
X95197750Y-50673000D01*
X95039000Y-50831750D01*
X95035928Y-51396000D01*
X90812042Y-51396000D01*
X90909990Y-51249411D01*
X91021932Y-50979158D01*
X91079000Y-50692260D01*
X91079000Y-50399740D01*
X91021932Y-50112842D01*
X90909990Y-49842589D01*
X90747475Y-49599368D01*
X90540632Y-49392525D01*
X90297411Y-49230010D01*
X90027158Y-49118068D01*
X89740260Y-49061000D01*
X89447740Y-49061000D01*
X89160842Y-49118068D01*
X88890589Y-49230010D01*
X88647368Y-49392525D01*
X88440525Y-49599368D01*
X88278010Y-49842589D01*
X88166068Y-50112842D01*
X88109000Y-50399740D01*
X86737338Y-50399740D01*
X86737790Y-45399740D01*
X88109000Y-45399740D01*
X88109000Y-45692260D01*
X88166068Y-45979158D01*
X88278010Y-46249411D01*
X88440525Y-46492632D01*
X88647368Y-46699475D01*
X88890589Y-46861990D01*
X89160842Y-46973932D01*
X89447740Y-47031000D01*
X89740260Y-47031000D01*
X90027158Y-46973932D01*
X90297411Y-46861990D01*
X90540632Y-46699475D01*
X90747475Y-46492632D01*
X90909990Y-46249411D01*
X91021932Y-45979158D01*
X91079000Y-45692260D01*
X91079000Y-45546000D01*
X95031815Y-45546000D01*
X95060487Y-45837111D01*
X95145401Y-46117034D01*
X95283294Y-46375014D01*
X95468866Y-46601134D01*
X95694986Y-46786706D01*
X95712374Y-46796000D01*
X95694986Y-46805294D01*
X95468866Y-46990866D01*
X95283294Y-47216986D01*
X95145401Y-47474966D01*
X95060487Y-47754889D01*
X95031815Y-48046000D01*
X95060487Y-48337111D01*
X95145401Y-48617034D01*
X95283294Y-48875014D01*
X95464608Y-49095945D01*
X95429820Y-49106498D01*
X95319506Y-49165463D01*
X95222815Y-49244815D01*
X95143463Y-49341506D01*
X95084498Y-49451820D01*
X95048188Y-49571518D01*
X95035928Y-49696000D01*
X95039000Y-50260250D01*
X95197750Y-50419000D01*
X96647000Y-50419000D01*
X96647000Y-50399000D01*
X96901000Y-50399000D01*
X96901000Y-50419000D01*
X98350250Y-50419000D01*
X98509000Y-50260250D01*
X98510962Y-49899928D01*
X98569744Y-49939205D01*
X98758102Y-50017226D01*
X98958061Y-50057000D01*
X99161939Y-50057000D01*
X99361898Y-50017226D01*
X99550256Y-49939205D01*
X99719774Y-49825937D01*
X99863937Y-49681774D01*
X99977205Y-49512256D01*
X100055226Y-49323898D01*
X100057000Y-49314979D01*
X100057000Y-49377939D01*
X100096774Y-49577898D01*
X100174795Y-49766256D01*
X100288063Y-49935774D01*
X100432226Y-50079937D01*
X100601744Y-50193205D01*
X100790102Y-50271226D01*
X100990061Y-50311000D01*
X101193939Y-50311000D01*
X101393898Y-50271226D01*
X101582256Y-50193205D01*
X101751774Y-50079937D01*
X101895937Y-49935774D01*
X102009205Y-49766256D01*
X102087226Y-49577898D01*
X102127000Y-49377939D01*
X102127000Y-49174061D01*
X102087226Y-48974102D01*
X102033271Y-48843845D01*
X102165989Y-48711127D01*
X102165990Y-54400841D01*
X102035734Y-54454795D01*
X101866216Y-54568063D01*
X101722053Y-54712226D01*
X101608785Y-54881744D01*
X101530764Y-55070102D01*
X101490990Y-55270061D01*
X101490990Y-55473939D01*
X101530764Y-55673898D01*
X101608785Y-55862256D01*
X101722053Y-56031774D01*
X101866216Y-56175937D01*
X102035734Y-56289205D01*
X102224092Y-56367226D01*
X102424051Y-56407000D01*
X102627929Y-56407000D01*
X102827888Y-56367226D01*
X102893375Y-56340100D01*
X102893375Y-57518821D01*
X101252997Y-59159200D01*
X101223999Y-59182998D01*
X101200201Y-59211996D01*
X101200200Y-59211997D01*
X101129025Y-59298723D01*
X101110766Y-59332883D01*
X101071226Y-59134102D01*
X100993205Y-58945744D01*
X100879937Y-58776226D01*
X100735774Y-58632063D01*
X100566256Y-58518795D01*
X100377898Y-58440774D01*
X100177939Y-58401000D01*
X99974061Y-58401000D01*
X99774102Y-58440774D01*
X99585744Y-58518795D01*
X99416226Y-58632063D01*
X99272063Y-58776226D01*
X99158795Y-58945744D01*
X99080774Y-59134102D01*
X99041000Y-59334061D01*
X99041000Y-59537939D01*
X99080774Y-59737898D01*
X99158795Y-59926256D01*
X99272063Y-60095774D01*
X99416226Y-60239937D01*
X99585744Y-60353205D01*
X99774102Y-60431226D01*
X99974061Y-60471000D01*
X100177939Y-60471000D01*
X100377898Y-60431226D01*
X100566256Y-60353205D01*
X100735774Y-60239937D01*
X100879937Y-60095774D01*
X100993205Y-59926256D01*
X101004000Y-59900195D01*
X101003999Y-65601672D01*
X101000323Y-65638995D01*
X101003999Y-65676317D01*
X101003999Y-65676327D01*
X101014996Y-65787980D01*
X101049540Y-65901857D01*
X101058453Y-65931241D01*
X101117655Y-66042000D01*
X100390802Y-66042000D01*
X100349000Y-66000198D01*
X100349000Y-65938061D01*
X100309226Y-65738102D01*
X100231205Y-65549744D01*
X100117937Y-65380226D01*
X99973774Y-65236063D01*
X99804256Y-65122795D01*
X99615898Y-65044774D01*
X99415939Y-65005000D01*
X99212061Y-65005000D01*
X99012102Y-65044774D01*
X98823744Y-65122795D01*
X98654226Y-65236063D01*
X98510063Y-65380226D01*
X98396795Y-65549744D01*
X98318774Y-65738102D01*
X98279000Y-65938061D01*
X98279000Y-66141939D01*
X98318774Y-66341898D01*
X98396795Y-66530256D01*
X98510063Y-66699774D01*
X98654226Y-66843937D01*
X98823744Y-66957205D01*
X99012102Y-67035226D01*
X99212061Y-67075000D01*
X99274198Y-67075000D01*
X99512201Y-67313002D01*
X99535999Y-67342001D01*
X99651724Y-67436974D01*
X99783753Y-67507546D01*
X99927014Y-67551003D01*
X100038667Y-67562000D01*
X100038675Y-67562000D01*
X100076000Y-67565676D01*
X100113325Y-67562000D01*
X101150289Y-67562000D01*
X101194226Y-67605937D01*
X101363744Y-67719205D01*
X101552102Y-67797226D01*
X101752061Y-67837000D01*
X101819003Y-67837000D01*
X101819002Y-71301089D01*
X101815326Y-71338412D01*
X101819002Y-71375734D01*
X101819002Y-71375744D01*
X101829999Y-71487397D01*
X101861504Y-71591256D01*
X101873456Y-71630658D01*
X101944028Y-71762688D01*
X101980022Y-71806546D01*
X102039001Y-71878413D01*
X102068005Y-71902216D01*
X104336791Y-74171003D01*
X104360589Y-74200001D01*
X104476314Y-74294974D01*
X104608343Y-74365546D01*
X104751604Y-74409003D01*
X104863257Y-74420000D01*
X104863266Y-74420000D01*
X104900589Y-74423676D01*
X104937912Y-74420000D01*
X105264000Y-74420000D01*
X105264000Y-74523939D01*
X105303774Y-74723898D01*
X105381795Y-74912256D01*
X105495063Y-75081774D01*
X105639226Y-75225937D01*
X105808744Y-75339205D01*
X105997102Y-75417226D01*
X106197061Y-75457000D01*
X106274774Y-75457000D01*
X106406752Y-75527545D01*
X106550013Y-75571002D01*
X106661666Y-75581999D01*
X106661676Y-75581999D01*
X106698998Y-75585675D01*
X106736321Y-75581999D01*
X125292679Y-75581999D01*
X125330001Y-75585675D01*
X125367323Y-75581999D01*
X125367334Y-75581999D01*
X125478987Y-75571002D01*
X125622248Y-75527545D01*
X125754277Y-75456973D01*
X125870002Y-75362000D01*
X125893805Y-75332996D01*
X126531802Y-74695000D01*
X126593939Y-74695000D01*
X126793898Y-74655226D01*
X126982256Y-74577205D01*
X127151774Y-74463937D01*
X127295937Y-74319774D01*
X127409205Y-74150256D01*
X127487226Y-73961898D01*
X127527000Y-73761939D01*
X127527000Y-73558061D01*
X127487226Y-73358102D01*
X127409205Y-73169744D01*
X127295937Y-73000226D01*
X127151774Y-72856063D01*
X126982256Y-72742795D01*
X126793898Y-72664774D01*
X126593939Y-72625000D01*
X126390061Y-72625000D01*
X126190102Y-72664774D01*
X126001744Y-72742795D01*
X125832226Y-72856063D01*
X125688063Y-73000226D01*
X125574795Y-73169744D01*
X125496774Y-73358102D01*
X125457000Y-73558061D01*
X125457000Y-73620198D01*
X125015200Y-74061999D01*
X120587763Y-74061999D01*
X120629226Y-73961898D01*
X120669000Y-73761939D01*
X120669000Y-73558061D01*
X120629226Y-73358102D01*
X120551205Y-73169744D01*
X120437937Y-73000226D01*
X120293774Y-72856063D01*
X120124256Y-72742795D01*
X119935898Y-72664774D01*
X119735939Y-72625000D01*
X119532061Y-72625000D01*
X119332102Y-72664774D01*
X119143744Y-72742795D01*
X118974226Y-72856063D01*
X118930289Y-72900000D01*
X108611286Y-72900000D01*
X118748003Y-62763284D01*
X118777001Y-62739486D01*
X118871974Y-62623761D01*
X118942546Y-62491732D01*
X118986003Y-62348471D01*
X118997000Y-62236818D01*
X118997000Y-62236810D01*
X119000676Y-62199485D01*
X118997000Y-62162160D01*
X118997000Y-61409711D01*
X119040937Y-61365774D01*
X119154205Y-61196256D01*
X119232226Y-61007898D01*
X119272000Y-60807939D01*
X119272000Y-60604061D01*
X119232226Y-60404102D01*
X119154205Y-60215744D01*
X119040937Y-60046226D01*
X118896774Y-59902063D01*
X118727256Y-59788795D01*
X118538898Y-59710774D01*
X118338939Y-59671000D01*
X118135061Y-59671000D01*
X117935102Y-59710774D01*
X117746744Y-59788795D01*
X117577226Y-59902063D01*
X117433063Y-60046226D01*
X117319795Y-60215744D01*
X117241774Y-60404102D01*
X117202000Y-60604061D01*
X117202000Y-60807939D01*
X117241774Y-61007898D01*
X117319795Y-61196256D01*
X117433063Y-61365774D01*
X117477000Y-61409711D01*
X117477001Y-61884682D01*
X113438982Y-65922701D01*
X113415947Y-65888226D01*
X113372010Y-65844289D01*
X113372010Y-60393711D01*
X113415947Y-60349774D01*
X113529215Y-60180256D01*
X113607236Y-59991898D01*
X113647010Y-59791939D01*
X113647010Y-59588061D01*
X113607236Y-59388102D01*
X113529215Y-59199744D01*
X113415947Y-59030226D01*
X113372010Y-58986289D01*
X113372010Y-58064061D01*
X121139000Y-58064061D01*
X121139000Y-58267939D01*
X121178774Y-58467898D01*
X121256795Y-58656256D01*
X121370063Y-58825774D01*
X121414000Y-58869711D01*
X121414001Y-62542288D01*
X121370063Y-62586226D01*
X121256795Y-62755744D01*
X121178774Y-62944102D01*
X121139000Y-63144061D01*
X121139000Y-63347939D01*
X121178774Y-63547898D01*
X121256795Y-63736256D01*
X121370063Y-63905774D01*
X121514226Y-64049937D01*
X121683744Y-64163205D01*
X121872102Y-64241226D01*
X122072061Y-64281000D01*
X122275939Y-64281000D01*
X122475898Y-64241226D01*
X122664256Y-64163205D01*
X122833774Y-64049937D01*
X122977937Y-63905774D01*
X123091205Y-63736256D01*
X123169226Y-63547898D01*
X123209000Y-63347939D01*
X123209000Y-63144061D01*
X123169226Y-62944102D01*
X123091205Y-62755744D01*
X122977937Y-62586226D01*
X122934000Y-62542289D01*
X122934000Y-60135711D01*
X123038226Y-60239937D01*
X123207744Y-60353205D01*
X123396102Y-60431226D01*
X123596061Y-60471000D01*
X123799939Y-60471000D01*
X123999898Y-60431226D01*
X124188256Y-60353205D01*
X124357774Y-60239937D01*
X124501937Y-60095774D01*
X124615205Y-59926256D01*
X124693226Y-59737898D01*
X124733000Y-59537939D01*
X124733000Y-59334061D01*
X124693226Y-59134102D01*
X124615205Y-58945744D01*
X124501937Y-58776226D01*
X124458000Y-58732289D01*
X124458000Y-51714061D01*
X127997000Y-51714061D01*
X127997000Y-51917939D01*
X128036774Y-52117898D01*
X128114795Y-52306256D01*
X128228063Y-52475774D01*
X128372226Y-52619937D01*
X128541744Y-52733205D01*
X128730102Y-52811226D01*
X128930061Y-52851000D01*
X129133939Y-52851000D01*
X129333898Y-52811226D01*
X129522256Y-52733205D01*
X129691774Y-52619937D01*
X129835937Y-52475774D01*
X129949205Y-52306256D01*
X130027226Y-52117898D01*
X130038535Y-52061043D01*
X131659049Y-50440530D01*
X131692817Y-50412817D01*
X131720533Y-50379046D01*
X131803410Y-50278060D01*
X131803411Y-50278059D01*
X131828000Y-50232055D01*
X131828000Y-55891644D01*
X131673939Y-55861000D01*
X131470061Y-55861000D01*
X131270102Y-55900774D01*
X131081744Y-55978795D01*
X130912226Y-56092063D01*
X130768063Y-56236226D01*
X130654795Y-56405744D01*
X130576774Y-56594102D01*
X130537000Y-56794061D01*
X130537000Y-56997939D01*
X130576774Y-57197898D01*
X130654795Y-57386256D01*
X130768063Y-57555774D01*
X130812001Y-57599712D01*
X130812000Y-57716289D01*
X130768063Y-57760226D01*
X130654795Y-57929744D01*
X130576774Y-58118102D01*
X130537000Y-58318061D01*
X130537000Y-58521939D01*
X130576774Y-58721898D01*
X130654795Y-58910256D01*
X130768063Y-59079774D01*
X130912226Y-59223937D01*
X131081744Y-59337205D01*
X131270102Y-59415226D01*
X131470061Y-59455000D01*
X131673939Y-59455000D01*
X131873898Y-59415226D01*
X132062256Y-59337205D01*
X132231774Y-59223937D01*
X132375937Y-59079774D01*
X132489205Y-58910256D01*
X132567226Y-58721898D01*
X132607000Y-58521939D01*
X132607000Y-58439000D01*
X132689939Y-58439000D01*
X132889898Y-58399226D01*
X133078256Y-58321205D01*
X133247774Y-58207937D01*
X133391937Y-58063774D01*
X133505205Y-57894256D01*
X133583226Y-57705898D01*
X133623000Y-57505939D01*
X133623000Y-57302061D01*
X133583226Y-57102102D01*
X133505205Y-56913744D01*
X133391937Y-56744226D01*
X133348000Y-56700289D01*
X133348000Y-55270061D01*
X136379000Y-55270061D01*
X136379000Y-55473939D01*
X136418774Y-55673898D01*
X136496795Y-55862256D01*
X136610063Y-56031774D01*
X136654000Y-56075711D01*
X136654001Y-65240668D01*
X136650324Y-65278000D01*
X136654001Y-65315333D01*
X136664998Y-65426986D01*
X136676982Y-65466494D01*
X136708454Y-65570246D01*
X136779026Y-65702276D01*
X136833175Y-65768256D01*
X136874000Y-65818001D01*
X136902998Y-65841799D01*
X137141000Y-66079801D01*
X137141000Y-66141939D01*
X137180774Y-66341898D01*
X137258795Y-66530256D01*
X137372063Y-66699774D01*
X137516226Y-66843937D01*
X137685744Y-66957205D01*
X137874102Y-67035226D01*
X138074061Y-67075000D01*
X138277939Y-67075000D01*
X138477898Y-67035226D01*
X138666256Y-66957205D01*
X138835774Y-66843937D01*
X138938000Y-66741711D01*
X139040226Y-66843937D01*
X139209744Y-66957205D01*
X139398102Y-67035226D01*
X139598061Y-67075000D01*
X139801939Y-67075000D01*
X140001898Y-67035226D01*
X140190256Y-66957205D01*
X140359774Y-66843937D01*
X140403711Y-66800000D01*
X140932678Y-66800000D01*
X140970000Y-66803676D01*
X141007322Y-66800000D01*
X141007333Y-66800000D01*
X141118986Y-66789003D01*
X141262247Y-66745546D01*
X141394276Y-66674974D01*
X141510001Y-66580001D01*
X141533803Y-66550998D01*
X141771801Y-66313000D01*
X141833939Y-66313000D01*
X142033898Y-66273226D01*
X142222256Y-66195205D01*
X142391774Y-66081937D01*
X142535937Y-65937774D01*
X142649205Y-65768256D01*
X142727226Y-65579898D01*
X142767000Y-65379939D01*
X142767000Y-65176061D01*
X142727226Y-64976102D01*
X142649205Y-64787744D01*
X142535937Y-64618226D01*
X142391774Y-64474063D01*
X142222256Y-64360795D01*
X142033898Y-64282774D01*
X141833939Y-64243000D01*
X141630061Y-64243000D01*
X141430102Y-64282774D01*
X141241744Y-64360795D01*
X141072226Y-64474063D01*
X140928063Y-64618226D01*
X140814795Y-64787744D01*
X140736774Y-64976102D01*
X140697000Y-65176061D01*
X140697000Y-65238199D01*
X140655199Y-65280000D01*
X140403711Y-65280000D01*
X140359774Y-65236063D01*
X140190256Y-65122795D01*
X140001898Y-65044774D01*
X139801939Y-65005000D01*
X139598061Y-65005000D01*
X139398102Y-65044774D01*
X139209744Y-65122795D01*
X139040226Y-65236063D01*
X138938000Y-65338289D01*
X138835774Y-65236063D01*
X138666256Y-65122795D01*
X138477898Y-65044774D01*
X138277939Y-65005000D01*
X138215801Y-65005000D01*
X138174000Y-64963199D01*
X138174000Y-56286061D01*
X141713000Y-56286061D01*
X141713000Y-56489939D01*
X141752774Y-56689898D01*
X141830795Y-56878256D01*
X141863000Y-56926455D01*
X141863001Y-57881545D01*
X141830795Y-57929744D01*
X141752774Y-58118102D01*
X141713000Y-58318061D01*
X141713000Y-58521939D01*
X141752774Y-58721898D01*
X141830795Y-58910256D01*
X141944063Y-59079774D01*
X142088226Y-59223937D01*
X142257744Y-59337205D01*
X142446102Y-59415226D01*
X142646061Y-59455000D01*
X142849939Y-59455000D01*
X143049898Y-59415226D01*
X143238256Y-59337205D01*
X143407774Y-59223937D01*
X143551937Y-59079774D01*
X143665205Y-58910256D01*
X143743226Y-58721898D01*
X143783000Y-58521939D01*
X143783000Y-58318061D01*
X143743226Y-58118102D01*
X143665205Y-57929744D01*
X143633000Y-57881546D01*
X143633000Y-56926454D01*
X143665205Y-56878256D01*
X143743226Y-56689898D01*
X143783000Y-56489939D01*
X143783000Y-56286061D01*
X143743226Y-56086102D01*
X143665205Y-55897744D01*
X143551937Y-55728226D01*
X143407774Y-55584063D01*
X143238256Y-55470795D01*
X143049898Y-55392774D01*
X142849939Y-55353000D01*
X142646061Y-55353000D01*
X142446102Y-55392774D01*
X142257744Y-55470795D01*
X142088226Y-55584063D01*
X141944063Y-55728226D01*
X141830795Y-55897744D01*
X141752774Y-56086102D01*
X141713000Y-56286061D01*
X138174000Y-56286061D01*
X138174000Y-56075711D01*
X138217937Y-56031774D01*
X138331205Y-55862256D01*
X138409226Y-55673898D01*
X138449000Y-55473939D01*
X138449000Y-55270061D01*
X138409226Y-55070102D01*
X138331205Y-54881744D01*
X138217937Y-54712226D01*
X138073774Y-54568063D01*
X137904256Y-54454795D01*
X137715898Y-54376774D01*
X137515939Y-54337000D01*
X137312061Y-54337000D01*
X137112102Y-54376774D01*
X136923744Y-54454795D01*
X136754226Y-54568063D01*
X136610063Y-54712226D01*
X136496795Y-54881744D01*
X136418774Y-55070102D01*
X136379000Y-55270061D01*
X133348000Y-55270061D01*
X133348000Y-44895711D01*
X133452226Y-44999937D01*
X133621744Y-45113205D01*
X133810102Y-45191226D01*
X134010061Y-45231000D01*
X134087774Y-45231000D01*
X134219752Y-45301545D01*
X134363013Y-45345002D01*
X134474666Y-45355999D01*
X134474676Y-45355999D01*
X134511998Y-45359675D01*
X134549321Y-45355999D01*
X135213198Y-45355999D01*
X136908000Y-47050803D01*
X136908001Y-48730668D01*
X136904324Y-48768000D01*
X136908001Y-48805333D01*
X136918998Y-48916986D01*
X136932180Y-48960442D01*
X136962454Y-49060246D01*
X137033026Y-49192276D01*
X137104201Y-49279002D01*
X137128000Y-49308001D01*
X137156998Y-49331799D01*
X137358196Y-49532997D01*
X137381999Y-49562001D01*
X137497724Y-49656974D01*
X137629753Y-49727546D01*
X137773014Y-49771003D01*
X137884667Y-49782000D01*
X137884676Y-49782000D01*
X137921999Y-49785676D01*
X137959322Y-49782000D01*
X138450421Y-49782000D01*
X137422957Y-50809465D01*
X137366102Y-50820774D01*
X137177744Y-50898795D01*
X137008226Y-51012063D01*
X136864063Y-51156226D01*
X136750795Y-51325744D01*
X136672774Y-51514102D01*
X136633000Y-51714061D01*
X136633000Y-51917939D01*
X136672774Y-52117898D01*
X136750795Y-52306256D01*
X136864063Y-52475774D01*
X137008226Y-52619937D01*
X137177744Y-52733205D01*
X137366102Y-52811226D01*
X137566061Y-52851000D01*
X137769939Y-52851000D01*
X137969898Y-52811226D01*
X138158256Y-52733205D01*
X138327774Y-52619937D01*
X138471937Y-52475774D01*
X138585205Y-52306256D01*
X138663226Y-52117898D01*
X138674535Y-52061043D01*
X139558579Y-51177000D01*
X147784531Y-51177000D01*
X147828000Y-51181281D01*
X147871469Y-51177000D01*
X147871477Y-51177000D01*
X148001490Y-51164195D01*
X148168313Y-51113589D01*
X148322059Y-51031411D01*
X148456817Y-50920817D01*
X148484534Y-50887044D01*
X149597044Y-49774535D01*
X149653898Y-49763226D01*
X149842256Y-49685205D01*
X150011774Y-49571937D01*
X150155937Y-49427774D01*
X150269205Y-49258256D01*
X150347226Y-49069898D01*
X150387000Y-48869939D01*
X150387000Y-48666061D01*
X150347226Y-48466102D01*
X150269205Y-48277744D01*
X150155937Y-48108226D01*
X150011774Y-47964063D01*
X149842256Y-47850795D01*
X149653898Y-47772774D01*
X149453939Y-47733000D01*
X149250061Y-47733000D01*
X149050102Y-47772774D01*
X148861744Y-47850795D01*
X148692226Y-47964063D01*
X148548063Y-48108226D01*
X148434795Y-48277744D01*
X148356774Y-48466102D01*
X148345465Y-48522956D01*
X147461422Y-49407000D01*
X143454804Y-49407000D01*
X143489226Y-49323898D01*
X143529000Y-49123939D01*
X143529000Y-48920061D01*
X143489226Y-48720102D01*
X143411205Y-48531744D01*
X143297937Y-48362226D01*
X143153774Y-48218063D01*
X142984256Y-48104795D01*
X142795898Y-48026774D01*
X142595939Y-47987000D01*
X142392061Y-47987000D01*
X142231333Y-48018970D01*
X142219226Y-47958102D01*
X142141205Y-47769744D01*
X142027937Y-47600226D01*
X141883774Y-47456063D01*
X141714256Y-47342795D01*
X141525898Y-47264774D01*
X141325939Y-47225000D01*
X141122061Y-47225000D01*
X141013455Y-47246603D01*
X141007333Y-47246000D01*
X141007322Y-47246000D01*
X140970000Y-47242324D01*
X140932678Y-47246000D01*
X139514711Y-47246000D01*
X139470774Y-47202063D01*
X139301256Y-47088795D01*
X139112898Y-47010774D01*
X138912939Y-46971000D01*
X138709061Y-46971000D01*
X138509102Y-47010774D01*
X138428000Y-47044368D01*
X138428000Y-46773322D01*
X138431676Y-46735999D01*
X138428000Y-46698676D01*
X138428000Y-46698667D01*
X138417003Y-46587014D01*
X138373546Y-46443753D01*
X138302974Y-46311724D01*
X138287992Y-46293468D01*
X138231799Y-46224996D01*
X138231795Y-46224992D01*
X138208001Y-46195999D01*
X138179009Y-46172206D01*
X136091803Y-44085001D01*
X136068000Y-44055998D01*
X135952275Y-43961025D01*
X135820246Y-43890453D01*
X135676985Y-43846996D01*
X135565332Y-43835999D01*
X135565321Y-43835999D01*
X135527999Y-43832323D01*
X135490677Y-43835999D01*
X135083159Y-43835999D01*
X135029205Y-43705744D01*
X134915937Y-43536226D01*
X134771774Y-43392063D01*
X134602256Y-43278795D01*
X134413898Y-43200774D01*
X134213939Y-43161000D01*
X134010061Y-43161000D01*
X133810102Y-43200774D01*
X133621744Y-43278795D01*
X133452226Y-43392063D01*
X133348000Y-43496289D01*
X133348000Y-42801061D01*
X139404000Y-42801061D01*
X139404000Y-43004939D01*
X139443774Y-43204898D01*
X139521795Y-43393256D01*
X139635063Y-43562774D01*
X139779226Y-43706937D01*
X139948744Y-43820205D01*
X140137102Y-43898226D01*
X140337061Y-43938000D01*
X140540939Y-43938000D01*
X140740898Y-43898226D01*
X140929256Y-43820205D01*
X140977454Y-43788000D01*
X145521531Y-43788000D01*
X145565000Y-43792281D01*
X145608469Y-43788000D01*
X145608477Y-43788000D01*
X145738490Y-43775195D01*
X145905313Y-43724589D01*
X146059059Y-43642411D01*
X146193817Y-43531817D01*
X146221534Y-43498044D01*
X146803044Y-42916535D01*
X146859898Y-42905226D01*
X147048256Y-42827205D01*
X147217774Y-42713937D01*
X147361937Y-42569774D01*
X147475205Y-42400256D01*
X147553226Y-42211898D01*
X147593000Y-42011939D01*
X147593000Y-41808061D01*
X147553226Y-41608102D01*
X147475205Y-41419744D01*
X147361937Y-41250226D01*
X147318000Y-41206289D01*
X147318000Y-39153322D01*
X147321676Y-39115999D01*
X147318000Y-39078676D01*
X147318000Y-39078667D01*
X147307003Y-38967014D01*
X147263546Y-38823753D01*
X147192974Y-38691724D01*
X147179811Y-38675685D01*
X147121799Y-38604996D01*
X147121795Y-38604992D01*
X147098001Y-38575999D01*
X147069009Y-38552206D01*
X143021000Y-34504199D01*
X143021000Y-34442061D01*
X142981226Y-34242102D01*
X142903205Y-34053744D01*
X142789937Y-33884226D01*
X142645774Y-33740063D01*
X142476256Y-33626795D01*
X142287898Y-33548774D01*
X142087939Y-33509000D01*
X141884061Y-33509000D01*
X141684102Y-33548774D01*
X141495744Y-33626795D01*
X141326226Y-33740063D01*
X141182063Y-33884226D01*
X141068795Y-34053744D01*
X140990774Y-34242102D01*
X140951000Y-34442061D01*
X140951000Y-34645939D01*
X140990774Y-34845898D01*
X141068795Y-35034256D01*
X141182063Y-35203774D01*
X141326226Y-35347937D01*
X141495744Y-35461205D01*
X141684102Y-35539226D01*
X141884061Y-35579000D01*
X141946199Y-35579000D01*
X145798000Y-39430803D01*
X145798001Y-41206288D01*
X145754063Y-41250226D01*
X145640795Y-41419744D01*
X145562774Y-41608102D01*
X145551465Y-41664956D01*
X145198422Y-42018000D01*
X140977454Y-42018000D01*
X140929256Y-41985795D01*
X140740898Y-41907774D01*
X140540939Y-41868000D01*
X140337061Y-41868000D01*
X140137102Y-41907774D01*
X139948744Y-41985795D01*
X139779226Y-42099063D01*
X139635063Y-42243226D01*
X139521795Y-42412744D01*
X139443774Y-42601102D01*
X139404000Y-42801061D01*
X133348000Y-42801061D01*
X133348000Y-41851711D01*
X133391937Y-41807774D01*
X133505205Y-41638256D01*
X133583226Y-41449898D01*
X133623000Y-41249939D01*
X133623000Y-41046061D01*
X133583226Y-40846102D01*
X133505205Y-40657744D01*
X133391937Y-40488226D01*
X133247774Y-40344063D01*
X133078256Y-40230795D01*
X132889898Y-40152774D01*
X132689939Y-40113000D01*
X132486061Y-40113000D01*
X132286102Y-40152774D01*
X132097744Y-40230795D01*
X131928226Y-40344063D01*
X131784063Y-40488226D01*
X131670795Y-40657744D01*
X131592774Y-40846102D01*
X131553000Y-41046061D01*
X131553000Y-41249939D01*
X131592774Y-41449898D01*
X131670795Y-41638256D01*
X131784063Y-41807774D01*
X131828001Y-41851712D01*
X131828001Y-48576290D01*
X131723774Y-48472063D01*
X131554256Y-48358795D01*
X131365898Y-48280774D01*
X131165939Y-48241000D01*
X130962061Y-48241000D01*
X130762102Y-48280774D01*
X130573744Y-48358795D01*
X130404226Y-48472063D01*
X130260063Y-48616226D01*
X130146795Y-48785744D01*
X130068774Y-48974102D01*
X130029000Y-49174061D01*
X130029000Y-49377939D01*
X130060437Y-49535984D01*
X128786957Y-50809465D01*
X128730102Y-50820774D01*
X128541744Y-50898795D01*
X128372226Y-51012063D01*
X128228063Y-51156226D01*
X128114795Y-51325744D01*
X128036774Y-51514102D01*
X127997000Y-51714061D01*
X124458000Y-51714061D01*
X124458000Y-51622801D01*
X129656635Y-46424167D01*
X129746102Y-46461226D01*
X129946061Y-46501000D01*
X130149939Y-46501000D01*
X130349898Y-46461226D01*
X130538256Y-46383205D01*
X130707774Y-46269937D01*
X130851937Y-46125774D01*
X130965205Y-45956256D01*
X131043226Y-45767898D01*
X131083000Y-45567939D01*
X131083000Y-45364061D01*
X131043226Y-45164102D01*
X130965205Y-44975744D01*
X130851937Y-44806226D01*
X130707774Y-44662063D01*
X130538256Y-44548795D01*
X130349898Y-44470774D01*
X130149939Y-44431000D01*
X129946061Y-44431000D01*
X129746102Y-44470774D01*
X129557744Y-44548795D01*
X129388226Y-44662063D01*
X129308158Y-44742131D01*
X129247753Y-44760454D01*
X129115724Y-44831026D01*
X128999999Y-44925999D01*
X128976201Y-44954997D01*
X123186998Y-50744201D01*
X123158000Y-50767999D01*
X123134202Y-50796997D01*
X123134201Y-50796998D01*
X123063026Y-50883724D01*
X122992454Y-51015754D01*
X122980853Y-51053999D01*
X122948998Y-51159014D01*
X122938001Y-51270667D01*
X122934324Y-51308000D01*
X122938001Y-51345332D01*
X122938000Y-57466289D01*
X122833774Y-57362063D01*
X122664256Y-57248795D01*
X122475898Y-57170774D01*
X122275939Y-57131000D01*
X122072061Y-57131000D01*
X121872102Y-57170774D01*
X121683744Y-57248795D01*
X121514226Y-57362063D01*
X121370063Y-57506226D01*
X121256795Y-57675744D01*
X121178774Y-57864102D01*
X121139000Y-58064061D01*
X113372010Y-58064061D01*
X113372010Y-57019509D01*
X113458898Y-57002226D01*
X113647256Y-56924205D01*
X113816774Y-56810937D01*
X113960937Y-56666774D01*
X114074205Y-56497256D01*
X114152226Y-56308898D01*
X114192000Y-56108939D01*
X114192000Y-55905061D01*
X114152226Y-55705102D01*
X114074205Y-55516744D01*
X113960937Y-55347226D01*
X113905987Y-55292276D01*
X113862546Y-55149068D01*
X113791974Y-55017039D01*
X113790000Y-55014634D01*
X113790000Y-52773711D01*
X113833937Y-52729774D01*
X113947205Y-52560256D01*
X114025226Y-52371898D01*
X114065000Y-52171939D01*
X114065000Y-51968061D01*
X114025226Y-51768102D01*
X113947205Y-51579744D01*
X113833937Y-51410226D01*
X113689774Y-51266063D01*
X113520256Y-51152795D01*
X113331898Y-51074774D01*
X113131939Y-51035000D01*
X113064998Y-51035000D01*
X113064998Y-49003792D01*
X113077898Y-49001226D01*
X113266256Y-48923205D01*
X113435774Y-48809937D01*
X113479711Y-48766000D01*
X115001199Y-48766000D01*
X115043000Y-48807801D01*
X115043000Y-48869939D01*
X115082774Y-49069898D01*
X115160795Y-49258256D01*
X115274063Y-49427774D01*
X115418226Y-49571937D01*
X115587744Y-49685205D01*
X115776102Y-49763226D01*
X115976061Y-49803000D01*
X116179939Y-49803000D01*
X116379898Y-49763226D01*
X116568256Y-49685205D01*
X116737774Y-49571937D01*
X116881937Y-49427774D01*
X116995205Y-49258256D01*
X117073226Y-49069898D01*
X117113000Y-48869939D01*
X117113000Y-48666061D01*
X117073226Y-48466102D01*
X116995205Y-48277744D01*
X116881937Y-48108226D01*
X116737774Y-47964063D01*
X116568256Y-47850795D01*
X116379898Y-47772774D01*
X116179939Y-47733000D01*
X116117801Y-47733000D01*
X115879803Y-47495002D01*
X115856001Y-47465999D01*
X115740276Y-47371026D01*
X115608247Y-47300454D01*
X115464986Y-47256997D01*
X115353333Y-47246000D01*
X115353322Y-47246000D01*
X115316000Y-47242324D01*
X115278678Y-47246000D01*
X114610803Y-47246000D01*
X114811008Y-47045795D01*
X114840001Y-47022001D01*
X114863795Y-46993008D01*
X114863799Y-46993004D01*
X114934973Y-46906277D01*
X114934974Y-46906276D01*
X115005546Y-46774247D01*
X115049003Y-46630986D01*
X115060000Y-46519333D01*
X115060000Y-46519324D01*
X115063676Y-46482001D01*
X115060000Y-46444678D01*
X115060000Y-40763000D01*
X117558523Y-40763000D01*
X117602000Y-40767282D01*
X117645476Y-40763000D01*
X119095546Y-40763000D01*
X119143744Y-40795205D01*
X119332102Y-40873226D01*
X119532061Y-40913000D01*
X119636000Y-40913000D01*
X119636000Y-40952289D01*
X119592063Y-40996226D01*
X119478795Y-41165744D01*
X119400774Y-41354102D01*
X119361000Y-41554061D01*
X119361000Y-41757939D01*
X119400774Y-41957898D01*
X119478795Y-42146256D01*
X119592063Y-42315774D01*
X119736226Y-42459937D01*
X119905744Y-42573205D01*
X120094102Y-42651226D01*
X120294061Y-42691000D01*
X120497939Y-42691000D01*
X120697898Y-42651226D01*
X120886256Y-42573205D01*
X121055774Y-42459937D01*
X121160000Y-42355711D01*
X121160000Y-46032289D01*
X121116063Y-46076226D01*
X121002795Y-46245744D01*
X120924774Y-46434102D01*
X120885000Y-46634061D01*
X120885000Y-46837939D01*
X120924774Y-47037898D01*
X121002795Y-47226256D01*
X121116063Y-47395774D01*
X121260226Y-47539937D01*
X121429744Y-47653205D01*
X121618102Y-47731226D01*
X121818061Y-47771000D01*
X122021939Y-47771000D01*
X122221898Y-47731226D01*
X122410256Y-47653205D01*
X122579774Y-47539937D01*
X122723937Y-47395774D01*
X122837205Y-47226256D01*
X122915226Y-47037898D01*
X122955000Y-46837939D01*
X122955000Y-46634061D01*
X122915226Y-46434102D01*
X122837205Y-46245744D01*
X122723937Y-46076226D01*
X122680000Y-46032289D01*
X122680000Y-38119000D01*
X122746949Y-38119000D01*
X122946908Y-38079226D01*
X123135266Y-38001205D01*
X123304784Y-37887937D01*
X123348721Y-37844000D01*
X123367235Y-37844000D01*
X123435248Y-37912013D01*
X123604766Y-38025281D01*
X123793124Y-38103302D01*
X123993083Y-38143076D01*
X124196961Y-38143076D01*
X124396920Y-38103302D01*
X124585278Y-38025281D01*
X124754796Y-37912013D01*
X124898959Y-37767850D01*
X125012227Y-37598332D01*
X125090248Y-37409974D01*
X125130022Y-37210015D01*
X125130022Y-37006137D01*
X125090248Y-36806178D01*
X125012227Y-36617820D01*
X124898959Y-36448302D01*
X124770657Y-36320000D01*
X127617315Y-36320000D01*
X127720063Y-36473774D01*
X127864226Y-36617937D01*
X128033744Y-36731205D01*
X128222102Y-36809226D01*
X128422061Y-36849000D01*
X128625939Y-36849000D01*
X128825898Y-36809226D01*
X129014256Y-36731205D01*
X129183774Y-36617937D01*
X129227711Y-36574000D01*
X130518678Y-36574000D01*
X130556000Y-36577676D01*
X130593322Y-36574000D01*
X130593333Y-36574000D01*
X130704986Y-36563003D01*
X130848247Y-36519546D01*
X130980276Y-36448974D01*
X131096001Y-36354001D01*
X131119804Y-36324998D01*
X131611802Y-35833000D01*
X131673939Y-35833000D01*
X131873898Y-35793226D01*
X132062256Y-35715205D01*
X132231774Y-35601937D01*
X132375937Y-35457774D01*
X132489205Y-35288256D01*
X132567226Y-35099898D01*
X132607000Y-34899939D01*
X132607000Y-34696061D01*
X132567226Y-34496102D01*
X132489205Y-34307744D01*
X132375937Y-34138226D01*
X132231774Y-33994063D01*
X132062256Y-33880795D01*
X131873898Y-33802774D01*
X131673939Y-33763000D01*
X131470061Y-33763000D01*
X131270102Y-33802774D01*
X131081744Y-33880795D01*
X130912226Y-33994063D01*
X130768063Y-34138226D01*
X130654795Y-34307744D01*
X130576774Y-34496102D01*
X130537000Y-34696061D01*
X130537000Y-34758198D01*
X130241199Y-35054000D01*
X129227711Y-35054000D01*
X129183774Y-35010063D01*
X129014256Y-34896795D01*
X128825898Y-34818774D01*
X128625939Y-34779000D01*
X128422061Y-34779000D01*
X128313455Y-34800603D01*
X128307333Y-34800000D01*
X128307322Y-34800000D01*
X128270000Y-34796324D01*
X128232678Y-34800000D01*
X123385711Y-34800000D01*
X123341774Y-34756063D01*
X123172256Y-34642795D01*
X122983898Y-34564774D01*
X122783939Y-34525000D01*
X122680000Y-34525000D01*
X122680000Y-32764000D01*
X147076849Y-32764000D01*
X147086774Y-32813898D01*
X147164795Y-33002256D01*
X147278063Y-33171774D01*
X147422226Y-33315937D01*
X147591744Y-33429205D01*
X147780102Y-33507226D01*
X147980061Y-33547000D01*
X148183939Y-33547000D01*
X148383898Y-33507226D01*
X148572256Y-33429205D01*
X148741774Y-33315937D01*
X148885937Y-33171774D01*
X148999205Y-33002256D01*
X149077226Y-32813898D01*
X149117000Y-32613939D01*
X149117000Y-32410061D01*
X149077226Y-32210102D01*
X148999205Y-32021744D01*
X148885937Y-31852226D01*
X148805869Y-31772158D01*
X148787546Y-31711753D01*
X148716974Y-31579724D01*
X148622001Y-31463999D01*
X148506276Y-31369026D01*
X148374247Y-31298454D01*
X148230986Y-31254997D01*
X148119333Y-31244000D01*
X148082000Y-31240323D01*
X148044667Y-31244000D01*
X141919404Y-31244000D01*
X142033898Y-31221226D01*
X142222256Y-31143205D01*
X142391774Y-31029937D01*
X142535937Y-30885774D01*
X142649205Y-30716256D01*
X142727226Y-30527898D01*
X142767000Y-30327939D01*
X142767000Y-30124061D01*
X142727226Y-29924102D01*
X142649205Y-29735744D01*
X142535937Y-29566226D01*
X142391774Y-29422063D01*
X142222256Y-29308795D01*
X142033898Y-29230774D01*
X141833939Y-29191000D01*
X141630061Y-29191000D01*
X141430102Y-29230774D01*
X141241744Y-29308795D01*
X141072226Y-29422063D01*
X141028289Y-29466000D01*
X122465323Y-29466000D01*
X122428000Y-29462324D01*
X122390677Y-29466000D01*
X122390667Y-29466000D01*
X122279014Y-29476997D01*
X122135753Y-29520454D01*
X122003723Y-29591026D01*
X121954178Y-29631687D01*
X121887999Y-29685999D01*
X121864201Y-29714997D01*
X119884998Y-31694201D01*
X119856000Y-31717999D01*
X119832202Y-31746997D01*
X119832201Y-31746998D01*
X119761026Y-31833724D01*
X119690454Y-31965754D01*
X119660180Y-32065558D01*
X119646998Y-32109014D01*
X119637042Y-32210102D01*
X119632324Y-32258000D01*
X119636001Y-32295332D01*
X119636000Y-38843000D01*
X119532061Y-38843000D01*
X119332102Y-38882774D01*
X119143744Y-38960795D01*
X119095546Y-38993000D01*
X118487000Y-38993000D01*
X118487000Y-30269465D01*
X118491281Y-30225999D01*
X118487000Y-30182533D01*
X118487000Y-30182523D01*
X118474195Y-30052510D01*
X118423589Y-29885687D01*
X118341411Y-29731941D01*
X118233000Y-29599843D01*
X118233000Y-29494454D01*
X118265205Y-29446256D01*
X118343226Y-29257898D01*
X118383000Y-29057939D01*
X118383000Y-28854061D01*
X118343226Y-28654102D01*
X118265205Y-28465744D01*
X118151937Y-28296226D01*
X118007774Y-28152063D01*
X117838256Y-28038795D01*
X117649898Y-27960774D01*
X117449939Y-27921000D01*
X117246061Y-27921000D01*
X117046102Y-27960774D01*
X116857744Y-28038795D01*
X116688226Y-28152063D01*
X116544063Y-28296226D01*
X116430795Y-28465744D01*
X116352774Y-28654102D01*
X116313000Y-28854061D01*
X116313000Y-29057939D01*
X116352774Y-29257898D01*
X116430795Y-29446256D01*
X116463000Y-29494455D01*
X116463000Y-29928530D01*
X116458719Y-29972000D01*
X116463000Y-30015469D01*
X116463000Y-30015476D01*
X116469061Y-30077014D01*
X116475805Y-30145490D01*
X116487039Y-30182523D01*
X116526411Y-30312312D01*
X116608589Y-30466058D01*
X116717001Y-30598158D01*
X116717000Y-38993000D01*
X109504454Y-38993000D01*
X109456256Y-38960795D01*
X109267898Y-38882774D01*
X109067939Y-38843000D01*
X108864061Y-38843000D01*
X108664102Y-38882774D01*
X108475744Y-38960795D01*
X108306226Y-39074063D01*
X108162063Y-39218226D01*
X108048795Y-39387744D01*
X107970774Y-39576102D01*
X107931000Y-39776061D01*
X107931000Y-39979939D01*
X107970774Y-40179898D01*
X108048795Y-40368256D01*
X108061987Y-40388000D01*
X105701322Y-40388000D01*
X105663999Y-40384324D01*
X105626676Y-40388000D01*
X105626667Y-40388000D01*
X105515014Y-40398997D01*
X105371753Y-40442454D01*
X105239724Y-40513026D01*
X105123999Y-40607999D01*
X105100201Y-40636997D01*
X101850998Y-43886201D01*
X101822000Y-43909999D01*
X101798202Y-43938997D01*
X101798201Y-43938998D01*
X101727026Y-44025724D01*
X101656454Y-44157754D01*
X101635146Y-44228001D01*
X101612998Y-44301014D01*
X101608055Y-44351205D01*
X101598324Y-44450000D01*
X101602001Y-44487332D01*
X101602000Y-47125513D01*
X100580998Y-48146516D01*
X100552000Y-48170314D01*
X100528202Y-48199312D01*
X100528201Y-48199313D01*
X100457026Y-48286039D01*
X100426193Y-48343724D01*
X100386454Y-48418068D01*
X100343013Y-48561276D01*
X100288063Y-48616226D01*
X100174795Y-48785744D01*
X100096774Y-48974102D01*
X100095000Y-48983021D01*
X100095000Y-48920061D01*
X100055226Y-48720102D01*
X99977205Y-48531744D01*
X99945000Y-48483546D01*
X99945000Y-47875465D01*
X99949281Y-47831999D01*
X99945000Y-47788533D01*
X99945000Y-47788523D01*
X99932195Y-47658510D01*
X99881589Y-47491687D01*
X99799411Y-47337941D01*
X99739364Y-47264774D01*
X99716532Y-47236953D01*
X99716530Y-47236951D01*
X99688817Y-47203183D01*
X99655049Y-47175470D01*
X98447755Y-45968176D01*
X98487513Y-45837111D01*
X98516185Y-45546000D01*
X98487513Y-45254889D01*
X98402599Y-44974966D01*
X98264706Y-44716986D01*
X98079134Y-44490866D01*
X97853014Y-44305294D01*
X97595034Y-44167401D01*
X97315111Y-44082487D01*
X97096950Y-44061000D01*
X96451050Y-44061000D01*
X96232889Y-44082487D01*
X95952966Y-44167401D01*
X95694986Y-44305294D01*
X95468866Y-44490866D01*
X95283294Y-44716986D01*
X95145401Y-44974966D01*
X95060487Y-45254889D01*
X95031815Y-45546000D01*
X91079000Y-45546000D01*
X91079000Y-45399740D01*
X91021932Y-45112842D01*
X90909990Y-44842589D01*
X90747475Y-44599368D01*
X90540632Y-44392525D01*
X90297411Y-44230010D01*
X90027158Y-44118068D01*
X89740260Y-44061000D01*
X89447740Y-44061000D01*
X89160842Y-44118068D01*
X88890589Y-44230010D01*
X88647368Y-44392525D01*
X88440525Y-44599368D01*
X88278010Y-44842589D01*
X88166068Y-45112842D01*
X88109000Y-45399740D01*
X86737790Y-45399740D01*
X86738140Y-41529000D01*
X102162000Y-41529000D01*
X102186776Y-41526560D01*
X102210601Y-41519333D01*
X102552022Y-41377912D01*
X102573978Y-41366176D01*
X102593224Y-41350382D01*
X103580382Y-40363224D01*
X103596176Y-40343978D01*
X103607912Y-40322022D01*
X103749333Y-39980601D01*
X103756560Y-39956776D01*
X103759000Y-39932000D01*
X103759000Y-30124061D01*
X106407000Y-30124061D01*
X106407000Y-30327939D01*
X106446774Y-30527898D01*
X106524795Y-30716256D01*
X106621510Y-30861000D01*
X106524795Y-31005744D01*
X106446774Y-31194102D01*
X106407000Y-31394061D01*
X106407000Y-31597939D01*
X106446774Y-31797898D01*
X106524795Y-31986256D01*
X106621510Y-32131000D01*
X106524795Y-32275744D01*
X106446774Y-32464102D01*
X106407000Y-32664061D01*
X106407000Y-32867939D01*
X106446774Y-33067898D01*
X106524795Y-33256256D01*
X106621510Y-33401000D01*
X106524795Y-33545744D01*
X106446774Y-33734102D01*
X106407000Y-33934061D01*
X106407000Y-34137939D01*
X106446774Y-34337898D01*
X106524795Y-34526256D01*
X106638063Y-34695774D01*
X106782226Y-34839937D01*
X106951744Y-34953205D01*
X107140102Y-35031226D01*
X107340061Y-35071000D01*
X107543939Y-35071000D01*
X107743898Y-35031226D01*
X107932256Y-34953205D01*
X108101774Y-34839937D01*
X108204000Y-34737711D01*
X108306226Y-34839937D01*
X108475744Y-34953205D01*
X108664102Y-35031226D01*
X108864061Y-35071000D01*
X109067939Y-35071000D01*
X109267898Y-35031226D01*
X109456256Y-34953205D01*
X109625774Y-34839937D01*
X109769937Y-34695774D01*
X109883205Y-34526256D01*
X109961226Y-34337898D01*
X110001000Y-34137939D01*
X110001000Y-33934061D01*
X109961226Y-33734102D01*
X109883205Y-33545744D01*
X109786490Y-33401000D01*
X109883205Y-33256256D01*
X109961226Y-33067898D01*
X110001000Y-32867939D01*
X110001000Y-32664061D01*
X109961226Y-32464102D01*
X109883205Y-32275744D01*
X109786490Y-32131000D01*
X109883205Y-31986256D01*
X109961226Y-31797898D01*
X110001000Y-31597939D01*
X110001000Y-31394061D01*
X109961226Y-31194102D01*
X109883205Y-31005744D01*
X109786490Y-30861000D01*
X109883205Y-30716256D01*
X109961226Y-30527898D01*
X110001000Y-30327939D01*
X110001000Y-30124061D01*
X109961226Y-29924102D01*
X109883205Y-29735744D01*
X109769937Y-29566226D01*
X109625774Y-29422063D01*
X109456256Y-29308795D01*
X109267898Y-29230774D01*
X109067939Y-29191000D01*
X108864061Y-29191000D01*
X108664102Y-29230774D01*
X108475744Y-29308795D01*
X108306226Y-29422063D01*
X108204000Y-29524289D01*
X108101774Y-29422063D01*
X107932256Y-29308795D01*
X107743898Y-29230774D01*
X107543939Y-29191000D01*
X107340061Y-29191000D01*
X107140102Y-29230774D01*
X106951744Y-29308795D01*
X106782226Y-29422063D01*
X106638063Y-29566226D01*
X106524795Y-29735744D01*
X106446774Y-29924102D01*
X106407000Y-30124061D01*
X103759000Y-30124061D01*
X103759000Y-27735000D01*
X149047857Y-27735000D01*
X149047857Y-31494000D01*
G37*
G04 #@! TD.AperFunction*
D17*
X107163226Y-42713937D02*
X107332744Y-42827205D01*
X107457214Y-42878763D01*
X107413795Y-42943744D01*
X107335774Y-43132102D01*
X107296000Y-43332061D01*
X107296000Y-43535939D01*
X107322467Y-43669000D01*
X107213061Y-43669000D01*
X107013102Y-43708774D01*
X106824744Y-43786795D01*
X106655226Y-43900063D01*
X106511063Y-44044226D01*
X106397795Y-44213744D01*
X106319774Y-44402102D01*
X106280000Y-44602061D01*
X106280000Y-44664198D01*
X105534003Y-45410196D01*
X105504999Y-45433999D01*
X105461924Y-45486487D01*
X105410026Y-45549724D01*
X105370169Y-45624291D01*
X105339454Y-45681754D01*
X105295997Y-45825015D01*
X105285000Y-45936668D01*
X105285000Y-45936678D01*
X105281324Y-45974000D01*
X105285000Y-46011322D01*
X105285001Y-66860288D01*
X105241063Y-66904226D01*
X105127795Y-67073744D01*
X105049774Y-67262102D01*
X105010000Y-67462061D01*
X105010000Y-67546206D01*
X105003939Y-67545000D01*
X104800061Y-67545000D01*
X104600102Y-67584774D01*
X104411744Y-67662795D01*
X104242226Y-67776063D01*
X104098063Y-67920226D01*
X104039319Y-68008143D01*
X104039319Y-66166317D01*
X104042995Y-66128994D01*
X104039319Y-66091672D01*
X104039319Y-66091662D01*
X104028322Y-65980009D01*
X103984865Y-65836748D01*
X103914320Y-65704770D01*
X103914320Y-65627057D01*
X103874546Y-65427098D01*
X103796525Y-65238740D01*
X103683257Y-65069222D01*
X103539094Y-64925059D01*
X103369576Y-64811791D01*
X103181218Y-64733770D01*
X102981259Y-64693996D01*
X102777381Y-64693996D01*
X102577422Y-64733770D01*
X102523999Y-64755899D01*
X102523999Y-60037800D01*
X104164379Y-58397421D01*
X104193376Y-58373624D01*
X104288349Y-58257899D01*
X104358921Y-58125870D01*
X104402378Y-57982609D01*
X104413375Y-57870956D01*
X104413375Y-57870947D01*
X104417051Y-57833624D01*
X104413375Y-57796301D01*
X104413375Y-45524065D01*
X104457312Y-45480128D01*
X104570580Y-45310610D01*
X104648601Y-45122252D01*
X104688375Y-44922293D01*
X104688375Y-44718415D01*
X104648601Y-44518456D01*
X104570580Y-44330098D01*
X104457312Y-44160580D01*
X104409972Y-44113240D01*
X105853212Y-42670000D01*
X107119289Y-42670000D01*
X107163226Y-42713937D01*
G04 #@! TA.AperFunction,Conductor*
D18*
G36*
X107163226Y-42713937D02*
G01*
X107332744Y-42827205D01*
X107457214Y-42878763D01*
X107413795Y-42943744D01*
X107335774Y-43132102D01*
X107296000Y-43332061D01*
X107296000Y-43535939D01*
X107322467Y-43669000D01*
X107213061Y-43669000D01*
X107013102Y-43708774D01*
X106824744Y-43786795D01*
X106655226Y-43900063D01*
X106511063Y-44044226D01*
X106397795Y-44213744D01*
X106319774Y-44402102D01*
X106280000Y-44602061D01*
X106280000Y-44664198D01*
X105534003Y-45410196D01*
X105504999Y-45433999D01*
X105461924Y-45486487D01*
X105410026Y-45549724D01*
X105370169Y-45624291D01*
X105339454Y-45681754D01*
X105295997Y-45825015D01*
X105285000Y-45936668D01*
X105285000Y-45936678D01*
X105281324Y-45974000D01*
X105285000Y-46011322D01*
X105285001Y-66860288D01*
X105241063Y-66904226D01*
X105127795Y-67073744D01*
X105049774Y-67262102D01*
X105010000Y-67462061D01*
X105010000Y-67546206D01*
X105003939Y-67545000D01*
X104800061Y-67545000D01*
X104600102Y-67584774D01*
X104411744Y-67662795D01*
X104242226Y-67776063D01*
X104098063Y-67920226D01*
X104039319Y-68008143D01*
X104039319Y-66166317D01*
X104042995Y-66128994D01*
X104039319Y-66091672D01*
X104039319Y-66091662D01*
X104028322Y-65980009D01*
X103984865Y-65836748D01*
X103914320Y-65704770D01*
X103914320Y-65627057D01*
X103874546Y-65427098D01*
X103796525Y-65238740D01*
X103683257Y-65069222D01*
X103539094Y-64925059D01*
X103369576Y-64811791D01*
X103181218Y-64733770D01*
X102981259Y-64693996D01*
X102777381Y-64693996D01*
X102577422Y-64733770D01*
X102523999Y-64755899D01*
X102523999Y-60037800D01*
X104164379Y-58397421D01*
X104193376Y-58373624D01*
X104288349Y-58257899D01*
X104358921Y-58125870D01*
X104402378Y-57982609D01*
X104413375Y-57870956D01*
X104413375Y-57870947D01*
X104417051Y-57833624D01*
X104413375Y-57796301D01*
X104413375Y-45524065D01*
X104457312Y-45480128D01*
X104570580Y-45310610D01*
X104648601Y-45122252D01*
X104688375Y-44922293D01*
X104688375Y-44718415D01*
X104648601Y-44518456D01*
X104570580Y-44330098D01*
X104457312Y-44160580D01*
X104409972Y-44113240D01*
X105853212Y-42670000D01*
X107119289Y-42670000D01*
X107163226Y-42713937D01*
G37*
G04 #@! TD.AperFunction*
M02*
