M48
; DRILL file {KiCad (5.1.10)-1} date 06/27/21 22:01:30
; FORMAT={-:-/ absolute / metric / decimal}
; #@! TF.CreationDate,2021-06-27T22:01:30+02:00
; #@! TF.GenerationSoftware,Kicad,Pcbnew,(5.1.10)-1
; #@! TF.FileFunction,Plated,1,2,PTH
FMAT,2
METRIC
T1C0.400
T2C0.762
T3C1.100
T4C1.200
%
G90
G05
T1
X93.726Y-55.88
X99.06Y-49.022
X99.06Y-55.88
X99.314Y-66.04
X100.076Y-59.436
X100.33Y-67.818
X100.584Y-47.244
X101.092Y-49.276
X101.6Y-51.308
X101.854Y-66.802
X102.526Y-55.372
X102.879Y-65.729
X102.997Y-60.96
X103.632Y-58.928
X103.653Y-44.82
X104.902Y-68.58
X105.41Y-36.576
X106.045Y-67.564
X106.059Y-69.85
X106.299Y-74.422
X106.934Y-60.706
X107.151Y-71.101
X107.197Y-36.585
X107.315Y-44.704
X107.442Y-30.226
X107.442Y-31.496
X107.442Y-32.766
X107.442Y-34.036
X107.823Y-41.91
X108.04Y-51.434
X108.04Y-59.489
X108.144Y-71.22
X108.195Y-36.585
X108.331Y-43.434
X108.331Y-48.514
X108.49Y-65.221
X108.94Y-62.474
X108.966Y-30.226
X108.966Y-31.496
X108.966Y-32.766
X108.966Y-34.036
X108.966Y-39.878
X109.093Y-67.691
X109.211Y-36.585
X110.227Y-36.585
X110.324Y-67.72
X111.76Y-71.628
X111.803Y-35.793
X111.887Y-58.42
X112.612Y-59.69
X112.612Y-66.548
X112.66Y-34.936
X112.776Y-43.688
X112.776Y-48.006
X113.03Y-52.07
X113.157Y-56.007
X113.454Y-34.142
X114.3Y-52.07
X114.554Y-62.738
X116.078Y-48.768
X116.586Y-57.15
X116.84Y-67.564
X117.348Y-28.956
X117.856Y-43.18
X118.237Y-60.706
X118.872Y-33.528
X119.634Y-39.878
X119.634Y-73.66
X120.396Y-41.656
X121.92Y-46.736
X122.174Y-58.166
X122.174Y-63.246
X122.645Y-37.084
X122.682Y-35.56
X122.936Y-33.02
X123.698Y-59.436
X123.952Y-69.088
X124.095Y-37.108
X125.476Y-41.656
X125.476Y-54.61
X126.492Y-73.66
X128.016Y-33.528
X128.524Y-35.814
X129.032Y-51.816
X129.032Y-59.436
X130.048Y-45.466
X130.048Y-48.26
X130.81Y-59.944
X131.064Y-49.276
X131.171Y-67.671
X131.572Y-34.798
X131.572Y-56.896
X131.572Y-58.42
X132.588Y-41.148
X132.588Y-57.404
X134.112Y-44.196
X137.16Y-41.656
X137.414Y-55.372
X137.668Y-51.816
X137.842Y-67.957
X138.139Y-59.932
X138.176Y-66.04
X138.396Y-33.308
X138.811Y-48.006
X139.7Y-66.04
X140.439Y-42.903
X141.224Y-48.26
X141.732Y-30.226
X141.732Y-65.278
X141.986Y-34.544
X142.494Y-49.022
X142.748Y-40.132
X142.748Y-56.388
X142.748Y-58.42
X146.558Y-41.91
X148.082Y-32.512
X149.352Y-48.768
X149.352Y-50.292
X149.86Y-65.024
X150.368Y-34.544
X155.702Y-51.181
X156.591Y-54.483
X156.591Y-69.977
T2
X154.496Y-75.184
X158.496Y-75.184
T3
X133.096Y-75.184
X138.096Y-75.184
T4
X96.774Y-36.616
X96.774Y-39.116
X96.774Y-45.546
X96.774Y-48.046
X96.774Y-50.546
X96.774Y-59.262
X96.774Y-61.762
X96.774Y-64.262
X155.194Y-44.45
X155.194Y-46.95
X155.194Y-59.741
X155.194Y-62.241
T0
M30
