<?xml version="1.0" standalone="no"?>
 <!DOCTYPE svg PUBLIC "-//W3C//DTD SVG 1.1//EN" 
 "http://www.w3.org/Graphics/SVG/1.1/DTD/svg11.dtd"> 
<svg
  xmlns:svg="http://www.w3.org/2000/svg"
  xmlns="http://www.w3.org/2000/svg"
  xmlns:xlink="http://www.w3.org/1999/xlink"
  version="1.1"
  width="29.700220cm" height="21.000720cm" viewBox="0 0 116930 82680">
<title>SVG Picture created as BSPD-CV_3_0_00a-B_Mask.svg date 2022/03/12 21:54:21 </title>
  <desc>Picture generated by PCBNEW </desc>
<g style="fill:#000000; fill-opacity:1;stroke:#000000; stroke-opacity:1;
stroke-linecap:round; stroke-linejoin:round;"
 transform="translate(0 0) scale(1 1)">
</g>
<g style="fill:#000000; fill-opacity:0.0; 
stroke:#000000; stroke-width:-0.000393701; stroke-opacity:1; 
stroke-linecap:round; stroke-linejoin:round;">
<g >
</g>
<g >
</g>
<g style="fill:#000000; fill-opacity:0.0; 
stroke:#000000; stroke-width:-0.000393701; stroke-opacity:1; 
stroke-linecap:round; stroke-linejoin:round;">
</g>
<g style="fill:#000000; fill-opacity:1.0; 
stroke:#000000; stroke-width:0; stroke-opacity:1; 
stroke-linecap:round; stroke-linejoin:round;">
<circle cx="59873.2" cy="52531.5" r="334.646" /> 
</g>
<g style="fill:#000000; fill-opacity:1.0; 
stroke:#000000; stroke-width:39.3701; stroke-opacity:1; 
stroke-linecap:round; stroke-linejoin:round;">
</g>
<g style="fill:#000000; fill-opacity:1.0; 
stroke:#000000; stroke-width:0; stroke-opacity:1; 
stroke-linecap:round; stroke-linejoin:round;">
<circle cx="59873.2" cy="54500" r="334.646" /> 
</g>
<g style="fill:#000000; fill-opacity:1.0; 
stroke:#000000; stroke-width:39.3701; stroke-opacity:1; 
stroke-linecap:round; stroke-linejoin:round;">
</g>
<g style="fill:#000000; fill-opacity:1.0; 
stroke:#000000; stroke-width:669.291; stroke-opacity:1; 
stroke-linecap:round; stroke-linejoin:round;">
</g>
<g style="fill:#000000; fill-opacity:0.0; 
stroke:#000000; stroke-width:669.291; stroke-opacity:1; 
stroke-linecap:round; stroke-linejoin:round;">
<path d="M62798 52531
L62601 52531
" />
<path d="M62798 53515
L62601 53515
" />
</g>
<g style="fill:#000000; fill-opacity:0.0; 
stroke:#000000; stroke-width:0; stroke-opacity:1; 
stroke-linecap:round; stroke-linejoin:round;">
</g>
<g style="fill:#000000; fill-opacity:1.0; 
stroke:#000000; stroke-width:0; stroke-opacity:1; 
stroke-linecap:round; stroke-linejoin:round;">
<path style="fill:#000000; fill-opacity:1.0; 
stroke:#000000; stroke-width:0; stroke-opacity:1; 
stroke-linecap:round; stroke-linejoin:round;fill-rule:evenodd;"
d="M 63044.3,54165.8
63053.8,54167.2
63063.2,54169.6
63072.3,54172.8
63081,54177
63089.3,54181.9
63097.1,54187.7
63104.2,54194.2
63110.7,54201.3
63116.5,54209.1
63121.4,54217.4
63125.6,54226.1
63128.8,54235.2
63131.2,54244.6
63132.6,54254.1
63133.1,54263.8
63133.1,54736.2
63132.6,54745.9
63131.2,54755.4
63128.8,54764.8
63125.6,54773.9
63121.4,54782.6
63116.5,54790.9
63110.7,54798.7
63104.2,54805.8
63097.1,54812.3
63089.3,54818.1
63081,54823
63072.3,54827.2
63063.2,54830.4
63053.8,54832.8
63044.3,54834.2
63034.6,54834.6
62365.4,54834.6
62355.7,54834.2
62346.2,54832.8
62336.8,54830.4
62327.7,54827.2
62319,54823
62310.7,54818.1
62302.9,54812.3
62295.8,54805.8
62289.3,54798.7
62283.5,54790.9
62278.6,54782.6
62274.4,54773.9
62271.2,54764.8
62268.8,54755.4
62267.4,54745.9
62266.9,54736.2
62266.9,54263.8
62267.4,54254.1
62268.8,54244.6
62271.2,54235.2
62274.4,54226.1
62278.6,54217.4
62283.5,54209.1
62289.3,54201.3
62295.8,54194.2
62302.9,54187.7
62310.7,54181.9
62319,54177
62327.7,54172.8
62336.8,54169.6
62346.2,54167.2
62355.7,54165.8
62365.4,54165.4
63034.6,54165.4
Z" /> 
</g>
<g >
</g>
<g style="fill:#000000; fill-opacity:1.0; 
stroke:#000000; stroke-width:0; stroke-opacity:1; 
stroke-linecap:round; stroke-linejoin:round;">
<circle cx="59873.2" cy="47831.5" r="334.646" /> 
</g>
<g style="fill:#000000; fill-opacity:1.0; 
stroke:#000000; stroke-width:39.3701; stroke-opacity:1; 
stroke-linecap:round; stroke-linejoin:round;">
</g>
<g style="fill:#000000; fill-opacity:1.0; 
stroke:#000000; stroke-width:0; stroke-opacity:1; 
stroke-linecap:round; stroke-linejoin:round;">
<circle cx="59873.2" cy="49800" r="334.646" /> 
</g>
<g style="fill:#000000; fill-opacity:1.0; 
stroke:#000000; stroke-width:39.3701; stroke-opacity:1; 
stroke-linecap:round; stroke-linejoin:round;">
</g>
<g style="fill:#000000; fill-opacity:1.0; 
stroke:#000000; stroke-width:669.291; stroke-opacity:1; 
stroke-linecap:round; stroke-linejoin:round;">
</g>
<g style="fill:#000000; fill-opacity:0.0; 
stroke:#000000; stroke-width:669.291; stroke-opacity:1; 
stroke-linecap:round; stroke-linejoin:round;">
<path d="M62798 47831
L62601 47831
" />
<path d="M62798 48815
L62601 48815
" />
</g>
<g style="fill:#000000; fill-opacity:0.0; 
stroke:#000000; stroke-width:0; stroke-opacity:1; 
stroke-linecap:round; stroke-linejoin:round;">
</g>
<g style="fill:#000000; fill-opacity:1.0; 
stroke:#000000; stroke-width:0; stroke-opacity:1; 
stroke-linecap:round; stroke-linejoin:round;">
<path style="fill:#000000; fill-opacity:1.0; 
stroke:#000000; stroke-width:0; stroke-opacity:1; 
stroke-linecap:round; stroke-linejoin:round;fill-rule:evenodd;"
d="M 63044.3,49465.8
63053.8,49467.2
63063.2,49469.6
63072.3,49472.8
63081,49477
63089.3,49481.9
63097.1,49487.7
63104.2,49494.2
63110.7,49501.3
63116.5,49509.1
63121.4,49517.4
63125.6,49526.1
63128.8,49535.2
63131.2,49544.6
63132.6,49554.1
63133.1,49563.8
63133.1,50036.2
63132.6,50045.9
63131.2,50055.4
63128.8,50064.8
63125.6,50073.9
63121.4,50082.6
63116.5,50090.9
63110.7,50098.7
63104.2,50105.8
63097.1,50112.3
63089.3,50118.1
63081,50123
63072.3,50127.2
63063.2,50130.4
63053.8,50132.8
63044.3,50134.2
63034.6,50134.6
62365.4,50134.6
62355.7,50134.2
62346.2,50132.8
62336.8,50130.4
62327.7,50127.2
62319,50123
62310.7,50118.1
62302.9,50112.3
62295.8,50105.8
62289.3,50098.7
62283.5,50090.9
62278.6,50082.6
62274.4,50073.9
62271.2,50064.8
62268.8,50055.4
62267.4,50045.9
62266.9,50036.2
62266.9,49563.8
62267.4,49554.1
62268.8,49544.6
62271.2,49535.2
62274.4,49526.1
62278.6,49517.4
62283.5,49509.1
62289.3,49501.3
62295.8,49494.2
62302.9,49487.7
62310.7,49481.9
62319,49477
62327.7,49472.8
62336.8,49469.6
62346.2,49467.2
62355.7,49465.8
62365.4,49465.4
63034.6,49465.4
Z" /> 
</g>
<g >
</g>
<g style="fill:#000000; fill-opacity:1.0; 
stroke:#000000; stroke-width:0; stroke-opacity:1; 
stroke-linecap:round; stroke-linejoin:round;">
<circle cx="90026.8" cy="42284.3" r="334.646" /> 
</g>
<g style="fill:#000000; fill-opacity:1.0; 
stroke:#000000; stroke-width:39.3701; stroke-opacity:1; 
stroke-linecap:round; stroke-linejoin:round;">
</g>
<g style="fill:#000000; fill-opacity:1.0; 
stroke:#000000; stroke-width:0; stroke-opacity:1; 
stroke-linecap:round; stroke-linejoin:round;">
<circle cx="90026.8" cy="41300" r="334.646" /> 
</g>
<g style="fill:#000000; fill-opacity:1.0; 
stroke:#000000; stroke-width:39.3701; stroke-opacity:1; 
stroke-linecap:round; stroke-linejoin:round;">
</g>
<g style="fill:#000000; fill-opacity:1.0; 
stroke:#000000; stroke-width:669.291; stroke-opacity:1; 
stroke-linecap:round; stroke-linejoin:round;">
</g>
<g style="fill:#000000; fill-opacity:0.0; 
stroke:#000000; stroke-width:669.291; stroke-opacity:1; 
stroke-linecap:round; stroke-linejoin:round;">
<path d="M87101 42284
L87298 42284
" />
</g>
<g style="fill:#000000; fill-opacity:0.0; 
stroke:#000000; stroke-width:0; stroke-opacity:1; 
stroke-linecap:round; stroke-linejoin:round;">
</g>
<g style="fill:#000000; fill-opacity:1.0; 
stroke:#000000; stroke-width:0; stroke-opacity:1; 
stroke-linecap:round; stroke-linejoin:round;">
<path style="fill:#000000; fill-opacity:1.0; 
stroke:#000000; stroke-width:0; stroke-opacity:1; 
stroke-linecap:round; stroke-linejoin:round;fill-rule:evenodd;"
d="M 87544.3,40965.8
87553.8,40967.2
87563.2,40969.6
87572.3,40972.8
87581,40977
87589.3,40981.9
87597.1,40987.7
87604.2,40994.2
87610.7,41001.3
87616.5,41009.1
87621.4,41017.4
87625.6,41026.1
87628.8,41035.2
87631.2,41044.6
87632.6,41054.1
87633.1,41063.8
87633.1,41536.2
87632.6,41545.9
87631.2,41555.4
87628.8,41564.8
87625.6,41573.9
87621.4,41582.6
87616.5,41590.9
87610.7,41598.7
87604.2,41605.8
87597.1,41612.3
87589.3,41618.1
87581,41623
87572.3,41627.2
87563.2,41630.4
87553.8,41632.8
87544.3,41634.2
87534.6,41634.6
86865.4,41634.6
86855.7,41634.2
86846.2,41632.8
86836.8,41630.4
86827.7,41627.2
86819,41623
86810.7,41618.1
86802.9,41612.3
86795.8,41605.8
86789.3,41598.7
86783.5,41590.9
86778.6,41582.6
86774.4,41573.9
86771.2,41564.8
86768.8,41555.4
86767.4,41545.9
86766.9,41536.2
86766.9,41063.8
86767.4,41054.1
86768.8,41044.6
86771.2,41035.2
86774.4,41026.1
86778.6,41017.4
86783.5,41009.1
86789.3,41001.3
86795.8,40994.2
86802.9,40987.7
86810.7,40981.9
86819,40977
86827.7,40972.8
86836.8,40969.6
86846.2,40967.2
86855.7,40965.8
86865.4,40965.4
87534.6,40965.4
Z" /> 
</g>
<g >
</g>
<g style="fill:#000000; fill-opacity:1.0; 
stroke:#000000; stroke-width:0; stroke-opacity:1; 
stroke-linecap:round; stroke-linejoin:round;">
<circle cx="59673.2" cy="43215.7" r="334.646" /> 
</g>
<g style="fill:#000000; fill-opacity:1.0; 
stroke:#000000; stroke-width:39.3701; stroke-opacity:1; 
stroke-linecap:round; stroke-linejoin:round;">
</g>
<g style="fill:#000000; fill-opacity:1.0; 
stroke:#000000; stroke-width:0; stroke-opacity:1; 
stroke-linecap:round; stroke-linejoin:round;">
<circle cx="59673.2" cy="44200" r="334.646" /> 
</g>
<g style="fill:#000000; fill-opacity:1.0; 
stroke:#000000; stroke-width:39.3701; stroke-opacity:1; 
stroke-linecap:round; stroke-linejoin:round;">
</g>
<g style="fill:#000000; fill-opacity:1.0; 
stroke:#000000; stroke-width:669.291; stroke-opacity:1; 
stroke-linecap:round; stroke-linejoin:round;">
</g>
<g style="fill:#000000; fill-opacity:0.0; 
stroke:#000000; stroke-width:669.291; stroke-opacity:1; 
stroke-linecap:round; stroke-linejoin:round;">
<path d="M62598 43215
L62401 43215
" />
</g>
<g style="fill:#000000; fill-opacity:0.0; 
stroke:#000000; stroke-width:0; stroke-opacity:1; 
stroke-linecap:round; stroke-linejoin:round;">
</g>
<g style="fill:#000000; fill-opacity:1.0; 
stroke:#000000; stroke-width:0; stroke-opacity:1; 
stroke-linecap:round; stroke-linejoin:round;">
<path style="fill:#000000; fill-opacity:1.0; 
stroke:#000000; stroke-width:0; stroke-opacity:1; 
stroke-linecap:round; stroke-linejoin:round;fill-rule:evenodd;"
d="M 62844.3,43865.8
62853.8,43867.2
62863.2,43869.6
62872.3,43872.8
62881,43877
62889.3,43881.9
62897.1,43887.7
62904.2,43894.2
62910.7,43901.3
62916.5,43909.1
62921.4,43917.4
62925.6,43926.1
62928.8,43935.2
62931.2,43944.6
62932.6,43954.1
62933.1,43963.8
62933.1,44436.2
62932.6,44445.9
62931.2,44455.4
62928.8,44464.8
62925.6,44473.9
62921.4,44482.6
62916.5,44490.9
62910.7,44498.7
62904.2,44505.8
62897.1,44512.3
62889.3,44518.1
62881,44523
62872.3,44527.2
62863.2,44530.4
62853.8,44532.8
62844.3,44534.2
62834.6,44534.6
62165.4,44534.6
62155.7,44534.2
62146.2,44532.8
62136.8,44530.4
62127.7,44527.2
62119,44523
62110.7,44518.1
62102.9,44512.3
62095.8,44505.8
62089.3,44498.7
62083.5,44490.9
62078.6,44482.6
62074.4,44473.9
62071.2,44464.8
62068.8,44455.4
62067.4,44445.9
62066.9,44436.2
62066.9,43963.8
62067.4,43954.1
62068.8,43944.6
62071.2,43935.2
62074.4,43926.1
62078.6,43917.4
62083.5,43909.1
62089.3,43901.3
62095.8,43894.2
62102.9,43887.7
62110.7,43881.9
62119,43877
62127.7,43872.8
62136.8,43869.6
62146.2,43867.2
62155.7,43865.8
62165.4,43865.4
62834.6,43865.4
Z" /> 
</g>
<g >
</g>
<g style="fill:#000000; fill-opacity:1.0; 
stroke:#000000; stroke-width:0; stroke-opacity:1; 
stroke-linecap:round; stroke-linejoin:round;">
<circle cx="89370.1" cy="58267.7" r="925.197" /> 
</g>
<g style="fill:#000000; fill-opacity:1.0; 
stroke:#000000; stroke-width:39.3701; stroke-opacity:1; 
stroke-linecap:round; stroke-linejoin:round;">
</g>
<g >
</g>
<g style="fill:#000000; fill-opacity:1.0; 
stroke:#000000; stroke-width:39.3701; stroke-opacity:1; 
stroke-linecap:round; stroke-linejoin:round;">
</g>
<g style="fill:#000000; fill-opacity:1.0; 
stroke:#000000; stroke-width:0; stroke-opacity:1; 
stroke-linecap:round; stroke-linejoin:round;">
<circle cx="60236.2" cy="58267.7" r="925.197" /> 
</g>
<g style="fill:#000000; fill-opacity:1.0; 
stroke:#000000; stroke-width:39.3701; stroke-opacity:1; 
stroke-linecap:round; stroke-linejoin:round;">
</g>
<g >
</g>
<g style="fill:#000000; fill-opacity:1.0; 
stroke:#000000; stroke-width:39.3701; stroke-opacity:1; 
stroke-linecap:round; stroke-linejoin:round;">
</g>
<g style="fill:#000000; fill-opacity:1.0; 
stroke:#000000; stroke-width:0; stroke-opacity:1; 
stroke-linecap:round; stroke-linejoin:round;">
<circle cx="89370.1" cy="38582.7" r="925.197" /> 
</g>
<g style="fill:#000000; fill-opacity:1.0; 
stroke:#000000; stroke-width:39.3701; stroke-opacity:1; 
stroke-linecap:round; stroke-linejoin:round;">
</g>
<g >
</g>
<g style="fill:#000000; fill-opacity:1.0; 
stroke:#000000; stroke-width:39.3701; stroke-opacity:1; 
stroke-linecap:round; stroke-linejoin:round;">
</g>
<g style="fill:#000000; fill-opacity:1.0; 
stroke:#000000; stroke-width:0; stroke-opacity:1; 
stroke-linecap:round; stroke-linejoin:round;">
<circle cx="60236.2" cy="38582.7" r="925.197" /> 
</g>
<g style="fill:#000000; fill-opacity:1.0; 
stroke:#000000; stroke-width:39.3701; stroke-opacity:1; 
stroke-linecap:round; stroke-linejoin:round;">
</g>
<g >
</g>
<g >
</g>
<g style="fill:#000000; fill-opacity:1.0; 
stroke:#000000; stroke-width:39.3701; stroke-opacity:1; 
stroke-linecap:round; stroke-linejoin:round;">
</g>
<g style="fill:#000000; fill-opacity:1.0; 
stroke:#000000; stroke-width:0; stroke-opacity:1; 
stroke-linecap:round; stroke-linejoin:round;">
<circle cx="81448" cy="42296.1" r="393.701" /> 
</g>
<g style="fill:#000000; fill-opacity:1.0; 
stroke:#000000; stroke-width:39.3701; stroke-opacity:1; 
stroke-linecap:round; stroke-linejoin:round;">
</g>
<g style="fill:#000000; fill-opacity:1.0; 
stroke:#000000; stroke-width:0; stroke-opacity:1; 
stroke-linecap:round; stroke-linejoin:round;">
<circle cx="80070.1" cy="39303.9" r="393.701" /> 
</g>
<g style="fill:#000000; fill-opacity:1.0; 
stroke:#000000; stroke-width:39.3701; stroke-opacity:1; 
stroke-linecap:round; stroke-linejoin:round;">
</g>
<g style="fill:#000000; fill-opacity:1.0; 
stroke:#000000; stroke-width:0; stroke-opacity:1; 
stroke-linecap:round; stroke-linejoin:round;">
<circle cx="82826" cy="39303.9" r="393.701" /> 
</g>
<g style="fill:#000000; fill-opacity:1.0; 
stroke:#000000; stroke-width:39.3701; stroke-opacity:1; 
stroke-linecap:round; stroke-linejoin:round;">
</g>
<g style="fill:#000000; fill-opacity:1.0; 
stroke:#000000; stroke-width:0; stroke-opacity:1; 
stroke-linecap:round; stroke-linejoin:round;">
<circle cx="73574" cy="39303.9" r="393.701" /> 
</g>
<g style="fill:#000000; fill-opacity:1.0; 
stroke:#000000; stroke-width:39.3701; stroke-opacity:1; 
stroke-linecap:round; stroke-linejoin:round;">
</g>
<g style="fill:#000000; fill-opacity:1.0; 
stroke:#000000; stroke-width:0; stroke-opacity:1; 
stroke-linecap:round; stroke-linejoin:round;">
<circle cx="73574" cy="42296.1" r="393.701" /> 
</g>
<g style="fill:#000000; fill-opacity:1.0; 
stroke:#000000; stroke-width:39.3701; stroke-opacity:1; 
stroke-linecap:round; stroke-linejoin:round;">
</g>
<g >
</g>
<g >
</g>
<g >
</g>
<g >
</g>
<g >
</g>
<g >
</g>
<g >
</g>
<g >
</g>
<g >
</g>
<g >
</g>
<g >
</g>
<g >
</g>
<g >
</g>
<g >
</g>
<g >
</g>
<g >
</g>
<g >
</g>
<g >
</g>
<g >
</g>
<g >
</g>
<g >
</g>
<g >
</g>
<g >
</g>
<g >
</g>
<g >
</g>
<g >
</g>
<g >
</g>
<g >
</g>
<g >
</g>
<g >
</g>
<g >
</g>
<g >
</g>
<g >
</g>
<g >
</g>
<g >
</g>
<g >
</g>
<g >
</g>
<g >
</g>
<g >
</g>
<g >
</g>
<g >
</g>
<g >
</g>
<g >
</g>
<g >
</g>
<g >
</g>
<g >
</g>
<g >
</g>
<g >
</g>
<g >
</g>
<g >
</g>
<g >
</g>
<g >
</g>
<g >
</g>
<g >
</g>
<g >
</g>
<g >
</g>
<g >
</g>
<g >
</g>
<g >
</g>
<g style="fill:#000000; fill-opacity:1.0; 
stroke:#000000; stroke-width:39.3701; stroke-opacity:1; 
stroke-linecap:round; stroke-linejoin:round;">
</g>
<g style="fill:#000000; fill-opacity:1.0; 
stroke:#000000; stroke-width:0; stroke-opacity:1; 
stroke-linecap:round; stroke-linejoin:round;">
<path style="fill:#000000; fill-opacity:1.0; 
stroke:#000000; stroke-width:0; stroke-opacity:1; 
stroke-linecap:round; stroke-linejoin:round;fill-rule:evenodd;"
d="M 67304.7,51940.9
67304.7,51744.1
67305,51744.1
67305,51734.4
67306.9,51715.2
67310.6,51696.3
67316.2,51677.8
67323.6,51659.9
67332.7,51642.9
67343.5,51626.8
67355.7,51611.9
67369.4,51598.2
67384.3,51586
67400.4,51575.3
67417.4,51566.1
67435.3,51558.8
67453.7,51553.1
67472.7,51549.4
67491.9,51547.5
67501.6,51547.5
67501.6,51547.2
67698.4,51547.2
67698.4,51547.5
67708.1,51547.5
67727.3,51549.4
67746.3,51553.1
67764.7,51558.8
67782.6,51566.1
67799.6,51575.3
67815.7,51586
67830.6,51598.2
67844.3,51611.9
67856.5,51626.8
67867.3,51642.9
67876.4,51659.9
67883.8,51677.8
67889.4,51696.3
67893.1,51715.2
67895,51734.4
67895,51744.1
67895.3,51744.1
67895.3,51940.9
Z" /> 
<path style="fill:#000000; fill-opacity:1.0; 
stroke:#000000; stroke-width:0; stroke-opacity:1; 
stroke-linecap:round; stroke-linejoin:round;fill-rule:evenodd;"
d="M 67895,52255.9
67895,52265.6
67893.1,52284.8
67889.4,52303.7
67883.8,52322.2
67876.4,52340.1
67867.3,52357.1
67856.5,52373.2
67844.3,52388.1
67830.6,52401.8
67815.7,52414
67799.6,52424.7
67782.6,52433.9
67764.7,52441.2
67746.3,52446.9
67727.3,52450.6
67708.1,52452.5
67698.4,52452.5
67698.4,52452.8
67501.6,52452.8
67501.6,52452.5
67491.9,52452.5
67472.7,52450.6
67453.7,52446.9
67435.3,52441.2
67417.4,52433.9
67400.4,52424.7
67384.3,52414
67369.4,52401.8
67355.7,52388.1
67343.5,52373.2
67332.7,52357.1
67323.6,52340.1
67316.2,52322.2
67310.6,52303.7
67306.9,52284.8
67305,52265.6
67305,52255.9
67304.7,52255.9
67304.7,52059.1
67895.3,52059.1
67895.3,52255.9
Z" /> 
</g>
<g >
</g>
<g style="fill:#000000; fill-opacity:1.0; 
stroke:#000000; stroke-width:0; stroke-opacity:1; 
stroke-linecap:round; stroke-linejoin:round;">
<path style="fill:#000000; fill-opacity:1.0; 
stroke:#000000; stroke-width:0; stroke-opacity:1; 
stroke-linecap:round; stroke-linejoin:round;fill-rule:evenodd;"
d="M 67305,53744.1
67305,53734.4
67306.9,53715.2
67310.6,53696.3
67316.2,53677.8
67323.6,53659.9
67332.7,53642.9
67343.5,53626.8
67355.7,53611.9
67369.4,53598.2
67384.3,53586
67400.4,53575.3
67417.4,53566.1
67435.3,53558.8
67453.7,53553.1
67472.7,53549.4
67491.9,53547.5
67501.6,53547.5
67501.6,53547.2
67698.4,53547.2
67698.4,53547.5
67708.1,53547.5
67727.3,53549.4
67746.3,53553.1
67764.7,53558.8
67782.6,53566.1
67799.6,53575.3
67815.7,53586
67830.6,53598.2
67844.3,53611.9
67856.5,53626.8
67867.3,53642.9
67876.4,53659.9
67883.8,53677.8
67889.4,53696.3
67893.1,53715.2
67895,53734.4
67895,53744.1
67895.3,53744.1
67895.3,53940.9
67304.7,53940.9
67304.7,53744.1
Z" /> 
<path style="fill:#000000; fill-opacity:1.0; 
stroke:#000000; stroke-width:0; stroke-opacity:1; 
stroke-linecap:round; stroke-linejoin:round;fill-rule:evenodd;"
d="M 67895.3,54059.1
67895.3,54255.9
67895,54255.9
67895,54265.6
67893.1,54284.8
67889.4,54303.7
67883.8,54322.2
67876.4,54340.1
67867.3,54357.1
67856.5,54373.2
67844.3,54388.1
67830.6,54401.8
67815.7,54414
67799.6,54424.7
67782.6,54433.9
67764.7,54441.2
67746.3,54446.9
67727.3,54450.6
67708.1,54452.5
67698.4,54452.5
67698.4,54452.8
67501.6,54452.8
67501.6,54452.5
67491.9,54452.5
67472.7,54450.6
67453.7,54446.9
67435.3,54441.2
67417.4,54433.9
67400.4,54424.7
67384.3,54414
67369.4,54401.8
67355.7,54388.1
67343.5,54373.2
67332.7,54357.1
67323.6,54340.1
67316.2,54322.2
67310.6,54303.7
67306.9,54284.8
67305,54265.6
67305,54255.9
67304.7,54255.9
67304.7,54059.1
Z" /> 
</g>
<g >
</g>
<g style="fill:#000000; fill-opacity:1.0; 
stroke:#000000; stroke-width:0; stroke-opacity:1; 
stroke-linecap:round; stroke-linejoin:round;">
<path style="fill:#000000; fill-opacity:1.0; 
stroke:#000000; stroke-width:0; stroke-opacity:1; 
stroke-linecap:round; stroke-linejoin:round;fill-rule:evenodd;"
d="M 66195,52255.9
66195,52265.6
66193.1,52284.8
66189.4,52303.7
66183.8,52322.2
66176.4,52340.1
66167.3,52357.1
66156.5,52373.2
66144.3,52388.1
66130.6,52401.8
66115.7,52414
66099.6,52424.7
66082.6,52433.9
66064.7,52441.2
66046.3,52446.9
66027.3,52450.6
66008.1,52452.5
65998.4,52452.5
65998.4,52452.8
65801.6,52452.8
65801.6,52452.5
65791.9,52452.5
65772.7,52450.6
65753.7,52446.9
65735.3,52441.2
65717.4,52433.9
65700.4,52424.7
65684.3,52414
65669.4,52401.8
65655.7,52388.1
65643.5,52373.2
65632.7,52357.1
65623.6,52340.1
65616.2,52322.2
65610.6,52303.7
65606.9,52284.8
65605,52265.6
65605,52255.9
65604.7,52255.9
65604.7,52059.1
66195.3,52059.1
66195.3,52255.9
Z" /> 
<path style="fill:#000000; fill-opacity:1.0; 
stroke:#000000; stroke-width:0; stroke-opacity:1; 
stroke-linecap:round; stroke-linejoin:round;fill-rule:evenodd;"
d="M 65604.7,51940.9
65604.7,51744.1
65605,51744.1
65605,51734.4
65606.9,51715.2
65610.6,51696.3
65616.2,51677.8
65623.6,51659.9
65632.7,51642.9
65643.5,51626.8
65655.7,51611.9
65669.4,51598.2
65684.3,51586
65700.4,51575.3
65717.4,51566.1
65735.3,51558.8
65753.7,51553.1
65772.7,51549.4
65791.9,51547.5
65801.6,51547.5
65801.6,51547.2
65998.4,51547.2
65998.4,51547.5
66008.1,51547.5
66027.3,51549.4
66046.3,51553.1
66064.7,51558.8
66082.6,51566.1
66099.6,51575.3
66115.7,51586
66130.6,51598.2
66144.3,51611.9
66156.5,51626.8
66167.3,51642.9
66176.4,51659.9
66183.8,51677.8
66189.4,51696.3
66193.1,51715.2
66195,51734.4
66195,51744.1
66195.3,51744.1
66195.3,51940.9
Z" /> 
</g>
<g >
</g>
<g style="fill:#000000; fill-opacity:1.0; 
stroke:#000000; stroke-width:0; stroke-opacity:1; 
stroke-linecap:round; stroke-linejoin:round;">
<path style="fill:#000000; fill-opacity:1.0; 
stroke:#000000; stroke-width:0; stroke-opacity:1; 
stroke-linecap:round; stroke-linejoin:round;fill-rule:evenodd;"
d="M 66195.3,54059.1
66195.3,54255.9
66195,54255.9
66195,54265.6
66193.1,54284.8
66189.4,54303.7
66183.8,54322.2
66176.4,54340.1
66167.3,54357.1
66156.5,54373.2
66144.3,54388.1
66130.6,54401.8
66115.7,54414
66099.6,54424.7
66082.6,54433.9
66064.7,54441.2
66046.3,54446.9
66027.3,54450.6
66008.1,54452.5
65998.4,54452.5
65998.4,54452.8
65801.6,54452.8
65801.6,54452.5
65791.9,54452.5
65772.7,54450.6
65753.7,54446.9
65735.3,54441.2
65717.4,54433.9
65700.4,54424.7
65684.3,54414
65669.4,54401.8
65655.7,54388.1
65643.5,54373.2
65632.7,54357.1
65623.6,54340.1
65616.2,54322.2
65610.6,54303.7
65606.9,54284.8
65605,54265.6
65605,54255.9
65604.7,54255.9
65604.7,54059.1
Z" /> 
<path style="fill:#000000; fill-opacity:1.0; 
stroke:#000000; stroke-width:0; stroke-opacity:1; 
stroke-linecap:round; stroke-linejoin:round;fill-rule:evenodd;"
d="M 65605,53744.1
65605,53734.4
65606.9,53715.2
65610.6,53696.3
65616.2,53677.8
65623.6,53659.9
65632.7,53642.9
65643.5,53626.8
65655.7,53611.9
65669.4,53598.2
65684.3,53586
65700.4,53575.3
65717.4,53566.1
65735.3,53558.8
65753.7,53553.1
65772.7,53549.4
65791.9,53547.5
65801.6,53547.5
65801.6,53547.2
65998.4,53547.2
65998.4,53547.5
66008.1,53547.5
66027.3,53549.4
66046.3,53553.1
66064.7,53558.8
66082.6,53566.1
66099.6,53575.3
66115.7,53586
66130.6,53598.2
66144.3,53611.9
66156.5,53626.8
66167.3,53642.9
66176.4,53659.9
66183.8,53677.8
66189.4,53696.3
66193.1,53715.2
66195,53734.4
66195,53744.1
66195.3,53744.1
66195.3,53940.9
65604.7,53940.9
65604.7,53744.1
Z" /> 
</g>
<g >
</g>
<g style="fill:#000000; fill-opacity:1.0; 
stroke:#000000; stroke-width:0; stroke-opacity:1; 
stroke-linecap:round; stroke-linejoin:round;">
<path style="fill:#000000; fill-opacity:1.0; 
stroke:#000000; stroke-width:0; stroke-opacity:1; 
stroke-linecap:round; stroke-linejoin:round;fill-rule:evenodd;"
d="M 67304.7,46796.9
67304.7,46600
67305,46600
67305,46590.3
67306.9,46571.1
67310.6,46552.2
67316.2,46533.7
67323.6,46515.8
67332.7,46498.8
67343.5,46482.7
67355.7,46467.8
67369.4,46454.1
67384.3,46441.9
67400.4,46431.2
67417.4,46422
67435.3,46414.7
67453.7,46409
67472.7,46405.3
67491.9,46403.4
67501.6,46403.4
67501.6,46403.1
67698.4,46403.1
67698.4,46403.4
67708.1,46403.4
67727.3,46405.3
67746.3,46409
67764.7,46414.7
67782.6,46422
67799.6,46431.2
67815.7,46441.9
67830.6,46454.1
67844.3,46467.8
67856.5,46482.7
67867.3,46498.8
67876.4,46515.8
67883.8,46533.7
67889.4,46552.2
67893.1,46571.1
67895,46590.3
67895,46600
67895.3,46600
67895.3,46796.9
Z" /> 
<path style="fill:#000000; fill-opacity:1.0; 
stroke:#000000; stroke-width:0; stroke-opacity:1; 
stroke-linecap:round; stroke-linejoin:round;fill-rule:evenodd;"
d="M 67895,47111.8
67895,47121.5
67893.1,47140.7
67889.4,47159.6
67883.8,47178.1
67876.4,47196
67867.3,47213
67856.5,47229.1
67844.3,47244
67830.6,47257.7
67815.7,47269.9
67799.6,47280.7
67782.6,47289.8
67764.7,47297.2
67746.3,47302.8
67727.3,47306.5
67708.1,47308.4
67698.4,47308.4
67698.4,47308.7
67501.6,47308.7
67501.6,47308.4
67491.9,47308.4
67472.7,47306.5
67453.7,47302.8
67435.3,47297.2
67417.4,47289.8
67400.4,47280.7
67384.3,47269.9
67369.4,47257.7
67355.7,47244
67343.5,47229.1
67332.7,47213
67323.6,47196
67316.2,47178.1
67310.6,47159.6
67306.9,47140.7
67305,47121.5
67305,47111.8
67304.7,47111.8
67304.7,46915
67895.3,46915
67895.3,47111.8
Z" /> 
</g>
<g >
</g>
<g style="fill:#000000; fill-opacity:1.0; 
stroke:#000000; stroke-width:0; stroke-opacity:1; 
stroke-linecap:round; stroke-linejoin:round;">
<path style="fill:#000000; fill-opacity:1.0; 
stroke:#000000; stroke-width:0; stroke-opacity:1; 
stroke-linecap:round; stroke-linejoin:round;fill-rule:evenodd;"
d="M 67305,48544.1
67305,48534.4
67306.9,48515.2
67310.6,48496.3
67316.2,48477.8
67323.6,48459.9
67332.7,48442.9
67343.5,48426.8
67355.7,48411.9
67369.4,48398.2
67384.3,48386
67400.4,48375.3
67417.4,48366.1
67435.3,48358.8
67453.7,48353.1
67472.7,48349.4
67491.9,48347.5
67501.6,48347.5
67501.6,48347.2
67698.4,48347.2
67698.4,48347.5
67708.1,48347.5
67727.3,48349.4
67746.3,48353.1
67764.7,48358.8
67782.6,48366.1
67799.6,48375.3
67815.7,48386
67830.6,48398.2
67844.3,48411.9
67856.5,48426.8
67867.3,48442.9
67876.4,48459.9
67883.8,48477.8
67889.4,48496.3
67893.1,48515.2
67895,48534.4
67895,48544.1
67895.3,48544.1
67895.3,48740.9
67304.7,48740.9
67304.7,48544.1
Z" /> 
<path style="fill:#000000; fill-opacity:1.0; 
stroke:#000000; stroke-width:0; stroke-opacity:1; 
stroke-linecap:round; stroke-linejoin:round;fill-rule:evenodd;"
d="M 67895.3,48859.1
67895.3,49055.9
67895,49055.9
67895,49065.6
67893.1,49084.8
67889.4,49103.7
67883.8,49122.2
67876.4,49140.1
67867.3,49157.1
67856.5,49173.2
67844.3,49188.1
67830.6,49201.8
67815.7,49214
67799.6,49224.7
67782.6,49233.9
67764.7,49241.2
67746.3,49246.9
67727.3,49250.6
67708.1,49252.5
67698.4,49252.5
67698.4,49252.8
67501.6,49252.8
67501.6,49252.5
67491.9,49252.5
67472.7,49250.6
67453.7,49246.9
67435.3,49241.2
67417.4,49233.9
67400.4,49224.7
67384.3,49214
67369.4,49201.8
67355.7,49188.1
67343.5,49173.2
67332.7,49157.1
67323.6,49140.1
67316.2,49122.2
67310.6,49103.7
67306.9,49084.8
67305,49065.6
67305,49055.9
67304.7,49055.9
67304.7,48859.1
Z" /> 
</g>
<g >
</g>
<g style="fill:#000000; fill-opacity:1.0; 
stroke:#000000; stroke-width:0; stroke-opacity:1; 
stroke-linecap:round; stroke-linejoin:round;">
<path style="fill:#000000; fill-opacity:1.0; 
stroke:#000000; stroke-width:0; stroke-opacity:1; 
stroke-linecap:round; stroke-linejoin:round;fill-rule:evenodd;"
d="M 66195,47111.8
66195,47121.5
66193.1,47140.7
66189.4,47159.6
66183.8,47178.1
66176.4,47196
66167.3,47213
66156.5,47229.1
66144.3,47244
66130.6,47257.7
66115.7,47269.9
66099.6,47280.7
66082.6,47289.8
66064.7,47297.2
66046.3,47302.8
66027.3,47306.5
66008.1,47308.4
65998.4,47308.4
65998.4,47308.7
65801.6,47308.7
65801.6,47308.4
65791.9,47308.4
65772.7,47306.5
65753.7,47302.8
65735.3,47297.2
65717.4,47289.8
65700.4,47280.7
65684.3,47269.9
65669.4,47257.7
65655.7,47244
65643.5,47229.1
65632.7,47213
65623.6,47196
65616.2,47178.1
65610.6,47159.6
65606.9,47140.7
65605,47121.5
65605,47111.8
65604.7,47111.8
65604.7,46915
66195.3,46915
66195.3,47111.8
Z" /> 
<path style="fill:#000000; fill-opacity:1.0; 
stroke:#000000; stroke-width:0; stroke-opacity:1; 
stroke-linecap:round; stroke-linejoin:round;fill-rule:evenodd;"
d="M 65604.7,46796.9
65604.7,46600
65605,46600
65605,46590.3
65606.9,46571.1
65610.6,46552.2
65616.2,46533.7
65623.6,46515.8
65632.7,46498.8
65643.5,46482.7
65655.7,46467.8
65669.4,46454.1
65684.3,46441.9
65700.4,46431.2
65717.4,46422
65735.3,46414.7
65753.7,46409
65772.7,46405.3
65791.9,46403.4
65801.6,46403.4
65801.6,46403.1
65998.4,46403.1
65998.4,46403.4
66008.1,46403.4
66027.3,46405.3
66046.3,46409
66064.7,46414.7
66082.6,46422
66099.6,46431.2
66115.7,46441.9
66130.6,46454.1
66144.3,46467.8
66156.5,46482.7
66167.3,46498.8
66176.4,46515.8
66183.8,46533.7
66189.4,46552.2
66193.1,46571.1
66195,46590.3
66195,46600
66195.3,46600
66195.3,46796.9
Z" /> 
</g>
<g >
</g>
<g style="fill:#000000; fill-opacity:1.0; 
stroke:#000000; stroke-width:0; stroke-opacity:1; 
stroke-linecap:round; stroke-linejoin:round;">
<path style="fill:#000000; fill-opacity:1.0; 
stroke:#000000; stroke-width:0; stroke-opacity:1; 
stroke-linecap:round; stroke-linejoin:round;fill-rule:evenodd;"
d="M 66195.3,48859.1
66195.3,49055.9
66195,49055.9
66195,49065.6
66193.1,49084.8
66189.4,49103.7
66183.8,49122.2
66176.4,49140.1
66167.3,49157.1
66156.5,49173.2
66144.3,49188.1
66130.6,49201.8
66115.7,49214
66099.6,49224.7
66082.6,49233.9
66064.7,49241.2
66046.3,49246.9
66027.3,49250.6
66008.1,49252.5
65998.4,49252.5
65998.4,49252.8
65801.6,49252.8
65801.6,49252.5
65791.9,49252.5
65772.7,49250.6
65753.7,49246.9
65735.3,49241.2
65717.4,49233.9
65700.4,49224.7
65684.3,49214
65669.4,49201.8
65655.7,49188.1
65643.5,49173.2
65632.7,49157.1
65623.6,49140.1
65616.2,49122.2
65610.6,49103.7
65606.9,49084.8
65605,49065.6
65605,49055.9
65604.7,49055.9
65604.7,48859.1
Z" /> 
<path style="fill:#000000; fill-opacity:1.0; 
stroke:#000000; stroke-width:0; stroke-opacity:1; 
stroke-linecap:round; stroke-linejoin:round;fill-rule:evenodd;"
d="M 65605,48544.1
65605,48534.4
65606.9,48515.2
65610.6,48496.3
65616.2,48477.8
65623.6,48459.9
65632.7,48442.9
65643.5,48426.8
65655.7,48411.9
65669.4,48398.2
65684.3,48386
65700.4,48375.3
65717.4,48366.1
65735.3,48358.8
65753.7,48353.1
65772.7,48349.4
65791.9,48347.5
65801.6,48347.5
65801.6,48347.2
65998.4,48347.2
65998.4,48347.5
66008.1,48347.5
66027.3,48349.4
66046.3,48353.1
66064.7,48358.8
66082.6,48366.1
66099.6,48375.3
66115.7,48386
66130.6,48398.2
66144.3,48411.9
66156.5,48426.8
66167.3,48442.9
66176.4,48459.9
66183.8,48477.8
66189.4,48496.3
66193.1,48515.2
66195,48534.4
66195,48544.1
66195.3,48544.1
66195.3,48740.9
65604.7,48740.9
65604.7,48544.1
Z" /> 
</g>
<g >
</g>
<g >
</g>
<g >
</g>
<g >
</g>
<g >
</g>
<g >
</g>
<g >
</g>
<g >
</g>
<g >
</g>
<g >
</g>
<g >
</g>
<g >
</g>
<g >
</g>
<g >
</g>
<g >
</g>
<g >
</g>
<g >
</g>
<g >
</g>
<g >
</g>
<g >
</g>
<g >
</g>
<g >
</g>
<g >
</g>
<g >
</g>
</g> 
</svg>
