%TF.GenerationSoftware,KiCad,Pcbnew,(5.1.10)-1*%
%TF.CreationDate,2022-02-21T21:57:19+01:00*%
%TF.ProjectId,BSPD-CV_3_0_00a,42535044-2d43-4565-9f33-5f305f303061,rev?*%
%TF.SameCoordinates,Original*%
%TF.FileFunction,Soldermask,Top*%
%TF.FilePolarity,Negative*%
%FSLAX46Y46*%
G04 Gerber Fmt 4.6, Leading zero omitted, Abs format (unit mm)*
G04 Created by KiCad (PCBNEW (5.1.10)-1) date 2022-02-21 21:57:19*
%MOMM*%
%LPD*%
G01*
G04 APERTURE LIST*
%ADD10C,1.700000*%
%ADD11O,2.200000X1.700000*%
%ADD12C,4.700000*%
%ADD13R,0.500000X0.500000*%
%ADD14C,2.000000*%
%ADD15R,2.290000X3.000000*%
%ADD16R,1.500000X2.000000*%
%ADD17R,3.800000X2.000000*%
%ADD18C,1.524000*%
%ADD19R,1.300000X1.600000*%
%ADD20R,2.000000X1.600000*%
%ADD21R,1.300000X3.300000*%
%ADD22R,3.300000X1.300000*%
%ADD23R,0.800000X0.900000*%
%ADD24C,1.500000*%
G04 APERTURE END LIST*
%TO.C,F11*%
G36*
G01*
X164605000Y-111877000D02*
X164605000Y-110627000D01*
G75*
G02*
X164855000Y-110377000I250000J0D01*
G01*
X165780000Y-110377000D01*
G75*
G02*
X166030000Y-110627000I0J-250000D01*
G01*
X166030000Y-111877000D01*
G75*
G02*
X165780000Y-112127000I-250000J0D01*
G01*
X164855000Y-112127000D01*
G75*
G02*
X164605000Y-111877000I0J250000D01*
G01*
G37*
G36*
G01*
X161630000Y-111877000D02*
X161630000Y-110627000D01*
G75*
G02*
X161880000Y-110377000I250000J0D01*
G01*
X162805000Y-110377000D01*
G75*
G02*
X163055000Y-110627000I0J-250000D01*
G01*
X163055000Y-111877000D01*
G75*
G02*
X162805000Y-112127000I-250000J0D01*
G01*
X161880000Y-112127000D01*
G75*
G02*
X161630000Y-111877000I0J250000D01*
G01*
G37*
%TD*%
D10*
%TO.C,J3*%
X152078000Y-133430000D03*
X152078000Y-138430000D03*
D11*
X159258000Y-133430000D03*
X159258000Y-135930000D03*
G36*
G01*
X160358000Y-137830000D02*
X160358000Y-139030000D01*
G75*
G02*
X160108000Y-139280000I-250000J0D01*
G01*
X158408000Y-139280000D01*
G75*
G02*
X158158000Y-139030000I0J250000D01*
G01*
X158158000Y-137830000D01*
G75*
G02*
X158408000Y-137580000I250000J0D01*
G01*
X160108000Y-137580000D01*
G75*
G02*
X160358000Y-137830000I0J-250000D01*
G01*
G37*
%TD*%
D10*
%TO.C,J2*%
X152078000Y-121492000D03*
X152078000Y-126492000D03*
D11*
X159258000Y-121492000D03*
X159258000Y-123992000D03*
G36*
G01*
X160358000Y-125892000D02*
X160358000Y-127092000D01*
G75*
G02*
X160108000Y-127342000I-250000J0D01*
G01*
X158408000Y-127342000D01*
G75*
G02*
X158158000Y-127092000I0J250000D01*
G01*
X158158000Y-125892000D01*
G75*
G02*
X158408000Y-125642000I250000J0D01*
G01*
X160108000Y-125642000D01*
G75*
G02*
X160358000Y-125892000I0J-250000D01*
G01*
G37*
%TD*%
D10*
%TO.C,J4*%
X228668000Y-107402000D03*
X228668000Y-104902000D03*
D11*
X221488000Y-107402000D03*
G36*
G01*
X220388000Y-105502000D02*
X220388000Y-104302000D01*
G75*
G02*
X220638000Y-104052000I250000J0D01*
G01*
X222338000Y-104052000D01*
G75*
G02*
X222588000Y-104302000I0J-250000D01*
G01*
X222588000Y-105502000D01*
G75*
G02*
X222338000Y-105752000I-250000J0D01*
G01*
X220638000Y-105752000D01*
G75*
G02*
X220388000Y-105502000I0J250000D01*
G01*
G37*
%TD*%
D10*
%TO.C,J1*%
X151570000Y-109768000D03*
X151570000Y-112268000D03*
D11*
X158750000Y-109768000D03*
G36*
G01*
X159850000Y-111668000D02*
X159850000Y-112868000D01*
G75*
G02*
X159600000Y-113118000I-250000J0D01*
G01*
X157900000Y-113118000D01*
G75*
G02*
X157650000Y-112868000I0J250000D01*
G01*
X157650000Y-111668000D01*
G75*
G02*
X157900000Y-111418000I250000J0D01*
G01*
X159600000Y-111418000D01*
G75*
G02*
X159850000Y-111668000I0J-250000D01*
G01*
G37*
%TD*%
D12*
%TO.C,H4*%
X227000000Y-148000000D03*
%TD*%
%TO.C,H3*%
X153000000Y-148000000D03*
%TD*%
%TO.C,H2*%
X227000000Y-98000000D03*
%TD*%
%TO.C,H1*%
X153000000Y-98000000D03*
%TD*%
D13*
%TO.C,D102*%
X218440000Y-111676000D03*
X218440000Y-113876000D03*
%TD*%
D14*
%TO.C,K101*%
X206878000Y-107432000D03*
X203378000Y-99832000D03*
X210378000Y-99832000D03*
X186878000Y-99832000D03*
X186878000Y-107432000D03*
%TD*%
D15*
%TO.C,U15*%
X208280000Y-142748000D03*
G36*
G01*
X209780000Y-140993000D02*
X209780000Y-140693000D01*
G75*
G02*
X209930000Y-140543000I150000J0D01*
G01*
X211580000Y-140543000D01*
G75*
G02*
X211730000Y-140693000I0J-150000D01*
G01*
X211730000Y-140993000D01*
G75*
G02*
X211580000Y-141143000I-150000J0D01*
G01*
X209930000Y-141143000D01*
G75*
G02*
X209780000Y-140993000I0J150000D01*
G01*
G37*
G36*
G01*
X209780000Y-142263000D02*
X209780000Y-141963000D01*
G75*
G02*
X209930000Y-141813000I150000J0D01*
G01*
X211580000Y-141813000D01*
G75*
G02*
X211730000Y-141963000I0J-150000D01*
G01*
X211730000Y-142263000D01*
G75*
G02*
X211580000Y-142413000I-150000J0D01*
G01*
X209930000Y-142413000D01*
G75*
G02*
X209780000Y-142263000I0J150000D01*
G01*
G37*
G36*
G01*
X209780000Y-143533000D02*
X209780000Y-143233000D01*
G75*
G02*
X209930000Y-143083000I150000J0D01*
G01*
X211580000Y-143083000D01*
G75*
G02*
X211730000Y-143233000I0J-150000D01*
G01*
X211730000Y-143533000D01*
G75*
G02*
X211580000Y-143683000I-150000J0D01*
G01*
X209930000Y-143683000D01*
G75*
G02*
X209780000Y-143533000I0J150000D01*
G01*
G37*
G36*
G01*
X209780000Y-144803000D02*
X209780000Y-144503000D01*
G75*
G02*
X209930000Y-144353000I150000J0D01*
G01*
X211580000Y-144353000D01*
G75*
G02*
X211730000Y-144503000I0J-150000D01*
G01*
X211730000Y-144803000D01*
G75*
G02*
X211580000Y-144953000I-150000J0D01*
G01*
X209930000Y-144953000D01*
G75*
G02*
X209780000Y-144803000I0J150000D01*
G01*
G37*
G36*
G01*
X204830000Y-144803000D02*
X204830000Y-144503000D01*
G75*
G02*
X204980000Y-144353000I150000J0D01*
G01*
X206630000Y-144353000D01*
G75*
G02*
X206780000Y-144503000I0J-150000D01*
G01*
X206780000Y-144803000D01*
G75*
G02*
X206630000Y-144953000I-150000J0D01*
G01*
X204980000Y-144953000D01*
G75*
G02*
X204830000Y-144803000I0J150000D01*
G01*
G37*
G36*
G01*
X204830000Y-143533000D02*
X204830000Y-143233000D01*
G75*
G02*
X204980000Y-143083000I150000J0D01*
G01*
X206630000Y-143083000D01*
G75*
G02*
X206780000Y-143233000I0J-150000D01*
G01*
X206780000Y-143533000D01*
G75*
G02*
X206630000Y-143683000I-150000J0D01*
G01*
X204980000Y-143683000D01*
G75*
G02*
X204830000Y-143533000I0J150000D01*
G01*
G37*
G36*
G01*
X204830000Y-142263000D02*
X204830000Y-141963000D01*
G75*
G02*
X204980000Y-141813000I150000J0D01*
G01*
X206630000Y-141813000D01*
G75*
G02*
X206780000Y-141963000I0J-150000D01*
G01*
X206780000Y-142263000D01*
G75*
G02*
X206630000Y-142413000I-150000J0D01*
G01*
X204980000Y-142413000D01*
G75*
G02*
X204830000Y-142263000I0J150000D01*
G01*
G37*
G36*
G01*
X204830000Y-140993000D02*
X204830000Y-140693000D01*
G75*
G02*
X204980000Y-140543000I150000J0D01*
G01*
X206630000Y-140543000D01*
G75*
G02*
X206780000Y-140693000I0J-150000D01*
G01*
X206780000Y-140993000D01*
G75*
G02*
X206630000Y-141143000I-150000J0D01*
G01*
X204980000Y-141143000D01*
G75*
G02*
X204830000Y-140993000I0J150000D01*
G01*
G37*
%TD*%
%TO.C,U12*%
X213298000Y-126492000D03*
G36*
G01*
X214798000Y-124737000D02*
X214798000Y-124437000D01*
G75*
G02*
X214948000Y-124287000I150000J0D01*
G01*
X216598000Y-124287000D01*
G75*
G02*
X216748000Y-124437000I0J-150000D01*
G01*
X216748000Y-124737000D01*
G75*
G02*
X216598000Y-124887000I-150000J0D01*
G01*
X214948000Y-124887000D01*
G75*
G02*
X214798000Y-124737000I0J150000D01*
G01*
G37*
G36*
G01*
X214798000Y-126007000D02*
X214798000Y-125707000D01*
G75*
G02*
X214948000Y-125557000I150000J0D01*
G01*
X216598000Y-125557000D01*
G75*
G02*
X216748000Y-125707000I0J-150000D01*
G01*
X216748000Y-126007000D01*
G75*
G02*
X216598000Y-126157000I-150000J0D01*
G01*
X214948000Y-126157000D01*
G75*
G02*
X214798000Y-126007000I0J150000D01*
G01*
G37*
G36*
G01*
X214798000Y-127277000D02*
X214798000Y-126977000D01*
G75*
G02*
X214948000Y-126827000I150000J0D01*
G01*
X216598000Y-126827000D01*
G75*
G02*
X216748000Y-126977000I0J-150000D01*
G01*
X216748000Y-127277000D01*
G75*
G02*
X216598000Y-127427000I-150000J0D01*
G01*
X214948000Y-127427000D01*
G75*
G02*
X214798000Y-127277000I0J150000D01*
G01*
G37*
G36*
G01*
X214798000Y-128547000D02*
X214798000Y-128247000D01*
G75*
G02*
X214948000Y-128097000I150000J0D01*
G01*
X216598000Y-128097000D01*
G75*
G02*
X216748000Y-128247000I0J-150000D01*
G01*
X216748000Y-128547000D01*
G75*
G02*
X216598000Y-128697000I-150000J0D01*
G01*
X214948000Y-128697000D01*
G75*
G02*
X214798000Y-128547000I0J150000D01*
G01*
G37*
G36*
G01*
X209848000Y-128547000D02*
X209848000Y-128247000D01*
G75*
G02*
X209998000Y-128097000I150000J0D01*
G01*
X211648000Y-128097000D01*
G75*
G02*
X211798000Y-128247000I0J-150000D01*
G01*
X211798000Y-128547000D01*
G75*
G02*
X211648000Y-128697000I-150000J0D01*
G01*
X209998000Y-128697000D01*
G75*
G02*
X209848000Y-128547000I0J150000D01*
G01*
G37*
G36*
G01*
X209848000Y-127277000D02*
X209848000Y-126977000D01*
G75*
G02*
X209998000Y-126827000I150000J0D01*
G01*
X211648000Y-126827000D01*
G75*
G02*
X211798000Y-126977000I0J-150000D01*
G01*
X211798000Y-127277000D01*
G75*
G02*
X211648000Y-127427000I-150000J0D01*
G01*
X209998000Y-127427000D01*
G75*
G02*
X209848000Y-127277000I0J150000D01*
G01*
G37*
G36*
G01*
X209848000Y-126007000D02*
X209848000Y-125707000D01*
G75*
G02*
X209998000Y-125557000I150000J0D01*
G01*
X211648000Y-125557000D01*
G75*
G02*
X211798000Y-125707000I0J-150000D01*
G01*
X211798000Y-126007000D01*
G75*
G02*
X211648000Y-126157000I-150000J0D01*
G01*
X209998000Y-126157000D01*
G75*
G02*
X209848000Y-126007000I0J150000D01*
G01*
G37*
G36*
G01*
X209848000Y-124737000D02*
X209848000Y-124437000D01*
G75*
G02*
X209998000Y-124287000I150000J0D01*
G01*
X211648000Y-124287000D01*
G75*
G02*
X211798000Y-124437000I0J-150000D01*
G01*
X211798000Y-124737000D01*
G75*
G02*
X211648000Y-124887000I-150000J0D01*
G01*
X209998000Y-124887000D01*
G75*
G02*
X209848000Y-124737000I0J150000D01*
G01*
G37*
%TD*%
%TO.C,U8*%
G36*
G01*
X188952000Y-127912000D02*
X188952000Y-127612000D01*
G75*
G02*
X189102000Y-127462000I150000J0D01*
G01*
X190752000Y-127462000D01*
G75*
G02*
X190902000Y-127612000I0J-150000D01*
G01*
X190902000Y-127912000D01*
G75*
G02*
X190752000Y-128062000I-150000J0D01*
G01*
X189102000Y-128062000D01*
G75*
G02*
X188952000Y-127912000I0J150000D01*
G01*
G37*
G36*
G01*
X188952000Y-129182000D02*
X188952000Y-128882000D01*
G75*
G02*
X189102000Y-128732000I150000J0D01*
G01*
X190752000Y-128732000D01*
G75*
G02*
X190902000Y-128882000I0J-150000D01*
G01*
X190902000Y-129182000D01*
G75*
G02*
X190752000Y-129332000I-150000J0D01*
G01*
X189102000Y-129332000D01*
G75*
G02*
X188952000Y-129182000I0J150000D01*
G01*
G37*
G36*
G01*
X188952000Y-130452000D02*
X188952000Y-130152000D01*
G75*
G02*
X189102000Y-130002000I150000J0D01*
G01*
X190752000Y-130002000D01*
G75*
G02*
X190902000Y-130152000I0J-150000D01*
G01*
X190902000Y-130452000D01*
G75*
G02*
X190752000Y-130602000I-150000J0D01*
G01*
X189102000Y-130602000D01*
G75*
G02*
X188952000Y-130452000I0J150000D01*
G01*
G37*
G36*
G01*
X188952000Y-131722000D02*
X188952000Y-131422000D01*
G75*
G02*
X189102000Y-131272000I150000J0D01*
G01*
X190752000Y-131272000D01*
G75*
G02*
X190902000Y-131422000I0J-150000D01*
G01*
X190902000Y-131722000D01*
G75*
G02*
X190752000Y-131872000I-150000J0D01*
G01*
X189102000Y-131872000D01*
G75*
G02*
X188952000Y-131722000I0J150000D01*
G01*
G37*
G36*
G01*
X188952000Y-132992000D02*
X188952000Y-132692000D01*
G75*
G02*
X189102000Y-132542000I150000J0D01*
G01*
X190752000Y-132542000D01*
G75*
G02*
X190902000Y-132692000I0J-150000D01*
G01*
X190902000Y-132992000D01*
G75*
G02*
X190752000Y-133142000I-150000J0D01*
G01*
X189102000Y-133142000D01*
G75*
G02*
X188952000Y-132992000I0J150000D01*
G01*
G37*
G36*
G01*
X188952000Y-134262000D02*
X188952000Y-133962000D01*
G75*
G02*
X189102000Y-133812000I150000J0D01*
G01*
X190752000Y-133812000D01*
G75*
G02*
X190902000Y-133962000I0J-150000D01*
G01*
X190902000Y-134262000D01*
G75*
G02*
X190752000Y-134412000I-150000J0D01*
G01*
X189102000Y-134412000D01*
G75*
G02*
X188952000Y-134262000I0J150000D01*
G01*
G37*
G36*
G01*
X188952000Y-135532000D02*
X188952000Y-135232000D01*
G75*
G02*
X189102000Y-135082000I150000J0D01*
G01*
X190752000Y-135082000D01*
G75*
G02*
X190902000Y-135232000I0J-150000D01*
G01*
X190902000Y-135532000D01*
G75*
G02*
X190752000Y-135682000I-150000J0D01*
G01*
X189102000Y-135682000D01*
G75*
G02*
X188952000Y-135532000I0J150000D01*
G01*
G37*
G36*
G01*
X184002000Y-135532000D02*
X184002000Y-135232000D01*
G75*
G02*
X184152000Y-135082000I150000J0D01*
G01*
X185802000Y-135082000D01*
G75*
G02*
X185952000Y-135232000I0J-150000D01*
G01*
X185952000Y-135532000D01*
G75*
G02*
X185802000Y-135682000I-150000J0D01*
G01*
X184152000Y-135682000D01*
G75*
G02*
X184002000Y-135532000I0J150000D01*
G01*
G37*
G36*
G01*
X184002000Y-134262000D02*
X184002000Y-133962000D01*
G75*
G02*
X184152000Y-133812000I150000J0D01*
G01*
X185802000Y-133812000D01*
G75*
G02*
X185952000Y-133962000I0J-150000D01*
G01*
X185952000Y-134262000D01*
G75*
G02*
X185802000Y-134412000I-150000J0D01*
G01*
X184152000Y-134412000D01*
G75*
G02*
X184002000Y-134262000I0J150000D01*
G01*
G37*
G36*
G01*
X184002000Y-132992000D02*
X184002000Y-132692000D01*
G75*
G02*
X184152000Y-132542000I150000J0D01*
G01*
X185802000Y-132542000D01*
G75*
G02*
X185952000Y-132692000I0J-150000D01*
G01*
X185952000Y-132992000D01*
G75*
G02*
X185802000Y-133142000I-150000J0D01*
G01*
X184152000Y-133142000D01*
G75*
G02*
X184002000Y-132992000I0J150000D01*
G01*
G37*
G36*
G01*
X184002000Y-131722000D02*
X184002000Y-131422000D01*
G75*
G02*
X184152000Y-131272000I150000J0D01*
G01*
X185802000Y-131272000D01*
G75*
G02*
X185952000Y-131422000I0J-150000D01*
G01*
X185952000Y-131722000D01*
G75*
G02*
X185802000Y-131872000I-150000J0D01*
G01*
X184152000Y-131872000D01*
G75*
G02*
X184002000Y-131722000I0J150000D01*
G01*
G37*
G36*
G01*
X184002000Y-130452000D02*
X184002000Y-130152000D01*
G75*
G02*
X184152000Y-130002000I150000J0D01*
G01*
X185802000Y-130002000D01*
G75*
G02*
X185952000Y-130152000I0J-150000D01*
G01*
X185952000Y-130452000D01*
G75*
G02*
X185802000Y-130602000I-150000J0D01*
G01*
X184152000Y-130602000D01*
G75*
G02*
X184002000Y-130452000I0J150000D01*
G01*
G37*
G36*
G01*
X184002000Y-129182000D02*
X184002000Y-128882000D01*
G75*
G02*
X184152000Y-128732000I150000J0D01*
G01*
X185802000Y-128732000D01*
G75*
G02*
X185952000Y-128882000I0J-150000D01*
G01*
X185952000Y-129182000D01*
G75*
G02*
X185802000Y-129332000I-150000J0D01*
G01*
X184152000Y-129332000D01*
G75*
G02*
X184002000Y-129182000I0J150000D01*
G01*
G37*
G36*
G01*
X184002000Y-127912000D02*
X184002000Y-127612000D01*
G75*
G02*
X184152000Y-127462000I150000J0D01*
G01*
X185802000Y-127462000D01*
G75*
G02*
X185952000Y-127612000I0J-150000D01*
G01*
X185952000Y-127912000D01*
G75*
G02*
X185802000Y-128062000I-150000J0D01*
G01*
X184152000Y-128062000D01*
G75*
G02*
X184002000Y-127912000I0J150000D01*
G01*
G37*
%TD*%
%TO.C,U7*%
G36*
G01*
X207240000Y-112672000D02*
X207240000Y-112372000D01*
G75*
G02*
X207390000Y-112222000I150000J0D01*
G01*
X209040000Y-112222000D01*
G75*
G02*
X209190000Y-112372000I0J-150000D01*
G01*
X209190000Y-112672000D01*
G75*
G02*
X209040000Y-112822000I-150000J0D01*
G01*
X207390000Y-112822000D01*
G75*
G02*
X207240000Y-112672000I0J150000D01*
G01*
G37*
G36*
G01*
X207240000Y-113942000D02*
X207240000Y-113642000D01*
G75*
G02*
X207390000Y-113492000I150000J0D01*
G01*
X209040000Y-113492000D01*
G75*
G02*
X209190000Y-113642000I0J-150000D01*
G01*
X209190000Y-113942000D01*
G75*
G02*
X209040000Y-114092000I-150000J0D01*
G01*
X207390000Y-114092000D01*
G75*
G02*
X207240000Y-113942000I0J150000D01*
G01*
G37*
G36*
G01*
X207240000Y-115212000D02*
X207240000Y-114912000D01*
G75*
G02*
X207390000Y-114762000I150000J0D01*
G01*
X209040000Y-114762000D01*
G75*
G02*
X209190000Y-114912000I0J-150000D01*
G01*
X209190000Y-115212000D01*
G75*
G02*
X209040000Y-115362000I-150000J0D01*
G01*
X207390000Y-115362000D01*
G75*
G02*
X207240000Y-115212000I0J150000D01*
G01*
G37*
G36*
G01*
X207240000Y-116482000D02*
X207240000Y-116182000D01*
G75*
G02*
X207390000Y-116032000I150000J0D01*
G01*
X209040000Y-116032000D01*
G75*
G02*
X209190000Y-116182000I0J-150000D01*
G01*
X209190000Y-116482000D01*
G75*
G02*
X209040000Y-116632000I-150000J0D01*
G01*
X207390000Y-116632000D01*
G75*
G02*
X207240000Y-116482000I0J150000D01*
G01*
G37*
G36*
G01*
X207240000Y-117752000D02*
X207240000Y-117452000D01*
G75*
G02*
X207390000Y-117302000I150000J0D01*
G01*
X209040000Y-117302000D01*
G75*
G02*
X209190000Y-117452000I0J-150000D01*
G01*
X209190000Y-117752000D01*
G75*
G02*
X209040000Y-117902000I-150000J0D01*
G01*
X207390000Y-117902000D01*
G75*
G02*
X207240000Y-117752000I0J150000D01*
G01*
G37*
G36*
G01*
X207240000Y-119022000D02*
X207240000Y-118722000D01*
G75*
G02*
X207390000Y-118572000I150000J0D01*
G01*
X209040000Y-118572000D01*
G75*
G02*
X209190000Y-118722000I0J-150000D01*
G01*
X209190000Y-119022000D01*
G75*
G02*
X209040000Y-119172000I-150000J0D01*
G01*
X207390000Y-119172000D01*
G75*
G02*
X207240000Y-119022000I0J150000D01*
G01*
G37*
G36*
G01*
X207240000Y-120292000D02*
X207240000Y-119992000D01*
G75*
G02*
X207390000Y-119842000I150000J0D01*
G01*
X209040000Y-119842000D01*
G75*
G02*
X209190000Y-119992000I0J-150000D01*
G01*
X209190000Y-120292000D01*
G75*
G02*
X209040000Y-120442000I-150000J0D01*
G01*
X207390000Y-120442000D01*
G75*
G02*
X207240000Y-120292000I0J150000D01*
G01*
G37*
G36*
G01*
X202290000Y-120292000D02*
X202290000Y-119992000D01*
G75*
G02*
X202440000Y-119842000I150000J0D01*
G01*
X204090000Y-119842000D01*
G75*
G02*
X204240000Y-119992000I0J-150000D01*
G01*
X204240000Y-120292000D01*
G75*
G02*
X204090000Y-120442000I-150000J0D01*
G01*
X202440000Y-120442000D01*
G75*
G02*
X202290000Y-120292000I0J150000D01*
G01*
G37*
G36*
G01*
X202290000Y-119022000D02*
X202290000Y-118722000D01*
G75*
G02*
X202440000Y-118572000I150000J0D01*
G01*
X204090000Y-118572000D01*
G75*
G02*
X204240000Y-118722000I0J-150000D01*
G01*
X204240000Y-119022000D01*
G75*
G02*
X204090000Y-119172000I-150000J0D01*
G01*
X202440000Y-119172000D01*
G75*
G02*
X202290000Y-119022000I0J150000D01*
G01*
G37*
G36*
G01*
X202290000Y-117752000D02*
X202290000Y-117452000D01*
G75*
G02*
X202440000Y-117302000I150000J0D01*
G01*
X204090000Y-117302000D01*
G75*
G02*
X204240000Y-117452000I0J-150000D01*
G01*
X204240000Y-117752000D01*
G75*
G02*
X204090000Y-117902000I-150000J0D01*
G01*
X202440000Y-117902000D01*
G75*
G02*
X202290000Y-117752000I0J150000D01*
G01*
G37*
G36*
G01*
X202290000Y-116482000D02*
X202290000Y-116182000D01*
G75*
G02*
X202440000Y-116032000I150000J0D01*
G01*
X204090000Y-116032000D01*
G75*
G02*
X204240000Y-116182000I0J-150000D01*
G01*
X204240000Y-116482000D01*
G75*
G02*
X204090000Y-116632000I-150000J0D01*
G01*
X202440000Y-116632000D01*
G75*
G02*
X202290000Y-116482000I0J150000D01*
G01*
G37*
G36*
G01*
X202290000Y-115212000D02*
X202290000Y-114912000D01*
G75*
G02*
X202440000Y-114762000I150000J0D01*
G01*
X204090000Y-114762000D01*
G75*
G02*
X204240000Y-114912000I0J-150000D01*
G01*
X204240000Y-115212000D01*
G75*
G02*
X204090000Y-115362000I-150000J0D01*
G01*
X202440000Y-115362000D01*
G75*
G02*
X202290000Y-115212000I0J150000D01*
G01*
G37*
G36*
G01*
X202290000Y-113942000D02*
X202290000Y-113642000D01*
G75*
G02*
X202440000Y-113492000I150000J0D01*
G01*
X204090000Y-113492000D01*
G75*
G02*
X204240000Y-113642000I0J-150000D01*
G01*
X204240000Y-113942000D01*
G75*
G02*
X204090000Y-114092000I-150000J0D01*
G01*
X202440000Y-114092000D01*
G75*
G02*
X202290000Y-113942000I0J150000D01*
G01*
G37*
G36*
G01*
X202290000Y-112672000D02*
X202290000Y-112372000D01*
G75*
G02*
X202440000Y-112222000I150000J0D01*
G01*
X204090000Y-112222000D01*
G75*
G02*
X204240000Y-112372000I0J-150000D01*
G01*
X204240000Y-112672000D01*
G75*
G02*
X204090000Y-112822000I-150000J0D01*
G01*
X202440000Y-112822000D01*
G75*
G02*
X202290000Y-112672000I0J150000D01*
G01*
G37*
%TD*%
%TO.C,U6*%
G36*
G01*
X172188000Y-127912000D02*
X172188000Y-127612000D01*
G75*
G02*
X172338000Y-127462000I150000J0D01*
G01*
X173988000Y-127462000D01*
G75*
G02*
X174138000Y-127612000I0J-150000D01*
G01*
X174138000Y-127912000D01*
G75*
G02*
X173988000Y-128062000I-150000J0D01*
G01*
X172338000Y-128062000D01*
G75*
G02*
X172188000Y-127912000I0J150000D01*
G01*
G37*
G36*
G01*
X172188000Y-129182000D02*
X172188000Y-128882000D01*
G75*
G02*
X172338000Y-128732000I150000J0D01*
G01*
X173988000Y-128732000D01*
G75*
G02*
X174138000Y-128882000I0J-150000D01*
G01*
X174138000Y-129182000D01*
G75*
G02*
X173988000Y-129332000I-150000J0D01*
G01*
X172338000Y-129332000D01*
G75*
G02*
X172188000Y-129182000I0J150000D01*
G01*
G37*
G36*
G01*
X172188000Y-130452000D02*
X172188000Y-130152000D01*
G75*
G02*
X172338000Y-130002000I150000J0D01*
G01*
X173988000Y-130002000D01*
G75*
G02*
X174138000Y-130152000I0J-150000D01*
G01*
X174138000Y-130452000D01*
G75*
G02*
X173988000Y-130602000I-150000J0D01*
G01*
X172338000Y-130602000D01*
G75*
G02*
X172188000Y-130452000I0J150000D01*
G01*
G37*
G36*
G01*
X172188000Y-131722000D02*
X172188000Y-131422000D01*
G75*
G02*
X172338000Y-131272000I150000J0D01*
G01*
X173988000Y-131272000D01*
G75*
G02*
X174138000Y-131422000I0J-150000D01*
G01*
X174138000Y-131722000D01*
G75*
G02*
X173988000Y-131872000I-150000J0D01*
G01*
X172338000Y-131872000D01*
G75*
G02*
X172188000Y-131722000I0J150000D01*
G01*
G37*
G36*
G01*
X172188000Y-132992000D02*
X172188000Y-132692000D01*
G75*
G02*
X172338000Y-132542000I150000J0D01*
G01*
X173988000Y-132542000D01*
G75*
G02*
X174138000Y-132692000I0J-150000D01*
G01*
X174138000Y-132992000D01*
G75*
G02*
X173988000Y-133142000I-150000J0D01*
G01*
X172338000Y-133142000D01*
G75*
G02*
X172188000Y-132992000I0J150000D01*
G01*
G37*
G36*
G01*
X172188000Y-134262000D02*
X172188000Y-133962000D01*
G75*
G02*
X172338000Y-133812000I150000J0D01*
G01*
X173988000Y-133812000D01*
G75*
G02*
X174138000Y-133962000I0J-150000D01*
G01*
X174138000Y-134262000D01*
G75*
G02*
X173988000Y-134412000I-150000J0D01*
G01*
X172338000Y-134412000D01*
G75*
G02*
X172188000Y-134262000I0J150000D01*
G01*
G37*
G36*
G01*
X172188000Y-135532000D02*
X172188000Y-135232000D01*
G75*
G02*
X172338000Y-135082000I150000J0D01*
G01*
X173988000Y-135082000D01*
G75*
G02*
X174138000Y-135232000I0J-150000D01*
G01*
X174138000Y-135532000D01*
G75*
G02*
X173988000Y-135682000I-150000J0D01*
G01*
X172338000Y-135682000D01*
G75*
G02*
X172188000Y-135532000I0J150000D01*
G01*
G37*
G36*
G01*
X167238000Y-135532000D02*
X167238000Y-135232000D01*
G75*
G02*
X167388000Y-135082000I150000J0D01*
G01*
X169038000Y-135082000D01*
G75*
G02*
X169188000Y-135232000I0J-150000D01*
G01*
X169188000Y-135532000D01*
G75*
G02*
X169038000Y-135682000I-150000J0D01*
G01*
X167388000Y-135682000D01*
G75*
G02*
X167238000Y-135532000I0J150000D01*
G01*
G37*
G36*
G01*
X167238000Y-134262000D02*
X167238000Y-133962000D01*
G75*
G02*
X167388000Y-133812000I150000J0D01*
G01*
X169038000Y-133812000D01*
G75*
G02*
X169188000Y-133962000I0J-150000D01*
G01*
X169188000Y-134262000D01*
G75*
G02*
X169038000Y-134412000I-150000J0D01*
G01*
X167388000Y-134412000D01*
G75*
G02*
X167238000Y-134262000I0J150000D01*
G01*
G37*
G36*
G01*
X167238000Y-132992000D02*
X167238000Y-132692000D01*
G75*
G02*
X167388000Y-132542000I150000J0D01*
G01*
X169038000Y-132542000D01*
G75*
G02*
X169188000Y-132692000I0J-150000D01*
G01*
X169188000Y-132992000D01*
G75*
G02*
X169038000Y-133142000I-150000J0D01*
G01*
X167388000Y-133142000D01*
G75*
G02*
X167238000Y-132992000I0J150000D01*
G01*
G37*
G36*
G01*
X167238000Y-131722000D02*
X167238000Y-131422000D01*
G75*
G02*
X167388000Y-131272000I150000J0D01*
G01*
X169038000Y-131272000D01*
G75*
G02*
X169188000Y-131422000I0J-150000D01*
G01*
X169188000Y-131722000D01*
G75*
G02*
X169038000Y-131872000I-150000J0D01*
G01*
X167388000Y-131872000D01*
G75*
G02*
X167238000Y-131722000I0J150000D01*
G01*
G37*
G36*
G01*
X167238000Y-130452000D02*
X167238000Y-130152000D01*
G75*
G02*
X167388000Y-130002000I150000J0D01*
G01*
X169038000Y-130002000D01*
G75*
G02*
X169188000Y-130152000I0J-150000D01*
G01*
X169188000Y-130452000D01*
G75*
G02*
X169038000Y-130602000I-150000J0D01*
G01*
X167388000Y-130602000D01*
G75*
G02*
X167238000Y-130452000I0J150000D01*
G01*
G37*
G36*
G01*
X167238000Y-129182000D02*
X167238000Y-128882000D01*
G75*
G02*
X167388000Y-128732000I150000J0D01*
G01*
X169038000Y-128732000D01*
G75*
G02*
X169188000Y-128882000I0J-150000D01*
G01*
X169188000Y-129182000D01*
G75*
G02*
X169038000Y-129332000I-150000J0D01*
G01*
X167388000Y-129332000D01*
G75*
G02*
X167238000Y-129182000I0J150000D01*
G01*
G37*
G36*
G01*
X167238000Y-127912000D02*
X167238000Y-127612000D01*
G75*
G02*
X167388000Y-127462000I150000J0D01*
G01*
X169038000Y-127462000D01*
G75*
G02*
X169188000Y-127612000I0J-150000D01*
G01*
X169188000Y-127912000D01*
G75*
G02*
X169038000Y-128062000I-150000J0D01*
G01*
X167388000Y-128062000D01*
G75*
G02*
X167238000Y-127912000I0J150000D01*
G01*
G37*
%TD*%
%TO.C,U5*%
G36*
G01*
X198096000Y-127912000D02*
X198096000Y-127612000D01*
G75*
G02*
X198246000Y-127462000I150000J0D01*
G01*
X199896000Y-127462000D01*
G75*
G02*
X200046000Y-127612000I0J-150000D01*
G01*
X200046000Y-127912000D01*
G75*
G02*
X199896000Y-128062000I-150000J0D01*
G01*
X198246000Y-128062000D01*
G75*
G02*
X198096000Y-127912000I0J150000D01*
G01*
G37*
G36*
G01*
X198096000Y-129182000D02*
X198096000Y-128882000D01*
G75*
G02*
X198246000Y-128732000I150000J0D01*
G01*
X199896000Y-128732000D01*
G75*
G02*
X200046000Y-128882000I0J-150000D01*
G01*
X200046000Y-129182000D01*
G75*
G02*
X199896000Y-129332000I-150000J0D01*
G01*
X198246000Y-129332000D01*
G75*
G02*
X198096000Y-129182000I0J150000D01*
G01*
G37*
G36*
G01*
X198096000Y-130452000D02*
X198096000Y-130152000D01*
G75*
G02*
X198246000Y-130002000I150000J0D01*
G01*
X199896000Y-130002000D01*
G75*
G02*
X200046000Y-130152000I0J-150000D01*
G01*
X200046000Y-130452000D01*
G75*
G02*
X199896000Y-130602000I-150000J0D01*
G01*
X198246000Y-130602000D01*
G75*
G02*
X198096000Y-130452000I0J150000D01*
G01*
G37*
G36*
G01*
X198096000Y-131722000D02*
X198096000Y-131422000D01*
G75*
G02*
X198246000Y-131272000I150000J0D01*
G01*
X199896000Y-131272000D01*
G75*
G02*
X200046000Y-131422000I0J-150000D01*
G01*
X200046000Y-131722000D01*
G75*
G02*
X199896000Y-131872000I-150000J0D01*
G01*
X198246000Y-131872000D01*
G75*
G02*
X198096000Y-131722000I0J150000D01*
G01*
G37*
G36*
G01*
X198096000Y-132992000D02*
X198096000Y-132692000D01*
G75*
G02*
X198246000Y-132542000I150000J0D01*
G01*
X199896000Y-132542000D01*
G75*
G02*
X200046000Y-132692000I0J-150000D01*
G01*
X200046000Y-132992000D01*
G75*
G02*
X199896000Y-133142000I-150000J0D01*
G01*
X198246000Y-133142000D01*
G75*
G02*
X198096000Y-132992000I0J150000D01*
G01*
G37*
G36*
G01*
X198096000Y-134262000D02*
X198096000Y-133962000D01*
G75*
G02*
X198246000Y-133812000I150000J0D01*
G01*
X199896000Y-133812000D01*
G75*
G02*
X200046000Y-133962000I0J-150000D01*
G01*
X200046000Y-134262000D01*
G75*
G02*
X199896000Y-134412000I-150000J0D01*
G01*
X198246000Y-134412000D01*
G75*
G02*
X198096000Y-134262000I0J150000D01*
G01*
G37*
G36*
G01*
X198096000Y-135532000D02*
X198096000Y-135232000D01*
G75*
G02*
X198246000Y-135082000I150000J0D01*
G01*
X199896000Y-135082000D01*
G75*
G02*
X200046000Y-135232000I0J-150000D01*
G01*
X200046000Y-135532000D01*
G75*
G02*
X199896000Y-135682000I-150000J0D01*
G01*
X198246000Y-135682000D01*
G75*
G02*
X198096000Y-135532000I0J150000D01*
G01*
G37*
G36*
G01*
X193146000Y-135532000D02*
X193146000Y-135232000D01*
G75*
G02*
X193296000Y-135082000I150000J0D01*
G01*
X194946000Y-135082000D01*
G75*
G02*
X195096000Y-135232000I0J-150000D01*
G01*
X195096000Y-135532000D01*
G75*
G02*
X194946000Y-135682000I-150000J0D01*
G01*
X193296000Y-135682000D01*
G75*
G02*
X193146000Y-135532000I0J150000D01*
G01*
G37*
G36*
G01*
X193146000Y-134262000D02*
X193146000Y-133962000D01*
G75*
G02*
X193296000Y-133812000I150000J0D01*
G01*
X194946000Y-133812000D01*
G75*
G02*
X195096000Y-133962000I0J-150000D01*
G01*
X195096000Y-134262000D01*
G75*
G02*
X194946000Y-134412000I-150000J0D01*
G01*
X193296000Y-134412000D01*
G75*
G02*
X193146000Y-134262000I0J150000D01*
G01*
G37*
G36*
G01*
X193146000Y-132992000D02*
X193146000Y-132692000D01*
G75*
G02*
X193296000Y-132542000I150000J0D01*
G01*
X194946000Y-132542000D01*
G75*
G02*
X195096000Y-132692000I0J-150000D01*
G01*
X195096000Y-132992000D01*
G75*
G02*
X194946000Y-133142000I-150000J0D01*
G01*
X193296000Y-133142000D01*
G75*
G02*
X193146000Y-132992000I0J150000D01*
G01*
G37*
G36*
G01*
X193146000Y-131722000D02*
X193146000Y-131422000D01*
G75*
G02*
X193296000Y-131272000I150000J0D01*
G01*
X194946000Y-131272000D01*
G75*
G02*
X195096000Y-131422000I0J-150000D01*
G01*
X195096000Y-131722000D01*
G75*
G02*
X194946000Y-131872000I-150000J0D01*
G01*
X193296000Y-131872000D01*
G75*
G02*
X193146000Y-131722000I0J150000D01*
G01*
G37*
G36*
G01*
X193146000Y-130452000D02*
X193146000Y-130152000D01*
G75*
G02*
X193296000Y-130002000I150000J0D01*
G01*
X194946000Y-130002000D01*
G75*
G02*
X195096000Y-130152000I0J-150000D01*
G01*
X195096000Y-130452000D01*
G75*
G02*
X194946000Y-130602000I-150000J0D01*
G01*
X193296000Y-130602000D01*
G75*
G02*
X193146000Y-130452000I0J150000D01*
G01*
G37*
G36*
G01*
X193146000Y-129182000D02*
X193146000Y-128882000D01*
G75*
G02*
X193296000Y-128732000I150000J0D01*
G01*
X194946000Y-128732000D01*
G75*
G02*
X195096000Y-128882000I0J-150000D01*
G01*
X195096000Y-129182000D01*
G75*
G02*
X194946000Y-129332000I-150000J0D01*
G01*
X193296000Y-129332000D01*
G75*
G02*
X193146000Y-129182000I0J150000D01*
G01*
G37*
G36*
G01*
X193146000Y-127912000D02*
X193146000Y-127612000D01*
G75*
G02*
X193296000Y-127462000I150000J0D01*
G01*
X194946000Y-127462000D01*
G75*
G02*
X195096000Y-127612000I0J-150000D01*
G01*
X195096000Y-127912000D01*
G75*
G02*
X194946000Y-128062000I-150000J0D01*
G01*
X193296000Y-128062000D01*
G75*
G02*
X193146000Y-127912000I0J150000D01*
G01*
G37*
%TD*%
%TO.C,U4*%
G36*
G01*
X198096000Y-112672000D02*
X198096000Y-112372000D01*
G75*
G02*
X198246000Y-112222000I150000J0D01*
G01*
X199896000Y-112222000D01*
G75*
G02*
X200046000Y-112372000I0J-150000D01*
G01*
X200046000Y-112672000D01*
G75*
G02*
X199896000Y-112822000I-150000J0D01*
G01*
X198246000Y-112822000D01*
G75*
G02*
X198096000Y-112672000I0J150000D01*
G01*
G37*
G36*
G01*
X198096000Y-113942000D02*
X198096000Y-113642000D01*
G75*
G02*
X198246000Y-113492000I150000J0D01*
G01*
X199896000Y-113492000D01*
G75*
G02*
X200046000Y-113642000I0J-150000D01*
G01*
X200046000Y-113942000D01*
G75*
G02*
X199896000Y-114092000I-150000J0D01*
G01*
X198246000Y-114092000D01*
G75*
G02*
X198096000Y-113942000I0J150000D01*
G01*
G37*
G36*
G01*
X198096000Y-115212000D02*
X198096000Y-114912000D01*
G75*
G02*
X198246000Y-114762000I150000J0D01*
G01*
X199896000Y-114762000D01*
G75*
G02*
X200046000Y-114912000I0J-150000D01*
G01*
X200046000Y-115212000D01*
G75*
G02*
X199896000Y-115362000I-150000J0D01*
G01*
X198246000Y-115362000D01*
G75*
G02*
X198096000Y-115212000I0J150000D01*
G01*
G37*
G36*
G01*
X198096000Y-116482000D02*
X198096000Y-116182000D01*
G75*
G02*
X198246000Y-116032000I150000J0D01*
G01*
X199896000Y-116032000D01*
G75*
G02*
X200046000Y-116182000I0J-150000D01*
G01*
X200046000Y-116482000D01*
G75*
G02*
X199896000Y-116632000I-150000J0D01*
G01*
X198246000Y-116632000D01*
G75*
G02*
X198096000Y-116482000I0J150000D01*
G01*
G37*
G36*
G01*
X198096000Y-117752000D02*
X198096000Y-117452000D01*
G75*
G02*
X198246000Y-117302000I150000J0D01*
G01*
X199896000Y-117302000D01*
G75*
G02*
X200046000Y-117452000I0J-150000D01*
G01*
X200046000Y-117752000D01*
G75*
G02*
X199896000Y-117902000I-150000J0D01*
G01*
X198246000Y-117902000D01*
G75*
G02*
X198096000Y-117752000I0J150000D01*
G01*
G37*
G36*
G01*
X198096000Y-119022000D02*
X198096000Y-118722000D01*
G75*
G02*
X198246000Y-118572000I150000J0D01*
G01*
X199896000Y-118572000D01*
G75*
G02*
X200046000Y-118722000I0J-150000D01*
G01*
X200046000Y-119022000D01*
G75*
G02*
X199896000Y-119172000I-150000J0D01*
G01*
X198246000Y-119172000D01*
G75*
G02*
X198096000Y-119022000I0J150000D01*
G01*
G37*
G36*
G01*
X198096000Y-120292000D02*
X198096000Y-119992000D01*
G75*
G02*
X198246000Y-119842000I150000J0D01*
G01*
X199896000Y-119842000D01*
G75*
G02*
X200046000Y-119992000I0J-150000D01*
G01*
X200046000Y-120292000D01*
G75*
G02*
X199896000Y-120442000I-150000J0D01*
G01*
X198246000Y-120442000D01*
G75*
G02*
X198096000Y-120292000I0J150000D01*
G01*
G37*
G36*
G01*
X193146000Y-120292000D02*
X193146000Y-119992000D01*
G75*
G02*
X193296000Y-119842000I150000J0D01*
G01*
X194946000Y-119842000D01*
G75*
G02*
X195096000Y-119992000I0J-150000D01*
G01*
X195096000Y-120292000D01*
G75*
G02*
X194946000Y-120442000I-150000J0D01*
G01*
X193296000Y-120442000D01*
G75*
G02*
X193146000Y-120292000I0J150000D01*
G01*
G37*
G36*
G01*
X193146000Y-119022000D02*
X193146000Y-118722000D01*
G75*
G02*
X193296000Y-118572000I150000J0D01*
G01*
X194946000Y-118572000D01*
G75*
G02*
X195096000Y-118722000I0J-150000D01*
G01*
X195096000Y-119022000D01*
G75*
G02*
X194946000Y-119172000I-150000J0D01*
G01*
X193296000Y-119172000D01*
G75*
G02*
X193146000Y-119022000I0J150000D01*
G01*
G37*
G36*
G01*
X193146000Y-117752000D02*
X193146000Y-117452000D01*
G75*
G02*
X193296000Y-117302000I150000J0D01*
G01*
X194946000Y-117302000D01*
G75*
G02*
X195096000Y-117452000I0J-150000D01*
G01*
X195096000Y-117752000D01*
G75*
G02*
X194946000Y-117902000I-150000J0D01*
G01*
X193296000Y-117902000D01*
G75*
G02*
X193146000Y-117752000I0J150000D01*
G01*
G37*
G36*
G01*
X193146000Y-116482000D02*
X193146000Y-116182000D01*
G75*
G02*
X193296000Y-116032000I150000J0D01*
G01*
X194946000Y-116032000D01*
G75*
G02*
X195096000Y-116182000I0J-150000D01*
G01*
X195096000Y-116482000D01*
G75*
G02*
X194946000Y-116632000I-150000J0D01*
G01*
X193296000Y-116632000D01*
G75*
G02*
X193146000Y-116482000I0J150000D01*
G01*
G37*
G36*
G01*
X193146000Y-115212000D02*
X193146000Y-114912000D01*
G75*
G02*
X193296000Y-114762000I150000J0D01*
G01*
X194946000Y-114762000D01*
G75*
G02*
X195096000Y-114912000I0J-150000D01*
G01*
X195096000Y-115212000D01*
G75*
G02*
X194946000Y-115362000I-150000J0D01*
G01*
X193296000Y-115362000D01*
G75*
G02*
X193146000Y-115212000I0J150000D01*
G01*
G37*
G36*
G01*
X193146000Y-113942000D02*
X193146000Y-113642000D01*
G75*
G02*
X193296000Y-113492000I150000J0D01*
G01*
X194946000Y-113492000D01*
G75*
G02*
X195096000Y-113642000I0J-150000D01*
G01*
X195096000Y-113942000D01*
G75*
G02*
X194946000Y-114092000I-150000J0D01*
G01*
X193296000Y-114092000D01*
G75*
G02*
X193146000Y-113942000I0J150000D01*
G01*
G37*
G36*
G01*
X193146000Y-112672000D02*
X193146000Y-112372000D01*
G75*
G02*
X193296000Y-112222000I150000J0D01*
G01*
X194946000Y-112222000D01*
G75*
G02*
X195096000Y-112372000I0J-150000D01*
G01*
X195096000Y-112672000D01*
G75*
G02*
X194946000Y-112822000I-150000J0D01*
G01*
X193296000Y-112822000D01*
G75*
G02*
X193146000Y-112672000I0J150000D01*
G01*
G37*
%TD*%
%TO.C,U3*%
G36*
G01*
X188952000Y-112672000D02*
X188952000Y-112372000D01*
G75*
G02*
X189102000Y-112222000I150000J0D01*
G01*
X190752000Y-112222000D01*
G75*
G02*
X190902000Y-112372000I0J-150000D01*
G01*
X190902000Y-112672000D01*
G75*
G02*
X190752000Y-112822000I-150000J0D01*
G01*
X189102000Y-112822000D01*
G75*
G02*
X188952000Y-112672000I0J150000D01*
G01*
G37*
G36*
G01*
X188952000Y-113942000D02*
X188952000Y-113642000D01*
G75*
G02*
X189102000Y-113492000I150000J0D01*
G01*
X190752000Y-113492000D01*
G75*
G02*
X190902000Y-113642000I0J-150000D01*
G01*
X190902000Y-113942000D01*
G75*
G02*
X190752000Y-114092000I-150000J0D01*
G01*
X189102000Y-114092000D01*
G75*
G02*
X188952000Y-113942000I0J150000D01*
G01*
G37*
G36*
G01*
X188952000Y-115212000D02*
X188952000Y-114912000D01*
G75*
G02*
X189102000Y-114762000I150000J0D01*
G01*
X190752000Y-114762000D01*
G75*
G02*
X190902000Y-114912000I0J-150000D01*
G01*
X190902000Y-115212000D01*
G75*
G02*
X190752000Y-115362000I-150000J0D01*
G01*
X189102000Y-115362000D01*
G75*
G02*
X188952000Y-115212000I0J150000D01*
G01*
G37*
G36*
G01*
X188952000Y-116482000D02*
X188952000Y-116182000D01*
G75*
G02*
X189102000Y-116032000I150000J0D01*
G01*
X190752000Y-116032000D01*
G75*
G02*
X190902000Y-116182000I0J-150000D01*
G01*
X190902000Y-116482000D01*
G75*
G02*
X190752000Y-116632000I-150000J0D01*
G01*
X189102000Y-116632000D01*
G75*
G02*
X188952000Y-116482000I0J150000D01*
G01*
G37*
G36*
G01*
X188952000Y-117752000D02*
X188952000Y-117452000D01*
G75*
G02*
X189102000Y-117302000I150000J0D01*
G01*
X190752000Y-117302000D01*
G75*
G02*
X190902000Y-117452000I0J-150000D01*
G01*
X190902000Y-117752000D01*
G75*
G02*
X190752000Y-117902000I-150000J0D01*
G01*
X189102000Y-117902000D01*
G75*
G02*
X188952000Y-117752000I0J150000D01*
G01*
G37*
G36*
G01*
X188952000Y-119022000D02*
X188952000Y-118722000D01*
G75*
G02*
X189102000Y-118572000I150000J0D01*
G01*
X190752000Y-118572000D01*
G75*
G02*
X190902000Y-118722000I0J-150000D01*
G01*
X190902000Y-119022000D01*
G75*
G02*
X190752000Y-119172000I-150000J0D01*
G01*
X189102000Y-119172000D01*
G75*
G02*
X188952000Y-119022000I0J150000D01*
G01*
G37*
G36*
G01*
X188952000Y-120292000D02*
X188952000Y-119992000D01*
G75*
G02*
X189102000Y-119842000I150000J0D01*
G01*
X190752000Y-119842000D01*
G75*
G02*
X190902000Y-119992000I0J-150000D01*
G01*
X190902000Y-120292000D01*
G75*
G02*
X190752000Y-120442000I-150000J0D01*
G01*
X189102000Y-120442000D01*
G75*
G02*
X188952000Y-120292000I0J150000D01*
G01*
G37*
G36*
G01*
X184002000Y-120292000D02*
X184002000Y-119992000D01*
G75*
G02*
X184152000Y-119842000I150000J0D01*
G01*
X185802000Y-119842000D01*
G75*
G02*
X185952000Y-119992000I0J-150000D01*
G01*
X185952000Y-120292000D01*
G75*
G02*
X185802000Y-120442000I-150000J0D01*
G01*
X184152000Y-120442000D01*
G75*
G02*
X184002000Y-120292000I0J150000D01*
G01*
G37*
G36*
G01*
X184002000Y-119022000D02*
X184002000Y-118722000D01*
G75*
G02*
X184152000Y-118572000I150000J0D01*
G01*
X185802000Y-118572000D01*
G75*
G02*
X185952000Y-118722000I0J-150000D01*
G01*
X185952000Y-119022000D01*
G75*
G02*
X185802000Y-119172000I-150000J0D01*
G01*
X184152000Y-119172000D01*
G75*
G02*
X184002000Y-119022000I0J150000D01*
G01*
G37*
G36*
G01*
X184002000Y-117752000D02*
X184002000Y-117452000D01*
G75*
G02*
X184152000Y-117302000I150000J0D01*
G01*
X185802000Y-117302000D01*
G75*
G02*
X185952000Y-117452000I0J-150000D01*
G01*
X185952000Y-117752000D01*
G75*
G02*
X185802000Y-117902000I-150000J0D01*
G01*
X184152000Y-117902000D01*
G75*
G02*
X184002000Y-117752000I0J150000D01*
G01*
G37*
G36*
G01*
X184002000Y-116482000D02*
X184002000Y-116182000D01*
G75*
G02*
X184152000Y-116032000I150000J0D01*
G01*
X185802000Y-116032000D01*
G75*
G02*
X185952000Y-116182000I0J-150000D01*
G01*
X185952000Y-116482000D01*
G75*
G02*
X185802000Y-116632000I-150000J0D01*
G01*
X184152000Y-116632000D01*
G75*
G02*
X184002000Y-116482000I0J150000D01*
G01*
G37*
G36*
G01*
X184002000Y-115212000D02*
X184002000Y-114912000D01*
G75*
G02*
X184152000Y-114762000I150000J0D01*
G01*
X185802000Y-114762000D01*
G75*
G02*
X185952000Y-114912000I0J-150000D01*
G01*
X185952000Y-115212000D01*
G75*
G02*
X185802000Y-115362000I-150000J0D01*
G01*
X184152000Y-115362000D01*
G75*
G02*
X184002000Y-115212000I0J150000D01*
G01*
G37*
G36*
G01*
X184002000Y-113942000D02*
X184002000Y-113642000D01*
G75*
G02*
X184152000Y-113492000I150000J0D01*
G01*
X185802000Y-113492000D01*
G75*
G02*
X185952000Y-113642000I0J-150000D01*
G01*
X185952000Y-113942000D01*
G75*
G02*
X185802000Y-114092000I-150000J0D01*
G01*
X184152000Y-114092000D01*
G75*
G02*
X184002000Y-113942000I0J150000D01*
G01*
G37*
G36*
G01*
X184002000Y-112672000D02*
X184002000Y-112372000D01*
G75*
G02*
X184152000Y-112222000I150000J0D01*
G01*
X185802000Y-112222000D01*
G75*
G02*
X185952000Y-112372000I0J-150000D01*
G01*
X185952000Y-112672000D01*
G75*
G02*
X185802000Y-112822000I-150000J0D01*
G01*
X184152000Y-112822000D01*
G75*
G02*
X184002000Y-112672000I0J150000D01*
G01*
G37*
%TD*%
%TO.C,U2*%
G36*
G01*
X172188000Y-112672000D02*
X172188000Y-112372000D01*
G75*
G02*
X172338000Y-112222000I150000J0D01*
G01*
X173988000Y-112222000D01*
G75*
G02*
X174138000Y-112372000I0J-150000D01*
G01*
X174138000Y-112672000D01*
G75*
G02*
X173988000Y-112822000I-150000J0D01*
G01*
X172338000Y-112822000D01*
G75*
G02*
X172188000Y-112672000I0J150000D01*
G01*
G37*
G36*
G01*
X172188000Y-113942000D02*
X172188000Y-113642000D01*
G75*
G02*
X172338000Y-113492000I150000J0D01*
G01*
X173988000Y-113492000D01*
G75*
G02*
X174138000Y-113642000I0J-150000D01*
G01*
X174138000Y-113942000D01*
G75*
G02*
X173988000Y-114092000I-150000J0D01*
G01*
X172338000Y-114092000D01*
G75*
G02*
X172188000Y-113942000I0J150000D01*
G01*
G37*
G36*
G01*
X172188000Y-115212000D02*
X172188000Y-114912000D01*
G75*
G02*
X172338000Y-114762000I150000J0D01*
G01*
X173988000Y-114762000D01*
G75*
G02*
X174138000Y-114912000I0J-150000D01*
G01*
X174138000Y-115212000D01*
G75*
G02*
X173988000Y-115362000I-150000J0D01*
G01*
X172338000Y-115362000D01*
G75*
G02*
X172188000Y-115212000I0J150000D01*
G01*
G37*
G36*
G01*
X172188000Y-116482000D02*
X172188000Y-116182000D01*
G75*
G02*
X172338000Y-116032000I150000J0D01*
G01*
X173988000Y-116032000D01*
G75*
G02*
X174138000Y-116182000I0J-150000D01*
G01*
X174138000Y-116482000D01*
G75*
G02*
X173988000Y-116632000I-150000J0D01*
G01*
X172338000Y-116632000D01*
G75*
G02*
X172188000Y-116482000I0J150000D01*
G01*
G37*
G36*
G01*
X172188000Y-117752000D02*
X172188000Y-117452000D01*
G75*
G02*
X172338000Y-117302000I150000J0D01*
G01*
X173988000Y-117302000D01*
G75*
G02*
X174138000Y-117452000I0J-150000D01*
G01*
X174138000Y-117752000D01*
G75*
G02*
X173988000Y-117902000I-150000J0D01*
G01*
X172338000Y-117902000D01*
G75*
G02*
X172188000Y-117752000I0J150000D01*
G01*
G37*
G36*
G01*
X172188000Y-119022000D02*
X172188000Y-118722000D01*
G75*
G02*
X172338000Y-118572000I150000J0D01*
G01*
X173988000Y-118572000D01*
G75*
G02*
X174138000Y-118722000I0J-150000D01*
G01*
X174138000Y-119022000D01*
G75*
G02*
X173988000Y-119172000I-150000J0D01*
G01*
X172338000Y-119172000D01*
G75*
G02*
X172188000Y-119022000I0J150000D01*
G01*
G37*
G36*
G01*
X172188000Y-120292000D02*
X172188000Y-119992000D01*
G75*
G02*
X172338000Y-119842000I150000J0D01*
G01*
X173988000Y-119842000D01*
G75*
G02*
X174138000Y-119992000I0J-150000D01*
G01*
X174138000Y-120292000D01*
G75*
G02*
X173988000Y-120442000I-150000J0D01*
G01*
X172338000Y-120442000D01*
G75*
G02*
X172188000Y-120292000I0J150000D01*
G01*
G37*
G36*
G01*
X167238000Y-120292000D02*
X167238000Y-119992000D01*
G75*
G02*
X167388000Y-119842000I150000J0D01*
G01*
X169038000Y-119842000D01*
G75*
G02*
X169188000Y-119992000I0J-150000D01*
G01*
X169188000Y-120292000D01*
G75*
G02*
X169038000Y-120442000I-150000J0D01*
G01*
X167388000Y-120442000D01*
G75*
G02*
X167238000Y-120292000I0J150000D01*
G01*
G37*
G36*
G01*
X167238000Y-119022000D02*
X167238000Y-118722000D01*
G75*
G02*
X167388000Y-118572000I150000J0D01*
G01*
X169038000Y-118572000D01*
G75*
G02*
X169188000Y-118722000I0J-150000D01*
G01*
X169188000Y-119022000D01*
G75*
G02*
X169038000Y-119172000I-150000J0D01*
G01*
X167388000Y-119172000D01*
G75*
G02*
X167238000Y-119022000I0J150000D01*
G01*
G37*
G36*
G01*
X167238000Y-117752000D02*
X167238000Y-117452000D01*
G75*
G02*
X167388000Y-117302000I150000J0D01*
G01*
X169038000Y-117302000D01*
G75*
G02*
X169188000Y-117452000I0J-150000D01*
G01*
X169188000Y-117752000D01*
G75*
G02*
X169038000Y-117902000I-150000J0D01*
G01*
X167388000Y-117902000D01*
G75*
G02*
X167238000Y-117752000I0J150000D01*
G01*
G37*
G36*
G01*
X167238000Y-116482000D02*
X167238000Y-116182000D01*
G75*
G02*
X167388000Y-116032000I150000J0D01*
G01*
X169038000Y-116032000D01*
G75*
G02*
X169188000Y-116182000I0J-150000D01*
G01*
X169188000Y-116482000D01*
G75*
G02*
X169038000Y-116632000I-150000J0D01*
G01*
X167388000Y-116632000D01*
G75*
G02*
X167238000Y-116482000I0J150000D01*
G01*
G37*
G36*
G01*
X167238000Y-115212000D02*
X167238000Y-114912000D01*
G75*
G02*
X167388000Y-114762000I150000J0D01*
G01*
X169038000Y-114762000D01*
G75*
G02*
X169188000Y-114912000I0J-150000D01*
G01*
X169188000Y-115212000D01*
G75*
G02*
X169038000Y-115362000I-150000J0D01*
G01*
X167388000Y-115362000D01*
G75*
G02*
X167238000Y-115212000I0J150000D01*
G01*
G37*
G36*
G01*
X167238000Y-113942000D02*
X167238000Y-113642000D01*
G75*
G02*
X167388000Y-113492000I150000J0D01*
G01*
X169038000Y-113492000D01*
G75*
G02*
X169188000Y-113642000I0J-150000D01*
G01*
X169188000Y-113942000D01*
G75*
G02*
X169038000Y-114092000I-150000J0D01*
G01*
X167388000Y-114092000D01*
G75*
G02*
X167238000Y-113942000I0J150000D01*
G01*
G37*
G36*
G01*
X167238000Y-112672000D02*
X167238000Y-112372000D01*
G75*
G02*
X167388000Y-112222000I150000J0D01*
G01*
X169038000Y-112222000D01*
G75*
G02*
X169188000Y-112372000I0J-150000D01*
G01*
X169188000Y-112672000D01*
G75*
G02*
X169038000Y-112822000I-150000J0D01*
G01*
X167388000Y-112822000D01*
G75*
G02*
X167238000Y-112672000I0J150000D01*
G01*
G37*
%TD*%
D16*
%TO.C,U1*%
X168896000Y-105004000D03*
X173496000Y-105004000D03*
X171196000Y-105004000D03*
D17*
X171196000Y-98704000D03*
%TD*%
D18*
%TO.C,S3*%
X205232000Y-147320000D03*
%TD*%
%TO.C,S2*%
X201168000Y-147320000D03*
%TD*%
%TO.C,S1*%
X197104000Y-147320000D03*
%TD*%
D19*
%TO.C,VApp1*%
X193274000Y-146992000D03*
D20*
X192024000Y-144092000D03*
D19*
X190774000Y-146992000D03*
%TD*%
%TO.C,VBrk1*%
X186670000Y-146992000D03*
D20*
X185420000Y-144092000D03*
D19*
X184170000Y-146992000D03*
%TD*%
D21*
%TO.C,V0.5*%
X160909000Y-148099000D03*
X163449000Y-140699000D03*
X165989000Y-148099000D03*
%TD*%
%TO.C,V4.5*%
X168529000Y-148099000D03*
X171069000Y-140699000D03*
X173609000Y-148099000D03*
%TD*%
%TO.C,VC1*%
X176149000Y-148099000D03*
X178689000Y-140699000D03*
X181229000Y-148099000D03*
%TD*%
D22*
%TO.C,VT2*%
X219312000Y-132080000D03*
X226712000Y-134620000D03*
X219312000Y-137160000D03*
%TD*%
%TO.C,VT1*%
X219312000Y-116332000D03*
X226712000Y-118872000D03*
X219312000Y-121412000D03*
%TD*%
%TO.C,R54*%
G36*
G01*
X177560000Y-132428000D02*
X177560000Y-132748000D01*
G75*
G02*
X177400000Y-132908000I-160000J0D01*
G01*
X177005000Y-132908000D01*
G75*
G02*
X176845000Y-132748000I0J160000D01*
G01*
X176845000Y-132428000D01*
G75*
G02*
X177005000Y-132268000I160000J0D01*
G01*
X177400000Y-132268000D01*
G75*
G02*
X177560000Y-132428000I0J-160000D01*
G01*
G37*
G36*
G01*
X178755000Y-132428000D02*
X178755000Y-132748000D01*
G75*
G02*
X178595000Y-132908000I-160000J0D01*
G01*
X178200000Y-132908000D01*
G75*
G02*
X178040000Y-132748000I0J160000D01*
G01*
X178040000Y-132428000D01*
G75*
G02*
X178200000Y-132268000I160000J0D01*
G01*
X178595000Y-132268000D01*
G75*
G02*
X178755000Y-132428000I0J-160000D01*
G01*
G37*
%TD*%
%TO.C,R55*%
G36*
G01*
X190232000Y-123350000D02*
X190232000Y-123030000D01*
G75*
G02*
X190392000Y-122870000I160000J0D01*
G01*
X190787000Y-122870000D01*
G75*
G02*
X190947000Y-123030000I0J-160000D01*
G01*
X190947000Y-123350000D01*
G75*
G02*
X190787000Y-123510000I-160000J0D01*
G01*
X190392000Y-123510000D01*
G75*
G02*
X190232000Y-123350000I0J160000D01*
G01*
G37*
G36*
G01*
X189037000Y-123350000D02*
X189037000Y-123030000D01*
G75*
G02*
X189197000Y-122870000I160000J0D01*
G01*
X189592000Y-122870000D01*
G75*
G02*
X189752000Y-123030000I0J-160000D01*
G01*
X189752000Y-123350000D01*
G75*
G02*
X189592000Y-123510000I-160000J0D01*
G01*
X189197000Y-123510000D01*
G75*
G02*
X189037000Y-123350000I0J160000D01*
G01*
G37*
%TD*%
%TO.C,R94*%
G36*
G01*
X200838500Y-139540000D02*
X200838500Y-139860000D01*
G75*
G02*
X200678500Y-140020000I-160000J0D01*
G01*
X200283500Y-140020000D01*
G75*
G02*
X200123500Y-139860000I0J160000D01*
G01*
X200123500Y-139540000D01*
G75*
G02*
X200283500Y-139380000I160000J0D01*
G01*
X200678500Y-139380000D01*
G75*
G02*
X200838500Y-139540000I0J-160000D01*
G01*
G37*
G36*
G01*
X202033500Y-139540000D02*
X202033500Y-139860000D01*
G75*
G02*
X201873500Y-140020000I-160000J0D01*
G01*
X201478500Y-140020000D01*
G75*
G02*
X201318500Y-139860000I0J160000D01*
G01*
X201318500Y-139540000D01*
G75*
G02*
X201478500Y-139380000I160000J0D01*
G01*
X201873500Y-139380000D01*
G75*
G02*
X202033500Y-139540000I0J-160000D01*
G01*
G37*
%TD*%
%TO.C,R53*%
G36*
G01*
X163397500Y-135796000D02*
X163397500Y-135476000D01*
G75*
G02*
X163557500Y-135316000I160000J0D01*
G01*
X163952500Y-135316000D01*
G75*
G02*
X164112500Y-135476000I0J-160000D01*
G01*
X164112500Y-135796000D01*
G75*
G02*
X163952500Y-135956000I-160000J0D01*
G01*
X163557500Y-135956000D01*
G75*
G02*
X163397500Y-135796000I0J160000D01*
G01*
G37*
G36*
G01*
X162202500Y-135796000D02*
X162202500Y-135476000D01*
G75*
G02*
X162362500Y-135316000I160000J0D01*
G01*
X162757500Y-135316000D01*
G75*
G02*
X162917500Y-135476000I0J-160000D01*
G01*
X162917500Y-135796000D01*
G75*
G02*
X162757500Y-135956000I-160000J0D01*
G01*
X162362500Y-135956000D01*
G75*
G02*
X162202500Y-135796000I0J160000D01*
G01*
G37*
%TD*%
%TO.C,R92*%
G36*
G01*
X210472000Y-134888000D02*
X210152000Y-134888000D01*
G75*
G02*
X209992000Y-134728000I0J160000D01*
G01*
X209992000Y-134333000D01*
G75*
G02*
X210152000Y-134173000I160000J0D01*
G01*
X210472000Y-134173000D01*
G75*
G02*
X210632000Y-134333000I0J-160000D01*
G01*
X210632000Y-134728000D01*
G75*
G02*
X210472000Y-134888000I-160000J0D01*
G01*
G37*
G36*
G01*
X210472000Y-136083000D02*
X210152000Y-136083000D01*
G75*
G02*
X209992000Y-135923000I0J160000D01*
G01*
X209992000Y-135528000D01*
G75*
G02*
X210152000Y-135368000I160000J0D01*
G01*
X210472000Y-135368000D01*
G75*
G02*
X210632000Y-135528000I0J-160000D01*
G01*
X210632000Y-135923000D01*
G75*
G02*
X210472000Y-136083000I-160000J0D01*
G01*
G37*
%TD*%
%TO.C,R91*%
G36*
G01*
X201497500Y-144432000D02*
X201497500Y-144112000D01*
G75*
G02*
X201657500Y-143952000I160000J0D01*
G01*
X202052500Y-143952000D01*
G75*
G02*
X202212500Y-144112000I0J-160000D01*
G01*
X202212500Y-144432000D01*
G75*
G02*
X202052500Y-144592000I-160000J0D01*
G01*
X201657500Y-144592000D01*
G75*
G02*
X201497500Y-144432000I0J160000D01*
G01*
G37*
G36*
G01*
X200302500Y-144432000D02*
X200302500Y-144112000D01*
G75*
G02*
X200462500Y-143952000I160000J0D01*
G01*
X200857500Y-143952000D01*
G75*
G02*
X201017500Y-144112000I0J-160000D01*
G01*
X201017500Y-144432000D01*
G75*
G02*
X200857500Y-144592000I-160000J0D01*
G01*
X200462500Y-144592000D01*
G75*
G02*
X200302500Y-144432000I0J160000D01*
G01*
G37*
%TD*%
%TO.C,R51*%
G36*
G01*
X161384000Y-135368000D02*
X161704000Y-135368000D01*
G75*
G02*
X161864000Y-135528000I0J-160000D01*
G01*
X161864000Y-135923000D01*
G75*
G02*
X161704000Y-136083000I-160000J0D01*
G01*
X161384000Y-136083000D01*
G75*
G02*
X161224000Y-135923000I0J160000D01*
G01*
X161224000Y-135528000D01*
G75*
G02*
X161384000Y-135368000I160000J0D01*
G01*
G37*
G36*
G01*
X161384000Y-134173000D02*
X161704000Y-134173000D01*
G75*
G02*
X161864000Y-134333000I0J-160000D01*
G01*
X161864000Y-134728000D01*
G75*
G02*
X161704000Y-134888000I-160000J0D01*
G01*
X161384000Y-134888000D01*
G75*
G02*
X161224000Y-134728000I0J160000D01*
G01*
X161224000Y-134333000D01*
G75*
G02*
X161384000Y-134173000I160000J0D01*
G01*
G37*
%TD*%
%TO.C,R103*%
G36*
G01*
X217574500Y-104300000D02*
X217574500Y-103980000D01*
G75*
G02*
X217734500Y-103820000I160000J0D01*
G01*
X218129500Y-103820000D01*
G75*
G02*
X218289500Y-103980000I0J-160000D01*
G01*
X218289500Y-104300000D01*
G75*
G02*
X218129500Y-104460000I-160000J0D01*
G01*
X217734500Y-104460000D01*
G75*
G02*
X217574500Y-104300000I0J160000D01*
G01*
G37*
G36*
G01*
X216379500Y-104300000D02*
X216379500Y-103980000D01*
G75*
G02*
X216539500Y-103820000I160000J0D01*
G01*
X216934500Y-103820000D01*
G75*
G02*
X217094500Y-103980000I0J-160000D01*
G01*
X217094500Y-104300000D01*
G75*
G02*
X216934500Y-104460000I-160000J0D01*
G01*
X216539500Y-104460000D01*
G75*
G02*
X216379500Y-104300000I0J160000D01*
G01*
G37*
%TD*%
%TO.C,R102*%
G36*
G01*
X217574500Y-102776000D02*
X217574500Y-102456000D01*
G75*
G02*
X217734500Y-102296000I160000J0D01*
G01*
X218129500Y-102296000D01*
G75*
G02*
X218289500Y-102456000I0J-160000D01*
G01*
X218289500Y-102776000D01*
G75*
G02*
X218129500Y-102936000I-160000J0D01*
G01*
X217734500Y-102936000D01*
G75*
G02*
X217574500Y-102776000I0J160000D01*
G01*
G37*
G36*
G01*
X216379500Y-102776000D02*
X216379500Y-102456000D01*
G75*
G02*
X216539500Y-102296000I160000J0D01*
G01*
X216934500Y-102296000D01*
G75*
G02*
X217094500Y-102456000I0J-160000D01*
G01*
X217094500Y-102776000D01*
G75*
G02*
X216934500Y-102936000I-160000J0D01*
G01*
X216539500Y-102936000D01*
G75*
G02*
X216379500Y-102776000I0J160000D01*
G01*
G37*
%TD*%
%TO.C,R84*%
G36*
G01*
X205410500Y-124300000D02*
X205410500Y-124620000D01*
G75*
G02*
X205250500Y-124780000I-160000J0D01*
G01*
X204855500Y-124780000D01*
G75*
G02*
X204695500Y-124620000I0J160000D01*
G01*
X204695500Y-124300000D01*
G75*
G02*
X204855500Y-124140000I160000J0D01*
G01*
X205250500Y-124140000D01*
G75*
G02*
X205410500Y-124300000I0J-160000D01*
G01*
G37*
G36*
G01*
X206605500Y-124300000D02*
X206605500Y-124620000D01*
G75*
G02*
X206445500Y-124780000I-160000J0D01*
G01*
X206050500Y-124780000D01*
G75*
G02*
X205890500Y-124620000I0J160000D01*
G01*
X205890500Y-124300000D01*
G75*
G02*
X206050500Y-124140000I160000J0D01*
G01*
X206445500Y-124140000D01*
G75*
G02*
X206605500Y-124300000I0J-160000D01*
G01*
G37*
%TD*%
%TO.C,R44*%
G36*
G01*
X181723000Y-113825000D02*
X181723000Y-113505000D01*
G75*
G02*
X181883000Y-113345000I160000J0D01*
G01*
X182278000Y-113345000D01*
G75*
G02*
X182438000Y-113505000I0J-160000D01*
G01*
X182438000Y-113825000D01*
G75*
G02*
X182278000Y-113985000I-160000J0D01*
G01*
X181883000Y-113985000D01*
G75*
G02*
X181723000Y-113825000I0J160000D01*
G01*
G37*
G36*
G01*
X180528000Y-113825000D02*
X180528000Y-113505000D01*
G75*
G02*
X180688000Y-113345000I160000J0D01*
G01*
X181083000Y-113345000D01*
G75*
G02*
X181243000Y-113505000I0J-160000D01*
G01*
X181243000Y-113825000D01*
G75*
G02*
X181083000Y-113985000I-160000J0D01*
G01*
X180688000Y-113985000D01*
G75*
G02*
X180528000Y-113825000I0J160000D01*
G01*
G37*
%TD*%
%TO.C,R82*%
G36*
G01*
X215740000Y-119620000D02*
X216060000Y-119620000D01*
G75*
G02*
X216220000Y-119780000I0J-160000D01*
G01*
X216220000Y-120175000D01*
G75*
G02*
X216060000Y-120335000I-160000J0D01*
G01*
X215740000Y-120335000D01*
G75*
G02*
X215580000Y-120175000I0J160000D01*
G01*
X215580000Y-119780000D01*
G75*
G02*
X215740000Y-119620000I160000J0D01*
G01*
G37*
G36*
G01*
X215740000Y-118425000D02*
X216060000Y-118425000D01*
G75*
G02*
X216220000Y-118585000I0J-160000D01*
G01*
X216220000Y-118980000D01*
G75*
G02*
X216060000Y-119140000I-160000J0D01*
G01*
X215740000Y-119140000D01*
G75*
G02*
X215580000Y-118980000I0J160000D01*
G01*
X215580000Y-118585000D01*
G75*
G02*
X215740000Y-118425000I160000J0D01*
G01*
G37*
%TD*%
%TO.C,R81*%
G36*
G01*
X205980000Y-128684000D02*
X205980000Y-128364000D01*
G75*
G02*
X206140000Y-128204000I160000J0D01*
G01*
X206535000Y-128204000D01*
G75*
G02*
X206695000Y-128364000I0J-160000D01*
G01*
X206695000Y-128684000D01*
G75*
G02*
X206535000Y-128844000I-160000J0D01*
G01*
X206140000Y-128844000D01*
G75*
G02*
X205980000Y-128684000I0J160000D01*
G01*
G37*
G36*
G01*
X204785000Y-128684000D02*
X204785000Y-128364000D01*
G75*
G02*
X204945000Y-128204000I160000J0D01*
G01*
X205340000Y-128204000D01*
G75*
G02*
X205500000Y-128364000I0J-160000D01*
G01*
X205500000Y-128684000D01*
G75*
G02*
X205340000Y-128844000I-160000J0D01*
G01*
X204945000Y-128844000D01*
G75*
G02*
X204785000Y-128684000I0J160000D01*
G01*
G37*
%TD*%
%TO.C,R45*%
G36*
G01*
X190232000Y-122080000D02*
X190232000Y-121760000D01*
G75*
G02*
X190392000Y-121600000I160000J0D01*
G01*
X190787000Y-121600000D01*
G75*
G02*
X190947000Y-121760000I0J-160000D01*
G01*
X190947000Y-122080000D01*
G75*
G02*
X190787000Y-122240000I-160000J0D01*
G01*
X190392000Y-122240000D01*
G75*
G02*
X190232000Y-122080000I0J160000D01*
G01*
G37*
G36*
G01*
X189037000Y-122080000D02*
X189037000Y-121760000D01*
G75*
G02*
X189197000Y-121600000I160000J0D01*
G01*
X189592000Y-121600000D01*
G75*
G02*
X189752000Y-121760000I0J-160000D01*
G01*
X189752000Y-122080000D01*
G75*
G02*
X189592000Y-122240000I-160000J0D01*
G01*
X189197000Y-122240000D01*
G75*
G02*
X189037000Y-122080000I0J160000D01*
G01*
G37*
%TD*%
%TO.C,R101*%
G36*
G01*
X225185000Y-112997000D02*
X225185000Y-113317000D01*
G75*
G02*
X225025000Y-113477000I-160000J0D01*
G01*
X224630000Y-113477000D01*
G75*
G02*
X224470000Y-113317000I0J160000D01*
G01*
X224470000Y-112997000D01*
G75*
G02*
X224630000Y-112837000I160000J0D01*
G01*
X225025000Y-112837000D01*
G75*
G02*
X225185000Y-112997000I0J-160000D01*
G01*
G37*
G36*
G01*
X226380000Y-112997000D02*
X226380000Y-113317000D01*
G75*
G02*
X226220000Y-113477000I-160000J0D01*
G01*
X225825000Y-113477000D01*
G75*
G02*
X225665000Y-113317000I0J160000D01*
G01*
X225665000Y-112997000D01*
G75*
G02*
X225825000Y-112837000I160000J0D01*
G01*
X226220000Y-112837000D01*
G75*
G02*
X226380000Y-112997000I0J-160000D01*
G01*
G37*
%TD*%
%TO.C,R43*%
G36*
G01*
X163726500Y-119540000D02*
X163726500Y-119220000D01*
G75*
G02*
X163886500Y-119060000I160000J0D01*
G01*
X164281500Y-119060000D01*
G75*
G02*
X164441500Y-119220000I0J-160000D01*
G01*
X164441500Y-119540000D01*
G75*
G02*
X164281500Y-119700000I-160000J0D01*
G01*
X163886500Y-119700000D01*
G75*
G02*
X163726500Y-119540000I0J160000D01*
G01*
G37*
G36*
G01*
X162531500Y-119540000D02*
X162531500Y-119220000D01*
G75*
G02*
X162691500Y-119060000I160000J0D01*
G01*
X163086500Y-119060000D01*
G75*
G02*
X163246500Y-119220000I0J-160000D01*
G01*
X163246500Y-119540000D01*
G75*
G02*
X163086500Y-119700000I-160000J0D01*
G01*
X162691500Y-119700000D01*
G75*
G02*
X162531500Y-119540000I0J160000D01*
G01*
G37*
%TD*%
%TO.C,R31*%
G36*
G01*
X182532000Y-108382500D02*
X182212000Y-108382500D01*
G75*
G02*
X182052000Y-108222500I0J160000D01*
G01*
X182052000Y-107827500D01*
G75*
G02*
X182212000Y-107667500I160000J0D01*
G01*
X182532000Y-107667500D01*
G75*
G02*
X182692000Y-107827500I0J-160000D01*
G01*
X182692000Y-108222500D01*
G75*
G02*
X182532000Y-108382500I-160000J0D01*
G01*
G37*
G36*
G01*
X182532000Y-109577500D02*
X182212000Y-109577500D01*
G75*
G02*
X182052000Y-109417500I0J160000D01*
G01*
X182052000Y-109022500D01*
G75*
G02*
X182212000Y-108862500I160000J0D01*
G01*
X182532000Y-108862500D01*
G75*
G02*
X182692000Y-109022500I0J-160000D01*
G01*
X182692000Y-109417500D01*
G75*
G02*
X182532000Y-109577500I-160000J0D01*
G01*
G37*
%TD*%
%TO.C,R42*%
G36*
G01*
X163726500Y-114968000D02*
X163726500Y-114648000D01*
G75*
G02*
X163886500Y-114488000I160000J0D01*
G01*
X164281500Y-114488000D01*
G75*
G02*
X164441500Y-114648000I0J-160000D01*
G01*
X164441500Y-114968000D01*
G75*
G02*
X164281500Y-115128000I-160000J0D01*
G01*
X163886500Y-115128000D01*
G75*
G02*
X163726500Y-114968000I0J160000D01*
G01*
G37*
G36*
G01*
X162531500Y-114968000D02*
X162531500Y-114648000D01*
G75*
G02*
X162691500Y-114488000I160000J0D01*
G01*
X163086500Y-114488000D01*
G75*
G02*
X163246500Y-114648000I0J-160000D01*
G01*
X163246500Y-114968000D01*
G75*
G02*
X163086500Y-115128000I-160000J0D01*
G01*
X162691500Y-115128000D01*
G75*
G02*
X162531500Y-114968000I0J160000D01*
G01*
G37*
%TD*%
%TO.C,R41*%
G36*
G01*
X161958000Y-126087500D02*
X161638000Y-126087500D01*
G75*
G02*
X161478000Y-125927500I0J160000D01*
G01*
X161478000Y-125532500D01*
G75*
G02*
X161638000Y-125372500I160000J0D01*
G01*
X161958000Y-125372500D01*
G75*
G02*
X162118000Y-125532500I0J-160000D01*
G01*
X162118000Y-125927500D01*
G75*
G02*
X161958000Y-126087500I-160000J0D01*
G01*
G37*
G36*
G01*
X161958000Y-127282500D02*
X161638000Y-127282500D01*
G75*
G02*
X161478000Y-127122500I0J160000D01*
G01*
X161478000Y-126727500D01*
G75*
G02*
X161638000Y-126567500I160000J0D01*
G01*
X161958000Y-126567500D01*
G75*
G02*
X162118000Y-126727500I0J-160000D01*
G01*
X162118000Y-127122500D01*
G75*
G02*
X161958000Y-127282500I-160000J0D01*
G01*
G37*
%TD*%
%TO.C,R72*%
G36*
G01*
X185622500Y-137066000D02*
X185622500Y-136746000D01*
G75*
G02*
X185782500Y-136586000I160000J0D01*
G01*
X186177500Y-136586000D01*
G75*
G02*
X186337500Y-136746000I0J-160000D01*
G01*
X186337500Y-137066000D01*
G75*
G02*
X186177500Y-137226000I-160000J0D01*
G01*
X185782500Y-137226000D01*
G75*
G02*
X185622500Y-137066000I0J160000D01*
G01*
G37*
G36*
G01*
X184427500Y-137066000D02*
X184427500Y-136746000D01*
G75*
G02*
X184587500Y-136586000I160000J0D01*
G01*
X184982500Y-136586000D01*
G75*
G02*
X185142500Y-136746000I0J-160000D01*
G01*
X185142500Y-137066000D01*
G75*
G02*
X184982500Y-137226000I-160000J0D01*
G01*
X184587500Y-137226000D01*
G75*
G02*
X184427500Y-137066000I0J160000D01*
G01*
G37*
%TD*%
%TO.C,R71*%
G36*
G01*
X185570500Y-122207000D02*
X185570500Y-121887000D01*
G75*
G02*
X185730500Y-121727000I160000J0D01*
G01*
X186125500Y-121727000D01*
G75*
G02*
X186285500Y-121887000I0J-160000D01*
G01*
X186285500Y-122207000D01*
G75*
G02*
X186125500Y-122367000I-160000J0D01*
G01*
X185730500Y-122367000D01*
G75*
G02*
X185570500Y-122207000I0J160000D01*
G01*
G37*
G36*
G01*
X184375500Y-122207000D02*
X184375500Y-121887000D01*
G75*
G02*
X184535500Y-121727000I160000J0D01*
G01*
X184930500Y-121727000D01*
G75*
G02*
X185090500Y-121887000I0J-160000D01*
G01*
X185090500Y-122207000D01*
G75*
G02*
X184930500Y-122367000I-160000J0D01*
G01*
X184535500Y-122367000D01*
G75*
G02*
X184375500Y-122207000I0J160000D01*
G01*
G37*
%TD*%
%TO.C,R76*%
G36*
G01*
X211596000Y-113632000D02*
X211596000Y-113952000D01*
G75*
G02*
X211436000Y-114112000I-160000J0D01*
G01*
X211041000Y-114112000D01*
G75*
G02*
X210881000Y-113952000I0J160000D01*
G01*
X210881000Y-113632000D01*
G75*
G02*
X211041000Y-113472000I160000J0D01*
G01*
X211436000Y-113472000D01*
G75*
G02*
X211596000Y-113632000I0J-160000D01*
G01*
G37*
G36*
G01*
X212791000Y-113632000D02*
X212791000Y-113952000D01*
G75*
G02*
X212631000Y-114112000I-160000J0D01*
G01*
X212236000Y-114112000D01*
G75*
G02*
X212076000Y-113952000I0J160000D01*
G01*
X212076000Y-113632000D01*
G75*
G02*
X212236000Y-113472000I160000J0D01*
G01*
X212631000Y-113472000D01*
G75*
G02*
X212791000Y-113632000I0J-160000D01*
G01*
G37*
%TD*%
%TO.C,R74*%
G36*
G01*
X195820000Y-137828000D02*
X195820000Y-137508000D01*
G75*
G02*
X195980000Y-137348000I160000J0D01*
G01*
X196375000Y-137348000D01*
G75*
G02*
X196535000Y-137508000I0J-160000D01*
G01*
X196535000Y-137828000D01*
G75*
G02*
X196375000Y-137988000I-160000J0D01*
G01*
X195980000Y-137988000D01*
G75*
G02*
X195820000Y-137828000I0J160000D01*
G01*
G37*
G36*
G01*
X194625000Y-137828000D02*
X194625000Y-137508000D01*
G75*
G02*
X194785000Y-137348000I160000J0D01*
G01*
X195180000Y-137348000D01*
G75*
G02*
X195340000Y-137508000I0J-160000D01*
G01*
X195340000Y-137828000D01*
G75*
G02*
X195180000Y-137988000I-160000J0D01*
G01*
X194785000Y-137988000D01*
G75*
G02*
X194625000Y-137828000I0J160000D01*
G01*
G37*
%TD*%
%TO.C,R75*%
G36*
G01*
X199465500Y-124112000D02*
X199465500Y-123792000D01*
G75*
G02*
X199625500Y-123632000I160000J0D01*
G01*
X200020500Y-123632000D01*
G75*
G02*
X200180500Y-123792000I0J-160000D01*
G01*
X200180500Y-124112000D01*
G75*
G02*
X200020500Y-124272000I-160000J0D01*
G01*
X199625500Y-124272000D01*
G75*
G02*
X199465500Y-124112000I0J160000D01*
G01*
G37*
G36*
G01*
X198270500Y-124112000D02*
X198270500Y-123792000D01*
G75*
G02*
X198430500Y-123632000I160000J0D01*
G01*
X198825500Y-123632000D01*
G75*
G02*
X198985500Y-123792000I0J-160000D01*
G01*
X198985500Y-124112000D01*
G75*
G02*
X198825500Y-124272000I-160000J0D01*
G01*
X198430500Y-124272000D01*
G75*
G02*
X198270500Y-124112000I0J160000D01*
G01*
G37*
%TD*%
%TO.C,R78*%
G36*
G01*
X211596000Y-112108000D02*
X211596000Y-112428000D01*
G75*
G02*
X211436000Y-112588000I-160000J0D01*
G01*
X211041000Y-112588000D01*
G75*
G02*
X210881000Y-112428000I0J160000D01*
G01*
X210881000Y-112108000D01*
G75*
G02*
X211041000Y-111948000I160000J0D01*
G01*
X211436000Y-111948000D01*
G75*
G02*
X211596000Y-112108000I0J-160000D01*
G01*
G37*
G36*
G01*
X212791000Y-112108000D02*
X212791000Y-112428000D01*
G75*
G02*
X212631000Y-112588000I-160000J0D01*
G01*
X212236000Y-112588000D01*
G75*
G02*
X212076000Y-112428000I0J160000D01*
G01*
X212076000Y-112108000D01*
G75*
G02*
X212236000Y-111948000I160000J0D01*
G01*
X212631000Y-111948000D01*
G75*
G02*
X212791000Y-112108000I0J-160000D01*
G01*
G37*
%TD*%
%TO.C,R73*%
G36*
G01*
X185622500Y-138463000D02*
X185622500Y-138143000D01*
G75*
G02*
X185782500Y-137983000I160000J0D01*
G01*
X186177500Y-137983000D01*
G75*
G02*
X186337500Y-138143000I0J-160000D01*
G01*
X186337500Y-138463000D01*
G75*
G02*
X186177500Y-138623000I-160000J0D01*
G01*
X185782500Y-138623000D01*
G75*
G02*
X185622500Y-138463000I0J160000D01*
G01*
G37*
G36*
G01*
X184427500Y-138463000D02*
X184427500Y-138143000D01*
G75*
G02*
X184587500Y-137983000I160000J0D01*
G01*
X184982500Y-137983000D01*
G75*
G02*
X185142500Y-138143000I0J-160000D01*
G01*
X185142500Y-138463000D01*
G75*
G02*
X184982500Y-138623000I-160000J0D01*
G01*
X184587500Y-138623000D01*
G75*
G02*
X184427500Y-138463000I0J160000D01*
G01*
G37*
%TD*%
%TO.C,R27*%
G36*
G01*
X185533000Y-123477000D02*
X185533000Y-123157000D01*
G75*
G02*
X185693000Y-122997000I160000J0D01*
G01*
X186088000Y-122997000D01*
G75*
G02*
X186248000Y-123157000I0J-160000D01*
G01*
X186248000Y-123477000D01*
G75*
G02*
X186088000Y-123637000I-160000J0D01*
G01*
X185693000Y-123637000D01*
G75*
G02*
X185533000Y-123477000I0J160000D01*
G01*
G37*
G36*
G01*
X184338000Y-123477000D02*
X184338000Y-123157000D01*
G75*
G02*
X184498000Y-122997000I160000J0D01*
G01*
X184893000Y-122997000D01*
G75*
G02*
X185053000Y-123157000I0J-160000D01*
G01*
X185053000Y-123477000D01*
G75*
G02*
X184893000Y-123637000I-160000J0D01*
G01*
X184498000Y-123637000D01*
G75*
G02*
X184338000Y-123477000I0J160000D01*
G01*
G37*
%TD*%
%TO.C,R25*%
G36*
G01*
X175608000Y-125626500D02*
X175928000Y-125626500D01*
G75*
G02*
X176088000Y-125786500I0J-160000D01*
G01*
X176088000Y-126181500D01*
G75*
G02*
X175928000Y-126341500I-160000J0D01*
G01*
X175608000Y-126341500D01*
G75*
G02*
X175448000Y-126181500I0J160000D01*
G01*
X175448000Y-125786500D01*
G75*
G02*
X175608000Y-125626500I160000J0D01*
G01*
G37*
G36*
G01*
X175608000Y-124431500D02*
X175928000Y-124431500D01*
G75*
G02*
X176088000Y-124591500I0J-160000D01*
G01*
X176088000Y-124986500D01*
G75*
G02*
X175928000Y-125146500I-160000J0D01*
G01*
X175608000Y-125146500D01*
G75*
G02*
X175448000Y-124986500I0J160000D01*
G01*
X175448000Y-124591500D01*
G75*
G02*
X175608000Y-124431500I160000J0D01*
G01*
G37*
%TD*%
%TO.C,R24*%
G36*
G01*
X175608000Y-122832500D02*
X175928000Y-122832500D01*
G75*
G02*
X176088000Y-122992500I0J-160000D01*
G01*
X176088000Y-123387500D01*
G75*
G02*
X175928000Y-123547500I-160000J0D01*
G01*
X175608000Y-123547500D01*
G75*
G02*
X175448000Y-123387500I0J160000D01*
G01*
X175448000Y-122992500D01*
G75*
G02*
X175608000Y-122832500I160000J0D01*
G01*
G37*
G36*
G01*
X175608000Y-121637500D02*
X175928000Y-121637500D01*
G75*
G02*
X176088000Y-121797500I0J-160000D01*
G01*
X176088000Y-122192500D01*
G75*
G02*
X175928000Y-122352500I-160000J0D01*
G01*
X175608000Y-122352500D01*
G75*
G02*
X175448000Y-122192500I0J160000D01*
G01*
X175448000Y-121797500D01*
G75*
G02*
X175608000Y-121637500I160000J0D01*
G01*
G37*
%TD*%
%TO.C,R8*%
G36*
G01*
X199376000Y-122588000D02*
X199376000Y-122268000D01*
G75*
G02*
X199536000Y-122108000I160000J0D01*
G01*
X199931000Y-122108000D01*
G75*
G02*
X200091000Y-122268000I0J-160000D01*
G01*
X200091000Y-122588000D01*
G75*
G02*
X199931000Y-122748000I-160000J0D01*
G01*
X199536000Y-122748000D01*
G75*
G02*
X199376000Y-122588000I0J160000D01*
G01*
G37*
G36*
G01*
X198181000Y-122588000D02*
X198181000Y-122268000D01*
G75*
G02*
X198341000Y-122108000I160000J0D01*
G01*
X198736000Y-122108000D01*
G75*
G02*
X198896000Y-122268000I0J-160000D01*
G01*
X198896000Y-122588000D01*
G75*
G02*
X198736000Y-122748000I-160000J0D01*
G01*
X198341000Y-122748000D01*
G75*
G02*
X198181000Y-122588000I0J160000D01*
G01*
G37*
%TD*%
%TO.C,R22*%
G36*
G01*
X176544000Y-113505000D02*
X176544000Y-113825000D01*
G75*
G02*
X176384000Y-113985000I-160000J0D01*
G01*
X175989000Y-113985000D01*
G75*
G02*
X175829000Y-113825000I0J160000D01*
G01*
X175829000Y-113505000D01*
G75*
G02*
X175989000Y-113345000I160000J0D01*
G01*
X176384000Y-113345000D01*
G75*
G02*
X176544000Y-113505000I0J-160000D01*
G01*
G37*
G36*
G01*
X177739000Y-113505000D02*
X177739000Y-113825000D01*
G75*
G02*
X177579000Y-113985000I-160000J0D01*
G01*
X177184000Y-113985000D01*
G75*
G02*
X177024000Y-113825000I0J160000D01*
G01*
X177024000Y-113505000D01*
G75*
G02*
X177184000Y-113345000I160000J0D01*
G01*
X177579000Y-113345000D01*
G75*
G02*
X177739000Y-113505000I0J-160000D01*
G01*
G37*
%TD*%
%TO.C,R21*%
G36*
G01*
X176544000Y-114648000D02*
X176544000Y-114968000D01*
G75*
G02*
X176384000Y-115128000I-160000J0D01*
G01*
X175989000Y-115128000D01*
G75*
G02*
X175829000Y-114968000I0J160000D01*
G01*
X175829000Y-114648000D01*
G75*
G02*
X175989000Y-114488000I160000J0D01*
G01*
X176384000Y-114488000D01*
G75*
G02*
X176544000Y-114648000I0J-160000D01*
G01*
G37*
G36*
G01*
X177739000Y-114648000D02*
X177739000Y-114968000D01*
G75*
G02*
X177579000Y-115128000I-160000J0D01*
G01*
X177184000Y-115128000D01*
G75*
G02*
X177024000Y-114968000I0J160000D01*
G01*
X177024000Y-114648000D01*
G75*
G02*
X177184000Y-114488000I160000J0D01*
G01*
X177579000Y-114488000D01*
G75*
G02*
X177739000Y-114648000I0J-160000D01*
G01*
G37*
%TD*%
%TO.C,R26*%
G36*
G01*
X177649500Y-130396000D02*
X177649500Y-130716000D01*
G75*
G02*
X177489500Y-130876000I-160000J0D01*
G01*
X177094500Y-130876000D01*
G75*
G02*
X176934500Y-130716000I0J160000D01*
G01*
X176934500Y-130396000D01*
G75*
G02*
X177094500Y-130236000I160000J0D01*
G01*
X177489500Y-130236000D01*
G75*
G02*
X177649500Y-130396000I0J-160000D01*
G01*
G37*
G36*
G01*
X178844500Y-130396000D02*
X178844500Y-130716000D01*
G75*
G02*
X178684500Y-130876000I-160000J0D01*
G01*
X178289500Y-130876000D01*
G75*
G02*
X178129500Y-130716000I0J160000D01*
G01*
X178129500Y-130396000D01*
G75*
G02*
X178289500Y-130236000I160000J0D01*
G01*
X178684500Y-130236000D01*
G75*
G02*
X178844500Y-130396000I0J-160000D01*
G01*
G37*
%TD*%
%TO.C,R12*%
G36*
G01*
X180100000Y-99916000D02*
X180100000Y-100236000D01*
G75*
G02*
X179940000Y-100396000I-160000J0D01*
G01*
X179545000Y-100396000D01*
G75*
G02*
X179385000Y-100236000I0J160000D01*
G01*
X179385000Y-99916000D01*
G75*
G02*
X179545000Y-99756000I160000J0D01*
G01*
X179940000Y-99756000D01*
G75*
G02*
X180100000Y-99916000I0J-160000D01*
G01*
G37*
G36*
G01*
X181295000Y-99916000D02*
X181295000Y-100236000D01*
G75*
G02*
X181135000Y-100396000I-160000J0D01*
G01*
X180740000Y-100396000D01*
G75*
G02*
X180580000Y-100236000I0J160000D01*
G01*
X180580000Y-99916000D01*
G75*
G02*
X180740000Y-99756000I160000J0D01*
G01*
X181135000Y-99756000D01*
G75*
G02*
X181295000Y-99916000I0J-160000D01*
G01*
G37*
%TD*%
%TO.C,R77*%
G36*
G01*
X185533000Y-126144000D02*
X185533000Y-125824000D01*
G75*
G02*
X185693000Y-125664000I160000J0D01*
G01*
X186088000Y-125664000D01*
G75*
G02*
X186248000Y-125824000I0J-160000D01*
G01*
X186248000Y-126144000D01*
G75*
G02*
X186088000Y-126304000I-160000J0D01*
G01*
X185693000Y-126304000D01*
G75*
G02*
X185533000Y-126144000I0J160000D01*
G01*
G37*
G36*
G01*
X184338000Y-126144000D02*
X184338000Y-125824000D01*
G75*
G02*
X184498000Y-125664000I160000J0D01*
G01*
X184893000Y-125664000D01*
G75*
G02*
X185053000Y-125824000I0J-160000D01*
G01*
X185053000Y-126144000D01*
G75*
G02*
X184893000Y-126304000I-160000J0D01*
G01*
X184498000Y-126304000D01*
G75*
G02*
X184338000Y-126144000I0J160000D01*
G01*
G37*
%TD*%
%TO.C,R11*%
G36*
G01*
X179460999Y-104532000D02*
X180711001Y-104532000D01*
G75*
G02*
X180961000Y-104781999I0J-249999D01*
G01*
X180961000Y-105582001D01*
G75*
G02*
X180711001Y-105832000I-249999J0D01*
G01*
X179460999Y-105832000D01*
G75*
G02*
X179211000Y-105582001I0J249999D01*
G01*
X179211000Y-104781999D01*
G75*
G02*
X179460999Y-104532000I249999J0D01*
G01*
G37*
G36*
G01*
X179460999Y-101432000D02*
X180711001Y-101432000D01*
G75*
G02*
X180961000Y-101681999I0J-249999D01*
G01*
X180961000Y-102482001D01*
G75*
G02*
X180711001Y-102732000I-249999J0D01*
G01*
X179460999Y-102732000D01*
G75*
G02*
X179211000Y-102482001I0J249999D01*
G01*
X179211000Y-101681999D01*
G75*
G02*
X179460999Y-101432000I249999J0D01*
G01*
G37*
%TD*%
%TO.C,R23*%
G36*
G01*
X177024000Y-116111000D02*
X177024000Y-115791000D01*
G75*
G02*
X177184000Y-115631000I160000J0D01*
G01*
X177579000Y-115631000D01*
G75*
G02*
X177739000Y-115791000I0J-160000D01*
G01*
X177739000Y-116111000D01*
G75*
G02*
X177579000Y-116271000I-160000J0D01*
G01*
X177184000Y-116271000D01*
G75*
G02*
X177024000Y-116111000I0J160000D01*
G01*
G37*
G36*
G01*
X175829000Y-116111000D02*
X175829000Y-115791000D01*
G75*
G02*
X175989000Y-115631000I160000J0D01*
G01*
X176384000Y-115631000D01*
G75*
G02*
X176544000Y-115791000I0J-160000D01*
G01*
X176544000Y-116111000D01*
G75*
G02*
X176384000Y-116271000I-160000J0D01*
G01*
X175989000Y-116271000D01*
G75*
G02*
X175829000Y-116111000I0J160000D01*
G01*
G37*
%TD*%
D23*
%TO.C,Q101*%
X216916000Y-108188000D03*
X215966000Y-106188000D03*
X217866000Y-106188000D03*
%TD*%
D24*
%TO.C,FID3*%
X227000000Y-143000000D03*
%TD*%
%TO.C,FID2*%
X155000000Y-143000000D03*
%TD*%
%TO.C,FID1*%
X155000000Y-103000000D03*
%TD*%
D13*
%TO.C,D92*%
X207772000Y-134028000D03*
X207772000Y-136228000D03*
%TD*%
%TO.C,D91*%
X202268000Y-142240000D03*
X200068000Y-142240000D03*
%TD*%
%TO.C,D82*%
X213360000Y-120480000D03*
X213360000Y-118280000D03*
%TD*%
%TO.C,D81*%
X206840000Y-126492000D03*
X204640000Y-126492000D03*
%TD*%
%TO.C,D101*%
G36*
G01*
X222727000Y-113394500D02*
X222727000Y-112919500D01*
G75*
G02*
X222964500Y-112682000I237500J0D01*
G01*
X223539500Y-112682000D01*
G75*
G02*
X223777000Y-112919500I0J-237500D01*
G01*
X223777000Y-113394500D01*
G75*
G02*
X223539500Y-113632000I-237500J0D01*
G01*
X222964500Y-113632000D01*
G75*
G02*
X222727000Y-113394500I0J237500D01*
G01*
G37*
G36*
G01*
X220977000Y-113394500D02*
X220977000Y-112919500D01*
G75*
G02*
X221214500Y-112682000I237500J0D01*
G01*
X221789500Y-112682000D01*
G75*
G02*
X222027000Y-112919500I0J-237500D01*
G01*
X222027000Y-113394500D01*
G75*
G02*
X221789500Y-113632000I-237500J0D01*
G01*
X221214500Y-113632000D01*
G75*
G02*
X220977000Y-113394500I0J237500D01*
G01*
G37*
%TD*%
%TO.C,D31*%
X179324000Y-107612000D03*
X179324000Y-109812000D03*
%TD*%
%TO.C,D11*%
G36*
G01*
X177054500Y-99664000D02*
X177529500Y-99664000D01*
G75*
G02*
X177767000Y-99901500I0J-237500D01*
G01*
X177767000Y-100476500D01*
G75*
G02*
X177529500Y-100714000I-237500J0D01*
G01*
X177054500Y-100714000D01*
G75*
G02*
X176817000Y-100476500I0J237500D01*
G01*
X176817000Y-99901500D01*
G75*
G02*
X177054500Y-99664000I237500J0D01*
G01*
G37*
G36*
G01*
X177054500Y-97914000D02*
X177529500Y-97914000D01*
G75*
G02*
X177767000Y-98151500I0J-237500D01*
G01*
X177767000Y-98726500D01*
G75*
G02*
X177529500Y-98964000I-237500J0D01*
G01*
X177054500Y-98964000D01*
G75*
G02*
X176817000Y-98726500I0J237500D01*
G01*
X176817000Y-98151500D01*
G75*
G02*
X177054500Y-97914000I237500J0D01*
G01*
G37*
%TD*%
%TO.C,C94*%
G36*
G01*
X220506000Y-144256000D02*
X220506000Y-142256000D01*
G75*
G02*
X220756000Y-142006000I250000J0D01*
G01*
X224256000Y-142006000D01*
G75*
G02*
X224506000Y-142256000I0J-250000D01*
G01*
X224506000Y-144256000D01*
G75*
G02*
X224256000Y-144506000I-250000J0D01*
G01*
X220756000Y-144506000D01*
G75*
G02*
X220506000Y-144256000I0J250000D01*
G01*
G37*
G36*
G01*
X214406000Y-144256000D02*
X214406000Y-142256000D01*
G75*
G02*
X214656000Y-142006000I250000J0D01*
G01*
X218156000Y-142006000D01*
G75*
G02*
X218406000Y-142256000I0J-250000D01*
G01*
X218406000Y-144256000D01*
G75*
G02*
X218156000Y-144506000I-250000J0D01*
G01*
X214656000Y-144506000D01*
G75*
G02*
X214406000Y-144256000I0J250000D01*
G01*
G37*
%TD*%
%TO.C,C92*%
G36*
G01*
X211145000Y-148192500D02*
X211145000Y-147717500D01*
G75*
G02*
X211382500Y-147480000I237500J0D01*
G01*
X211982500Y-147480000D01*
G75*
G02*
X212220000Y-147717500I0J-237500D01*
G01*
X212220000Y-148192500D01*
G75*
G02*
X211982500Y-148430000I-237500J0D01*
G01*
X211382500Y-148430000D01*
G75*
G02*
X211145000Y-148192500I0J237500D01*
G01*
G37*
G36*
G01*
X209420000Y-148192500D02*
X209420000Y-147717500D01*
G75*
G02*
X209657500Y-147480000I237500J0D01*
G01*
X210257500Y-147480000D01*
G75*
G02*
X210495000Y-147717500I0J-237500D01*
G01*
X210495000Y-148192500D01*
G75*
G02*
X210257500Y-148430000I-237500J0D01*
G01*
X209657500Y-148430000D01*
G75*
G02*
X209420000Y-148192500I0J237500D01*
G01*
G37*
%TD*%
%TO.C,C93*%
G36*
G01*
X205469500Y-134803000D02*
X204994500Y-134803000D01*
G75*
G02*
X204757000Y-134565500I0J237500D01*
G01*
X204757000Y-133965500D01*
G75*
G02*
X204994500Y-133728000I237500J0D01*
G01*
X205469500Y-133728000D01*
G75*
G02*
X205707000Y-133965500I0J-237500D01*
G01*
X205707000Y-134565500D01*
G75*
G02*
X205469500Y-134803000I-237500J0D01*
G01*
G37*
G36*
G01*
X205469500Y-136528000D02*
X204994500Y-136528000D01*
G75*
G02*
X204757000Y-136290500I0J237500D01*
G01*
X204757000Y-135690500D01*
G75*
G02*
X204994500Y-135453000I237500J0D01*
G01*
X205469500Y-135453000D01*
G75*
G02*
X205707000Y-135690500I0J-237500D01*
G01*
X205707000Y-136290500D01*
G75*
G02*
X205469500Y-136528000I-237500J0D01*
G01*
G37*
%TD*%
%TO.C,C91*%
G36*
G01*
X201339500Y-137905500D02*
X201339500Y-137430500D01*
G75*
G02*
X201577000Y-137193000I237500J0D01*
G01*
X202177000Y-137193000D01*
G75*
G02*
X202414500Y-137430500I0J-237500D01*
G01*
X202414500Y-137905500D01*
G75*
G02*
X202177000Y-138143000I-237500J0D01*
G01*
X201577000Y-138143000D01*
G75*
G02*
X201339500Y-137905500I0J237500D01*
G01*
G37*
G36*
G01*
X199614500Y-137905500D02*
X199614500Y-137430500D01*
G75*
G02*
X199852000Y-137193000I237500J0D01*
G01*
X200452000Y-137193000D01*
G75*
G02*
X200689500Y-137430500I0J-237500D01*
G01*
X200689500Y-137905500D01*
G75*
G02*
X200452000Y-138143000I-237500J0D01*
G01*
X199852000Y-138143000D01*
G75*
G02*
X199614500Y-137905500I0J237500D01*
G01*
G37*
%TD*%
%TO.C,C84*%
G36*
G01*
X224020000Y-127042000D02*
X224020000Y-125942000D01*
G75*
G02*
X224270000Y-125692000I250000J0D01*
G01*
X226370000Y-125692000D01*
G75*
G02*
X226620000Y-125942000I0J-250000D01*
G01*
X226620000Y-127042000D01*
G75*
G02*
X226370000Y-127292000I-250000J0D01*
G01*
X224270000Y-127292000D01*
G75*
G02*
X224020000Y-127042000I0J250000D01*
G01*
G37*
G36*
G01*
X220420000Y-127042000D02*
X220420000Y-125942000D01*
G75*
G02*
X220670000Y-125692000I250000J0D01*
G01*
X222770000Y-125692000D01*
G75*
G02*
X223020000Y-125942000I0J-250000D01*
G01*
X223020000Y-127042000D01*
G75*
G02*
X222770000Y-127292000I-250000J0D01*
G01*
X220670000Y-127292000D01*
G75*
G02*
X220420000Y-127042000I0J250000D01*
G01*
G37*
%TD*%
%TO.C,C82*%
G36*
G01*
X214574000Y-131936500D02*
X214574000Y-131461500D01*
G75*
G02*
X214811500Y-131224000I237500J0D01*
G01*
X215411500Y-131224000D01*
G75*
G02*
X215649000Y-131461500I0J-237500D01*
G01*
X215649000Y-131936500D01*
G75*
G02*
X215411500Y-132174000I-237500J0D01*
G01*
X214811500Y-132174000D01*
G75*
G02*
X214574000Y-131936500I0J237500D01*
G01*
G37*
G36*
G01*
X212849000Y-131936500D02*
X212849000Y-131461500D01*
G75*
G02*
X213086500Y-131224000I237500J0D01*
G01*
X213686500Y-131224000D01*
G75*
G02*
X213924000Y-131461500I0J-237500D01*
G01*
X213924000Y-131936500D01*
G75*
G02*
X213686500Y-132174000I-237500J0D01*
G01*
X213086500Y-132174000D01*
G75*
G02*
X212849000Y-131936500I0J237500D01*
G01*
G37*
%TD*%
%TO.C,C83*%
G36*
G01*
X210582500Y-119705000D02*
X211057500Y-119705000D01*
G75*
G02*
X211295000Y-119942500I0J-237500D01*
G01*
X211295000Y-120542500D01*
G75*
G02*
X211057500Y-120780000I-237500J0D01*
G01*
X210582500Y-120780000D01*
G75*
G02*
X210345000Y-120542500I0J237500D01*
G01*
X210345000Y-119942500D01*
G75*
G02*
X210582500Y-119705000I237500J0D01*
G01*
G37*
G36*
G01*
X210582500Y-117980000D02*
X211057500Y-117980000D01*
G75*
G02*
X211295000Y-118217500I0J-237500D01*
G01*
X211295000Y-118817500D01*
G75*
G02*
X211057500Y-119055000I-237500J0D01*
G01*
X210582500Y-119055000D01*
G75*
G02*
X210345000Y-118817500I0J237500D01*
G01*
X210345000Y-118217500D01*
G75*
G02*
X210582500Y-117980000I237500J0D01*
G01*
G37*
%TD*%
%TO.C,C81*%
G36*
G01*
X206065000Y-122665500D02*
X206065000Y-122190500D01*
G75*
G02*
X206302500Y-121953000I237500J0D01*
G01*
X206902500Y-121953000D01*
G75*
G02*
X207140000Y-122190500I0J-237500D01*
G01*
X207140000Y-122665500D01*
G75*
G02*
X206902500Y-122903000I-237500J0D01*
G01*
X206302500Y-122903000D01*
G75*
G02*
X206065000Y-122665500I0J237500D01*
G01*
G37*
G36*
G01*
X204340000Y-122665500D02*
X204340000Y-122190500D01*
G75*
G02*
X204577500Y-121953000I237500J0D01*
G01*
X205177500Y-121953000D01*
G75*
G02*
X205415000Y-122190500I0J-237500D01*
G01*
X205415000Y-122665500D01*
G75*
G02*
X205177500Y-122903000I-237500J0D01*
G01*
X204577500Y-122903000D01*
G75*
G02*
X204340000Y-122665500I0J237500D01*
G01*
G37*
%TD*%
%TO.C,C31*%
G36*
G01*
X176038500Y-109037000D02*
X176513500Y-109037000D01*
G75*
G02*
X176751000Y-109274500I0J-237500D01*
G01*
X176751000Y-109874500D01*
G75*
G02*
X176513500Y-110112000I-237500J0D01*
G01*
X176038500Y-110112000D01*
G75*
G02*
X175801000Y-109874500I0J237500D01*
G01*
X175801000Y-109274500D01*
G75*
G02*
X176038500Y-109037000I237500J0D01*
G01*
G37*
G36*
G01*
X176038500Y-107312000D02*
X176513500Y-107312000D01*
G75*
G02*
X176751000Y-107549500I0J-237500D01*
G01*
X176751000Y-108149500D01*
G75*
G02*
X176513500Y-108387000I-237500J0D01*
G01*
X176038500Y-108387000D01*
G75*
G02*
X175801000Y-108149500I0J237500D01*
G01*
X175801000Y-107549500D01*
G75*
G02*
X176038500Y-107312000I237500J0D01*
G01*
G37*
%TD*%
%TO.C,C12*%
G36*
G01*
X162568000Y-105114000D02*
X162568000Y-106214000D01*
G75*
G02*
X162318000Y-106464000I-250000J0D01*
G01*
X160218000Y-106464000D01*
G75*
G02*
X159968000Y-106214000I0J250000D01*
G01*
X159968000Y-105114000D01*
G75*
G02*
X160218000Y-104864000I250000J0D01*
G01*
X162318000Y-104864000D01*
G75*
G02*
X162568000Y-105114000I0J-250000D01*
G01*
G37*
G36*
G01*
X166168000Y-105114000D02*
X166168000Y-106214000D01*
G75*
G02*
X165918000Y-106464000I-250000J0D01*
G01*
X163818000Y-106464000D01*
G75*
G02*
X163568000Y-106214000I0J250000D01*
G01*
X163568000Y-105114000D01*
G75*
G02*
X163818000Y-104864000I250000J0D01*
G01*
X165918000Y-104864000D01*
G75*
G02*
X166168000Y-105114000I0J-250000D01*
G01*
G37*
%TD*%
%TO.C,C11*%
G36*
G01*
X162568000Y-99526000D02*
X162568000Y-100626000D01*
G75*
G02*
X162318000Y-100876000I-250000J0D01*
G01*
X160218000Y-100876000D01*
G75*
G02*
X159968000Y-100626000I0J250000D01*
G01*
X159968000Y-99526000D01*
G75*
G02*
X160218000Y-99276000I250000J0D01*
G01*
X162318000Y-99276000D01*
G75*
G02*
X162568000Y-99526000I0J-250000D01*
G01*
G37*
G36*
G01*
X166168000Y-99526000D02*
X166168000Y-100626000D01*
G75*
G02*
X165918000Y-100876000I-250000J0D01*
G01*
X163818000Y-100876000D01*
G75*
G02*
X163568000Y-100626000I0J250000D01*
G01*
X163568000Y-99526000D01*
G75*
G02*
X163818000Y-99276000I250000J0D01*
G01*
X165918000Y-99276000D01*
G75*
G02*
X166168000Y-99526000I0J-250000D01*
G01*
G37*
%TD*%
M02*
