%FSLAX45Y45*%
G04 Gerber Fmt 4.5, Leading zero omitted, Abs format (unit mm)*
G04 Created by KiCad (PCBNEW (5.1.10)-1) date 2022-02-21 21:57:23*
%MOMM*%
%LPD*%
G01*
G04 APERTURE LIST*
%TA.AperFunction,Profile*%
%ADD10C,0.150000*%
%TD*%
%ADD11C,0.200000*%
%ADD12C,0.300000*%
G04 APERTURE END LIST*
D10*
X15300000Y-15100000D02*
G75*
G02*
X15000000Y-14800000I0J300000D01*
G01*
X23000000Y-14800000D02*
G75*
G02*
X22700000Y-15100000I-300000J0D01*
G01*
X22700000Y-9500000D02*
G75*
G02*
X23000000Y-9800000I0J-300000D01*
G01*
X15000000Y-9800000D02*
G75*
G02*
X15300000Y-9500000I300000J0D01*
G01*
X15300000Y-9500000D02*
X22700000Y-9500000D01*
X15300000Y-15100000D02*
X22700000Y-15100000D01*
X23000000Y-9800000D02*
X23000000Y-14800000D01*
X15000000Y-9800000D02*
X15000000Y-14800000D01*
D11*
X15880400Y-10546400D02*
X15920400Y-10586400D01*
X15920400Y-10546400D02*
X15880400Y-10586400D01*
X16109000Y-10190800D02*
X16149000Y-10230800D01*
X16149000Y-10190800D02*
X16109000Y-10230800D01*
X16185200Y-12451400D02*
X16225200Y-12491400D01*
X16225200Y-12451400D02*
X16185200Y-12491400D01*
X16248700Y-13264200D02*
X16288700Y-13304200D01*
X16288700Y-13264200D02*
X16248700Y-13304200D01*
X16388400Y-11791000D02*
X16428400Y-11831000D01*
X16428400Y-11791000D02*
X16388400Y-11831000D01*
X16439200Y-12781600D02*
X16479200Y-12821600D01*
X16479200Y-12781600D02*
X16439200Y-12821600D01*
X16439200Y-13403900D02*
X16479200Y-13443900D01*
X16479200Y-13403900D02*
X16439200Y-13443900D01*
X16439200Y-14788200D02*
X16479200Y-14828200D01*
X16479200Y-14788200D02*
X16439200Y-14828200D01*
X16515400Y-12984800D02*
X16555400Y-13024800D01*
X16555400Y-12984800D02*
X16515400Y-13024800D01*
X16515400Y-13188000D02*
X16555400Y-13228000D01*
X16555400Y-13188000D02*
X16515400Y-13228000D01*
X16550001Y-13746800D02*
X16590001Y-13786800D01*
X16590001Y-13746800D02*
X16550001Y-13786800D01*
X16553500Y-13911900D02*
X16593500Y-13951900D01*
X16593500Y-13911900D02*
X16553500Y-13951900D01*
X16578900Y-11498900D02*
X16618900Y-11538900D01*
X16618900Y-11498900D02*
X16578900Y-11538900D01*
X16629700Y-9759000D02*
X16669700Y-9799000D01*
X16669700Y-9759000D02*
X16629700Y-9799000D01*
X16744000Y-10851200D02*
X16784000Y-10891200D01*
X16784000Y-10851200D02*
X16744000Y-10891200D01*
X16883700Y-12175003D02*
X16923700Y-12215003D01*
X16923700Y-12175003D02*
X16883700Y-12215003D01*
X16883700Y-12527600D02*
X16923700Y-12567600D01*
X16923700Y-12527600D02*
X16883700Y-12567600D01*
X16934500Y-13988100D02*
X16974500Y-14028100D01*
X16974500Y-13988100D02*
X16934500Y-14028100D01*
X16947200Y-13759500D02*
X16987200Y-13799500D01*
X16987200Y-13759500D02*
X16947200Y-13799500D01*
X16957360Y-13224543D02*
X16997360Y-13264543D01*
X16997360Y-13224543D02*
X16957360Y-13264543D01*
X16962941Y-11967209D02*
X17002941Y-12007209D01*
X17002941Y-11967209D02*
X16962941Y-12007209D01*
X16969998Y-11755356D02*
X17009998Y-11795356D01*
X17009998Y-11755356D02*
X16969998Y-11795356D01*
X17092055Y-11446355D02*
X17132055Y-11486355D01*
X17132055Y-11446355D02*
X17092055Y-11486355D01*
X17137700Y-12959400D02*
X17177700Y-12999400D01*
X17177700Y-12959400D02*
X17137700Y-12999400D01*
X17188500Y-14788200D02*
X17228500Y-14828200D01*
X17228500Y-14788200D02*
X17188500Y-14828200D01*
X17239300Y-10698800D02*
X17279300Y-10738800D01*
X17279300Y-10698800D02*
X17239300Y-10738800D01*
X17340900Y-10851200D02*
X17380900Y-10891200D01*
X17380900Y-10851200D02*
X17340900Y-10891200D01*
X17455200Y-13391200D02*
X17495200Y-13431200D01*
X17495200Y-13391200D02*
X17455200Y-13431200D01*
X17458699Y-13066943D02*
X17498699Y-13106943D01*
X17498699Y-13066943D02*
X17458699Y-13106943D01*
X17460661Y-11382739D02*
X17500661Y-11422739D01*
X17500661Y-11382739D02*
X17460661Y-11422739D01*
X17480600Y-11257600D02*
X17520600Y-11297600D01*
X17520600Y-11257600D02*
X17480600Y-11297600D01*
X17484099Y-13264200D02*
X17524099Y-13304200D01*
X17524099Y-13264200D02*
X17484099Y-13304200D01*
X17506000Y-11892600D02*
X17546000Y-11932600D01*
X17546000Y-11892600D02*
X17506000Y-11932600D01*
X17527385Y-11169218D02*
X17567385Y-11209218D01*
X17567385Y-11169218D02*
X17527385Y-11209218D01*
X17544100Y-13861100D02*
X17584100Y-13901100D01*
X17584100Y-13861100D02*
X17544100Y-13901100D01*
X17556800Y-12781600D02*
X17596800Y-12821600D01*
X17596800Y-12781600D02*
X17556800Y-12821600D01*
X17556800Y-12883200D02*
X17596800Y-12923200D01*
X17596800Y-12883200D02*
X17556800Y-12923200D01*
X17594900Y-9822500D02*
X17634900Y-9862500D01*
X17634900Y-9822500D02*
X17594900Y-9862500D01*
X17700250Y-13387450D02*
X17740250Y-13427450D01*
X17740250Y-13387450D02*
X17700250Y-13427450D01*
X17721900Y-11257600D02*
X17761900Y-11297600D01*
X17761900Y-11257600D02*
X17721900Y-11297600D01*
X17747300Y-10813100D02*
X17787300Y-10853100D01*
X17787300Y-10813100D02*
X17747300Y-10853100D01*
X17810800Y-11460800D02*
X17850800Y-11500800D01*
X17850800Y-11460800D02*
X17810800Y-11500800D01*
X17823500Y-12184700D02*
X17863500Y-12224700D01*
X17863500Y-12184700D02*
X17823500Y-12224700D01*
X17823500Y-12286300D02*
X17863500Y-12326300D01*
X17863500Y-12286300D02*
X17823500Y-12326300D01*
X17823500Y-12946700D02*
X17863500Y-12986700D01*
X17863500Y-12946700D02*
X17823500Y-12986700D01*
X17857798Y-12045000D02*
X17897798Y-12085000D01*
X17897798Y-12045000D02*
X17857798Y-12085000D01*
X17937800Y-11511600D02*
X17977800Y-11551600D01*
X17977800Y-11511600D02*
X17937800Y-11551600D01*
X17950500Y-14788200D02*
X17990500Y-14828200D01*
X17990500Y-14788200D02*
X17950500Y-14828200D01*
X17988600Y-13353100D02*
X18028600Y-13393100D01*
X18028600Y-13353100D02*
X17988600Y-13393100D01*
X18026700Y-10736900D02*
X18066700Y-10776900D01*
X18066700Y-10736900D02*
X18026700Y-10776900D01*
X18077500Y-12946700D02*
X18117500Y-12986700D01*
X18117500Y-12946700D02*
X18077500Y-12986700D01*
X18179100Y-12070400D02*
X18219100Y-12110400D01*
X18219100Y-12070400D02*
X18179100Y-12110400D01*
X18318800Y-10902000D02*
X18358800Y-10942000D01*
X18358800Y-10902000D02*
X18318800Y-10942000D01*
X18323880Y-11951020D02*
X18363880Y-11991020D01*
X18363880Y-11951020D02*
X18323880Y-11991020D01*
X18445800Y-12502200D02*
X18485800Y-12542200D01*
X18485800Y-12502200D02*
X18445800Y-12542200D01*
X18499629Y-12100571D02*
X18539629Y-12140571D01*
X18539629Y-12100571D02*
X18499629Y-12140571D01*
X18623600Y-13518200D02*
X18663600Y-13558200D01*
X18663600Y-13518200D02*
X18623600Y-13558200D01*
X18636300Y-11689400D02*
X18676300Y-11729400D01*
X18676300Y-11689400D02*
X18636300Y-11729400D01*
X18636300Y-11994200D02*
X18676300Y-12034200D01*
X18676300Y-11994200D02*
X18636300Y-12034200D01*
X18636300Y-13391200D02*
X18676300Y-13431200D01*
X18676300Y-13391200D02*
X18636300Y-13431200D01*
X18709001Y-11406501D02*
X18749001Y-11446501D01*
X18749001Y-11406501D02*
X18709001Y-11446501D01*
X18712500Y-11918000D02*
X18752500Y-11958000D01*
X18752500Y-11918000D02*
X18712500Y-11958000D01*
X18713701Y-12363701D02*
X18753701Y-12403701D01*
X18753701Y-12363701D02*
X18713701Y-12403701D01*
X18750600Y-10940100D02*
X18790600Y-10980100D01*
X18790600Y-10940100D02*
X18750600Y-10980100D01*
X18750600Y-11219500D02*
X18790600Y-11259500D01*
X18790600Y-11219500D02*
X18750600Y-11259500D01*
X18750600Y-13810300D02*
X18790600Y-13850300D01*
X18790600Y-13810300D02*
X18750600Y-13850300D01*
X18763300Y-12121200D02*
X18803300Y-12161200D01*
X18803300Y-12121200D02*
X18763300Y-12161200D01*
X18781702Y-11575100D02*
X18821702Y-11615100D01*
X18821702Y-11575100D02*
X18781702Y-11615100D01*
X18788700Y-14673900D02*
X18828700Y-14713900D01*
X18828700Y-14673900D02*
X18788700Y-14713900D01*
X18801400Y-11994200D02*
X18841400Y-12034200D01*
X18841400Y-11994200D02*
X18801400Y-12034200D01*
X19055400Y-12629200D02*
X19095400Y-12669200D01*
X19095400Y-12629200D02*
X19055400Y-12669200D01*
X19095043Y-11635361D02*
X19135043Y-11675361D01*
X19135043Y-11635361D02*
X19095043Y-11675361D01*
X19220500Y-11359200D02*
X19260500Y-11399200D01*
X19260500Y-11359200D02*
X19220500Y-11399200D01*
X19220500Y-11486200D02*
X19260500Y-11526200D01*
X19260500Y-11486200D02*
X19220500Y-11526200D01*
X19245900Y-13518200D02*
X19285900Y-13558200D01*
X19285900Y-13518200D02*
X19245900Y-13558200D01*
X19293201Y-13264200D02*
X19333201Y-13304200D01*
X19333201Y-13264200D02*
X19293201Y-13304200D01*
X19309400Y-12565700D02*
X19349400Y-12605700D01*
X19349400Y-12565700D02*
X19309400Y-12605700D01*
X19423700Y-12476800D02*
X19463700Y-12516800D01*
X19463700Y-12476800D02*
X19423700Y-12516800D01*
X19449100Y-14673900D02*
X19489100Y-14713900D01*
X19489100Y-14673900D02*
X19449100Y-14713900D01*
X19487200Y-12603800D02*
X19527200Y-12643800D01*
X19527200Y-12603800D02*
X19487200Y-12643800D01*
X19538000Y-12019600D02*
X19578000Y-12059600D01*
X19578000Y-12019600D02*
X19538000Y-12059600D01*
X19550700Y-12984800D02*
X19590700Y-13024800D01*
X19590700Y-12984800D02*
X19550700Y-13024800D01*
X19556189Y-11874411D02*
X19596189Y-11914411D01*
X19596189Y-11874411D02*
X19556189Y-11914411D01*
X19561800Y-12879199D02*
X19601800Y-12919199D01*
X19601800Y-12879199D02*
X19561800Y-12919199D01*
X19588800Y-11613200D02*
X19628800Y-11653200D01*
X19628800Y-11613200D02*
X19588800Y-11653200D01*
X19588800Y-13149900D02*
X19628800Y-13189900D01*
X19628800Y-13149900D02*
X19588800Y-13189900D01*
X19626900Y-11803700D02*
X19666900Y-11843700D01*
X19666900Y-11803700D02*
X19626900Y-11843700D01*
X19698208Y-13598037D02*
X19738208Y-13638037D01*
X19738208Y-13598037D02*
X19698208Y-13638037D01*
X19703100Y-13823000D02*
X19743100Y-13863000D01*
X19743100Y-13823000D02*
X19703100Y-13863000D01*
X19715800Y-13416600D02*
X19755800Y-13456600D01*
X19755800Y-13416600D02*
X19715800Y-13456600D01*
X19766600Y-12222800D02*
X19806600Y-12262800D01*
X19806600Y-12222800D02*
X19766600Y-12262800D01*
X19804700Y-13823000D02*
X19844700Y-13863000D01*
X19844700Y-13823000D02*
X19804700Y-13863000D01*
X19944400Y-12133900D02*
X19984400Y-12173900D01*
X19984400Y-12133900D02*
X19944400Y-12173900D01*
X19969800Y-12514900D02*
X20009800Y-12554900D01*
X20009800Y-12514900D02*
X19969800Y-12554900D01*
X20071400Y-12375200D02*
X20111400Y-12415200D01*
X20111400Y-12375200D02*
X20071400Y-12415200D01*
X20084100Y-11956100D02*
X20124100Y-11996100D01*
X20124100Y-11956100D02*
X20084100Y-11996100D01*
X20096800Y-13530900D02*
X20136800Y-13570900D01*
X20136800Y-13530900D02*
X20096800Y-13570900D01*
X20109500Y-12997500D02*
X20149500Y-13037500D01*
X20149500Y-12997500D02*
X20109500Y-13037500D01*
X20185700Y-12756200D02*
X20225700Y-12796200D01*
X20225700Y-12756200D02*
X20185700Y-12796200D01*
X20211100Y-12197400D02*
X20251100Y-12237400D01*
X20251100Y-12197400D02*
X20211100Y-12237400D01*
X20223800Y-13950000D02*
X20263800Y-13990000D01*
X20263800Y-13950000D02*
X20223800Y-13990000D01*
X20376200Y-12426000D02*
X20416200Y-12466000D01*
X20416200Y-12426000D02*
X20376200Y-12466000D01*
X20388900Y-14280200D02*
X20428900Y-14320200D01*
X20428900Y-14280200D02*
X20388900Y-14320200D01*
X20401600Y-12832400D02*
X20441600Y-12872400D01*
X20441600Y-12832400D02*
X20401600Y-12872400D01*
X20490500Y-11994200D02*
X20530500Y-12034200D01*
X20530500Y-11994200D02*
X20490500Y-12034200D01*
X20503200Y-13759500D02*
X20543200Y-13799500D01*
X20543200Y-13759500D02*
X20503200Y-13799500D01*
X20566700Y-13988100D02*
X20606700Y-14028100D01*
X20606700Y-13988100D02*
X20566700Y-14028100D01*
X20579400Y-11613200D02*
X20619400Y-11653200D01*
X20619400Y-11613200D02*
X20579400Y-11653200D01*
X20706400Y-12426000D02*
X20746400Y-12466000D01*
X20746400Y-12426000D02*
X20706400Y-12466000D01*
X20896900Y-12680000D02*
X20936900Y-12720000D01*
X20936900Y-12680000D02*
X20896900Y-12720000D01*
X20947700Y-12248200D02*
X20987700Y-12288200D01*
X20987700Y-12248200D02*
X20947700Y-12288200D01*
X20960400Y-14635800D02*
X21000400Y-14675800D01*
X21000400Y-14635800D02*
X20960400Y-14675800D01*
X21049300Y-12098848D02*
X21089300Y-12138848D01*
X21089300Y-12098848D02*
X21049300Y-12138848D01*
X21062000Y-12326751D02*
X21102000Y-12366751D01*
X21102000Y-12326751D02*
X21062000Y-12366751D01*
X21074700Y-10584500D02*
X21114700Y-10624500D01*
X21114700Y-10584500D02*
X21074700Y-10624500D01*
X21176300Y-11841800D02*
X21216300Y-11881800D01*
X21216300Y-11841800D02*
X21176300Y-11881800D01*
X21176300Y-12235500D02*
X21216300Y-12275500D01*
X21216300Y-12235500D02*
X21176300Y-12275500D01*
X21328700Y-11206800D02*
X21368700Y-11246800D01*
X21368700Y-11206800D02*
X21328700Y-11246800D01*
X21328700Y-12997500D02*
X21368700Y-13037500D01*
X21368700Y-12997500D02*
X21328700Y-13037500D01*
X21443000Y-10241600D02*
X21483000Y-10281600D01*
X21483000Y-10241600D02*
X21443000Y-10281600D01*
X21455700Y-10597200D02*
X21495700Y-10637200D01*
X21495700Y-10597200D02*
X21455700Y-10637200D01*
X21684300Y-11321100D02*
X21724300Y-11361100D01*
X21724300Y-11321100D02*
X21684300Y-11361100D01*
X22230400Y-14534200D02*
X22270400Y-14574200D01*
X22270400Y-14534200D02*
X22230400Y-14574200D01*
X22522500Y-12819700D02*
X22562500Y-12859700D01*
X22562500Y-12819700D02*
X22522500Y-12859700D01*
X15935000Y-10976800D02*
G75*
G03*
X15935000Y-10976800I-60000J0D01*
G01*
X15935000Y-11226800D02*
G75*
G03*
X15935000Y-11226800I-60000J0D01*
G01*
X15985800Y-12149200D02*
G75*
G03*
X15985800Y-12149200I-60000J0D01*
G01*
X15985800Y-12399200D02*
G75*
G03*
X15985800Y-12399200I-60000J0D01*
G01*
X15985800Y-12649200D02*
G75*
G03*
X15985800Y-12649200I-60000J0D01*
G01*
X15985800Y-13343000D02*
G75*
G03*
X15985800Y-13343000I-60000J0D01*
G01*
X15985800Y-13593000D02*
G75*
G03*
X15985800Y-13593000I-60000J0D01*
G01*
X15985800Y-13843000D02*
G75*
G03*
X15985800Y-13843000I-60000J0D01*
G01*
X22208800Y-10490200D02*
G75*
G03*
X22208800Y-10490200I-60000J0D01*
G01*
X22208800Y-10740200D02*
G75*
G03*
X22208800Y-10740200I-60000J0D01*
G01*
X18687800Y-9908200D02*
X18687800Y-10058200D01*
X18612800Y-9983200D02*
X18762800Y-9983200D01*
X18687800Y-10668200D02*
X18687800Y-10818200D01*
X18612800Y-10743200D02*
X18762800Y-10743200D01*
X20337800Y-9908200D02*
X20337800Y-10058200D01*
X20262800Y-9983200D02*
X20412800Y-9983200D01*
X20687800Y-10668200D02*
X20687800Y-10818200D01*
X20612800Y-10743200D02*
X20762800Y-10743200D01*
X21037800Y-9908200D02*
X21037800Y-10058200D01*
X20962800Y-9983200D02*
X21112800Y-9983200D01*
X15395460Y-9895460D02*
X15395460Y-9704540D01*
X15204540Y-9704540D01*
X15204540Y-9895460D01*
X15395460Y-9895460D01*
X15395460Y-14895460D02*
X15395460Y-14704540D01*
X15204540Y-14704540D01*
X15204540Y-14895460D01*
X15395460Y-14895460D01*
X22795460Y-9895460D02*
X22795460Y-9704540D01*
X22604540Y-9704540D01*
X22604540Y-9895460D01*
X22795460Y-9895460D01*
X22795460Y-14895460D02*
X22795460Y-14704540D01*
X22604540Y-14704540D01*
X22604540Y-14895460D01*
X22795460Y-14895460D01*
D12*
X15278928Y-15573214D02*
X15278928Y-15273214D01*
X15350357Y-15273214D01*
X15393214Y-15287500D01*
X15421786Y-15316071D01*
X15436071Y-15344643D01*
X15450357Y-15401786D01*
X15450357Y-15444643D01*
X15436071Y-15501786D01*
X15421786Y-15530357D01*
X15393214Y-15558929D01*
X15350357Y-15573214D01*
X15278928Y-15573214D01*
X15578928Y-15573214D02*
X15578928Y-15373214D01*
X15578928Y-15430357D02*
X15593214Y-15401786D01*
X15607500Y-15387500D01*
X15636071Y-15373214D01*
X15664643Y-15373214D01*
X15764643Y-15573214D02*
X15764643Y-15373214D01*
X15764643Y-15273214D02*
X15750357Y-15287500D01*
X15764643Y-15301786D01*
X15778928Y-15287500D01*
X15764643Y-15273214D01*
X15764643Y-15301786D01*
X15950357Y-15573214D02*
X15921786Y-15558929D01*
X15907500Y-15530357D01*
X15907500Y-15273214D01*
X16107500Y-15573214D02*
X16078928Y-15558929D01*
X16064643Y-15530357D01*
X16064643Y-15273214D01*
X16450357Y-15573214D02*
X16450357Y-15273214D01*
X16550357Y-15487500D01*
X16650357Y-15273214D01*
X16650357Y-15573214D01*
X16921786Y-15573214D02*
X16921786Y-15416071D01*
X16907500Y-15387500D01*
X16878928Y-15373214D01*
X16821786Y-15373214D01*
X16793214Y-15387500D01*
X16921786Y-15558929D02*
X16893214Y-15573214D01*
X16821786Y-15573214D01*
X16793214Y-15558929D01*
X16778928Y-15530357D01*
X16778928Y-15501786D01*
X16793214Y-15473214D01*
X16821786Y-15458929D01*
X16893214Y-15458929D01*
X16921786Y-15444643D01*
X17064643Y-15373214D02*
X17064643Y-15673214D01*
X17064643Y-15387500D02*
X17093214Y-15373214D01*
X17150357Y-15373214D01*
X17178928Y-15387500D01*
X17193214Y-15401786D01*
X17207500Y-15430357D01*
X17207500Y-15516071D01*
X17193214Y-15544643D01*
X17178928Y-15558929D01*
X17150357Y-15573214D01*
X17093214Y-15573214D01*
X17064643Y-15558929D01*
X17336071Y-15544643D02*
X17350357Y-15558929D01*
X17336071Y-15573214D01*
X17321786Y-15558929D01*
X17336071Y-15544643D01*
X17336071Y-15573214D01*
X17336071Y-15387500D02*
X17350357Y-15401786D01*
X17336071Y-15416071D01*
X17321786Y-15401786D01*
X17336071Y-15387500D01*
X17336071Y-15416071D01*
X14952500Y-16047500D02*
X14992500Y-16087500D01*
X14992500Y-16047500D02*
X14952500Y-16087500D01*
X15336071Y-15903214D02*
X15364643Y-15903214D01*
X15393214Y-15917500D01*
X15407500Y-15931786D01*
X15421786Y-15960357D01*
X15436071Y-16017500D01*
X15436071Y-16088929D01*
X15421786Y-16146071D01*
X15407500Y-16174643D01*
X15393214Y-16188929D01*
X15364643Y-16203214D01*
X15336071Y-16203214D01*
X15307500Y-16188929D01*
X15293214Y-16174643D01*
X15278928Y-16146071D01*
X15264643Y-16088929D01*
X15264643Y-16017500D01*
X15278928Y-15960357D01*
X15293214Y-15931786D01*
X15307500Y-15917500D01*
X15336071Y-15903214D01*
X15564643Y-16174643D02*
X15578928Y-16188929D01*
X15564643Y-16203214D01*
X15550357Y-16188929D01*
X15564643Y-16174643D01*
X15564643Y-16203214D01*
X15836071Y-16003214D02*
X15836071Y-16203214D01*
X15764643Y-15888929D02*
X15693214Y-16103214D01*
X15878928Y-16103214D01*
X16050357Y-15903214D02*
X16078928Y-15903214D01*
X16107500Y-15917500D01*
X16121786Y-15931786D01*
X16136071Y-15960357D01*
X16150357Y-16017500D01*
X16150357Y-16088929D01*
X16136071Y-16146071D01*
X16121786Y-16174643D01*
X16107500Y-16188929D01*
X16078928Y-16203214D01*
X16050357Y-16203214D01*
X16021786Y-16188929D01*
X16007500Y-16174643D01*
X15993214Y-16146071D01*
X15978928Y-16088929D01*
X15978928Y-16017500D01*
X15993214Y-15960357D01*
X16007500Y-15931786D01*
X16021786Y-15917500D01*
X16050357Y-15903214D01*
X16336071Y-15903214D02*
X16364643Y-15903214D01*
X16393214Y-15917500D01*
X16407500Y-15931786D01*
X16421786Y-15960357D01*
X16436071Y-16017500D01*
X16436071Y-16088929D01*
X16421786Y-16146071D01*
X16407500Y-16174643D01*
X16393214Y-16188929D01*
X16364643Y-16203214D01*
X16336071Y-16203214D01*
X16307500Y-16188929D01*
X16293214Y-16174643D01*
X16278928Y-16146071D01*
X16264643Y-16088929D01*
X16264643Y-16017500D01*
X16278928Y-15960357D01*
X16293214Y-15931786D01*
X16307500Y-15917500D01*
X16336071Y-15903214D01*
X16564643Y-16203214D02*
X16564643Y-16003214D01*
X16564643Y-16031786D02*
X16578928Y-16017500D01*
X16607500Y-16003214D01*
X16650357Y-16003214D01*
X16678928Y-16017500D01*
X16693214Y-16046071D01*
X16693214Y-16203214D01*
X16693214Y-16046071D02*
X16707500Y-16017500D01*
X16736071Y-16003214D01*
X16778928Y-16003214D01*
X16807500Y-16017500D01*
X16821786Y-16046071D01*
X16821786Y-16203214D01*
X16964643Y-16203214D02*
X16964643Y-16003214D01*
X16964643Y-16031786D02*
X16978928Y-16017500D01*
X17007500Y-16003214D01*
X17050357Y-16003214D01*
X17078928Y-16017500D01*
X17093214Y-16046071D01*
X17093214Y-16203214D01*
X17093214Y-16046071D02*
X17107500Y-16017500D01*
X17136071Y-16003214D01*
X17178928Y-16003214D01*
X17207500Y-16017500D01*
X17221786Y-16046071D01*
X17221786Y-16203214D01*
X17807500Y-15888929D02*
X17550357Y-16274643D01*
X18193214Y-15903214D02*
X18221786Y-15903214D01*
X18250357Y-15917500D01*
X18264643Y-15931786D01*
X18278928Y-15960357D01*
X18293214Y-16017500D01*
X18293214Y-16088929D01*
X18278928Y-16146071D01*
X18264643Y-16174643D01*
X18250357Y-16188929D01*
X18221786Y-16203214D01*
X18193214Y-16203214D01*
X18164643Y-16188929D01*
X18150357Y-16174643D01*
X18136071Y-16146071D01*
X18121786Y-16088929D01*
X18121786Y-16017500D01*
X18136071Y-15960357D01*
X18150357Y-15931786D01*
X18164643Y-15917500D01*
X18193214Y-15903214D01*
X18421786Y-16174643D02*
X18436071Y-16188929D01*
X18421786Y-16203214D01*
X18407500Y-16188929D01*
X18421786Y-16174643D01*
X18421786Y-16203214D01*
X18621786Y-15903214D02*
X18650357Y-15903214D01*
X18678928Y-15917500D01*
X18693214Y-15931786D01*
X18707500Y-15960357D01*
X18721786Y-16017500D01*
X18721786Y-16088929D01*
X18707500Y-16146071D01*
X18693214Y-16174643D01*
X18678928Y-16188929D01*
X18650357Y-16203214D01*
X18621786Y-16203214D01*
X18593214Y-16188929D01*
X18578928Y-16174643D01*
X18564643Y-16146071D01*
X18550357Y-16088929D01*
X18550357Y-16017500D01*
X18564643Y-15960357D01*
X18578928Y-15931786D01*
X18593214Y-15917500D01*
X18621786Y-15903214D01*
X19007500Y-16203214D02*
X18836071Y-16203214D01*
X18921786Y-16203214D02*
X18921786Y-15903214D01*
X18893214Y-15946071D01*
X18864643Y-15974643D01*
X18836071Y-15988929D01*
X19278928Y-15903214D02*
X19136071Y-15903214D01*
X19121786Y-16046071D01*
X19136071Y-16031786D01*
X19164643Y-16017500D01*
X19236071Y-16017500D01*
X19264643Y-16031786D01*
X19278928Y-16046071D01*
X19293214Y-16074643D01*
X19293214Y-16146071D01*
X19278928Y-16174643D01*
X19264643Y-16188929D01*
X19236071Y-16203214D01*
X19164643Y-16203214D01*
X19136071Y-16188929D01*
X19121786Y-16174643D01*
X19393214Y-15903214D02*
X19593214Y-15903214D01*
X19464643Y-16203214D01*
X19693214Y-15903214D02*
X19693214Y-15960357D01*
X19807500Y-15903214D02*
X19807500Y-15960357D01*
X20250357Y-16317500D02*
X20236071Y-16303214D01*
X20207500Y-16260357D01*
X20193214Y-16231786D01*
X20178928Y-16188929D01*
X20164643Y-16117500D01*
X20164643Y-16060357D01*
X20178928Y-15988929D01*
X20193214Y-15946071D01*
X20207500Y-15917500D01*
X20236071Y-15874643D01*
X20250357Y-15860357D01*
X20521786Y-16203214D02*
X20350357Y-16203214D01*
X20436071Y-16203214D02*
X20436071Y-15903214D01*
X20407500Y-15946071D01*
X20378928Y-15974643D01*
X20350357Y-15988929D01*
X20636071Y-15931786D02*
X20650357Y-15917500D01*
X20678928Y-15903214D01*
X20750357Y-15903214D01*
X20778928Y-15917500D01*
X20793214Y-15931786D01*
X20807500Y-15960357D01*
X20807500Y-15988929D01*
X20793214Y-16031786D01*
X20621786Y-16203214D01*
X20807500Y-16203214D01*
X21064643Y-16003214D02*
X21064643Y-16203214D01*
X20993214Y-15888929D02*
X20921786Y-16103214D01*
X21107500Y-16103214D01*
X21450357Y-16203214D02*
X21450357Y-15903214D01*
X21578928Y-16203214D02*
X21578928Y-16046071D01*
X21564643Y-16017500D01*
X21536071Y-16003214D01*
X21493214Y-16003214D01*
X21464643Y-16017500D01*
X21450357Y-16031786D01*
X21764643Y-16203214D02*
X21736071Y-16188929D01*
X21721786Y-16174643D01*
X21707500Y-16146071D01*
X21707500Y-16060357D01*
X21721786Y-16031786D01*
X21736071Y-16017500D01*
X21764643Y-16003214D01*
X21807500Y-16003214D01*
X21836071Y-16017500D01*
X21850357Y-16031786D01*
X21864643Y-16060357D01*
X21864643Y-16146071D01*
X21850357Y-16174643D01*
X21836071Y-16188929D01*
X21807500Y-16203214D01*
X21764643Y-16203214D01*
X22036071Y-16203214D02*
X22007500Y-16188929D01*
X21993214Y-16160357D01*
X21993214Y-15903214D01*
X22264643Y-16188929D02*
X22236071Y-16203214D01*
X22178928Y-16203214D01*
X22150357Y-16188929D01*
X22136071Y-16160357D01*
X22136071Y-16046071D01*
X22150357Y-16017500D01*
X22178928Y-16003214D01*
X22236071Y-16003214D01*
X22264643Y-16017500D01*
X22278928Y-16046071D01*
X22278928Y-16074643D01*
X22136071Y-16103214D01*
X22393214Y-16188929D02*
X22421786Y-16203214D01*
X22478928Y-16203214D01*
X22507500Y-16188929D01*
X22521786Y-16160357D01*
X22521786Y-16146071D01*
X22507500Y-16117500D01*
X22478928Y-16103214D01*
X22436071Y-16103214D01*
X22407500Y-16088929D01*
X22393214Y-16060357D01*
X22393214Y-16046071D01*
X22407500Y-16017500D01*
X22436071Y-16003214D01*
X22478928Y-16003214D01*
X22507500Y-16017500D01*
X22621786Y-16317500D02*
X22636071Y-16303214D01*
X22664643Y-16260357D01*
X22678928Y-16231786D01*
X22693214Y-16188929D01*
X22707500Y-16117500D01*
X22707500Y-16060357D01*
X22693214Y-15988929D01*
X22678928Y-15946071D01*
X22664643Y-15917500D01*
X22636071Y-15874643D01*
X22621786Y-15860357D01*
X14992500Y-16463500D02*
G75*
G03*
X14992500Y-16463500I-60000J0D01*
G01*
X15436071Y-16599214D02*
X15264643Y-16599214D01*
X15350357Y-16599214D02*
X15350357Y-16299214D01*
X15321786Y-16342071D01*
X15293214Y-16370643D01*
X15264643Y-16384929D01*
X15564643Y-16570643D02*
X15578928Y-16584929D01*
X15564643Y-16599214D01*
X15550357Y-16584929D01*
X15564643Y-16570643D01*
X15564643Y-16599214D01*
X15693214Y-16327786D02*
X15707500Y-16313500D01*
X15736071Y-16299214D01*
X15807500Y-16299214D01*
X15836071Y-16313500D01*
X15850357Y-16327786D01*
X15864643Y-16356357D01*
X15864643Y-16384929D01*
X15850357Y-16427786D01*
X15678928Y-16599214D01*
X15864643Y-16599214D01*
X16050357Y-16299214D02*
X16078928Y-16299214D01*
X16107500Y-16313500D01*
X16121786Y-16327786D01*
X16136071Y-16356357D01*
X16150357Y-16413500D01*
X16150357Y-16484929D01*
X16136071Y-16542071D01*
X16121786Y-16570643D01*
X16107500Y-16584929D01*
X16078928Y-16599214D01*
X16050357Y-16599214D01*
X16021786Y-16584929D01*
X16007500Y-16570643D01*
X15993214Y-16542071D01*
X15978928Y-16484929D01*
X15978928Y-16413500D01*
X15993214Y-16356357D01*
X16007500Y-16327786D01*
X16021786Y-16313500D01*
X16050357Y-16299214D01*
X16336071Y-16299214D02*
X16364643Y-16299214D01*
X16393214Y-16313500D01*
X16407500Y-16327786D01*
X16421786Y-16356357D01*
X16436071Y-16413500D01*
X16436071Y-16484929D01*
X16421786Y-16542071D01*
X16407500Y-16570643D01*
X16393214Y-16584929D01*
X16364643Y-16599214D01*
X16336071Y-16599214D01*
X16307500Y-16584929D01*
X16293214Y-16570643D01*
X16278928Y-16542071D01*
X16264643Y-16484929D01*
X16264643Y-16413500D01*
X16278928Y-16356357D01*
X16293214Y-16327786D01*
X16307500Y-16313500D01*
X16336071Y-16299214D01*
X16564643Y-16599214D02*
X16564643Y-16399214D01*
X16564643Y-16427786D02*
X16578928Y-16413500D01*
X16607500Y-16399214D01*
X16650357Y-16399214D01*
X16678928Y-16413500D01*
X16693214Y-16442071D01*
X16693214Y-16599214D01*
X16693214Y-16442071D02*
X16707500Y-16413500D01*
X16736071Y-16399214D01*
X16778928Y-16399214D01*
X16807500Y-16413500D01*
X16821786Y-16442071D01*
X16821786Y-16599214D01*
X16964643Y-16599214D02*
X16964643Y-16399214D01*
X16964643Y-16427786D02*
X16978928Y-16413500D01*
X17007500Y-16399214D01*
X17050357Y-16399214D01*
X17078928Y-16413500D01*
X17093214Y-16442071D01*
X17093214Y-16599214D01*
X17093214Y-16442071D02*
X17107500Y-16413500D01*
X17136071Y-16399214D01*
X17178928Y-16399214D01*
X17207500Y-16413500D01*
X17221786Y-16442071D01*
X17221786Y-16599214D01*
X17807500Y-16284929D02*
X17550357Y-16670643D01*
X18193214Y-16299214D02*
X18221786Y-16299214D01*
X18250357Y-16313500D01*
X18264643Y-16327786D01*
X18278928Y-16356357D01*
X18293214Y-16413500D01*
X18293214Y-16484929D01*
X18278928Y-16542071D01*
X18264643Y-16570643D01*
X18250357Y-16584929D01*
X18221786Y-16599214D01*
X18193214Y-16599214D01*
X18164643Y-16584929D01*
X18150357Y-16570643D01*
X18136071Y-16542071D01*
X18121786Y-16484929D01*
X18121786Y-16413500D01*
X18136071Y-16356357D01*
X18150357Y-16327786D01*
X18164643Y-16313500D01*
X18193214Y-16299214D01*
X18421786Y-16570643D02*
X18436071Y-16584929D01*
X18421786Y-16599214D01*
X18407500Y-16584929D01*
X18421786Y-16570643D01*
X18421786Y-16599214D01*
X18621786Y-16299214D02*
X18650357Y-16299214D01*
X18678928Y-16313500D01*
X18693214Y-16327786D01*
X18707500Y-16356357D01*
X18721786Y-16413500D01*
X18721786Y-16484929D01*
X18707500Y-16542071D01*
X18693214Y-16570643D01*
X18678928Y-16584929D01*
X18650357Y-16599214D01*
X18621786Y-16599214D01*
X18593214Y-16584929D01*
X18578928Y-16570643D01*
X18564643Y-16542071D01*
X18550357Y-16484929D01*
X18550357Y-16413500D01*
X18564643Y-16356357D01*
X18578928Y-16327786D01*
X18593214Y-16313500D01*
X18621786Y-16299214D01*
X18978928Y-16399214D02*
X18978928Y-16599214D01*
X18907500Y-16284929D02*
X18836071Y-16499214D01*
X19021786Y-16499214D01*
X19107500Y-16299214D02*
X19307500Y-16299214D01*
X19178928Y-16599214D01*
X19407500Y-16327786D02*
X19421786Y-16313500D01*
X19450357Y-16299214D01*
X19521786Y-16299214D01*
X19550357Y-16313500D01*
X19564643Y-16327786D01*
X19578928Y-16356357D01*
X19578928Y-16384929D01*
X19564643Y-16427786D01*
X19393214Y-16599214D01*
X19578928Y-16599214D01*
X19693214Y-16299214D02*
X19693214Y-16356357D01*
X19807500Y-16299214D02*
X19807500Y-16356357D01*
X20250357Y-16713500D02*
X20236071Y-16699214D01*
X20207500Y-16656357D01*
X20193214Y-16627786D01*
X20178928Y-16584929D01*
X20164643Y-16513500D01*
X20164643Y-16456357D01*
X20178928Y-16384929D01*
X20193214Y-16342071D01*
X20207500Y-16313500D01*
X20236071Y-16270643D01*
X20250357Y-16256357D01*
X20521786Y-16599214D02*
X20350357Y-16599214D01*
X20436071Y-16599214D02*
X20436071Y-16299214D01*
X20407500Y-16342071D01*
X20378928Y-16370643D01*
X20350357Y-16384929D01*
X20707500Y-16299214D02*
X20736071Y-16299214D01*
X20764643Y-16313500D01*
X20778928Y-16327786D01*
X20793214Y-16356357D01*
X20807500Y-16413500D01*
X20807500Y-16484929D01*
X20793214Y-16542071D01*
X20778928Y-16570643D01*
X20764643Y-16584929D01*
X20736071Y-16599214D01*
X20707500Y-16599214D01*
X20678928Y-16584929D01*
X20664643Y-16570643D01*
X20650357Y-16542071D01*
X20636071Y-16484929D01*
X20636071Y-16413500D01*
X20650357Y-16356357D01*
X20664643Y-16327786D01*
X20678928Y-16313500D01*
X20707500Y-16299214D01*
X21164643Y-16599214D02*
X21164643Y-16299214D01*
X21293214Y-16599214D02*
X21293214Y-16442071D01*
X21278928Y-16413500D01*
X21250357Y-16399214D01*
X21207500Y-16399214D01*
X21178928Y-16413500D01*
X21164643Y-16427786D01*
X21478928Y-16599214D02*
X21450357Y-16584929D01*
X21436071Y-16570643D01*
X21421786Y-16542071D01*
X21421786Y-16456357D01*
X21436071Y-16427786D01*
X21450357Y-16413500D01*
X21478928Y-16399214D01*
X21521786Y-16399214D01*
X21550357Y-16413500D01*
X21564643Y-16427786D01*
X21578928Y-16456357D01*
X21578928Y-16542071D01*
X21564643Y-16570643D01*
X21550357Y-16584929D01*
X21521786Y-16599214D01*
X21478928Y-16599214D01*
X21750357Y-16599214D02*
X21721786Y-16584929D01*
X21707500Y-16556357D01*
X21707500Y-16299214D01*
X21978928Y-16584929D02*
X21950357Y-16599214D01*
X21893214Y-16599214D01*
X21864643Y-16584929D01*
X21850357Y-16556357D01*
X21850357Y-16442071D01*
X21864643Y-16413500D01*
X21893214Y-16399214D01*
X21950357Y-16399214D01*
X21978928Y-16413500D01*
X21993214Y-16442071D01*
X21993214Y-16470643D01*
X21850357Y-16499214D01*
X22107500Y-16584929D02*
X22136071Y-16599214D01*
X22193214Y-16599214D01*
X22221786Y-16584929D01*
X22236071Y-16556357D01*
X22236071Y-16542071D01*
X22221786Y-16513500D01*
X22193214Y-16499214D01*
X22150357Y-16499214D01*
X22121786Y-16484929D01*
X22107500Y-16456357D01*
X22107500Y-16442071D01*
X22121786Y-16413500D01*
X22150357Y-16399214D01*
X22193214Y-16399214D01*
X22221786Y-16413500D01*
X22336071Y-16713500D02*
X22350357Y-16699214D01*
X22378928Y-16656357D01*
X22393214Y-16627786D01*
X22407500Y-16584929D01*
X22421786Y-16513500D01*
X22421786Y-16456357D01*
X22407500Y-16384929D01*
X22393214Y-16342071D01*
X22378928Y-16313500D01*
X22350357Y-16270643D01*
X22336071Y-16256357D01*
X14917500Y-16784500D02*
X14917500Y-16934500D01*
X14842500Y-16859500D02*
X14992500Y-16859500D01*
X15436071Y-16995214D02*
X15264643Y-16995214D01*
X15350357Y-16995214D02*
X15350357Y-16695214D01*
X15321786Y-16738071D01*
X15293214Y-16766643D01*
X15264643Y-16780929D01*
X15564643Y-16966643D02*
X15578928Y-16980929D01*
X15564643Y-16995214D01*
X15550357Y-16980929D01*
X15564643Y-16966643D01*
X15564643Y-16995214D01*
X15850357Y-16695214D02*
X15707500Y-16695214D01*
X15693214Y-16838072D01*
X15707500Y-16823786D01*
X15736071Y-16809500D01*
X15807500Y-16809500D01*
X15836071Y-16823786D01*
X15850357Y-16838072D01*
X15864643Y-16866643D01*
X15864643Y-16938072D01*
X15850357Y-16966643D01*
X15836071Y-16980929D01*
X15807500Y-16995214D01*
X15736071Y-16995214D01*
X15707500Y-16980929D01*
X15693214Y-16966643D01*
X16050357Y-16695214D02*
X16078928Y-16695214D01*
X16107500Y-16709500D01*
X16121786Y-16723786D01*
X16136071Y-16752357D01*
X16150357Y-16809500D01*
X16150357Y-16880929D01*
X16136071Y-16938072D01*
X16121786Y-16966643D01*
X16107500Y-16980929D01*
X16078928Y-16995214D01*
X16050357Y-16995214D01*
X16021786Y-16980929D01*
X16007500Y-16966643D01*
X15993214Y-16938072D01*
X15978928Y-16880929D01*
X15978928Y-16809500D01*
X15993214Y-16752357D01*
X16007500Y-16723786D01*
X16021786Y-16709500D01*
X16050357Y-16695214D01*
X16336071Y-16695214D02*
X16364643Y-16695214D01*
X16393214Y-16709500D01*
X16407500Y-16723786D01*
X16421786Y-16752357D01*
X16436071Y-16809500D01*
X16436071Y-16880929D01*
X16421786Y-16938072D01*
X16407500Y-16966643D01*
X16393214Y-16980929D01*
X16364643Y-16995214D01*
X16336071Y-16995214D01*
X16307500Y-16980929D01*
X16293214Y-16966643D01*
X16278928Y-16938072D01*
X16264643Y-16880929D01*
X16264643Y-16809500D01*
X16278928Y-16752357D01*
X16293214Y-16723786D01*
X16307500Y-16709500D01*
X16336071Y-16695214D01*
X16564643Y-16995214D02*
X16564643Y-16795214D01*
X16564643Y-16823786D02*
X16578928Y-16809500D01*
X16607500Y-16795214D01*
X16650357Y-16795214D01*
X16678928Y-16809500D01*
X16693214Y-16838072D01*
X16693214Y-16995214D01*
X16693214Y-16838072D02*
X16707500Y-16809500D01*
X16736071Y-16795214D01*
X16778928Y-16795214D01*
X16807500Y-16809500D01*
X16821786Y-16838072D01*
X16821786Y-16995214D01*
X16964643Y-16995214D02*
X16964643Y-16795214D01*
X16964643Y-16823786D02*
X16978928Y-16809500D01*
X17007500Y-16795214D01*
X17050357Y-16795214D01*
X17078928Y-16809500D01*
X17093214Y-16838072D01*
X17093214Y-16995214D01*
X17093214Y-16838072D02*
X17107500Y-16809500D01*
X17136071Y-16795214D01*
X17178928Y-16795214D01*
X17207500Y-16809500D01*
X17221786Y-16838072D01*
X17221786Y-16995214D01*
X17807500Y-16680929D02*
X17550357Y-17066643D01*
X18193214Y-16695214D02*
X18221786Y-16695214D01*
X18250357Y-16709500D01*
X18264643Y-16723786D01*
X18278928Y-16752357D01*
X18293214Y-16809500D01*
X18293214Y-16880929D01*
X18278928Y-16938072D01*
X18264643Y-16966643D01*
X18250357Y-16980929D01*
X18221786Y-16995214D01*
X18193214Y-16995214D01*
X18164643Y-16980929D01*
X18150357Y-16966643D01*
X18136071Y-16938072D01*
X18121786Y-16880929D01*
X18121786Y-16809500D01*
X18136071Y-16752357D01*
X18150357Y-16723786D01*
X18164643Y-16709500D01*
X18193214Y-16695214D01*
X18421786Y-16966643D02*
X18436071Y-16980929D01*
X18421786Y-16995214D01*
X18407500Y-16980929D01*
X18421786Y-16966643D01*
X18421786Y-16995214D01*
X18621786Y-16695214D02*
X18650357Y-16695214D01*
X18678928Y-16709500D01*
X18693214Y-16723786D01*
X18707500Y-16752357D01*
X18721786Y-16809500D01*
X18721786Y-16880929D01*
X18707500Y-16938072D01*
X18693214Y-16966643D01*
X18678928Y-16980929D01*
X18650357Y-16995214D01*
X18621786Y-16995214D01*
X18593214Y-16980929D01*
X18578928Y-16966643D01*
X18564643Y-16938072D01*
X18550357Y-16880929D01*
X18550357Y-16809500D01*
X18564643Y-16752357D01*
X18578928Y-16723786D01*
X18593214Y-16709500D01*
X18621786Y-16695214D01*
X18993214Y-16695214D02*
X18850357Y-16695214D01*
X18836071Y-16838072D01*
X18850357Y-16823786D01*
X18878928Y-16809500D01*
X18950357Y-16809500D01*
X18978928Y-16823786D01*
X18993214Y-16838072D01*
X19007500Y-16866643D01*
X19007500Y-16938072D01*
X18993214Y-16966643D01*
X18978928Y-16980929D01*
X18950357Y-16995214D01*
X18878928Y-16995214D01*
X18850357Y-16980929D01*
X18836071Y-16966643D01*
X19150357Y-16995214D02*
X19207500Y-16995214D01*
X19236071Y-16980929D01*
X19250357Y-16966643D01*
X19278928Y-16923786D01*
X19293214Y-16866643D01*
X19293214Y-16752357D01*
X19278928Y-16723786D01*
X19264643Y-16709500D01*
X19236071Y-16695214D01*
X19178928Y-16695214D01*
X19150357Y-16709500D01*
X19136071Y-16723786D01*
X19121786Y-16752357D01*
X19121786Y-16823786D01*
X19136071Y-16852357D01*
X19150357Y-16866643D01*
X19178928Y-16880929D01*
X19236071Y-16880929D01*
X19264643Y-16866643D01*
X19278928Y-16852357D01*
X19293214Y-16823786D01*
X19578928Y-16995214D02*
X19407500Y-16995214D01*
X19493214Y-16995214D02*
X19493214Y-16695214D01*
X19464643Y-16738071D01*
X19436071Y-16766643D01*
X19407500Y-16780929D01*
X19693214Y-16695214D02*
X19693214Y-16752357D01*
X19807500Y-16695214D02*
X19807500Y-16752357D01*
X20250357Y-17109500D02*
X20236071Y-17095214D01*
X20207500Y-17052357D01*
X20193214Y-17023786D01*
X20178928Y-16980929D01*
X20164643Y-16909500D01*
X20164643Y-16852357D01*
X20178928Y-16780929D01*
X20193214Y-16738071D01*
X20207500Y-16709500D01*
X20236071Y-16666643D01*
X20250357Y-16652357D01*
X20507500Y-16695214D02*
X20364643Y-16695214D01*
X20350357Y-16838072D01*
X20364643Y-16823786D01*
X20393214Y-16809500D01*
X20464643Y-16809500D01*
X20493214Y-16823786D01*
X20507500Y-16838072D01*
X20521786Y-16866643D01*
X20521786Y-16938072D01*
X20507500Y-16966643D01*
X20493214Y-16980929D01*
X20464643Y-16995214D01*
X20393214Y-16995214D01*
X20364643Y-16980929D01*
X20350357Y-16966643D01*
X20878928Y-16995214D02*
X20878928Y-16695214D01*
X21007500Y-16995214D02*
X21007500Y-16838072D01*
X20993214Y-16809500D01*
X20964643Y-16795214D01*
X20921786Y-16795214D01*
X20893214Y-16809500D01*
X20878928Y-16823786D01*
X21193214Y-16995214D02*
X21164643Y-16980929D01*
X21150357Y-16966643D01*
X21136071Y-16938072D01*
X21136071Y-16852357D01*
X21150357Y-16823786D01*
X21164643Y-16809500D01*
X21193214Y-16795214D01*
X21236071Y-16795214D01*
X21264643Y-16809500D01*
X21278928Y-16823786D01*
X21293214Y-16852357D01*
X21293214Y-16938072D01*
X21278928Y-16966643D01*
X21264643Y-16980929D01*
X21236071Y-16995214D01*
X21193214Y-16995214D01*
X21464643Y-16995214D02*
X21436071Y-16980929D01*
X21421786Y-16952357D01*
X21421786Y-16695214D01*
X21693214Y-16980929D02*
X21664643Y-16995214D01*
X21607500Y-16995214D01*
X21578928Y-16980929D01*
X21564643Y-16952357D01*
X21564643Y-16838072D01*
X21578928Y-16809500D01*
X21607500Y-16795214D01*
X21664643Y-16795214D01*
X21693214Y-16809500D01*
X21707500Y-16838072D01*
X21707500Y-16866643D01*
X21564643Y-16895214D01*
X21821786Y-16980929D02*
X21850357Y-16995214D01*
X21907500Y-16995214D01*
X21936071Y-16980929D01*
X21950357Y-16952357D01*
X21950357Y-16938072D01*
X21936071Y-16909500D01*
X21907500Y-16895214D01*
X21864643Y-16895214D01*
X21836071Y-16880929D01*
X21821786Y-16852357D01*
X21821786Y-16838072D01*
X21836071Y-16809500D01*
X21864643Y-16795214D01*
X21907500Y-16795214D01*
X21936071Y-16809500D01*
X22050357Y-17109500D02*
X22064643Y-17095214D01*
X22093214Y-17052357D01*
X22107500Y-17023786D01*
X22121786Y-16980929D01*
X22136071Y-16909500D01*
X22136071Y-16852357D01*
X22121786Y-16780929D01*
X22107500Y-16738071D01*
X22093214Y-16709500D01*
X22064643Y-16666643D01*
X22050357Y-16652357D01*
X14952960Y-17350960D02*
X14952960Y-17160040D01*
X14762040Y-17160040D01*
X14762040Y-17350960D01*
X14952960Y-17350960D01*
X15264643Y-17119786D02*
X15278928Y-17105500D01*
X15307500Y-17091214D01*
X15378928Y-17091214D01*
X15407500Y-17105500D01*
X15421786Y-17119786D01*
X15436071Y-17148357D01*
X15436071Y-17176929D01*
X15421786Y-17219786D01*
X15250357Y-17391214D01*
X15436071Y-17391214D01*
X15564643Y-17362643D02*
X15578928Y-17376929D01*
X15564643Y-17391214D01*
X15550357Y-17376929D01*
X15564643Y-17362643D01*
X15564643Y-17391214D01*
X15678928Y-17091214D02*
X15878928Y-17091214D01*
X15750357Y-17391214D01*
X16050357Y-17091214D02*
X16078928Y-17091214D01*
X16107500Y-17105500D01*
X16121786Y-17119786D01*
X16136071Y-17148357D01*
X16150357Y-17205500D01*
X16150357Y-17276929D01*
X16136071Y-17334072D01*
X16121786Y-17362643D01*
X16107500Y-17376929D01*
X16078928Y-17391214D01*
X16050357Y-17391214D01*
X16021786Y-17376929D01*
X16007500Y-17362643D01*
X15993214Y-17334072D01*
X15978928Y-17276929D01*
X15978928Y-17205500D01*
X15993214Y-17148357D01*
X16007500Y-17119786D01*
X16021786Y-17105500D01*
X16050357Y-17091214D01*
X16336071Y-17091214D02*
X16364643Y-17091214D01*
X16393214Y-17105500D01*
X16407500Y-17119786D01*
X16421786Y-17148357D01*
X16436071Y-17205500D01*
X16436071Y-17276929D01*
X16421786Y-17334072D01*
X16407500Y-17362643D01*
X16393214Y-17376929D01*
X16364643Y-17391214D01*
X16336071Y-17391214D01*
X16307500Y-17376929D01*
X16293214Y-17362643D01*
X16278928Y-17334072D01*
X16264643Y-17276929D01*
X16264643Y-17205500D01*
X16278928Y-17148357D01*
X16293214Y-17119786D01*
X16307500Y-17105500D01*
X16336071Y-17091214D01*
X16564643Y-17391214D02*
X16564643Y-17191214D01*
X16564643Y-17219786D02*
X16578928Y-17205500D01*
X16607500Y-17191214D01*
X16650357Y-17191214D01*
X16678928Y-17205500D01*
X16693214Y-17234072D01*
X16693214Y-17391214D01*
X16693214Y-17234072D02*
X16707500Y-17205500D01*
X16736071Y-17191214D01*
X16778928Y-17191214D01*
X16807500Y-17205500D01*
X16821786Y-17234072D01*
X16821786Y-17391214D01*
X16964643Y-17391214D02*
X16964643Y-17191214D01*
X16964643Y-17219786D02*
X16978928Y-17205500D01*
X17007500Y-17191214D01*
X17050357Y-17191214D01*
X17078928Y-17205500D01*
X17093214Y-17234072D01*
X17093214Y-17391214D01*
X17093214Y-17234072D02*
X17107500Y-17205500D01*
X17136071Y-17191214D01*
X17178928Y-17191214D01*
X17207500Y-17205500D01*
X17221786Y-17234072D01*
X17221786Y-17391214D01*
X17807500Y-17076929D02*
X17550357Y-17462643D01*
X18193214Y-17091214D02*
X18221786Y-17091214D01*
X18250357Y-17105500D01*
X18264643Y-17119786D01*
X18278928Y-17148357D01*
X18293214Y-17205500D01*
X18293214Y-17276929D01*
X18278928Y-17334072D01*
X18264643Y-17362643D01*
X18250357Y-17376929D01*
X18221786Y-17391214D01*
X18193214Y-17391214D01*
X18164643Y-17376929D01*
X18150357Y-17362643D01*
X18136071Y-17334072D01*
X18121786Y-17276929D01*
X18121786Y-17205500D01*
X18136071Y-17148357D01*
X18150357Y-17119786D01*
X18164643Y-17105500D01*
X18193214Y-17091214D01*
X18421786Y-17362643D02*
X18436071Y-17376929D01*
X18421786Y-17391214D01*
X18407500Y-17376929D01*
X18421786Y-17362643D01*
X18421786Y-17391214D01*
X18721786Y-17391214D02*
X18550357Y-17391214D01*
X18636071Y-17391214D02*
X18636071Y-17091214D01*
X18607500Y-17134072D01*
X18578928Y-17162643D01*
X18550357Y-17176929D01*
X18907500Y-17091214D02*
X18936071Y-17091214D01*
X18964643Y-17105500D01*
X18978928Y-17119786D01*
X18993214Y-17148357D01*
X19007500Y-17205500D01*
X19007500Y-17276929D01*
X18993214Y-17334072D01*
X18978928Y-17362643D01*
X18964643Y-17376929D01*
X18936071Y-17391214D01*
X18907500Y-17391214D01*
X18878928Y-17376929D01*
X18864643Y-17362643D01*
X18850357Y-17334072D01*
X18836071Y-17276929D01*
X18836071Y-17205500D01*
X18850357Y-17148357D01*
X18864643Y-17119786D01*
X18878928Y-17105500D01*
X18907500Y-17091214D01*
X19264643Y-17091214D02*
X19207500Y-17091214D01*
X19178928Y-17105500D01*
X19164643Y-17119786D01*
X19136071Y-17162643D01*
X19121786Y-17219786D01*
X19121786Y-17334072D01*
X19136071Y-17362643D01*
X19150357Y-17376929D01*
X19178928Y-17391214D01*
X19236071Y-17391214D01*
X19264643Y-17376929D01*
X19278928Y-17362643D01*
X19293214Y-17334072D01*
X19293214Y-17262643D01*
X19278928Y-17234072D01*
X19264643Y-17219786D01*
X19236071Y-17205500D01*
X19178928Y-17205500D01*
X19150357Y-17219786D01*
X19136071Y-17234072D01*
X19121786Y-17262643D01*
X19393214Y-17091214D02*
X19578928Y-17091214D01*
X19478928Y-17205500D01*
X19521786Y-17205500D01*
X19550357Y-17219786D01*
X19564643Y-17234072D01*
X19578928Y-17262643D01*
X19578928Y-17334072D01*
X19564643Y-17362643D01*
X19550357Y-17376929D01*
X19521786Y-17391214D01*
X19436071Y-17391214D01*
X19407500Y-17376929D01*
X19393214Y-17362643D01*
X19693214Y-17091214D02*
X19693214Y-17148357D01*
X19807500Y-17091214D02*
X19807500Y-17148357D01*
X20250357Y-17505500D02*
X20236071Y-17491214D01*
X20207500Y-17448357D01*
X20193214Y-17419786D01*
X20178928Y-17376929D01*
X20164643Y-17305500D01*
X20164643Y-17248357D01*
X20178928Y-17176929D01*
X20193214Y-17134072D01*
X20207500Y-17105500D01*
X20236071Y-17062643D01*
X20250357Y-17048357D01*
X20493214Y-17191214D02*
X20493214Y-17391214D01*
X20421786Y-17076929D02*
X20350357Y-17291214D01*
X20536071Y-17291214D01*
X20878928Y-17391214D02*
X20878928Y-17091214D01*
X21007500Y-17391214D02*
X21007500Y-17234072D01*
X20993214Y-17205500D01*
X20964643Y-17191214D01*
X20921786Y-17191214D01*
X20893214Y-17205500D01*
X20878928Y-17219786D01*
X21193214Y-17391214D02*
X21164643Y-17376929D01*
X21150357Y-17362643D01*
X21136071Y-17334072D01*
X21136071Y-17248357D01*
X21150357Y-17219786D01*
X21164643Y-17205500D01*
X21193214Y-17191214D01*
X21236071Y-17191214D01*
X21264643Y-17205500D01*
X21278928Y-17219786D01*
X21293214Y-17248357D01*
X21293214Y-17334072D01*
X21278928Y-17362643D01*
X21264643Y-17376929D01*
X21236071Y-17391214D01*
X21193214Y-17391214D01*
X21464643Y-17391214D02*
X21436071Y-17376929D01*
X21421786Y-17348357D01*
X21421786Y-17091214D01*
X21693214Y-17376929D02*
X21664643Y-17391214D01*
X21607500Y-17391214D01*
X21578928Y-17376929D01*
X21564643Y-17348357D01*
X21564643Y-17234072D01*
X21578928Y-17205500D01*
X21607500Y-17191214D01*
X21664643Y-17191214D01*
X21693214Y-17205500D01*
X21707500Y-17234072D01*
X21707500Y-17262643D01*
X21564643Y-17291214D01*
X21821786Y-17376929D02*
X21850357Y-17391214D01*
X21907500Y-17391214D01*
X21936071Y-17376929D01*
X21950357Y-17348357D01*
X21950357Y-17334072D01*
X21936071Y-17305500D01*
X21907500Y-17291214D01*
X21864643Y-17291214D01*
X21836071Y-17276929D01*
X21821786Y-17248357D01*
X21821786Y-17234072D01*
X21836071Y-17205500D01*
X21864643Y-17191214D01*
X21907500Y-17191214D01*
X21936071Y-17205500D01*
X22050357Y-17505500D02*
X22064643Y-17491214D01*
X22093214Y-17448357D01*
X22107500Y-17419786D01*
X22121786Y-17376929D01*
X22136071Y-17305500D01*
X22136071Y-17248357D01*
X22121786Y-17176929D01*
X22107500Y-17134072D01*
X22093214Y-17105500D01*
X22064643Y-17062643D01*
X22050357Y-17048357D01*
M02*
